999
dxfrw 0.6.3
  0
SECTION
  2
HEADER
  9
$ACADVER
  1
AC1021
  9
$DWGCODEPAGE
  3
ANSI_1252
  9
$INSBASE
 10
0
 20
0
 30
0
  9
$EXTMIN
 10
-1.3962340972e-006
 20
-449.9999992618848
 30
0
  9
$EXTMAX
 10
900
 20
150
 30
0
  9
$LIMMIN
 10
0
 20
0
  9
$LIMMAX
 10
420
 20
297
  9
$ORTHOMODE
 70
    0
  9
$REGENMODE
 70
    1
  9
$FILLMODE
 70
    1
  9
$QTEXTMODE
 70
    0
  9
$MIRRTEXT
 70
    0
  9
$LTSCALE
 40
1
  9
$ATTMODE
 70
    1
  9
$TEXTSIZE
 40
7.5
  9
$TRACEWID
 40
1
  9
$TEXTSTYLE
  7
MyTextStyle
  9
$CLAYER
  8
0
  9
$CELTYPE
  6
ByLayer
  9
$CECOLOR
 62
  256
  9
$CELTSCALE
 40
1
  9
$DISPSILH
 70
    0
  9
$DIMSCALE
 40
1
  9
$DIMASZ
 40
2.5
  9
$DIMEXO
 40
0.625
  9
$DIMDLI
 40
3.75
  9
$DIMRND
 40
0
  9
$DIMDLE
 40
0
  9
$DIMEXE
 40
1.25
  9
$DIMTP
 40
0
  9
$DIMTM
 40
0
  9
$DIMTXT
 40
2.5
  9
$DIMCEN
 40
2.5
  9
$DIMTSZ
 40
0
  9
$DIMTOL
 70
    0
  9
$DIMLIM
 70
    0
  9
$DIMTIH
 70
    0
  9
$DIMTOH
 70
    0
  9
$DIMSE1
 70
    0
  9
$DIMSE2
 70
    0
  9
$DIMTAD
 70
    1
  9
$DIMZIN
 70
    8
  9
$DIMBLK
  1

  9
$DIMASO
 70
    1
  9
$DIMSHO
 70
    1
  9
$DIMPOST
  1

  9
$DIMAPOST
  1

  9
$DIMALT
 70
    0
  9
$DIMALTD
 70
    3
  9
$DIMALTF
 40
0.03937007874016
  9
$DIMLFAC
 40
1
  9
$DIMTOFL
 70
    1
  9
$DIMTVP
 40
0
  9
$DIMTIX
 70
    0
  9
$DIMSOXD
 70
    0
  9
$DIMSAH
 70
    0
  9
$DIMBLK1
  1

  9
$DIMBLK2
  1

  9
$DIMSTYLE
  2
ISO-25
  9
$DIMCLRD
 70
    0
  9
$DIMCLRE
 70
    0
  9
$DIMCLRT
 70
    0
  9
$DIMTFAC
 40
1
  9
$DIMGAP
 40
0.625
  9
$DIMJUST
 70
    0
  9
$DIMSD1
 70
    0
  9
$DIMSD2
 70
    0
  9
$DIMTOLJ
 70
    0
  9
$DIMTZIN
 70
    8
  9
$DIMALTZ
 70
    0
  9
$DIMALTTZ
 70
    0
  9
$DIMUPT
 70
    0
  9
$DIMDEC
 70
    2
  9
$DIMTDEC
 70
    2
  9
$DIMALTU
 70
    2
  9
$DIMALTTD
 70
    3
  9
$DIMTXSTY
  7
Standard
  9
$DIMAUNIT
 70
    0
  9
$DIMADEC
 70
    0
  9
$DIMALTRND
 40
0
  9
$DIMAZIN
 70
    0
  9
$DIMDSEP
 70
   44
  9
$DIMATFIT
 70
    3
  9
$DIMFRAC
 70
    0
  9
$DIMLDRBLK
  1

  9
$DIMLUNIT
 70
    2
  9
$DIMLWD
 70
   -2
  9
$DIMLWE
 70
   -2
  9
$DIMTMOVE
 70
    0
  9
$DIMFXL
 40
1
  9
$DIMFXLON
 70
    0
  9
$DIMJOGANG
 40
0.7853981633974483
  9
$DIMTFILL
 70
    0
  9
$DIMTFILLCLR
 70
    0
  9
$DIMARCSYM
 70
    0
  9
$DIMLTYPE
  6

  9
$DIMLTEX1
  6

  9
$DIMLTEX2
  6

  9
$LUNITS
 70
    2
  9
$LUPREC
 70
    4
  9
$SKETCHINC
 40
1
  9
$FILLETRAD
 40
0
  9
$AUNITS
 70
    0
  9
$AUPREC
 70
    0
  9
$MENU
  1
.
  9
$ELEVATION
 40
0
  9
$PELEVATION
 40
0
  9
$THICKNESS
 40
0
  9
$LIMCHECK
 70
    0
  9
$CHAMFERA
 40
0
  9
$CHAMFERB
 40
0
  9
$CHAMFERC
 40
0
  9
$CHAMFERD
 40
0
  9
$SKPOLY
 70
    0
  9
$USRTIMER
 70
    1
  9
$ANGBASE
 50
0
  9
$ANGDIR
 70
    0
  9
$PDMODE
 70
   66
  9
$PDSIZE
 40
0
  9
$PLINEWID
 40
0
  9
$SPLFRAME
 70
    0
  9
$SPLINETYPE
 70
    6
  9
$SPLINESEGS
 70
    8
  9
$HANDSEED
  5
20000
  9
$SURFTAB1
 70
    6
  9
$SURFTAB2
 70
    6
  9
$SURFTYPE
 70
    6
  9
$SURFU
 70
    6
  9
$SURFV
 70
    6
  9
$UCSBASE
  2

  9
$UCSNAME
  2

  9
$UCSORG
 10
0
 20
0
 30
0
  9
$UCSXDIR
 10
1
 20
0
 30
0
  9
$UCSYDIR
 10
0
 20
1
 30
0
  9
$UCSORTHOREF
  2

  9
$UCSORTHOVIEW
 70
    0
  9
$UCSORGTOP
 10
0
 20
0
 30
0
  9
$UCSORGBOTTOM
 10
0
 20
0
 30
0
  9
$UCSORGLEFT
 10
0
 20
0
 30
0
  9
$UCSORGRIGHT
 10
0
 20
0
 30
0
  9
$UCSORGFRONT
 10
0
 20
0
 30
0
  9
$UCSORGBACK
 10
0
 20
0
 30
0
  9
$PUCSBASE
  2

  9
$PUCSNAME
  2

  9
$PUCSORG
 10
0
 20
0
 30
0
  9
$PUCSXDIR
 10
1
 20
0
 30
0
  9
$PUCSYDIR
 10
0
 20
1
 30
0
  9
$PUCSORTHOREF
  2

  9
$PUCSORTHOVIEW
 70
    0
  9
$PUCSORGTOP
 10
0
 20
0
 30
0
  9
$PUCSORGBOTTOM
 10
0
 20
0
 30
0
  9
$PUCSORGLEFT
 10
0
 20
0
 30
0
  9
$PUCSORGRIGHT
 10
0
 20
0
 30
0
  9
$PUCSORGFRONT
 10
0
 20
0
 30
0
  9
$PUCSORGBACK
 10
0
 20
0
 30
0
  9
$USERI1
 70
    0
  9
$USERI2
 70
    0
  9
$USERI3
 70
    0
  9
$USERI4
 70
    0
  9
$USERI5
 70
    0
  9
$USERR1
 40
0
  9
$USERR2
 40
0
  9
$USERR3
 40
0
  9
$USERR4
 40
0
  9
$USERR5
 40
0
  9
$WORLDVIEW
 70
    1
  9
$SHADEDGE
 70
    3
  9
$SHADEDIF
 70
   70
  9
$TILEMODE
 70
    1
  9
$MAXACTVP
 70
   64
  9
$PINSBASE
 10
0
 20
0
 30
0
  9
$PLIMCHECK
 70
    0
  9
$PEXTMIN
 10
25.69999999999999
 20
19.5
 30
0
  9
$PEXTMAX
 10
231.3
 20
175.5
 30
0
  9
$GRIDMODE
 70
    1
  9
$SNAPSTYLE
 70
    0
  9
$PLIMMIN
 10
-20
 20
-7.5
  9
$PLIMMAX
 10
277
 20
202.5
  9
$UNITMODE
 70
    0
  9
$VISRETAIN
 70
    1
  9
$PLINEGEN
 70
    0
  9
$PSLTSCALE
 70
    1
  9
$TREEDEPTH
 70
 3020
  9
$CMLSTYLE
  2
Standard
  9
$CMLJUST
 70
    0
  9
$CMLSCALE
 40
15
  9
$PROXYGRAPHICS
 70
    1
  9
$MEASUREMENT
 70
    1
  9
$CELWEIGHT
370
   -1
  9
$ENDCAPS
280
    0
  9
$JOINSTYLE
280
    0
  9
$LWDISPLAY
290
    1
  9
$INSUNITS
 70
    4
  9
$HYPERLINKBASE
  1

  9
$STYLESHEET
  1

  9
$XEDIT
290
    1
  9
$CEPSNTYPE
380
    0
  9
$PSTYLEMODE
290
    1
  9
$EXTNAMES
290
    1
  9
$PSVPSCALE
 40
0
  9
$OLESTARTUP
290
    0
  9
$SORTENTS
280
  127
  9
$INDEXCTL
280
    0
  9
$HIDETEXT
280
    0
  9
$XCLIPFRAME
290
    2
  9
$HALOGAP
280
    0
  9
$OBSCOLOR
 70
  257
  9
$OBSLTYPE
280
    0
  9
$INTERSECTIONDISPLAY
280
    0
  9
$INTERSECTIONCOLOR
 70
  257
  9
$DIMASSOC
280
    1
  9
$PROJECTNAME
  1

  9
$CAMERADISPLAY
290
    0
  9
$LENSLENGTH
 40
50
  9
$CAMERAHEIGHT
 40
0
  9
$STEPSPERSEC
 40
2
  9
$STEPSIZE
 40
6
  9
$3DDWFPREC
 40
2
  9
$PSOLWIDTH
 40
0.25
  9
$PSOLHEIGHT
 40
4
  9
$LOFTANG1
 40
1.570796326794896
  9
$LOFTANG2
 40
1.570796326794896
  9
$LOFTMAG1
 40
0
  9
$LOFTMAG2
 40
0
  9
$LOFTPARAM
 70
    7
  9
$LOFTNORMALS
280
    1
  9
$LATITUDE
 40
37.795
  9
$LONGITUDE
 40
-122.394
  9
$NORTHDIRECTION
 40
0
  9
$TIMEZONE
 70
-8000
  9
$LIGHTGLYPHDISPLAY
280
    1
  9
$TILEMODELIGHTSYNCH
280
    1
  9
$SOLIDHIST
280
    0
  9
$SHOWHIST
280
    1
  9
$DWFFRAME
280
    2
  9
$DGNFRAME
280
    0
  9
$REALWORLDSCALE
290
    1
  9
$INTERFERECOLOR
 62
    1
  9
$CSHADOW
280
    0
  9
$SHADOWPLANELOCATION
 40
0
  0
ENDSEC
  0
SECTION
  2
CLASSES
  0
ENDSEC
  0
SECTION
  2
TABLES
  0
TABLE
  2
VPORT
  5
8
330
0
100
AcDbSymbolTable
 70
    1
  0
VPORT
  5
31
330
2
100
AcDbSymbolTableRecord
100
AcDbViewportTableRecord
  2
*ACTIVE
 70
    0
 10
0
 20
0
 11
1
 21
1
 12
694.5437868415993
 22
78.58878156797718
 13
0
 23
0
 14
10
 24
10
 15
10
 25
10
 16
0
 26
0
 36
1
 17
0
 27
0
 37
0
 40
698.6583827352107
 41
1.886925795053004
 42
50
 43
0
 44
0
 50
0
 51
0
 71
    0
 72
  100
 73
    1
 74
    3
 75
    0
 76
    1
 77
    0
 78
    0
281
    0
 65
    1
110
0
120
0
130
0
111
1
121
0
131
0
112
0
122
1
132
0
 79
    0
146
0
348
10020
 60
    7
 61
    5
292
1
282
    1
141
0
142
0
 63
  250
421
3358443
  0
ENDTAB
  0
TABLE
  2
LTYPE
  5
5
330
0
100
AcDbSymbolTable
 70
    4
  0
LTYPE
  5
14
330
5
100
AcDbSymbolTableRecord
100
AcDbLinetypeTableRecord
  2
ByBlock
 70
    0
  3

 72
   65
 73
    0
 40
0
  0
LTYPE
  5
15
330
5
100
AcDbSymbolTableRecord
100
AcDbLinetypeTableRecord
  2
ByLayer
 70
    0
  3

 72
   65
 73
    0
 40
0
  0
LTYPE
  5
16
330
5
100
AcDbSymbolTableRecord
100
AcDbLinetypeTableRecord
  2
Continuous
 70
    0
  3
Solid line
 72
   65
 73
    0
 40
0
  0
LTYPE
  5
32
330
5
100
AcDbSymbolTableRecord
100
AcDbLinetypeTableRecord
  2
DOT
 70
    0
  3
Dot . . . . . . . . . . . . . . . . . . . . . .
 72
   65
 73
    2
 40
6.35
 49
0
 74
    0
 49
-6.35
 74
    0
  0
LTYPE
  5
33
330
5
100
AcDbSymbolTableRecord
100
AcDbLinetypeTableRecord
  2
DOTTINY
 70
    0
  3
Dot (.15x) .....................................
 72
   65
 73
    2
 40
0.9525
 49
0
 74
    0
 49
-0.9525
 74
    0
  0
LTYPE
  5
34
330
5
100
AcDbSymbolTableRecord
100
AcDbLinetypeTableRecord
  2
DOT2
 70
    0
  3
Dot (.5x) .....................................
 72
   65
 73
    2
 40
3.175
 49
0
 74
    0
 49
-3.175
 74
    0
  0
LTYPE
  5
35
330
5
100
AcDbSymbolTableRecord
100
AcDbLinetypeTableRecord
  2
DOTX2
 70
    0
  3
Dot (2x) .  .  .  .  .  .  .  .  .  .  .  .  .
 72
   65
 73
    2
 40
12.7
 49
0
 74
    0
 49
-12.7
 74
    0
  0
LTYPE
  5
36
330
5
100
AcDbSymbolTableRecord
100
AcDbLinetypeTableRecord
  2
DASHED
 70
    0
  3
Dashed _ _ _ _ _ _ _ _ _ _ _ _ _ _ _ _ _
 72
   65
 73
    2
 40
19.05
 49
12.7
 74
    0
 49
-6.35
 74
    0
  0
LTYPE
  5
37
330
5
100
AcDbSymbolTableRecord
100
AcDbLinetypeTableRecord
  2
DASHEDTINY
 70
    0
  3
Dashed (.15x) _ _ _ _ _ _ _ _ _ _ _ _ _ _ _ _ _
 72
   65
 73
    2
 40
2.8575
 49
1.905
 74
    0
 49
-0.9525
 74
    0
  0
LTYPE
  5
38
330
5
100
AcDbSymbolTableRecord
100
AcDbLinetypeTableRecord
  2
DASHED2
 70
    0
  3
Dashed (.5x) _ _ _ _ _ _ _ _ _ _ _ _ _ _ _ _ _
 72
   65
 73
    2
 40
9.524999999999999
 49
6.35
 74
    0
 49
-3.175
 74
    0
  0
LTYPE
  5
39
330
5
100
AcDbSymbolTableRecord
100
AcDbLinetypeTableRecord
  2
DASHEDX2
 70
    0
  3
Dashed (2x) ____  ____  ____  ____  ____  ___
 72
   65
 73
    2
 40
38.09999999999999
 49
25.4
 74
    0
 49
-12.7
 74
    0
  0
LTYPE
  5
3A
330
5
100
AcDbSymbolTableRecord
100
AcDbLinetypeTableRecord
  2
DASHDOT
 70
    0
  3
Dash dot __ . __ . __ . __ . __ . __ . __ . __
 72
   65
 73
    4
 40
25.4
 49
12.7
 74
    0
 49
-6.35
 74
    0
 49
0
 74
    0
 49
-6.35
 74
    0
  0
LTYPE
  5
3B
330
5
100
AcDbSymbolTableRecord
100
AcDbLinetypeTableRecord
  2
DASHDOTTINY
 70
    0
  3
Dash dot (.15x) _._._._._._._._._._._._._._._.
 72
   65
 73
    4
 40
3.81
 49
1.905
 74
    0
 49
-0.9525
 74
    0
 49
0
 74
    0
 49
-0.9525
 74
    0
  0
LTYPE
  5
3C
330
5
100
AcDbSymbolTableRecord
100
AcDbLinetypeTableRecord
  2
DASHDOT2
 70
    0
  3
Dash dot (.5x) _._._._._._._._._._._._._._._.
 72
   65
 73
    4
 40
12.7
 49
6.35
 74
    0
 49
-3.175
 74
    0
 49
0
 74
    0
 49
-3.175
 74
    0
  0
LTYPE
  5
3D
330
5
100
AcDbSymbolTableRecord
100
AcDbLinetypeTableRecord
  2
DASHDOTX2
 70
    0
  3
Dash dot (2x) ____  .  ____  .  ____  .  ___
 72
   65
 73
    4
 40
50.8
 49
25.4
 74
    0
 49
-12.7
 74
    0
 49
0
 74
    0
 49
-12.7
 74
    0
  0
LTYPE
  5
3E
330
5
100
AcDbSymbolTableRecord
100
AcDbLinetypeTableRecord
  2
DIVIDE
 70
    0
  3
Divide ____ . . ____ . . ____ . . ____ . . ____
 72
   65
 73
    6
 40
31.75
 49
12.7
 74
    0
 49
-6.35
 74
    0
 49
0
 74
    0
 49
-6.35
 74
    0
 49
0
 74
    0
 49
-6.35
 74
    0
  0
LTYPE
  5
3F
330
5
100
AcDbSymbolTableRecord
100
AcDbLinetypeTableRecord
  2
DIVIDETINY
 70
    0
  3
Divide (.15x) __..__..__..__..__..__..__..__.._
 72
   65
 73
    6
 40
4.7625
 49
1.905
 74
    0
 49
-0.9525
 74
    0
 49
0
 74
    0
 49
-0.9525
 74
    0
 49
0
 74
    0
 49
-0.9525
 74
    0
  0
LTYPE
  5
40
330
5
100
AcDbSymbolTableRecord
100
AcDbLinetypeTableRecord
  2
DIVIDE2
 70
    0
  3
Divide (.5x) __..__..__..__..__..__..__..__.._
 72
   65
 73
    6
 40
15.875
 49
6.35
 74
    0
 49
-3.175
 74
    0
 49
0
 74
    0
 49
-3.175
 74
    0
 49
0
 74
    0
 49
-3.175
 74
    0
  0
LTYPE
  5
41
330
5
100
AcDbSymbolTableRecord
100
AcDbLinetypeTableRecord
  2
DIVIDEX2
 70
    0
  3
Divide (2x) ________  .  .  ________  .  .  _
 72
   65
 73
    6
 40
63.5
 49
25.4
 74
    0
 49
-12.7
 74
    0
 49
0
 74
    0
 49
-12.7
 74
    0
 49
0
 74
    0
 49
-12.7
 74
    0
  0
LTYPE
  5
42
330
5
100
AcDbSymbolTableRecord
100
AcDbLinetypeTableRecord
  2
BORDER
 70
    0
  3
Border __ __ . __ __ . __ __ . __ __ . __ __ .
 72
   65
 73
    6
 40
44.45
 49
12.7
 74
    0
 49
-6.35
 74
    0
 49
12.7
 74
    0
 49
-6.35
 74
    0
 49
0
 74
    0
 49
-6.35
 74
    0
  0
LTYPE
  5
43
330
5
100
AcDbSymbolTableRecord
100
AcDbLinetypeTableRecord
  2
BORDERTINY
 70
    0
  3
Border (.15x) __.__.__.__.__.__.__.__.__.__.__.
 72
   65
 73
    6
 40
6.6675
 49
1.905
 74
    0
 49
-0.9525
 74
    0
 49
1.905
 74
    0
 49
-0.9525
 74
    0
 49
0
 74
    0
 49
-0.9525
 74
    0
  0
LTYPE
  5
44
330
5
100
AcDbSymbolTableRecord
100
AcDbLinetypeTableRecord
  2
BORDER2
 70
    0
  3
Border (.5x) __.__.__.__.__.__.__.__.__.__.__.
 72
   65
 73
    6
 40
22.225
 49
6.35
 74
    0
 49
-3.175
 74
    0
 49
6.35
 74
    0
 49
-3.175
 74
    0
 49
0
 74
    0
 49
-3.175
 74
    0
  0
LTYPE
  5
45
330
5
100
AcDbSymbolTableRecord
100
AcDbLinetypeTableRecord
  2
BORDERX2
 70
    0
  3
Border (2x) ____  ____  .  ____  ____  .  ___
 72
   65
 73
    6
 40
88.89999999999999
 49
25.4
 74
    0
 49
-12.7
 74
    0
 49
25.4
 74
    0
 49
-12.7
 74
    0
 49
0
 74
    0
 49
-12.7
 74
    0
  0
LTYPE
  5
46
330
5
100
AcDbSymbolTableRecord
100
AcDbLinetypeTableRecord
  2
CENTER
 70
    0
  3
Center ____ _ ____ _ ____ _ ____ _ ____ _ ____
 72
   65
 73
    4
 40
50.8
 49
31.75
 74
    0
 49
-6.35
 74
    0
 49
6.35
 74
    0
 49
-6.35
 74
    0
  0
LTYPE
  5
47
330
5
100
AcDbSymbolTableRecord
100
AcDbLinetypeTableRecord
  2
CENTERTINY
 70
    0
  3
Center (.15x) ___ _ ___ _ ___ _ ___ _ ___ _ ___
 72
   65
 73
    4
 40
7.62
 49
4.7625
 74
    0
 49
-0.9525
 74
    0
 49
0.9525
 74
    0
 49
-0.9525
 74
    0
  0
LTYPE
  5
48
330
5
100
AcDbSymbolTableRecord
100
AcDbLinetypeTableRecord
  2
CENTER2
 70
    0
  3
Center (.5x) ___ _ ___ _ ___ _ ___ _ ___ _ ___
 72
   65
 73
    4
 40
28.575
 49
19.05
 74
    0
 49
-3.175
 74
    0
 49
3.175
 74
    0
 49
-3.175
 74
    0
  0
LTYPE
  5
49
330
5
100
AcDbSymbolTableRecord
100
AcDbLinetypeTableRecord
  2
CENTERX2
 70
    0
  3
Center (2x) ________  __  ________  __  _____
 72
   65
 73
    4
 40
101.6
 49
63.5
 74
    0
 49
-12.7
 74
    0
 49
12.7
 74
    0
 49
-12.7
 74
    0
  0
ENDTAB
  0
TABLE
  2
LAYER
  5
2
330
0
100
AcDbSymbolTable
 70
    1
  0
LAYER
  5
10
330
2
100
AcDbSymbolTableRecord
100
AcDbLayerTableRecord
  2
0
 70
    0
 62
    7
  6
CONTINUOUS
370
   -3
390
F
  0
LAYER
  5
4A
330
2
100
AcDbSymbolTableRecord
100
AcDbLayerTableRecord
  2
ConstructionLines
 70
    0
 62
  252
  6
DOT
370
   35
390
F
  0
LAYER
  5
4B
330
2
100
AcDbSymbolTableRecord
100
AcDbLayerTableRecord
  2
Defpoints
 70
    0
 62
    7
  6
CONTINUOUS
290
0
370
   -3
390
F
  0
LAYER
  5
4C
330
2
100
AcDbSymbolTableRecord
100
AcDbLayerTableRecord
  2
EntityProperties
 70
    0
 62
  161
  6
CONTINUOUS
370
   -3
390
F
  0
LAYER
  5
4D
330
2
100
AcDbSymbolTableRecord
100
AcDbLayerTableRecord
  2
Groups
 70
    0
 62
  132
  6
CONTINUOUS
370
   -3
390
F
  0
LAYER
  5
4E
330
2
100
AcDbSymbolTableRecord
100
AcDbLayerTableRecord
  2
Layer1
 70
    0
 62
   40
  6
CONTINUOUS
370
   -3
390
F
  0
LAYER
  5
4F
330
2
100
AcDbSymbolTableRecord
100
AcDbLayerTableRecord
  2
Layer2
 70
    0
 62
   65
  6
CONTINUOUS
370
   -3
390
F
  0
ENDTAB
  0
TABLE
  2
STYLE
  5
3
330
0
100
AcDbSymbolTable
 70
    3
  0
STYLE
  5
50
330
2
100
AcDbSymbolTableRecord
100
AcDbTextStyleTableRecord
  2
mytextstyle
 70
    0
 40
0
 41
1
 50
0
 71
    0
 42
1
  3
mytextstyle
  4

  0
STYLE
  5
51
330
2
100
AcDbSymbolTableRecord
100
AcDbTextStyleTableRecord
  2
standard
 70
    0
 40
0
 41
1
 50
0
 71
    0
 42
1
  3
standard
  4

  0
ENDTAB
  0
TABLE
  2
VIEW
  5
6
330
0
100
AcDbSymbolTable
 70
    0
  0
ENDTAB
  0
TABLE
  2
UCS
  5
7
330
0
100
AcDbSymbolTable
 70
    0
  0
ENDTAB
  0
TABLE
  2
APPID
  5
9
330
0
100
AcDbSymbolTable
 70
    1
  0
APPID
  5
12
330
9
100
AcDbSymbolTableRecord
100
AcDbRegAppTableRecord
  2
ACAD
 70
    0
  0
APPID
  5
52
330
9
100
AcDbSymbolTableRecord
100
AcDbRegAppTableRecord
  2
LibreCad
 70
    0
  0
ENDTAB
  0
TABLE
  2
DIMSTYLE
  5
A
330
0
100
AcDbSymbolTable
 70
    1
100
AcDbDimStyleTable
 71
    1
  0
DIMSTYLE
105
53
330
A
100
AcDbSymbolTableRecord
100
AcDbDimStyleTableRecord
  2
Standard
 70
    0
 40
1
 41
2.5
 42
0.625
 43
0.38
 44
1.25
 45
0
 46
0
 47
0
 48
0
 49
1
140
2.5
141
0.09
142
0
143
25.4
144
1
145
0
146
1
147
0.625
148
0
 71
    0
 72
    0
 73
    0
 74
    1
 75
    0
 76
    0
 77
    0
 78
    8
 79
    0
170
    0
171
    2
172
    0
173
    0
174
    0
175
    0
176
    0
177
    0
178
    0
179
    0
271
    2
272
    4
273
    2
274
    2
275
    0
276
    0
277
    2
278
   44
279
    0
280
    0
281
    0
282
    0
283
    1
284
    0
285
    0
286
    0
288
    0
289
    3
340
Standard
341

371
   -2
372
   -2
  0
ENDTAB
  0
TABLE
  2
BLOCK_RECORD
  5
1
330
0
100
AcDbSymbolTable
 70
    2
  0
BLOCK_RECORD
  5
1F
330
1
100
AcDbSymbolTableRecord
100
AcDbBlockTableRecord
  2
*Model_Space
 70
    0
280
    1
281
    0
  0
BLOCK_RECORD
  5
1E
330
1
100
AcDbSymbolTableRecord
100
AcDbBlockTableRecord
  2
*Paper_Space
 70
    0
280
    1
281
    0
  0
BLOCK_RECORD
  5
54
330
1
100
AcDbSymbolTableRecord
100
AcDbBlockTableRecord
  2
*D1
 70
    0
280
    1
281
    0
  0
BLOCK_RECORD
  5
57
330
1
100
AcDbSymbolTableRecord
100
AcDbBlockTableRecord
  2
*D6
 70
    0
280
    1
281
    0
  0
BLOCK_RECORD
  5
5A
330
1
100
AcDbSymbolTableRecord
100
AcDbBlockTableRecord
  2
*D3
 70
    0
280
    1
281
    0
  0
BLOCK_RECORD
  5
5D
330
1
100
AcDbSymbolTableRecord
100
AcDbBlockTableRecord
  2
*D2
 70
    0
280
    1
281
    0
  0
BLOCK_RECORD
  5
60
330
1
100
AcDbSymbolTableRecord
100
AcDbBlockTableRecord
  2
*D5
 70
    0
280
    1
281
    0
  0
BLOCK_RECORD
  5
63
330
1
100
AcDbSymbolTableRecord
100
AcDbBlockTableRecord
  2
*D4
 70
    0
280
    1
281
    0
  0
BLOCK_RECORD
  5
66
330
1
100
AcDbSymbolTableRecord
100
AcDbBlockTableRecord
  2
MyBlock
 70
    0
280
    1
281
    0
  0
BLOCK_RECORD
  5
69
330
1
100
AcDbSymbolTableRecord
100
AcDbBlockTableRecord
  2
_Small
 70
    0
280
    1
281
    0
  0
BLOCK_RECORD
  5
6C
330
1
100
AcDbSymbolTableRecord
100
AcDbBlockTableRecord
  2
_ArchTick
 70
    0
280
    1
281
    0
  0
BLOCK_RECORD
  5
6F
330
1
100
AcDbSymbolTableRecord
100
AcDbBlockTableRecord
  2
*T13
 70
    0
280
    1
281
    0
  0
ENDTAB
  0
ENDSEC
  0
SECTION
  2
BLOCKS
  0
BLOCK
  5
20
330
1F
100
AcDbEntity
  8
0
100
AcDbBlockBegin
  2
*Model_Space
 70
    0
 10
0
 20
0
 30
0
  3
*Model_Space
  1

  0
ENDBLK
  5
21
330
1F
100
AcDbEntity
  8
0
100
AcDbBlockEnd
  0
BLOCK
  5
1C
330
1B
100
AcDbEntity
  8
0
100
AcDbBlockBegin
  2
*Paper_Space
 70
    0
 10
0
 20
0
 30
0
  3
*Paper_Space
  1

  0
ENDBLK
  5
1D
330
1F
100
AcDbEntity
  8
0
100
AcDbBlockEnd
  0
BLOCK
  5
55
330
54
100
AcDbEntity
  8
0
100
AcDbBlockBegin
  2
*D1
 70
    1
 10
0
 20
0
  3
*D1
  1

  0
LINE
  5
72
100
AcDbEntity
  8
Layer1
  6
CONTINUOUS
 62
    7
370
    0
100
AcDbLine
 10
710
 20
-190
 11
730
 21
-110
  0
LINE
  5
73
100
AcDbEntity
  8
Layer1
  6
CONTINUOUS
 62
    7
370
    0
100
AcDbLine
 10
730
 20
-110
 11
747.5
 21
-170
  0
LINE
  5
74
100
AcDbEntity
  8
Layer1
  6
CONTINUOUS
 62
    7
370
    0
100
AcDbLine
 10
747.5
 20
-170
 11
750
 21
-170
  0
SOLID
  5
75
100
AcDbEntity
  8
Layer1
  6
CONTINUOUS
 62
    7
370
    0
100
AcDbTrace
 10
710
 20
-190
 30
0
 11
710.2024836239269
 21
-187.4736798899707
 31
0
 12
711.0101945012548
 22
-187.6756076093026
 32
0
 13
711.0101945012548
 23
-187.6756076093026
 33
0
  0
ENDBLK
  5
56
330
54
100
AcDbEntity
  8
0
100
AcDbBlockEnd
  0
BLOCK
  5
58
330
57
100
AcDbEntity
  8
0
100
AcDbBlockBegin
  2
*D6
 70
    1
 10
0
 20
0
  3
*D6
  1

  0
LINE
  5
76
100
AcDbEntity
  8
Layer1
  6
ByBlock
 62
    0
370
   -2
100
AcDbLine
 10
119.5580582617584
 20
-179.5580582617584
 11
109.1161165235168
 21
-169.1161165235168
  0
LINE
  5
77
100
AcDbEntity
  8
Layer1
  6
ByBlock
 62
    0
370
   -2
100
AcDbLine
 10
179.5580582617584
 20
-119.5580582617584
 11
169.1161165235168
 21
-109.1161165235168
  0
LINE
  5
78
100
AcDbEntity
  8
Layer1
  6
ByBlock
 62
    0
370
   -2
100
AcDbLine
 10
110
 20
-170
 11
170
 21
-110
  0
SOLID
  5
79
100
AcDbEntity
  8
Layer1
  6
ByBlock
 62
    0
370
   -2
100
AcDbTrace
 10
110
 20
-170
 30
0
 11
111.4734092485513
 21
-167.9378753426185
 31
0
 12
112.0621246573815
 22
-168.5265907514487
 32
0
 13
112.0621246573815
 23
-168.5265907514487
 33
0
  0
SOLID
  5
7A
100
AcDbEntity
  8
Layer1
  6
ByBlock
 62
    0
370
   -2
100
AcDbTrace
 10
170
 20
-110
 30
0
 11
168.5265907514487
 21
-112.0621246573815
 31
0
 12
167.9378753426185
 22
-111.4734092485513
 32
0
 13
167.9378753426185
 23
-111.4734092485513
 33
0
  0
MTEXT
  5
7B
100
AcDbEntity
  8
Layer1
  6
CONTINUOUS
 62
    0
370
   -2
100
AcDbMText
 10
137.790291308792
 20
-137.790291308792
 30
0
 40
2.5
 41
8.194444444444599
 71
    5
 72
    1
  1
84,85
  7
Standard
210
0
220
0
230
1
 50
45
 73
    2
 44
1
  0
ENDBLK
  5
59
330
57
100
AcDbEntity
  8
0
100
AcDbBlockEnd
  0
BLOCK
  5
5B
330
5A
100
AcDbEntity
  8
0
100
AcDbBlockBegin
  2
*D3
 70
    1
 10
0
 20
0
  3
*D3
  1

  0
LINE
  5
7C
100
AcDbEntity
  8
Layer1
  6
ByBlock
 62
    0
370
   -2
100
AcDbLine
 10
330.1515847656477
 20
-129.3936609374092
 11
334.7459331055996
 21
-111.0162675776013
  0
LINE
  5
7D
100
AcDbEntity
  8
Layer1
  6
ByBlock
 62
    0
370
   -2
100
AcDbLine
 10
350.5929270612816
 20
-180.1976423537605
 11
377.6790335413896
 21
-189.2263445137966
  0
ARC
  5
7E
100
AcDbEntity
  8
Layer1
  6
ByBlock
 62
    0
370
   -2
100
AcDbCircle
 10
320
 20
-170
 40
59.54903974267969
100
AcDbArc
 50
341.565051177078
 51
75.96375653207353
  0
SOLID
  5
7F
100
AcDbEntity
  8
Layer1
  6
ByBlock
 62
    0
370
   -2
100
AcDbTrace
 10
334.4427635743043
 20
-112.228945702783
 30
0
 11
336.9642770807349
 21
-112.4844110687032
 31
0
 12
336.7454403503436
 22
-113.2877056290109
 32
0
 13
336.7454403503436
 23
-113.2877056290109
 33
0
  0
SOLID
  5
80
100
AcDbEntity
  8
Layer1
  6
ByBlock
 62
    0
370
   -2
100
AcDbTrace
 10
376.4931794188265
 20
-188.8310598062755
 30
0
 11
376.8361951718118
 21
-186.319957835128
 31
0
 12
377.6313919329868
 22
-186.5666028760369
 32
0
 13
377.6313919329868
 23
-186.5666028760369
 33
0
  0
MTEXT
  5
81
100
AcDbEntity
  8
Layer1
  6
CONTINUOUS
 62
    0
370
   -2
100
AcDbMText
 10
372.7489128486025
 20
-141.0437009919408
 30
0
 40
2.5
 41
5.000000000000155
 71
    8
 72
    1
  1
94%%D
  7
Standard
210
0
220
0
230
1
 50
298.7644038545757
 73
    2
 44
1
  0
ENDBLK
  5
5C
330
5A
100
AcDbEntity
  8
0
100
AcDbBlockEnd
  0
BLOCK
  5
5E
330
5D
100
AcDbEntity
  8
0
100
AcDbBlockBegin
  2
*D2
 70
    1
 10
0
 20
0
  3
*D2
  1

  0
LINE
  5
82
100
AcDbEntity
  8
Layer1
  6
ByBlock
 62
    0
370
   -2
100
AcDbLine
 10
11.77470993904802
 20
-158.4328716317511
 11
82.75547205258117
 21
-117.4521095182179
  0
SOLID
  5
83
100
AcDbEntity
  8
Layer1
  6
ByBlock
 62
    0
370
   -2
100
AcDbTrace
 10
11.77470993904802
 20
-158.4328716317511
 30
0
 11
13.7316311196227
 21
-156.8223585429141
 31
0
 12
14.14791577739554
 22
-157.5433847205881
 32
0
 13
14.14791577739554
 23
-157.5433847205881
 33
0
  0
SOLID
  5
84
100
AcDbEntity
  8
Layer1
  6
ByBlock
 62
    0
370
   -2
100
AcDbTrace
 10
82.75547205258117
 20
-117.4521095182179
 30
0
 11
80.79855087200649
 21
-119.0626226070549
 31
0
 12
80.38226621423365
 22
-118.3415964293809
 32
0
 13
80.38226621423365
 23
-118.3415964293809
 33
0
  0
MTEXT
  5
85
100
AcDbEntity
  8
Layer1
  6
CONTINUOUS
 62
    0
370
   -2
100
AcDbMText
 10
46.20854337676695
 20
-136.1124964181781
 30
0
 40
2.5
 41
7.361111111111267
 71
    5
 72
    1
  1
81,96
  7
Standard
210
0
220
0
230
1
 50
30
 73
    2
 44
1
  0
LINE
  5
86
100
AcDbEntity
  8
Layer1
  6
ByBlock
 62
    0
370
   -2
100
AcDbLine
 10
29.6875
 20
-189.4587341226347
 11
11.14970993904802
 21
-157.3503398770205
  0
LINE
  5
87
100
AcDbEntity
  8
Layer1
  6
ByBlock
 62
    0
370
   -2
100
AcDbLine
 10
89.6875
 20
-129.4587341226347
 11
82.13047205258117
 21
-116.3695777634874
  0
ENDBLK
  5
5F
330
5D
100
AcDbEntity
  8
0
100
AcDbBlockEnd
  0
BLOCK
  5
61
330
60
100
AcDbEntity
  8
0
100
AcDbBlockBegin
  2
*D5
 70
    1
 10
0
 20
0
  3
*D5
  1

  0
LINE
  5
88
100
AcDbEntity
  8
Layer1
  6
ByBlock
 62
    0
370
   -2
100
AcDbLine
 10
510
 20
-150
 11
590
 21
-150
  0
SOLID
  5
89
100
AcDbEntity
  8
Layer1
  6
ByBlock
 62
    0
370
   -2
100
AcDbTrace
 10
510
 20
-150
 30
0
 11
512.5
 21
-149.5837153422272
 31
0
 12
512.5
 22
-150.4162846577728
 32
0
 13
512.5
 23
-150.4162846577728
 33
0
  0
SOLID
  5
8A
100
AcDbEntity
  8
Layer1
  6
ByBlock
 62
    0
370
   -2
100
AcDbTrace
 10
590
 20
-150
 30
0
 11
587.5
 21
-150.4162846577728
 31
0
 12
587.5
 22
-149.5837153422272
 32
0
 13
587.5
 23
-149.5837153422272
 33
0
  0
MTEXT
  5
8B
100
AcDbEntity
  8
Layer1
  6
CONTINUOUS
 62
    0
370
   -2
100
AcDbMText
 10
550
 20
-150
 30
0
 40
2.5
 41
3.055555555555556
 71
    5
 72
    1
  1
80
  7
Standard
210
0
220
0
230
1
 50
0
 73
    2
 44
1
  0
ENDBLK
  5
62
330
60
100
AcDbEntity
  8
0
100
AcDbBlockEnd
  0
BLOCK
  5
64
330
63
100
AcDbEntity
  8
0
100
AcDbBlockBegin
  2
*D4
 70
    1
 10
0
 20
0
  3
*D4
  1

  0
SOLID
  5
8C
100
AcDbEntity
  8
Layer1
  6
ByBlock
 62
    0
370
   -2
100
AcDbTrace
 10
464.1421356237308
 20
-135.857864376269
 30
0
 11
462.6687263751795
 21
-137.9199890336505
 31
0
 12
462.0800109663493
 22
-137.3312736248203
 32
0
 13
462.0800109663493
 23
-137.3312736248203
 33
0
  0
LINE
  5
8D
100
AcDbEntity
  8
Layer1
  6
ByBlock
 62
    0
370
   -2
100
AcDbLine
 10
449.9999999999998
 20
-150.0000000000001
 11
464.1421356237308
 21
-135.857864376269
  0
MTEXT
  5
8E
100
AcDbEntity
  8
Layer1
  6
CONTINUOUS
 62
    0
370
   -2
100
AcDbMText
 10
469.1087189677793
 20
-128.2396306027712
 30
0
 40
2.5
 41
3.055555555555556
 71
    5
 72
    1
  1
20
  7
Standard
210
0
220
0
230
1
 50
45.00000000000023
 73
    2
 44
1
  0
ENDBLK
  5
65
330
63
100
AcDbEntity
  8
0
100
AcDbBlockEnd
  0
BLOCK
  5
67
330
66
100
AcDbEntity
  8
0
100
AcDbBlockBegin
  2
MyBlock
 70
    0
 10
0
 20
0
  3
MyBlock
  1

  0
LINE
  5
8F
100
AcDbEntity
  8
0
  6
ByLayer
 62
  256
370
   -1
100
AcDbLine
 10
-40
 20
-40
 11
40
 21
40
  0
LINE
  5
90
100
AcDbEntity
  8
0
  6
ByLayer
 62
  256
370
   -1
100
AcDbLine
 10
-40
 20
40
 11
40
 21
-40
  0
CIRCLE
  5
91
100
AcDbEntity
  8
0
  6
ByLayer
 62
  256
370
   -1
100
AcDbCircle
 10
0
 20
0
 40
30
  0
ENDBLK
  5
68
330
66
100
AcDbEntity
  8
0
100
AcDbBlockEnd
  0
BLOCK
  5
6A
330
69
100
AcDbEntity
  8
0
100
AcDbBlockBegin
  2
_Small
 70
    0
 10
0
 20
0
  3
_Small
  1

  0
CIRCLE
  5
92
100
AcDbEntity
  8
0
  6
ByBlock
 62
    0
370
   -2
100
AcDbCircle
 10
0
 20
0
 40
0.25
  0
ENDBLK
  5
6B
330
69
100
AcDbEntity
  8
0
100
AcDbBlockEnd
  0
BLOCK
  5
6D
330
6C
100
AcDbEntity
  8
0
100
AcDbBlockBegin
  2
_ArchTick
 70
    0
 10
0
 20
0
  3
_ArchTick
  1

  0
LWPOLYLINE
  5
93
100
AcDbEntity
  8
0
  6
ByBlock
 62
    0
370
   -1
100
AcDbPolyline
 90
    2
 70
    0
 43
0
 10
-0.5
 20
-0.5
 10
0.5
 20
0.5
  0
ENDBLK
  5
6E
330
6C
100
AcDbEntity
  8
0
100
AcDbBlockEnd
  0
BLOCK
  5
70
330
6F
100
AcDbEntity
  8
0
100
AcDbBlockBegin
  2
*T13
 70
    0
 10
0
 20
0
  3
*T13
  1

  0
SOLID
  5
94
100
AcDbEntity
  8
Layer1
  6
ByLayer
 62
  165
370
   -1
100
AcDbTrace
 10
0
 20
-46.57142857142855
 30
0
 11
0
 21
-69.07142857142856
 31
0
 12
180
 22
-46.57142857142855
 32
0
 13
180
 23
-69.07142857142856
 33
0
  0
MTEXT
  5
95
100
AcDbEntity
  8
Layer1
  6
ByLayer
 62
    0
370
   -1
100
AcDbMText
 10
90
 20
-6.571428571428569
 30
0
 40
6
 41
51.83333641905763
 71
    5
 72
    5
  1
Table sample
  7
standard
210
0
220
0
230
1
 50
0
 73
    1
 44
1
  0
MTEXT
  5
96
100
AcDbEntity
  8
Layer1
  6
ByLayer
 62
    0
370
   -1
100
AcDbMText
 10
30
 20
-18.71428571428572
 30
0
 40
4.5
 41
12.5
 71
    5
 72
    5
  1
Text
  7
standard
210
0
220
0
230
1
 50
0
 73
    1
 44
1
  0
MTEXT
  5
97
100
AcDbEntity
  8
Layer1
  6
ByLayer
 62
    0
370
   -1
100
AcDbMText
 10
90
 20
-18.71428571428572
 30
0
 40
4.5
 41
12.5
 71
    5
 72
    5
  1
Text
  7
standard
210
0
220
0
230
1
 50
0
 73
    1
 44
1
  0
MTEXT
  5
98
100
AcDbEntity
  8
Layer1
  6
ByLayer
 62
    0
370
   -1
100
AcDbMText
 10
150
 20
-18.71428571428572
 30
0
 40
4.5
 41
12.5
 71
    5
 72
    5
  1
Text
  7
standard
210
0
220
0
230
1
 50
0
 73
    1
 44
1
  0
MTEXT
  5
99
100
AcDbEntity
  8
Layer1
  6
ByLayer
 62
    7
370
   -1
100
AcDbMText
 10
90
 20
-57.82142857142855
 30
0
 40
4.5
 41
180.2500069428793
 71
    5
 72
    5
  1
This table will be imported as an           Insert entity
  7
standard
210
0
220
0
230
1
 50
0
 73
    1
 44
1
  0
MTEXT
  5
9A
100
AcDbEntity
  8
Layer1
  6
ByLayer
 62
    0
370
   -1
100
AcDbMText
 10
30
 20
-70.57142857142856
 30
0
 40
4.5
 41
25.37500000000021
 71
    2
 72
    5
  1
cell text
  7
standard
210
0
220
0
230
1
 50
0
 73
    1
 44
1
  0
MTEXT
  5
9B
100
AcDbEntity
  8
Layer1
  6
ByLayer
 62
    0
370
   -1
100
AcDbMText
 10
90
 20
-70.57142857142856
 30
0
 40
4.5
 41
25.37500000000021
 71
    2
 72
    5
  1
cell text
  7
standard
210
0
220
0
230
1
 50
0
 73
    1
 44
1
  0
MTEXT
  5
9C
100
AcDbEntity
  8
Layer1
  6
ByLayer
 62
    0
370
   -1
100
AcDbMText
 10
150
 20
-70.57142857142856
 30
0
 40
4.5
 41
25.37500000000021
 71
    2
 72
    5
  1
cell text
  7
standard
210
0
220
0
230
1
 50
0
 73
    1
 44
1
  0
LINE
  5
9D
100
AcDbEntity
  8
0
  6
ByBlock
 62
    0
370
   -2
100
AcDbLine
 10
0
 20
0
 11
180
 21
0
  0
LINE
  5
9E
100
AcDbEntity
  8
0
  6
ByBlock
 62
    0
370
   -2
100
AcDbLine
 10
0
 20
-13.14285714285714
 11
180
 21
-13.14285714285714
  0
LINE
  5
9F
100
AcDbEntity
  8
0
  6
ByBlock
 62
    0
370
   -2
100
AcDbLine
 10
0
 20
-24.28571428571428
 11
180
 21
-24.28571428571428
  0
LINE
  5
A0
100
AcDbEntity
  8
0
  6
ByBlock
 62
    0
370
   -2
100
AcDbLine
 10
0
 20
-35.42857142857142
 11
180
 21
-35.42857142857142
  0
LINE
  5
A1
100
AcDbEntity
  8
0
  6
ByBlock
 62
   63
370
   40
100
AcDbLine
 10
0
 20
-46.57142857142855
 11
180
 21
-46.57142857142855
  0
LINE
  5
A2
100
AcDbEntity
  8
0
  6
ByBlock
 62
   63
370
   40
100
AcDbLine
 10
0
 20
-69.07142857142856
 11
180
 21
-69.07142857142856
  0
LINE
  5
A3
100
AcDbEntity
  8
0
  6
ByBlock
 62
    0
370
   -2
100
AcDbLine
 10
0
 20
-80.21428571428569
 11
180
 21
-80.21428571428569
  0
LINE
  5
A4
100
AcDbEntity
  8
0
  6
ByBlock
 62
    0
370
   -2
100
AcDbLine
 10
0
 20
0
 11
0
 21
-46.57142857142855
  0
LINE
  5
A5
100
AcDbEntity
  8
0
  6
ByBlock
 62
   63
370
   40
100
AcDbLine
 10
0
 20
-46.57142857142855
 11
0
 21
-69.07142857142856
  0
LINE
  5
A6
100
AcDbEntity
  8
0
  6
ByBlock
 62
    0
370
   -2
100
AcDbLine
 10
0
 20
-69.07142857142856
 11
0
 21
-80.21428571428569
  0
LINE
  5
A7
100
AcDbEntity
  8
0
  6
ByBlock
 62
    0
370
   -2
100
AcDbLine
 10
60
 20
-13.14285714285714
 11
60
 21
-46.57142857142855
  0
LINE
  5
A8
100
AcDbEntity
  8
0
  6
ByBlock
 62
    0
370
   -2
100
AcDbLine
 10
60
 20
-69.07142857142856
 11
60
 21
-80.21428571428569
  0
LINE
  5
A9
100
AcDbEntity
  8
0
  6
ByBlock
 62
    0
370
   -2
100
AcDbLine
 10
120
 20
-13.14285714285714
 11
120
 21
-46.57142857142855
  0
LINE
  5
AA
100
AcDbEntity
  8
0
  6
ByBlock
 62
    0
370
   -2
100
AcDbLine
 10
120
 20
-69.07142857142856
 11
120
 21
-80.21428571428569
  0
LINE
  5
AB
100
AcDbEntity
  8
0
  6
ByBlock
 62
    0
370
   -2
100
AcDbLine
 10
180
 20
0
 11
180
 21
-46.57142857142855
  0
LINE
  5
AC
100
AcDbEntity
  8
0
  6
ByBlock
 62
   63
370
   40
100
AcDbLine
 10
180
 20
-46.57142857142855
 11
180
 21
-69.07142857142856
  0
LINE
  5
AD
100
AcDbEntity
  8
0
  6
ByBlock
 62
    0
370
   -2
100
AcDbLine
 10
180
 20
-69.07142857142856
 11
180
 21
-80.21428571428569
  0
LINE
  5
AE
100
AcDbEntity
  8
Defpoints
  6
ByLayer
 62
    8
370
    0
100
AcDbLine
 10
0
 20
0
 11
0
 21
0
  0
ENDBLK
  5
71
330
6F
100
AcDbEntity
  8
0
100
AcDbBlockEnd
  0
ENDSEC
  0
SECTION
  2
ENTITIES
  0
ARC
  5
AF
100
AcDbEntity
  8
Layer1
  6
ByLayer
 62
  256
370
   -1
100
AcDbCircle
 10
50
 20
0
 40
50
100
AcDbArc
 50
0
 51
180
  0
CIRCLE
  5
B0
100
AcDbEntity
  8
Layer1
  6
ByLayer
 62
  256
370
   -1
100
AcDbCircle
 10
150
 20
50
 40
50
  0
ELLIPSE
  5
B1
100
AcDbEntity
  8
Layer1
  6
ByLayer
 62
  256
370
   -1
100
AcDbEllipse
 10
350
 20
50
 30
0
 11
-50
 21
0
 31
0
 40
0.6
 41
0
 42
6.283185307179586
  0
LWPOLYLINE
  5
B2
100
AcDbEntity
  8
Layer1
  6
ByLayer
 62
  256
370
   -1
100
AcDbPolyline
 90
    4
 70
    1
 43
0
 10
220
 20
20
 10
290
 20
30
 10
260
 20
90
 10
220
 20
60
  0
LWPOLYLINE
  5
B3
100
AcDbEntity
  8
Layer2
  6
ByLayer
 62
  256
370
   -1
100
AcDbPolyline
 90
    4
 70
    1
 43
0
 10
20
 20
-80
 10
90
 20
-70
 10
60
 20
-10
 10
20
 20
-40
  0
IMAGE
  5
B6
100
AcDbEntity
  8
Layer1
  6
ByLayer
 62
  256
370
   -1
100
AcDbRasterImage
 10
509.9999999999996
 20
10
 30
0
 11
0.3076923076923084
 21
0
 31
0
 12
0
 22
0.3076923076923084
 32
0
 13
260
 23
260
340
B4
 70
    1
280
    0
281
   50
282
   50
283
    0
360
B5
  0
LINE
  5
B7
100
AcDbEntity
  8
Layer1
  6
ByLayer
 62
  256
370
   -1
100
AcDbLine
 10
700
 20
0
 11
800
 21
100
  0
INSERT
  5
B8
100
AcDbEntity
  8
Layer1
  6
ByLayer
 62
  256
370
   -1
100
AcDbBlockReference
  2
MyBlock
 10
650
 20
50
 30
0
 41
1
 42
1
 43
0
 50
0
 70
    1
 71
    1
 44
0
 45
0
  0
MTEXT
  5
B9
100
AcDbEntity
  8
Layer2
  6
ByLayer
 62
  256
370
   -1
100
AcDbMText
 10
210
 20
-10
 30
0
 40
7.5
 41
329.375023142928
 71
    1
 72
    5
  1
This is a sample multiline text. This is a sample multiline text.
  7
standard
210
0
220
0
230
1
 50
0
 73
    1
 44
1
  0
POINT
  5
BA
100
AcDbEntity
  8
Layer2
  6
ByLayer
 62
  256
370
   -1
100
AcDbPoint
 10
350
 20
-50
  0
LWPOLYLINE
  5
BB
100
AcDbEntity
  8
Layer2
  6
ByLayer
 62
  256
370
   -1
100
AcDbPolyline
 90
    5
 70
    0
 43
0
 10
510
 20
-90
 10
590
 20
-80
 10
550
 20
-50
 10
590
 20
-10
 10
520
 20
-20
  0
SOLID
  5
BC
100
AcDbEntity
  8
Layer2
  6
ByLayer
 62
  256
370
   -1
100
AcDbTrace
 10
610
 20
-90
 30
0
 11
690
 21
-80
 31
0
 12
620
 22
-30
 32
0
 13
680
 23
-10
 33
0
  0
SPLINE
  5
BD
100
AcDbEntity
  8
Layer2
  6
ByLayer
 62
  256
370
   -1
100
AcDbSpline
210
0
220
0
230
0
 70
    8
 71
    3
 72
    8
 73
    4
 74
    0
 42
1e-007
 43
1e-007
 40
0
 40
0
 40
0
 40
0
 40
1
 40
1
 40
1
 40
1
 10
710
 20
-100
 30
0
 10
730
 20
-20
 30
0
 10
770
 20
-90
 30
0
 10
790
 20
-10
 30
0
  0
TEXT
  5
BE
100
AcDbEntity
  8
Layer2
  6
ByLayer
 62
  256
370
   -1
100
AcDbText
 10
850
 20
-50
 30
0
 40
5
  1
This is a single line text
 50
0
 41
1
 51
0
  7
mytextstyle
 71
    0
 72
    1
 11
850
 21
-50
 31
0
210
0
220
0
230
1
100
AcDbText
 73
    2
  0
LINE
  5
BF
100
AcDbEntity
  8
EntityProperties
  6
DASHED
 62
  256
370
   -1
100
AcDbLine
 10
0
 20
-300
 11
100
 21
-200
  0
LINE
  5
C0
100
AcDbEntity
  8
EntityProperties
  6
ByLayer
 62
    1
370
   -1
100
AcDbLine
 10
100
 20
-300
 11
200
 21
-200
  0
LINE
  5
C1
100
AcDbEntity
  8
EntityProperties
  6
ByLayer
 62
  256
370
   50
100
AcDbLine
 10
300
 20
-300
 11
400
 21
-200
  0
LINE
  5
C2
100
AcDbEntity
  8
EntityProperties
  6
ByLayer
 62
  200
370
   -1
100
AcDbLine
 10
200
 20
-300
 11
300
 21
-200
  0
LINE
  5
C3
100
AcDbEntity
  8
Groups
  6
ByLayer
 62
  256
370
   -1
100
AcDbLine
 10
400
 20
-300
 11
500
 21
-200
  0
LINE
  5
C4
100
AcDbEntity
  8
Groups
  6
ByLayer
 62
  256
370
   -1
100
AcDbLine
 10
500
 20
-300
 11
600
 21
-200
  0
LINE
  5
C5
100
AcDbEntity
  8
Groups
  6
ByLayer
 62
  256
370
   -1
100
AcDbLine
 10
600
 20
-300
 11
700
 21
-200
  0
LINE
  5
C6
100
AcDbEntity
  8
Groups
  6
ByLayer
 62
    2
370
   -1
100
AcDbLine
 10
700
 20
-300
 11
800
 21
-200
  0
LINE
  5
C7
100
AcDbEntity
  8
Groups
  6
ByLayer
 62
    2
370
   -1
100
AcDbLine
 10
800
 20
-300
 11
900
 21
-200
  0
LINE
  5
C8
100
AcDbEntity
  8
ConstructionLines
  6
ByLayer
 62
  256
370
   -1
100
AcDbLine
 10
0
 20
100
 11
0.7071067811865476
 21
100.7071067811866
  0
LINE
  5
C9
100
AcDbEntity
  8
ConstructionLines
  6
ByLayer
 62
  256
370
   -1
100
AcDbLine
 10
150
 20
150
 11
151
 21
150
  0
LEADER
  5
CA
100
AcDbEntity
  8
Layer1
  6
ByLayer
 62
  256
370
   -1
100
AcDbLeader
  3
Standard
 71
    1
 72
    0
 73
    3
 74
    0
 75
    0
 40
1
 41
10
 76
4
 76
4
 10
710
 20
-190
 30
0
 10
730
 20
-110
 30
0
 10
747.5
 20
-170
 30
0
 10
750
 20
-170
 30
0
  0
MTEXT
  5
CB
100
AcDbEntity
  8
Layer1
  6
ByLayer
 62
  256
370
   -1
100
AcDbMText
 10
750.625
 20
-169.375
 30
0
 40
2.5
 41
30.48611058110656
 71
    7
 72
    1
  1
Sample annotation
  7
standard
210
0
220
0
230
1
 50
0
 73
    1
 44
1
  0
DIMENSION
  5
CC
100
AcDbEntity
  8
Layer1
  6
ByLayer
 62
  256
370
   -1
100
AcDbDimension
  2
*D2
 10
82.75547205258118
 20
-117.4521095182179
 30
0
 11
46.20854337676695
 21
-136.1124964181781
 31
0
 70
   32
 71
    5
 72
    0
  3
ISO-25
 53
0
210
0
220
0
230
1
100
AcDbAlignedDimension
 13
30
 23
-190
 33
0
 14
90
 24
-130
 34
0
 50
30
100
AcDbRotatedDimension
  0
DIMENSION
  5
CD
100
AcDbEntity
  8
Layer1
  6
ByLayer
 62
  256
370
   -1
100
AcDbDimension
  2
*D3
 10
350
 20
-180
 30
0
 11
373.8446701110817
 21
-140.4421895442325
 31
0
 70
   34
 71
    5
 72
    0
  3
ISO-25
 53
0
210
0
220
0
230
1
100
AcDb2LineAngularDimension
 13
320
 23
-170
 33
0
 14
330
 24
-130
 34
0
 15
320
 25
-170
 35
0
 16
378.0154783993161
 26
-156.5726994383186
 36
0
  0
LINE
  5
CE
100
AcDbEntity
  8
Layer2
  6
ByLayer
 62
  256
370
   -1
100
AcDbLine
 10
30
 20
-190
 11
90
 21
-130
  0
LINE
  5
CF
100
AcDbEntity
  8
Layer2
  6
ByLayer
 62
  256
370
   -1
100
AcDbLine
 10
120
 20
-180
 11
180
 21
-120
  0
LINE
  5
D0
100
AcDbEntity
  8
Layer2
  6
ByLayer
 62
  256
370
   -1
100
AcDbLine
 10
220
 20
-170
 11
230
 21
-130
  0
LINE
  5
D1
100
AcDbEntity
  8
Layer2
  6
ByLayer
 62
  256
370
   -1
100
AcDbLine
 10
220
 20
-170
 11
250
 21
-180
  0
LINE
  5
D2
100
AcDbEntity
  8
Layer2
  6
ByLayer
 62
  256
370
   -1
100
AcDbLine
 10
320
 20
-170
 11
330
 21
-130
  0
LINE
  5
D3
100
AcDbEntity
  8
Layer2
  6
ByLayer
 62
  256
370
   -1
100
AcDbLine
 10
320
 20
-170
 11
350
 21
-180
  0
CIRCLE
  5
D4
100
AcDbEntity
  8
Layer2
  6
ByLayer
 62
  256
370
   -1
100
AcDbCircle
 10
450
 20
-150
 40
20
  0
CIRCLE
  5
D5
100
AcDbEntity
  8
Layer2
  6
ByLayer
 62
  256
370
   -1
100
AcDbCircle
 10
550
 20
-150
 40
40
  0
DIMENSION
  5
D6
100
AcDbEntity
  8
Layer1
  6
ByLayer
 62
  256
370
   -1
100
AcDbDimension
  2
*D4
 10
449.9999999999998
 20
-150.0000000000001
 30
0
 11
469.1087189677793
 21
-128.2396306027712
 31
0
 70
   36
 71
    5
 72
    0
  3
ISO-25
 53
0
210
0
220
0
230
1
100
AcDbRadialDimension
 15
464.1421356237308
 25
-135.857864376269
 35
0
 40
0
  0
DIMENSION
  5
D7
100
AcDbEntity
  8
Layer1
  6
ByLayer
 62
  256
370
   -1
100
AcDbDimension
  2
*D5
 10
510
 20
-150
 30
0
 11
550
 21
-150
 31
0
 70
   35
 71
    5
 72
    0
  3
ISO-25
 53
0
210
0
220
0
230
1
100
AcDbDiametricDimension
 15
590
 25
-150
 35
0
 40
0
  0
HATCH
  5
D8
100
AcDbEntity
  8
0
  6
ByLayer
 62
  256
370
   -1
100
AcDbHatch
 10
0
 20
0
 30
0
210
0
220
0
230
1
  2
SOLID
 70
    1
 71
    0
 91
    1
 92
    0
 93
    4
 72
    1
 10
-1.3962340972e-006
 20
-449.9999992618848
 11
99.9999986037659
 21
-449.9999992618848
 72
    1
 10
99.9999986037659
 20
-449.9999992618848
 11
99.9999986037659
 21
-349.9999992618849
 72
    1
 10
99.9999986037659
 20
-349.9999992618849
 11
-1.3962340972e-006
 21
-349.9999992618849
 72
    1
 10
-1.3962340972e-006
 20
-349.9999992618849
 11
-1.3962340972e-006
 21
-449.9999992618848
 97
    0
 75
    0
 76
    1
 98
    0
  0
HATCH
  5
D9
100
AcDbEntity
  8
0
  6
ByLayer
 62
  256
370
   -1
100
AcDbHatch
 10
0
 20
0
 30
0
210
0
220
0
230
1
  2
SOLID
 70
    1
 71
    0
 91
    1
 92
    0
 93
    4
 72
    1
 10
149.9999986037659
 20
-449.9999992618848
 11
249.9999986037659
 21
-449.9999992618848
 72
    1
 10
249.9999986037659
 20
-449.9999992618848
 11
249.9999986037659
 21
-349.9999992618849
 72
    1
 10
249.9999986037659
 20
-349.9999992618849
 11
149.9999986037659
 21
-349.9999992618849
 72
    1
 10
149.9999986037659
 20
-349.9999992618849
 11
149.9999986037659
 21
-449.9999992618848
 97
    0
 75
    0
 76
    1
 98
    0
  0
DIMENSION
  5
DA
100
AcDbEntity
  8
Layer1
  6
ByLayer
 62
  256
370
   -1
100
AcDbDimension
  2
*D6
 10
170
 20
-110
 30
0
 11
137.790291308792
 21
-137.790291308792
 31
0
 70
   33
 71
    5
 72
    0
  3
ISO-25
 53
0
210
0
220
0
230
1
100
AcDbAlignedDimension
 13
120
 23
-180
 33
0
 14
180
 24
-120
 34
0
  0
ENDSEC
  0
SECTION
  2
OBJECTS
  0
DICTIONARY
  5
C
330
0
100
AcDbDictionary
281
    1
  3
ACAD_GROUP
350
D
  3
ACAD_IMAGE_DICT
350
DB
  0
DICTIONARY
  5
D
330
C
100
AcDbDictionary
281
    1
  0
IMAGEDEF_REACTOR
  5
B5
330
B6
100
AcDbRasterImageDefReactor
 90
    2
330
B6
  0
DICTIONARY
  5
DB
330
C
100
AcDbDictionary
281
    1
  3
image
350
B4
  0
IMAGEDEF
  5
B4
102
{ACAD_REACTORS
330
B5
102
}
100
AcDbRasterImageDef
 90
    0
  1
C:/Users/Michel/Documents/SharpDevelop Projects/NetDXFViewer/NetDXFViewer/bin/Debug/.\image.jpg
 10
260
 20
260
 11
1
 21
1
280
    1
281
    0
  0
ENDSEC
  0
EOF
