999
dxflib 2.2.0.0
  0
SECTION
  2
HEADER
  9
$ACADVER
  1
AC1015
  9
$HANDSEED
  5
FFFF
  9
$INSUNITS
 70
4
  9
$DIMEXE
 40
1.25
  9
$TEXTSTYLE
  7
Standard
  9
$LIMMIN
 10
0.0
 20
0.0
  0
ENDSEC
  0
SECTION
  2
TABLES
  0
TABLE
  2
VPORT
  5
8
100
AcDbSymbolTable
 70
1
  0
VPORT
  5
30
100
AcDbSymbolTableRecord
100
AcDbViewportTableRecord
  2
*Active
 70
0
 10
0.0
 20
0.0
 11
1.0
 21
1.0
 12
286.30555555555549
 22
148.5
 13
0.0
 23
0.0
 14
10.0
 24
10.0
 15
10.0
 25
10.0
 16
0.0
 26
0.0
 36
1.0
 17
0.0
 27
0.0
 37
0.0
 40
297.0
 41
1.92798353909465
 42
50.0
 43
0.0
 44
0.0
 50
0.0
 51
0.0
 71
0
 72
100
 73
1
 74
3
 75
1
 76
1
 77
0
 78
0
281
0
 65
1
110
0.0
120
0.0
130
0.0
111
1.0
121
0.0
131
0.0
112
0.0
122
1.0
132
0.0
 79
0
146
0.0
  0
ENDTAB
  0
TABLE
  2
LTYPE
  5
5
100
AcDbSymbolTable
 70
25
  0
LTYPE
  5
14
100
AcDbSymbolTableRecord
100
AcDbLinetypeTableRecord
  2
BYBLOCK
 70
0
  3

 72
65
 73
0
 40
0.0
  0
LTYPE
  5
15
100
AcDbSymbolTableRecord
100
AcDbLinetypeTableRecord
  2
BYLAYER
 70
0
  3

 72
65
 73
0
 40
0.0
  0
LTYPE
  5
16
100
AcDbSymbolTableRecord
100
AcDbLinetypeTableRecord
  2
CONTINUOUS
 70
0
  3
Solid line
 72
65
 73
0
 40
0.0
  0
LTYPE
  5
31
100
AcDbSymbolTableRecord
100
AcDbLinetypeTableRecord
  2
ACAD_ISO02W100
 70
0
  3
ISO Dashed __ __ __ __ __ __ __ __ __ __ _
 72
65
 73
2
 40
15.0
 49
12.0
 74
0
 49
-3.0
 74
0
  0
LTYPE
  5
32
100
AcDbSymbolTableRecord
100
AcDbLinetypeTableRecord
  2
ACAD_ISO03W100
 70
0
  3
ISO Dashed with Distance __    __    __    _
 72
65
 73
2
 40
30.0
 49
12.0
 74
0
 49
-18.0
 74
0
  0
LTYPE
  5
33
100
AcDbSymbolTableRecord
100
AcDbLinetypeTableRecord
  2
ACAD_ISO04W100
 70
0
  3
ISO Long Dashed Dotted ____ . ____ . __
 72
65
 73
4
 40
30.0
 49
24.0
 74
0
 49
-3.0
 74
0
 49
0.0
 74
0
 49
-3.0
 74
0
  0
LTYPE
  5
34
100
AcDbSymbolTableRecord
100
AcDbLinetypeTableRecord
  2
ACAD_ISO05W100
 70
0
  3
ISO Long Dashed Double Dotted ____ .. __
 72
65
 73
6
 40
33.0
 49
24.0
 74
0
 49
-3.0
 74
0
 49
0.0
 74
0
 49
-3.0
 74
0
 49
0.0
 74
0
 49
-3.0
 74
0
  0
LTYPE
  5
35
100
AcDbSymbolTableRecord
100
AcDbLinetypeTableRecord
  2
BORDER
 70
0
  3
Border __ __ . __ __ . __ __ . __ __ . __ __ .
 72
65
 73
6
 40
44.450000000000003
 49
12.699999999999999
 74
0
 49
-6.3499999999999996
 74
0
 49
12.699999999999999
 74
0
 49
-6.3499999999999996
 74
0
 49
0.0
 74
0
 49
-6.3499999999999996
 74
0
  0
LTYPE
  5
36
100
AcDbSymbolTableRecord
100
AcDbLinetypeTableRecord
  2
BORDER2
 70
0
  3
Border (.5x) __.__.__.__.__.__.__.__.__.__.__.
 72
65
 73
6
 40
22.225000000000001
 49
6.3499999999999996
 74
0
 49
-3.1749999999999998
 74
0
 49
6.3499999999999996
 74
0
 49
-3.1749999999999998
 74
0
 49
0.0
 74
0
 49
-3.1749999999999998
 74
0
  0
LTYPE
  5
37
100
AcDbSymbolTableRecord
100
AcDbLinetypeTableRecord
  2
BORDERX2
 70
0
  3
Border (2x) ____  ____  .  ____  ____  .  ___
 72
65
 73
6
 40
88.900000000000006
 49
25.399999999999999
 74
0
 49
-12.699999999999999
 74
0
 49
25.399999999999999
 74
0
 49
-12.699999999999999
 74
0
 49
0.0
 74
0
 49
-12.699999999999999
 74
0
  0
LTYPE
  5
38
100
AcDbSymbolTableRecord
100
AcDbLinetypeTableRecord
  2
CENTER
 70
0
  3
Center ____ _ ____ _ ____ _ ____ _ ____ _ ____
 72
65
 73
4
 40
50.799999999999997
 49
31.75
 74
0
 49
-6.3499999999999996
 74
0
 49
6.3499999999999996
 74
0
 49
-6.3499999999999996
 74
0
  0
LTYPE
  5
39
100
AcDbSymbolTableRecord
100
AcDbLinetypeTableRecord
  2
CENTER2
 70
0
  3
Center (.5x) ___ _ ___ _ ___ _ ___ _ ___ _ ___
 72
65
 73
4
 40
28.574999999999999
 49
19.050000000000001
 74
0
 49
-3.1749999999999998
 74
0
 49
3.1749999999999998
 74
0
 49
-3.1749999999999998
 74
0
  0
LTYPE
  5
3A
100
AcDbSymbolTableRecord
100
AcDbLinetypeTableRecord
  2
CENTERX2
 70
0
  3
Center (2x) ________  __  ________  __  _____
 72
65
 73
4
 40
101.59999999999999
 49
63.5
 74
0
 49
-12.699999999999999
 74
0
 49
12.699999999999999
 74
0
 49
-12.699999999999999
 74
0
  0
LTYPE
  5
3B
100
AcDbSymbolTableRecord
100
AcDbLinetypeTableRecord
  2
DASHDOT
 70
0
  3
Dash dot __ . __ . __ . __ . __ . __ . __ . __
 72
65
 73
4
 40
25.399999999999999
 49
12.699999999999999
 74
0
 49
-6.3499999999999996
 74
0
 49
0.0
 74
0
 49
-6.3499999999999996
 74
0
  0
LTYPE
  5
3C
100
AcDbSymbolTableRecord
100
AcDbLinetypeTableRecord
  2
DASHDOT2
 70
0
  3
Dash dot (.5x) _._._._._._._._._._._._._._._.
 72
65
 73
4
 40
12.699999999999999
 49
6.3499999999999996
 74
0
 49
-3.1749999999999998
 74
0
 49
0.0
 74
0
 49
-3.1749999999999998
 74
0
  0
LTYPE
  5
3D
100
AcDbSymbolTableRecord
100
AcDbLinetypeTableRecord
  2
DASHDOTX2
 70
0
  3
Dash dot (2x) ____  .  ____  .  ____  .  ___
 72
65
 73
4
 40
50.799999999999997
 49
25.399999999999999
 74
0
 49
-12.699999999999999
 74
0
 49
0.0
 74
0
 49
-12.699999999999999
 74
0
  0
LTYPE
  5
3E
100
AcDbSymbolTableRecord
100
AcDbLinetypeTableRecord
  2
DASHED
 70
0
  3
Dashed __ __ __ __ __ __ __ __ __ __ __ __ __ _
 72
65
 73
2
 40
19.050000000000001
 49
12.699999999999999
 74
0
 49
-6.3499999999999996
 74
0
  0
LTYPE
  5
3F
100
AcDbSymbolTableRecord
100
AcDbLinetypeTableRecord
  2
DASHED2
 70
0
  3
Dashed (.5x) _ _ _ _ _ _ _ _ _ _ _ _ _ _ _ _ _
 72
65
 73
2
 40
9.5250000000000004
 49
6.3499999999999996
 74
0
 49
-3.1749999999999998
 74
0
  0
LTYPE
  5
40
100
AcDbSymbolTableRecord
100
AcDbLinetypeTableRecord
  2
DASHEDX2
 70
0
  3
Dashed (2x) ____  ____  ____  ____  ____  ___
 72
65
 73
2
 40
38.100000000000001
 49
25.399999999999999
 74
0
 49
-12.699999999999999
 74
0
  0
LTYPE
  5
41
100
AcDbSymbolTableRecord
100
AcDbLinetypeTableRecord
  2
DIVIDE
 70
0
  3
Divide ____ . . ____ . . ____ . . ____ . . ____
 72
65
 73
6
 40
31.75
 49
12.699999999999999
 74
0
 49
-6.3499999999999996
 74
0
 49
0.0
 74
0
 49
-6.3499999999999996
 74
0
 49
0.0
 74
0
 49
-6.3499999999999996
 74
0
  0
LTYPE
  5
42
100
AcDbSymbolTableRecord
100
AcDbLinetypeTableRecord
  2
DIVIDE2
 70
0
  3
Divide (.5x) __..__..__..__..__..__..__..__.._
 72
65
 73
6
 40
15.875
 49
6.3499999999999996
 74
0
 49
-3.1749999999999998
 74
0
 49
0.0
 74
0
 49
-3.1749999999999998
 74
0
 49
0.0
 74
0
 49
-3.1749999999999998
 74
0
  0
LTYPE
  5
43
100
AcDbSymbolTableRecord
100
AcDbLinetypeTableRecord
  2
DIVIDEX2
 70
0
  3
Divide (2x) ________  .  .  ________  .  .  _
 72
65
 73
6
 40
63.5
 49
25.399999999999999
 74
0
 49
-12.699999999999999
 74
0
 49
0.0
 74
0
 49
-12.699999999999999
 74
0
 49
0.0
 74
0
 49
-12.699999999999999
 74
0
  0
LTYPE
  5
44
100
AcDbSymbolTableRecord
100
AcDbLinetypeTableRecord
  2
DOT
 70
0
  3
Dot . . . . . . . . . . . . . . . . . . . . . .
 72
65
 73
2
 40
6.3499999999999996
 49
0.0
 74
0
 49
-6.3499999999999996
 74
0
  0
LTYPE
  5
45
100
AcDbSymbolTableRecord
100
AcDbLinetypeTableRecord
  2
DOT2
 70
0
  3
Dot (.5x) .....................................
 72
65
 73
2
 40
3.1749999999999998
 49
0.0
 74
0
 49
-3.1749999999999998
 74
0
  0
LTYPE
  5
46
100
AcDbSymbolTableRecord
100
AcDbLinetypeTableRecord
  2
DOTX2
 70
0
  3
Dot (2x) .  .  .  .  .  .  .  .  .  .  .  .  .
 72
65
 73
2
 40
12.699999999999999
 49
0.0
 74
0
 49
-12.699999999999999
 74
0
  0
ENDTAB
  0
TABLE
  2
LAYER
  5
2
100
AcDbSymbolTable
 70
3
  0
LAYER
  5
10
100
AcDbSymbolTableRecord
100
AcDbLayerTableRecord
  2
0
 70
0
 62
250
  6
CONTINUOUS
370
100
390
F
  0
LAYER
  5
47
100
AcDbSymbolTableRecord
100
AcDbLayerTableRecord
  2
color#ffffffff
 70
0
 62
7
  6
CONTINUOUS
370
100
390
F
  0
LAYER
  5
48
100
AcDbSymbolTableRecord
100
AcDbLayerTableRecord
  2
color#00000000
 70
0
 62
7
  6
CONTINUOUS
370
100
390
F
  0
ENDTAB
  0
TABLE
  2
STYLE
  5
3
100
AcDbSymbolTable
 70
1
  0
STYLE
  5
11
100
AcDbSymbolTableRecord
100
AcDbTextStyleTableRecord
  2
Standard
 70
0
 40
0.0
 41
0.75
 50
0.0
 71
0
 42
2.5
  3
txt
  4

  0
ENDTAB
  0
TABLE
  2
VIEW
  5
6
100
AcDbSymbolTable
 70
0
  0
ENDTAB
  0
TABLE
  2
UCS
  5
7
100
AcDbSymbolTable
 70
0
  0
ENDTAB
  0
TABLE
  2
APPID
  5
9
100
AcDbSymbolTable
 70
1
  0
APPID
  5
12
100
AcDbSymbolTableRecord
100
AcDbRegAppTableRecord
  2
ACAD
 70
0
  0
ENDTAB
  0
TABLE
  2
DIMSTYLE
  5
A
100
AcDbSymbolTable
 70
1
100
AcDbDimStyleTable
 71
0
  0
DIMSTYLE
105
27
100
AcDbSymbolTableRecord
100
AcDbDimStyleTableRecord
  2
Standard
 41
1.0
 42
1.0
 43
3.75
 44
1.0
 70
0
 73
0
 74
0
 77
1
 78
8
140
1.0
141
2.5
143
0.03937007874016
147
1.0
171
3
172
1
271
2
272
2
274
3
278
44
283
0
284
8
340
11
  0
ENDTAB
  0
TABLE
  2
BLOCK_RECORD
  5
1
100
AcDbSymbolTable
 70
1
  0
BLOCK_RECORD
  5
1F
100
AcDbSymbolTableRecord
100
AcDbBlockTableRecord
  2
*Model_Space
340
22
  0
BLOCK_RECORD
  5
1B
100
AcDbSymbolTableRecord
100
AcDbBlockTableRecord
  2
*Paper_Space
340
1E
  0
BLOCK_RECORD
  5
23
100
AcDbSymbolTableRecord
100
AcDbBlockTableRecord
  2
*Paper_Space0
340
26
  0
ENDTAB
  0
ENDSEC
  0
SECTION
  2
BLOCKS
  0
BLOCK
  5
20
100
AcDbEntity
  8
0
100
AcDbBlockBegin
  2
*Model_Space
 70
0
 10
0.0
 20
0.0
 30
0.0
  3
*Model_Space
  1

  0
ENDBLK
  5
21
100
AcDbEntity
  8
0
100
AcDbBlockEnd
  0
BLOCK
  5
1C
100
AcDbEntity
 67
1
  8
0
100
AcDbBlockBegin
  2
*Paper_Space
 70
0
 10
0.0
 20
0.0
 30
0.0
  3
*Paper_Space
  1

  0
ENDBLK
  5
1D
100
AcDbEntity
 67
1
  8
0
100
AcDbBlockEnd
  0
BLOCK
  5
24
100
AcDbEntity
  8
0
100
AcDbBlockBegin
  2
*Paper_Space0
 70
0
 10
0.0
 20
0.0
 30
0.0
  3
*Paper_Space0
  1

  0
ENDBLK
  5
25
100
AcDbEntity
  8
0
100
AcDbBlockEnd
  0
ENDSEC
  0
SECTION
  2
ENTITIES
  0
LINE
  5
49
100
AcDbEntity
100
AcDbLine
  8
color#ffffffff
 62
256
370
-1
  6
BYLAYER
 10
0.110543327804956
 20
3.2927429620437838
 30
0.0
 11
0.1198107419056826
 21
3.2996178170627006
 31
0.0
  0
LINE
  5
4A
100
AcDbEntity
100
AcDbLine
  8
color#ffffffff
 62
256
370
-1
  6
BYLAYER
 10
0.1198107419056826
 20
3.2996178170627006
 30
0.0
 11
0.1292740883187503
 21
3.3056919928634159
 31
0.0
  0
LINE
  5
4B
100
AcDbEntity
100
AcDbLine
  8
color#ffffffff
 62
256
370
-1
  6
BYLAYER
 10
0.1292740883187503
 20
3.3056919928634159
 30
0.0
 11
0.1389214886333979
 21
3.3110013417389919
 31
0.0
  0
LINE
  5
4C
100
AcDbEntity
100
AcDbLine
  8
color#ffffffff
 62
256
370
-1
  6
BYLAYER
 10
0.1389214886333979
 20
3.3110013417389919
 30
0.0
 11
0.1487410644388642
 21
3.315581715982491
 31
0.0
  0
LINE
  5
4D
100
AcDbEntity
100
AcDbLine
  8
color#ffffffff
 62
256
370
-1
  6
BYLAYER
 10
0.1487410644388642
 20
3.315581715982491
 30
0.0
 11
0.1587209373243879
 21
3.3194689678869738
 31
0.0
  0
LINE
  5
4E
100
AcDbEntity
100
AcDbLine
  8
color#ffffffff
 62
256
370
-1
  6
BYLAYER
 10
0.1587209373243879
 20
3.3194689678869738
 30
0.0
 11
0.1688492288792077
 21
3.3226989497455031
 31
0.0
  0
LINE
  5
4F
100
AcDbEntity
100
AcDbLine
  8
color#ffffffff
 62
256
370
-1
  6
BYLAYER
 10
0.1688492288792077
 20
3.3226989497455031
 30
0.0
 11
0.1791140606925626
 21
3.3253075138511416
 31
0.0
  0
LINE
  5
50
100
AcDbEntity
100
AcDbLine
  8
color#ffffffff
 62
256
370
-1
  6
BYLAYER
 10
0.1791140606925626
 20
3.3253075138511416
 30
0.0
 11
0.1895035543536911
 21
3.3273305124969497
 31
0.0
  0
LINE
  5
51
100
AcDbEntity
100
AcDbLine
  8
color#ffffffff
 62
256
370
-1
  6
BYLAYER
 10
0.1895035543536911
 20
3.3273305124969497
 30
0.0
 11
0.200005831451832
 21
3.3288037979759904
 31
0.0
  0
LINE
  5
52
100
AcDbEntity
100
AcDbLine
  8
color#ffffffff
 62
256
370
-1
  6
BYLAYER
 10
0.200005831451832
 20
3.3288037979759904
 30
0.0
 11
0.2106090135762242
 21
3.3297632225813252
 31
0.0
  0
LINE
  5
53
100
AcDbEntity
100
AcDbLine
  8
color#ffffffff
 62
256
370
-1
  6
BYLAYER
 10
0.2106090135762242
 20
3.3297632225813252
 30
0.0
 11
0.2213012223161063
 21
3.330244638606016
 31
0.0
  0
LINE
  5
54
100
AcDbEntity
100
AcDbLine
  8
color#ffffffff
 62
256
370
-1
  6
BYLAYER
 10
0.2213012223161063
 20
3.330244638606016
 30
0.0
 11
0.2320705792607172
 21
3.3302838983431249
 31
0.0
  0
LINE
  5
55
100
AcDbEntity
100
AcDbLine
  8
color#ffffffff
 62
256
370
-1
  6
BYLAYER
 10
0.2320705792607172
 20
3.3302838983431249
 30
0.0
 11
0.2429052059992955
 21
3.3299168540857145
 31
0.0
  0
LINE
  5
56
100
AcDbEntity
100
AcDbLine
  8
color#ffffffff
 62
256
370
-1
  6
BYLAYER
 10
0.2429052059992955
 20
3.3299168540857145
 30
0.0
 11
0.25379322412108
 21
3.3291793581268454
 31
0.0
  0
LINE
  5
57
100
AcDbEntity
100
AcDbLine
  8
color#ffffffff
 62
256
370
-1
  6
BYLAYER
 10
0.25379322412108
 20
3.3291793581268454
 30
0.0
 11
0.2756819208712228
 21
3.3267364202769807
 31
0.0
  0
LINE
  5
58
100
AcDbEntity
100
AcDbLine
  8
color#ffffffff
 62
256
370
-1
  6
BYLAYER
 10
0.2756819208712228
 20
3.3267364202769807
 30
0.0
 11
0.2976416422250556
 21
3.3232419031380274
 31
0.0
  0
LINE
  5
59
100
AcDbEntity
100
AcDbLine
  8
color#ffffffff
 62
256
370
-1
  6
BYLAYER
 10
0.2976416422250556
 20
3.3232419031380274
 30
0.0
 11
0.3736880292746054
 21
3.306870846098767
 31
0.0
  0
LINE
  5
5A
100
AcDbEntity
100
AcDbLine
  8
color#ffffffff
 62
256
370
-1
  6
BYLAYER
 10
0.3736880292746054
 20
3.306870846098767
 30
0.0
 11
0.4154431426149501
 21
3.2980422738509581
 31
0.0
  0
LINE
  5
5B
100
AcDbEntity
100
AcDbLine
  8
color#ffffffff
 62
256
370
-1
  6
BYLAYER
 10
0.4154431426149501
 20
3.2980422738509581
 30
0.0
 11
0.4333992361348829
 21
3.29187065513285
 31
0.0
  0
LINE
  5
5C
100
AcDbEntity
100
AcDbLine
  8
color#ffffffff
 62
256
370
-1
  6
BYLAYER
 10
0.4333992361348829
 20
3.29187065513285
 30
0.0
 11
0.5046328047991562
 21
3.2656009277388427
 31
0.0
  0
LINE
  5
5D
100
AcDbEntity
100
AcDbLine
  8
color#ffffffff
 62
256
370
-1
  6
BYLAYER
 10
0.5046328047991562
 20
3.2656009277388427
 30
0.0
 11
0.5923959143676778
 21
3.2294820574815013
 31
0.0
  0
LINE
  5
5E
100
AcDbEntity
100
AcDbLine
  8
color#ffffffff
 62
256
370
-1
  6
BYLAYER
 10
0.5923959143676778
 20
3.2294820574815013
 30
0.0
 11
0.7130277886981152
 21
3.1736278586075706
 31
0.0
  0
LINE
  5
5F
100
AcDbEntity
100
AcDbLine
  8
color#ffffffff
 62
256
370
-1
  6
BYLAYER
 10
0.7130277886981152
 20
3.1736278586075706
 30
0.0
 11
0.91436844919571
 21
3.0669374393366291
 31
0.0
  0
LINE
  5
60
100
AcDbEntity
100
AcDbLine
  8
color#ffffffff
 62
256
370
-1
  6
BYLAYER
 10
0.91436844919571
 20
3.0669374393366291
 30
0.0
 11
1.0714235832773389
 21
2.9654307222865564
 31
0.0
  0
LINE
  5
61
100
AcDbEntity
100
AcDbLine
  8
color#ffffffff
 62
256
370
-1
  6
BYLAYER
 10
1.0714235832773389
 20
2.9654307222865564
 30
0.0
 11
1.1406090198787189
 21
2.9139018746488139
 31
0.0
  0
LINE
  5
62
100
AcDbEntity
100
AcDbLine
  8
color#ffffffff
 62
256
370
-1
  6
BYLAYER
 10
1.1406090198787189
 20
2.9139018746488139
 30
0.0
 11
1.1848149662566982
 21
2.8771741030377433
 31
0.0
  0
LINE
  5
63
100
AcDbEntity
100
AcDbLine
  8
color#ffffffff
 62
256
370
-1
  6
BYLAYER
 10
1.1848149662566982
 20
2.8771741030377433
 30
0.0
 11
1.2167373488601221
 21
2.848163708765151
 31
0.0
  0
LINE
  5
64
100
AcDbEntity
100
AcDbLine
  8
color#ffffffff
 62
256
370
-1
  6
BYLAYER
 10
1.2167373488601221
 20
2.848163708765151
 30
0.0
 11
1.2474551183522733
 21
2.8177545118275518
 31
0.0
  0
LINE
  5
65
100
AcDbEntity
100
AcDbLine
  8
color#ffffffff
 62
256
370
-1
  6
BYLAYER
 10
1.2474551183522733
 20
2.8177545118275518
 30
0.0
 11
1.275865182371875
 21
2.7860554441391221
 31
0.0
  0
LINE
  5
66
100
AcDbEntity
100
AcDbLine
  8
color#ffffffff
 62
256
370
-1
  6
BYLAYER
 10
1.275865182371875
 20
2.7860554441391221
 30
0.0
 11
1.4306501368804387
 21
2.5701394837374081
 31
0.0
  0
LINE
  5
67
100
AcDbEntity
100
AcDbLine
  8
color#ffffffff
 62
256
370
-1
  6
BYLAYER
 10
1.4306501368804387
 20
2.5701394837374081
 30
0.0
 11
1.5543810530873374
 21
2.3780529341222589
 31
0.0
  0
LINE
  5
68
100
AcDbEntity
100
AcDbLine
  8
color#ffffffff
 62
256
370
-1
  6
BYLAYER
 10
1.5543810530873374
 20
2.3780529341222589
 30
0.0
 11
1.6217193315112342
 21
2.2630566435605548
 31
0.0
  0
LINE
  5
69
100
AcDbEntity
100
AcDbLine
  8
color#ffffffff
 62
256
370
-1
  6
BYLAYER
 10
1.6217193315112342
 20
2.2630566435605548
 30
0.0
 11
1.6574877445952152
 21
2.1958735893001062
 31
0.0
  0
LINE
  5
6A
100
AcDbEntity
100
AcDbLine
  8
color#ffffffff
 62
256
370
-1
  6
BYLAYER
 10
1.6574877445952152
 20
2.1958735893001062
 30
0.0
 11
1.6826978777241206
 21
2.1446400910743155
 31
0.0
  0
LINE
  5
6B
100
AcDbEntity
100
AcDbLine
  8
color#ffffffff
 62
256
370
-1
  6
BYLAYER
 10
1.6826978777241206
 20
2.1446400910743155
 30
0.0
 11
1.7063252799877786
 21
2.0925929908658678
 31
0.0
  0
LINE
  5
6C
100
AcDbEntity
100
AcDbLine
  8
color#ffffffff
 62
256
370
-1
  6
BYLAYER
 10
1.7063252799877786
 20
2.0925929908658678
 30
0.0
 11
1.7322907495996545
 21
2.0909806575448719
 31
0.0
  0
LINE
  5
6D
100
AcDbEntity
100
AcDbLine
  8
color#ffffffff
 62
256
370
-1
  6
BYLAYER
 10
1.7322907495996545
 20
2.0909806575448715
 30
0.0
 11
1.7320792562058549
 21
2.1302821901621241
 31
0.0
  0
LINE
  5
6E
100
AcDbEntity
100
AcDbLine
  8
color#ffffffff
 62
256
370
-1
  6
BYLAYER
 10
1.7320792562058549
 20
2.1302821901621241
 30
0.0
 11
1.7287047101971469
 21
2.1340936792213889
 31
0.0
  0
LINE
  5
6F
100
AcDbEntity
100
AcDbLine
  8
color#ffffffff
 62
256
370
-1
  6
BYLAYER
 10
1.7287047101971469
 20
2.1340936792213889
 30
0.0
 11
1.7226753709495226
 21
2.1420136270738408
 31
0.0
  0
LINE
  5
70
100
AcDbEntity
100
AcDbLine
  8
color#ffffffff
 62
256
370
-1
  6
BYLAYER
 10
1.7226753709495226
 20
2.1420136270738408
 30
0.0
 11
1.7176066444231499
 21
2.1502797398801796
 31
0.0
  0
LINE
  5
71
100
AcDbEntity
100
AcDbLine
  8
color#ffffffff
 62
256
370
-1
  6
BYLAYER
 10
1.7176066444231499
 20
2.1502797398801796
 30
0.0
 11
1.7134996614518643
 21
2.1588322640107984
 31
0.0
  0
LINE
  5
72
100
AcDbEntity
100
AcDbLine
  8
color#ffffffff
 62
256
370
-1
  6
BYLAYER
 10
1.7134996614518643
 20
2.1588322640107984
 30
0.0
 11
1.7103555528695007
 21
2.167611445836088
 31
0.0
  0
LINE
  5
73
100
AcDbEntity
100
AcDbLine
  8
color#ffffffff
 62
256
370
-1
  6
BYLAYER
 10
1.7103555528695007
 20
2.167611445836088
 30
0.0
 11
1.7081754495098944
 21
2.176557531726441
 31
0.0
  0
LINE
  5
74
100
AcDbEntity
100
AcDbLine
  8
color#ffffffff
 62
256
370
-1
  6
BYLAYER
 10
1.7081754495098944
 20
2.176557531726441
 30
0.0
 11
1.7069604822068807
 21
2.1856107680522481
 31
0.0
  0
LINE
  5
75
100
AcDbEntity
100
AcDbLine
  8
color#ffffffff
 62
256
370
-1
  6
BYLAYER
 10
1.7069604822068807
 20
2.1856107680522481
 30
0.0
 11
1.7067117817942945
 21
2.1947114011839024
 31
0.0
  0
LINE
  5
76
100
AcDbEntity
100
AcDbLine
  8
color#ffffffff
 62
256
370
-1
  6
BYLAYER
 10
1.7067117817942945
 20
2.1947114011839024
 30
0.0
 11
1.7074304791059713
 21
2.2037996774917943
 31
0.0
  0
LINE
  5
77
100
AcDbEntity
100
AcDbLine
  8
color#ffffffff
 62
256
370
-1
  6
BYLAYER
 10
1.7074304791059713
 20
2.2037996774917943
 30
0.0
 11
1.7091177049757451
 21
2.2128158433463176
 31
0.0
  0
LINE
  5
78
100
AcDbEntity
100
AcDbLine
  8
color#ffffffff
 62
256
370
-1
  6
BYLAYER
 10
1.7091177049757451
 20
2.2128158433463176
 30
0.0
 11
1.7117745902374528
 21
2.2217001451178606
 31
0.0
  0
LINE
  5
79
100
AcDbEntity
100
AcDbLine
  8
color#ffffffff
 62
256
370
-1
  6
BYLAYER
 10
1.7117745902374528
 20
2.2217001451178606
 30
0.0
 11
1.7154022657249282
 21
2.2303928291768185
 31
0.0
  0
LINE
  5
7A
100
AcDbEntity
100
AcDbLine
  8
color#ffffffff
 62
256
370
-1
  6
BYLAYER
 10
1.7154022657249282
 20
2.2303928291768185
 30
0.0
 11
1.720001862272007
 21
2.238834141893582
 31
0.0
  0
LINE
  5
7B
100
AcDbEntity
100
AcDbLine
  8
color#ffffffff
 62
256
370
-1
  6
BYLAYER
 10
1.720001862272007
 20
2.238834141893582
 30
0.0
 11
1.7255745107125244
 21
2.2469643296385411
 31
0.0
  0
LINE
  5
7C
100
AcDbEntity
100
AcDbLine
  8
color#ffffffff
 62
256
370
-1
  6
BYLAYER
 10
1.7255745107125244
 20
2.2469643296385411
 30
0.0
 11
1.7321213418803152
 21
2.2547236387820897
 31
0.0
  0
LINE
  5
7D
100
AcDbEntity
100
AcDbLine
  8
color#ffffffff
 62
256
370
-1
  6
BYLAYER
 10
1.7321213418803152
 20
2.2547236387820897
 30
0.0
 11
1.4957046414982813
 21
2.7972894964842161
 31
0.0
  0
LINE
  5
7E
100
AcDbEntity
100
AcDbLine
  8
color#ffffffff
 62
256
370
-1
  6
BYLAYER
 10
1.4957046414982813
 20
2.7972894964842161
 30
0.0
 11
1.5137846976862719
 21
2.8064014110232187
 31
0.0
  0
LINE
  5
7F
100
AcDbEntity
100
AcDbLine
  8
color#ffffffff
 62
256
370
-1
  6
BYLAYER
 10
1.5137846976862719
 20
2.8064014110232187
 30
0.0
 11
1.7501839888947066
 21
2.2622027376512071
 31
0.0
  0
LINE
  5
80
100
AcDbEntity
100
AcDbLine
  8
color#ffffffff
 62
256
370
-1
  6
BYLAYER
 10
1.7501839888947077
 20
2.2622027376512066
 30
0.0
 11
1.8121711715650275
 21
2.255406029110341
 31
0.0
  0
LINE
  5
81
100
AcDbEntity
100
AcDbLine
  8
color#ffffffff
 62
256
370
-1
  6
BYLAYER
 10
1.8121711715650275
 20
2.255406029110341
 30
0.0
 11
2.0582137855154299
 21
2.8119118191048069
 31
0.0
  0
LINE
  5
82
100
AcDbEntity
100
AcDbLine
  8
color#ffffffff
 62
256
370
-1
  6
BYLAYER
 10
2.0582137855154299
 20
2.8119118191048069
 30
0.0
 11
2.0603283956651524
 21
2.8022005832620511
 31
0.0
  0
LINE
  5
83
100
AcDbEntity
100
AcDbLine
  8
color#ffffffff
 62
256
370
-1
  6
BYLAYER
 10
2.0603283956651524
 20
2.8022005832620511
 30
0.0
 11
2.0605009413706599
 21
2.7864085014254933
 31
0.0
  0
LINE
  5
84
100
AcDbEntity
100
AcDbLine
  8
color#ffffffff
 62
256
370
-1
  6
BYLAYER
 10
2.0605009413706599
 20
2.7864085014254933
 30
0.0
 11
2.0377554623282705
 21
2.7238021358911819
 31
0.0
  0
LINE
  5
85
100
AcDbEntity
100
AcDbLine
  8
color#ffffffff
 62
256
370
-1
  6
BYLAYER
 10
2.0377554623282705
 20
2.7238021358911819
 30
0.0
 11
1.8286806058800478
 21
2.2453271063751723
 31
0.0
  0
LINE
  5
86
100
AcDbEntity
100
AcDbLine
  8
color#ffffffff
 62
256
370
-1
  6
BYLAYER
 10
1.8286806058800478
 20
2.2453271063751723
 30
0.0
 11
1.8316699571990265
 21
2.2400897619490272
 31
0.0
  0
LINE
  5
87
100
AcDbEntity
100
AcDbLine
  8
color#ffffffff
 62
256
370
-1
  6
BYLAYER
 10
1.8316699571990265
 20
2.2400897619490272
 30
0.0
 11
1.8341924581740254
 21
2.2348502980274114
 31
0.0
  0
LINE
  5
88
100
AcDbEntity
100
AcDbLine
  8
color#ffffffff
 62
256
370
-1
  6
BYLAYER
 10
1.8341924581740254
 20
2.2348502980274114
 30
0.0
 11
1.8362744384997254
 21
2.2296082742339602
 31
0.0
  0
LINE
  5
89
100
AcDbEntity
100
AcDbLine
  8
color#ffffffff
 62
256
370
-1
  6
BYLAYER
 10
1.8362744384997254
 20
2.2296082742339602
 30
0.0
 11
1.837942227870808
 21
2.2243632501923076
 31
0.0
  0
LINE
  5
8A
100
AcDbEntity
100
AcDbLine
  8
color#ffffffff
 62
256
370
-1
  6
BYLAYER
 10
1.837942227870808
 20
2.2243632501923076
 30
0.0
 11
1.8392221559819539
 21
2.2191147855260884
 31
0.0
  0
LINE
  5
8B
100
AcDbEntity
100
AcDbLine
  8
color#ffffffff
 62
256
370
-1
  6
BYLAYER
 10
1.8392221559819539
 20
2.2191147855260884
 30
0.0
 11
1.8401405525278445
 21
2.2138624398589366
 31
0.0
  0
LINE
  5
8C
100
AcDbEntity
100
AcDbLine
  8
color#ffffffff
 62
256
370
-1
  6
BYLAYER
 10
1.8401405525278445
 20
2.2138624398589366
 30
0.0
 11
1.8407237472031603
 21
2.2086057728144874
 31
0.0
  0
LINE
  5
8D
100
AcDbEntity
100
AcDbLine
  8
color#ffffffff
 62
256
370
-1
  6
BYLAYER
 10
1.8407237472031603
 20
2.2086057728144874
 30
0.0
 11
1.8409898497207928
 21
2.198077713088233
 31
0.0
  0
LINE
  5
8E
100
AcDbEntity
100
AcDbLine
  8
color#ffffffff
 62
256
370
-1
  6
BYLAYER
 10
1.8409898497207928
 20
2.198077713088233
 30
0.0
 11
1.8402311010922991
 21
2.1875270833364007
 31
0.0
  0
LINE
  5
8F
100
AcDbEntity
100
AcDbLine
  8
color#ffffffff
 62
256
370
-1
  6
BYLAYER
 10
1.8402311010922991
 20
2.1875270833364007
 30
0.0
 11
1.8271516352470654
 21
2.1289377459434529
 31
0.0
  0
LINE
  5
90
100
AcDbEntity
100
AcDbLine
  8
color#ffffffff
 62
256
370
-1
  6
BYLAYER
 10
1.8271516352470654
 20
2.1289377459434529
 30
0.0
 11
1.8225429776976354
 21
2.1018867630900542
 31
0.0
  0
LINE
  5
91
100
AcDbEntity
100
AcDbLine
  8
color#ffffffff
 62
256
370
-1
  6
BYLAYER
 10
1.8225429776976354
 20
2.1018867630900542
 30
0.0
 11
1.8220392588391876
 21
2.0909744676164377
 31
0.0
  0
LINE
  5
92
100
AcDbEntity
100
AcDbLine
  8
color#ffffffff
 62
256
370
-1
  6
BYLAYER
 10
1.8220392588391876
 20
2.0909744676164377
 30
0.0
 11
1.826395706531083
 21
2.0911757615265718
 31
0.0
  0
LINE
  5
93
100
AcDbEntity
100
AcDbLine
  8
color#ffffffff
 62
256
370
-1
  6
BYLAYER
 10
1.826395706531083
 20
2.0911757615265718
 30
0.0
 11
1.8304796080829375
 21
2.0917085513268696
 31
0.0
  0
LINE
  5
94
100
AcDbEntity
100
AcDbLine
  8
color#ffffffff
 62
256
370
-1
  6
BYLAYER
 10
1.8304796080829375
 20
2.0917085513268696
 30
0.0
 11
1.8343043649679736
 21
2.0925558754658811
 31
0.0
  0
LINE
  5
95
100
AcDbEntity
100
AcDbLine
  8
color#ffffffff
 62
256
370
-1
  6
BYLAYER
 10
1.8343043649679736
 20
2.0925558754658811
 30
0.0
 11
1.8378833786594118
 21
2.093700772392153
 31
0.0
  0
LINE
  5
96
100
AcDbEntity
100
AcDbLine
  8
color#ffffffff
 62
256
370
-1
  6
BYLAYER
 10
1.8378833786594118
 20
2.093700772392153
 30
0.0
 11
1.8412300506304748
 21
2.0951262805542354
 31
0.0
  0
LINE
  5
97
100
AcDbEntity
100
AcDbLine
  8
color#ffffffff
 62
256
370
-1
  6
BYLAYER
 10
1.8412300506304748
 20
2.0951262805542354
 30
0.0
 11
1.8443577823543837
 21
2.096815438400677
 31
0.0
  0
LINE
  5
98
100
AcDbEntity
100
AcDbLine
  8
color#ffffffff
 62
256
370
-1
  6
BYLAYER
 10
1.8443577823543837
 20
2.096815438400677
 30
0.0
 11
1.8472799753043603
 21
2.0987512843800249
 31
0.0
  0
LINE
  5
99
100
AcDbEntity
100
AcDbLine
  8
color#ffffffff
 62
256
370
-1
  6
BYLAYER
 10
1.8472799753043603
 20
2.0987512843800249
 30
0.0
 11
1.852561350775404
 21
2.1032951945316394
 31
0.0
  0
LINE
  5
9A
100
AcDbEntity
100
AcDbLine
  8
color#ffffffff
 62
256
370
-1
  6
BYLAYER
 10
1.852561350775404
 20
2.1032951945316394
 30
0.0
 11
1.8571813888293787
 21
2.1086223185974675
 31
0.0
  0
LINE
  5
9B
100
AcDbEntity
100
AcDbLine
  8
color#ffffffff
 62
256
370
-1
  6
BYLAYER
 10
1.8571813888293787
 20
2.1086223185974675
 30
0.0
 11
1.8648662998292167
 21
2.1210834388253264
 31
0.0
  0
LINE
  5
9C
100
AcDbEntity
100
AcDbLine
  8
color#ffffffff
 62
256
370
-1
  6
BYLAYER
 10
1.8648662998292167
 20
2.1210834388253264
 30
0.0
 11
1.886691492199684
 21
2.1694218134138623
 31
0.0
  0
LINE
  5
9D
100
AcDbEntity
100
AcDbLine
  8
color#ffffffff
 62
256
370
-1
  6
BYLAYER
 10
1.886691492199684
 20
2.1694218134138623
 30
0.0
 11
1.9173012785360082
 21
2.2286822387447991
 31
0.0
  0
LINE
  5
9E
100
AcDbEntity
100
AcDbLine
  8
color#ffffffff
 62
256
370
-1
  6
BYLAYER
 10
1.9173012785360082
 20
2.2286822387447991
 30
0.0
 11
1.9604112971467227
 21
2.3064076640574696
 31
0.0
  0
LINE
  5
9F
100
AcDbEntity
100
AcDbLine
  8
color#ffffffff
 62
256
370
-1
  6
BYLAYER
 10
1.9604112971467227
 20
2.3064076640574696
 30
0.0
 11
2.0174172111994859
 21
2.4017791809001823
 31
0.0
  0
LINE
  5
A0
100
AcDbEntity
100
AcDbLine
  8
color#ffffffff
 62
256
370
-1
  6
BYLAYER
 10
2.0174172111994859
 20
2.4017791809001823
 30
0.0
 11
2.2268333344251783
 21
2.7163458972961019
 31
0.0
  0
LINE
  5
A1
100
AcDbEntity
100
AcDbLine
  8
color#ffffffff
 62
256
370
-1
  6
BYLAYER
 10
2.2268333344251783
 20
2.7163458972961019
 30
0.0
 11
2.2378155204998773
 21
2.7318335771449385
 31
0.0
  0
LINE
  5
A2
100
AcDbEntity
100
AcDbLine
  8
color#ffffffff
 62
256
370
-1
  6
BYLAYER
 10
2.2378155204998773
 20
2.7318335771449385
 30
0.0
 11
2.2491486104550518
 21
2.7469946470927371
 31
0.0
  0
LINE
  5
A3
100
AcDbEntity
100
AcDbLine
  8
color#ffffffff
 62
256
370
-1
  6
BYLAYER
 10
2.2491486104550518
 20
2.7469946470927371
 30
0.0
 11
2.260819885048063
 21
2.7618381808673629
 31
0.0
  0
LINE
  5
A4
100
AcDbEntity
100
AcDbLine
  8
color#ffffffff
 62
256
370
-1
  6
BYLAYER
 10
2.260819885048063
 20
2.7618381808673629
 30
0.0
 11
2.2728166250362718
 21
2.7763732521966826
 31
0.0
  0
LINE
  5
A5
100
AcDbEntity
100
AcDbLine
  8
color#ffffffff
 62
256
370
-1
  6
BYLAYER
 10
2.2728166250362718
 20
2.7763732521966826
 30
0.0
 11
2.2851261111770373
 21
2.7906089348085605
 31
0.0
  0
LINE
  5
A6
100
AcDbEntity
100
AcDbLine
  8
color#ffffffff
 62
256
370
-1
  6
BYLAYER
 10
2.2851261111770373
 20
2.7906089348085605
 30
0.0
 11
2.2977356242277214
 21
2.8045543024308635
 31
0.0
  0
LINE
  5
A7
100
AcDbEntity
100
AcDbLine
  8
color#ffffffff
 62
256
370
-1
  6
BYLAYER
 10
2.2977356242277214
 20
2.8045543024308635
 30
0.0
 11
2.310632444945683
 21
2.8182184287914565
 31
0.0
  0
LINE
  5
A8
100
AcDbEntity
100
AcDbLine
  8
color#ffffffff
 62
256
370
-1
  6
BYLAYER
 10
2.310632444945683
 20
2.8182184287914565
 30
0.0
 11
2.3238038540882822
 21
2.8316103876182064
 31
0.0
  0
LINE
  5
A9
100
AcDbEntity
100
AcDbLine
  8
color#ffffffff
 62
256
370
-1
  6
BYLAYER
 10
2.3238038540882822
 20
2.8316103876182064
 30
0.0
 11
2.3372371324128807
 21
2.8447392526389779
 31
0.0
  0
LINE
  5
AA
100
AcDbEntity
100
AcDbLine
  8
color#ffffffff
 62
256
370
-1
  6
BYLAYER
 10
2.3372371324128807
 20
2.8447392526389779
 30
0.0
 11
2.3509195606768376
 21
2.8576140975816369
 31
0.0
  0
LINE
  5
AB
100
AcDbEntity
100
AcDbLine
  8
color#ffffffff
 62
256
370
-1
  6
BYLAYER
 10
2.3509195606768376
 20
2.8576140975816369
 30
0.0
 11
2.3648384196375134
 21
2.8702439961740498
 31
0.0
  0
LINE
  5
AC
100
AcDbEntity
100
AcDbLine
  8
color#ffffffff
 62
256
370
-1
  6
BYLAYER
 10
2.3648384196375134
 20
2.8702439961740498
 30
0.0
 11
2.3933345526784646
 21
2.894805249219599
 31
0.0
  0
LINE
  5
AD
100
AcDbEntity
100
AcDbLine
  8
color#ffffffff
 62
256
370
-1
  6
BYLAYER
 10
2.3933345526784646
 20
2.894805249219599
 30
0.0
 11
2.4226237775946156
 21
2.9184956015985515
 31
0.0
  0
LINE
  5
AE
100
AcDbEntity
100
AcDbLine
  8
color#ffffffff
 62
256
370
-1
  6
BYLAYER
 10
2.4226237775946156
 20
2.9184956015985515
 30
0.0
 11
2.4526043404448492
 21
2.9413876431338322
 31
0.0
  0
LINE
  5
AF
100
AcDbEntity
100
AcDbLine
  8
color#ffffffff
 62
256
370
-1
  6
BYLAYER
 10
2.4526043404448492
 20
2.9413876431338322
 30
0.0
 11
2.4831744872880468
 21
2.9635539636483688
 31
0.0
  0
LINE
  5
B0
100
AcDbEntity
100
AcDbLine
  8
color#ffffffff
 62
256
370
-1
  6
BYLAYER
 10
2.4831744872880468
 20
2.9635539636483688
 30
0.0
 11
2.5299125907934568
 21
2.9956015077439266
 31
0.0
  0
LINE
  5
B1
100
AcDbEntity
100
AcDbLine
  8
color#ffffffff
 62
256
370
-1
  6
BYLAYER
 10
2.5299125907934568
 20
2.9956015077439266
 30
0.0
 11
2.6413075934593895
 21
3.0660403947122865
 31
0.0
  0
LINE
  5
B2
100
AcDbEntity
100
AcDbLine
  8
color#ffffffff
 62
256
370
-1
  6
BYLAYER
 10
2.6413075934593895
 20
3.0660403947122865
 30
0.0
 11
2.6743629247692557
 21
3.0847657118874614
 31
0.0
  0
LINE
  5
B3
100
AcDbEntity
100
AcDbLine
  8
color#ffffffff
 62
256
370
-1
  6
BYLAYER
 10
2.6743629247692557
 20
3.0847657118874614
 30
0.0
 11
2.8255693954439187
 21
3.1647340607990313
 31
0.0
  0
LINE
  5
B4
100
AcDbEntity
100
AcDbLine
  8
color#ffffffff
 62
256
370
-1
  6
BYLAYER
 10
2.8255693954439187
 20
3.1647340607990313
 30
0.0
 11
2.9460010229643903
 21
3.2212632984968073
 31
0.0
  0
LINE
  5
B5
100
AcDbEntity
100
AcDbLine
  8
color#ffffffff
 62
256
370
-1
  6
BYLAYER
 10
2.9460010229643903
 20
3.2212632984968073
 30
0.0
 11
3.051236162168415
 21
3.265080940935007
 31
0.0
  0
LINE
  5
B6
100
AcDbEntity
100
AcDbLine
  8
color#ffffffff
 62
256
370
-1
  6
BYLAYER
 10
3.051236162168415
 20
3.265080940935007
 30
0.0
 11
3.1403708234137002
 21
3.2979295350935089
 31
0.0
  0
LINE
  5
B7
100
AcDbEntity
100
AcDbLine
  8
color#ffffffff
 62
256
370
-1
  6
BYLAYER
 10
3.1403708234137002
 20
3.2979295350935089
 30
0.0
 11
3.1610698723088047
 21
3.3021564730767987
 31
0.0
  0
LINE
  5
B8
100
AcDbEntity
100
AcDbLine
  8
color#ffffffff
 62
256
370
-1
  6
BYLAYER
 10
3.1610698723088047
 20
3.3021564730767987
 30
0.0
 11
3.2474832786762011
 21
3.3212656505960654
 31
0.0
  0
LINE
  5
B9
100
AcDbEntity
100
AcDbLine
  8
color#ffffffff
 62
256
370
-1
  6
BYLAYER
 10
3.2474832786762011
 20
3.3212656505960654
 30
0.0
 11
3.2805287037677475
 21
3.3268096507891216
 31
0.0
  0
LINE
  5
BA
100
AcDbEntity
100
AcDbLine
  8
color#ffffffff
 62
256
370
-1
  6
BYLAYER
 10
3.2805287037677475
 20
3.3268096507891216
 30
0.0
 11
3.3024949556342076
 21
3.3292474779458239
 31
0.0
  0
LINE
  5
BB
100
AcDbEntity
100
AcDbLine
  8
color#ffffffff
 62
256
370
-1
  6
BYLAYER
 10
3.3024949556342076
 20
3.3292474779458239
 30
0.0
 11
3.3134231363714779
 21
3.3299827845515559
 31
0.0
  0
LINE
  5
BC
100
AcDbEntity
100
AcDbLine
  8
color#ffffffff
 62
256
370
-1
  6
BYLAYER
 10
3.3134231363714779
 20
3.3299827845515559
 30
0.0
 11
3.3242988044280701
 21
3.3303485064728671
 31
0.0
  0
LINE
  5
BD
100
AcDbEntity
100
AcDbLine
  8
color#ffffffff
 62
256
370
-1
  6
BYLAYER
 10
3.3242988044280701
 20
3.3303485064728671
 30
0.0
 11
3.3351100478914524
 21
3.3303092586827514
 31
0.0
  0
LINE
  5
BE
100
AcDbEntity
100
AcDbLine
  8
color#ffffffff
 62
256
370
-1
  6
BYLAYER
 10
3.3351100478914524
 20
3.3303092586827514
 30
0.0
 11
3.3458449548490972
 21
3.3298296561542022
 31
0.0
  0
LINE
  5
BF
100
AcDbEntity
100
AcDbLine
  8
color#ffffffff
 62
256
370
-1
  6
BYLAYER
 10
3.3458449548490972
 20
3.3298296561542022
 30
0.0
 11
3.3564916133884752
 21
3.3288743138602142
 31
0.0
  0
LINE
  5
C0
100
AcDbEntity
100
AcDbLine
  8
color#ffffffff
 62
256
370
-1
  6
BYLAYER
 10
3.3564916133884752
 20
3.3288743138602142
 30
0.0
 11
3.3670381115970551
 21
3.3274078467737809
 31
0.0
  0
LINE
  5
C1
100
AcDbEntity
100
AcDbLine
  8
color#ffffffff
 62
256
370
-1
  6
BYLAYER
 10
3.3670381115970551
 20
3.3274078467737809
 30
0.0
 11
3.377472537562308
 21
3.3253948698678957
 31
0.0
  0
LINE
  5
C2
100
AcDbEntity
100
AcDbLine
  8
color#ffffffff
 62
256
370
-1
  6
BYLAYER
 10
3.377472537562308
 20
3.3253948698678957
 30
0.0
 11
3.3877829793717074
 21
3.3227999981155532
 31
0.0
  0
LINE
  5
C3
100
AcDbEntity
100
AcDbLine
  8
color#ffffffff
 62
256
370
-1
  6
BYLAYER
 10
3.3877829793717074
 20
3.3227999981155532
 30
0.0
 11
3.3979575251127203
 21
3.319587846489747
 31
0.0
  0
LINE
  5
C4
100
AcDbEntity
100
AcDbLine
  8
color#ffffffff
 62
256
370
-1
  6
BYLAYER
 10
3.3979575251127203
 20
3.319587846489747
 30
0.0
 11
3.4079842628728172
 21
3.3157230299634701
 31
0.0
  0
LINE
  5
C5
100
AcDbEntity
100
AcDbLine
  8
color#ffffffff
 62
256
370
-1
  6
BYLAYER
 10
3.4079842628728172
 20
3.3157230299634701
 30
0.0
 11
3.4178512807394723
 21
3.3111701635097179
 31
0.0
  0
LINE
  5
C6
100
AcDbEntity
100
AcDbLine
  8
color#ffffffff
 62
256
370
-1
  6
BYLAYER
 10
3.4178512807394723
 20
3.3111701635097179
 30
0.0
 11
3.4275466668001524
 21
3.3058938621014837
 31
0.0
  0
LINE
  5
C7
100
AcDbEntity
100
AcDbLine
  8
color#ffffffff
 62
256
370
-1
  6
BYLAYER
 10
3.4275466668001524
 20
3.3058938621014837
 30
0.0
 11
3.4370585091423305
 21
3.2998587407117608
 31
0.0
  0
LINE
  5
C8
100
AcDbEntity
100
AcDbLine
  8
color#ffffffff
 62
256
370
-1
  6
BYLAYER
 10
3.4370585091423305
 20
3.2998587407117608
 30
0.0
 11
3.4463748958534737
 21
3.2930294143135441
 31
0.0
  0
LINE
  5
C9
100
AcDbEntity
100
AcDbLine
  8
color#ffffffff
 62
256
370
-1
  6
BYLAYER
 10
3.4463748958534737
 20
3.2930294143135441
 30
0.0
 11
3.4548039330836522
 21
3.2852828817337865
 31
0.0
  0
LINE
  5
CA
100
AcDbEntity
100
AcDbLine
  8
color#ffffffff
 62
256
370
-1
  6
BYLAYER
 10
3.4548039330836522
 20
3.2852828817337865
 30
0.0
 11
3.4627815769194519
 21
3.2772299860311174
 31
0.0
  0
LINE
  5
CB
100
AcDbEntity
100
AcDbLine
  8
color#ffffffff
 62
256
370
-1
  6
BYLAYER
 10
3.4627815769194519
 20
3.2772299860311174
 30
0.0
 11
3.4703209648261564
 21
3.2688849688055512
 31
0.0
  0
LINE
  5
CC
100
AcDbEntity
100
AcDbLine
  8
color#ffffffff
 62
256
370
-1
  6
BYLAYER
 10
3.4703209648261564
 20
3.2688849688055512
 30
0.0
 11
3.4774352342690489
 21
3.2602620716571025
 31
0.0
  0
LINE
  5
CD
100
AcDbEntity
100
AcDbLine
  8
color#ffffffff
 62
256
370
-1
  6
BYLAYER
 10
3.4774352342690489
 20
3.2602620716571025
 30
0.0
 11
3.4841375227134126
 21
3.2513755361857846
 31
0.0
  0
LINE
  5
CE
100
AcDbEntity
100
AcDbLine
  8
color#ffffffff
 62
256
370
-1
  6
BYLAYER
 10
3.4841375227134126
 20
3.2513755361857846
 30
0.0
 11
3.4904409676245303
 21
3.2422396039916119
 31
0.0
  0
LINE
  5
CF
100
AcDbEntity
100
AcDbLine
  8
color#ffffffff
 62
256
370
-1
  6
BYLAYER
 10
3.4904409676245303
 20
3.2422396039916119
 30
0.0
 11
3.4963587064676855
 21
3.2328685166745985
 31
0.0
  0
LINE
  5
D0
100
AcDbEntity
100
AcDbLine
  8
color#ffffffff
 62
256
370
-1
  6
BYLAYER
 10
3.4963587064676855
 20
3.2328685166745985
 30
0.0
 11
3.5019038767081607
 21
3.2232765158347592
 31
0.0
  0
LINE
  5
D1
100
AcDbEntity
100
AcDbLine
  8
color#ffffffff
 62
256
370
-1
  6
BYLAYER
 10
3.5019038767081607
 20
3.2232765158347592
 30
0.0
 11
3.5070896158112395
 21
3.2134778430721074
 31
0.0
  0
LINE
  5
D2
100
AcDbEntity
100
AcDbLine
  8
color#ffffffff
 62
256
370
-1
  6
BYLAYER
 10
3.5070896158112395
 20
3.2134778430721074
 30
0.0
 11
3.5119290612422045
 21
3.2034867399866567
 31
0.0
  0
LINE
  5
D3
100
AcDbEntity
100
AcDbLine
  8
color#ffffffff
 62
256
370
-1
  6
BYLAYER
 10
3.5119290612422045
 20
3.2034867399866567
 30
0.0
 11
3.5164353504663399
 21
3.1933174481784228
 31
0.0
  0
LINE
  5
D4
100
AcDbEntity
100
AcDbLine
  8
color#ffffffff
 62
256
370
-1
  6
BYLAYER
 10
3.5164353504663399
 20
3.1933174481784228
 30
0.0
 11
3.5206216209489281
 21
3.1829842092474183
 31
0.0
  0
LINE
  5
D5
100
AcDbEntity
100
AcDbLine
  8
color#ffffffff
 62
256
370
-1
  6
BYLAYER
 10
3.5206216209489281
 20
3.1829842092474183
 30
0.0
 11
3.5245010101552525
 21
3.1725012647936581
 31
0.0
  0
LINE
  5
D6
100
AcDbEntity
100
AcDbLine
  8
color#ffffffff
 62
256
370
-1
  6
BYLAYER
 10
3.5245010101552525
 20
3.1725012647936581
 30
0.0
 11
3.5280866555505952
 21
3.1618828564171562
 31
0.0
  0
LINE
  5
D7
100
AcDbEntity
100
AcDbLine
  8
color#ffffffff
 62
256
370
-1
  6
BYLAYER
 10
3.5280866555505952
 20
3.1618828564171562
 30
0.0
 11
3.5344292647694719
 21
3.1402966142959832
 31
0.0
  0
LINE
  5
D8
100
AcDbEntity
100
AcDbLine
  8
color#ffffffff
 62
256
370
-1
  6
BYLAYER
 10
3.5344292647694719
 20
3.1402966142959832
 30
0.0
 11
3.5397545483278212
 21
3.1183394156840132
 31
0.0
  0
LINE
  5
D9
100
AcDbEntity
100
AcDbLine
  8
color#ffffffff
 62
256
370
-1
  6
BYLAYER
 10
3.5397545483278212
 20
3.1183394156840132
 30
0.0
 11
3.5441676059479108
 21
3.0961251933813574
 31
0.0
  0
LINE
  5
DA
100
AcDbEntity
100
AcDbLine
  8
color#ffffffff
 62
256
370
-1
  6
BYLAYER
 10
3.5441676059479108
 20
3.0961251933813574
 30
0.0
 11
3.5493066743862585
 21
3.0625711685075876
 31
0.0
  0
LINE
  5
DB
100
AcDbEntity
100
AcDbLine
  8
color#ffffffff
 62
256
370
-1
  6
BYLAYER
 10
3.5493066743862585
 20
3.0625711685075876
 30
0.0
 11
3.5555555555555554
 21
2.9960353480502131
 31
0.0
  0
LINE
  5
DC
100
AcDbEntity
100
AcDbLine
  8
color#ffffffff
 62
256
370
-1
  6
BYLAYER
 10
3.5555555555555554
 20
2.9960353480502131
 30
0.0
 11
3.5555555555555554
 21
2.913742014463343
 31
0.0
  0
LINE
  5
DD
100
AcDbEntity
100
AcDbLine
  8
color#ffffffff
 62
256
370
-1
  6
BYLAYER
 10
3.5555555555555554
 20
2.913742014463343
 30
0.0
 11
3.5415039180707435
 21
2.8934611380330355
 31
0.0
  0
LINE
  5
DE
100
AcDbEntity
100
AcDbLine
  8
color#ffffffff
 62
256
370
-1
  6
BYLAYER
 10
3.5415039180707435
 20
2.8934611380330355
 30
0.0
 11
3.5285096375320371
 21
2.8726341617084423
 31
0.0
  0
LINE
  5
DF
100
AcDbEntity
100
AcDbLine
  8
color#ffffffff
 62
256
370
-1
  6
BYLAYER
 10
3.5285096375320371
 20
2.8726341617084423
 30
0.0
 11
3.5164958058522053
 21
2.8513090526495564
 31
0.0
  0
LINE
  5
E0
100
AcDbEntity
100
AcDbLine
  8
color#ffffffff
 62
256
370
-1
  6
BYLAYER
 10
3.5164958058522053
 20
2.8513090526495564
 30
0.0
 11
3.5053855149440154
 21
2.8295337780163723
 31
0.0
  0
LINE
  5
E1
100
AcDbEntity
100
AcDbLine
  8
color#ffffffff
 62
256
370
-1
  6
BYLAYER
 10
3.5053855149440154
 20
2.8295337780163723
 30
0.0
 11
3.4902459810877406
 21
2.7961317337772744
 31
0.0
  0
LINE
  5
E2
100
AcDbEntity
100
AcDbLine
  8
color#ffffffff
 62
256
370
-1
  6
BYLAYER
 10
3.4902459810877406
 20
2.7961317337772744
 30
0.0
 11
3.4725045198326319
 21
2.7504677887750422
 31
0.0
  0
LINE
  5
E3
100
AcDbEntity
100
AcDbLine
  8
color#ffffffff
 62
256
370
-1
  6
BYLAYER
 10
3.4725045198326319
 20
2.7504677887750422
 30
0.0
 11
3.4239315438017863
 21
2.5857813865056554
 31
0.0
  0
LINE
  5
E4
100
AcDbEntity
100
AcDbLine
  8
color#ffffffff
 62
256
370
-1
  6
BYLAYER
 10
3.4239315438017863
 20
2.5857813865056554
 30
0.0
 11
3.3479075901873658
 21
2.1950379448466801
 31
0.0
  0
LINE
  5
E5
100
AcDbEntity
100
AcDbLine
  8
color#ffffffff
 62
256
370
-1
  6
BYLAYER
 10
3.3479075901873658
 20
2.1950379448466801
 30
0.0
 11
3.3463155031006528
 21
2.1824965971798465
 31
0.0
  0
LINE
  5
E6
100
AcDbEntity
100
AcDbLine
  8
color#ffffffff
 62
256
370
-1
  6
BYLAYER
 10
3.3463155031006528
 20
2.1824965971798465
 30
0.0
 11
3.3440351296066408
 21
2.1702385138764799
 31
0.0
  0
LINE
  5
E7
100
AcDbEntity
100
AcDbLine
  8
color#ffffffff
 62
256
370
-1
  6
BYLAYER
 10
3.3440351296066408
 20
2.1702385138764799
 30
0.0
 11
3.3410923621212381
 21
2.1582642258222702
 31
0.0
  0
LINE
  5
E8
100
AcDbEntity
100
AcDbLine
  8
color#ffffffff
 62
256
370
-1
  6
BYLAYER
 10
3.3410923621212381
 20
2.1582642258222702
 30
0.0
 11
3.3375130930603456
 21
2.1465742639029077
 31
0.0
  0
LINE
  5
E9
100
AcDbEntity
100
AcDbLine
  8
color#ffffffff
 62
256
370
-1
  6
BYLAYER
 10
3.3375130930603456
 20
2.1465742639029077
 30
0.0
 11
3.3333232148398735
 21
2.1351691590040813
 31
0.0
  0
LINE
  5
EA
100
AcDbEntity
100
AcDbLine
  8
color#ffffffff
 62
256
370
-1
  6
BYLAYER
 10
3.3333232148398735
 20
2.1351691590040813
 30
0.0
 11
3.3285486198757219
 21
2.1240494420114824
 31
0.0
  0
LINE
  5
EB
100
AcDbEntity
100
AcDbLine
  8
color#ffffffff
 62
256
370
-1
  6
BYLAYER
 10
3.3285486198757219
 20
2.1240494420114824
 30
0.0
 11
3.3232152005837974
 21
2.113215643810801
 31
0.0
  0
LINE
  5
EC
100
AcDbEntity
100
AcDbLine
  8
color#ffffffff
 62
256
370
-1
  6
BYLAYER
 10
3.3232152005837974
 20
2.113215643810801
 30
0.0
 11
3.3173488493800067
 21
2.1026682952877258
 31
0.0
  0
LINE
  5
ED
100
AcDbEntity
100
AcDbLine
  8
color#ffffffff
 62
256
370
-1
  6
BYLAYER
 10
3.3173488493800067
 20
2.1026682952877258
 30
0.0
 11
3.3109754586802529
 21
2.092407927327947
 31
0.0
  0
LINE
  5
EE
100
AcDbEntity
100
AcDbLine
  8
color#ffffffff
 62
256
370
-1
  6
BYLAYER
 10
3.3109754586802529
 20
2.092407927327947
 30
0.0
 11
3.3041209209004401
 21
2.0824350708171564
 31
0.0
  0
LINE
  5
EF
100
AcDbEntity
100
AcDbLine
  8
color#ffffffff
 62
256
370
-1
  6
BYLAYER
 10
3.3041209209004401
 20
2.0824350708171564
 30
0.0
 11
3.2968111284564756
 21
2.0727502566410418
 31
0.0
  0
LINE
  5
F0
100
AcDbEntity
100
AcDbLine
  8
color#ffffffff
 62
256
370
-1
  6
BYLAYER
 10
3.2968111284564756
 20
2.0727502566410418
 30
0.0
 11
3.2890719737642637
 21
2.0633540156852948
 31
0.0
  0
LINE
  5
F1
100
AcDbEntity
100
AcDbLine
  8
color#ffffffff
 62
256
370
-1
  6
BYLAYER
 10
3.2890719737642637
 20
2.0633540156852948
 30
0.0
 11
3.2809293492397069
 21
2.0542468788356043
 31
0.0
  0
LINE
  5
F2
100
AcDbEntity
100
AcDbLine
  8
color#ffffffff
 62
256
370
-1
  6
BYLAYER
 10
3.2809293492397069
 20
2.0542468788356043
 30
0.0
 11
3.2724091472987138
 21
2.045429376977661
 31
0.0
  0
LINE
  5
F3
100
AcDbEntity
100
AcDbLine
  8
color#ffffffff
 62
256
370
-1
  6
BYLAYER
 10
3.2724091472987138
 20
2.045429376977661
 30
0.0
 11
3.2635372603571868
 21
2.036902040997155
 31
0.0
  0
LINE
  5
F4
100
AcDbEntity
100
AcDbLine
  8
color#ffffffff
 62
256
370
-1
  6
BYLAYER
 10
3.2635372603571868
 20
2.036902040997155
 30
0.0
 11
3.254339580831032
 21
2.0286654017797758
 31
0.0
  0
LINE
  5
F5
100
AcDbEntity
100
AcDbLine
  8
color#ffffffff
 62
256
370
-1
  6
BYLAYER
 10
3.254339580831032
 20
2.0286654017797758
 30
0.0
 11
3.2448420011361541
 21
2.0207199902112136
 31
0.0
  0
LINE
  5
F6
100
AcDbEntity
100
AcDbLine
  8
color#ffffffff
 62
256
370
-1
  6
BYLAYER
 10
3.2448420011361541
 20
2.0207199902112136
 30
0.0
 11
3.235070413688458
 21
2.0130663371771584
 31
0.0
  0
LINE
  5
F7
100
AcDbEntity
100
AcDbLine
  8
color#ffffffff
 62
256
370
-1
  6
BYLAYER
 10
3.235070413688458
 20
2.0130663371771584
 30
0.0
 11
3.2250507109038486
 21
2.0057049735632995
 31
0.0
  0
LINE
  5
F8
100
AcDbEntity
100
AcDbLine
  8
color#ffffffff
 62
256
370
-1
  6
BYLAYER
 10
3.2250507109038486
 20
2.0057049735632995
 30
0.0
 11
3.2148087851982314
 21
1.9986364302553286
 31
0.0
  0
LINE
  5
F9
100
AcDbEntity
100
AcDbLine
  8
color#ffffffff
 62
256
370
-1
  6
BYLAYER
 10
3.2148087851982314
 20
1.9986364302553286
 30
0.0
 11
3.2043705289875097
 21
1.991861238138934
 31
0.0
  0
LINE
  5
FA
100
AcDbEntity
100
AcDbLine
  8
color#ffffffff
 62
256
370
-1
  6
BYLAYER
 10
3.2043705289875097
 20
1.991861238138934
 30
0.0
 11
3.1937618346875905
 21
1.9853799280998063
 31
0.0
  0
LINE
  5
FB
100
AcDbEntity
100
AcDbLine
  8
color#ffffffff
 62
256
370
-1
  6
BYLAYER
 10
3.1937618346875905
 20
1.9853799280998063
 30
0.0
 11
3.1830085947143782
 21
1.9791930310236363
 31
0.0
  0
LINE
  5
FC
100
AcDbEntity
100
AcDbLine
  8
color#ffffffff
 62
256
370
-1
  6
BYLAYER
 10
3.1830085947143782
 20
1.9791930310236363
 30
0.0
 11
3.1611720474116916
 21
1.9677045993029267
 31
0.0
  0
LINE
  5
FD
100
AcDbEntity
100
AcDbLine
  8
color#ffffffff
 62
256
370
-1
  6
BYLAYER
 10
3.1611720474116916
 20
1.9677045993029267
 30
0.0
 11
3.1390680264066919
 21
1.957400190062325
 31
0.0
  0
LINE
  5
FE
100
AcDbEntity
100
AcDbLine
  8
color#ffffffff
 62
256
370
-1
  6
BYLAYER
 10
3.1390680264066919
 20
1.957400190062325
 30
0.0
 11
3.1169036710266163
 21
1.9482840503873513
 31
0.0
  0
LINE
  5
FF
100
AcDbEntity
100
AcDbLine
  8
color#ffffffff
 62
256
370
-1
  6
BYLAYER
 10
3.1169036710266163
 20
1.9482840503873513
 30
0.0
 11
3.100362035197858
 21
1.9426995129492601
 31
0.0
  0
LINE
  5
100
100
AcDbEntity
100
AcDbLine
  8
color#ffffffff
 62
256
370
-1
  6
BYLAYER
 10
3.100362035197858
 20
1.9426995129492601
 30
0.0
 11
3.0837314596702456
 21
1.9374717229088618
 31
0.0
  0
LINE
  5
101
100
AcDbEntity
100
AcDbLine
  8
color#ffffffff
 62
256
370
-1
  6
BYLAYER
 10
3.0837314596702456
 20
1.9374717229088618
 30
0.0
 11
3.0670165830245475
 21
1.9325928311869669
 31
0.0
  0
LINE
  5
102
100
AcDbEntity
100
AcDbLine
  8
color#ffffffff
 62
256
370
-1
  6
BYLAYER
 10
3.0670165830245475
 20
1.9325928311869669
 30
0.0
 11
3.050222043841528
 21
1.9280549887043881
 31
0.0
  0
LINE
  5
103
100
AcDbEntity
100
AcDbLine
  8
color#ffffffff
 62
256
370
-1
  6
BYLAYER
 10
3.050222043841528
 20
1.9280549887043881
 30
0.0
 11
3.0333524807019541
 21
1.9238503463819367
 31
0.0
  0
LINE
  5
104
100
AcDbEntity
100
AcDbLine
  8
color#ffffffff
 62
256
370
-1
  6
BYLAYER
 10
3.0333524807019541
 20
1.9238503463819367
 30
0.0
 11
3.0164125321865898
 21
1.9199710551404254
 31
0.0
  0
LINE
  5
105
100
AcDbEntity
100
AcDbLine
  8
color#ffffffff
 62
256
370
-1
  6
BYLAYER
 10
3.0164125321865898
 20
1.9199710551404254
 30
0.0
 11
2.9994068368762012
 21
1.9164092659006657
 31
0.0
  0
LINE
  5
106
100
AcDbEntity
100
AcDbLine
  8
color#ffffffff
 62
256
370
-1
  6
BYLAYER
 10
2.9994068368762012
 20
1.9164092659006657
 30
0.0
 11
2.9652167601934187
 21
1.9102067971096486
 31
0.0
  0
LINE
  5
107
100
AcDbEntity
100
AcDbLine
  8
color#ffffffff
 62
256
370
-1
  6
BYLAYER
 10
2.9652167601934187
 20
1.9102067971096486
 30
0.0
 11
2.9308193592997269
 21
1.9051801473753827
 31
0.0
  0
LINE
  5
108
100
AcDbEntity
100
AcDbLine
  8
color#ffffffff
 62
256
370
-1
  6
BYLAYER
 10
2.9308193592997269
 20
1.9051801473753827
 30
0.0
 11
2.8962517428412546
 21
1.9012665240643625
 31
0.0
  0
LINE
  5
109
100
AcDbEntity
100
AcDbLine
  8
color#ffffffff
 62
256
370
-1
  6
BYLAYER
 10
2.8962517428412546
 20
1.9012665240643625
 30
0.0
 11
2.8615510194641276
 21
1.8984031345430838
 31
0.0
  0
LINE
  5
10A
100
AcDbEntity
100
AcDbLine
  8
color#ffffffff
 62
256
370
-1
  6
BYLAYER
 10
2.8615510194641276
 20
1.8984031345430838
 30
0.0
 11
2.8267542978144702
 21
1.8965271861780433
 31
0.0
  0
LINE
  5
10B
100
AcDbEntity
100
AcDbLine
  8
color#ffffffff
 62
256
370
-1
  6
BYLAYER
 10
2.8267542978144702
 20
1.8965271861780433
 30
0.0
 11
2.7744603937423924
 21
1.8954273569126368
 31
0.0
  0
LINE
  5
10C
100
AcDbEntity
100
AcDbLine
  8
color#ffffffff
 62
256
370
-1
  6
BYLAYER
 10
2.7744603937423924
 20
1.8954273569126368
 30
0.0
 11
2.7221592296915795
 21
1.8961960616853024
 31
0.0
  0
LINE
  5
10D
100
AcDbEntity
100
AcDbLine
  8
color#ffffffff
 62
256
370
-1
  6
BYLAYER
 10
2.7221592296915795
 20
1.8961960616853024
 30
0.0
 11
2.6526295180926436
 21
1.8997613195237502
 31
0.0
  0
LINE
  5
10E
100
AcDbEntity
100
AcDbLine
  8
color#ffffffff
 62
256
370
-1
  6
BYLAYER
 10
2.6526295180926436
 20
1.8997613195237502
 30
0.0
 11
2.6180360883764502
 21
1.9024913727925434
 31
0.0
  0
LINE
  5
10F
100
AcDbEntity
100
AcDbLine
  8
color#ffffffff
 62
256
370
-1
  6
BYLAYER
 10
2.6180360883764502
 20
1.9024913727925434
 30
0.0
 11
2.6398388917610784
 21
1.891272581850912
 31
0.0
  0
LINE
  5
110
100
AcDbEntity
100
AcDbLine
  8
color#ffffffff
 62
256
370
-1
  6
BYLAYER
 10
2.6398388917610784
 20
1.891272581850912
 30
0.0
 11
2.661430421703197
 21
1.8796936333997765
 31
0.0
  0
LINE
  5
111
100
AcDbEntity
100
AcDbLine
  8
color#ffffffff
 62
256
370
-1
  6
BYLAYER
 10
2.661430421703197
 20
1.8796936333997765
 30
0.0
 11
2.6828105975228382
 21
1.8677616922723539
 31
0.0
  0
LINE
  5
112
100
AcDbEntity
100
AcDbLine
  8
color#ffffffff
 62
256
370
-1
  6
BYLAYER
 10
2.6828105975228382
 20
1.8677616922723539
 30
0.0
 11
2.7039793385400315
 21
1.8554839233018621
 31
0.0
  0
LINE
  5
113
100
AcDbEntity
100
AcDbLine
  8
color#ffffffff
 62
256
370
-1
  6
BYLAYER
 10
2.7039793385400315
 20
1.8554839233018621
 30
0.0
 11
2.7249365640748082
 21
1.8428674913215164
 31
0.0
  0
LINE
  5
114
100
AcDbEntity
100
AcDbLine
  8
color#ffffffff
 62
256
370
-1
  6
BYLAYER
 10
2.7249365640748082
 20
1.8428674913215164
 30
0.0
 11
2.7456821934471991
 21
1.8299195611645358
 31
0.0
  0
LINE
  5
115
100
AcDbEntity
100
AcDbLine
  8
color#ffffffff
 62
256
370
-1
  6
BYLAYER
 10
2.7456821934471991
 20
1.8299195611645358
 30
0.0
 11
2.7662161459772339
 21
1.8166472976641375
 31
0.0
  0
LINE
  5
116
100
AcDbEntity
100
AcDbLine
  8
color#ffffffff
 62
256
370
-1
  6
BYLAYER
 10
2.7662161459772339
 20
1.8166472976641375
 30
0.0
 11
2.7865383409849458
 21
1.8030578656535363
 31
0.0
  0
LINE
  5
117
100
AcDbEntity
100
AcDbLine
  8
color#ffffffff
 62
256
370
-1
  6
BYLAYER
 10
2.7865383409849458
 20
1.8030578656535363
 30
0.0
 11
2.8066486977903633
 21
1.7891584299659513
 31
0.0
  0
LINE
  5
118
100
AcDbEntity
100
AcDbLine
  8
color#ffffffff
 62
256
370
-1
  6
BYLAYER
 10
2.8066486977903633
 20
1.7891584299659513
 30
0.0
 11
2.8265471357135175
 21
1.7749561554346005
 31
0.0
  0
LINE
  5
119
100
AcDbEntity
100
AcDbLine
  8
color#ffffffff
 62
256
370
-1
  6
BYLAYER
 10
2.8265471357135175
 20
1.7749561554346005
 30
0.0
 11
2.8462335740744402
 21
1.7604582068926986
 31
0.0
  0
LINE
  5
11A
100
AcDbEntity
100
AcDbLine
  8
color#ffffffff
 62
256
370
-1
  6
BYLAYER
 10
2.8462335740744402
 20
1.7604582068926986
 30
0.0
 11
2.8657079321931618
 21
1.7456717491734639
 31
0.0
  0
LINE
  5
11B
100
AcDbEntity
100
AcDbLine
  8
color#ffffffff
 62
256
370
-1
  6
BYLAYER
 10
2.8657079321931618
 20
1.7456717491734639
 30
0.0
 11
2.8849701293897114
 21
1.7306039471101147
 31
0.0
  0
LINE
  5
11C
100
AcDbEntity
100
AcDbLine
  8
color#ffffffff
 62
256
370
-1
  6
BYLAYER
 10
2.8849701293897114
 20
1.7306039471101147
 30
0.0
 11
2.904020084984122
 21
1.7152619655358663
 31
0.0
  0
LINE
  5
11D
100
AcDbEntity
100
AcDbLine
  8
color#ffffffff
 62
256
370
-1
  6
BYLAYER
 10
2.904020084984122
 20
1.7152619655358663
 30
0.0
 11
2.9228577182964237
 21
1.6996529692839362
 31
0.0
  0
LINE
  5
11E
100
AcDbEntity
100
AcDbLine
  8
color#ffffffff
 62
256
370
-1
  6
BYLAYER
 10
2.9228577182964237
 20
1.6996529692839362
 30
0.0
 11
2.9414829486466467
 21
1.6837841231875421
 31
0.0
  0
LINE
  5
11F
100
AcDbEntity
100
AcDbLine
  8
color#ffffffff
 62
256
370
-1
  6
BYLAYER
 10
2.9414829486466467
 20
1.6837841231875421
 30
0.0
 11
2.9598956953548221
 21
1.6676625920799018
 31
0.0
  0
LINE
  5
120
100
AcDbEntity
100
AcDbLine
  8
color#ffffffff
 62
256
370
-1
  6
BYLAYER
 10
2.9598956953548221
 20
1.6676625920799018
 30
0.0
 11
2.9780958777409809
 21
1.6512955407942305
 31
0.0
  0
LINE
  5
121
100
AcDbEntity
100
AcDbLine
  8
color#ffffffff
 62
256
370
-1
  6
BYLAYER
 10
2.9780958777409809
 20
1.6512955407942305
 30
0.0
 11
2.9960834151251539
 21
1.6346901341637468
 31
0.0
  0
LINE
  5
122
100
AcDbEntity
100
AcDbLine
  8
color#ffffffff
 62
256
370
-1
  6
BYLAYER
 10
2.9960834151251539
 20
1.6346901341637468
 30
0.0
 11
3.0314202321676644
 21
1.6007929142012098
 31
0.0
  0
LINE
  5
123
100
AcDbEntity
100
AcDbLine
  8
color#ffffffff
 62
256
370
-1
  6
BYLAYER
 10
3.0314202321676644
 20
1.6007929142012098
 30
0.0
 11
3.0659055010425993
 21
1.5660282508580277
 31
0.0
  0
LINE
  5
124
100
AcDbEntity
100
AcDbLine
  8
color#ffffffff
 62
256
370
-1
  6
BYLAYER
 10
3.0659055010425993
 20
1.5660282508580277
 30
0.0
 11
3.0995385763102057
 21
1.5304534627999367
 31
0.0
  0
LINE
  5
125
100
AcDbEntity
100
AcDbLine
  8
color#ffffffff
 62
256
370
-1
  6
BYLAYER
 10
3.0995385763102057
 20
1.5304534627999367
 30
0.0
 11
3.1323188125307286
 21
1.4941258686926746
 31
0.0
  0
LINE
  5
126
100
AcDbEntity
100
AcDbLine
  8
color#ffffffff
 62
256
370
-1
  6
BYLAYER
 10
3.1323188125307286
 20
1.4941258686926746
 30
0.0
 11
3.1642455642644154
 21
1.4571027872019786
 31
0.0
  0
LINE
  5
127
100
AcDbEntity
100
AcDbLine
  8
color#ffffffff
 62
256
370
-1
  6
BYLAYER
 10
3.1642455642644154
 20
1.4571027872019786
 30
0.0
 11
3.1903625469326879
 21
1.4190641005466655
 31
0.0
  0
LINE
  5
128
100
AcDbEntity
100
AcDbLine
  8
color#ffffffff
 62
256
370
-1
  6
BYLAYER
 10
3.1903625469326879
 20
1.4190641005466655
 30
0.0
 11
3.1913452944068319
 21
1.4108770136991788
 31
0.0
  0
LINE
  5
129
100
AcDbEntity
100
AcDbLine
  8
color#ffffffff
 62
256
370
-1
  6
BYLAYER
 10
3.1913452944068319
 20
1.4108770136991788
 30
0.0
 11
3.1903594982222616
 21
1.4042509172649913
 31
0.0
  0
LINE
  5
12A
100
AcDbEntity
100
AcDbLine
  8
color#ffffffff
 62
256
370
-1
  6
BYLAYER
 10
3.1903594982222616
 20
1.4042509172649913
 30
0.0
 11
3.1861238117187685
 21
1.3680584864454062
 31
0.0
  0
LINE
  5
12B
100
AcDbEntity
100
AcDbLine
  8
color#ffffffff
 62
256
370
-1
  6
BYLAYER
 10
3.1861238117187685
 20
1.3680584864454062
 30
0.0
 11
3.1815717193561657
 21
1.3318677859455559
 31
0.0
  0
LINE
  5
12C
100
AcDbEntity
100
AcDbLine
  8
color#ffffffff
 62
256
370
-1
  6
BYLAYER
 10
3.1815717193561657
 20
1.3318677859455559
 30
0.0
 11
3.1766924893176247
 21
1.2956888294984255
 31
0.0
  0
LINE
  5
12D
100
AcDbEntity
100
AcDbLine
  8
color#ffffffff
 62
256
370
-1
  6
BYLAYER
 10
3.1766924893176247
 20
1.2956888294984255
 30
0.0
 11
3.1714753897863117
 21
1.2595316308370015
 31
0.0
  0
LINE
  5
12E
100
AcDbEntity
100
AcDbLine
  8
color#ffffffff
 62
256
370
-1
  6
BYLAYER
 10
3.1714753897863117
 20
1.2595316308370015
 30
0.0
 11
3.1659096889453977
 21
1.223406203694267
 31
0.0
  0
LINE
  5
12F
100
AcDbEntity
100
AcDbLine
  8
color#ffffffff
 62
256
370
-1
  6
BYLAYER
 10
3.1659096889453977
 20
1.223406203694267
 30
0.0
 11
3.1599846549780515
 21
1.1873225618032111
 31
0.0
  0
LINE
  5
130
100
AcDbEntity
100
AcDbLine
  8
color#ffffffff
 62
256
370
-1
  6
BYLAYER
 10
3.1599846549780515
 20
1.1873225618032111
 30
0.0
 11
3.1536895560674392
 21
1.1512907188968162
 31
0.0
  0
LINE
  5
131
100
AcDbEntity
100
AcDbLine
  8
color#ffffffff
 62
256
370
-1
  6
BYLAYER
 10
3.1536895560674392
 20
1.1512907188968162
 30
0.0
 11
3.1470136603967358
 21
1.1153206887080687
 31
0.0
  0
LINE
  5
132
100
AcDbEntity
100
AcDbLine
  8
color#ffffffff
 62
256
370
-1
  6
BYLAYER
 10
3.1470136603967358
 20
1.1153206887080687
 30
0.0
 11
3.1399462361491048
 21
1.0794224849699532
 31
0.0
  0
LINE
  5
133
100
AcDbEntity
100
AcDbLine
  8
color#ffffffff
 62
256
370
-1
  6
BYLAYER
 10
3.1399462361491048
 20
1.0794224849699532
 30
0.0
 11
3.132476551507716
 21
1.0436061214154577
 31
0.0
  0
LINE
  5
134
100
AcDbEntity
100
AcDbLine
  8
color#ffffffff
 62
256
370
-1
  6
BYLAYER
 10
3.132476551507716
 20
1.0436061214154577
 30
0.0
 11
3.1245938746557398
 21
1.0078816117775655
 31
0.0
  0
LINE
  5
135
100
AcDbEntity
100
AcDbLine
  8
color#ffffffff
 62
256
370
-1
  6
BYLAYER
 10
3.1245938746557398
 20
1.0078816117775655
 30
0.0
 11
3.1162874737763451
 21
0.9722589697892619
 31
0.0
  0
LINE
  5
136
100
AcDbEntity
100
AcDbLine
  8
color#ffffffff
 62
256
370
-1
  6
BYLAYER
 10
3.1162874737763451
 20
0.9722589697892619
 30
0.0
 11
3.1075466170526997
 21
0.9367482091835342
 31
0.0
  0
LINE
  5
137
100
AcDbEntity
100
AcDbLine
  8
color#ffffffff
 62
256
370
-1
  6
BYLAYER
 10
3.1075466170526997
 20
0.9367482091835342
 30
0.0
 11
3.0983605726679735
 21
0.9013593436933659
 31
0.0
  0
LINE
  5
138
100
AcDbEntity
100
AcDbLine
  8
color#ffffffff
 62
256
370
-1
  6
BYLAYER
 10
3.0983605726679735
 20
0.9013593436933659
 30
0.0
 11
3.0887186088053347
 21
0.8661023870517437
 31
0.0
  0
LINE
  5
139
100
AcDbEntity
100
AcDbLine
  8
color#ffffffff
 62
256
370
-1
  6
BYLAYER
 10
3.0887186088053347
 20
0.8661023870517437
 30
0.0
 11
3.0786099936479534
 21
0.8309873529916527
 31
0.0
  0
LINE
  5
13A
100
AcDbEntity
100
AcDbLine
  8
color#ffffffff
 62
256
370
-1
  6
BYLAYER
 10
3.0786099936479534
 20
0.8309873529916527
 30
0.0
 11
3.0680239953789963
 21
0.7960242552460785
 31
0.0
  0
LINE
  5
13B
100
AcDbEntity
100
AcDbLine
  8
color#ffffffff
 62
256
370
-1
  6
BYLAYER
 10
3.0680239953789963
 20
0.7960242552460785
 30
0.0
 11
3.0569498821816352
 21
0.7612231075480062
 31
0.0
  0
LINE
  5
13C
100
AcDbEntity
100
AcDbLine
  8
color#ffffffff
 62
256
370
-1
  6
BYLAYER
 10
3.0569498821816352
 20
0.7612231075480062
 30
0.0
 11
3.0453769222390377
 21
0.7265939236304209
 31
0.0
  0
LINE
  5
13D
100
AcDbEntity
100
AcDbLine
  8
color#ffffffff
 62
256
370
-1
  6
BYLAYER
 10
3.0453769222390377
 20
0.7265939236304209
 30
0.0
 11
3.033294383734372
 21
0.6921467172263091
 31
0.0
  0
LINE
  5
13E
100
AcDbEntity
100
AcDbLine
  8
color#ffffffff
 62
256
370
-1
  6
BYLAYER
 10
3.033294383734372
 20
0.6921467172263091
 30
0.0
 11
3.0206915348508083
 21
0.6578915020686557
 31
0.0
  0
LINE
  5
13F
100
AcDbEntity
100
AcDbLine
  8
color#ffffffff
 62
256
370
-1
  6
BYLAYER
 10
3.0206915348508083
 20
0.6578915020686557
 30
0.0
 11
3.007557643771515
 21
0.6238382918904458
 31
0.0
  0
LINE
  5
140
100
AcDbEntity
100
AcDbLine
  8
color#ffffffff
 62
256
370
-1
  6
BYLAYER
 10
3.007557643771515
 20
0.6238382918904458
 30
0.0
 11
2.9938819786796609
 21
0.5899971004246657
 31
0.0
  0
LINE
  5
141
100
AcDbEntity
100
AcDbLine
  8
color#ffffffff
 62
256
370
-1
  6
BYLAYER
 10
2.9938819786796609
 20
0.5899971004246657
 30
0.0
 11
2.9796538077584152
 21
0.5563779414043005
 31
0.0
  0
LINE
  5
142
100
AcDbEntity
100
AcDbLine
  8
color#ffffffff
 62
256
370
-1
  6
BYLAYER
 10
2.9796538077584152
 20
0.5563779414043005
 30
0.0
 11
2.9648623991909466
 21
0.522990828562336
 31
0.0
  0
LINE
  5
143
100
AcDbEntity
100
AcDbLine
  8
color#ffffffff
 62
256
370
-1
  6
BYLAYER
 10
2.9648623991909466
 20
0.522990828562336
 30
0.0
 11
2.9494970211604241
 21
0.4898457756317565
 31
0.0
  0
LINE
  5
144
100
AcDbEntity
100
AcDbLine
  8
color#ffffffff
 62
256
370
-1
  6
BYLAYER
 10
2.9494970211604241
 20
0.4898457756317565
 30
0.0
 11
2.9335469418500173
 21
0.4569527963455486
 31
0.0
  0
LINE
  5
145
100
AcDbEntity
100
AcDbLine
  8
color#ffffffff
 62
256
370
-1
  6
BYLAYER
 10
2.9335469418500173
 20
0.4569527963455486
 30
0.0
 11
2.9170014294428941
 21
0.4243219044366973
 31
0.0
  0
LINE
  5
146
100
AcDbEntity
100
AcDbLine
  8
color#ffffffff
 62
256
370
-1
  6
BYLAYER
 10
2.9170014294428941
 20
0.4243219044366973
 30
0.0
 11
2.8998497521222242
 21
0.3919631136381885
 31
0.0
  0
LINE
  5
147
100
AcDbEntity
100
AcDbLine
  8
color#ffffffff
 62
256
370
-1
  6
BYLAYER
 10
2.8998497521222242
 20
0.3919631136381885
 30
0.0
 11
2.8487838979118205
 21
0.3065518732047
 31
0.0
  0
LINE
  5
148
100
AcDbEntity
100
AcDbLine
  8
color#ffffffff
 62
256
370
-1
  6
BYLAYER
 10
2.8487838979118205
 20
0.3065518732047
 30
0.0
 11
2.8365667790734008
 21
0.2910372022222967
 31
0.0
  0
LINE
  5
149
100
AcDbEntity
100
AcDbLine
  8
color#ffffffff
 62
256
370
-1
  6
BYLAYER
 10
2.8365667790734008
 20
0.2910372022222967
 30
0.0
 11
2.8277377782198534
 21
0.281388207854902
 31
0.0
  0
LINE
  5
14A
100
AcDbEntity
100
AcDbLine
  8
color#ffffffff
 62
256
370
-1
  6
BYLAYER
 10
2.8277377782198534
 20
0.281388207854902
 30
0.0
 11
2.8182736904227621
 21
0.2724075809022735
 31
0.0
  0
LINE
  5
14B
100
AcDbEntity
100
AcDbLine
  8
color#ffffffff
 62
256
370
-1
  6
BYLAYER
 10
2.8182736904227621
 20
0.2724075809022735
 30
0.0
 11
2.8080993588468144
 21
0.2641922399798966
 31
0.0
  0
LINE
  5
14C
100
AcDbEntity
100
AcDbLine
  8
color#ffffffff
 62
256
370
-1
  6
BYLAYER
 10
2.8080993588468144
 20
0.2641922399798966
 30
0.0
 11
2.7971396266567004
 21
0.2568391037032577
 31
0.0
  0
LINE
  5
14D
100
AcDbEntity
100
AcDbLine
  8
color#ffffffff
 62
256
370
-1
  6
BYLAYER
 10
2.7971396266567004
 20
0.2568391037032577
 30
0.0
 11
2.7913417488202956
 21
0.2535161493744289
 31
0.0
  0
LINE
  5
14E
100
AcDbEntity
100
AcDbLine
  8
color#ffffffff
 62
256
370
-1
  6
BYLAYER
 10
2.7913417488202956
 20
0.2535161493744289
 30
0.0
 11
2.7853193370171079
 21
0.2504450906878415
 31
0.0
  0
LINE
  5
14F
100
AcDbEntity
100
AcDbLine
  8
color#ffffffff
 62
256
370
-1
  6
BYLAYER
 10
2.7853193370171079
 20
0.2504450906878415
 30
0.0
 11
2.7790629966427223
 21
0.2476380424704318
 31
0.0
  0
LINE
  5
150
100
AcDbEntity
100
AcDbLine
  8
color#ffffffff
 62
256
370
-1
  6
BYLAYER
 10
2.7790629966427223
 20
0.2476380424704318
 30
0.0
 11
2.7712999493557948
 21
0.2436448823862432
 31
0.0
  0
LINE
  5
151
100
AcDbEntity
100
AcDbLine
  8
color#ffffffff
 62
256
370
-1
  6
BYLAYER
 10
2.7712999493557948
 20
0.2436448823862432
 30
0.0
 11
2.7634163013856674
 21
0.2400330462816432
 31
0.0
  0
LINE
  5
152
100
AcDbEntity
100
AcDbLine
  8
color#ffffffff
 62
256
370
-1
  6
BYLAYER
 10
2.7634163013856674
 20
0.2400330462816432
 30
0.0
 11
2.7554223668121725
 21
0.2367968356025934
 31
0.0
  0
LINE
  5
153
100
AcDbEntity
100
AcDbLine
  8
color#ffffffff
 62
256
370
-1
  6
BYLAYER
 10
2.7554223668121725
 20
0.2367968356025934
 30
0.0
 11
2.7473284597151366
 21
0.2339305517950609
 31
0.0
  0
LINE
  5
154
100
AcDbEntity
100
AcDbLine
  8
color#ffffffff
 62
256
370
-1
  6
BYLAYER
 10
2.7473284597151366
 20
0.2339305517950609
 30
0.0
 11
2.7391448941743937
 21
0.2314284963050083
 31
0.0
  0
LINE
  5
155
100
AcDbEntity
100
AcDbLine
  8
color#ffffffff
 62
256
370
-1
  6
BYLAYER
 10
2.7391448941743937
 20
0.2314284963050083
 30
0.0
 11
2.7308819842697711
 21
0.2292849705784011
 31
0.0
  0
LINE
  5
156
100
AcDbEntity
100
AcDbLine
  8
color#ffffffff
 62
256
370
-1
  6
BYLAYER
 10
2.7308819842697711
 20
0.2292849705784011
 30
0.0
 11
2.7225500440810984
 21
0.2274942760612058
 31
0.0
  0
LINE
  5
157
100
AcDbEntity
100
AcDbLine
  8
color#ffffffff
 62
256
370
-1
  6
BYLAYER
 10
2.7225500440810984
 20
0.2274942760612058
 30
0.0
 11
2.7141593876882077
 21
0.2260507141993833
 31
0.0
  0
LINE
  5
158
100
AcDbEntity
100
AcDbLine
  8
color#ffffffff
 62
256
370
-1
  6
BYLAYER
 10
2.7141593876882077
 20
0.2260507141993833
 30
0.0
 11
2.7057203291709273
 21
0.2249485864388999
 31
0.0
  0
LINE
  5
159
100
AcDbEntity
100
AcDbLine
  8
color#ffffffff
 62
256
370
-1
  6
BYLAYER
 10
2.7057203291709273
 20
0.2249485864388999
 30
0.0
 11
2.6972431826090864
 21
0.2241821942257229
 31
0.0
  0
LINE
  5
15A
100
AcDbEntity
100
AcDbLine
  8
color#ffffffff
 62
256
370
-1
  6
BYLAYER
 10
2.6972431826090864
 20
0.2241821942257229
 30
0.0
 11
2.688738262082516
 21
0.2237458390058128
 31
0.0
  0
LINE
  5
15B
100
AcDbEntity
100
AcDbLine
  8
color#ffffffff
 62
256
370
-1
  6
BYLAYER
 10
2.688738262082516
 20
0.2237458390058128
 30
0.0
 11
2.6802158816710469
 21
0.2236338222251367
 31
0.0
  0
LINE
  5
15C
100
AcDbEntity
100
AcDbLine
  8
color#ffffffff
 62
256
370
-1
  6
BYLAYER
 10
2.6802158816710469
 20
0.2236338222251367
 30
0.0
 11
2.6716863554545061
 21
0.2238404453296587
 31
0.0
  0
LINE
  5
15D
100
AcDbEntity
100
AcDbLine
  8
color#ffffffff
 62
256
370
-1
  6
BYLAYER
 10
2.6716863554545061
 20
0.2238404453296587
 30
0.0
 11
2.6546471219255361
 21
0.2251868169781549
 31
0.0
  0
LINE
  5
15E
100
AcDbEntity
100
AcDbLine
  8
color#ffffffff
 62
256
370
-1
  6
BYLAYER
 10
2.6546471219255361
 20
0.2251868169781549
 30
0.0
 11
2.6377030741342433
 21
0.2277393655190198
 31
0.0
  0
LINE
  5
15F
100
AcDbEntity
100
AcDbLine
  8
color#ffffffff
 62
256
370
-1
  6
BYLAYER
 10
2.6377030741342433
 20
0.2277393655190198
 30
0.0
 11
2.6209367247192685
 21
0.231452502519969
 31
0.0
  0
LINE
  5
160
100
AcDbEntity
100
AcDbLine
  8
color#ffffffff
 62
256
370
-1
  6
BYLAYER
 10
2.6209367247192685
 20
0.231452502519969
 30
0.0
 11
2.6044305863192516
 21
0.2362806395487201
 31
0.0
  0
LINE
  5
161
100
AcDbEntity
100
AcDbLine
  8
color#ffffffff
 62
256
370
-1
  6
BYLAYER
 10
2.6044305863192516
 20
0.2362806395487201
 30
0.0
 11
2.5882671715728294
 21
0.2421781881729912
 31
0.0
  0
LINE
  5
162
100
AcDbEntity
100
AcDbLine
  8
color#ffffffff
 62
256
370
-1
  6
BYLAYER
 10
2.5882671715728294
 20
0.2421781881729912
 30
0.0
 11
2.5725289931186421
 21
0.2490995599604986
 31
0.0
  0
LINE
  5
163
100
AcDbEntity
100
AcDbLine
  8
color#ffffffff
 62
256
370
-1
  6
BYLAYER
 10
2.5725289931186421
 20
0.2490995599604986
 30
0.0
 11
2.5572985635953289
 21
0.256999166478959
 31
0.0
  0
LINE
  5
164
100
AcDbEntity
100
AcDbLine
  8
color#ffffffff
 62
256
370
-1
  6
BYLAYER
 10
2.5572985635953289
 20
0.256999166478959
 30
0.0
 11
2.5426583956415278
 21
0.2658314192960912
 31
0.0
  0
LINE
  5
165
100
AcDbEntity
100
AcDbLine
  8
color#ffffffff
 62
256
370
-1
  6
BYLAYER
 10
2.5426583956415278
 20
0.2658314192960912
 30
0.0
 11
2.5305333629664326
 21
0.2737115928220241
 31
0.0
  0
LINE
  5
166
100
AcDbEntity
100
AcDbLine
  8
color#ffffffff
 62
256
370
-1
  6
BYLAYER
 10
2.5305333629664326
 20
0.2737115928220241
 30
0.0
 11
2.5186917046886985
 21
0.2819094726279078
 31
0.0
  0
LINE
  5
167
100
AcDbEntity
100
AcDbLine
  8
color#ffffffff
 62
256
370
-1
  6
BYLAYER
 10
2.5186917046886985
 20
0.2819094726279078
 30
0.0
 11
2.5071246455907077
 21
0.2904126139046268
 31
0.0
  0
LINE
  5
168
100
AcDbEntity
100
AcDbLine
  8
color#ffffffff
 62
256
370
-1
  6
BYLAYER
 10
2.5071246455907077
 20
0.2904126139046268
 30
0.0
 11
2.49582341045484
 21
0.299208571843072
 31
0.0
  0
LINE
  5
169
100
AcDbEntity
100
AcDbLine
  8
color#ffffffff
 62
256
370
-1
  6
BYLAYER
 10
2.49582341045484
 20
0.299208571843072
 30
0.0
 11
2.484779224063479
 21
0.3082849016341282
 31
0.0
  0
LINE
  5
16A
100
AcDbEntity
100
AcDbLine
  8
color#ffffffff
 62
256
370
-1
  6
BYLAYER
 10
2.484779224063479
 20
0.3082849016341282
 30
0.0
 11
2.4739833111990031
 21
0.3176291584686857
 31
0.0
  0
LINE
  5
16B
100
AcDbEntity
100
AcDbLine
  8
color#ffffffff
 62
256
370
-1
  6
BYLAYER
 10
2.4739833111990031
 20
0.3176291584686857
 30
0.0
 11
2.4634268966437931
 21
0.327228897537633
 31
0.0
  0
LINE
  5
16C
100
AcDbEntity
100
AcDbLine
  8
color#ffffffff
 62
256
370
-1
  6
BYLAYER
 10
2.4634268966437931
 20
0.327228897537633
 30
0.0
 11
2.4531012051802326
 21
0.337071674031855
 31
0.0
  0
LINE
  5
16D
100
AcDbEntity
100
AcDbLine
  8
color#ffffffff
 62
256
370
-1
  6
BYLAYER
 10
2.4531012051802326
 20
0.337071674031855
 30
0.0
 11
2.4331068906575775
 21
0.3574365600596817
 31
0.0
  0
LINE
  5
16E
100
AcDbEntity
100
AcDbLine
  8
color#ffffffff
 62
256
370
-1
  6
BYLAYER
 10
2.4331068906575775
 20
0.3574365600596817
 30
0.0
 11
2.4139301658900876
 21
0.3786242580792683
 31
0.0
  0
LINE
  5
16F
100
AcDbEntity
100
AcDbLine
  8
color#ffffffff
 62
256
370
-1
  6
BYLAYER
 10
2.4139301658900876
 20
0.3786242580792683
 30
0.0
 11
2.3955008291368078
 21
0.4005352096177212
 31
0.0
  0
LINE
  5
170
100
AcDbEntity
100
AcDbLine
  8
color#ffffffff
 62
256
370
-1
  6
BYLAYER
 10
2.3955008291368078
 20
0.4005352096177212
 30
0.0
 11
2.3691046102252034
 21
0.4345399531138096
 31
0.0
  0
LINE
  5
171
100
AcDbEntity
100
AcDbLine
  8
color#ffffffff
 62
256
370
-1
  6
BYLAYER
 10
2.3691046102252034
 20
0.4345399531138096
 30
0.0
 11
2.3278533274467677
 21
0.4934203815022447
 31
0.0
  0
LINE
  5
172
100
AcDbEntity
100
AcDbLine
  8
color#ffffffff
 62
256
370
-1
  6
BYLAYER
 10
2.3278533274467677
 20
0.4934203815022447
 30
0.0
 11
2.2740178082128684
 21
0.5778718687119242
 31
0.0
  0
LINE
  5
173
100
AcDbEntity
100
AcDbLine
  8
color#ffffffff
 62
256
370
-1
  6
BYLAYER
 10
2.2740178082128684
 20
0.5778718687119242
 30
0.0
 11
2.2517736267279522
 21
0.6183111860766112
 31
0.0
  0
LINE
  5
174
100
AcDbEntity
100
AcDbLine
  8
color#ffffffff
 62
256
370
-1
  6
BYLAYER
 10
2.2517736267279522
 20
0.6183111860766112
 30
0.0
 11
2.2304808976573236
 21
0.6592214157373526
 31
0.0
  0
LINE
  5
175
100
AcDbEntity
100
AcDbLine
  8
color#ffffffff
 62
256
370
-1
  6
BYLAYER
 10
2.2304808976573236
 20
0.6592214157373526
 30
0.0
 11
2.2100842174260635
 21
0.7005677917791063
 31
0.0
  0
LINE
  5
176
100
AcDbEntity
100
AcDbLine
  8
color#ffffffff
 62
256
370
-1
  6
BYLAYER
 10
2.2100842174260635
 20
0.7005677917791063
 30
0.0
 11
2.1905281824592531
 21
0.7423155482868337
 31
0.0
  0
LINE
  5
177
100
AcDbEntity
100
AcDbLine
  8
color#ffffffff
 62
256
370
-1
  6
BYLAYER
 10
2.1905281824592531
 20
0.7423155482868337
 30
0.0
 11
2.1626491445597469
 21
0.8056137209829757
 31
0.0
  0
LINE
  5
178
100
AcDbEntity
100
AcDbLine
  8
color#ffffffff
 62
256
370
-1
  6
BYLAYER
 10
2.1626491445597469
 20
0.8056137209829757
 30
0.0
 11
2.1279022524200739
 21
0.8910916343350294
 31
0.0
  0
LINE
  5
179
100
AcDbEntity
100
AcDbLine
  8
color#ffffffff
 62
256
370
-1
  6
BYLAYER
 10
2.1279022524200739
 20
0.8910916343350294
 30
0.0
 11
2.0800783741031448
 21
1.0210585934377039
 31
0.0
  0
LINE
  5
17A
100
AcDbEntity
100
AcDbLine
  8
color#ffffffff
 62
256
370
-1
  6
BYLAYER
 10
2.0800783741031448
 20
1.0210585934377039
 30
0.0
 11
2.0220063113334779
 21
1.1961545367488224
 31
0.0
  0
LINE
  5
17B
100
AcDbEntity
100
AcDbLine
  8
color#ffffffff
 62
256
370
-1
  6
BYLAYER
 10
2.0220063113334779
 20
1.1961545367488224
 30
0.0
 11
1.9586614403751357
 21
1.4049008667185758
 31
0.0
  0
LINE
  5
17C
100
AcDbEntity
100
AcDbLine
  8
color#ffffffff
 62
256
370
-1
  6
BYLAYER
 10
1.9586614403751357
 20
1.4049008667185758
 30
0.0
 11
1.9425524103416352
 21
1.4487581542255339
 31
0.0
  0
LINE
  5
17D
100
AcDbEntity
100
AcDbLine
  8
color#ffffffff
 62
256
370
-1
  6
BYLAYER
 10
1.9425524103416352
 20
1.4487581542255339
 30
0.0
 11
1.9248164533037608
 21
1.4918960907794032
 31
0.0
  0
LINE
  5
17E
100
AcDbEntity
100
AcDbLine
  8
color#ffffffff
 62
256
370
-1
  6
BYLAYER
 10
1.9248164533037608
 20
1.4918960907794032
 30
0.0
 11
1.9119259279310969
 21
1.5201637743876293
 31
0.0
  0
LINE
  5
17F
100
AcDbEntity
100
AcDbLine
  8
color#ffffffff
 62
256
370
-1
  6
BYLAYER
 10
1.9119259279310969
 20
1.5201637743876293
 30
0.0
 11
1.8980682653723473
 21
1.547974794447194
 31
0.0
  0
LINE
  5
180
100
AcDbEntity
100
AcDbLine
  8
color#ffffffff
 62
256
370
-1
  6
BYLAYER
 10
1.8980682653723473
 20
1.547974794447194
 30
0.0
 11
1.8831458422205212
 21
1.5752743701525158
 31
0.0
  0
LINE
  5
181
100
AcDbEntity
100
AcDbLine
  8
color#ffffffff
 62
256
370
-1
  6
BYLAYER
 10
1.8831458422205212
 20
1.5752743701525158
 30
0.0
 11
1.8752548381075202
 21
1.5887152473705903
 31
0.0
  0
LINE
  5
182
100
AcDbEntity
100
AcDbLine
  8
color#ffffffff
 62
256
370
-1
  6
BYLAYER
 10
1.8752548381075202
 20
1.5887152473705903
 30
0.0
 11
1.8670610350686287
 21
1.602007720698011
 31
0.0
  0
LINE
  5
183
100
AcDbEntity
100
AcDbLine
  8
color#ffffffff
 62
256
370
-1
  6
BYLAYER
 10
1.8670610350686287
 20
1.602007720698011
 30
0.0
 11
1.8585522301779731
 21
1.6151449425340796
 31
0.0
  0
LINE
  5
184
100
AcDbEntity
100
AcDbLine
  8
color#ffffffff
 62
256
370
-1
  6
BYLAYER
 10
1.8585522301779731
 20
1.6151449425340796
 30
0.0
 11
1.857200494792377
 21
1.2642176066975535
 31
0.0
  0
LINE
  5
185
100
AcDbEntity
100
AcDbLine
  8
color#ffffffff
 62
256
370
-1
  6
BYLAYER
 10
1.857200494792377
 20
1.2642176066975535
 30
0.0
 11
1.8561061910448562
 21
1.2463260098378086
 31
0.0
  0
LINE
  5
186
100
AcDbEntity
100
AcDbLine
  8
color#ffffffff
 62
256
370
-1
  6
BYLAYER
 10
1.8561061910448562
 20
1.2463260098378086
 30
0.0
 11
1.8513770460661638
 21
1.2289860658192835
 31
0.0
  0
LINE
  5
187
100
AcDbEntity
100
AcDbLine
  8
color#ffffffff
 62
256
370
-1
  6
BYLAYER
 10
1.8513770460661638
 20
1.2289860658192835
 30
0.0
 11
1.8432123597507548
 21
1.2131050418256517
 31
0.0
  0
LINE
  5
188
100
AcDbEntity
100
AcDbLine
  8
color#ffffffff
 62
256
370
-1
  6
BYLAYER
 10
1.8432123597507548
 20
1.2131050418256517
 30
0.0
 11
1.8343409504650647
 21
1.2020603285960989
 31
0.0
  0
LINE
  5
189
100
AcDbEntity
100
AcDbLine
  8
color#ffffffff
 62
256
370
-1
  6
BYLAYER
 10
1.8343409504650647
 20
1.2020603285960989
 30
0.0
 11
1.8263895564625396
 21
1.1950500305941043
 31
0.0
  0
LINE
  5
18A
100
AcDbEntity
100
AcDbLine
  8
color#ffffffff
 62
256
370
-1
  6
BYLAYER
 10
1.8263895564625396
 20
1.1950500305941043
 30
0.0
 11
1.8173735626876051
 21
1.1893488226477658
 31
0.0
  0
LINE
  5
18B
100
AcDbEntity
100
AcDbLine
  8
color#ffffffff
 62
256
370
-1
  6
BYLAYER
 10
1.8173735626876051
 20
1.1893488226477658
 30
0.0
 11
1.8073360179174633
 21
1.1851526744687573
 31
0.0
  0
LINE
  5
18C
100
AcDbEntity
100
AcDbLine
  8
color#ffffffff
 62
256
370
-1
  6
BYLAYER
 10
1.8073360179174633
 20
1.1851526744687573
 30
0.0
 11
1.8037705988578745
 21
1.1841222874433521
 31
0.0
  0
LINE
  5
18D
100
AcDbEntity
100
AcDbLine
  8
color#ffffffff
 62
256
370
-1
  6
BYLAYER
 10
1.8037705988578745
 20
1.1841222874433521
 30
0.0
 11
1.7992244554298038
 21
1.1826929253592533
 31
0.0
  0
LINE
  5
18E
100
AcDbEntity
100
AcDbLine
  8
color#ffffffff
 62
256
370
-1
  6
BYLAYER
 10
1.7992244554298038
 20
1.1826929253592533
 30
0.0
 11
1.7946374342165754
 21
1.1816089863625363
 31
0.0
  0
LINE
  5
18F
100
AcDbEntity
100
AcDbLine
  8
color#ffffffff
 62
256
370
-1
  6
BYLAYER
 10
1.7946374342165754
 20
1.1816089863625363
 30
0.0
 11
1.790023666742901
 21
1.1808612827320704
 31
0.0
  0
LINE
  5
190
100
AcDbEntity
100
AcDbLine
  8
color#ffffffff
 62
256
370
-1
  6
BYLAYER
 10
1.790023666742901
 20
1.1808612827320704
 30
0.0
 11
1.7853972845334889
 21
1.180440626746732
 31
0.0
  0
LINE
  5
191
100
AcDbEntity
100
AcDbLine
  8
color#ffffffff
 62
256
370
-1
  6
BYLAYER
 10
1.7853972845334889
 20
1.180440626746732
 30
0.0
 11
1.7761632020062952
 21
1.1805437068269202
 31
0.0
  0
LINE
  5
192
100
AcDbEntity
100
AcDbLine
  8
color#ffffffff
 62
256
370
-1
  6
BYLAYER
 10
1.7761632020062952
 20
1.1805437068269202
 30
0.0
 11
1.7670482388326736
 21
1.1818447248340864
 31
0.0
  0
LINE
  5
193
100
AcDbEntity
100
AcDbLine
  8
color#ffffffff
 62
256
370
-1
  6
BYLAYER
 10
1.7670482388326736
 20
1.1818447248340864
 30
0.0
 11
1.7581654472103045
 21
1.1842701789992109
 31
0.0
  0
LINE
  5
194
100
AcDbEntity
100
AcDbLine
  8
color#ffffffff
 62
256
370
-1
  6
BYLAYER
 10
1.7581654472103045
 20
1.1842701789992109
 30
0.0
 11
1.7496278793368687
 21
1.187746567553277
 31
0.0
  0
LINE
  5
195
100
AcDbEntity
100
AcDbLine
  8
color#ffffffff
 62
256
370
-1
  6
BYLAYER
 10
1.7496278793368687
 20
1.187746567553277
 30
0.0
 11
1.7415485874100445
 21
1.1922003887272696
 31
0.0
  0
LINE
  5
196
100
AcDbEntity
100
AcDbLine
  8
color#ffffffff
 62
256
370
-1
  6
BYLAYER
 10
1.7415485874100445
 20
1.1922003887272696
 30
0.0
 11
1.7340406236275132
 21
1.1975581407521689
 31
0.0
  0
LINE
  5
197
100
AcDbEntity
100
AcDbLine
  8
color#ffffffff
 62
256
370
-1
  6
BYLAYER
 10
1.7340406236275132
 20
1.1975581407521689
 30
0.0
 11
1.7272170401869547
 21
1.2037463218589584
 31
0.0
  0
LINE
  5
198
100
AcDbEntity
100
AcDbLine
  8
color#ffffffff
 62
256
370
-1
  6
BYLAYER
 10
1.7272170401869547
 20
1.2037463218589584
 30
0.0
 11
1.7211908892860488
 21
1.2106914302786211
 31
0.0
  0
LINE
  5
199
100
AcDbEntity
100
AcDbLine
  8
color#ffffffff
 62
256
370
-1
  6
BYLAYER
 10
1.7211908892860488
 20
1.2106914302786211
 30
0.0
 11
1.7160752231224758
 21
1.218319964242139
 31
0.0
  0
LINE
  5
19A
100
AcDbEntity
100
AcDbLine
  8
color#ffffffff
 62
256
370
-1
  6
BYLAYER
 10
1.7160752231224758
 20
1.218319964242139
 30
0.0
 11
1.7119830938939149
 21
1.2265584219804966
 31
0.0
  0
LINE
  5
19B
100
AcDbEntity
100
AcDbLine
  8
color#ffffffff
 62
256
370
-1
  6
BYLAYER
 10
1.7119830938939149
 20
1.2265584219804966
 30
0.0
 11
1.7103561844420396
 21
1.2308834029624218
 31
0.0
  0
LINE
  5
19C
100
AcDbEntity
100
AcDbLine
  8
color#ffffffff
 62
256
370
-1
  6
BYLAYER
 10
1.7103561844420396
 20
1.2308834029624218
 30
0.0
 11
1.7090275537980473
 21
1.235333301724675
 31
0.0
  0
LINE
  5
19D
100
AcDbEntity
100
AcDbLine
  8
color#ffffffff
 62
256
370
-1
  6
BYLAYER
 10
1.7090275537980473
 20
1.235333301724675
 30
0.0
 11
1.708011333486648
 21
1.2398989305461297
 31
0.0
  0
LINE
  5
19E
100
AcDbEntity
100
AcDbLine
  8
color#ffffffff
 62
256
370
-1
  6
BYLAYER
 10
1.708011333486648
 20
1.2398989305461297
 30
0.0
 11
1.7073216550325523
 21
1.244571101705658
 31
0.0
  0
LINE
  5
19F
100
AcDbEntity
100
AcDbLine
  8
color#ffffffff
 62
256
370
-1
  6
BYLAYER
 10
1.7073216550325523
 20
1.244571101705658
 30
0.0
 11
1.7069726499604696
 21
1.249340627482133
 31
0.0
  0
LINE
  5
1A0
100
AcDbEntity
100
AcDbLine
  8
color#ffffffff
 62
256
370
-1
  6
BYLAYER
 10
1.7069726499604696
 20
1.249340627482133
 30
0.0
 11
1.7036818323470677
 21
1.5982680622251877
 31
0.0
  0
LINE
  5
1A1
100
AcDbEntity
100
AcDbLine
  8
color#ffffffff
 62
256
370
-1
  6
BYLAYER
 10
1.7036818323470677
 20
1.5982680622251877
 30
0.0
 11
1.6551435233094667
 21
1.5252649664710252
 31
0.0
  0
LINE
  5
1A2
100
AcDbEntity
100
AcDbLine
  8
color#ffffffff
 62
256
370
-1
  6
BYLAYER
 10
1.6551435233094667
 20
1.5252649664710252
 30
0.0
 11
1.622694893990025
 21
1.4651947583042757
 31
0.0
  0
LINE
  5
1A3
100
AcDbEntity
100
AcDbLine
  8
color#ffffffff
 62
256
370
-1
  6
BYLAYER
 10
1.622694893990025
 20
1.4651947583042757
 30
0.0
 11
1.5993242275694699
 21
1.4116064784102127
 31
0.0
  0
LINE
  5
1A4
100
AcDbEntity
100
AcDbLine
  8
color#ffffffff
 62
256
370
-1
  6
BYLAYER
 10
1.5993242275694699
 20
1.4116064784102127
 30
0.0
 11
1.5834132879235641
 21
1.3655797573954414
 31
0.0
  0
LINE
  5
1A5
100
AcDbEntity
100
AcDbLine
  8
color#ffffffff
 62
256
370
-1
  6
BYLAYER
 10
1.5834132879235641
 20
1.3655797573954414
 30
0.0
 11
1.5780357095547073
 21
1.3468407228575501
 31
0.0
  0
LINE
  5
1A6
100
AcDbEntity
100
AcDbLine
  8
color#ffffffff
 62
256
370
-1
  6
BYLAYER
 10
1.5780357095547073
 20
1.3468407228575501
 30
0.0
 11
1.5450490019821403
 21
1.228371172726485
 31
0.0
  0
LINE
  5
1A7
100
AcDbEntity
100
AcDbLine
  8
color#ffffffff
 62
256
370
-1
  6
BYLAYER
 10
1.5450490019821403
 20
1.228371172726485
 30
0.0
 11
1.5084159263614842
 21
1.1109642923053953
 31
0.0
  0
LINE
  5
1A8
100
AcDbEntity
100
AcDbLine
  8
color#ffffffff
 62
256
370
-1
  6
BYLAYER
 10
1.5084159263614842
 20
1.1109642923053953
 30
0.0
 11
1.4681620905054471
 21
0.9947453105681525
 31
0.0
  0
LINE
  5
1A9
100
AcDbEntity
100
AcDbLine
  8
color#ffffffff
 62
256
370
-1
  6
BYLAYER
 10
1.4681620905054471
 20
0.9947453105681525
 30
0.0
 11
1.4243131022267355
 21
0.8798394564886307
 31
0.0
  0
LINE
  5
1AA
100
AcDbEntity
100
AcDbLine
  8
color#ffffffff
 62
256
370
-1
  6
BYLAYER
 10
1.4243131022267355
 20
0.8798394564886307
 30
0.0
 11
1.3768945693380574
 21
0.7663719590406998
 31
0.0
  0
LINE
  5
1AB
100
AcDbEntity
100
AcDbLine
  8
color#ffffffff
 62
256
370
-1
  6
BYLAYER
 10
1.3768945693380574
 20
0.7663719590406998
 30
0.0
 11
1.336406879358079
 21
0.6767177317275438
 31
0.0
  0
LINE
  5
1AC
100
AcDbEntity
100
AcDbLine
  8
color#ffffffff
 62
256
370
-1
  6
BYLAYER
 10
1.336406879358079
 20
0.6767177317275438
 30
0.0
 11
1.264084431529418
 21
0.5467600909611754
 31
0.0
  0
LINE
  5
1AD
100
AcDbEntity
100
AcDbLine
  8
color#ffffffff
 62
256
370
-1
  6
BYLAYER
 10
1.264084431529418
 20
0.5467600909611754
 30
0.0
 11
1.2198312049321407
 21
0.4786972576524463
 31
0.0
  0
LINE
  5
1AE
100
AcDbEntity
100
AcDbLine
  8
color#ffffffff
 62
256
370
-1
  6
BYLAYER
 10
1.2198312049321407
 20
0.4786972576524463
 30
0.0
 11
1.1798999271098698
 21
0.4241656145366335
 31
0.0
  0
LINE
  5
1AF
100
AcDbEntity
100
AcDbLine
  8
color#ffffffff
 62
256
370
-1
  6
BYLAYER
 10
1.1798999271098698
 20
0.4241656145366335
 30
0.0
 11
1.1457496249980064
 21
0.382268862641469
 31
0.0
  0
LINE
  5
1B0
100
AcDbEntity
100
AcDbLine
  8
color#ffffffff
 62
256
370
-1
  6
BYLAYER
 10
1.1457496249980064
 20
0.382268862641469
 30
0.0
 11
1.1187540872046733
 21
0.3519931428660641
 31
0.0
  0
LINE
  5
1B1
100
AcDbEntity
100
AcDbLine
  8
color#ffffffff
 62
256
370
-1
  6
BYLAYER
 10
1.1187540872046733
 20
0.3519931428660641
 30
0.0
 11
1.0604217456899567
 21
0.2981761635690757
 31
0.0
  0
LINE
  5
1B2
100
AcDbEntity
100
AcDbLine
  8
color#ffffffff
 62
256
370
-1
  6
BYLAYER
 10
1.0604217456899567
 20
0.2981761635690757
 30
0.0
 11
1.0283949313093161
 21
0.2746082564321676
 31
0.0
  0
LINE
  5
1B3
100
AcDbEntity
100
AcDbLine
  8
color#ffffffff
 62
256
370
-1
  6
BYLAYER
 10
1.0283949313093161
 20
0.2746082564321676
 30
0.0
 11
1.001322191674169
 21
0.2581306375651838
 31
0.0
  0
LINE
  5
1B4
100
AcDbEntity
100
AcDbLine
  8
color#ffffffff
 62
256
370
-1
  6
BYLAYER
 10
1.001322191674169
 20
0.2581306375651838
 30
0.0
 11
0.9801422493449271
 21
0.2474437089323358
 31
0.0
  0
LINE
  5
1B5
100
AcDbEntity
100
AcDbLine
  8
color#ffffffff
 62
256
370
-1
  6
BYLAYER
 10
0.9801422493449271
 20
0.2474437089323358
 30
0.0
 11
0.9581914013132068
 21
0.2383927915948018
 31
0.0
  0
LINE
  5
1B6
100
AcDbEntity
100
AcDbLine
  8
color#ffffffff
 62
256
370
-1
  6
BYLAYER
 10
0.9581914013132068
 20
0.2383927915948018
 30
0.0
 11
0.9431200779144893
 21
0.2333581778013259
 31
0.0
  0
LINE
  5
1B7
100
AcDbEntity
100
AcDbLine
  8
color#ffffffff
 62
256
370
-1
  6
BYLAYER
 10
0.9431200779144893
 20
0.2333581778013259
 30
0.0
 11
0.92769241411149
 21
0.2291863340403258
 31
0.0
  0
LINE
  5
1B8
100
AcDbEntity
100
AcDbLine
  8
color#ffffffff
 62
256
370
-1
  6
BYLAYER
 10
0.92769241411149
 20
0.2291863340403258
 30
0.0
 11
0.9184590999851028
 21
0.227160683113412
 31
0.0
  0
LINE
  5
1B9
100
AcDbEntity
100
AcDbLine
  8
color#ffffffff
 62
256
370
-1
  6
BYLAYER
 10
0.9184590999851028
 20
0.227160683113412
 30
0.0
 11
0.9091344820879382
 21
0.2255700567031309
 31
0.0
  0
LINE
  5
1BA
100
AcDbEntity
100
AcDbLine
  8
color#ffffffff
 62
256
370
-1
  6
BYLAYER
 10
0.9091344820879382
 20
0.2255700567031309
 30
0.0
 11
0.8997376565291447
 21
0.2244099882130498
 31
0.0
  0
LINE
  5
1BB
100
AcDbEntity
100
AcDbLine
  8
color#ffffffff
 62
256
370
-1
  6
BYLAYER
 10
0.8997376565291447
 20
0.2244099882130498
 30
0.0
 11
0.8902877194178694
 21
0.2236760110467399
 31
0.0
  0
LINE
  5
1BC
100
AcDbEntity
100
AcDbLine
  8
color#ffffffff
 62
256
370
-1
  6
BYLAYER
 10
0.8902877194178694
 20
0.2236760110467399
 30
0.0
 11
0.8808037668632608
 21
0.2233636586077685
 31
0.0
  0
LINE
  5
1BD
100
AcDbEntity
100
AcDbLine
  8
color#ffffffff
 62
256
370
-1
  6
BYLAYER
 10
0.8808037668632608
 20
0.2233636586077685
 30
0.0
 11
0.8713048949744664
 21
0.2234684642997067
 31
0.0
  0
LINE
  5
1BE
100
AcDbEntity
100
AcDbLine
  8
color#ffffffff
 62
256
370
-1
  6
BYLAYER
 10
0.8713048949744664
 20
0.2234684642997067
 30
0.0
 11
0.8618101998606335
 21
0.2239859615261241
 31
0.0
  0
LINE
  5
1BF
100
AcDbEntity
100
AcDbLine
  8
color#ffffffff
 62
256
370
-1
  6
BYLAYER
 10
0.8618101998606335
 20
0.2239859615261241
 30
0.0
 11
0.8523387776309107
 21
0.2249116836905871
 31
0.0
  0
LINE
  5
1C0
100
AcDbEntity
100
AcDbLine
  8
color#ffffffff
 62
256
370
-1
  6
BYLAYER
 10
0.8523387776309107
 20
0.2249116836905871
 30
0.0
 11
0.8429097243944456
 21
0.2262411641966667
 31
0.0
  0
LINE
  5
1C1
100
AcDbEntity
100
AcDbLine
  8
color#ffffffff
 62
256
370
-1
  6
BYLAYER
 10
0.8429097243944456
 20
0.2262411641966667
 30
0.0
 11
0.8335421362603853
 21
0.2279699364479342
 31
0.0
  0
LINE
  5
1C2
100
AcDbEntity
100
AcDbLine
  8
color#ffffffff
 62
256
370
-1
  6
BYLAYER
 10
0.8335421362603853
 20
0.2279699364479342
 30
0.0
 11
0.8242551093378784
 21
0.2300935338479558
 31
0.0
  0
LINE
  5
1C3
100
AcDbEntity
100
AcDbLine
  8
color#ffffffff
 62
256
370
-1
  6
BYLAYER
 10
0.8242551093378784
 20
0.2300935338479558
 30
0.0
 11
0.8150677397360725
 21
0.2326074898003014
 31
0.0
  0
LINE
  5
1C4
100
AcDbEntity
100
AcDbLine
  8
color#ffffffff
 62
256
370
-1
  6
BYLAYER
 10
0.8150677397360725
 20
0.2326074898003014
 30
0.0
 11
0.8059991235641151
 21
0.2355073377085424
 31
0.0
  0
LINE
  5
1C5
100
AcDbEntity
100
AcDbLine
  8
color#ffffffff
 62
256
370
-1
  6
BYLAYER
 10
0.8059991235641151
 20
0.2355073377085424
 30
0.0
 11
0.7970683569311545
 21
0.2387886109762462
 31
0.0
  0
LINE
  5
1C6
100
AcDbEntity
100
AcDbLine
  8
color#ffffffff
 62
256
370
-1
  6
BYLAYER
 10
0.7970683569311545
 20
0.2387886109762462
 30
0.0
 11
0.7882945359463379
 21
0.242446843006982
 31
0.0
  0
LINE
  5
1C7
100
AcDbEntity
100
AcDbLine
  8
color#ffffffff
 62
256
370
-1
  6
BYLAYER
 10
0.7882945359463379
 20
0.242446843006982
 30
0.0
 11
0.7796967567188138
 21
0.2464775672043196
 31
0.0
  0
LINE
  5
1C8
100
AcDbEntity
100
AcDbLine
  8
color#ffffffff
 62
256
370
-1
  6
BYLAYER
 10
0.7796967567188138
 20
0.2464775672043196
 30
0.0
 11
0.7712941153577293
 21
0.2508763169718284
 31
0.0
  0
LINE
  5
1C9
100
AcDbEntity
100
AcDbLine
  8
color#ffffffff
 62
256
370
-1
  6
BYLAYER
 10
0.7712941153577293
 20
0.2508763169718284
 30
0.0
 11
0.7631057079722325
 21
0.2556386257130778
 31
0.0
  0
LINE
  5
1CA
100
AcDbEntity
100
AcDbLine
  8
color#ffffffff
 62
256
370
-1
  6
BYLAYER
 10
0.7631057079722325
 20
0.2556386257130778
 30
0.0
 11
0.7551506306714715
 21
0.2607600268316368
 31
0.0
  0
LINE
  5
1CB
100
AcDbEntity
100
AcDbLine
  8
color#ffffffff
 62
256
370
-1
  6
BYLAYER
 10
0.7551506306714715
 20
0.2607600268316368
 30
0.0
 11
0.7474479795645935
 21
0.2662360537310743
 31
0.0
  0
LINE
  5
1CC
100
AcDbEntity
100
AcDbLine
  8
color#ffffffff
 62
256
370
-1
  6
BYLAYER
 10
0.7474479795645935
 20
0.2662360537310743
 30
0.0
 11
0.7400168507607466
 21
0.2720622398149604
 31
0.0
  0
LINE
  5
1CD
100
AcDbEntity
100
AcDbLine
  8
color#ffffffff
 62
256
370
-1
  6
BYLAYER
 10
0.7400168507607466
 20
0.2720622398149604
 30
0.0
 11
0.7328763403690789
 21
0.2782341184868642
 31
0.0
  0
LINE
  5
1CE
100
AcDbEntity
100
AcDbLine
  8
color#ffffffff
 62
256
370
-1
  6
BYLAYER
 10
0.7328763403690789
 20
0.2782341184868642
 30
0.0
 11
0.7260455444987376
 21
0.2847472231503541
 31
0.0
  0
LINE
  5
1CF
100
AcDbEntity
100
AcDbLine
  8
color#ffffffff
 62
256
370
-1
  6
BYLAYER
 10
0.7260455444987376
 20
0.2847472231503541
 30
0.0
 11
0.7195435592588709
 21
0.2915970872090006
 31
0.0
  0
LINE
  5
1D0
100
AcDbEntity
100
AcDbLine
  8
color#ffffffff
 62
256
370
-1
  6
BYLAYER
 10
0.7195435592588709
 20
0.2915970872090006
 30
0.0
 11
0.7133894807586265
 21
0.2987792440663727
 31
0.0
  0
LINE
  5
1D1
100
AcDbEntity
100
AcDbLine
  8
color#ffffffff
 62
256
370
-1
  6
BYLAYER
 10
0.7133894807586265
 20
0.2987792440663727
 30
0.0
 11
0.7076024051071521
 21
0.3062892271260391
 31
0.0
  0
LINE
  5
1D2
100
AcDbEntity
100
AcDbLine
  8
color#ffffffff
 62
256
370
-1
  6
BYLAYER
 10
0.7076024051071521
 20
0.3062892271260391
 30
0.0
 11
0.7022014284135956
 21
0.3141225697915691
 31
0.0
  0
LINE
  5
1D3
100
AcDbEntity
100
AcDbLine
  8
color#ffffffff
 62
256
370
-1
  6
BYLAYER
 10
0.7022014284135956
 20
0.3141225697915691
 30
0.0
 11
0.6972056467871048
 21
0.322274805466533
 31
0.0
  0
LINE
  5
1D4
100
AcDbEntity
100
AcDbLine
  8
color#ffffffff
 62
256
370
-1
  6
BYLAYER
 10
0.6972056467871048
 20
0.322274805466533
 30
0.0
 11
0.6926341563368275
 21
0.3307414675544994
 31
0.0
  0
LINE
  5
1D5
100
AcDbEntity
100
AcDbLine
  8
color#ffffffff
 62
256
370
-1
  6
BYLAYER
 10
0.6926341563368275
 20
0.3307414675544994
 30
0.0
 11
0.6726641170228329
 21
0.3650491513167233
 31
0.0
  0
LINE
  5
1D6
100
AcDbEntity
100
AcDbLine
  8
color#ffffffff
 62
256
370
-1
  6
BYLAYER
 10
0.6726641170228329
 20
0.3650491513167233
 30
0.0
 11
0.6534513657381105
 21
0.3997161317130957
 31
0.0
  0
LINE
  5
1D7
100
AcDbEntity
100
AcDbLine
  8
color#ffffffff
 62
256
370
-1
  6
BYLAYER
 10
0.6534513657381105
 20
0.3997161317130957
 30
0.0
 11
0.6349803982023016
 21
0.4347285683892738
 31
0.0
  0
LINE
  5
1D8
100
AcDbEntity
100
AcDbLine
  8
color#ffffffff
 62
256
370
-1
  6
BYLAYER
 10
0.6349803982023016
 20
0.4347285683892738
 30
0.0
 11
0.6172357101350469
 21
0.4700726209909216
 31
0.0
  0
LINE
  5
1D9
100
AcDbEntity
100
AcDbLine
  8
color#ffffffff
 62
256
370
-1
  6
BYLAYER
 10
0.6172357101350469
 20
0.4700726209909216
 30
0.0
 11
0.6002017972559876
 21
0.5057344491636953
 31
0.0
  0
LINE
  5
1DA
100
AcDbEntity
100
AcDbLine
  8
color#ffffffff
 62
256
370
-1
  6
BYLAYER
 10
0.6002017972559876
 20
0.5057344491636953
 30
0.0
 11
0.5838631552847647
 21
0.5417002125532583
 31
0.0
  0
LINE
  5
1DB
100
AcDbEntity
100
AcDbLine
  8
color#ffffffff
 62
256
370
-1
  6
BYLAYER
 10
0.5838631552847647
 20
0.5417002125532583
 30
0.0
 11
0.5682042799410191
 21
0.5779560708052713
 31
0.0
  0
LINE
  5
1DC
100
AcDbEntity
100
AcDbLine
  8
color#ffffffff
 62
256
370
-1
  6
BYLAYER
 10
0.5682042799410191
 20
0.5779560708052713
 30
0.0
 11
0.5532096669443921
 21
0.6144881835653927
 31
0.0
  0
LINE
  5
1DD
100
AcDbEntity
100
AcDbLine
  8
color#ffffffff
 62
256
370
-1
  6
BYLAYER
 10
0.5532096669443921
 20
0.6144881835653927
 30
0.0
 11
0.5388638120145246
 21
0.6512827104792842
 31
0.0
  0
LINE
  5
1DE
100
AcDbEntity
100
AcDbLine
  8
color#ffffffff
 62
256
370
-1
  6
BYLAYER
 10
0.5388638120145246
 20
0.6512827104792842
 30
0.0
 11
0.5251512108710573
 21
0.6883258111926077
 31
0.0
  0
LINE
  5
1DF
100
AcDbEntity
100
AcDbLine
  8
color#ffffffff
 62
256
370
-1
  6
BYLAYER
 10
0.5251512108710573
 20
0.6883258111926077
 30
0.0
 11
0.5120563592336318
 21
0.7256036453510212
 31
0.0
  0
LINE
  5
1E0
100
AcDbEntity
100
AcDbLine
  8
color#ffffffff
 62
256
370
-1
  6
BYLAYER
 10
0.5120563592336318
 20
0.7256036453510212
 30
0.0
 11
0.4995637528218887
 21
0.7631023726001859
 31
0.0
  0
LINE
  5
1E1
100
AcDbEntity
100
AcDbLine
  8
color#ffffffff
 62
256
370
-1
  6
BYLAYER
 10
0.4995637528218887
 20
0.7631023726001859
 30
0.0
 11
0.4876578873554691
 21
0.8008081525857639
 31
0.0
  0
LINE
  5
1E2
100
AcDbEntity
100
AcDbLine
  8
color#ffffffff
 62
256
370
-1
  6
BYLAYER
 10
0.4876578873554691
 20
0.8008081525857639
 30
0.0
 11
0.4763232585540142
 21
0.8387071449534145
 31
0.0
  0
LINE
  5
1E3
100
AcDbEntity
100
AcDbLine
  8
color#ffffffff
 62
256
370
-1
  6
BYLAYER
 10
0.4763232585540142
 20
0.8387071449534145
 30
0.0
 11
0.4655443621371647
 21
0.8767855093487972
 31
0.0
  0
LINE
  5
1E4
100
AcDbEntity
100
AcDbLine
  8
color#ffffffff
 62
256
370
-1
  6
BYLAYER
 10
0.4655443621371647
 20
0.8767855093487972
 30
0.0
 11
0.4553056938245619
 21
0.9150294054175738
 31
0.0
  0
LINE
  5
1E5
100
AcDbEntity
100
AcDbLine
  8
color#ffffffff
 62
256
370
-1
  6
BYLAYER
 10
0.4553056938245619
 20
0.9150294054175738
 30
0.0
 11
0.4455917493358469
 21
0.9534249928054044
 31
0.0
  0
LINE
  5
1E6
100
AcDbEntity
100
AcDbLine
  8
color#ffffffff
 62
256
370
-1
  6
BYLAYER
 10
0.4455917493358469
 20
0.9534249928054044
 30
0.0
 11
0.4363870243906605
 21
0.9919584311579498
 31
0.0
  0
LINE
  5
1E7
100
AcDbEntity
100
AcDbLine
  8
color#ffffffff
 62
256
370
-1
  6
BYLAYER
 10
0.4363870243906605
 20
0.9919584311579498
 30
0.0
 11
0.4276760147086438
 21
1.0306158801208696
 31
0.0
  0
LINE
  5
1E8
100
AcDbEntity
100
AcDbLine
  8
color#ffffffff
 62
256
370
-1
  6
BYLAYER
 10
0.4276760147086438
 20
1.0306158801208696
 30
0.0
 11
0.4194432160094377
 21
1.0693834993398259
 31
0.0
  0
LINE
  5
1E9
100
AcDbEntity
100
AcDbLine
  8
color#ffffffff
 62
256
370
-1
  6
BYLAYER
 10
0.4194432160094377
 20
1.0693834993398259
 30
0.0
 11
0.4116731240126835
 21
1.108247448460477
 31
0.0
  0
LINE
  5
1EA
100
AcDbEntity
100
AcDbLine
  8
color#ffffffff
 62
256
370
-1
  6
BYLAYER
 10
0.4116731240126835
 20
1.108247448460477
 30
0.0
 11
0.404350234438022
 21
1.1471938871284846
 31
0.0
  0
LINE
  5
1EB
100
AcDbEntity
100
AcDbLine
  8
color#ffffffff
 62
256
370
-1
  6
BYLAYER
 10
0.404350234438022
 20
1.1471938871284846
 30
0.0
 11
0.3974590430050943
 21
1.1862089749895095
 31
0.0
  0
LINE
  5
1EC
100
AcDbEntity
100
AcDbLine
  8
color#ffffffff
 62
256
370
-1
  6
BYLAYER
 10
0.3974590430050943
 20
1.1862089749895095
 30
0.0
 11
0.3909840454335414
 21
1.2252788716892122
 31
0.0
  0
LINE
  5
1ED
100
AcDbEntity
100
AcDbLine
  8
color#ffffffff
 62
256
370
-1
  6
BYLAYER
 10
0.3909840454335414
 20
1.2252788716892122
 30
0.0
 11
0.3849097374430044
 21
1.2643897368732526
 31
0.0
  0
LINE
  5
1EE
100
AcDbEntity
100
AcDbLine
  8
color#ffffffff
 62
256
370
-1
  6
BYLAYER
 10
0.3849097374430044
 20
1.2643897368732526
 30
0.0
 11
0.3792206147531242
 21
1.3035277301872914
 31
0.0
  0
LINE
  5
1EF
100
AcDbEntity
100
AcDbLine
  8
color#ffffffff
 62
256
370
-1
  6
BYLAYER
 10
0.3792206147531242
 20
1.3035277301872914
 30
0.0
 11
0.3739011730835419
 21
1.3426790112769886
 31
0.0
  0
LINE
  5
1F0
100
AcDbEntity
100
AcDbLine
  8
color#ffffffff
 62
256
370
-1
  6
BYLAYER
 10
0.3739011730835419
 20
1.3426790112769886
 30
0.0
 11
0.3689359081538985
 21
1.3818297397880057
 31
0.0
  0
LINE
  5
1F1
100
AcDbEntity
100
AcDbLine
  8
color#ffffffff
 62
256
370
-1
  6
BYLAYER
 10
0.3689359081538985
 20
1.3818297397880057
 30
0.0
 11
0.3643093156838351
 21
1.4209660753660027
 31
0.0
  0
LINE
  5
1F2
100
AcDbEntity
100
AcDbLine
  8
color#ffffffff
 62
256
370
-1
  6
BYLAYER
 10
0.3643093156838351
 20
1.4209660753660027
 30
0.0
 11
0.3806657468682775
 21
1.441206910183169
 31
0.0
  0
LINE
  5
1F3
100
AcDbEntity
100
AcDbLine
  8
color#ffffffff
 62
256
370
-1
  6
BYLAYER
 10
0.3806657468682775
 20
1.441206910183169
 30
0.0
 11
0.3972774285157033
 21
1.4612595057512516
 31
0.0
  0
LINE
  5
1F4
100
AcDbEntity
100
AcDbLine
  8
color#ffffffff
 62
256
370
-1
  6
BYLAYER
 10
0.3972774285157033
 20
1.4612595057512516
 30
0.0
 11
0.4141435729726551
 21
1.4811159301025141
 31
0.0
  0
LINE
  5
1F5
100
AcDbEntity
100
AcDbLine
  8
color#ffffffff
 62
256
370
-1
  6
BYLAYER
 10
0.4141435729726551
 20
1.4811159301025141
 30
0.0
 11
0.4312633925856751
 21
1.5007682512692253
 31
0.0
  0
LINE
  5
1F6
100
AcDbEntity
100
AcDbLine
  8
color#ffffffff
 62
256
370
-1
  6
BYLAYER
 10
0.4312633925856751
 20
1.5007682512692253
 30
0.0
 11
0.4486360997013061
 21
1.5202085372836491
 31
0.0
  0
LINE
  5
1F7
100
AcDbEntity
100
AcDbLine
  8
color#ffffffff
 62
256
370
-1
  6
BYLAYER
 10
0.4486360997013061
 20
1.5202085372836491
 30
0.0
 11
0.4662609066660901
 21
1.5394288561780529
 31
0.0
  0
LINE
  5
1F8
100
AcDbEntity
100
AcDbLine
  8
color#ffffffff
 62
256
370
-1
  6
BYLAYER
 10
0.4662609066660901
 20
1.5394288561780529
 30
0.0
 11
0.4841370258265695
 21
1.5584212759847031
 31
0.0
  0
LINE
  5
1F9
100
AcDbEntity
100
AcDbLine
  8
color#ffffffff
 62
256
370
-1
  6
BYLAYER
 10
0.4841370258265695
 20
1.5584212759847031
 30
0.0
 11
0.5022636695292871
 21
1.5771778647358647
 31
0.0
  0
LINE
  5
1FA
100
AcDbEntity
100
AcDbLine
  8
color#ffffffff
 62
256
370
-1
  6
BYLAYER
 10
0.5022636695292871
 20
1.5771778647358647
 30
0.0
 11
0.5206400501207851
 21
1.5956906904638046
 31
0.0
  0
LINE
  5
1FB
100
AcDbEntity
100
AcDbLine
  8
color#ffffffff
 62
256
370
-1
  6
BYLAYER
 10
0.5206400501207851
 20
1.5956906904638046
 30
0.0
 11
0.5392653799476057
 21
1.6139518212007893
 31
0.0
  0
LINE
  5
1FC
100
AcDbEntity
100
AcDbLine
  8
color#ffffffff
 62
256
370
-1
  6
BYLAYER
 10
0.5392653799476057
 20
1.6139518212007893
 30
0.0
 11
0.5581388713562914
 21
1.6319533249790841
 31
0.0
  0
LINE
  5
1FD
100
AcDbEntity
100
AcDbLine
  8
color#ffffffff
 62
256
370
-1
  6
BYLAYER
 10
0.5581388713562914
 20
1.6319533249790841
 30
0.0
 11
0.5772597366933849
 21
1.649687269830955
 31
0.0
  0
LINE
  5
1FE
100
AcDbEntity
100
AcDbLine
  8
color#ffffffff
 62
256
370
-1
  6
BYLAYER
 10
0.5772597366933849
 20
1.649687269830955
 30
0.0
 11
0.5966271883054283
 21
1.6671457237886702
 31
0.0
  0
LINE
  5
1FF
100
AcDbEntity
100
AcDbLine
  8
color#ffffffff
 62
256
370
-1
  6
BYLAYER
 10
0.5966271883054283
 20
1.6671457237886702
 30
0.0
 11
0.616240438538964
 21
1.6843207548844934
 31
0.0
  0
LINE
  5
200
100
AcDbEntity
100
AcDbLine
  8
color#ffffffff
 62
256
370
-1
  6
BYLAYER
 10
0.616240438538964
 20
1.6843207548844934
 30
0.0
 11
0.6360986997405348
 21
1.7012044311506918
 31
0.0
  0
LINE
  5
201
100
AcDbEntity
100
AcDbLine
  8
color#ffffffff
 62
256
370
-1
  6
BYLAYER
 10
0.6360986997405348
 20
1.7012044311506918
 30
0.0
 11
0.6562011842566825
 21
1.717788820619532
 31
0.0
  0
LINE
  5
202
100
AcDbEntity
100
AcDbLine
  8
color#ffffffff
 62
256
370
-1
  6
BYLAYER
 10
0.6562011842566825
 20
1.717788820619532
 30
0.0
 11
0.6765471044339498
 21
1.734065991323279
 31
0.0
  0
LINE
  5
203
100
AcDbEntity
100
AcDbLine
  8
color#ffffffff
 62
256
370
-1
  6
BYLAYER
 10
0.6765471044339498
 20
1.734065991323279
 30
0.0
 11
0.6971356726188794
 21
1.7500280112942004
 31
0.0
  0
LINE
  5
204
100
AcDbEntity
100
AcDbLine
  8
color#ffffffff
 62
256
370
-1
  6
BYLAYER
 10
0.6971356726188794
 20
1.7500280112942004
 30
0.0
 11
0.7179661011580131
 21
1.7656669485645606
 31
0.0
  0
LINE
  5
205
100
AcDbEntity
100
AcDbLine
  8
color#ffffffff
 62
256
370
-1
  6
BYLAYER
 10
0.7179661011580131
 20
1.7656669485645606
 30
0.0
 11
0.7390376023978938
 21
1.7809748711666273
 31
0.0
  0
LINE
  5
206
100
AcDbEntity
100
AcDbLine
  8
color#ffffffff
 62
256
370
-1
  6
BYLAYER
 10
0.7390376023978938
 20
1.7809748711666273
 30
0.0
 11
0.7603493886850639
 21
1.7959438471326661
 31
0.0
  0
LINE
  5
207
100
AcDbEntity
100
AcDbLine
  8
color#ffffffff
 62
256
370
-1
  6
BYLAYER
 10
0.7603493886850639
 20
1.7959438471326661
 30
0.0
 11
0.7819006723660653
 21
1.8105659444949427
 31
0.0
  0
LINE
  5
208
100
AcDbEntity
100
AcDbLine
  8
color#ffffffff
 62
256
370
-1
  6
BYLAYER
 10
0.7819006723660653
 20
1.8105659444949427
 30
0.0
 11
0.803690665787441
 21
1.8248332312857241
 31
0.0
  0
LINE
  5
209
100
AcDbEntity
100
AcDbLine
  8
color#ffffffff
 62
256
370
-1
  6
BYLAYER
 10
0.803690665787441
 20
1.8248332312857241
 30
0.0
 11
0.825718581295733
 21
1.8387377755372762
 31
0.0
  0
LINE
  5
20A
100
AcDbEntity
100
AcDbLine
  8
color#ffffffff
 62
256
370
-1
  6
BYLAYER
 10
0.825718581295733
 20
1.8387377755372762
 30
0.0
 11
0.8479836312374838
 21
1.8522716452818651
 31
0.0
  0
LINE
  5
20B
100
AcDbEntity
100
AcDbLine
  8
color#ffffffff
 62
256
370
-1
  6
BYLAYER
 10
0.8479836312374838
 20
1.8522716452818651
 30
0.0
 11
0.8704850279592359
 21
1.8654269085517565
 31
0.0
  0
LINE
  5
20C
100
AcDbEntity
100
AcDbLine
  8
color#ffffffff
 62
256
370
-1
  6
BYLAYER
 10
0.8704850279592359
 20
1.8654269085517565
 30
0.0
 11
0.8932219838075317
 21
1.8781956333792169
 31
0.0
  0
LINE
  5
20D
100
AcDbEntity
100
AcDbLine
  8
color#ffffffff
 62
256
370
-1
  6
BYLAYER
 10
0.8932219838075317
 20
1.8781956333792169
 30
0.0
 11
0.9161937111289136
 21
1.8905698877965125
 31
0.0
  0
LINE
  5
20E
100
AcDbEntity
100
AcDbLine
  8
color#ffffffff
 62
256
370
-1
  6
BYLAYER
 10
0.9161937111289136
 20
1.8905698877965125
 30
0.0
 11
0.939399422269924
 21
1.9025417398359095
 31
0.0
  0
LINE
  5
20F
100
AcDbEntity
100
AcDbLine
  8
color#ffffffff
 62
256
370
-1
  6
BYLAYER
 10
0.939399422269924
 20
1.9025417398359095
 30
0.0
 11
0.8553905482193804
 21
1.8969173678808318
 31
0.0
  0
LINE
  5
210
100
AcDbEntity
100
AcDbLine
  8
color#ffffffff
 62
256
370
-1
  6
BYLAYER
 10
0.8553905482193804
 20
1.8969173678808318
 30
0.0
 11
0.8047765536630628
 21
1.8954985555879347
 31
0.0
  0
LINE
  5
211
100
AcDbEntity
100
AcDbLine
  8
color#ffffffff
 62
256
370
-1
  6
BYLAYER
 10
0.8047765536630628
 20
1.8954985555879347
 30
0.0
 11
0.7541327717138171
 21
1.8957646581979246
 31
0.0
  0
LINE
  5
212
100
AcDbEntity
100
AcDbLine
  8
color#ffffffff
 62
256
370
-1
  6
BYLAYER
 10
0.7541327717138171
 20
1.8957646581979246
 30
0.0
 11
0.7035628784456517
 21
1.8978940857730717
 31
0.0
  0
LINE
  5
213
100
AcDbEntity
100
AcDbLine
  8
color#ffffffff
 62
256
370
-1
  6
BYLAYER
 10
0.7035628784456517
 20
1.8978940857730717
 30
0.0
 11
0.6699418635953802
 21
1.9004369884271552
 31
0.0
  0
LINE
  5
214
100
AcDbEntity
100
AcDbLine
  8
color#ffffffff
 62
256
370
-1
  6
BYLAYER
 10
0.6699418635953802
 20
1.9004369884271552
 30
0.0
 11
0.6364304852507802
 21
1.9039401911118796
 31
0.0
  0
LINE
  5
215
100
AcDbEntity
100
AcDbLine
  8
color#ffffffff
 62
256
370
-1
  6
BYLAYER
 10
0.6364304852507802
 20
1.9039401911118796
 30
0.0
 11
0.6030594622485945
 21
1.9084565560679161
 31
0.0
  0
LINE
  5
216
100
AcDbEntity
100
AcDbLine
  8
color#ffffffff
 62
256
370
-1
  6
BYLAYER
 10
0.6030594622485945
 20
1.9084565560679161
 30
0.0
 11
0.569859513425567
 21
1.9140389455359381
 31
0.0
  0
LINE
  5
217
100
AcDbEntity
100
AcDbLine
  8
color#ffffffff
 62
256
370
-1
  6
BYLAYER
 10
0.569859513425567
 20
1.9140389455359381
 30
0.0
 11
0.5368613576184402
 21
1.9207402217566185
 31
0.0
  0
LINE
  5
218
100
AcDbEntity
100
AcDbLine
  8
color#ffffffff
 62
256
370
-1
  6
BYLAYER
 10
0.5368613576184402
 20
1.9207402217566185
 30
0.0
 11
0.5040957136639575
 21
1.9286132469706294
 31
0.0
  0
LINE
  5
219
100
AcDbEntity
100
AcDbLine
  8
color#ffffffff
 62
256
370
-1
  6
BYLAYER
 10
0.5040957136639575
 20
1.9286132469706294
 30
0.0
 11
0.4878096832679399
 21
1.9330056849003441
 31
0.0
  0
LINE
  5
21A
100
AcDbEntity
100
AcDbLine
  8
color#ffffffff
 62
256
370
-1
  6
BYLAYER
 10
0.4878096832679399
 20
1.9330056849003441
 30
0.0
 11
0.4715933003988621
 21
1.9377108834186434
 31
0.0
  0
LINE
  5
21B
100
AcDbEntity
100
AcDbLine
  8
color#ffffffff
 62
256
370
-1
  6
BYLAYER
 10
0.4715933003988621
 20
1.9377108834186434
 30
0.0
 11
0.4554504049113168
 21
1.9427354503056122
 31
0.0
  0
LINE
  5
21C
100
AcDbEntity
100
AcDbLine
  8
color#ffffffff
 62
256
370
-1
  6
BYLAYER
 10
0.4554504049113168
 20
1.9427354503056122
 30
0.0
 11
0.4349410635847297
 21
1.9504433593946762
 31
0.0
  0
LINE
  5
21D
100
AcDbEntity
100
AcDbLine
  8
color#ffffffff
 62
256
370
-1
  6
BYLAYER
 10
0.4349410635847297
 20
1.9504433593946762
 30
0.0
 11
0.4145724487180461
 21
1.9590319610017732
 31
0.0
  0
LINE
  5
21E
100
AcDbEntity
100
AcDbLine
  8
color#ffffffff
 62
256
370
-1
  6
BYLAYER
 10
0.4145724487180461
 20
1.9590319610017732
 30
0.0
 11
0.3944602708078869
 21
1.9685131541850909
 31
0.0
  0
LINE
  5
21F
100
AcDbEntity
100
AcDbLine
  8
color#ffffffff
 62
256
370
-1
  6
BYLAYER
 10
0.3944602708078869
 20
1.9685131541850909
 30
0.0
 11
0.3747202403508723
 21
1.978898838002817
 31
0.0
  0
LINE
  5
220
100
AcDbEntity
100
AcDbLine
  8
color#ffffffff
 62
256
370
-1
  6
BYLAYER
 10
0.3747202403508723
 20
1.978898838002817
 30
0.0
 11
0.355468067843623
 21
1.990200911513138
 31
0.0
  0
LINE
  5
221
100
AcDbEntity
100
AcDbLine
  8
color#ffffffff
 62
256
370
-1
  6
BYLAYER
 10
0.355468067843623
 20
1.990200911513138
 30
0.0
 11
0.3368194637827597
 21
2.002431273774242
 31
0.0
  0
LINE
  5
222
100
AcDbEntity
100
AcDbLine
  8
color#ffffffff
 62
256
370
-1
  6
BYLAYER
 10
0.3368194637827597
 20
2.002431273774242
 30
0.0
 11
0.3188901386649027
 21
2.0156018238443165
 31
0.0
  0
LINE
  5
223
100
AcDbEntity
100
AcDbLine
  8
color#ffffffff
 62
256
370
-1
  6
BYLAYER
 10
0.3188901386649027
 20
2.0156018238443165
 30
0.0
 11
0.3102313652397957
 21
2.0225433877634011
 31
0.0
  0
LINE
  5
224
100
AcDbEntity
100
AcDbLine
  8
color#ffffffff
 62
256
370
-1
  6
BYLAYER
 10
0.3102313652397957
 20
2.0225433877634011
 30
0.0
 11
0.3017958029866729
 21
2.0297244607815488
 31
0.0
  0
LINE
  5
225
100
AcDbEntity
100
AcDbLine
  8
color#ffffffff
 62
256
370
-1
  6
BYLAYER
 10
0.3017958029866729
 20
2.0297244607815488
 30
0.0
 11
0.2935979157176121
 21
2.0371465302810328
 31
0.0
  0
LINE
  5
226
100
AcDbEntity
100
AcDbLine
  8
color#ffffffff
 62
256
370
-1
  6
BYLAYER
 10
0.2935979157176121
 20
2.0371465302810328
 30
0.0
 11
0.2856521672446907
 21
2.0448110836441256
 31
0.0
  0
LINE
  5
227
100
AcDbEntity
100
AcDbLine
  8
color#ffffffff
 62
256
370
-1
  6
BYLAYER
 10
0.2856521672446907
 20
2.0448110836441256
 30
0.0
 11
0.2779730213799864
 21
2.0527196082531023
 31
0.0
  0
LINE
  5
228
100
AcDbEntity
100
AcDbLine
  8
color#ffffffff
 62
256
370
-1
  6
BYLAYER
 10
0.2779730213799864
 20
2.0527196082531023
 30
0.0
 11
0.2705749419355767
 21
2.0608735914902354
 31
0.0
  0
LINE
  5
229
100
AcDbEntity
100
AcDbLine
  8
color#ffffffff
 62
256
370
-1
  6
BYLAYER
 10
0.2705749419355767
 20
2.0608735914902354
 30
0.0
 11
0.2634723927235393
 21
2.0692745207377983
 31
0.0
  0
LINE
  5
22A
100
AcDbEntity
100
AcDbLine
  8
color#ffffffff
 62
256
370
-1
  6
BYLAYER
 10
0.2634723927235393
 20
2.0692745207377983
 30
0.0
 11
0.2566798375559516
 21
2.0779238833780647
 31
0.0
  0
LINE
  5
22B
100
AcDbEntity
100
AcDbLine
  8
color#ffffffff
 62
256
370
-1
  6
BYLAYER
 10
0.2566798375559516
 20
2.0779238833780647
 30
0.0
 11
0.2502117402448912
 21
2.0868231667933079
 31
0.0
  0
LINE
  5
22C
100
AcDbEntity
100
AcDbLine
  8
color#ffffffff
 62
256
370
-1
  6
BYLAYER
 10
0.2502117402448912
 20
2.0868231667933079
 30
0.0
 11
0.2440825646024358
 21
2.0959738583658014
 31
0.0
  0
LINE
  5
22D
100
AcDbEntity
100
AcDbLine
  8
color#ffffffff
 62
256
370
-1
  6
BYLAYER
 10
0.2440825646024358
 20
2.0959738583658014
 30
0.0
 11
0.2383067744406628
 21
2.1053774454778189
 31
0.0
  0
LINE
  5
22E
100
AcDbEntity
100
AcDbLine
  8
color#ffffffff
 62
256
370
-1
  6
BYLAYER
 10
0.2383067744406628
 20
2.1053774454778189
 30
0.0
 11
0.2328988335716499
 21
2.1150354155116329
 31
0.0
  0
LINE
  5
22F
100
AcDbEntity
100
AcDbLine
  8
color#ffffffff
 62
256
370
-1
  6
BYLAYER
 10
0.2328988335716499
 20
2.1150354155116329
 30
0.0
 11
0.2278732058074746
 21
2.1249492558495175
 31
0.0
  0
LINE
  5
230
100
AcDbEntity
100
AcDbLine
  8
color#ffffffff
 62
256
370
-1
  6
BYLAYER
 10
0.2278732058074746
 20
2.1249492558495175
 30
0.0
 11
0.2232443549602145
 21
2.1351204538737463
 31
0.0
  0
LINE
  5
231
100
AcDbEntity
100
AcDbLine
  8
color#ffffffff
 62
256
370
-1
  6
BYLAYER
 10
0.2232443549602145
 20
2.1351204538737463
 30
0.0
 11
0.2190267448419472
 21
2.1455504969665924
 31
0.0
  0
LINE
  5
232
100
AcDbEntity
100
AcDbLine
  8
color#ffffffff
 62
256
370
-1
  6
BYLAYER
 10
0.2190267448419472
 20
2.1455504969665924
 30
0.0
 11
0.1596604732466379
 21
2.4722279450883828
 31
0.0
  0
LINE
  5
233
100
AcDbEntity
100
AcDbLine
  8
color#ffffffff
 62
256
370
-1
  6
BYLAYER
 10
0.1596604732466379
 20
2.4722279450883828
 30
0.0
 11
0.1442650200737202
 21
2.541699077935538
 31
0.0
  0
LINE
  5
234
100
AcDbEntity
100
AcDbLine
  8
color#ffffffff
 62
256
370
-1
  6
BYLAYER
 10
0.1442650200737202
 20
2.541699077935538
 30
0.0
 11
0.1329908031166126
 21
2.5877376599826487
 31
0.0
  0
LINE
  5
235
100
AcDbEntity
100
AcDbLine
  8
color#ffffffff
 62
256
370
-1
  6
BYLAYER
 10
0.1329908031166126
 20
2.5877376599826487
 30
0.0
 11
0.1207648062362103
 21
2.6335053324570938
 31
0.0
  0
LINE
  5
236
100
AcDbEntity
100
AcDbLine
  8
color#ffffffff
 62
256
370
-1
  6
BYLAYER
 10
0.1207648062362103
 20
2.6335053324570938
 30
0.0
 11
0.1074641882469433
 21
2.6789588059086995
 31
0.0
  0
LINE
  5
237
100
AcDbEntity
100
AcDbLine
  8
color#ffffffff
 62
256
370
-1
  6
BYLAYER
 10
0.1074641882469433
 20
2.6789588059086995
 30
0.0
 11
0.1003725084659949
 21
2.7015541900477578
 31
0.0
  0
LINE
  5
238
100
AcDbEntity
100
AcDbLine
  8
color#ffffffff
 62
256
370
-1
  6
BYLAYER
 10
0.1003725084659949
 20
2.7015541900477578
 30
0.0
 11
0.0929661079632418
 21
2.7240547908872901
 31
0.0
  0
LINE
  5
239
100
AcDbEntity
100
AcDbLine
  8
color#ffffffff
 62
256
370
-1
  6
BYLAYER
 10
0.0929661079632418
 20
2.7240547908872901
 30
0.0
 11
0.0852296315904875
 21
2.7464551972460254
 31
0.0
  0
LINE
  5
23A
100
AcDbEntity
100
AcDbLine
  8
color#ffffffff
 62
256
370
-1
  6
BYLAYER
 10
0.0852296315904875
 20
2.7464551972460254
 30
0.0
 11
0.0771477241995359
 21
2.7687499979426908
 31
0.0
  0
LINE
  5
23B
100
AcDbEntity
100
AcDbLine
  8
color#ffffffff
 62
256
370
-1
  6
BYLAYER
 10
0.0771477241995359
 20
2.7687499979426908
 30
0.0
 11
0.0687050306421908
 21
2.7909337817960154
 31
0.0
  0
LINE
  5
23C
100
AcDbEntity
100
AcDbLine
  8
color#ffffffff
 62
256
370
-1
  6
BYLAYER
 10
0.0687050306421908
 20
2.7909337817960154
 30
0.0
 11
0.0598861957702558
 21
2.813001137624727
 31
0.0
  0
LINE
  5
23D
100
AcDbEntity
100
AcDbLine
  8
color#ffffffff
 62
256
370
-1
  6
BYLAYER
 10
0.0598861957702558
 20
2.813001137624727
 30
0.0
 11
0.0539458297000608
 21
2.8274274574288754
 31
0.0
  0
LINE
  5
23E
100
AcDbEntity
100
AcDbLine
  8
color#ffffffff
 62
256
370
-1
  6
BYLAYER
 10
0.0539458297000608
 20
2.8274274574288754
 30
0.0
 11
0.0162426481034042
 21
2.8907497663655075
 31
0.0
  0
LINE
  5
23F
100
AcDbEntity
100
AcDbLine
  8
color#ffffffff
 62
256
370
-1
  6
BYLAYER
 10
0.0162426481034042
 20
2.8907497663655075
 30
0.0
 11
0.0073234829669558
 21
2.9093588463986597
 31
0.0
  0
LINE
  5
240
100
AcDbEntity
100
AcDbLine
  8
color#ffffffff
 62
256
370
-1
  6
BYLAYER
 10
0.0073234829669558
 20
2.9093588463986597
 30
0.0
 11
0.0039462192728642
 21
2.9190237155423295
 31
0.0
  0
LINE
  5
241
100
AcDbEntity
100
AcDbLine
  8
color#ffffffff
 62
256
370
-1
  6
BYLAYER
 10
0.0039462192728642
 20
2.9190237155423295
 30
0.0
 11
0.0014967566407367
 21
2.9290019144594854
 31
0.0
  0
LINE
  5
242
100
AcDbEntity
100
AcDbLine
  8
color#ffffffff
 62
256
370
-1
  6
BYLAYER
 10
0.0014967566407367
 20
2.9290019144594854
 30
0.0
 11
0.0001297864299797
 21
2.9393482759166942
 31
0.0
  0
LINE
  5
243
100
AcDbEntity
100
AcDbLine
  8
color#ffffffff
 62
256
370
-1
  6
BYLAYER
 10
0.0001297864299797
 20
2.9393482759166942
 30
0.0
 11
-0.0000994229675702
 21
2.9446766528373707
 31
0.0
  0
LINE
  5
244
100
AcDbEntity
100
AcDbLine
  8
color#ffffffff
 62
256
370
-1
  6
BYLAYER
 10
-0.0000994229675702
 20
2.9446766528373707
 30
0.0
 11
0.0
 21
2.9501176326805232
 31
0.0
  0
LINE
  5
245
100
AcDbEntity
100
AcDbLine
  8
color#ffffffff
 62
256
370
-1
  6
BYLAYER
 10
0.0
 20
2.9501176326805232
 30
0.0
 11
0.0
 21
2.9684589688112899
 31
0.0
  0
LINE
  5
246
100
AcDbEntity
100
AcDbLine
  8
color#ffffffff
 62
256
370
-1
  6
BYLAYER
 10
0.0
 20
2.9684589688112899
 30
0.0
 11
0.0006828034612563
 21
2.9802886811595179
 31
0.0
  0
LINE
  5
247
100
AcDbEntity
100
AcDbLine
  8
color#ffffffff
 62
256
370
-1
  6
BYLAYER
 10
0.0006828034612563
 20
2.9802886811595179
 30
0.0
 11
0.0068165873619001
 21
3.0527911814845852
 31
0.0
  0
LINE
  5
248
100
AcDbEntity
100
AcDbLine
  8
color#ffffffff
 62
256
370
-1
  6
BYLAYER
 10
0.0068165873619001
 20
3.0527911814845852
 30
0.0
 11
0.0119692319136259
 21
3.0892930912769105
 31
0.0
  0
LINE
  5
249
100
AcDbEntity
100
AcDbLine
  8
color#ffffffff
 62
256
370
-1
  6
BYLAYER
 10
0.0119692319136259
 20
3.0892930912769105
 30
0.0
 11
0.0164930899603723
 21
3.113423453185614
 31
0.0
  0
LINE
  5
24A
100
AcDbEntity
100
AcDbLine
  8
color#ffffffff
 62
256
370
-1
  6
BYLAYER
 10
0.0164930899603723
 20
3.113423453185614
 30
0.0
 11
0.0220489628053982
 21
3.1372391778979032
 31
0.0
  0
LINE
  5
24B
100
AcDbEntity
100
AcDbLine
  8
color#ffffffff
 62
256
370
-1
  6
BYLAYER
 10
0.0220489628053982
 20
3.1372391778979032
 30
0.0
 11
0.0252570312384633
 21
3.1489885401891065
 31
0.0
  0
LINE
  5
24C
100
AcDbEntity
100
AcDbLine
  8
color#ffffffff
 62
256
370
-1
  6
BYLAYER
 10
0.0252570312384633
 20
3.1489885401891065
 30
0.0
 11
0.0287748551245349
 21
3.1606106298416616
 31
0.0
  0
LINE
  5
24D
100
AcDbEntity
100
AcDbLine
  8
color#ffffffff
 62
256
370
-1
  6
BYLAYER
 10
0.0287748551245349
 20
3.1606106298416616
 30
0.0
 11
0.032619685048092
 21
3.1720892424090548
 31
0.0
  0
LINE
  5
24E
100
AcDbEntity
100
AcDbLine
  8
color#ffffffff
 62
256
370
-1
  6
BYLAYER
 10
0.032619685048092
 20
3.1720892424090548
 30
0.0
 11
0.0368087715936134
 21
3.183408173444771
 31
0.0
  0
LINE
  5
24F
100
AcDbEntity
100
AcDbLine
  8
color#ffffffff
 62
256
370
-1
  6
BYLAYER
 10
0.0368087715936134
 20
3.183408173444771
 30
0.0
 11
0.041359365345578
 21
3.194551218502296
 31
0.0
  0
LINE
  5
250
100
AcDbEntity
100
AcDbLine
  8
color#ffffffff
 62
256
370
-1
  6
BYLAYER
 10
0.041359365345578
 20
3.194551218502296
 30
0.0
 11
0.0462887168884647
 21
3.2055021731351143
 31
0.0
  0
LINE
  5
251
100
AcDbEntity
100
AcDbLine
  8
color#ffffffff
 62
256
370
-1
  6
BYLAYER
 10
0.0462887168884647
 20
3.2055021731351143
 30
0.0
 11
0.0516140768067524
 21
3.2162448328967121
 31
0.0
  0
LINE
  5
252
100
AcDbEntity
100
AcDbLine
  8
color#ffffffff
 62
256
370
-1
  6
BYLAYER
 10
0.0516140768067524
 20
3.2162448328967121
 30
0.0
 11
0.05735269568492
 21
3.2267629933405746
 31
0.0
  0
LINE
  5
253
100
AcDbEntity
100
AcDbLine
  8
color#ffffffff
 62
256
370
-1
  6
BYLAYER
 10
0.05735269568492
 20
3.2267629933405746
 30
0.0
 11
0.0635218241074463
 21
3.2370404500201868
 31
0.0
  0
LINE
  5
254
100
AcDbEntity
100
AcDbLine
  8
color#ffffffff
 62
256
370
-1
  6
BYLAYER
 10
0.0635218241074463
 20
3.2370404500201868
 30
0.0
 11
0.0701387126588103
 21
3.247060998489034
 31
0.0
  0
LINE
  5
255
100
AcDbEntity
100
AcDbLine
  8
color#ffffffff
 62
256
370
-1
  6
BYLAYER
 10
0.0701387126588103
 20
3.247060998489034
 30
0.0
 11
0.0772206119234908
 21
3.2568084343006016
 31
0.0
  0
LINE
  5
256
100
AcDbEntity
100
AcDbLine
  8
color#ffffffff
 62
256
370
-1
  6
BYLAYER
 10
0.0772206119234908
 20
3.2568084343006016
 30
0.0
 11
0.0847847724859668
 21
3.2662665530083754
 31
0.0
  0
LINE
  5
257
100
AcDbEntity
100
AcDbLine
  8
color#ffffffff
 62
256
370
-1
  6
BYLAYER
 10
0.0847847724859668
 20
3.2662665530083754
 30
0.0
 11
0.092848444930717
 21
3.2754191501658401
 31
0.0
  0
LINE
  5
258
100
AcDbEntity
100
AcDbLine
  8
color#ffffffff
 62
256
370
-1
  6
BYLAYER
 10
0.092848444930717
 20
3.2754191501658401
 30
0.0
 11
0.1014288798422205
 21
3.2842500213264807
 31
0.0
  0
LINE
  5
259
100
AcDbEntity
100
AcDbLine
  8
color#ffffffff
 62
256
370
-1
  6
BYLAYER
 10
0.1014288798422205
 20
3.2842500213264807
 30
0.0
 11
0.110543327804956
 21
3.2927429620437838
 31
0.0
  0
ENDSEC
  0
SECTION
  2
OBJECTS
  0
DICTIONARY
  5
C
100
AcDbDictionary
280
0
281
1
  3
ACAD_GROUP
350
D
  3
ACAD_LAYOUT
350
1A
  3
ACAD_MLINESTYLE
350
17
  3
ACAD_PLOTSETTINGS
350
19
  3
ACAD_PLOTSTYLENAME
350
E
  3
AcDbVariableDictionary
350
25A
  0
DICTIONARY
  5
D
100
AcDbDictionary
280
0
281
1
  0
ACDBDICTIONARYWDFLT
  5
E
100
AcDbDictionary
281
1
  3
Normal
350
F
100
AcDbDictionaryWithDefault
340
F
  0
ACDBPLACEHOLDER
  5
F
  0
DICTIONARY
  5
17
100
AcDbDictionary
280
0
281
1
  3
Standard
350
18
  0
MLINESTYLE
  5
18
100
AcDbMlineStyle
  2
STANDARD
 70
0
  3

 62
256
 51
90.0
 52
90.0
 71
2
 49
0.5
 62
256
  6
BYLAYER
 49
-0.5
 62
256
  6
BYLAYER
  0
DICTIONARY
  5
19
100
AcDbDictionary
280
0
281
1
  0
DICTIONARY
  5
1A
100
AcDbDictionary
281
1
  3
Layout1
350
1E
  3
Layout2
350
26
  3
Model
350
22
  0
LAYOUT
  5
1E
100
AcDbPlotSettings
  1

  2
C:\Program Files\AutoCAD 2002\plotters\DWF ePlot (optimized for plotting).pc3
  4

  6

 40
0.0
 41
0.0
 42
0.0
 43
0.0
 44
0.0
 45
0.0
 46
0.0
 47
0.0
 48
0.0
 49
0.0
140
0.0
141
0.0
142
1.0
143
1.0
 70
688
 72
0
 73
0
 74
5
  7

 75
16
147
1.0
148
0.0
149
0.0
100
AcDbLayout
  1
Layout1
 70
1
 71
1
 10
0.0
 20
0.0
 11
420.0
 21
297.0
 12
0.0
 22
0.0
 32
0.0
 14
100000000000000000000.0
 24
100000000000000000000.0
 34
100000000000000000000.0
 15
-100000000000000000000.0
 25
-100000000000000000000.0
 35
-100000000000000000000.0
146
0.0
 13
0.0
 23
0.0
 33
0.0
 16
1.0
 26
0.0
 36
0.0
 17
0.0
 27
1.0
 37
0.0
 76
0
330
1B
  0
LAYOUT
  5
22
100
AcDbPlotSettings
  1

  2
C:\Program Files\AutoCAD 2002\plotters\DWF ePlot (optimized for plotting).pc3
  4

  6

 40
0.0
 41
0.0
 42
0.0
 43
0.0
 44
0.0
 45
0.0
 46
0.0
 47
0.0
 48
0.0
 49
0.0
140
0.0
141
0.0
142
1.0
143
1.0
 70
1712
 72
0
 73
0
 74
0
  7

 75
0
147
1.0
148
0.0
149
0.0
100
AcDbLayout
  1
Model
 70
1
 71
0
 10
0.0
 20
0.0
 11
12.0
 21
9.0
 12
0.0
 22
0.0
 32
0.0
 14
0.0
 24
0.0
 34
0.0
 15
0.0
 25
0.0
 35
0.0
146
0.0
 13
0.0
 23
0.0
 33
0.0
 16
1.0
 26
0.0
 36
0.0
 17
0.0
 27
1.0
 37
0.0
 76
0
330
1F
  0
LAYOUT
  5
26
100
AcDbPlotSettings
  1

  2
C:\Program Files\AutoCAD 2002\plotters\DWF ePlot (optimized for plotting).pc3
  4

  6

 40
0.0
 41
0.0
 42
0.0
 43
0.0
 44
0.0
 45
0.0
 46
0.0
 47
0.0
 48
0.0
 49
0.0
140
0.0
141
0.0
142
1.0
143
1.0
 70
688
 72
0
 73
0
 74
5
  7

 75
16
147
1.0
148
0.0
149
0.0
100
AcDbLayout
  1
Layout2
 70
1
 71
2
 10
0.0
 20
0.0
 11
12.0
 21
9.0
 12
0.0
 22
0.0
 32
0.0
 14
0.0
 24
0.0
 34
0.0
 15
0.0
 25
0.0
 35
0.0
146
0.0
 13
0.0
 23
0.0
 33
0.0
 16
1.0
 26
0.0
 36
0.0
 17
0.0
 27
1.0
 37
0.0
 76
0
330
23
  0
DICTIONARY
  5
25A
100
AcDbDictionary
281
1
  3
DIMASSOC
350
25C
  3
HIDETEXT
350
25B
  0
DICTIONARYVAR
  5
25B
100
DictionaryVariables
280
0
  1
2
  0
DICTIONARYVAR
  5
25C
100
DictionaryVariables
280
0
  1
1
  0
ENDSEC
  0
EOF
