999
dxfrw 0.6.3
  0
SECTION
  2
HEADER
  9
$ACADVER
  1
AC1021
  9
$DWGCODEPAGE
  3
ANSI_1252
  9
$INSBASE
 10
0
 20
0
 30
0
  9
$EXTMIN
 10
-9.94229675702e-005
 20
0.2233636586077685
 30
0
  9
$EXTMAX
 10
3.555555555555555
 20
3.330348506472867
 30
0
  9
$LIMMIN
 10
0
 20
0
  9
$LIMMAX
 10
420
 20
297
  9
$ORTHOMODE
 70
    0
  9
$REGENMODE
 70
    1
  9
$FILLMODE
 70
    1
  9
$QTEXTMODE
 70
    0
  9
$MIRRTEXT
 70
    0
  9
$LTSCALE
 40
1
  9
$ATTMODE
 70
    0
  9
$TEXTSIZE
 40
2.5
  9
$TRACEWID
 40
15.68
  9
$TEXTSTYLE
  7
Standard
  9
$CLAYER
  8
color#ffffffff
  9
$CELTYPE
  6
BYLAYER
  9
$CECOLOR
 62
  256
  9
$CELTSCALE
 40
1
  9
$DISPSILH
 70
    0
  9
$DIMSCALE
 40
2.5
  9
$DIMASZ
 40
2.5
  9
$DIMEXO
 40
0.625
  9
$DIMDLI
 40
3.75
  9
$DIMRND
 40
0
  9
$DIMDLE
 40
0
  9
$DIMEXE
 40
1.25
  9
$DIMTP
 40
0
  9
$DIMTM
 40
0
  9
$DIMTXT
 40
2.5
  9
$DIMCEN
 40
2.5
  9
$DIMTSZ
 40
0
  9
$DIMTOL
 70
    0
  9
$DIMLIM
 70
    0
  9
$DIMTIH
 70
    0
  9
$DIMTOH
 70
    0
  9
$DIMSE1
 70
    0
  9
$DIMSE2
 70
    0
  9
$DIMTAD
 70
    1
  9
$DIMZIN
 70
    8
  9
$DIMBLK
  1

  9
$DIMASO
 70
    1
  9
$DIMSHO
 70
    1
  9
$DIMPOST
  1

  9
$DIMAPOST
  1

  9
$DIMALT
 70
    0
  9
$DIMALTD
 70
    3
  9
$DIMALTF
 40
0.03937
  9
$DIMLFAC
 40
1
  9
$DIMTOFL
 70
    1
  9
$DIMTVP
 40
0
  9
$DIMTIX
 70
    0
  9
$DIMSOXD
 70
    0
  9
$DIMSAH
 70
    0
  9
$DIMBLK1
  1

  9
$DIMBLK2
  1

  9
$DIMSTYLE
  2
Standard
  9
$DIMCLRD
 70
    0
  9
$DIMCLRE
 70
    0
  9
$DIMCLRT
 70
    0
  9
$DIMTFAC
 40
1
  9
$DIMGAP
 40
0.625
  9
$DIMJUST
 70
    0
  9
$DIMSD1
 70
    0
  9
$DIMSD2
 70
    0
  9
$DIMTOLJ
 70
    0
  9
$DIMTZIN
 70
    8
  9
$DIMALTZ
 70
    0
  9
$DIMALTTZ
 70
    0
  9
$DIMUPT
 70
    0
  9
$DIMDEC
 70
    2
  9
$DIMTDEC
 70
    2
  9
$DIMALTU
 70
    2
  9
$DIMALTTD
 70
    3
  9
$DIMTXSTY
  7
STANDARD
  9
$DIMAUNIT
 70
    0
  9
$DIMADEC
 70
    0
  9
$DIMALTRND
 40
0
  9
$DIMAZIN
 70
    0
  9
$DIMDSEP
 70
   44
  9
$DIMATFIT
 70
    3
  9
$DIMFRAC
 70
    0
  9
$DIMLDRBLK
  1
STANDARD
  9
$DIMLUNIT
 70
    2
  9
$DIMLWD
 70
   -2
  9
$DIMLWE
 70
   -2
  9
$DIMTMOVE
 70
    0
  9
$DIMFXL
 40
1
  9
$DIMFXLON
 70
    0
  9
$DIMJOGANG
 40
0.7854
  9
$DIMTFILL
 70
    0
  9
$DIMTFILLCLR
 70
    0
  9
$DIMARCSYM
 70
    0
  9
$DIMLTYPE
  6

  9
$DIMLTEX1
  6

  9
$DIMLTEX2
  6

  9
$LUNITS
 70
    2
  9
$LUPREC
 70
    4
  9
$SKETCHINC
 40
1
  9
$FILLETRAD
 40
0
  9
$AUNITS
 70
    0
  9
$AUPREC
 70
    2
  9
$MENU
  1
.
  9
$ELEVATION
 40
0
  9
$PELEVATION
 40
0
  9
$THICKNESS
 40
0
  9
$LIMCHECK
 70
    0
  9
$CHAMFERA
 40
0
  9
$CHAMFERB
 40
0
  9
$CHAMFERC
 40
0
  9
$CHAMFERD
 40
0
  9
$SKPOLY
 70
    0
  9
$USRTIMER
 70
    1
  9
$ANGBASE
 50
0
  9
$ANGDIR
 70
    0
  9
$PDMODE
 70
   34
  9
$PDSIZE
 40
0
  9
$PLINEWID
 40
0
  9
$SPLFRAME
 70
    0
  9
$SPLINETYPE
 70
    2
  9
$SPLINESEGS
 70
    8
  9
$HANDSEED
  5
20000
  9
$SURFTAB1
 70
    6
  9
$SURFTAB2
 70
    6
  9
$SURFTYPE
 70
    6
  9
$SURFU
 70
    6
  9
$SURFV
 70
    6
  9
$UCSBASE
  2

  9
$UCSNAME
  2

  9
$UCSORG
 10
0
 20
0
 30
0
  9
$UCSXDIR
 10
1
 20
0
 30
0
  9
$UCSYDIR
 10
0
 20
1
 30
0
  9
$UCSORTHOREF
  2

  9
$UCSORTHOVIEW
 70
    0
  9
$UCSORGTOP
 10
0
 20
0
 30
0
  9
$UCSORGBOTTOM
 10
0
 20
0
 30
0
  9
$UCSORGLEFT
 10
0
 20
0
 30
0
  9
$UCSORGRIGHT
 10
0
 20
0
 30
0
  9
$UCSORGFRONT
 10
0
 20
0
 30
0
  9
$UCSORGBACK
 10
0
 20
0
 30
0
  9
$PUCSBASE
  2

  9
$PUCSNAME
  2

  9
$PUCSORG
 10
0
 20
0
 30
0
  9
$PUCSXDIR
 10
1
 20
0
 30
0
  9
$PUCSYDIR
 10
0
 20
1
 30
0
  9
$PUCSORTHOREF
  2

  9
$PUCSORTHOVIEW
 70
    0
  9
$PUCSORGTOP
 10
0
 20
0
 30
0
  9
$PUCSORGBOTTOM
 10
0
 20
0
 30
0
  9
$PUCSORGLEFT
 10
0
 20
0
 30
0
  9
$PUCSORGRIGHT
 10
0
 20
0
 30
0
  9
$PUCSORGFRONT
 10
0
 20
0
 30
0
  9
$PUCSORGBACK
 10
0
 20
0
 30
0
  9
$USERI1
 70
    0
  9
$USERI2
 70
    0
  9
$USERI3
 70
    0
  9
$USERI4
 70
    0
  9
$USERI5
 70
    0
  9
$USERR1
 40
0
  9
$USERR2
 40
0
  9
$USERR3
 40
0
  9
$USERR4
 40
0
  9
$USERR5
 40
0
  9
$WORLDVIEW
 70
    1
  9
$SHADEDGE
 70
    3
  9
$SHADEDIF
 70
   70
  9
$TILEMODE
 70
    1
  9
$MAXACTVP
 70
   64
  9
$PINSBASE
 10
0
 20
0
 30
0
  9
$PLIMCHECK
 70
    0
  9
$PEXTMIN
 10
0
 20
0
 30
0
  9
$PEXTMAX
 10
0
 20
0
 30
0
  9
$GRIDMODE
 70
    1
  9
$SNAPSTYLE
 70
    0
  9
$PLIMMIN
 10
0
 20
0
  9
$PLIMMAX
 10
297
 20
210
  9
$UNITMODE
 70
    0
  9
$VISRETAIN
 70
    1
  9
$PLINEGEN
 70
    0
  9
$PSLTSCALE
 70
    1
  9
$TREEDEPTH
 70
 3020
  9
$CMLSTYLE
  2
Standard
  9
$CMLJUST
 70
    0
  9
$CMLSCALE
 40
20
  9
$PROXYGRAPHICS
 70
    1
  9
$MEASUREMENT
 70
    1
  9
$CELWEIGHT
370
   -1
  9
$ENDCAPS
280
    0
  9
$JOINSTYLE
280
    0
  9
$LWDISPLAY
290
    0
  9
$INSUNITS
 70
    4
  9
$HYPERLINKBASE
  1

  9
$STYLESHEET
  1

  9
$XEDIT
290
    1
  9
$CEPSNTYPE
380
    0
  9
$PSTYLEMODE
290
    1
  9
$EXTNAMES
290
    1
  9
$PSVPSCALE
 40
1
  9
$OLESTARTUP
290
    0
  9
$SORTENTS
280
  127
  9
$INDEXCTL
280
    0
  9
$HIDETEXT
280
    1
  9
$XCLIPFRAME
290
    0
  9
$HALOGAP
280
    0
  9
$OBSCOLOR
 70
  257
  9
$OBSLTYPE
280
    0
  9
$INTERSECTIONDISPLAY
280
    0
  9
$INTERSECTIONCOLOR
 70
  257
  9
$DIMASSOC
280
    1
  9
$PROJECTNAME
  1

  9
$CAMERADISPLAY
290
    0
  9
$LENSLENGTH
 40
50
  9
$CAMERAHEIGHT
 40
0
  9
$STEPSPERSEC
 40
2
  9
$STEPSIZE
 40
50
  9
$3DDWFPREC
 40
2
  9
$PSOLWIDTH
 40
5
  9
$PSOLHEIGHT
 40
80
  9
$LOFTANG1
 40
1.570796326794897
  9
$LOFTANG2
 40
1.570796326794897
  9
$LOFTMAG1
 40
0
  9
$LOFTMAG2
 40
0
  9
$LOFTPARAM
 70
    7
  9
$LOFTNORMALS
280
    1
  9
$LATITUDE
 40
1
  9
$LONGITUDE
 40
1
  9
$NORTHDIRECTION
 40
0
  9
$TIMEZONE
 70
-8000
  9
$LIGHTGLYPHDISPLAY
280
    1
  9
$TILEMODELIGHTSYNCH
280
    1
  9
$SOLIDHIST
280
    1
  9
$SHOWHIST
280
    1
  9
$DWFFRAME
280
    2
  9
$DGNFRAME
280
    0
  9
$REALWORLDSCALE
290
    1
  9
$INTERFERECOLOR
 62
    1
  9
$CSHADOW
280
    0
  9
$SHADOWPLANELOCATION
 40
0
  0
ENDSEC
  0
SECTION
  2
CLASSES
  0
ENDSEC
  0
SECTION
  2
TABLES
  0
TABLE
  2
VPORT
  5
8
330
0
100
AcDbSymbolTable
 70
    1
  0
VPORT
  5
31
330
2
100
AcDbSymbolTableRecord
100
AcDbViewportTableRecord
  2
*ACTIVE
 70
    0
 10
0
 20
0
 11
1
 21
1
 12
4.397045244768362
 22
3.214083833739311
 13
0
 23
0
 14
10
 24
10
 15
10
 25
10
 16
0
 26
0
 36
1
 17
0
 27
0
 37
0
 40
9.47485130154401
 41
1.886925795053004
 42
50
 43
0
 44
0
 50
0
 51
0
 71
    0
 72
  100
 73
    1
 74
    3
 75
    0
 76
    1
 77
    0
 78
    0
281
    0
 65
    1
110
0
120
0
130
0
111
1
121
0
131
0
112
0
122
1
132
0
 79
    0
146
0
348
10020
 60
    7
 61
    5
292
1
282
    1
141
0
142
0
 63
  250
421
3358443
  0
ENDTAB
  0
TABLE
  2
LTYPE
  5
5
330
0
100
AcDbSymbolTable
 70
    4
  0
LTYPE
  5
14
330
5
100
AcDbSymbolTableRecord
100
AcDbLinetypeTableRecord
  2
ByBlock
 70
    0
  3

 72
   65
 73
    0
 40
0
  0
LTYPE
  5
15
330
5
100
AcDbSymbolTableRecord
100
AcDbLinetypeTableRecord
  2
ByLayer
 70
    0
  3

 72
   65
 73
    0
 40
0
  0
LTYPE
  5
16
330
5
100
AcDbSymbolTableRecord
100
AcDbLinetypeTableRecord
  2
Continuous
 70
    0
  3
Solid line
 72
   65
 73
    0
 40
0
  0
LTYPE
  5
32
330
5
100
AcDbSymbolTableRecord
100
AcDbLinetypeTableRecord
  2
DOT
 70
    0
  3
Dot . . . . . . . . . . . . . . . . . . . . . .
 72
   65
 73
    2
 40
6.35
 49
0
 74
    0
 49
-6.35
 74
    0
  0
LTYPE
  5
33
330
5
100
AcDbSymbolTableRecord
100
AcDbLinetypeTableRecord
  2
DOTTINY
 70
    0
  3
Dot (.15x) .....................................
 72
   65
 73
    2
 40
0.9525
 49
0
 74
    0
 49
-0.9525
 74
    0
  0
LTYPE
  5
34
330
5
100
AcDbSymbolTableRecord
100
AcDbLinetypeTableRecord
  2
DOT2
 70
    0
  3
Dot (.5x) .....................................
 72
   65
 73
    2
 40
3.175
 49
0
 74
    0
 49
-3.175
 74
    0
  0
LTYPE
  5
35
330
5
100
AcDbSymbolTableRecord
100
AcDbLinetypeTableRecord
  2
DOTX2
 70
    0
  3
Dot (2x) .  .  .  .  .  .  .  .  .  .  .  .  .
 72
   65
 73
    2
 40
12.7
 49
0
 74
    0
 49
-12.7
 74
    0
  0
LTYPE
  5
36
330
5
100
AcDbSymbolTableRecord
100
AcDbLinetypeTableRecord
  2
DASHED
 70
    0
  3
Dashed _ _ _ _ _ _ _ _ _ _ _ _ _ _ _ _ _
 72
   65
 73
    2
 40
19.05
 49
12.7
 74
    0
 49
-6.35
 74
    0
  0
LTYPE
  5
37
330
5
100
AcDbSymbolTableRecord
100
AcDbLinetypeTableRecord
  2
DASHEDTINY
 70
    0
  3
Dashed (.15x) _ _ _ _ _ _ _ _ _ _ _ _ _ _ _ _ _
 72
   65
 73
    2
 40
2.8575
 49
1.905
 74
    0
 49
-0.9525
 74
    0
  0
LTYPE
  5
38
330
5
100
AcDbSymbolTableRecord
100
AcDbLinetypeTableRecord
  2
DASHED2
 70
    0
  3
Dashed (.5x) _ _ _ _ _ _ _ _ _ _ _ _ _ _ _ _ _
 72
   65
 73
    2
 40
9.524999999999999
 49
6.35
 74
    0
 49
-3.175
 74
    0
  0
LTYPE
  5
39
330
5
100
AcDbSymbolTableRecord
100
AcDbLinetypeTableRecord
  2
DASHEDX2
 70
    0
  3
Dashed (2x) ____  ____  ____  ____  ____  ___
 72
   65
 73
    2
 40
38.09999999999999
 49
25.4
 74
    0
 49
-12.7
 74
    0
  0
LTYPE
  5
3A
330
5
100
AcDbSymbolTableRecord
100
AcDbLinetypeTableRecord
  2
DASHDOT
 70
    0
  3
Dash dot __ . __ . __ . __ . __ . __ . __ . __
 72
   65
 73
    4
 40
25.4
 49
12.7
 74
    0
 49
-6.35
 74
    0
 49
0
 74
    0
 49
-6.35
 74
    0
  0
LTYPE
  5
3B
330
5
100
AcDbSymbolTableRecord
100
AcDbLinetypeTableRecord
  2
DASHDOTTINY
 70
    0
  3
Dash dot (.15x) _._._._._._._._._._._._._._._.
 72
   65
 73
    4
 40
3.81
 49
1.905
 74
    0
 49
-0.9525
 74
    0
 49
0
 74
    0
 49
-0.9525
 74
    0
  0
LTYPE
  5
3C
330
5
100
AcDbSymbolTableRecord
100
AcDbLinetypeTableRecord
  2
DASHDOT2
 70
    0
  3
Dash dot (.5x) _._._._._._._._._._._._._._._.
 72
   65
 73
    4
 40
12.7
 49
6.35
 74
    0
 49
-3.175
 74
    0
 49
0
 74
    0
 49
-3.175
 74
    0
  0
LTYPE
  5
3D
330
5
100
AcDbSymbolTableRecord
100
AcDbLinetypeTableRecord
  2
DASHDOTX2
 70
    0
  3
Dash dot (2x) ____  .  ____  .  ____  .  ___
 72
   65
 73
    4
 40
50.8
 49
25.4
 74
    0
 49
-12.7
 74
    0
 49
0
 74
    0
 49
-12.7
 74
    0
  0
LTYPE
  5
3E
330
5
100
AcDbSymbolTableRecord
100
AcDbLinetypeTableRecord
  2
DIVIDE
 70
    0
  3
Divide ____ . . ____ . . ____ . . ____ . . ____
 72
   65
 73
    6
 40
31.75
 49
12.7
 74
    0
 49
-6.35
 74
    0
 49
0
 74
    0
 49
-6.35
 74
    0
 49
0
 74
    0
 49
-6.35
 74
    0
  0
LTYPE
  5
3F
330
5
100
AcDbSymbolTableRecord
100
AcDbLinetypeTableRecord
  2
DIVIDETINY
 70
    0
  3
Divide (.15x) __..__..__..__..__..__..__..__.._
 72
   65
 73
    6
 40
4.7625
 49
1.905
 74
    0
 49
-0.9525
 74
    0
 49
0
 74
    0
 49
-0.9525
 74
    0
 49
0
 74
    0
 49
-0.9525
 74
    0
  0
LTYPE
  5
40
330
5
100
AcDbSymbolTableRecord
100
AcDbLinetypeTableRecord
  2
DIVIDE2
 70
    0
  3
Divide (.5x) __..__..__..__..__..__..__..__.._
 72
   65
 73
    6
 40
15.875
 49
6.35
 74
    0
 49
-3.175
 74
    0
 49
0
 74
    0
 49
-3.175
 74
    0
 49
0
 74
    0
 49
-3.175
 74
    0
  0
LTYPE
  5
41
330
5
100
AcDbSymbolTableRecord
100
AcDbLinetypeTableRecord
  2
DIVIDEX2
 70
    0
  3
Divide (2x) ________  .  .  ________  .  .  _
 72
   65
 73
    6
 40
63.5
 49
25.4
 74
    0
 49
-12.7
 74
    0
 49
0
 74
    0
 49
-12.7
 74
    0
 49
0
 74
    0
 49
-12.7
 74
    0
  0
LTYPE
  5
42
330
5
100
AcDbSymbolTableRecord
100
AcDbLinetypeTableRecord
  2
BORDER
 70
    0
  3
Border __ __ . __ __ . __ __ . __ __ . __ __ .
 72
   65
 73
    6
 40
44.45
 49
12.7
 74
    0
 49
-6.35
 74
    0
 49
12.7
 74
    0
 49
-6.35
 74
    0
 49
0
 74
    0
 49
-6.35
 74
    0
  0
LTYPE
  5
43
330
5
100
AcDbSymbolTableRecord
100
AcDbLinetypeTableRecord
  2
BORDERTINY
 70
    0
  3
Border (.15x) __.__.__.__.__.__.__.__.__.__.__.
 72
   65
 73
    6
 40
6.6675
 49
1.905
 74
    0
 49
-0.9525
 74
    0
 49
1.905
 74
    0
 49
-0.9525
 74
    0
 49
0
 74
    0
 49
-0.9525
 74
    0
  0
LTYPE
  5
44
330
5
100
AcDbSymbolTableRecord
100
AcDbLinetypeTableRecord
  2
BORDER2
 70
    0
  3
Border (.5x) __.__.__.__.__.__.__.__.__.__.__.
 72
   65
 73
    6
 40
22.225
 49
6.35
 74
    0
 49
-3.175
 74
    0
 49
6.35
 74
    0
 49
-3.175
 74
    0
 49
0
 74
    0
 49
-3.175
 74
    0
  0
LTYPE
  5
45
330
5
100
AcDbSymbolTableRecord
100
AcDbLinetypeTableRecord
  2
BORDERX2
 70
    0
  3
Border (2x) ____  ____  .  ____  ____  .  ___
 72
   65
 73
    6
 40
88.89999999999999
 49
25.4
 74
    0
 49
-12.7
 74
    0
 49
25.4
 74
    0
 49
-12.7
 74
    0
 49
0
 74
    0
 49
-12.7
 74
    0
  0
LTYPE
  5
46
330
5
100
AcDbSymbolTableRecord
100
AcDbLinetypeTableRecord
  2
CENTER
 70
    0
  3
Center ____ _ ____ _ ____ _ ____ _ ____ _ ____
 72
   65
 73
    4
 40
50.8
 49
31.75
 74
    0
 49
-6.35
 74
    0
 49
6.35
 74
    0
 49
-6.35
 74
    0
  0
LTYPE
  5
47
330
5
100
AcDbSymbolTableRecord
100
AcDbLinetypeTableRecord
  2
CENTERTINY
 70
    0
  3
Center (.15x) ___ _ ___ _ ___ _ ___ _ ___ _ ___
 72
   65
 73
    4
 40
7.62
 49
4.7625
 74
    0
 49
-0.9525
 74
    0
 49
0.9525
 74
    0
 49
-0.9525
 74
    0
  0
LTYPE
  5
48
330
5
100
AcDbSymbolTableRecord
100
AcDbLinetypeTableRecord
  2
CENTER2
 70
    0
  3
Center (.5x) ___ _ ___ _ ___ _ ___ _ ___ _ ___
 72
   65
 73
    4
 40
28.575
 49
19.05
 74
    0
 49
-3.175
 74
    0
 49
3.175
 74
    0
 49
-3.175
 74
    0
  0
LTYPE
  5
49
330
5
100
AcDbSymbolTableRecord
100
AcDbLinetypeTableRecord
  2
CENTERX2
 70
    0
  3
Center (2x) ________  __  ________  __  _____
 72
   65
 73
    4
 40
101.6
 49
63.5
 74
    0
 49
-12.7
 74
    0
 49
12.7
 74
    0
 49
-12.7
 74
    0
  0
ENDTAB
  0
TABLE
  2
LAYER
  5
2
330
0
100
AcDbSymbolTable
 70
    1
  0
LAYER
  5
10
330
2
100
AcDbSymbolTableRecord
100
AcDbLayerTableRecord
  2
0
 70
    0
 62
  250
  6
CONTINUOUS
370
  100
390
F
  0
LAYER
  5
4A
330
2
100
AcDbSymbolTableRecord
100
AcDbLayerTableRecord
  2
color#00000000
 70
    0
 62
    7
  6
CONTINUOUS
370
  100
390
F
  0
LAYER
  5
4B
330
2
100
AcDbSymbolTableRecord
100
AcDbLayerTableRecord
  2
color#ffffffff
 70
    0
 62
    7
  6
CONTINUOUS
370
   -3
390
F
  0
ENDTAB
  0
TABLE
  2
STYLE
  5
3
330
0
100
AcDbSymbolTable
 70
    3
  0
STYLE
  5
4C
330
2
100
AcDbSymbolTableRecord
100
AcDbTextStyleTableRecord
  2
Standard
 70
    0
 40
0
 41
1
 50
0
 71
    0
 42
1
  3
txt
  4

  0
ENDTAB
  0
TABLE
  2
VIEW
  5
6
330
0
100
AcDbSymbolTable
 70
    0
  0
ENDTAB
  0
TABLE
  2
UCS
  5
7
330
0
100
AcDbSymbolTable
 70
    0
  0
ENDTAB
  0
TABLE
  2
APPID
  5
9
330
0
100
AcDbSymbolTable
 70
    1
  0
APPID
  5
12
330
9
100
AcDbSymbolTableRecord
100
AcDbRegAppTableRecord
  2
ACAD
 70
    0
  0
APPID
  5
4D
330
9
100
AcDbSymbolTableRecord
100
AcDbRegAppTableRecord
  2
LibreCad
 70
    0
  0
ENDTAB
  0
TABLE
  2
DIMSTYLE
  5
A
330
0
100
AcDbSymbolTable
 70
    1
100
AcDbDimStyleTable
 71
    1
  0
DIMSTYLE
105
4E
330
A
100
AcDbSymbolTableRecord
100
AcDbDimStyleTableRecord
  2
Standard
 70
    0
 40
1
 41
2.5
 42
0.625
 43
0.38
 44
1.25
 45
0
 46
0
 47
0
 48
0
 49
1
140
2.5
141
0.09
142
2.5
143
25.4
144
1
145
0
146
1
147
0.625
148
0
 71
    0
 72
    0
 73
    0
 74
    1
 75
    0
 76
    0
 77
    0
 78
    1
 79
    0
170
    0
171
    2
172
    0
173
    0
174
    0
175
    0
176
    0
177
    0
178
    0
179
    0
271
    2
272
    4
273
    2
274
    2
275
    0
276
    0
277
    2
278
    0
279
    0
280
    0
281
    0
282
    0
283
    1
284
    0
285
    0
286
    0
288
    0
289
    3
340
standard
341

371
   -2
372
   -2
  0
ENDTAB
  0
TABLE
  2
BLOCK_RECORD
  5
1
330
0
100
AcDbSymbolTable
 70
    2
  0
BLOCK_RECORD
  5
1F
330
1
100
AcDbSymbolTableRecord
100
AcDbBlockTableRecord
  2
*Model_Space
 70
    0
280
    1
281
    0
  0
BLOCK_RECORD
  5
1E
330
1
100
AcDbSymbolTableRecord
100
AcDbBlockTableRecord
  2
*Paper_Space
 70
    0
280
    1
281
    0
  0
ENDTAB
  0
ENDSEC
  0
SECTION
  2
BLOCKS
  0
BLOCK
  5
20
330
1F
100
AcDbEntity
  8
0
100
AcDbBlockBegin
  2
*Model_Space
 70
    0
 10
0
 20
0
 30
0
  3
*Model_Space
  1

  0
ENDBLK
  5
21
330
1F
100
AcDbEntity
  8
0
100
AcDbBlockEnd
  0
BLOCK
  5
1C
330
1B
100
AcDbEntity
  8
0
100
AcDbBlockBegin
  2
*Paper_Space
 70
    0
 10
0
 20
0
 30
0
  3
*Paper_Space
  1

  0
ENDBLK
  5
1D
330
1F
100
AcDbEntity
  8
0
100
AcDbBlockEnd
  0
ENDSEC
  0
SECTION
  2
ENTITIES
  0
LINE
  5
4F
100
AcDbEntity
  8
color#ffffffff
  6
ByLayer
 62
  256
370
   -1
100
AcDbLine
 10
0.110543327804956
 20
3.292742962043784
 11
0.1198107419056826
 21
3.299617817062701
  0
LINE
  5
50
100
AcDbEntity
  8
color#ffffffff
  6
ByLayer
 62
  256
370
   -1
100
AcDbLine
 10
0.1198107419056826
 20
3.299617817062701
 11
0.1292740883187503
 21
3.305691992863416
  0
LINE
  5
51
100
AcDbEntity
  8
color#ffffffff
  6
ByLayer
 62
  256
370
   -1
100
AcDbLine
 10
0.1292740883187503
 20
3.305691992863416
 11
0.1389214886333979
 21
3.311001341738992
  0
LINE
  5
52
100
AcDbEntity
  8
color#ffffffff
  6
ByLayer
 62
  256
370
   -1
100
AcDbLine
 10
0.1389214886333979
 20
3.311001341738992
 11
0.1487410644388642
 21
3.315581715982491
  0
LINE
  5
53
100
AcDbEntity
  8
color#ffffffff
  6
ByLayer
 62
  256
370
   -1
100
AcDbLine
 10
0.1487410644388642
 20
3.315581715982491
 11
0.1587209373243879
 21
3.319468967886974
  0
LINE
  5
54
100
AcDbEntity
  8
color#ffffffff
  6
ByLayer
 62
  256
370
   -1
100
AcDbLine
 10
0.1587209373243879
 20
3.319468967886974
 11
0.1688492288792077
 21
3.322698949745503
  0
LINE
  5
55
100
AcDbEntity
  8
color#ffffffff
  6
ByLayer
 62
  256
370
   -1
100
AcDbLine
 10
0.1688492288792077
 20
3.322698949745503
 11
0.1791140606925626
 21
3.325307513851142
  0
LINE
  5
56
100
AcDbEntity
  8
color#ffffffff
  6
ByLayer
 62
  256
370
   -1
100
AcDbLine
 10
0.1791140606925626
 20
3.325307513851142
 11
0.1895035543536911
 21
3.32733051249695
  0
LINE
  5
57
100
AcDbEntity
  8
color#ffffffff
  6
ByLayer
 62
  256
370
   -1
100
AcDbLine
 10
0.1895035543536911
 20
3.32733051249695
 11
0.200005831451832
 21
3.32880379797599
  0
LINE
  5
58
100
AcDbEntity
  8
color#ffffffff
  6
ByLayer
 62
  256
370
   -1
100
AcDbLine
 10
0.200005831451832
 20
3.32880379797599
 11
0.2106090135762242
 21
3.329763222581325
  0
LINE
  5
59
100
AcDbEntity
  8
color#ffffffff
  6
ByLayer
 62
  256
370
   -1
100
AcDbLine
 10
0.2106090135762242
 20
3.329763222581325
 11
0.2213012223161063
 21
3.330244638606016
  0
LINE
  5
5A
100
AcDbEntity
  8
color#ffffffff
  6
ByLayer
 62
  256
370
   -1
100
AcDbLine
 10
0.2213012223161063
 20
3.330244638606016
 11
0.2320705792607172
 21
3.330283898343125
  0
LINE
  5
5B
100
AcDbEntity
  8
color#ffffffff
  6
ByLayer
 62
  256
370
   -1
100
AcDbLine
 10
0.2320705792607172
 20
3.330283898343125
 11
0.2429052059992955
 21
3.329916854085714
  0
LINE
  5
5C
100
AcDbEntity
  8
color#ffffffff
  6
ByLayer
 62
  256
370
   -1
100
AcDbLine
 10
0.2429052059992955
 20
3.329916854085714
 11
0.25379322412108
 21
3.329179358126845
  0
LINE
  5
5D
100
AcDbEntity
  8
color#ffffffff
  6
ByLayer
 62
  256
370
   -1
100
AcDbLine
 10
0.25379322412108
 20
3.329179358126845
 11
0.2756819208712228
 21
3.326736420276981
  0
LINE
  5
5E
100
AcDbEntity
  8
color#ffffffff
  6
ByLayer
 62
  256
370
   -1
100
AcDbLine
 10
0.2756819208712228
 20
3.326736420276981
 11
0.2976416422250556
 21
3.323241903138027
  0
LINE
  5
5F
100
AcDbEntity
  8
color#ffffffff
  6
ByLayer
 62
  256
370
   -1
100
AcDbLine
 10
0.2976416422250556
 20
3.323241903138027
 11
0.3736880292746054
 21
3.306870846098767
  0
LINE
  5
60
100
AcDbEntity
  8
color#ffffffff
  6
ByLayer
 62
  256
370
   -1
100
AcDbLine
 10
0.3736880292746054
 20
3.306870846098767
 11
0.4154431426149501
 21
3.298042273850958
  0
LINE
  5
61
100
AcDbEntity
  8
color#ffffffff
  6
ByLayer
 62
  256
370
   -1
100
AcDbLine
 10
0.4154431426149501
 20
3.298042273850958
 11
0.4333992361348829
 21
3.29187065513285
  0
LINE
  5
62
100
AcDbEntity
  8
color#ffffffff
  6
ByLayer
 62
  256
370
   -1
100
AcDbLine
 10
0.4333992361348829
 20
3.29187065513285
 11
0.5046328047991562
 21
3.265600927738843
  0
LINE
  5
63
100
AcDbEntity
  8
color#ffffffff
  6
ByLayer
 62
  256
370
   -1
100
AcDbLine
 10
0.5046328047991562
 20
3.265600927738843
 11
0.5923959143676778
 21
3.229482057481501
  0
LINE
  5
64
100
AcDbEntity
  8
color#ffffffff
  6
ByLayer
 62
  256
370
   -1
100
AcDbLine
 10
0.5923959143676778
 20
3.229482057481501
 11
0.7130277886981152
 21
3.173627858607571
  0
LINE
  5
65
100
AcDbEntity
  8
color#ffffffff
  6
ByLayer
 62
  256
370
   -1
100
AcDbLine
 10
0.7130277886981152
 20
3.173627858607571
 11
0.91436844919571
 21
3.066937439336629
  0
LINE
  5
66
100
AcDbEntity
  8
color#ffffffff
  6
ByLayer
 62
  256
370
   -1
100
AcDbLine
 10
0.91436844919571
 20
3.066937439336629
 11
1.071423583277339
 21
2.965430722286556
  0
LINE
  5
67
100
AcDbEntity
  8
color#ffffffff
  6
ByLayer
 62
  256
370
   -1
100
AcDbLine
 10
1.071423583277339
 20
2.965430722286556
 11
1.140609019878719
 21
2.913901874648814
  0
LINE
  5
68
100
AcDbEntity
  8
color#ffffffff
  6
ByLayer
 62
  256
370
   -1
100
AcDbLine
 10
1.140609019878719
 20
2.913901874648814
 11
1.184814966256698
 21
2.877174103037743
  0
LINE
  5
69
100
AcDbEntity
  8
color#ffffffff
  6
ByLayer
 62
  256
370
   -1
100
AcDbLine
 10
1.184814966256698
 20
2.877174103037743
 11
1.216737348860122
 21
2.848163708765151
  0
LINE
  5
6A
100
AcDbEntity
  8
color#ffffffff
  6
ByLayer
 62
  256
370
   -1
100
AcDbLine
 10
1.216737348860122
 20
2.848163708765151
 11
1.247455118352273
 21
2.817754511827552
  0
LINE
  5
6B
100
AcDbEntity
  8
color#ffffffff
  6
ByLayer
 62
  256
370
   -1
100
AcDbLine
 10
1.247455118352273
 20
2.817754511827552
 11
1.275865182371875
 21
2.786055444139122
  0
LINE
  5
6C
100
AcDbEntity
  8
color#ffffffff
  6
ByLayer
 62
  256
370
   -1
100
AcDbLine
 10
1.275865182371875
 20
2.786055444139122
 11
1.430650136880439
 21
2.570139483737408
  0
LINE
  5
6D
100
AcDbEntity
  8
color#ffffffff
  6
ByLayer
 62
  256
370
   -1
100
AcDbLine
 10
1.430650136880439
 20
2.570139483737408
 11
1.554381053087337
 21
2.378052934122259
  0
LINE
  5
6E
100
AcDbEntity
  8
color#ffffffff
  6
ByLayer
 62
  256
370
   -1
100
AcDbLine
 10
1.554381053087337
 20
2.378052934122259
 11
1.621719331511234
 21
2.263056643560555
  0
LINE
  5
6F
100
AcDbEntity
  8
color#ffffffff
  6
ByLayer
 62
  256
370
   -1
100
AcDbLine
 10
1.621719331511234
 20
2.263056643560555
 11
1.657487744595215
 21
2.195873589300106
  0
LINE
  5
70
100
AcDbEntity
  8
color#ffffffff
  6
ByLayer
 62
  256
370
   -1
100
AcDbLine
 10
1.657487744595215
 20
2.195873589300106
 11
1.682697877724121
 21
2.144640091074316
  0
LINE
  5
71
100
AcDbEntity
  8
color#ffffffff
  6
ByLayer
 62
  256
370
   -1
100
AcDbLine
 10
1.682697877724121
 20
2.144640091074316
 11
1.706325279987779
 21
2.092592990865868
  0
LINE
  5
72
100
AcDbEntity
  8
color#ffffffff
  6
ByLayer
 62
  256
370
   -1
100
AcDbLine
 10
1.706325279987779
 20
2.092592990865868
 11
1.732290749599654
 21
2.090980657544872
  0
LINE
  5
73
100
AcDbEntity
  8
color#ffffffff
  6
ByLayer
 62
  256
370
   -1
100
AcDbLine
 10
1.732290749599654
 20
2.090980657544872
 11
1.732079256205855
 21
2.130282190162124
  0
LINE
  5
74
100
AcDbEntity
  8
color#ffffffff
  6
ByLayer
 62
  256
370
   -1
100
AcDbLine
 10
1.732079256205855
 20
2.130282190162124
 11
1.728704710197147
 21
2.134093679221389
  0
LINE
  5
75
100
AcDbEntity
  8
color#ffffffff
  6
ByLayer
 62
  256
370
   -1
100
AcDbLine
 10
1.728704710197147
 20
2.134093679221389
 11
1.722675370949523
 21
2.142013627073841
  0
LINE
  5
76
100
AcDbEntity
  8
color#ffffffff
  6
ByLayer
 62
  256
370
   -1
100
AcDbLine
 10
1.722675370949523
 20
2.142013627073841
 11
1.71760664442315
 21
2.15027973988018
  0
LINE
  5
77
100
AcDbEntity
  8
color#ffffffff
  6
ByLayer
 62
  256
370
   -1
100
AcDbLine
 10
1.71760664442315
 20
2.15027973988018
 11
1.713499661451864
 21
2.158832264010798
  0
LINE
  5
78
100
AcDbEntity
  8
color#ffffffff
  6
ByLayer
 62
  256
370
   -1
100
AcDbLine
 10
1.713499661451864
 20
2.158832264010798
 11
1.710355552869501
 21
2.167611445836088
  0
LINE
  5
79
100
AcDbEntity
  8
color#ffffffff
  6
ByLayer
 62
  256
370
   -1
100
AcDbLine
 10
1.710355552869501
 20
2.167611445836088
 11
1.708175449509894
 21
2.176557531726441
  0
LINE
  5
7A
100
AcDbEntity
  8
color#ffffffff
  6
ByLayer
 62
  256
370
   -1
100
AcDbLine
 10
1.708175449509894
 20
2.176557531726441
 11
1.706960482206881
 21
2.185610768052248
  0
LINE
  5
7B
100
AcDbEntity
  8
color#ffffffff
  6
ByLayer
 62
  256
370
   -1
100
AcDbLine
 10
1.706960482206881
 20
2.185610768052248
 11
1.706711781794295
 21
2.194711401183902
  0
LINE
  5
7C
100
AcDbEntity
  8
color#ffffffff
  6
ByLayer
 62
  256
370
   -1
100
AcDbLine
 10
1.706711781794295
 20
2.194711401183902
 11
1.707430479105971
 21
2.203799677491794
  0
LINE
  5
7D
100
AcDbEntity
  8
color#ffffffff
  6
ByLayer
 62
  256
370
   -1
100
AcDbLine
 10
1.707430479105971
 20
2.203799677491794
 11
1.709117704975745
 21
2.212815843346318
  0
LINE
  5
7E
100
AcDbEntity
  8
color#ffffffff
  6
ByLayer
 62
  256
370
   -1
100
AcDbLine
 10
1.709117704975745
 20
2.212815843346318
 11
1.711774590237453
 21
2.221700145117861
  0
LINE
  5
7F
100
AcDbEntity
  8
color#ffffffff
  6
ByLayer
 62
  256
370
   -1
100
AcDbLine
 10
1.711774590237453
 20
2.221700145117861
 11
1.715402265724928
 21
2.230392829176818
  0
LINE
  5
80
100
AcDbEntity
  8
color#ffffffff
  6
ByLayer
 62
  256
370
   -1
100
AcDbLine
 10
1.715402265724928
 20
2.230392829176818
 11
1.720001862272007
 21
2.238834141893582
  0
LINE
  5
81
100
AcDbEntity
  8
color#ffffffff
  6
ByLayer
 62
  256
370
   -1
100
AcDbLine
 10
1.720001862272007
 20
2.238834141893582
 11
1.725574510712524
 21
2.246964329638541
  0
LINE
  5
82
100
AcDbEntity
  8
color#ffffffff
  6
ByLayer
 62
  256
370
   -1
100
AcDbLine
 10
1.725574510712524
 20
2.246964329638541
 11
1.732121341880315
 21
2.25472363878209
  0
LINE
  5
83
100
AcDbEntity
  8
color#ffffffff
  6
ByLayer
 62
  256
370
   -1
100
AcDbLine
 10
1.732121341880315
 20
2.25472363878209
 11
1.495704641498281
 21
2.797289496484216
  0
LINE
  5
84
100
AcDbEntity
  8
color#ffffffff
  6
ByLayer
 62
  256
370
   -1
100
AcDbLine
 10
1.495704641498281
 20
2.797289496484216
 11
1.513784697686272
 21
2.806401411023219
  0
LINE
  5
85
100
AcDbEntity
  8
color#ffffffff
  6
ByLayer
 62
  256
370
   -1
100
AcDbLine
 10
1.513784697686272
 20
2.806401411023219
 11
1.750183988894707
 21
2.262202737651207
  0
LINE
  5
86
100
AcDbEntity
  8
color#ffffffff
  6
ByLayer
 62
  256
370
   -1
100
AcDbLine
 10
1.750183988894708
 20
2.262202737651207
 11
1.812171171565027
 21
2.255406029110341
  0
LINE
  5
87
100
AcDbEntity
  8
color#ffffffff
  6
ByLayer
 62
  256
370
   -1
100
AcDbLine
 10
1.812171171565027
 20
2.255406029110341
 11
2.05821378551543
 21
2.811911819104807
  0
LINE
  5
88
100
AcDbEntity
  8
color#ffffffff
  6
ByLayer
 62
  256
370
   -1
100
AcDbLine
 10
2.05821378551543
 20
2.811911819104807
 11
2.060328395665152
 21
2.802200583262051
  0
LINE
  5
89
100
AcDbEntity
  8
color#ffffffff
  6
ByLayer
 62
  256
370
   -1
100
AcDbLine
 10
2.060328395665152
 20
2.802200583262051
 11
2.06050094137066
 21
2.786408501425493
  0
LINE
  5
8A
100
AcDbEntity
  8
color#ffffffff
  6
ByLayer
 62
  256
370
   -1
100
AcDbLine
 10
2.06050094137066
 20
2.786408501425493
 11
2.037755462328271
 21
2.723802135891182
  0
LINE
  5
8B
100
AcDbEntity
  8
color#ffffffff
  6
ByLayer
 62
  256
370
   -1
100
AcDbLine
 10
2.037755462328271
 20
2.723802135891182
 11
1.828680605880048
 21
2.245327106375172
  0
LINE
  5
8C
100
AcDbEntity
  8
color#ffffffff
  6
ByLayer
 62
  256
370
   -1
100
AcDbLine
 10
1.828680605880048
 20
2.245327106375172
 11
1.831669957199026
 21
2.240089761949027
  0
LINE
  5
8D
100
AcDbEntity
  8
color#ffffffff
  6
ByLayer
 62
  256
370
   -1
100
AcDbLine
 10
1.831669957199026
 20
2.240089761949027
 11
1.834192458174025
 21
2.234850298027411
  0
LINE
  5
8E
100
AcDbEntity
  8
color#ffffffff
  6
ByLayer
 62
  256
370
   -1
100
AcDbLine
 10
1.834192458174025
 20
2.234850298027411
 11
1.836274438499725
 21
2.22960827423396
  0
LINE
  5
8F
100
AcDbEntity
  8
color#ffffffff
  6
ByLayer
 62
  256
370
   -1
100
AcDbLine
 10
1.836274438499725
 20
2.22960827423396
 11
1.837942227870808
 21
2.224363250192308
  0
LINE
  5
90
100
AcDbEntity
  8
color#ffffffff
  6
ByLayer
 62
  256
370
   -1
100
AcDbLine
 10
1.837942227870808
 20
2.224363250192308
 11
1.839222155981954
 21
2.219114785526088
  0
LINE
  5
91
100
AcDbEntity
  8
color#ffffffff
  6
ByLayer
 62
  256
370
   -1
100
AcDbLine
 10
1.839222155981954
 20
2.219114785526088
 11
1.840140552527844
 21
2.213862439858937
  0
LINE
  5
92
100
AcDbEntity
  8
color#ffffffff
  6
ByLayer
 62
  256
370
   -1
100
AcDbLine
 10
1.840140552527844
 20
2.213862439858937
 11
1.84072374720316
 21
2.208605772814487
  0
LINE
  5
93
100
AcDbEntity
  8
color#ffffffff
  6
ByLayer
 62
  256
370
   -1
100
AcDbLine
 10
1.84072374720316
 20
2.208605772814487
 11
1.840989849720793
 21
2.198077713088233
  0
LINE
  5
94
100
AcDbEntity
  8
color#ffffffff
  6
ByLayer
 62
  256
370
   -1
100
AcDbLine
 10
1.840989849720793
 20
2.198077713088233
 11
1.840231101092299
 21
2.187527083336401
  0
LINE
  5
95
100
AcDbEntity
  8
color#ffffffff
  6
ByLayer
 62
  256
370
   -1
100
AcDbLine
 10
1.840231101092299
 20
2.187527083336401
 11
1.827151635247065
 21
2.128937745943453
  0
LINE
  5
96
100
AcDbEntity
  8
color#ffffffff
  6
ByLayer
 62
  256
370
   -1
100
AcDbLine
 10
1.827151635247065
 20
2.128937745943453
 11
1.822542977697635
 21
2.101886763090054
  0
LINE
  5
97
100
AcDbEntity
  8
color#ffffffff
  6
ByLayer
 62
  256
370
   -1
100
AcDbLine
 10
1.822542977697635
 20
2.101886763090054
 11
1.822039258839188
 21
2.090974467616438
  0
LINE
  5
98
100
AcDbEntity
  8
color#ffffffff
  6
ByLayer
 62
  256
370
   -1
100
AcDbLine
 10
1.822039258839188
 20
2.090974467616438
 11
1.826395706531083
 21
2.091175761526572
  0
LINE
  5
99
100
AcDbEntity
  8
color#ffffffff
  6
ByLayer
 62
  256
370
   -1
100
AcDbLine
 10
1.826395706531083
 20
2.091175761526572
 11
1.830479608082938
 21
2.09170855132687
  0
LINE
  5
9A
100
AcDbEntity
  8
color#ffffffff
  6
ByLayer
 62
  256
370
   -1
100
AcDbLine
 10
1.830479608082938
 20
2.09170855132687
 11
1.834304364967974
 21
2.092555875465881
  0
LINE
  5
9B
100
AcDbEntity
  8
color#ffffffff
  6
ByLayer
 62
  256
370
   -1
100
AcDbLine
 10
1.834304364967974
 20
2.092555875465881
 11
1.837883378659412
 21
2.093700772392153
  0
LINE
  5
9C
100
AcDbEntity
  8
color#ffffffff
  6
ByLayer
 62
  256
370
   -1
100
AcDbLine
 10
1.837883378659412
 20
2.093700772392153
 11
1.841230050630475
 21
2.095126280554235
  0
LINE
  5
9D
100
AcDbEntity
  8
color#ffffffff
  6
ByLayer
 62
  256
370
   -1
100
AcDbLine
 10
1.841230050630475
 20
2.095126280554235
 11
1.844357782354384
 21
2.096815438400677
  0
LINE
  5
9E
100
AcDbEntity
  8
color#ffffffff
  6
ByLayer
 62
  256
370
   -1
100
AcDbLine
 10
1.844357782354384
 20
2.096815438400677
 11
1.84727997530436
 21
2.098751284380025
  0
LINE
  5
9F
100
AcDbEntity
  8
color#ffffffff
  6
ByLayer
 62
  256
370
   -1
100
AcDbLine
 10
1.84727997530436
 20
2.098751284380025
 11
1.852561350775404
 21
2.103295194531639
  0
LINE
  5
A0
100
AcDbEntity
  8
color#ffffffff
  6
ByLayer
 62
  256
370
   -1
100
AcDbLine
 10
1.852561350775404
 20
2.103295194531639
 11
1.857181388829379
 21
2.108622318597468
  0
LINE
  5
A1
100
AcDbEntity
  8
color#ffffffff
  6
ByLayer
 62
  256
370
   -1
100
AcDbLine
 10
1.857181388829379
 20
2.108622318597468
 11
1.864866299829217
 21
2.121083438825326
  0
LINE
  5
A2
100
AcDbEntity
  8
color#ffffffff
  6
ByLayer
 62
  256
370
   -1
100
AcDbLine
 10
1.864866299829217
 20
2.121083438825326
 11
1.886691492199684
 21
2.169421813413862
  0
LINE
  5
A3
100
AcDbEntity
  8
color#ffffffff
  6
ByLayer
 62
  256
370
   -1
100
AcDbLine
 10
1.886691492199684
 20
2.169421813413862
 11
1.917301278536008
 21
2.228682238744799
  0
LINE
  5
A4
100
AcDbEntity
  8
color#ffffffff
  6
ByLayer
 62
  256
370
   -1
100
AcDbLine
 10
1.917301278536008
 20
2.228682238744799
 11
1.960411297146723
 21
2.30640766405747
  0
LINE
  5
A5
100
AcDbEntity
  8
color#ffffffff
  6
ByLayer
 62
  256
370
   -1
100
AcDbLine
 10
1.960411297146723
 20
2.30640766405747
 11
2.017417211199486
 21
2.401779180900182
  0
LINE
  5
A6
100
AcDbEntity
  8
color#ffffffff
  6
ByLayer
 62
  256
370
   -1
100
AcDbLine
 10
2.017417211199486
 20
2.401779180900182
 11
2.226833334425178
 21
2.716345897296102
  0
LINE
  5
A7
100
AcDbEntity
  8
color#ffffffff
  6
ByLayer
 62
  256
370
   -1
100
AcDbLine
 10
2.226833334425178
 20
2.716345897296102
 11
2.237815520499877
 21
2.731833577144938
  0
LINE
  5
A8
100
AcDbEntity
  8
color#ffffffff
  6
ByLayer
 62
  256
370
   -1
100
AcDbLine
 10
2.237815520499877
 20
2.731833577144938
 11
2.249148610455052
 21
2.746994647092737
  0
LINE
  5
A9
100
AcDbEntity
  8
color#ffffffff
  6
ByLayer
 62
  256
370
   -1
100
AcDbLine
 10
2.249148610455052
 20
2.746994647092737
 11
2.260819885048063
 21
2.761838180867363
  0
LINE
  5
AA
100
AcDbEntity
  8
color#ffffffff
  6
ByLayer
 62
  256
370
   -1
100
AcDbLine
 10
2.260819885048063
 20
2.761838180867363
 11
2.272816625036272
 21
2.776373252196683
  0
LINE
  5
AB
100
AcDbEntity
  8
color#ffffffff
  6
ByLayer
 62
  256
370
   -1
100
AcDbLine
 10
2.272816625036272
 20
2.776373252196683
 11
2.285126111177037
 21
2.790608934808561
  0
LINE
  5
AC
100
AcDbEntity
  8
color#ffffffff
  6
ByLayer
 62
  256
370
   -1
100
AcDbLine
 10
2.285126111177037
 20
2.790608934808561
 11
2.297735624227721
 21
2.804554302430863
  0
LINE
  5
AD
100
AcDbEntity
  8
color#ffffffff
  6
ByLayer
 62
  256
370
   -1
100
AcDbLine
 10
2.297735624227721
 20
2.804554302430863
 11
2.310632444945683
 21
2.818218428791456
  0
LINE
  5
AE
100
AcDbEntity
  8
color#ffffffff
  6
ByLayer
 62
  256
370
   -1
100
AcDbLine
 10
2.310632444945683
 20
2.818218428791456
 11
2.323803854088282
 21
2.831610387618206
  0
LINE
  5
AF
100
AcDbEntity
  8
color#ffffffff
  6
ByLayer
 62
  256
370
   -1
100
AcDbLine
 10
2.323803854088282
 20
2.831610387618206
 11
2.337237132412881
 21
2.844739252638978
  0
LINE
  5
B0
100
AcDbEntity
  8
color#ffffffff
  6
ByLayer
 62
  256
370
   -1
100
AcDbLine
 10
2.337237132412881
 20
2.844739252638978
 11
2.350919560676838
 21
2.857614097581637
  0
LINE
  5
B1
100
AcDbEntity
  8
color#ffffffff
  6
ByLayer
 62
  256
370
   -1
100
AcDbLine
 10
2.350919560676838
 20
2.857614097581637
 11
2.364838419637513
 21
2.87024399617405
  0
LINE
  5
B2
100
AcDbEntity
  8
color#ffffffff
  6
ByLayer
 62
  256
370
   -1
100
AcDbLine
 10
2.364838419637513
 20
2.87024399617405
 11
2.393334552678465
 21
2.894805249219599
  0
LINE
  5
B3
100
AcDbEntity
  8
color#ffffffff
  6
ByLayer
 62
  256
370
   -1
100
AcDbLine
 10
2.393334552678465
 20
2.894805249219599
 11
2.422623777594616
 21
2.918495601598551
  0
LINE
  5
B4
100
AcDbEntity
  8
color#ffffffff
  6
ByLayer
 62
  256
370
   -1
100
AcDbLine
 10
2.422623777594616
 20
2.918495601598551
 11
2.452604340444849
 21
2.941387643133832
  0
LINE
  5
B5
100
AcDbEntity
  8
color#ffffffff
  6
ByLayer
 62
  256
370
   -1
100
AcDbLine
 10
2.452604340444849
 20
2.941387643133832
 11
2.483174487288047
 21
2.963553963648369
  0
LINE
  5
B6
100
AcDbEntity
  8
color#ffffffff
  6
ByLayer
 62
  256
370
   -1
100
AcDbLine
 10
2.483174487288047
 20
2.963553963648369
 11
2.529912590793457
 21
2.995601507743927
  0
LINE
  5
B7
100
AcDbEntity
  8
color#ffffffff
  6
ByLayer
 62
  256
370
   -1
100
AcDbLine
 10
2.529912590793457
 20
2.995601507743927
 11
2.641307593459389
 21
3.066040394712287
  0
LINE
  5
B8
100
AcDbEntity
  8
color#ffffffff
  6
ByLayer
 62
  256
370
   -1
100
AcDbLine
 10
2.641307593459389
 20
3.066040394712287
 11
2.674362924769256
 21
3.084765711887461
  0
LINE
  5
B9
100
AcDbEntity
  8
color#ffffffff
  6
ByLayer
 62
  256
370
   -1
100
AcDbLine
 10
2.674362924769256
 20
3.084765711887461
 11
2.825569395443919
 21
3.164734060799031
  0
LINE
  5
BA
100
AcDbEntity
  8
color#ffffffff
  6
ByLayer
 62
  256
370
   -1
100
AcDbLine
 10
2.825569395443919
 20
3.164734060799031
 11
2.94600102296439
 21
3.221263298496807
  0
LINE
  5
BB
100
AcDbEntity
  8
color#ffffffff
  6
ByLayer
 62
  256
370
   -1
100
AcDbLine
 10
2.94600102296439
 20
3.221263298496807
 11
3.051236162168415
 21
3.265080940935007
  0
LINE
  5
BC
100
AcDbEntity
  8
color#ffffffff
  6
ByLayer
 62
  256
370
   -1
100
AcDbLine
 10
3.051236162168415
 20
3.265080940935007
 11
3.1403708234137
 21
3.297929535093509
  0
LINE
  5
BD
100
AcDbEntity
  8
color#ffffffff
  6
ByLayer
 62
  256
370
   -1
100
AcDbLine
 10
3.1403708234137
 20
3.297929535093509
 11
3.161069872308805
 21
3.302156473076799
  0
LINE
  5
BE
100
AcDbEntity
  8
color#ffffffff
  6
ByLayer
 62
  256
370
   -1
100
AcDbLine
 10
3.161069872308805
 20
3.302156473076799
 11
3.247483278676201
 21
3.321265650596065
  0
LINE
  5
BF
100
AcDbEntity
  8
color#ffffffff
  6
ByLayer
 62
  256
370
   -1
100
AcDbLine
 10
3.247483278676201
 20
3.321265650596065
 11
3.280528703767748
 21
3.326809650789122
  0
LINE
  5
C0
100
AcDbEntity
  8
color#ffffffff
  6
ByLayer
 62
  256
370
   -1
100
AcDbLine
 10
3.280528703767748
 20
3.326809650789122
 11
3.302494955634208
 21
3.329247477945824
  0
LINE
  5
C1
100
AcDbEntity
  8
color#ffffffff
  6
ByLayer
 62
  256
370
   -1
100
AcDbLine
 10
3.302494955634208
 20
3.329247477945824
 11
3.313423136371478
 21
3.329982784551556
  0
LINE
  5
C2
100
AcDbEntity
  8
color#ffffffff
  6
ByLayer
 62
  256
370
   -1
100
AcDbLine
 10
3.313423136371478
 20
3.329982784551556
 11
3.32429880442807
 21
3.330348506472867
  0
LINE
  5
C3
100
AcDbEntity
  8
color#ffffffff
  6
ByLayer
 62
  256
370
   -1
100
AcDbLine
 10
3.32429880442807
 20
3.330348506472867
 11
3.335110047891452
 21
3.330309258682751
  0
LINE
  5
C4
100
AcDbEntity
  8
color#ffffffff
  6
ByLayer
 62
  256
370
   -1
100
AcDbLine
 10
3.335110047891452
 20
3.330309258682751
 11
3.345844954849097
 21
3.329829656154202
  0
LINE
  5
C5
100
AcDbEntity
  8
color#ffffffff
  6
ByLayer
 62
  256
370
   -1
100
AcDbLine
 10
3.345844954849097
 20
3.329829656154202
 11
3.356491613388475
 21
3.328874313860214
  0
LINE
  5
C6
100
AcDbEntity
  8
color#ffffffff
  6
ByLayer
 62
  256
370
   -1
100
AcDbLine
 10
3.356491613388475
 20
3.328874313860214
 11
3.367038111597055
 21
3.327407846773781
  0
LINE
  5
C7
100
AcDbEntity
  8
color#ffffffff
  6
ByLayer
 62
  256
370
   -1
100
AcDbLine
 10
3.367038111597055
 20
3.327407846773781
 11
3.377472537562308
 21
3.325394869867896
  0
LINE
  5
C8
100
AcDbEntity
  8
color#ffffffff
  6
ByLayer
 62
  256
370
   -1
100
AcDbLine
 10
3.377472537562308
 20
3.325394869867896
 11
3.387782979371707
 21
3.322799998115553
  0
LINE
  5
C9
100
AcDbEntity
  8
color#ffffffff
  6
ByLayer
 62
  256
370
   -1
100
AcDbLine
 10
3.387782979371707
 20
3.322799998115553
 11
3.39795752511272
 21
3.319587846489747
  0
LINE
  5
CA
100
AcDbEntity
  8
color#ffffffff
  6
ByLayer
 62
  256
370
   -1
100
AcDbLine
 10
3.39795752511272
 20
3.319587846489747
 11
3.407984262872817
 21
3.31572302996347
  0
LINE
  5
CB
100
AcDbEntity
  8
color#ffffffff
  6
ByLayer
 62
  256
370
   -1
100
AcDbLine
 10
3.407984262872817
 20
3.31572302996347
 11
3.417851280739472
 21
3.311170163509718
  0
LINE
  5
CC
100
AcDbEntity
  8
color#ffffffff
  6
ByLayer
 62
  256
370
   -1
100
AcDbLine
 10
3.417851280739472
 20
3.311170163509718
 11
3.427546666800152
 21
3.305893862101484
  0
LINE
  5
CD
100
AcDbEntity
  8
color#ffffffff
  6
ByLayer
 62
  256
370
   -1
100
AcDbLine
 10
3.427546666800152
 20
3.305893862101484
 11
3.43705850914233
 21
3.299858740711761
  0
LINE
  5
CE
100
AcDbEntity
  8
color#ffffffff
  6
ByLayer
 62
  256
370
   -1
100
AcDbLine
 10
3.43705850914233
 20
3.299858740711761
 11
3.446374895853474
 21
3.293029414313544
  0
LINE
  5
CF
100
AcDbEntity
  8
color#ffffffff
  6
ByLayer
 62
  256
370
   -1
100
AcDbLine
 10
3.446374895853474
 20
3.293029414313544
 11
3.454803933083652
 21
3.285282881733786
  0
LINE
  5
D0
100
AcDbEntity
  8
color#ffffffff
  6
ByLayer
 62
  256
370
   -1
100
AcDbLine
 10
3.454803933083652
 20
3.285282881733786
 11
3.462781576919452
 21
3.277229986031117
  0
LINE
  5
D1
100
AcDbEntity
  8
color#ffffffff
  6
ByLayer
 62
  256
370
   -1
100
AcDbLine
 10
3.462781576919452
 20
3.277229986031117
 11
3.470320964826156
 21
3.268884968805551
  0
LINE
  5
D2
100
AcDbEntity
  8
color#ffffffff
  6
ByLayer
 62
  256
370
   -1
100
AcDbLine
 10
3.470320964826156
 20
3.268884968805551
 11
3.477435234269049
 21
3.260262071657102
  0
LINE
  5
D3
100
AcDbEntity
  8
color#ffffffff
  6
ByLayer
 62
  256
370
   -1
100
AcDbLine
 10
3.477435234269049
 20
3.260262071657102
 11
3.484137522713413
 21
3.251375536185785
  0
LINE
  5
D4
100
AcDbEntity
  8
color#ffffffff
  6
ByLayer
 62
  256
370
   -1
100
AcDbLine
 10
3.484137522713413
 20
3.251375536185785
 11
3.49044096762453
 21
3.242239603991612
  0
LINE
  5
D5
100
AcDbEntity
  8
color#ffffffff
  6
ByLayer
 62
  256
370
   -1
100
AcDbLine
 10
3.49044096762453
 20
3.242239603991612
 11
3.496358706467686
 21
3.232868516674599
  0
LINE
  5
D6
100
AcDbEntity
  8
color#ffffffff
  6
ByLayer
 62
  256
370
   -1
100
AcDbLine
 10
3.496358706467686
 20
3.232868516674599
 11
3.501903876708161
 21
3.223276515834759
  0
LINE
  5
D7
100
AcDbEntity
  8
color#ffffffff
  6
ByLayer
 62
  256
370
   -1
100
AcDbLine
 10
3.501903876708161
 20
3.223276515834759
 11
3.507089615811239
 21
3.213477843072107
  0
LINE
  5
D8
100
AcDbEntity
  8
color#ffffffff
  6
ByLayer
 62
  256
370
   -1
100
AcDbLine
 10
3.507089615811239
 20
3.213477843072107
 11
3.511929061242204
 21
3.203486739986657
  0
LINE
  5
D9
100
AcDbEntity
  8
color#ffffffff
  6
ByLayer
 62
  256
370
   -1
100
AcDbLine
 10
3.511929061242204
 20
3.203486739986657
 11
3.51643535046634
 21
3.193317448178423
  0
LINE
  5
DA
100
AcDbEntity
  8
color#ffffffff
  6
ByLayer
 62
  256
370
   -1
100
AcDbLine
 10
3.51643535046634
 20
3.193317448178423
 11
3.520621620948928
 21
3.182984209247418
  0
LINE
  5
DB
100
AcDbEntity
  8
color#ffffffff
  6
ByLayer
 62
  256
370
   -1
100
AcDbLine
 10
3.520621620948928
 20
3.182984209247418
 11
3.524501010155253
 21
3.172501264793658
  0
LINE
  5
DC
100
AcDbEntity
  8
color#ffffffff
  6
ByLayer
 62
  256
370
   -1
100
AcDbLine
 10
3.524501010155253
 20
3.172501264793658
 11
3.528086655550595
 21
3.161882856417156
  0
LINE
  5
DD
100
AcDbEntity
  8
color#ffffffff
  6
ByLayer
 62
  256
370
   -1
100
AcDbLine
 10
3.528086655550595
 20
3.161882856417156
 11
3.534429264769472
 21
3.140296614295983
  0
LINE
  5
DE
100
AcDbEntity
  8
color#ffffffff
  6
ByLayer
 62
  256
370
   -1
100
AcDbLine
 10
3.534429264769472
 20
3.140296614295983
 11
3.539754548327821
 21
3.118339415684013
  0
LINE
  5
DF
100
AcDbEntity
  8
color#ffffffff
  6
ByLayer
 62
  256
370
   -1
100
AcDbLine
 10
3.539754548327821
 20
3.118339415684013
 11
3.544167605947911
 21
3.096125193381357
  0
LINE
  5
E0
100
AcDbEntity
  8
color#ffffffff
  6
ByLayer
 62
  256
370
   -1
100
AcDbLine
 10
3.544167605947911
 20
3.096125193381357
 11
3.549306674386258
 21
3.062571168507588
  0
LINE
  5
E1
100
AcDbEntity
  8
color#ffffffff
  6
ByLayer
 62
  256
370
   -1
100
AcDbLine
 10
3.549306674386258
 20
3.062571168507588
 11
3.555555555555555
 21
2.996035348050213
  0
LINE
  5
E2
100
AcDbEntity
  8
color#ffffffff
  6
ByLayer
 62
  256
370
   -1
100
AcDbLine
 10
3.555555555555555
 20
2.996035348050213
 11
3.555555555555555
 21
2.913742014463343
  0
LINE
  5
E3
100
AcDbEntity
  8
color#ffffffff
  6
ByLayer
 62
  256
370
   -1
100
AcDbLine
 10
3.555555555555555
 20
2.913742014463343
 11
3.541503918070743
 21
2.893461138033036
  0
LINE
  5
E4
100
AcDbEntity
  8
color#ffffffff
  6
ByLayer
 62
  256
370
   -1
100
AcDbLine
 10
3.541503918070743
 20
2.893461138033036
 11
3.528509637532037
 21
2.872634161708442
  0
LINE
  5
E5
100
AcDbEntity
  8
color#ffffffff
  6
ByLayer
 62
  256
370
   -1
100
AcDbLine
 10
3.528509637532037
 20
2.872634161708442
 11
3.516495805852205
 21
2.851309052649556
  0
LINE
  5
E6
100
AcDbEntity
  8
color#ffffffff
  6
ByLayer
 62
  256
370
   -1
100
AcDbLine
 10
3.516495805852205
 20
2.851309052649556
 11
3.505385514944015
 21
2.829533778016372
  0
LINE
  5
E7
100
AcDbEntity
  8
color#ffffffff
  6
ByLayer
 62
  256
370
   -1
100
AcDbLine
 10
3.505385514944015
 20
2.829533778016372
 11
3.490245981087741
 21
2.796131733777274
  0
LINE
  5
E8
100
AcDbEntity
  8
color#ffffffff
  6
ByLayer
 62
  256
370
   -1
100
AcDbLine
 10
3.490245981087741
 20
2.796131733777274
 11
3.472504519832632
 21
2.750467788775042
  0
LINE
  5
E9
100
AcDbEntity
  8
color#ffffffff
  6
ByLayer
 62
  256
370
   -1
100
AcDbLine
 10
3.472504519832632
 20
2.750467788775042
 11
3.423931543801786
 21
2.585781386505655
  0
LINE
  5
EA
100
AcDbEntity
  8
color#ffffffff
  6
ByLayer
 62
  256
370
   -1
100
AcDbLine
 10
3.423931543801786
 20
2.585781386505655
 11
3.347907590187366
 21
2.19503794484668
  0
LINE
  5
EB
100
AcDbEntity
  8
color#ffffffff
  6
ByLayer
 62
  256
370
   -1
100
AcDbLine
 10
3.347907590187366
 20
2.19503794484668
 11
3.346315503100653
 21
2.182496597179846
  0
LINE
  5
EC
100
AcDbEntity
  8
color#ffffffff
  6
ByLayer
 62
  256
370
   -1
100
AcDbLine
 10
3.346315503100653
 20
2.182496597179846
 11
3.344035129606641
 21
2.17023851387648
  0
LINE
  5
ED
100
AcDbEntity
  8
color#ffffffff
  6
ByLayer
 62
  256
370
   -1
100
AcDbLine
 10
3.344035129606641
 20
2.17023851387648
 11
3.341092362121238
 21
2.15826422582227
  0
LINE
  5
EE
100
AcDbEntity
  8
color#ffffffff
  6
ByLayer
 62
  256
370
   -1
100
AcDbLine
 10
3.341092362121238
 20
2.15826422582227
 11
3.337513093060346
 21
2.146574263902908
  0
LINE
  5
EF
100
AcDbEntity
  8
color#ffffffff
  6
ByLayer
 62
  256
370
   -1
100
AcDbLine
 10
3.337513093060346
 20
2.146574263902908
 11
3.333323214839873
 21
2.135169159004081
  0
LINE
  5
F0
100
AcDbEntity
  8
color#ffffffff
  6
ByLayer
 62
  256
370
   -1
100
AcDbLine
 10
3.333323214839873
 20
2.135169159004081
 11
3.328548619875722
 21
2.124049442011482
  0
LINE
  5
F1
100
AcDbEntity
  8
color#ffffffff
  6
ByLayer
 62
  256
370
   -1
100
AcDbLine
 10
3.328548619875722
 20
2.124049442011482
 11
3.323215200583797
 21
2.113215643810801
  0
LINE
  5
F2
100
AcDbEntity
  8
color#ffffffff
  6
ByLayer
 62
  256
370
   -1
100
AcDbLine
 10
3.323215200583797
 20
2.113215643810801
 11
3.317348849380007
 21
2.102668295287726
  0
LINE
  5
F3
100
AcDbEntity
  8
color#ffffffff
  6
ByLayer
 62
  256
370
   -1
100
AcDbLine
 10
3.317348849380007
 20
2.102668295287726
 11
3.310975458680253
 21
2.092407927327947
  0
LINE
  5
F4
100
AcDbEntity
  8
color#ffffffff
  6
ByLayer
 62
  256
370
   -1
100
AcDbLine
 10
3.310975458680253
 20
2.092407927327947
 11
3.30412092090044
 21
2.082435070817156
  0
LINE
  5
F5
100
AcDbEntity
  8
color#ffffffff
  6
ByLayer
 62
  256
370
   -1
100
AcDbLine
 10
3.30412092090044
 20
2.082435070817156
 11
3.296811128456476
 21
2.072750256641042
  0
LINE
  5
F6
100
AcDbEntity
  8
color#ffffffff
  6
ByLayer
 62
  256
370
   -1
100
AcDbLine
 10
3.296811128456476
 20
2.072750256641042
 11
3.289071973764264
 21
2.063354015685295
  0
LINE
  5
F7
100
AcDbEntity
  8
color#ffffffff
  6
ByLayer
 62
  256
370
   -1
100
AcDbLine
 10
3.289071973764264
 20
2.063354015685295
 11
3.280929349239707
 21
2.054246878835604
  0
LINE
  5
F8
100
AcDbEntity
  8
color#ffffffff
  6
ByLayer
 62
  256
370
   -1
100
AcDbLine
 10
3.280929349239707
 20
2.054246878835604
 11
3.272409147298714
 21
2.045429376977661
  0
LINE
  5
F9
100
AcDbEntity
  8
color#ffffffff
  6
ByLayer
 62
  256
370
   -1
100
AcDbLine
 10
3.272409147298714
 20
2.045429376977661
 11
3.263537260357187
 21
2.036902040997155
  0
LINE
  5
FA
100
AcDbEntity
  8
color#ffffffff
  6
ByLayer
 62
  256
370
   -1
100
AcDbLine
 10
3.263537260357187
 20
2.036902040997155
 11
3.254339580831032
 21
2.028665401779776
  0
LINE
  5
FB
100
AcDbEntity
  8
color#ffffffff
  6
ByLayer
 62
  256
370
   -1
100
AcDbLine
 10
3.254339580831032
 20
2.028665401779776
 11
3.244842001136154
 21
2.020719990211214
  0
LINE
  5
FC
100
AcDbEntity
  8
color#ffffffff
  6
ByLayer
 62
  256
370
   -1
100
AcDbLine
 10
3.244842001136154
 20
2.020719990211214
 11
3.235070413688458
 21
2.013066337177158
  0
LINE
  5
FD
100
AcDbEntity
  8
color#ffffffff
  6
ByLayer
 62
  256
370
   -1
100
AcDbLine
 10
3.235070413688458
 20
2.013066337177158
 11
3.225050710903849
 21
2.005704973563299
  0
LINE
  5
FE
100
AcDbEntity
  8
color#ffffffff
  6
ByLayer
 62
  256
370
   -1
100
AcDbLine
 10
3.225050710903849
 20
2.005704973563299
 11
3.214808785198231
 21
1.998636430255329
  0
LINE
  5
FF
100
AcDbEntity
  8
color#ffffffff
  6
ByLayer
 62
  256
370
   -1
100
AcDbLine
 10
3.214808785198231
 20
1.998636430255329
 11
3.20437052898751
 21
1.991861238138934
  0
LINE
  5
100
100
AcDbEntity
  8
color#ffffffff
  6
ByLayer
 62
  256
370
   -1
100
AcDbLine
 10
3.20437052898751
 20
1.991861238138934
 11
3.19376183468759
 21
1.985379928099806
  0
LINE
  5
101
100
AcDbEntity
  8
color#ffffffff
  6
ByLayer
 62
  256
370
   -1
100
AcDbLine
 10
3.19376183468759
 20
1.985379928099806
 11
3.183008594714378
 21
1.979193031023636
  0
LINE
  5
102
100
AcDbEntity
  8
color#ffffffff
  6
ByLayer
 62
  256
370
   -1
100
AcDbLine
 10
3.183008594714378
 20
1.979193031023636
 11
3.161172047411692
 21
1.967704599302927
  0
LINE
  5
103
100
AcDbEntity
  8
color#ffffffff
  6
ByLayer
 62
  256
370
   -1
100
AcDbLine
 10
3.161172047411692
 20
1.967704599302927
 11
3.139068026406692
 21
1.957400190062325
  0
LINE
  5
104
100
AcDbEntity
  8
color#ffffffff
  6
ByLayer
 62
  256
370
   -1
100
AcDbLine
 10
3.139068026406692
 20
1.957400190062325
 11
3.116903671026616
 21
1.948284050387351
  0
LINE
  5
105
100
AcDbEntity
  8
color#ffffffff
  6
ByLayer
 62
  256
370
   -1
100
AcDbLine
 10
3.116903671026616
 20
1.948284050387351
 11
3.100362035197858
 21
1.94269951294926
  0
LINE
  5
106
100
AcDbEntity
  8
color#ffffffff
  6
ByLayer
 62
  256
370
   -1
100
AcDbLine
 10
3.100362035197858
 20
1.94269951294926
 11
3.083731459670246
 21
1.937471722908862
  0
LINE
  5
107
100
AcDbEntity
  8
color#ffffffff
  6
ByLayer
 62
  256
370
   -1
100
AcDbLine
 10
3.083731459670246
 20
1.937471722908862
 11
3.067016583024547
 21
1.932592831186967
  0
LINE
  5
108
100
AcDbEntity
  8
color#ffffffff
  6
ByLayer
 62
  256
370
   -1
100
AcDbLine
 10
3.067016583024547
 20
1.932592831186967
 11
3.050222043841528
 21
1.928054988704388
  0
LINE
  5
109
100
AcDbEntity
  8
color#ffffffff
  6
ByLayer
 62
  256
370
   -1
100
AcDbLine
 10
3.050222043841528
 20
1.928054988704388
 11
3.033352480701954
 21
1.923850346381937
  0
LINE
  5
10A
100
AcDbEntity
  8
color#ffffffff
  6
ByLayer
 62
  256
370
   -1
100
AcDbLine
 10
3.033352480701954
 20
1.923850346381937
 11
3.01641253218659
 21
1.919971055140425
  0
LINE
  5
10B
100
AcDbEntity
  8
color#ffffffff
  6
ByLayer
 62
  256
370
   -1
100
AcDbLine
 10
3.01641253218659
 20
1.919971055140425
 11
2.999406836876201
 21
1.916409265900666
  0
LINE
  5
10C
100
AcDbEntity
  8
color#ffffffff
  6
ByLayer
 62
  256
370
   -1
100
AcDbLine
 10
2.999406836876201
 20
1.916409265900666
 11
2.965216760193419
 21
1.910206797109649
  0
LINE
  5
10D
100
AcDbEntity
  8
color#ffffffff
  6
ByLayer
 62
  256
370
   -1
100
AcDbLine
 10
2.965216760193419
 20
1.910206797109649
 11
2.930819359299727
 21
1.905180147375383
  0
LINE
  5
10E
100
AcDbEntity
  8
color#ffffffff
  6
ByLayer
 62
  256
370
   -1
100
AcDbLine
 10
2.930819359299727
 20
1.905180147375383
 11
2.896251742841255
 21
1.901266524064362
  0
LINE
  5
10F
100
AcDbEntity
  8
color#ffffffff
  6
ByLayer
 62
  256
370
   -1
100
AcDbLine
 10
2.896251742841255
 20
1.901266524064362
 11
2.861551019464128
 21
1.898403134543084
  0
LINE
  5
110
100
AcDbEntity
  8
color#ffffffff
  6
ByLayer
 62
  256
370
   -1
100
AcDbLine
 10
2.861551019464128
 20
1.898403134543084
 11
2.82675429781447
 21
1.896527186178043
  0
LINE
  5
111
100
AcDbEntity
  8
color#ffffffff
  6
ByLayer
 62
  256
370
   -1
100
AcDbLine
 10
2.82675429781447
 20
1.896527186178043
 11
2.774460393742392
 21
1.895427356912637
  0
LINE
  5
112
100
AcDbEntity
  8
color#ffffffff
  6
ByLayer
 62
  256
370
   -1
100
AcDbLine
 10
2.774460393742392
 20
1.895427356912637
 11
2.72215922969158
 21
1.896196061685302
  0
LINE
  5
113
100
AcDbEntity
  8
color#ffffffff
  6
ByLayer
 62
  256
370
   -1
100
AcDbLine
 10
2.72215922969158
 20
1.896196061685302
 11
2.652629518092644
 21
1.89976131952375
  0
LINE
  5
114
100
AcDbEntity
  8
color#ffffffff
  6
ByLayer
 62
  256
370
   -1
100
AcDbLine
 10
2.652629518092644
 20
1.89976131952375
 11
2.61803608837645
 21
1.902491372792543
  0
LINE
  5
115
100
AcDbEntity
  8
color#ffffffff
  6
ByLayer
 62
  256
370
   -1
100
AcDbLine
 10
2.61803608837645
 20
1.902491372792543
 11
2.639838891761078
 21
1.891272581850912
  0
LINE
  5
116
100
AcDbEntity
  8
color#ffffffff
  6
ByLayer
 62
  256
370
   -1
100
AcDbLine
 10
2.639838891761078
 20
1.891272581850912
 11
2.661430421703197
 21
1.879693633399776
  0
LINE
  5
117
100
AcDbEntity
  8
color#ffffffff
  6
ByLayer
 62
  256
370
   -1
100
AcDbLine
 10
2.661430421703197
 20
1.879693633399776
 11
2.682810597522838
 21
1.867761692272354
  0
LINE
  5
118
100
AcDbEntity
  8
color#ffffffff
  6
ByLayer
 62
  256
370
   -1
100
AcDbLine
 10
2.682810597522838
 20
1.867761692272354
 11
2.703979338540031
 21
1.855483923301862
  0
LINE
  5
119
100
AcDbEntity
  8
color#ffffffff
  6
ByLayer
 62
  256
370
   -1
100
AcDbLine
 10
2.703979338540031
 20
1.855483923301862
 11
2.724936564074808
 21
1.842867491321516
  0
LINE
  5
11A
100
AcDbEntity
  8
color#ffffffff
  6
ByLayer
 62
  256
370
   -1
100
AcDbLine
 10
2.724936564074808
 20
1.842867491321516
 11
2.745682193447199
 21
1.829919561164536
  0
LINE
  5
11B
100
AcDbEntity
  8
color#ffffffff
  6
ByLayer
 62
  256
370
   -1
100
AcDbLine
 10
2.745682193447199
 20
1.829919561164536
 11
2.766216145977234
 21
1.816647297664137
  0
LINE
  5
11C
100
AcDbEntity
  8
color#ffffffff
  6
ByLayer
 62
  256
370
   -1
100
AcDbLine
 10
2.766216145977234
 20
1.816647297664137
 11
2.786538340984946
 21
1.803057865653536
  0
LINE
  5
11D
100
AcDbEntity
  8
color#ffffffff
  6
ByLayer
 62
  256
370
   -1
100
AcDbLine
 10
2.786538340984946
 20
1.803057865653536
 11
2.806648697790363
 21
1.789158429965951
  0
LINE
  5
11E
100
AcDbEntity
  8
color#ffffffff
  6
ByLayer
 62
  256
370
   -1
100
AcDbLine
 10
2.806648697790363
 20
1.789158429965951
 11
2.826547135713517
 21
1.774956155434601
  0
LINE
  5
11F
100
AcDbEntity
  8
color#ffffffff
  6
ByLayer
 62
  256
370
   -1
100
AcDbLine
 10
2.826547135713517
 20
1.774956155434601
 11
2.84623357407444
 21
1.760458206892699
  0
LINE
  5
120
100
AcDbEntity
  8
color#ffffffff
  6
ByLayer
 62
  256
370
   -1
100
AcDbLine
 10
2.84623357407444
 20
1.760458206892699
 11
2.865707932193162
 21
1.745671749173464
  0
LINE
  5
121
100
AcDbEntity
  8
color#ffffffff
  6
ByLayer
 62
  256
370
   -1
100
AcDbLine
 10
2.865707932193162
 20
1.745671749173464
 11
2.884970129389711
 21
1.730603947110115
  0
LINE
  5
122
100
AcDbEntity
  8
color#ffffffff
  6
ByLayer
 62
  256
370
   -1
100
AcDbLine
 10
2.884970129389711
 20
1.730603947110115
 11
2.904020084984122
 21
1.715261965535866
  0
LINE
  5
123
100
AcDbEntity
  8
color#ffffffff
  6
ByLayer
 62
  256
370
   -1
100
AcDbLine
 10
2.904020084984122
 20
1.715261965535866
 11
2.922857718296424
 21
1.699652969283936
  0
LINE
  5
124
100
AcDbEntity
  8
color#ffffffff
  6
ByLayer
 62
  256
370
   -1
100
AcDbLine
 10
2.922857718296424
 20
1.699652969283936
 11
2.941482948646647
 21
1.683784123187542
  0
LINE
  5
125
100
AcDbEntity
  8
color#ffffffff
  6
ByLayer
 62
  256
370
   -1
100
AcDbLine
 10
2.941482948646647
 20
1.683784123187542
 11
2.959895695354822
 21
1.667662592079902
  0
LINE
  5
126
100
AcDbEntity
  8
color#ffffffff
  6
ByLayer
 62
  256
370
   -1
100
AcDbLine
 10
2.959895695354822
 20
1.667662592079902
 11
2.978095877740981
 21
1.65129554079423
  0
LINE
  5
127
100
AcDbEntity
  8
color#ffffffff
  6
ByLayer
 62
  256
370
   -1
100
AcDbLine
 10
2.978095877740981
 20
1.65129554079423
 11
2.996083415125154
 21
1.634690134163747
  0
LINE
  5
128
100
AcDbEntity
  8
color#ffffffff
  6
ByLayer
 62
  256
370
   -1
100
AcDbLine
 10
2.996083415125154
 20
1.634690134163747
 11
3.031420232167664
 21
1.60079291420121
  0
LINE
  5
129
100
AcDbEntity
  8
color#ffffffff
  6
ByLayer
 62
  256
370
   -1
100
AcDbLine
 10
3.031420232167664
 20
1.60079291420121
 11
3.065905501042599
 21
1.566028250858028
  0
LINE
  5
12A
100
AcDbEntity
  8
color#ffffffff
  6
ByLayer
 62
  256
370
   -1
100
AcDbLine
 10
3.065905501042599
 20
1.566028250858028
 11
3.099538576310206
 21
1.530453462799937
  0
LINE
  5
12B
100
AcDbEntity
  8
color#ffffffff
  6
ByLayer
 62
  256
370
   -1
100
AcDbLine
 10
3.099538576310206
 20
1.530453462799937
 11
3.132318812530729
 21
1.494125868692675
  0
LINE
  5
12C
100
AcDbEntity
  8
color#ffffffff
  6
ByLayer
 62
  256
370
   -1
100
AcDbLine
 10
3.132318812530729
 20
1.494125868692675
 11
3.164245564264415
 21
1.457102787201979
  0
LINE
  5
12D
100
AcDbEntity
  8
color#ffffffff
  6
ByLayer
 62
  256
370
   -1
100
AcDbLine
 10
3.164245564264415
 20
1.457102787201979
 11
3.190362546932688
 21
1.419064100546666
  0
LINE
  5
12E
100
AcDbEntity
  8
color#ffffffff
  6
ByLayer
 62
  256
370
   -1
100
AcDbLine
 10
3.190362546932688
 20
1.419064100546666
 11
3.191345294406832
 21
1.410877013699179
  0
LINE
  5
12F
100
AcDbEntity
  8
color#ffffffff
  6
ByLayer
 62
  256
370
   -1
100
AcDbLine
 10
3.191345294406832
 20
1.410877013699179
 11
3.190359498222262
 21
1.404250917264991
  0
LINE
  5
130
100
AcDbEntity
  8
color#ffffffff
  6
ByLayer
 62
  256
370
   -1
100
AcDbLine
 10
3.190359498222262
 20
1.404250917264991
 11
3.186123811718768
 21
1.368058486445406
  0
LINE
  5
131
100
AcDbEntity
  8
color#ffffffff
  6
ByLayer
 62
  256
370
   -1
100
AcDbLine
 10
3.186123811718768
 20
1.368058486445406
 11
3.181571719356166
 21
1.331867785945556
  0
LINE
  5
132
100
AcDbEntity
  8
color#ffffffff
  6
ByLayer
 62
  256
370
   -1
100
AcDbLine
 10
3.181571719356166
 20
1.331867785945556
 11
3.176692489317625
 21
1.295688829498425
  0
LINE
  5
133
100
AcDbEntity
  8
color#ffffffff
  6
ByLayer
 62
  256
370
   -1
100
AcDbLine
 10
3.176692489317625
 20
1.295688829498425
 11
3.171475389786312
 21
1.259531630837001
  0
LINE
  5
134
100
AcDbEntity
  8
color#ffffffff
  6
ByLayer
 62
  256
370
   -1
100
AcDbLine
 10
3.171475389786312
 20
1.259531630837001
 11
3.165909688945398
 21
1.223406203694267
  0
LINE
  5
135
100
AcDbEntity
  8
color#ffffffff
  6
ByLayer
 62
  256
370
   -1
100
AcDbLine
 10
3.165909688945398
 20
1.223406203694267
 11
3.159984654978051
 21
1.187322561803211
  0
LINE
  5
136
100
AcDbEntity
  8
color#ffffffff
  6
ByLayer
 62
  256
370
   -1
100
AcDbLine
 10
3.159984654978051
 20
1.187322561803211
 11
3.153689556067439
 21
1.151290718896816
  0
LINE
  5
137
100
AcDbEntity
  8
color#ffffffff
  6
ByLayer
 62
  256
370
   -1
100
AcDbLine
 10
3.153689556067439
 20
1.151290718896816
 11
3.147013660396736
 21
1.115320688708069
  0
LINE
  5
138
100
AcDbEntity
  8
color#ffffffff
  6
ByLayer
 62
  256
370
   -1
100
AcDbLine
 10
3.147013660396736
 20
1.115320688708069
 11
3.139946236149105
 21
1.079422484969953
  0
LINE
  5
139
100
AcDbEntity
  8
color#ffffffff
  6
ByLayer
 62
  256
370
   -1
100
AcDbLine
 10
3.139946236149105
 20
1.079422484969953
 11
3.132476551507716
 21
1.043606121415458
  0
LINE
  5
13A
100
AcDbEntity
  8
color#ffffffff
  6
ByLayer
 62
  256
370
   -1
100
AcDbLine
 10
3.132476551507716
 20
1.043606121415458
 11
3.12459387465574
 21
1.007881611777566
  0
LINE
  5
13B
100
AcDbEntity
  8
color#ffffffff
  6
ByLayer
 62
  256
370
   -1
100
AcDbLine
 10
3.12459387465574
 20
1.007881611777566
 11
3.116287473776345
 21
0.9722589697892619
  0
LINE
  5
13C
100
AcDbEntity
  8
color#ffffffff
  6
ByLayer
 62
  256
370
   -1
100
AcDbLine
 10
3.116287473776345
 20
0.9722589697892619
 11
3.1075466170527
 21
0.9367482091835342
  0
LINE
  5
13D
100
AcDbEntity
  8
color#ffffffff
  6
ByLayer
 62
  256
370
   -1
100
AcDbLine
 10
3.1075466170527
 20
0.9367482091835342
 11
3.098360572667973
 21
0.9013593436933659
  0
LINE
  5
13E
100
AcDbEntity
  8
color#ffffffff
  6
ByLayer
 62
  256
370
   -1
100
AcDbLine
 10
3.098360572667973
 20
0.9013593436933659
 11
3.088718608805335
 21
0.8661023870517437
  0
LINE
  5
13F
100
AcDbEntity
  8
color#ffffffff
  6
ByLayer
 62
  256
370
   -1
100
AcDbLine
 10
3.088718608805335
 20
0.8661023870517437
 11
3.078609993647953
 21
0.8309873529916527
  0
LINE
  5
140
100
AcDbEntity
  8
color#ffffffff
  6
ByLayer
 62
  256
370
   -1
100
AcDbLine
 10
3.078609993647953
 20
0.8309873529916527
 11
3.068023995378996
 21
0.7960242552460784
  0
LINE
  5
141
100
AcDbEntity
  8
color#ffffffff
  6
ByLayer
 62
  256
370
   -1
100
AcDbLine
 10
3.068023995378996
 20
0.7960242552460784
 11
3.056949882181635
 21
0.7612231075480062
  0
LINE
  5
142
100
AcDbEntity
  8
color#ffffffff
  6
ByLayer
 62
  256
370
   -1
100
AcDbLine
 10
3.056949882181635
 20
0.7612231075480062
 11
3.045376922239038
 21
0.7265939236304209
  0
LINE
  5
143
100
AcDbEntity
  8
color#ffffffff
  6
ByLayer
 62
  256
370
   -1
100
AcDbLine
 10
3.045376922239038
 20
0.7265939236304209
 11
3.033294383734372
 21
0.692146717226309
  0
LINE
  5
144
100
AcDbEntity
  8
color#ffffffff
  6
ByLayer
 62
  256
370
   -1
100
AcDbLine
 10
3.033294383734372
 20
0.692146717226309
 11
3.020691534850808
 21
0.6578915020686557
  0
LINE
  5
145
100
AcDbEntity
  8
color#ffffffff
  6
ByLayer
 62
  256
370
   -1
100
AcDbLine
 10
3.020691534850808
 20
0.6578915020686557
 11
3.007557643771515
 21
0.6238382918904458
  0
LINE
  5
146
100
AcDbEntity
  8
color#ffffffff
  6
ByLayer
 62
  256
370
   -1
100
AcDbLine
 10
3.007557643771515
 20
0.6238382918904458
 11
2.993881978679661
 21
0.5899971004246657
  0
LINE
  5
147
100
AcDbEntity
  8
color#ffffffff
  6
ByLayer
 62
  256
370
   -1
100
AcDbLine
 10
2.993881978679661
 20
0.5899971004246657
 11
2.979653807758415
 21
0.5563779414043005
  0
LINE
  5
148
100
AcDbEntity
  8
color#ffffffff
  6
ByLayer
 62
  256
370
   -1
100
AcDbLine
 10
2.979653807758415
 20
0.5563779414043005
 11
2.964862399190947
 21
0.522990828562336
  0
LINE
  5
149
100
AcDbEntity
  8
color#ffffffff
  6
ByLayer
 62
  256
370
   -1
100
AcDbLine
 10
2.964862399190947
 20
0.522990828562336
 11
2.949497021160424
 21
0.4898457756317565
  0
LINE
  5
14A
100
AcDbEntity
  8
color#ffffffff
  6
ByLayer
 62
  256
370
   -1
100
AcDbLine
 10
2.949497021160424
 20
0.4898457756317565
 11
2.933546941850017
 21
0.4569527963455486
  0
LINE
  5
14B
100
AcDbEntity
  8
color#ffffffff
  6
ByLayer
 62
  256
370
   -1
100
AcDbLine
 10
2.933546941850017
 20
0.4569527963455486
 11
2.917001429442894
 21
0.4243219044366973
  0
LINE
  5
14C
100
AcDbEntity
  8
color#ffffffff
  6
ByLayer
 62
  256
370
   -1
100
AcDbLine
 10
2.917001429442894
 20
0.4243219044366973
 11
2.899849752122224
 21
0.3919631136381885
  0
LINE
  5
14D
100
AcDbEntity
  8
color#ffffffff
  6
ByLayer
 62
  256
370
   -1
100
AcDbLine
 10
2.899849752122224
 20
0.3919631136381885
 11
2.848783897911821
 21
0.3065518732047
  0
LINE
  5
14E
100
AcDbEntity
  8
color#ffffffff
  6
ByLayer
 62
  256
370
   -1
100
AcDbLine
 10
2.848783897911821
 20
0.3065518732047
 11
2.836566779073401
 21
0.2910372022222967
  0
LINE
  5
14F
100
AcDbEntity
  8
color#ffffffff
  6
ByLayer
 62
  256
370
   -1
100
AcDbLine
 10
2.836566779073401
 20
0.2910372022222967
 11
2.827737778219853
 21
0.281388207854902
  0
LINE
  5
150
100
AcDbEntity
  8
color#ffffffff
  6
ByLayer
 62
  256
370
   -1
100
AcDbLine
 10
2.827737778219853
 20
0.281388207854902
 11
2.818273690422762
 21
0.2724075809022735
  0
LINE
  5
151
100
AcDbEntity
  8
color#ffffffff
  6
ByLayer
 62
  256
370
   -1
100
AcDbLine
 10
2.818273690422762
 20
0.2724075809022735
 11
2.808099358846814
 21
0.2641922399798966
  0
LINE
  5
152
100
AcDbEntity
  8
color#ffffffff
  6
ByLayer
 62
  256
370
   -1
100
AcDbLine
 10
2.808099358846814
 20
0.2641922399798966
 11
2.7971396266567
 21
0.2568391037032577
  0
LINE
  5
153
100
AcDbEntity
  8
color#ffffffff
  6
ByLayer
 62
  256
370
   -1
100
AcDbLine
 10
2.7971396266567
 20
0.2568391037032577
 11
2.791341748820296
 21
0.2535161493744289
  0
LINE
  5
154
100
AcDbEntity
  8
color#ffffffff
  6
ByLayer
 62
  256
370
   -1
100
AcDbLine
 10
2.791341748820296
 20
0.2535161493744289
 11
2.785319337017108
 21
0.2504450906878415
  0
LINE
  5
155
100
AcDbEntity
  8
color#ffffffff
  6
ByLayer
 62
  256
370
   -1
100
AcDbLine
 10
2.785319337017108
 20
0.2504450906878415
 11
2.779062996642722
 21
0.2476380424704318
  0
LINE
  5
156
100
AcDbEntity
  8
color#ffffffff
  6
ByLayer
 62
  256
370
   -1
100
AcDbLine
 10
2.779062996642722
 20
0.2476380424704318
 11
2.771299949355795
 21
0.2436448823862432
  0
LINE
  5
157
100
AcDbEntity
  8
color#ffffffff
  6
ByLayer
 62
  256
370
   -1
100
AcDbLine
 10
2.771299949355795
 20
0.2436448823862432
 11
2.763416301385667
 21
0.2400330462816432
  0
LINE
  5
158
100
AcDbEntity
  8
color#ffffffff
  6
ByLayer
 62
  256
370
   -1
100
AcDbLine
 10
2.763416301385667
 20
0.2400330462816432
 11
2.755422366812172
 21
0.2367968356025934
  0
LINE
  5
159
100
AcDbEntity
  8
color#ffffffff
  6
ByLayer
 62
  256
370
   -1
100
AcDbLine
 10
2.755422366812172
 20
0.2367968356025934
 11
2.747328459715137
 21
0.2339305517950609
  0
LINE
  5
15A
100
AcDbEntity
  8
color#ffffffff
  6
ByLayer
 62
  256
370
   -1
100
AcDbLine
 10
2.747328459715137
 20
0.2339305517950609
 11
2.739144894174394
 21
0.2314284963050083
  0
LINE
  5
15B
100
AcDbEntity
  8
color#ffffffff
  6
ByLayer
 62
  256
370
   -1
100
AcDbLine
 10
2.739144894174394
 20
0.2314284963050083
 11
2.730881984269771
 21
0.2292849705784011
  0
LINE
  5
15C
100
AcDbEntity
  8
color#ffffffff
  6
ByLayer
 62
  256
370
   -1
100
AcDbLine
 10
2.730881984269771
 20
0.2292849705784011
 11
2.722550044081098
 21
0.2274942760612058
  0
LINE
  5
15D
100
AcDbEntity
  8
color#ffffffff
  6
ByLayer
 62
  256
370
   -1
100
AcDbLine
 10
2.722550044081098
 20
0.2274942760612058
 11
2.714159387688208
 21
0.2260507141993833
  0
LINE
  5
15E
100
AcDbEntity
  8
color#ffffffff
  6
ByLayer
 62
  256
370
   -1
100
AcDbLine
 10
2.714159387688208
 20
0.2260507141993833
 11
2.705720329170927
 21
0.2249485864388999
  0
LINE
  5
15F
100
AcDbEntity
  8
color#ffffffff
  6
ByLayer
 62
  256
370
   -1
100
AcDbLine
 10
2.705720329170927
 20
0.2249485864388999
 11
2.697243182609086
 21
0.2241821942257229
  0
LINE
  5
160
100
AcDbEntity
  8
color#ffffffff
  6
ByLayer
 62
  256
370
   -1
100
AcDbLine
 10
2.697243182609086
 20
0.2241821942257229
 11
2.688738262082516
 21
0.2237458390058128
  0
LINE
  5
161
100
AcDbEntity
  8
color#ffffffff
  6
ByLayer
 62
  256
370
   -1
100
AcDbLine
 10
2.688738262082516
 20
0.2237458390058128
 11
2.680215881671047
 21
0.2236338222251367
  0
LINE
  5
162
100
AcDbEntity
  8
color#ffffffff
  6
ByLayer
 62
  256
370
   -1
100
AcDbLine
 10
2.680215881671047
 20
0.2236338222251367
 11
2.671686355454506
 21
0.2238404453296587
  0
LINE
  5
163
100
AcDbEntity
  8
color#ffffffff
  6
ByLayer
 62
  256
370
   -1
100
AcDbLine
 10
2.671686355454506
 20
0.2238404453296587
 11
2.654647121925536
 21
0.2251868169781549
  0
LINE
  5
164
100
AcDbEntity
  8
color#ffffffff
  6
ByLayer
 62
  256
370
   -1
100
AcDbLine
 10
2.654647121925536
 20
0.2251868169781549
 11
2.637703074134243
 21
0.2277393655190198
  0
LINE
  5
165
100
AcDbEntity
  8
color#ffffffff
  6
ByLayer
 62
  256
370
   -1
100
AcDbLine
 10
2.637703074134243
 20
0.2277393655190198
 11
2.620936724719269
 21
0.231452502519969
  0
LINE
  5
166
100
AcDbEntity
  8
color#ffffffff
  6
ByLayer
 62
  256
370
   -1
100
AcDbLine
 10
2.620936724719269
 20
0.231452502519969
 11
2.604430586319252
 21
0.2362806395487201
  0
LINE
  5
167
100
AcDbEntity
  8
color#ffffffff
  6
ByLayer
 62
  256
370
   -1
100
AcDbLine
 10
2.604430586319252
 20
0.2362806395487201
 11
2.588267171572829
 21
0.2421781881729912
  0
LINE
  5
168
100
AcDbEntity
  8
color#ffffffff
  6
ByLayer
 62
  256
370
   -1
100
AcDbLine
 10
2.588267171572829
 20
0.2421781881729912
 11
2.572528993118642
 21
0.2490995599604986
  0
LINE
  5
169
100
AcDbEntity
  8
color#ffffffff
  6
ByLayer
 62
  256
370
   -1
100
AcDbLine
 10
2.572528993118642
 20
0.2490995599604986
 11
2.557298563595329
 21
0.256999166478959
  0
LINE
  5
16A
100
AcDbEntity
  8
color#ffffffff
  6
ByLayer
 62
  256
370
   -1
100
AcDbLine
 10
2.557298563595329
 20
0.256999166478959
 11
2.542658395641528
 21
0.2658314192960912
  0
LINE
  5
16B
100
AcDbEntity
  8
color#ffffffff
  6
ByLayer
 62
  256
370
   -1
100
AcDbLine
 10
2.542658395641528
 20
0.2658314192960912
 11
2.530533362966433
 21
0.2737115928220241
  0
LINE
  5
16C
100
AcDbEntity
  8
color#ffffffff
  6
ByLayer
 62
  256
370
   -1
100
AcDbLine
 10
2.530533362966433
 20
0.2737115928220241
 11
2.518691704688699
 21
0.2819094726279078
  0
LINE
  5
16D
100
AcDbEntity
  8
color#ffffffff
  6
ByLayer
 62
  256
370
   -1
100
AcDbLine
 10
2.518691704688699
 20
0.2819094726279078
 11
2.507124645590708
 21
0.2904126139046268
  0
LINE
  5
16E
100
AcDbEntity
  8
color#ffffffff
  6
ByLayer
 62
  256
370
   -1
100
AcDbLine
 10
2.507124645590708
 20
0.2904126139046268
 11
2.49582341045484
 21
0.299208571843072
  0
LINE
  5
16F
100
AcDbEntity
  8
color#ffffffff
  6
ByLayer
 62
  256
370
   -1
100
AcDbLine
 10
2.49582341045484
 20
0.299208571843072
 11
2.484779224063479
 21
0.3082849016341282
  0
LINE
  5
170
100
AcDbEntity
  8
color#ffffffff
  6
ByLayer
 62
  256
370
   -1
100
AcDbLine
 10
2.484779224063479
 20
0.3082849016341282
 11
2.473983311199003
 21
0.3176291584686857
  0
LINE
  5
171
100
AcDbEntity
  8
color#ffffffff
  6
ByLayer
 62
  256
370
   -1
100
AcDbLine
 10
2.473983311199003
 20
0.3176291584686857
 11
2.463426896643793
 21
0.327228897537633
  0
LINE
  5
172
100
AcDbEntity
  8
color#ffffffff
  6
ByLayer
 62
  256
370
   -1
100
AcDbLine
 10
2.463426896643793
 20
0.327228897537633
 11
2.453101205180233
 21
0.337071674031855
  0
LINE
  5
173
100
AcDbEntity
  8
color#ffffffff
  6
ByLayer
 62
  256
370
   -1
100
AcDbLine
 10
2.453101205180233
 20
0.337071674031855
 11
2.433106890657577
 21
0.3574365600596817
  0
LINE
  5
174
100
AcDbEntity
  8
color#ffffffff
  6
ByLayer
 62
  256
370
   -1
100
AcDbLine
 10
2.433106890657577
 20
0.3574365600596817
 11
2.413930165890088
 21
0.3786242580792683
  0
LINE
  5
175
100
AcDbEntity
  8
color#ffffffff
  6
ByLayer
 62
  256
370
   -1
100
AcDbLine
 10
2.413930165890088
 20
0.3786242580792683
 11
2.395500829136808
 21
0.4005352096177212
  0
LINE
  5
176
100
AcDbEntity
  8
color#ffffffff
  6
ByLayer
 62
  256
370
   -1
100
AcDbLine
 10
2.395500829136808
 20
0.4005352096177212
 11
2.369104610225203
 21
0.4345399531138096
  0
LINE
  5
177
100
AcDbEntity
  8
color#ffffffff
  6
ByLayer
 62
  256
370
   -1
100
AcDbLine
 10
2.369104610225203
 20
0.4345399531138096
 11
2.327853327446768
 21
0.4934203815022447
  0
LINE
  5
178
100
AcDbEntity
  8
color#ffffffff
  6
ByLayer
 62
  256
370
   -1
100
AcDbLine
 10
2.327853327446768
 20
0.4934203815022447
 11
2.274017808212868
 21
0.5778718687119242
  0
LINE
  5
179
100
AcDbEntity
  8
color#ffffffff
  6
ByLayer
 62
  256
370
   -1
100
AcDbLine
 10
2.274017808212868
 20
0.5778718687119242
 11
2.251773626727952
 21
0.6183111860766112
  0
LINE
  5
17A
100
AcDbEntity
  8
color#ffffffff
  6
ByLayer
 62
  256
370
   -1
100
AcDbLine
 10
2.251773626727952
 20
0.6183111860766112
 11
2.230480897657324
 21
0.6592214157373526
  0
LINE
  5
17B
100
AcDbEntity
  8
color#ffffffff
  6
ByLayer
 62
  256
370
   -1
100
AcDbLine
 10
2.230480897657324
 20
0.6592214157373526
 11
2.210084217426064
 21
0.7005677917791063
  0
LINE
  5
17C
100
AcDbEntity
  8
color#ffffffff
  6
ByLayer
 62
  256
370
   -1
100
AcDbLine
 10
2.210084217426064
 20
0.7005677917791063
 11
2.190528182459253
 21
0.7423155482868337
  0
LINE
  5
17D
100
AcDbEntity
  8
color#ffffffff
  6
ByLayer
 62
  256
370
   -1
100
AcDbLine
 10
2.190528182459253
 20
0.7423155482868337
 11
2.162649144559747
 21
0.8056137209829757
  0
LINE
  5
17E
100
AcDbEntity
  8
color#ffffffff
  6
ByLayer
 62
  256
370
   -1
100
AcDbLine
 10
2.162649144559747
 20
0.8056137209829757
 11
2.127902252420074
 21
0.8910916343350294
  0
LINE
  5
17F
100
AcDbEntity
  8
color#ffffffff
  6
ByLayer
 62
  256
370
   -1
100
AcDbLine
 10
2.127902252420074
 20
0.8910916343350294
 11
2.080078374103145
 21
1.021058593437704
  0
LINE
  5
180
100
AcDbEntity
  8
color#ffffffff
  6
ByLayer
 62
  256
370
   -1
100
AcDbLine
 10
2.080078374103145
 20
1.021058593437704
 11
2.022006311333478
 21
1.196154536748822
  0
LINE
  5
181
100
AcDbEntity
  8
color#ffffffff
  6
ByLayer
 62
  256
370
   -1
100
AcDbLine
 10
2.022006311333478
 20
1.196154536748822
 11
1.958661440375136
 21
1.404900866718576
  0
LINE
  5
182
100
AcDbEntity
  8
color#ffffffff
  6
ByLayer
 62
  256
370
   -1
100
AcDbLine
 10
1.958661440375136
 20
1.404900866718576
 11
1.942552410341635
 21
1.448758154225534
  0
LINE
  5
183
100
AcDbEntity
  8
color#ffffffff
  6
ByLayer
 62
  256
370
   -1
100
AcDbLine
 10
1.942552410341635
 20
1.448758154225534
 11
1.924816453303761
 21
1.491896090779403
  0
LINE
  5
184
100
AcDbEntity
  8
color#ffffffff
  6
ByLayer
 62
  256
370
   -1
100
AcDbLine
 10
1.924816453303761
 20
1.491896090779403
 11
1.911925927931097
 21
1.520163774387629
  0
LINE
  5
185
100
AcDbEntity
  8
color#ffffffff
  6
ByLayer
 62
  256
370
   -1
100
AcDbLine
 10
1.911925927931097
 20
1.520163774387629
 11
1.898068265372347
 21
1.547974794447194
  0
LINE
  5
186
100
AcDbEntity
  8
color#ffffffff
  6
ByLayer
 62
  256
370
   -1
100
AcDbLine
 10
1.898068265372347
 20
1.547974794447194
 11
1.883145842220521
 21
1.575274370152516
  0
LINE
  5
187
100
AcDbEntity
  8
color#ffffffff
  6
ByLayer
 62
  256
370
   -1
100
AcDbLine
 10
1.883145842220521
 20
1.575274370152516
 11
1.87525483810752
 21
1.58871524737059
  0
LINE
  5
188
100
AcDbEntity
  8
color#ffffffff
  6
ByLayer
 62
  256
370
   -1
100
AcDbLine
 10
1.87525483810752
 20
1.58871524737059
 11
1.867061035068629
 21
1.602007720698011
  0
LINE
  5
189
100
AcDbEntity
  8
color#ffffffff
  6
ByLayer
 62
  256
370
   -1
100
AcDbLine
 10
1.867061035068629
 20
1.602007720698011
 11
1.858552230177973
 21
1.61514494253408
  0
LINE
  5
18A
100
AcDbEntity
  8
color#ffffffff
  6
ByLayer
 62
  256
370
   -1
100
AcDbLine
 10
1.858552230177973
 20
1.61514494253408
 11
1.857200494792377
 21
1.264217606697553
  0
LINE
  5
18B
100
AcDbEntity
  8
color#ffffffff
  6
ByLayer
 62
  256
370
   -1
100
AcDbLine
 10
1.857200494792377
 20
1.264217606697553
 11
1.856106191044856
 21
1.246326009837809
  0
LINE
  5
18C
100
AcDbEntity
  8
color#ffffffff
  6
ByLayer
 62
  256
370
   -1
100
AcDbLine
 10
1.856106191044856
 20
1.246326009837809
 11
1.851377046066164
 21
1.228986065819283
  0
LINE
  5
18D
100
AcDbEntity
  8
color#ffffffff
  6
ByLayer
 62
  256
370
   -1
100
AcDbLine
 10
1.851377046066164
 20
1.228986065819283
 11
1.843212359750755
 21
1.213105041825652
  0
LINE
  5
18E
100
AcDbEntity
  8
color#ffffffff
  6
ByLayer
 62
  256
370
   -1
100
AcDbLine
 10
1.843212359750755
 20
1.213105041825652
 11
1.834340950465065
 21
1.202060328596099
  0
LINE
  5
18F
100
AcDbEntity
  8
color#ffffffff
  6
ByLayer
 62
  256
370
   -1
100
AcDbLine
 10
1.834340950465065
 20
1.202060328596099
 11
1.82638955646254
 21
1.195050030594104
  0
LINE
  5
190
100
AcDbEntity
  8
color#ffffffff
  6
ByLayer
 62
  256
370
   -1
100
AcDbLine
 10
1.82638955646254
 20
1.195050030594104
 11
1.817373562687605
 21
1.189348822647766
  0
LINE
  5
191
100
AcDbEntity
  8
color#ffffffff
  6
ByLayer
 62
  256
370
   -1
100
AcDbLine
 10
1.817373562687605
 20
1.189348822647766
 11
1.807336017917463
 21
1.185152674468757
  0
LINE
  5
192
100
AcDbEntity
  8
color#ffffffff
  6
ByLayer
 62
  256
370
   -1
100
AcDbLine
 10
1.807336017917463
 20
1.185152674468757
 11
1.803770598857874
 21
1.184122287443352
  0
LINE
  5
193
100
AcDbEntity
  8
color#ffffffff
  6
ByLayer
 62
  256
370
   -1
100
AcDbLine
 10
1.803770598857874
 20
1.184122287443352
 11
1.799224455429804
 21
1.182692925359253
  0
LINE
  5
194
100
AcDbEntity
  8
color#ffffffff
  6
ByLayer
 62
  256
370
   -1
100
AcDbLine
 10
1.799224455429804
 20
1.182692925359253
 11
1.794637434216575
 21
1.181608986362536
  0
LINE
  5
195
100
AcDbEntity
  8
color#ffffffff
  6
ByLayer
 62
  256
370
   -1
100
AcDbLine
 10
1.794637434216575
 20
1.181608986362536
 11
1.790023666742901
 21
1.18086128273207
  0
LINE
  5
196
100
AcDbEntity
  8
color#ffffffff
  6
ByLayer
 62
  256
370
   -1
100
AcDbLine
 10
1.790023666742901
 20
1.18086128273207
 11
1.785397284533489
 21
1.180440626746732
  0
LINE
  5
197
100
AcDbEntity
  8
color#ffffffff
  6
ByLayer
 62
  256
370
   -1
100
AcDbLine
 10
1.785397284533489
 20
1.180440626746732
 11
1.776163202006295
 21
1.18054370682692
  0
LINE
  5
198
100
AcDbEntity
  8
color#ffffffff
  6
ByLayer
 62
  256
370
   -1
100
AcDbLine
 10
1.776163202006295
 20
1.18054370682692
 11
1.767048238832674
 21
1.181844724834086
  0
LINE
  5
199
100
AcDbEntity
  8
color#ffffffff
  6
ByLayer
 62
  256
370
   -1
100
AcDbLine
 10
1.767048238832674
 20
1.181844724834086
 11
1.758165447210305
 21
1.184270178999211
  0
LINE
  5
19A
100
AcDbEntity
  8
color#ffffffff
  6
ByLayer
 62
  256
370
   -1
100
AcDbLine
 10
1.758165447210305
 20
1.184270178999211
 11
1.749627879336869
 21
1.187746567553277
  0
LINE
  5
19B
100
AcDbEntity
  8
color#ffffffff
  6
ByLayer
 62
  256
370
   -1
100
AcDbLine
 10
1.749627879336869
 20
1.187746567553277
 11
1.741548587410044
 21
1.19220038872727
  0
LINE
  5
19C
100
AcDbEntity
  8
color#ffffffff
  6
ByLayer
 62
  256
370
   -1
100
AcDbLine
 10
1.741548587410044
 20
1.19220038872727
 11
1.734040623627513
 21
1.197558140752169
  0
LINE
  5
19D
100
AcDbEntity
  8
color#ffffffff
  6
ByLayer
 62
  256
370
   -1
100
AcDbLine
 10
1.734040623627513
 20
1.197558140752169
 11
1.727217040186955
 21
1.203746321858958
  0
LINE
  5
19E
100
AcDbEntity
  8
color#ffffffff
  6
ByLayer
 62
  256
370
   -1
100
AcDbLine
 10
1.727217040186955
 20
1.203746321858958
 11
1.721190889286049
 21
1.210691430278621
  0
LINE
  5
19F
100
AcDbEntity
  8
color#ffffffff
  6
ByLayer
 62
  256
370
   -1
100
AcDbLine
 10
1.721190889286049
 20
1.210691430278621
 11
1.716075223122476
 21
1.218319964242139
  0
LINE
  5
1A0
100
AcDbEntity
  8
color#ffffffff
  6
ByLayer
 62
  256
370
   -1
100
AcDbLine
 10
1.716075223122476
 20
1.218319964242139
 11
1.711983093893915
 21
1.226558421980497
  0
LINE
  5
1A1
100
AcDbEntity
  8
color#ffffffff
  6
ByLayer
 62
  256
370
   -1
100
AcDbLine
 10
1.711983093893915
 20
1.226558421980497
 11
1.71035618444204
 21
1.230883402962422
  0
LINE
  5
1A2
100
AcDbEntity
  8
color#ffffffff
  6
ByLayer
 62
  256
370
   -1
100
AcDbLine
 10
1.71035618444204
 20
1.230883402962422
 11
1.709027553798047
 21
1.235333301724675
  0
LINE
  5
1A3
100
AcDbEntity
  8
color#ffffffff
  6
ByLayer
 62
  256
370
   -1
100
AcDbLine
 10
1.709027553798047
 20
1.235333301724675
 11
1.708011333486648
 21
1.23989893054613
  0
LINE
  5
1A4
100
AcDbEntity
  8
color#ffffffff
  6
ByLayer
 62
  256
370
   -1
100
AcDbLine
 10
1.708011333486648
 20
1.23989893054613
 11
1.707321655032552
 21
1.244571101705658
  0
LINE
  5
1A5
100
AcDbEntity
  8
color#ffffffff
  6
ByLayer
 62
  256
370
   -1
100
AcDbLine
 10
1.707321655032552
 20
1.244571101705658
 11
1.70697264996047
 21
1.249340627482133
  0
LINE
  5
1A6
100
AcDbEntity
  8
color#ffffffff
  6
ByLayer
 62
  256
370
   -1
100
AcDbLine
 10
1.70697264996047
 20
1.249340627482133
 11
1.703681832347068
 21
1.598268062225188
  0
LINE
  5
1A7
100
AcDbEntity
  8
color#ffffffff
  6
ByLayer
 62
  256
370
   -1
100
AcDbLine
 10
1.703681832347068
 20
1.598268062225188
 11
1.655143523309467
 21
1.525264966471025
  0
LINE
  5
1A8
100
AcDbEntity
  8
color#ffffffff
  6
ByLayer
 62
  256
370
   -1
100
AcDbLine
 10
1.655143523309467
 20
1.525264966471025
 11
1.622694893990025
 21
1.465194758304276
  0
LINE
  5
1A9
100
AcDbEntity
  8
color#ffffffff
  6
ByLayer
 62
  256
370
   -1
100
AcDbLine
 10
1.622694893990025
 20
1.465194758304276
 11
1.59932422756947
 21
1.411606478410213
  0
LINE
  5
1AA
100
AcDbEntity
  8
color#ffffffff
  6
ByLayer
 62
  256
370
   -1
100
AcDbLine
 10
1.59932422756947
 20
1.411606478410213
 11
1.583413287923564
 21
1.365579757395441
  0
LINE
  5
1AB
100
AcDbEntity
  8
color#ffffffff
  6
ByLayer
 62
  256
370
   -1
100
AcDbLine
 10
1.583413287923564
 20
1.365579757395441
 11
1.578035709554707
 21
1.34684072285755
  0
LINE
  5
1AC
100
AcDbEntity
  8
color#ffffffff
  6
ByLayer
 62
  256
370
   -1
100
AcDbLine
 10
1.578035709554707
 20
1.34684072285755
 11
1.54504900198214
 21
1.228371172726485
  0
LINE
  5
1AD
100
AcDbEntity
  8
color#ffffffff
  6
ByLayer
 62
  256
370
   -1
100
AcDbLine
 10
1.54504900198214
 20
1.228371172726485
 11
1.508415926361484
 21
1.110964292305395
  0
LINE
  5
1AE
100
AcDbEntity
  8
color#ffffffff
  6
ByLayer
 62
  256
370
   -1
100
AcDbLine
 10
1.508415926361484
 20
1.110964292305395
 11
1.468162090505447
 21
0.9947453105681525
  0
LINE
  5
1AF
100
AcDbEntity
  8
color#ffffffff
  6
ByLayer
 62
  256
370
   -1
100
AcDbLine
 10
1.468162090505447
 20
0.9947453105681525
 11
1.424313102226735
 21
0.8798394564886307
  0
LINE
  5
1B0
100
AcDbEntity
  8
color#ffffffff
  6
ByLayer
 62
  256
370
   -1
100
AcDbLine
 10
1.424313102226735
 20
0.8798394564886307
 11
1.376894569338057
 21
0.7663719590406998
  0
LINE
  5
1B1
100
AcDbEntity
  8
color#ffffffff
  6
ByLayer
 62
  256
370
   -1
100
AcDbLine
 10
1.376894569338057
 20
0.7663719590406998
 11
1.336406879358079
 21
0.6767177317275438
  0
LINE
  5
1B2
100
AcDbEntity
  8
color#ffffffff
  6
ByLayer
 62
  256
370
   -1
100
AcDbLine
 10
1.336406879358079
 20
0.6767177317275438
 11
1.264084431529418
 21
0.5467600909611754
  0
LINE
  5
1B3
100
AcDbEntity
  8
color#ffffffff
  6
ByLayer
 62
  256
370
   -1
100
AcDbLine
 10
1.264084431529418
 20
0.5467600909611754
 11
1.219831204932141
 21
0.4786972576524463
  0
LINE
  5
1B4
100
AcDbEntity
  8
color#ffffffff
  6
ByLayer
 62
  256
370
   -1
100
AcDbLine
 10
1.219831204932141
 20
0.4786972576524463
 11
1.17989992710987
 21
0.4241656145366335
  0
LINE
  5
1B5
100
AcDbEntity
  8
color#ffffffff
  6
ByLayer
 62
  256
370
   -1
100
AcDbLine
 10
1.17989992710987
 20
0.4241656145366335
 11
1.145749624998006
 21
0.382268862641469
  0
LINE
  5
1B6
100
AcDbEntity
  8
color#ffffffff
  6
ByLayer
 62
  256
370
   -1
100
AcDbLine
 10
1.145749624998006
 20
0.382268862641469
 11
1.118754087204673
 21
0.3519931428660641
  0
LINE
  5
1B7
100
AcDbEntity
  8
color#ffffffff
  6
ByLayer
 62
  256
370
   -1
100
AcDbLine
 10
1.118754087204673
 20
0.3519931428660641
 11
1.060421745689957
 21
0.2981761635690757
  0
LINE
  5
1B8
100
AcDbEntity
  8
color#ffffffff
  6
ByLayer
 62
  256
370
   -1
100
AcDbLine
 10
1.060421745689957
 20
0.2981761635690757
 11
1.028394931309316
 21
0.2746082564321676
  0
LINE
  5
1B9
100
AcDbEntity
  8
color#ffffffff
  6
ByLayer
 62
  256
370
   -1
100
AcDbLine
 10
1.028394931309316
 20
0.2746082564321676
 11
1.001322191674169
 21
0.2581306375651838
  0
LINE
  5
1BA
100
AcDbEntity
  8
color#ffffffff
  6
ByLayer
 62
  256
370
   -1
100
AcDbLine
 10
1.001322191674169
 20
0.2581306375651838
 11
0.9801422493449271
 21
0.2474437089323358
  0
LINE
  5
1BB
100
AcDbEntity
  8
color#ffffffff
  6
ByLayer
 62
  256
370
   -1
100
AcDbLine
 10
0.9801422493449271
 20
0.2474437089323358
 11
0.9581914013132068
 21
0.2383927915948018
  0
LINE
  5
1BC
100
AcDbEntity
  8
color#ffffffff
  6
ByLayer
 62
  256
370
   -1
100
AcDbLine
 10
0.9581914013132068
 20
0.2383927915948018
 11
0.9431200779144893
 21
0.2333581778013259
  0
LINE
  5
1BD
100
AcDbEntity
  8
color#ffffffff
  6
ByLayer
 62
  256
370
   -1
100
AcDbLine
 10
0.9431200779144893
 20
0.2333581778013259
 11
0.9276924141114899
 21
0.2291863340403258
  0
LINE
  5
1BE
100
AcDbEntity
  8
color#ffffffff
  6
ByLayer
 62
  256
370
   -1
100
AcDbLine
 10
0.9276924141114899
 20
0.2291863340403258
 11
0.9184590999851028
 21
0.227160683113412
  0
LINE
  5
1BF
100
AcDbEntity
  8
color#ffffffff
  6
ByLayer
 62
  256
370
   -1
100
AcDbLine
 10
0.9184590999851028
 20
0.227160683113412
 11
0.9091344820879382
 21
0.2255700567031309
  0
LINE
  5
1C0
100
AcDbEntity
  8
color#ffffffff
  6
ByLayer
 62
  256
370
   -1
100
AcDbLine
 10
0.9091344820879382
 20
0.2255700567031309
 11
0.8997376565291447
 21
0.2244099882130498
  0
LINE
  5
1C1
100
AcDbEntity
  8
color#ffffffff
  6
ByLayer
 62
  256
370
   -1
100
AcDbLine
 10
0.8997376565291447
 20
0.2244099882130498
 11
0.8902877194178694
 21
0.2236760110467399
  0
LINE
  5
1C2
100
AcDbEntity
  8
color#ffffffff
  6
ByLayer
 62
  256
370
   -1
100
AcDbLine
 10
0.8902877194178694
 20
0.2236760110467399
 11
0.8808037668632608
 21
0.2233636586077685
  0
LINE
  5
1C3
100
AcDbEntity
  8
color#ffffffff
  6
ByLayer
 62
  256
370
   -1
100
AcDbLine
 10
0.8808037668632608
 20
0.2233636586077685
 11
0.8713048949744664
 21
0.2234684642997067
  0
LINE
  5
1C4
100
AcDbEntity
  8
color#ffffffff
  6
ByLayer
 62
  256
370
   -1
100
AcDbLine
 10
0.8713048949744664
 20
0.2234684642997067
 11
0.8618101998606335
 21
0.2239859615261241
  0
LINE
  5
1C5
100
AcDbEntity
  8
color#ffffffff
  6
ByLayer
 62
  256
370
   -1
100
AcDbLine
 10
0.8618101998606335
 20
0.2239859615261241
 11
0.8523387776309107
 21
0.2249116836905871
  0
LINE
  5
1C6
100
AcDbEntity
  8
color#ffffffff
  6
ByLayer
 62
  256
370
   -1
100
AcDbLine
 10
0.8523387776309107
 20
0.2249116836905871
 11
0.8429097243944456
 21
0.2262411641966667
  0
LINE
  5
1C7
100
AcDbEntity
  8
color#ffffffff
  6
ByLayer
 62
  256
370
   -1
100
AcDbLine
 10
0.8429097243944456
 20
0.2262411641966667
 11
0.8335421362603853
 21
0.2279699364479342
  0
LINE
  5
1C8
100
AcDbEntity
  8
color#ffffffff
  6
ByLayer
 62
  256
370
   -1
100
AcDbLine
 10
0.8335421362603853
 20
0.2279699364479342
 11
0.8242551093378784
 21
0.2300935338479558
  0
LINE
  5
1C9
100
AcDbEntity
  8
color#ffffffff
  6
ByLayer
 62
  256
370
   -1
100
AcDbLine
 10
0.8242551093378784
 20
0.2300935338479558
 11
0.8150677397360725
 21
0.2326074898003014
  0
LINE
  5
1CA
100
AcDbEntity
  8
color#ffffffff
  6
ByLayer
 62
  256
370
   -1
100
AcDbLine
 10
0.8150677397360725
 20
0.2326074898003014
 11
0.8059991235641151
 21
0.2355073377085424
  0
LINE
  5
1CB
100
AcDbEntity
  8
color#ffffffff
  6
ByLayer
 62
  256
370
   -1
100
AcDbLine
 10
0.8059991235641151
 20
0.2355073377085424
 11
0.7970683569311545
 21
0.2387886109762462
  0
LINE
  5
1CC
100
AcDbEntity
  8
color#ffffffff
  6
ByLayer
 62
  256
370
   -1
100
AcDbLine
 10
0.7970683569311545
 20
0.2387886109762462
 11
0.7882945359463379
 21
0.242446843006982
  0
LINE
  5
1CD
100
AcDbEntity
  8
color#ffffffff
  6
ByLayer
 62
  256
370
   -1
100
AcDbLine
 10
0.7882945359463379
 20
0.242446843006982
 11
0.7796967567188138
 21
0.2464775672043196
  0
LINE
  5
1CE
100
AcDbEntity
  8
color#ffffffff
  6
ByLayer
 62
  256
370
   -1
100
AcDbLine
 10
0.7796967567188138
 20
0.2464775672043196
 11
0.7712941153577293
 21
0.2508763169718284
  0
LINE
  5
1CF
100
AcDbEntity
  8
color#ffffffff
  6
ByLayer
 62
  256
370
   -1
100
AcDbLine
 10
0.7712941153577293
 20
0.2508763169718284
 11
0.7631057079722325
 21
0.2556386257130778
  0
LINE
  5
1D0
100
AcDbEntity
  8
color#ffffffff
  6
ByLayer
 62
  256
370
   -1
100
AcDbLine
 10
0.7631057079722325
 20
0.2556386257130778
 11
0.7551506306714715
 21
0.2607600268316368
  0
LINE
  5
1D1
100
AcDbEntity
  8
color#ffffffff
  6
ByLayer
 62
  256
370
   -1
100
AcDbLine
 10
0.7551506306714715
 20
0.2607600268316368
 11
0.7474479795645935
 21
0.2662360537310743
  0
LINE
  5
1D2
100
AcDbEntity
  8
color#ffffffff
  6
ByLayer
 62
  256
370
   -1
100
AcDbLine
 10
0.7474479795645935
 20
0.2662360537310743
 11
0.7400168507607466
 21
0.2720622398149604
  0
LINE
  5
1D3
100
AcDbEntity
  8
color#ffffffff
  6
ByLayer
 62
  256
370
   -1
100
AcDbLine
 10
0.7400168507607466
 20
0.2720622398149604
 11
0.7328763403690789
 21
0.2782341184868642
  0
LINE
  5
1D4
100
AcDbEntity
  8
color#ffffffff
  6
ByLayer
 62
  256
370
   -1
100
AcDbLine
 10
0.7328763403690789
 20
0.2782341184868642
 11
0.7260455444987376
 21
0.2847472231503541
  0
LINE
  5
1D5
100
AcDbEntity
  8
color#ffffffff
  6
ByLayer
 62
  256
370
   -1
100
AcDbLine
 10
0.7260455444987376
 20
0.2847472231503541
 11
0.7195435592588709
 21
0.2915970872090006
  0
LINE
  5
1D6
100
AcDbEntity
  8
color#ffffffff
  6
ByLayer
 62
  256
370
   -1
100
AcDbLine
 10
0.7195435592588709
 20
0.2915970872090006
 11
0.7133894807586265
 21
0.2987792440663727
  0
LINE
  5
1D7
100
AcDbEntity
  8
color#ffffffff
  6
ByLayer
 62
  256
370
   -1
100
AcDbLine
 10
0.7133894807586265
 20
0.2987792440663727
 11
0.7076024051071521
 21
0.3062892271260391
  0
LINE
  5
1D8
100
AcDbEntity
  8
color#ffffffff
  6
ByLayer
 62
  256
370
   -1
100
AcDbLine
 10
0.7076024051071521
 20
0.3062892271260391
 11
0.7022014284135956
 21
0.3141225697915691
  0
LINE
  5
1D9
100
AcDbEntity
  8
color#ffffffff
  6
ByLayer
 62
  256
370
   -1
100
AcDbLine
 10
0.7022014284135956
 20
0.3141225697915691
 11
0.6972056467871048
 21
0.322274805466533
  0
LINE
  5
1DA
100
AcDbEntity
  8
color#ffffffff
  6
ByLayer
 62
  256
370
   -1
100
AcDbLine
 10
0.6972056467871048
 20
0.322274805466533
 11
0.6926341563368275
 21
0.3307414675544994
  0
LINE
  5
1DB
100
AcDbEntity
  8
color#ffffffff
  6
ByLayer
 62
  256
370
   -1
100
AcDbLine
 10
0.6926341563368275
 20
0.3307414675544994
 11
0.6726641170228329
 21
0.3650491513167233
  0
LINE
  5
1DC
100
AcDbEntity
  8
color#ffffffff
  6
ByLayer
 62
  256
370
   -1
100
AcDbLine
 10
0.6726641170228329
 20
0.3650491513167233
 11
0.6534513657381105
 21
0.3997161317130957
  0
LINE
  5
1DD
100
AcDbEntity
  8
color#ffffffff
  6
ByLayer
 62
  256
370
   -1
100
AcDbLine
 10
0.6534513657381105
 20
0.3997161317130957
 11
0.6349803982023016
 21
0.4347285683892738
  0
LINE
  5
1DE
100
AcDbEntity
  8
color#ffffffff
  6
ByLayer
 62
  256
370
   -1
100
AcDbLine
 10
0.6349803982023016
 20
0.4347285683892738
 11
0.6172357101350469
 21
0.4700726209909216
  0
LINE
  5
1DF
100
AcDbEntity
  8
color#ffffffff
  6
ByLayer
 62
  256
370
   -1
100
AcDbLine
 10
0.6172357101350469
 20
0.4700726209909216
 11
0.6002017972559875
 21
0.5057344491636953
  0
LINE
  5
1E0
100
AcDbEntity
  8
color#ffffffff
  6
ByLayer
 62
  256
370
   -1
100
AcDbLine
 10
0.6002017972559875
 20
0.5057344491636953
 11
0.5838631552847647
 21
0.5417002125532583
  0
LINE
  5
1E1
100
AcDbEntity
  8
color#ffffffff
  6
ByLayer
 62
  256
370
   -1
100
AcDbLine
 10
0.5838631552847647
 20
0.5417002125532583
 11
0.5682042799410191
 21
0.5779560708052713
  0
LINE
  5
1E2
100
AcDbEntity
  8
color#ffffffff
  6
ByLayer
 62
  256
370
   -1
100
AcDbLine
 10
0.5682042799410191
 20
0.5779560708052713
 11
0.5532096669443921
 21
0.6144881835653927
  0
LINE
  5
1E3
100
AcDbEntity
  8
color#ffffffff
  6
ByLayer
 62
  256
370
   -1
100
AcDbLine
 10
0.5532096669443921
 20
0.6144881835653927
 11
0.5388638120145246
 21
0.6512827104792842
  0
LINE
  5
1E4
100
AcDbEntity
  8
color#ffffffff
  6
ByLayer
 62
  256
370
   -1
100
AcDbLine
 10
0.5388638120145246
 20
0.6512827104792842
 11
0.5251512108710573
 21
0.6883258111926077
  0
LINE
  5
1E5
100
AcDbEntity
  8
color#ffffffff
  6
ByLayer
 62
  256
370
   -1
100
AcDbLine
 10
0.5251512108710573
 20
0.6883258111926077
 11
0.5120563592336318
 21
0.7256036453510212
  0
LINE
  5
1E6
100
AcDbEntity
  8
color#ffffffff
  6
ByLayer
 62
  256
370
   -1
100
AcDbLine
 10
0.5120563592336318
 20
0.7256036453510212
 11
0.4995637528218887
 21
0.7631023726001859
  0
LINE
  5
1E7
100
AcDbEntity
  8
color#ffffffff
  6
ByLayer
 62
  256
370
   -1
100
AcDbLine
 10
0.4995637528218887
 20
0.7631023726001859
 11
0.4876578873554691
 21
0.8008081525857639
  0
LINE
  5
1E8
100
AcDbEntity
  8
color#ffffffff
  6
ByLayer
 62
  256
370
   -1
100
AcDbLine
 10
0.4876578873554691
 20
0.8008081525857639
 11
0.4763232585540142
 21
0.8387071449534145
  0
LINE
  5
1E9
100
AcDbEntity
  8
color#ffffffff
  6
ByLayer
 62
  256
370
   -1
100
AcDbLine
 10
0.4763232585540142
 20
0.8387071449534145
 11
0.4655443621371647
 21
0.8767855093487972
  0
LINE
  5
1EA
100
AcDbEntity
  8
color#ffffffff
  6
ByLayer
 62
  256
370
   -1
100
AcDbLine
 10
0.4655443621371647
 20
0.8767855093487972
 11
0.4553056938245619
 21
0.9150294054175738
  0
LINE
  5
1EB
100
AcDbEntity
  8
color#ffffffff
  6
ByLayer
 62
  256
370
   -1
100
AcDbLine
 10
0.4553056938245619
 20
0.9150294054175738
 11
0.4455917493358469
 21
0.9534249928054044
  0
LINE
  5
1EC
100
AcDbEntity
  8
color#ffffffff
  6
ByLayer
 62
  256
370
   -1
100
AcDbLine
 10
0.4455917493358469
 20
0.9534249928054044
 11
0.4363870243906605
 21
0.9919584311579498
  0
LINE
  5
1ED
100
AcDbEntity
  8
color#ffffffff
  6
ByLayer
 62
  256
370
   -1
100
AcDbLine
 10
0.4363870243906605
 20
0.9919584311579498
 11
0.4276760147086438
 21
1.03061588012087
  0
LINE
  5
1EE
100
AcDbEntity
  8
color#ffffffff
  6
ByLayer
 62
  256
370
   -1
100
AcDbLine
 10
0.4276760147086438
 20
1.03061588012087
 11
0.4194432160094377
 21
1.069383499339826
  0
LINE
  5
1EF
100
AcDbEntity
  8
color#ffffffff
  6
ByLayer
 62
  256
370
   -1
100
AcDbLine
 10
0.4194432160094377
 20
1.069383499339826
 11
0.4116731240126835
 21
1.108247448460477
  0
LINE
  5
1F0
100
AcDbEntity
  8
color#ffffffff
  6
ByLayer
 62
  256
370
   -1
100
AcDbLine
 10
0.4116731240126835
 20
1.108247448460477
 11
0.404350234438022
 21
1.147193887128485
  0
LINE
  5
1F1
100
AcDbEntity
  8
color#ffffffff
  6
ByLayer
 62
  256
370
   -1
100
AcDbLine
 10
0.404350234438022
 20
1.147193887128485
 11
0.3974590430050943
 21
1.18620897498951
  0
LINE
  5
1F2
100
AcDbEntity
  8
color#ffffffff
  6
ByLayer
 62
  256
370
   -1
100
AcDbLine
 10
0.3974590430050943
 20
1.18620897498951
 11
0.3909840454335414
 21
1.225278871689212
  0
LINE
  5
1F3
100
AcDbEntity
  8
color#ffffffff
  6
ByLayer
 62
  256
370
   -1
100
AcDbLine
 10
0.3909840454335414
 20
1.225278871689212
 11
0.3849097374430044
 21
1.264389736873253
  0
LINE
  5
1F4
100
AcDbEntity
  8
color#ffffffff
  6
ByLayer
 62
  256
370
   -1
100
AcDbLine
 10
0.3849097374430044
 20
1.264389736873253
 11
0.3792206147531242
 21
1.303527730187291
  0
LINE
  5
1F5
100
AcDbEntity
  8
color#ffffffff
  6
ByLayer
 62
  256
370
   -1
100
AcDbLine
 10
0.3792206147531242
 20
1.303527730187291
 11
0.3739011730835419
 21
1.342679011276989
  0
LINE
  5
1F6
100
AcDbEntity
  8
color#ffffffff
  6
ByLayer
 62
  256
370
   -1
100
AcDbLine
 10
0.3739011730835419
 20
1.342679011276989
 11
0.3689359081538985
 21
1.381829739788006
  0
LINE
  5
1F7
100
AcDbEntity
  8
color#ffffffff
  6
ByLayer
 62
  256
370
   -1
100
AcDbLine
 10
0.3689359081538985
 20
1.381829739788006
 11
0.3643093156838351
 21
1.420966075366003
  0
LINE
  5
1F8
100
AcDbEntity
  8
color#ffffffff
  6
ByLayer
 62
  256
370
   -1
100
AcDbLine
 10
0.3643093156838351
 20
1.420966075366003
 11
0.3806657468682775
 21
1.441206910183169
  0
LINE
  5
1F9
100
AcDbEntity
  8
color#ffffffff
  6
ByLayer
 62
  256
370
   -1
100
AcDbLine
 10
0.3806657468682775
 20
1.441206910183169
 11
0.3972774285157033
 21
1.461259505751252
  0
LINE
  5
1FA
100
AcDbEntity
  8
color#ffffffff
  6
ByLayer
 62
  256
370
   -1
100
AcDbLine
 10
0.3972774285157033
 20
1.461259505751252
 11
0.4141435729726551
 21
1.481115930102514
  0
LINE
  5
1FB
100
AcDbEntity
  8
color#ffffffff
  6
ByLayer
 62
  256
370
   -1
100
AcDbLine
 10
0.4141435729726551
 20
1.481115930102514
 11
0.4312633925856751
 21
1.500768251269225
  0
LINE
  5
1FC
100
AcDbEntity
  8
color#ffffffff
  6
ByLayer
 62
  256
370
   -1
100
AcDbLine
 10
0.4312633925856751
 20
1.500768251269225
 11
0.4486360997013061
 21
1.520208537283649
  0
LINE
  5
1FD
100
AcDbEntity
  8
color#ffffffff
  6
ByLayer
 62
  256
370
   -1
100
AcDbLine
 10
0.4486360997013061
 20
1.520208537283649
 11
0.4662609066660901
 21
1.539428856178053
  0
LINE
  5
1FE
100
AcDbEntity
  8
color#ffffffff
  6
ByLayer
 62
  256
370
   -1
100
AcDbLine
 10
0.4662609066660901
 20
1.539428856178053
 11
0.4841370258265695
 21
1.558421275984703
  0
LINE
  5
1FF
100
AcDbEntity
  8
color#ffffffff
  6
ByLayer
 62
  256
370
   -1
100
AcDbLine
 10
0.4841370258265695
 20
1.558421275984703
 11
0.5022636695292871
 21
1.577177864735865
  0
LINE
  5
200
100
AcDbEntity
  8
color#ffffffff
  6
ByLayer
 62
  256
370
   -1
100
AcDbLine
 10
0.5022636695292871
 20
1.577177864735865
 11
0.5206400501207851
 21
1.595690690463805
  0
LINE
  5
201
100
AcDbEntity
  8
color#ffffffff
  6
ByLayer
 62
  256
370
   -1
100
AcDbLine
 10
0.5206400501207851
 20
1.595690690463805
 11
0.5392653799476057
 21
1.613951821200789
  0
LINE
  5
202
100
AcDbEntity
  8
color#ffffffff
  6
ByLayer
 62
  256
370
   -1
100
AcDbLine
 10
0.5392653799476057
 20
1.613951821200789
 11
0.5581388713562914
 21
1.631953324979084
  0
LINE
  5
203
100
AcDbEntity
  8
color#ffffffff
  6
ByLayer
 62
  256
370
   -1
100
AcDbLine
 10
0.5581388713562914
 20
1.631953324979084
 11
0.5772597366933849
 21
1.649687269830955
  0
LINE
  5
204
100
AcDbEntity
  8
color#ffffffff
  6
ByLayer
 62
  256
370
   -1
100
AcDbLine
 10
0.5772597366933849
 20
1.649687269830955
 11
0.5966271883054283
 21
1.66714572378867
  0
LINE
  5
205
100
AcDbEntity
  8
color#ffffffff
  6
ByLayer
 62
  256
370
   -1
100
AcDbLine
 10
0.5966271883054283
 20
1.66714572378867
 11
0.616240438538964
 21
1.684320754884493
  0
LINE
  5
206
100
AcDbEntity
  8
color#ffffffff
  6
ByLayer
 62
  256
370
   -1
100
AcDbLine
 10
0.616240438538964
 20
1.684320754884493
 11
0.6360986997405348
 21
1.701204431150692
  0
LINE
  5
207
100
AcDbEntity
  8
color#ffffffff
  6
ByLayer
 62
  256
370
   -1
100
AcDbLine
 10
0.6360986997405348
 20
1.701204431150692
 11
0.6562011842566825
 21
1.717788820619532
  0
LINE
  5
208
100
AcDbEntity
  8
color#ffffffff
  6
ByLayer
 62
  256
370
   -1
100
AcDbLine
 10
0.6562011842566825
 20
1.717788820619532
 11
0.6765471044339498
 21
1.734065991323279
  0
LINE
  5
209
100
AcDbEntity
  8
color#ffffffff
  6
ByLayer
 62
  256
370
   -1
100
AcDbLine
 10
0.6765471044339498
 20
1.734065991323279
 11
0.6971356726188794
 21
1.7500280112942
  0
LINE
  5
20A
100
AcDbEntity
  8
color#ffffffff
  6
ByLayer
 62
  256
370
   -1
100
AcDbLine
 10
0.6971356726188794
 20
1.7500280112942
 11
0.7179661011580131
 21
1.765666948564561
  0
LINE
  5
20B
100
AcDbEntity
  8
color#ffffffff
  6
ByLayer
 62
  256
370
   -1
100
AcDbLine
 10
0.7179661011580131
 20
1.765666948564561
 11
0.7390376023978938
 21
1.780974871166627
  0
LINE
  5
20C
100
AcDbEntity
  8
color#ffffffff
  6
ByLayer
 62
  256
370
   -1
100
AcDbLine
 10
0.7390376023978938
 20
1.780974871166627
 11
0.7603493886850639
 21
1.795943847132666
  0
LINE
  5
20D
100
AcDbEntity
  8
color#ffffffff
  6
ByLayer
 62
  256
370
   -1
100
AcDbLine
 10
0.7603493886850639
 20
1.795943847132666
 11
0.7819006723660653
 21
1.810565944494943
  0
LINE
  5
20E
100
AcDbEntity
  8
color#ffffffff
  6
ByLayer
 62
  256
370
   -1
100
AcDbLine
 10
0.7819006723660653
 20
1.810565944494943
 11
0.803690665787441
 21
1.824833231285724
  0
LINE
  5
20F
100
AcDbEntity
  8
color#ffffffff
  6
ByLayer
 62
  256
370
   -1
100
AcDbLine
 10
0.803690665787441
 20
1.824833231285724
 11
0.8257185812957329
 21
1.838737775537276
  0
LINE
  5
210
100
AcDbEntity
  8
color#ffffffff
  6
ByLayer
 62
  256
370
   -1
100
AcDbLine
 10
0.8257185812957329
 20
1.838737775537276
 11
0.8479836312374838
 21
1.852271645281865
  0
LINE
  5
211
100
AcDbEntity
  8
color#ffffffff
  6
ByLayer
 62
  256
370
   -1
100
AcDbLine
 10
0.8479836312374838
 20
1.852271645281865
 11
0.8704850279592359
 21
1.865426908551757
  0
LINE
  5
212
100
AcDbEntity
  8
color#ffffffff
  6
ByLayer
 62
  256
370
   -1
100
AcDbLine
 10
0.8704850279592359
 20
1.865426908551757
 11
0.8932219838075317
 21
1.878195633379217
  0
LINE
  5
213
100
AcDbEntity
  8
color#ffffffff
  6
ByLayer
 62
  256
370
   -1
100
AcDbLine
 10
0.8932219838075317
 20
1.878195633379217
 11
0.9161937111289136
 21
1.890569887796512
  0
LINE
  5
214
100
AcDbEntity
  8
color#ffffffff
  6
ByLayer
 62
  256
370
   -1
100
AcDbLine
 10
0.9161937111289136
 20
1.890569887796512
 11
0.939399422269924
 21
1.902541739835909
  0
LINE
  5
215
100
AcDbEntity
  8
color#ffffffff
  6
ByLayer
 62
  256
370
   -1
100
AcDbLine
 10
0.939399422269924
 20
1.902541739835909
 11
0.8553905482193804
 21
1.896917367880832
  0
LINE
  5
216
100
AcDbEntity
  8
color#ffffffff
  6
ByLayer
 62
  256
370
   -1
100
AcDbLine
 10
0.8553905482193804
 20
1.896917367880832
 11
0.8047765536630628
 21
1.895498555587935
  0
LINE
  5
217
100
AcDbEntity
  8
color#ffffffff
  6
ByLayer
 62
  256
370
   -1
100
AcDbLine
 10
0.8047765536630628
 20
1.895498555587935
 11
0.7541327717138171
 21
1.895764658197925
  0
LINE
  5
218
100
AcDbEntity
  8
color#ffffffff
  6
ByLayer
 62
  256
370
   -1
100
AcDbLine
 10
0.7541327717138171
 20
1.895764658197925
 11
0.7035628784456517
 21
1.897894085773072
  0
LINE
  5
219
100
AcDbEntity
  8
color#ffffffff
  6
ByLayer
 62
  256
370
   -1
100
AcDbLine
 10
0.7035628784456517
 20
1.897894085773072
 11
0.6699418635953802
 21
1.900436988427155
  0
LINE
  5
21A
100
AcDbEntity
  8
color#ffffffff
  6
ByLayer
 62
  256
370
   -1
100
AcDbLine
 10
0.6699418635953802
 20
1.900436988427155
 11
0.6364304852507802
 21
1.90394019111188
  0
LINE
  5
21B
100
AcDbEntity
  8
color#ffffffff
  6
ByLayer
 62
  256
370
   -1
100
AcDbLine
 10
0.6364304852507802
 20
1.90394019111188
 11
0.6030594622485945
 21
1.908456556067916
  0
LINE
  5
21C
100
AcDbEntity
  8
color#ffffffff
  6
ByLayer
 62
  256
370
   -1
100
AcDbLine
 10
0.6030594622485945
 20
1.908456556067916
 11
0.569859513425567
 21
1.914038945535938
  0
LINE
  5
21D
100
AcDbEntity
  8
color#ffffffff
  6
ByLayer
 62
  256
370
   -1
100
AcDbLine
 10
0.569859513425567
 20
1.914038945535938
 11
0.5368613576184402
 21
1.920740221756619
  0
LINE
  5
21E
100
AcDbEntity
  8
color#ffffffff
  6
ByLayer
 62
  256
370
   -1
100
AcDbLine
 10
0.5368613576184402
 20
1.920740221756619
 11
0.5040957136639574
 21
1.928613246970629
  0
LINE
  5
21F
100
AcDbEntity
  8
color#ffffffff
  6
ByLayer
 62
  256
370
   -1
100
AcDbLine
 10
0.5040957136639574
 20
1.928613246970629
 11
0.4878096832679399
 21
1.933005684900344
  0
LINE
  5
220
100
AcDbEntity
  8
color#ffffffff
  6
ByLayer
 62
  256
370
   -1
100
AcDbLine
 10
0.4878096832679399
 20
1.933005684900344
 11
0.4715933003988621
 21
1.937710883418643
  0
LINE
  5
221
100
AcDbEntity
  8
color#ffffffff
  6
ByLayer
 62
  256
370
   -1
100
AcDbLine
 10
0.4715933003988621
 20
1.937710883418643
 11
0.4554504049113168
 21
1.942735450305612
  0
LINE
  5
222
100
AcDbEntity
  8
color#ffffffff
  6
ByLayer
 62
  256
370
   -1
100
AcDbLine
 10
0.4554504049113168
 20
1.942735450305612
 11
0.4349410635847297
 21
1.950443359394676
  0
LINE
  5
223
100
AcDbEntity
  8
color#ffffffff
  6
ByLayer
 62
  256
370
   -1
100
AcDbLine
 10
0.4349410635847297
 20
1.950443359394676
 11
0.4145724487180461
 21
1.959031961001773
  0
LINE
  5
224
100
AcDbEntity
  8
color#ffffffff
  6
ByLayer
 62
  256
370
   -1
100
AcDbLine
 10
0.4145724487180461
 20
1.959031961001773
 11
0.3944602708078869
 21
1.968513154185091
  0
LINE
  5
225
100
AcDbEntity
  8
color#ffffffff
  6
ByLayer
 62
  256
370
   -1
100
AcDbLine
 10
0.3944602708078869
 20
1.968513154185091
 11
0.3747202403508723
 21
1.978898838002817
  0
LINE
  5
226
100
AcDbEntity
  8
color#ffffffff
  6
ByLayer
 62
  256
370
   -1
100
AcDbLine
 10
0.3747202403508723
 20
1.978898838002817
 11
0.355468067843623
 21
1.990200911513138
  0
LINE
  5
227
100
AcDbEntity
  8
color#ffffffff
  6
ByLayer
 62
  256
370
   -1
100
AcDbLine
 10
0.355468067843623
 20
1.990200911513138
 11
0.3368194637827597
 21
2.002431273774242
  0
LINE
  5
228
100
AcDbEntity
  8
color#ffffffff
  6
ByLayer
 62
  256
370
   -1
100
AcDbLine
 10
0.3368194637827597
 20
2.002431273774242
 11
0.3188901386649027
 21
2.015601823844317
  0
LINE
  5
229
100
AcDbEntity
  8
color#ffffffff
  6
ByLayer
 62
  256
370
   -1
100
AcDbLine
 10
0.3188901386649027
 20
2.015601823844317
 11
0.3102313652397957
 21
2.022543387763401
  0
LINE
  5
22A
100
AcDbEntity
  8
color#ffffffff
  6
ByLayer
 62
  256
370
   -1
100
AcDbLine
 10
0.3102313652397957
 20
2.022543387763401
 11
0.3017958029866729
 21
2.029724460781549
  0
LINE
  5
22B
100
AcDbEntity
  8
color#ffffffff
  6
ByLayer
 62
  256
370
   -1
100
AcDbLine
 10
0.3017958029866729
 20
2.029724460781549
 11
0.2935979157176121
 21
2.037146530281033
  0
LINE
  5
22C
100
AcDbEntity
  8
color#ffffffff
  6
ByLayer
 62
  256
370
   -1
100
AcDbLine
 10
0.2935979157176121
 20
2.037146530281033
 11
0.2856521672446907
 21
2.044811083644126
  0
LINE
  5
22D
100
AcDbEntity
  8
color#ffffffff
  6
ByLayer
 62
  256
370
   -1
100
AcDbLine
 10
0.2856521672446907
 20
2.044811083644126
 11
0.2779730213799864
 21
2.052719608253102
  0
LINE
  5
22E
100
AcDbEntity
  8
color#ffffffff
  6
ByLayer
 62
  256
370
   -1
100
AcDbLine
 10
0.2779730213799864
 20
2.052719608253102
 11
0.2705749419355767
 21
2.060873591490235
  0
LINE
  5
22F
100
AcDbEntity
  8
color#ffffffff
  6
ByLayer
 62
  256
370
   -1
100
AcDbLine
 10
0.2705749419355767
 20
2.060873591490235
 11
0.2634723927235393
 21
2.069274520737798
  0
LINE
  5
230
100
AcDbEntity
  8
color#ffffffff
  6
ByLayer
 62
  256
370
   -1
100
AcDbLine
 10
0.2634723927235393
 20
2.069274520737798
 11
0.2566798375559516
 21
2.077923883378065
  0
LINE
  5
231
100
AcDbEntity
  8
color#ffffffff
  6
ByLayer
 62
  256
370
   -1
100
AcDbLine
 10
0.2566798375559516
 20
2.077923883378065
 11
0.2502117402448912
 21
2.086823166793308
  0
LINE
  5
232
100
AcDbEntity
  8
color#ffffffff
  6
ByLayer
 62
  256
370
   -1
100
AcDbLine
 10
0.2502117402448912
 20
2.086823166793308
 11
0.2440825646024358
 21
2.095973858365801
  0
LINE
  5
233
100
AcDbEntity
  8
color#ffffffff
  6
ByLayer
 62
  256
370
   -1
100
AcDbLine
 10
0.2440825646024358
 20
2.095973858365801
 11
0.2383067744406628
 21
2.105377445477819
  0
LINE
  5
234
100
AcDbEntity
  8
color#ffffffff
  6
ByLayer
 62
  256
370
   -1
100
AcDbLine
 10
0.2383067744406628
 20
2.105377445477819
 11
0.2328988335716499
 21
2.115035415511633
  0
LINE
  5
235
100
AcDbEntity
  8
color#ffffffff
  6
ByLayer
 62
  256
370
   -1
100
AcDbLine
 10
0.2328988335716499
 20
2.115035415511633
 11
0.2278732058074746
 21
2.124949255849518
  0
LINE
  5
236
100
AcDbEntity
  8
color#ffffffff
  6
ByLayer
 62
  256
370
   -1
100
AcDbLine
 10
0.2278732058074746
 20
2.124949255849518
 11
0.2232443549602145
 21
2.135120453873746
  0
LINE
  5
237
100
AcDbEntity
  8
color#ffffffff
  6
ByLayer
 62
  256
370
   -1
100
AcDbLine
 10
0.2232443549602145
 20
2.135120453873746
 11
0.2190267448419472
 21
2.145550496966592
  0
LINE
  5
238
100
AcDbEntity
  8
color#ffffffff
  6
ByLayer
 62
  256
370
   -1
100
AcDbLine
 10
0.2190267448419472
 20
2.145550496966592
 11
0.1596604732466379
 21
2.472227945088383
  0
LINE
  5
239
100
AcDbEntity
  8
color#ffffffff
  6
ByLayer
 62
  256
370
   -1
100
AcDbLine
 10
0.1596604732466379
 20
2.472227945088383
 11
0.1442650200737202
 21
2.541699077935538
  0
LINE
  5
23A
100
AcDbEntity
  8
color#ffffffff
  6
ByLayer
 62
  256
370
   -1
100
AcDbLine
 10
0.1442650200737202
 20
2.541699077935538
 11
0.1329908031166126
 21
2.587737659982649
  0
LINE
  5
23B
100
AcDbEntity
  8
color#ffffffff
  6
ByLayer
 62
  256
370
   -1
100
AcDbLine
 10
0.1329908031166126
 20
2.587737659982649
 11
0.1207648062362103
 21
2.633505332457094
  0
LINE
  5
23C
100
AcDbEntity
  8
color#ffffffff
  6
ByLayer
 62
  256
370
   -1
100
AcDbLine
 10
0.1207648062362103
 20
2.633505332457094
 11
0.1074641882469433
 21
2.6789588059087
  0
LINE
  5
23D
100
AcDbEntity
  8
color#ffffffff
  6
ByLayer
 62
  256
370
   -1
100
AcDbLine
 10
0.1074641882469433
 20
2.6789588059087
 11
0.1003725084659949
 21
2.701554190047758
  0
LINE
  5
23E
100
AcDbEntity
  8
color#ffffffff
  6
ByLayer
 62
  256
370
   -1
100
AcDbLine
 10
0.1003725084659949
 20
2.701554190047758
 11
0.0929661079632418
 21
2.72405479088729
  0
LINE
  5
23F
100
AcDbEntity
  8
color#ffffffff
  6
ByLayer
 62
  256
370
   -1
100
AcDbLine
 10
0.0929661079632418
 20
2.72405479088729
 11
0.08522963159048751
 21
2.746455197246025
  0
LINE
  5
240
100
AcDbEntity
  8
color#ffffffff
  6
ByLayer
 62
  256
370
   -1
100
AcDbLine
 10
0.08522963159048751
 20
2.746455197246025
 11
0.0771477241995359
 21
2.768749997942691
  0
LINE
  5
241
100
AcDbEntity
  8
color#ffffffff
  6
ByLayer
 62
  256
370
   -1
100
AcDbLine
 10
0.0771477241995359
 20
2.768749997942691
 11
0.0687050306421908
 21
2.790933781796015
  0
LINE
  5
242
100
AcDbEntity
  8
color#ffffffff
  6
ByLayer
 62
  256
370
   -1
100
AcDbLine
 10
0.0687050306421908
 20
2.790933781796015
 11
0.0598861957702558
 21
2.813001137624727
  0
LINE
  5
243
100
AcDbEntity
  8
color#ffffffff
  6
ByLayer
 62
  256
370
   -1
100
AcDbLine
 10
0.0598861957702558
 20
2.813001137624727
 11
0.0539458297000608
 21
2.827427457428875
  0
LINE
  5
244
100
AcDbEntity
  8
color#ffffffff
  6
ByLayer
 62
  256
370
   -1
100
AcDbLine
 10
0.0539458297000608
 20
2.827427457428875
 11
0.0162426481034042
 21
2.890749766365508
  0
LINE
  5
245
100
AcDbEntity
  8
color#ffffffff
  6
ByLayer
 62
  256
370
   -1
100
AcDbLine
 10
0.0162426481034042
 20
2.890749766365508
 11
0.0073234829669558
 21
2.90935884639866
  0
LINE
  5
246
100
AcDbEntity
  8
color#ffffffff
  6
ByLayer
 62
  256
370
   -1
100
AcDbLine
 10
0.0073234829669558
 20
2.90935884639866
 11
0.0039462192728642
 21
2.91902371554233
  0
LINE
  5
247
100
AcDbEntity
  8
color#ffffffff
  6
ByLayer
 62
  256
370
   -1
100
AcDbLine
 10
0.0039462192728642
 20
2.91902371554233
 11
0.0014967566407367
 21
2.929001914459485
  0
LINE
  5
248
100
AcDbEntity
  8
color#ffffffff
  6
ByLayer
 62
  256
370
   -1
100
AcDbLine
 10
0.0014967566407367
 20
2.929001914459485
 11
0.0001297864299797
 21
2.939348275916694
  0
LINE
  5
249
100
AcDbEntity
  8
color#ffffffff
  6
ByLayer
 62
  256
370
   -1
100
AcDbLine
 10
0.0001297864299797
 20
2.939348275916694
 11
-9.94229675702e-005
 21
2.944676652837371
  0
LINE
  5
24A
100
AcDbEntity
  8
color#ffffffff
  6
ByLayer
 62
  256
370
   -1
100
AcDbLine
 10
-9.94229675702e-005
 20
2.944676652837371
 11
0
 21
2.950117632680523
  0
LINE
  5
24B
100
AcDbEntity
  8
color#ffffffff
  6
ByLayer
 62
  256
370
   -1
100
AcDbLine
 10
0
 20
2.950117632680523
 11
0
 21
2.96845896881129
  0
LINE
  5
24C
100
AcDbEntity
  8
color#ffffffff
  6
ByLayer
 62
  256
370
   -1
100
AcDbLine
 10
0
 20
2.96845896881129
 11
0.0006828034612563
 21
2.980288681159518
  0
LINE
  5
24D
100
AcDbEntity
  8
color#ffffffff
  6
ByLayer
 62
  256
370
   -1
100
AcDbLine
 10
0.0006828034612563
 20
2.980288681159518
 11
0.0068165873619001
 21
3.052791181484585
  0
LINE
  5
24E
100
AcDbEntity
  8
color#ffffffff
  6
ByLayer
 62
  256
370
   -1
100
AcDbLine
 10
0.0068165873619001
 20
3.052791181484585
 11
0.0119692319136259
 21
3.089293091276911
  0
LINE
  5
24F
100
AcDbEntity
  8
color#ffffffff
  6
ByLayer
 62
  256
370
   -1
100
AcDbLine
 10
0.0119692319136259
 20
3.089293091276911
 11
0.0164930899603723
 21
3.113423453185614
  0
LINE
  5
250
100
AcDbEntity
  8
color#ffffffff
  6
ByLayer
 62
  256
370
   -1
100
AcDbLine
 10
0.0164930899603723
 20
3.113423453185614
 11
0.0220489628053982
 21
3.137239177897903
  0
LINE
  5
251
100
AcDbEntity
  8
color#ffffffff
  6
ByLayer
 62
  256
370
   -1
100
AcDbLine
 10
0.0220489628053982
 20
3.137239177897903
 11
0.0252570312384633
 21
3.148988540189106
  0
LINE
  5
252
100
AcDbEntity
  8
color#ffffffff
  6
ByLayer
 62
  256
370
   -1
100
AcDbLine
 10
0.0252570312384633
 20
3.148988540189106
 11
0.0287748551245349
 21
3.160610629841662
  0
LINE
  5
253
100
AcDbEntity
  8
color#ffffffff
  6
ByLayer
 62
  256
370
   -1
100
AcDbLine
 10
0.0287748551245349
 20
3.160610629841662
 11
0.032619685048092
 21
3.172089242409055
  0
LINE
  5
254
100
AcDbEntity
  8
color#ffffffff
  6
ByLayer
 62
  256
370
   -1
100
AcDbLine
 10
0.032619685048092
 20
3.172089242409055
 11
0.0368087715936134
 21
3.183408173444771
  0
LINE
  5
255
100
AcDbEntity
  8
color#ffffffff
  6
ByLayer
 62
  256
370
   -1
100
AcDbLine
 10
0.0368087715936134
 20
3.183408173444771
 11
0.041359365345578
 21
3.194551218502296
  0
LINE
  5
256
100
AcDbEntity
  8
color#ffffffff
  6
ByLayer
 62
  256
370
   -1
100
AcDbLine
 10
0.041359365345578
 20
3.194551218502296
 11
0.0462887168884647
 21
3.205502173135114
  0
LINE
  5
257
100
AcDbEntity
  8
color#ffffffff
  6
ByLayer
 62
  256
370
   -1
100
AcDbLine
 10
0.0462887168884647
 20
3.205502173135114
 11
0.0516140768067524
 21
3.216244832896712
  0
LINE
  5
258
100
AcDbEntity
  8
color#ffffffff
  6
ByLayer
 62
  256
370
   -1
100
AcDbLine
 10
0.0516140768067524
 20
3.216244832896712
 11
0.05735269568492
 21
3.226762993340575
  0
LINE
  5
259
100
AcDbEntity
  8
color#ffffffff
  6
ByLayer
 62
  256
370
   -1
100
AcDbLine
 10
0.05735269568492
 20
3.226762993340575
 11
0.06352182410744631
 21
3.237040450020187
  0
LINE
  5
25A
100
AcDbEntity
  8
color#ffffffff
  6
ByLayer
 62
  256
370
   -1
100
AcDbLine
 10
0.06352182410744631
 20
3.237040450020187
 11
0.0701387126588103
 21
3.247060998489034
  0
LINE
  5
25B
100
AcDbEntity
  8
color#ffffffff
  6
ByLayer
 62
  256
370
   -1
100
AcDbLine
 10
0.0701387126588103
 20
3.247060998489034
 11
0.07722061192349081
 21
3.256808434300602
  0
LINE
  5
25C
100
AcDbEntity
  8
color#ffffffff
  6
ByLayer
 62
  256
370
   -1
100
AcDbLine
 10
0.07722061192349081
 20
3.256808434300602
 11
0.0847847724859668
 21
3.266266553008375
  0
LINE
  5
25D
100
AcDbEntity
  8
color#ffffffff
  6
ByLayer
 62
  256
370
   -1
100
AcDbLine
 10
0.0847847724859668
 20
3.266266553008375
 11
0.09284844493071701
 21
3.27541915016584
  0
LINE
  5
25E
100
AcDbEntity
  8
color#ffffffff
  6
ByLayer
 62
  256
370
   -1
100
AcDbLine
 10
0.09284844493071701
 20
3.27541915016584
 11
0.1014288798422205
 21
3.284250021326481
  0
LINE
  5
25F
100
AcDbEntity
  8
color#ffffffff
  6
ByLayer
 62
  256
370
   -1
100
AcDbLine
 10
0.1014288798422205
 20
3.284250021326481
 11
0.110543327804956
 21
3.292742962043784
  0
ENDSEC
  0
SECTION
  2
OBJECTS
  0
DICTIONARY
  5
C
330
0
100
AcDbDictionary
281
    1
  3
ACAD_GROUP
350
D
  0
DICTIONARY
  5
D
330
C
100
AcDbDictionary
281
    1
  0
ENDSEC
  0
EOF
