999
dxflib 3.12.2.0
  0
SECTION
  2
HEADER
  9
$ACADVER
  1
AC1015
  9
$HANDSEED
  5
FFFF
  9
$ANGDIR
 70
0
  9
$CECOLOR
 62
256
  9
$DIMADEC
 70
0
  9
$DIMASZ
 40
0.18
  9
$DIMAUNIT
 70
0
  9
$DIMAZIN
 70
0
  9
$DIMDEC
 70
4
  9
$DIMEXE
 40
0.18
  9
$DIMEXO
 40
0.0625
  9
$DIMGAP
 40
0.09
  9
$DIMLUNIT
 70
2
  9
$DIMSCALE
 40
1.0
  9
$DIMTSZ
 40
0.0
  9
$DIMTXT
 40
0.18
  9
$DIMZIN
 70
0
  9
$DWGCODEPAGE
  3
ANSI_1252
  9
$EXTMAX
 10
24.0
 20
18.0
 30
0.0
  9
$EXTMIN
 10
0.0
 20
0.0
 30
0.0
  9
$INSUNITS
 70
0
  9
$LTSCALE
 40
1.0
  9
$MEASUREMENT
 70
1
  9
$PDMODE
 70
0
  9
$PDSIZE
 40
0
  0
ENDSEC
  0
SECTION
  2
TABLES
  0
TABLE
  2
VPORT
  5
8
100
AcDbSymbolTable
 70
1
  0
VPORT
  5
30
100
AcDbSymbolTableRecord
100
AcDbViewportTableRecord
  2
*Active
 70
0
 10
0.0
 20
0.0
 11
1.0
 21
1.0
 12
286.30555555555549
 22
148.5
 13
0.0
 23
0.0
 14
10.0
 24
10.0
 15
10.0
 25
10.0
 16
0.0
 26
0.0
 36
1.0
 17
0.0
 27
0.0
 37
0.0
 40
297.0
 41
1.92798353909465
 42
50.0
 43
0.0
 44
0.0
 50
0.0
 51
0.0
 71
0
 72
100
 73
1
 74
3
 75
1
 76
1
 77
0
 78
0
281
0
 65
1
110
0.0
120
0.0
130
0.0
111
1.0
121
0.0
131
0.0
112
0.0
122
1.0
132
0.0
 79
0
146
0.0
  0
ENDTAB
  0
TABLE
  2
LTYPE
  5
5
100
AcDbSymbolTable
 70
41
  0
LTYPE
  5
16
100
AcDbSymbolTableRecord
100
AcDbLinetypeTableRecord
  2
Continuous
 70
0
  3
Solid line
 72
65
 73
0
 40
0.0
  0
LTYPE
  5
31
100
AcDbSymbolTableRecord
100
AcDbLinetypeTableRecord
  2
ACAD_ISO15W100
 70
0
  3
ISO double-dash triple-dot __ __ . . . __ __ . .
 72
65
 73
10
 40
39.0
 49
12.0
 74
0
 49
-3.0
 74
0
 49
12.0
 74
0
 49
-3.0
 74
0
 49
0.0
 74
0
 49
-3.0
 74
0
 49
0.0
 74
0
 49
-3.0
 74
0
 49
0.0
 74
0
 49
-3.0
 74
0
  0
LTYPE
  5
32
100
AcDbSymbolTableRecord
100
AcDbLinetypeTableRecord
  2
DIVIDE
 70
0
  3
Divide ____ . . ____ . . ____ . . ____ . . ____
 72
65
 73
6
 40
31.75
 49
12.699999999999999
 74
0
 49
-6.3499999999999996
 74
0
 49
0.0
 74
0
 49
-6.3499999999999996
 74
0
 49
0.0
 74
0
 49
-6.3499999999999996
 74
0
  0
LTYPE
  5
33
100
AcDbSymbolTableRecord
100
AcDbLinetypeTableRecord
  2
ACAD_ISO10W100
 70
0
  3
ISO dash dot __ . __ . __ . __ . __ . __ . __ . 
 72
65
 73
4
 40
18.0
 49
12.0
 74
0
 49
-3.0
 74
0
 49
0.0
 74
0
 49
-3.0
 74
0
  0
LTYPE
  5
34
100
AcDbSymbolTableRecord
100
AcDbLinetypeTableRecord
  2
ACAD_ISO04W100
 70
0
  3
ISO long-dash dot ____ . ____ . ____ . ____ . _
 72
65
 73
4
 40
30.0
 49
24.0
 74
0
 49
-3.0
 74
0
 49
0.0
 74
0
 49
-3.0
 74
0
  0
LTYPE
  5
35
100
AcDbSymbolTableRecord
100
AcDbLinetypeTableRecord
  2
CENTER2
 70
0
  3
Center (.5x) ___ _ ___ _ ___ _ ___ _ ___ _ ___
 72
65
 73
4
 40
28.575000000000003
 49
19.050000000000001
 74
0
 49
-3.1749999999999998
 74
0
 49
3.1749999999999998
 74
0
 49
-3.1749999999999998
 74
0
  0
LTYPE
  5
36
100
AcDbSymbolTableRecord
100
AcDbLinetypeTableRecord
  2
ACAD_ISO11W100
 70
0
  3
ISO double-dash dot __ __ . __ __ . __ __ . __ _
 72
65
 73
6
 40
33.0
 49
12.0
 74
0
 49
-3.0
 74
0
 49
12.0
 74
0
 49
-3.0
 74
0
 49
0.0
 74
0
 49
-3.0
 74
0
  0
LTYPE
  5
37
100
AcDbSymbolTableRecord
100
AcDbLinetypeTableRecord
  2
HIDDEN2
 70
0
  3
Hidden (.5x) _ _ _ _ _ _ _ _ _ _ _ _ _ _ _ _ _ 
 72
65
 73
2
 40
4.7624999999999993
 49
3.1749999999999998
 74
0
 49
-1.5874999999999999
 74
0
  0
LTYPE
  5
38
100
AcDbSymbolTableRecord
100
AcDbLinetypeTableRecord
  2
BORDERX2
 70
0
  3
Border (2x) ____  ____  .  ____  ____  .  ___
 72
65
 73
6
 40
88.899999999999991
 49
25.399999999999999
 74
0
 49
-12.699999999999999
 74
0
 49
25.399999999999999
 74
0
 49
-12.699999999999999
 74
0
 49
0.0
 74
0
 49
-12.699999999999999
 74
0
  0
LTYPE
  5
39
100
AcDbSymbolTableRecord
100
AcDbLinetypeTableRecord
  2
ACAD_ISO05W100
 70
0
  3
ISO long-dash double-dot ____ .. ____ .. ____ . 
 72
65
 73
6
 40
33.0
 49
24.0
 74
0
 49
-3.0
 74
0
 49
0.0
 74
0
 49
-3.0
 74
0
 49
0.0
 74
0
 49
-3.0
 74
0
  0
LTYPE
  5
3A
100
AcDbSymbolTableRecord
100
AcDbLinetypeTableRecord
  2
DASHDOTX2
 70
0
  3
Dash dot (2x) ____  .  ____  .  ____  .  ___
 72
65
 73
4
 40
50.799999999999997
 49
25.399999999999999
 74
0
 49
-12.699999999999999
 74
0
 49
0.0
 74
0
 49
-12.699999999999999
 74
0
  0
LTYPE
  5
3B
100
AcDbSymbolTableRecord
100
AcDbLinetypeTableRecord
  2
HIDDENX2
 70
0
  3
Hidden (2x) ____ ____ ____ ____ ____ ____ ____ 
 72
65
 73
2
 40
19.049999999999997
 49
12.699999999999999
 74
0
 49
-6.3499999999999996
 74
0
  0
LTYPE
  5
3C
100
AcDbSymbolTableRecord
100
AcDbLinetypeTableRecord
  2
CENTERX2
 70
0
  3
Center (2x) ________  __  ________  __  _____
 72
65
 73
4
 40
101.60000000000001
 49
63.5
 74
0
 49
-12.699999999999999
 74
0
 49
12.699999999999999
 74
0
 49
-12.699999999999999
 74
0
  0
LTYPE
  5
3D
100
AcDbSymbolTableRecord
100
AcDbLinetypeTableRecord
  2
BORDER2
 70
0
  3
Border (.5x) __.__.__.__.__.__.__.__.__.__.__.
 72
65
 73
6
 40
22.224999999999998
 49
6.3499999999999996
 74
0
 49
-3.1749999999999998
 74
0
 49
6.3499999999999996
 74
0
 49
-3.1749999999999998
 74
0
 49
0.0
 74
0
 49
-3.1749999999999998
 74
0
  0
LTYPE
  5
3E
100
AcDbSymbolTableRecord
100
AcDbLinetypeTableRecord
  2
DASHDOT2
 70
0
  3
Dash dot (.5x) _._._._._._._._._._._._._._._.
 72
65
 73
4
 40
12.699999999999999
 49
6.3499999999999996
 74
0
 49
-3.1749999999999998
 74
0
 49
0.0
 74
0
 49
-3.1749999999999998
 74
0
  0
LTYPE
  5
3F
100
AcDbSymbolTableRecord
100
AcDbLinetypeTableRecord
  2
ACAD_ISO12W100
 70
0
  3
ISO dash double-dot __ . . __ . . __ . . __ . . 
 72
65
 73
6
 40
21.0
 49
12.0
 74
0
 49
-3.0
 74
0
 49
0.0
 74
0
 49
-3.0
 74
0
 49
0.0
 74
0
 49
-3.0
 74
0
  0
LTYPE
  5
40
100
AcDbSymbolTableRecord
100
AcDbLinetypeTableRecord
  2
ACAD_ISO07W100
 70
0
  3
ISO dot . . . . . . . . . . . . . . . . . . . . 
 72
65
 73
2
 40
3.0
 49
0.0
 74
0
 49
-3.0
 74
0
  0
LTYPE
  5
41
100
AcDbSymbolTableRecord
100
AcDbLinetypeTableRecord
  2
HIDDEN
 70
0
  3
Hidden __ __ __ __ __ __ __ __ __ __ __ __ __ __
 72
65
 73
2
 40
9.5249999999999986
 49
6.3499999999999996
 74
0
 49
-3.1749999999999998
 74
0
  0
LTYPE
  5
42
100
AcDbSymbolTableRecord
100
AcDbLinetypeTableRecord
  2
ACAD_ISO06W100
 70
0
  3
ISO long-dash triple-dot ____ ... ____ ... ____
 72
65
 73
8
 40
36.0
 49
24.0
 74
0
 49
-3.0
 74
0
 49
0.0
 74
0
 49
-3.0
 74
0
 49
0.0
 74
0
 49
-3.0
 74
0
 49
0.0
 74
0
 49
-3.0
 74
0
  0
LTYPE
  5
43
100
AcDbSymbolTableRecord
100
AcDbLinetypeTableRecord
  2
CENTER
 70
0
  3
Center ____ _ ____ _ ____ _ ____ _ ____ _ ____
 72
65
 73
4
 40
50.800000000000004
 49
31.75
 74
0
 49
-6.3499999999999996
 74
0
 49
6.3499999999999996
 74
0
 49
-6.3499999999999996
 74
0
  0
LTYPE
  5
44
100
AcDbSymbolTableRecord
100
AcDbLinetypeTableRecord
  2
DOTX2
 70
0
  3
Dot (2x) .  .  .  .  .  .  .  .  .  .  .  .  .  .
 72
65
 73
2
 40
12.699999999999999
 49
0.0
 74
0
 49
-12.699999999999999
 74
0
  0
LTYPE
  5
45
100
AcDbSymbolTableRecord
100
AcDbLinetypeTableRecord
  2
PHANTOM
 70
0
  3
Phantom ______  __  __  ______  __  __  ______ 
 72
65
 73
6
 40
63.500000000000007
 49
31.75
 74
0
 49
-6.3499999999999996
 74
0
 49
6.3499999999999996
 74
0
 49
-6.3499999999999996
 74
0
 49
6.3499999999999996
 74
0
 49
-6.3499999999999996
 74
0
  0
LTYPE
  5
46
100
AcDbSymbolTableRecord
100
AcDbLinetypeTableRecord
  2
ACAD_ISO08W100
 70
0
  3
ISO long-dash short-dash ____ __ ____ __ ____ _
 72
65
 73
4
 40
36.0
 49
24.0
 74
0
 49
-3.0
 74
0
 49
6.0
 74
0
 49
-3.0
 74
0
  0
LTYPE
  5
47
100
AcDbSymbolTableRecord
100
AcDbLinetypeTableRecord
  2
DASHEDX2
 70
0
  3
Dashed (2x) ____  ____  ____  ____  ____  ___
 72
65
 73
2
 40
38.099999999999994
 49
25.399999999999999
 74
0
 49
-12.699999999999999
 74
0
  0
LTYPE
  5
48
100
AcDbSymbolTableRecord
100
AcDbLinetypeTableRecord
  2
ACAD_ISO02W100
 70
0
  3
ISO dash __ __ __ __ __ __ __ __ __ __ __ __ __
 72
65
 73
2
 40
15.0
 49
12.0
 74
0
 49
-3.0
 74
0
  0
LTYPE
  5
49
100
AcDbSymbolTableRecord
100
AcDbLinetypeTableRecord
  2
PHANTOM2
 70
0
  3
Phantom (.5x) ___ _ _ ___ _ _ ___ _ _ ___ _ _
 72
65
 73
6
 40
31.750000000000004
 49
15.875
 74
0
 49
-3.1749999999999998
 74
0
 49
3.1749999999999998
 74
0
 49
-3.1749999999999998
 74
0
 49
3.1749999999999998
 74
0
 49
-3.1749999999999998
 74
0
  0
LTYPE
  5
4A
100
AcDbSymbolTableRecord
100
AcDbLinetypeTableRecord
  2
DASHED2
 70
0
  3
Dashed (.5x) _ _ _ _ _ _ _ _ _ _ _ _ _ _ _ _ _ 
 72
65
 73
2
 40
9.5249999999999986
 49
6.3499999999999996
 74
0
 49
-3.1749999999999998
 74
0
  0
LTYPE
  5
4B
100
AcDbSymbolTableRecord
100
AcDbLinetypeTableRecord
  2
ACAD_ISO09W100
 70
0
  3
ISO long-dash double-short-dash ____ __ __ ____
 72
65
 73
6
 40
45.0
 49
24.0
 74
0
 49
-3.0
 74
0
 49
6.0
 74
0
 49
-3.0
 74
0
 49
6.0
 74
0
 49
-3.0
 74
0
  0
LTYPE
  5
4C
100
AcDbSymbolTableRecord
100
AcDbLinetypeTableRecord
  2
ACAD_ISO13W100
 70
0
  3
ISO double-dash double-dot __ __ . . __ __ . . _
 72
65
 73
8
 40
36.0
 49
12.0
 74
0
 49
-3.0
 74
0
 49
12.0
 74
0
 49
-3.0
 74
0
 49
0.0
 74
0
 49
-3.0
 74
0
 49
0.0
 74
0
 49
-3.0
 74
0
  0
LTYPE
  5
4D
100
AcDbSymbolTableRecord
100
AcDbLinetypeTableRecord
  2
DOT2
 70
0
  3
Dot (.5x) ........................................
 72
65
 73
2
 40
3.1749999999999998
 49
0.0
 74
0
 49
-3.1749999999999998
 74
0
  0
LTYPE
  5
4E
100
AcDbSymbolTableRecord
100
AcDbLinetypeTableRecord
  2
DASHED
 70
0
  3
Dashed __ __ __ __ __ __ __ __ __ __ __ __ __ _
 72
65
 73
2
 40
19.049999999999997
 49
12.699999999999999
 74
0
 49
-6.3499999999999996
 74
0
  0
LTYPE
  5
4F
100
AcDbSymbolTableRecord
100
AcDbLinetypeTableRecord
  2
ACAD_ISO14W100
 70
0
  3
ISO dash triple-dot __ . . . __ . . . __ . . . _
 72
65
 73
8
 40
24.0
 49
12.0
 74
0
 49
-3.0
 74
0
 49
0.0
 74
0
 49
-3.0
 74
0
 49
0.0
 74
0
 49
-3.0
 74
0
 49
0.0
 74
0
 49
-3.0
 74
0
  0
LTYPE
  5
15
100
AcDbSymbolTableRecord
100
AcDbLinetypeTableRecord
  2
BYLAYER
 70
0
  3

 72
65
 73
0
 40
0.0
  0
LTYPE
  5
50
100
AcDbSymbolTableRecord
100
AcDbLinetypeTableRecord
  2
PHANTOMX2
 70
0
  3
Phantom (2x) ____________    ____    ____   _
 72
65
 73
6
 40
127.00000000000001
 49
63.5
 74
0
 49
-12.699999999999999
 74
0
 49
12.699999999999999
 74
0
 49
-12.699999999999999
 74
0
 49
12.699999999999999
 74
0
 49
-12.699999999999999
 74
0
  0
LTYPE
  5
14
100
AcDbSymbolTableRecord
100
AcDbLinetypeTableRecord
  2
BYBLOCK
 70
0
  3

 72
65
 73
0
 40
0.0
  0
LTYPE
  5
51
100
AcDbSymbolTableRecord
100
AcDbLinetypeTableRecord
  2
DIVIDEX2
 70
0
  3
Divide (2x) ________  .  .  ________  .  .  _
 72
65
 73
6
 40
63.5
 49
25.399999999999999
 74
0
 49
-12.699999999999999
 74
0
 49
0.0
 74
0
 49
-12.699999999999999
 74
0
 49
0.0
 74
0
 49
-12.699999999999999
 74
0
  0
LTYPE
  5
52
100
AcDbSymbolTableRecord
100
AcDbLinetypeTableRecord
  2
BORDER
 70
0
  3
Border __ __ . __ __ . __ __ . __ __ . __ __ .
 72
65
 73
6
 40
44.449999999999996
 49
12.699999999999999
 74
0
 49
-6.3499999999999996
 74
0
 49
12.699999999999999
 74
0
 49
-6.3499999999999996
 74
0
 49
0.0
 74
0
 49
-6.3499999999999996
 74
0
  0
LTYPE
  5
53
100
AcDbSymbolTableRecord
100
AcDbLinetypeTableRecord
  2
DIVIDE2
 70
0
  3
Divide (.5x) __..__..__..__..__..__..__..__.._
 72
65
 73
6
 40
15.875
 49
6.3499999999999996
 74
0
 49
-3.1749999999999998
 74
0
 49
0.0
 74
0
 49
-3.1749999999999998
 74
0
 49
0.0
 74
0
 49
-3.1749999999999998
 74
0
  0
LTYPE
  5
54
100
AcDbSymbolTableRecord
100
AcDbLinetypeTableRecord
  2
DOT
 70
0
  3
Dot . . . . . . . . . . . . . . . . . . . . . . . .
 72
65
 73
2
 40
6.3499999999999996
 49
0.0
 74
0
 49
-6.3499999999999996
 74
0
  0
LTYPE
  5
55
100
AcDbSymbolTableRecord
100
AcDbLinetypeTableRecord
  2
DASHDOT
 70
0
  3
Dash dot __ . __ . __ . __ . __ . __ . __ . __
 72
65
 73
4
 40
25.399999999999999
 49
12.699999999999999
 74
0
 49
-6.3499999999999996
 74
0
 49
0.0
 74
0
 49
-6.3499999999999996
 74
0
  0
LTYPE
  5
56
100
AcDbSymbolTableRecord
100
AcDbLinetypeTableRecord
  2
ACAD_ISO03W100
 70
0
  3
ISO dash space __    __    __    __    __    __
 72
65
 73
2
 40
30.0
 49
12.0
 74
0
 49
-18.0
 74
0
  0
ENDTAB
  0
TABLE
  2
LAYER
  5
2
100
AcDbSymbolTable
 70
2
  0
LAYER
  5
57
100
AcDbSymbolTableRecord
100
AcDbLayerTableRecord
  2
_____1
 70
0
 62
0
  6
BYLAYER
370
5
390
F
  0
LAYER
  5
10
100
AcDbSymbolTableRecord
100
AcDbLayerTableRecord
  2
0
 70
0
 62
7
420
16777215
  6
Continuous
370
25
390
F
  0
ENDTAB
  0
TABLE
  2
STYLE
  5
3
100
AcDbSymbolTable
 70
1
  0
STYLE
  5
58
100
AcDbSymbolTableRecord
100
AcDbTextStyleTableRecord
  2
Standard
 70
0
 40
0.0
 41
1.0
 50
0.0
 71
0
 42
2.5
  3

  4

1001
ACAD
1000
txt
1071
0
  0
ENDTAB
  0
TABLE
  2
VIEW
  5
6
100
AcDbSymbolTable
 70
0
  0
ENDTAB
  0
TABLE
  2
UCS
  5
7
100
AcDbSymbolTable
 70
0
  0
ENDTAB
  0
TABLE
  2
APPID
  5
9
100
AcDbSymbolTable
 70
1
  0
APPID
  5
12
100
AcDbSymbolTableRecord
100
AcDbRegAppTableRecord
  2
ACAD
 70
0
  0
APPID
  5
59
100
AcDbSymbolTableRecord
100
AcDbRegAppTableRecord
  2
QCAD
 70
0
  0
ENDTAB
  0
TABLE
  2
DIMSTYLE
  5
A
100
AcDbSymbolTable
 70
1
100
AcDbDimStyleTable
 71
0
  0
DIMSTYLE
105
27
100
AcDbSymbolTableRecord
100
AcDbDimStyleTableRecord
  2
Standard
 41
0.18
 42
0.0625
 43
3.75
 44
0.18
 70
0
 73
0
 74
0
 77
1
 78
8
140
0.18
141
2.5
143
0.03937007874016
147
0.09
171
3
172
1
271
2
272
2
274
3
278
44
283
0
284
8
340
58
  0
ENDTAB
  0
TABLE
  2
BLOCK_RECORD
  5
1
100
AcDbSymbolTable
 70
1
  0
BLOCK_RECORD
  5
1F
100
AcDbSymbolTableRecord
100
AcDbBlockTableRecord
  2
*Model_Space
340
22
  0
BLOCK_RECORD
  5
1B
100
AcDbSymbolTableRecord
100
AcDbBlockTableRecord
  2
*Paper_Space
340
1E
  0
BLOCK_RECORD
  5
23
100
AcDbSymbolTableRecord
100
AcDbBlockTableRecord
  2
*Paper_Space0
340
26
  0
ENDTAB
  0
ENDSEC
  0
SECTION
  2
BLOCKS
  0
BLOCK
  5
20
100
AcDbEntity
  8
0
100
AcDbBlockBegin
  2
*Model_Space
 70
0
 10
0.0
 20
0.0
 30
0.0
  3
*Model_Space
  1

  0
ENDBLK
  5
21
100
AcDbEntity
  8
0
100
AcDbBlockEnd
  0
BLOCK
  5
1C
100
AcDbEntity
 67
1
  8
0
100
AcDbBlockBegin
  2
*Paper_Space
 70
0
 10
0.0
 20
0.0
 30
0.0
  3
*Paper_Space
  1

  0
ENDBLK
  5
1D
100
AcDbEntity
 67
1
  8
0
100
AcDbBlockEnd
  0
BLOCK
  5
24
100
AcDbEntity
  8
0
100
AcDbBlockBegin
  2
*Paper_Space0
 70
0
 10
0.0
 20
0.0
 30
0.0
  3
*Paper_Space0
  1

  0
ENDBLK
  5
25
100
AcDbEntity
  8
0
100
AcDbBlockEnd
  0
ENDSEC
  0
SECTION
  2
ENTITIES
  0
ARC
  5
5A
100
AcDbEntity
  8
_____1
 62
0
370
-1
 48
1.0
  6
BYLAYER
100
AcDbCircle
 10
66.125290000000007
 20
142.16373999999999
 30
0.0
 40
43.765459999999997
100
AcDbArc
 50
184.65517
 51
189.45830000000001
  0
ARC
  5
5B
100
AcDbEntity
  8
_____1
 62
0
370
-1
 48
1.0
  6
BYLAYER
100
AcDbCircle
 10
-17.15429
 20
130.34444999999999
 30
0.0
 40
40.375129999999999
100
AcDbArc
 50
1.3756000000000002
 51
6.5810399999999998
  0
ARC
  5
5C
100
AcDbEntity
  8
_____1
 62
0
370
-1
 48
1.0
  6
BYLAYER
100
AcDbCircle
 10
3.5756199999999998
 20
131.07304999999999
 30
0.0
 40
19.63505
100
AcDbArc
 50
-20.667110000000001
 51
0.70228
  0
ARC
  5
5D
100
AcDbEntity
  8
_____1
 62
0
370
-1
 48
1.0
  6
BYLAYER
100
AcDbCircle
 10
-39.384250000000002
 20
151.40147999999999
 30
0.0
 40
67.115970000000004
100
AcDbArc
 50
327.33294000000001
 51
336.03751
  0
ARC
  5
5E
100
AcDbEntity
  8
_____1
 62
0
370
-1
 48
1.0
  6
BYLAYER
100
AcDbCircle
 10
20.945550000000001
 20
112.70654999999999
 30
0.0
 40
4.5567799999999998
100
AcDbArc
 50
147.19703000000001
 51
208.09224
  0
ARC
  5
5F
100
AcDbEntity
  8
_____1
 62
0
370
-1
 48
1.0
  6
BYLAYER
100
AcDbCircle
 10
34.607509999999998
 20
119.66588
 30
0.0
 40
19.888500000000001
100
AcDbArc
 50
207.24563000000001
 51
229.75771000000003
  0
ARC
  5
60
100
AcDbEntity
  8
_____1
 62
0
370
-1
 48
1.0
  6
BYLAYER
100
AcDbCircle
 10
39.444780000000002
 20
125.10975999999999
 30
0.0
 40
27.169460000000001
100
AcDbArc
 50
229.38758000000004
 51
245.87699000000006
  0
ARC
  5
61
100
AcDbEntity
  8
_____1
 62
0
370
-1
 48
1.0
  6
BYLAYER
100
AcDbCircle
 10
674.25652000000002
 20
1621.3565100000001
 30
0.0
 40
1652.50737
100
AcDbArc
 50
246.99135000000001
 51
247.35490999999999
  0
ARC
  5
62
100
AcDbEntity
  8
_____1
 62
0
370
-1
 48
1.0
  6
BYLAYER
100
AcDbCircle
 10
-13.12771
 20
-20.433150000000001
 30
0.0
 40
127.39067
100
AcDbArc
 50
61.619220000000006
 51
66.335099999999997
  0
ARC
  5
63
100
AcDbEntity
  8
_____1
 62
0
370
-1
 48
1.0
  6
BYLAYER
100
AcDbCircle
 10
12.41249
 20
28.574729999999999
 30
0.0
 40
72.137860000000003
100
AcDbArc
 50
52.63653
 51
60.964410000000001
  0
ARC
  5
64
100
AcDbEntity
  8
_____1
 62
0
370
-1
 48
1.0
  6
BYLAYER
100
AcDbCircle
 10
23.34094
 20
43.72616
 30
0.0
 40
53.465760000000003
100
AcDbArc
 50
40.854010000000002
 51
52.091079999999998
  0
ARC
  5
65
100
AcDbEntity
  8
_____1
 62
0
370
-1
 48
1.0
  6
BYLAYER
100
AcDbCircle
 10
26.866900000000001
 20
47.153619999999997
 30
0.0
 40
48.55762
100
AcDbArc
 50
15.763299999999999
 51
40.516530000000003
  0
ARC
  5
66
100
AcDbEntity
  8
_____1
 62
0
370
-1
 48
1.0
  6
BYLAYER
100
AcDbCircle
 10
14.163629999999999
 20
42.762619999999998
 30
0.0
 40
61.980870000000003
100
AcDbArc
 50
6.7863899999999999
 51
16.479600000000001
  0
ARC
  5
67
100
AcDbEntity
  8
_____1
 62
0
370
-1
 48
1.0
  6
BYLAYER
100
AcDbCircle
 10
-3.94293
 20
40.077120000000001
 30
0.0
 40
80.279640000000001
100
AcDbArc
 50
-0.31476
 51
7.16256
  0
ARC
  5
68
100
AcDbEntity
  8
_____1
 62
0
370
-1
 48
1.0
  6
BYLAYER
100
AcDbCircle
 10
-84.652889999999999
 20
39.66675
 30
0.0
 40
160.98839000000001
100
AcDbArc
 50
352.76013
 51
359.98908999999998
  0
ARC
  5
69
100
AcDbEntity
  8
_____1
 62
0
370
-1
 48
1.0
  6
BYLAYER
100
AcDbCircle
 10
-42.044739999999997
 20
34.854689999999998
 30
0.0
 40
118.11502
100
AcDbArc
 50
342.62049999999999
 51
352.47104999999999
  0
ARC
  5
6A
100
AcDbEntity
  8
_____1
 62
0
370
-1
 48
1.0
  6
BYLAYER
100
AcDbCircle
 10
79.212919999999997
 20
-3.2726500000000001
 30
0.0
 40
8.9970599999999994
100
AcDbArc
 50
161.55611999999996
 51
185.48353
  0
ARC
  5
6B
100
AcDbEntity
  8
_____1
 62
0
370
-1
 48
1.0
  6
BYLAYER
100
AcDbCircle
 10
77.495059999999995
 20
-3.2793600000000001
 30
0.0
 40
7.2881299999999998
100
AcDbArc
 50
186.72169
 51
216.27271000000002
  0
ARC
  5
6C
100
AcDbEntity
  8
_____1
 62
0
370
-1
 48
1.0
  6
BYLAYER
100
AcDbCircle
 10
77.679450000000003
 20
-3.1021700000000001
 30
0.0
 40
7.54169
100
AcDbArc
 50
216.52918
 51
273.77435000000008
  0
ARC
  5
6D
100
AcDbEntity
  8
_____1
 62
0
370
-1
 48
1.0
  6
BYLAYER
100
AcDbCircle
 10
77.392120000000006
 20
9.7334499999999995
 30
0.0
 40
20.37603
100
AcDbArc
 50
272.20447000000007
 51
288.48696000000001
  0
ARC
  5
6E
100
AcDbEntity
  8
_____1
 62
0
370
-1
 48
1.0
  6
BYLAYER
100
AcDbCircle
 10
75.747519999999994
 20
15.879770000000001
 30
0.0
 40
26.729489999999998
100
AcDbArc
 50
287.65265999999997
 51
300.06392
  0
ARC
  5
6F
100
AcDbEntity
  8
_____1
 62
0
370
-1
 48
1.0
  6
BYLAYER
100
AcDbCircle
 10
73.863489999999999
 20
19.482299999999999
 30
0.0
 40
30.791689999999999
100
AcDbArc
 50
299.73981999999995
 51
321.28726
  0
ARC
  5
70
100
AcDbEntity
  8
_____1
 62
0
370
-1
 48
1.0
  6
BYLAYER
100
AcDbCircle
 10
72.942300000000003
 20
20.399100000000001
 30
0.0
 40
32.08417
100
AcDbArc
 50
321.03859999999997
 51
341.71501999999998
  0
ARC
  5
71
100
AcDbEntity
  8
_____1
 62
0
370
-1
 48
1.0
  6
BYLAYER
100
AcDbCircle
 10
70.237740000000002
 20
21.379059999999999
 30
0.0
 40
34.959719999999997
100
AcDbArc
 50
341.58071999999999
 51
360.55860999999999
  0
ARC
  5
72
100
AcDbEntity
  8
_____1
 62
0
370
-1
 48
1.0
  6
BYLAYER
100
AcDbCircle
 10
54.575330000000001
 20
21.719750000000001
 30
0.0
 40
50.620469999999997
100
AcDbArc
 50
0.00017
 51
12.513809999999999
  0
ARC
  5
73
100
AcDbEntity
  8
_____1
 62
0
370
-1
 48
1.0
  6
BYLAYER
100
AcDbCircle
 10
30.38073
 20
17.40654
 30
0.0
 40
75.181950000000001
100
AcDbArc
 50
11.727589999999998
 51
20.151900000000001
  0
ARC
  5
74
100
AcDbEntity
  8
_____1
 62
0
370
-1
 48
1.0
  6
BYLAYER
100
AcDbCircle
 10
-10.927759999999999
 20
3.3504
 30
0.0
 40
118.80862
100
AcDbArc
 50
19.652499999999996
 51
30.316510000000001
  0
ARC
  5
75
100
AcDbEntity
  8
_____1
 62
0
370
-1
 48
1.0
  6
BYLAYER
100
AcDbCircle
 10
130.06702999999999
 20
85.645290000000003
 30
0.0
 40
44.44585
100
AcDbArc
 50
193.46862999999999
 51
210.14921000000001
  0
ARC
  5
76
100
AcDbEntity
  8
_____1
 62
0
370
-1
 48
1.0
  6
BYLAYER
100
AcDbCircle
 10
117.28794000000001
 20
82.004339999999999
 30
0.0
 40
31.1753
100
AcDbArc
 50
180.53822
 51
192.43128999999999
  0
ARC
  5
77
100
AcDbEntity
  8
_____1
 62
0
370
-1
 48
1.0
  6
BYLAYER
100
AcDbCircle
 10
105.02418
 20
81.639150000000001
 30
0.0
 40
18.910299999999999
100
AcDbArc
 50
160.20124999999999
 51
179.78082000000001
  0
ARC
  5
78
100
AcDbEntity
  8
_____1
 62
0
370
-1
 48
1.0
  6
BYLAYER
100
AcDbCircle
 10
93.209710000000001
 20
85.449770000000001
 30
0.0
 40
6.5168100000000004
100
AcDbArc
 50
132.82010999999997
 51
156.53774000000001
  0
ARC
  5
79
100
AcDbEntity
  8
_____1
 62
0
370
-1
 48
1.0
  6
BYLAYER
100
AcDbCircle
 10
90.042339999999996
 20
88.501069999999999
 30
0.0
 40
2.1404000000000001
100
AcDbArc
 50
53.780760000000001
 51
126.13212999999999
  0
ARC
  5
7A
100
AcDbEntity
  8
_____1
 62
0
370
-1
 48
1.0
  6
BYLAYER
100
AcDbCircle
 10
88.675880000000006
 20
86.248429999999999
 30
0.0
 40
4.7706299999999997
100
AcDbArc
 50
23.863050000000001
 51
56.527650000000001
  0
ARC
  5
7B
100
AcDbEntity
  8
_____1
 62
0
370
-1
 48
1.0
  6
BYLAYER
100
AcDbCircle
 10
83.726960000000005
 20
83.148669999999996
 30
0.0
 40
10.583320000000001
100
AcDbArc
 50
13.80198
 51
28.375690000000002
  0
ARC
  5
7C
100
AcDbEntity
  8
_____1
 62
0
370
-1
 48
1.0
  6
BYLAYER
100
AcDbCircle
 10
151.23645999999999
 20
101.13594000000001
 30
0.0
 40
59.283740000000002
100
AcDbArc
 50
195.11877999999999
 51
203.63557999999998
  0
ARC
  5
7D
100
AcDbEntity
  8
_____1
 62
0
370
-1
 48
1.0
  6
BYLAYER
100
AcDbCircle
 10
204.93078
 20
122.88172
 30
0.0
 40
117.20312
100
AcDbArc
 50
202.85074
 51
207.15822999999997
  0
ARC
  5
7E
100
AcDbEntity
  8
_____1
 62
0
370
-1
 48
1.0
  6
BYLAYER
100
AcDbCircle
 10
997.19376999999997
 20
518.47175000000004
 30
0.0
 40
1002.7319
100
AcDbArc
 50
206.60670999999999
 51
207.61367000000001
  0
ARC
  5
7F
100
AcDbEntity
  8
_____1
 62
0
370
-1
 48
1.0
  6
BYLAYER
100
AcDbCircle
 10
-8.0864899999999995
 20
-3.4361100000000002
 30
0.0
 40
129.99511000000001
100
AcDbArc
 50
18.308049999999998
 51
26.072659999999996
  0
ARC
  5
80
100
AcDbEntity
  8
_____1
 62
0
370
-1
 48
1.0
  6
BYLAYER
100
AcDbCircle
 10
54.526679999999999
 20
18.921530000000001
 30
0.0
 40
63.547319999999999
100
AcDbArc
 50
1.0213000000000001
 51
16.903620000000004
  0
ARC
  5
81
100
AcDbEntity
  8
_____1
 62
0
370
-1
 48
1.0
  6
BYLAYER
100
AcDbCircle
 10
63.589880000000001
 20
20.059010000000001
 30
0.0
 40
54.474020000000003
100
AcDbArc
 50
340.22037999999998
 51
359.99493999999999
  0
ARC
  5
82
100
AcDbEntity
  8
_____1
 62
0
370
-1
 48
1.0
  6
BYLAYER
100
AcDbCircle
 10
74.409999999999997
 20
16.89884
 30
0.0
 40
43.228340000000003
100
AcDbArc
 50
314.38848999999999
 51
339.30867000000001
  0
ARC
  5
83
100
AcDbEntity
  8
_____1
 62
0
370
-1
 48
1.0
  6
BYLAYER
100
AcDbCircle
 10
74.808409999999995
 20
17.017579999999999
 30
0.0
 40
43.036070000000002
100
AcDbArc
 50
288.84575000000001
 51
313.89884999999998
  0
ARC
  5
84
100
AcDbEntity
  8
_____1
 62
0
370
-1
 48
1.0
  6
BYLAYER
100
AcDbCircle
 10
69.1614
 20
30.781330000000001
 30
0.0
 40
57.893039999999999
100
AcDbArc
 50
271.10693000000003
 51
289.73482000000001
  0
ARC
  5
85
100
AcDbEntity
  8
_____1
 62
0
370
-1
 48
1.0
  6
BYLAYER
100
AcDbCircle
 10
-1.7979499999999999
 20
133.23031
 30
0.0
 40
175.78765999999999
100
AcDbArc
 50
289.63270999999997
 51
294.20654999999999
  0
ARC
  5
86
100
AcDbEntity
  8
_____1
 62
0
370
-1
 48
1.0
  6
BYLAYER
100
AcDbCircle
 10
44.411999999999999
 20
7.0568499999999998
 30
0.0
 40
41.438569999999999
100
AcDbArc
 50
278.37212
 51
288.06921
  0
ARC
  5
87
100
AcDbEntity
  8
_____1
 62
0
370
-1
 48
1.0
  6
BYLAYER
100
AcDbCircle
 10
48.768129999999999
 20
-18.204879999999999
 30
0.0
 40
15.824389999999999
100
AcDbArc
 50
250.69830999999999
 51
276.08479999999997
  0
ARC
  5
88
100
AcDbEntity
  8
_____1
 62
0
370
-1
 48
1.0
  6
BYLAYER
100
AcDbCircle
 10
30.306819999999998
 20
-67.831360000000004
 30
0.0
 40
37.128900000000002
100
AcDbArc
 50
69.124129999999994
 51
83.771239999999992
  0
ARC
  5
89
100
AcDbEntity
  8
_____1
 62
0
370
-1
 48
1.0
  6
BYLAYER
100
AcDbCircle
 10
26.49353
 20
-84.521259999999998
 30
0.0
 40
54.170209999999997
100
AcDbArc
 50
81.676579999999987
 51
86.691230000000004
  0
ARC
  5
8A
100
AcDbEntity
  8
_____1
 62
0
370
-1
 48
1.0
  6
BYLAYER
100
AcDbCircle
 10
28.581700000000001
 20
-50.985579999999999
 30
0.0
 40
20.570450000000001
100
AcDbArc
 50
87.106579999999994
 51
100.28714999999998
  0
ARC
  5
8B
100
AcDbEntity
  8
_____1
 62
0
370
-1
 48
1.0
  6
BYLAYER
100
AcDbCircle
 10
15.498810000000001
 20
-3.7490000000000001
 30
0.0
 40
28.589580000000002
100
AcDbArc
 50
278.43124999999998
 51
289.21534000000003
  0
ARC
  5
8C
100
AcDbEntity
  8
_____1
 62
0
370
-1
 48
1.0
  6
BYLAYER
100
AcDbCircle
 10
18.288609999999998
 20
-19.775300000000001
 30
0.0
 40
12.334239999999999
100
AcDbArc
 50
264.02528999999998
 51
276.52713
  0
ARC
  5
8D
100
AcDbEntity
  8
_____1
 62
0
370
-1
 48
1.0
  6
BYLAYER
100
AcDbCircle
 10
25.70617
 20
41.890770000000003
 30
0.0
 40
74.44359
100
AcDbArc
 50
261.21607999999998
 51
263.28757000000002
  0
ARC
  5
8E
100
AcDbEntity
  8
_____1
 62
0
370
-1
 48
1.0
  6
BYLAYER
100
AcDbCircle
 10
14.337999999999999
 20
-8.8432099999999991
 30
0.0
 40
22.836490000000001
100
AcDbArc
 50
259.96436
 51
270.0
  0
ARC
  5
8F
100
AcDbEntity
  8
_____1
 62
0
370
-1
 48
1.0
  6
BYLAYER
100
AcDbCircle
 10
11.60153
 20
-26.905449999999998
 30
0.0
 40
4.59612
100
AcDbArc
 50
229.41462999999996
 51
254.30884
  0
ARC
  5
90
100
AcDbEntity
  8
_____1
 62
0
370
-1
 48
1.0
  6
BYLAYER
100
AcDbCircle
 10
10.35749
 20
-28.683579999999999
 30
0.0
 40
2.4456000000000002
100
AcDbArc
 50
177.67335
 51
224.44055
  0
ARC
  5
91
100
AcDbEntity
  8
_____1
 62
0
370
-1
 48
1.0
  6
BYLAYER
100
AcDbCircle
 10
12.12157
 20
-28.567799999999998
 30
0.0
 40
4.2077099999999996
100
AcDbArc
 50
129.30902000000003
 51
180.22468000000001
  0
ARC
  5
92
100
AcDbEntity
  8
_____1
 62
0
370
-1
 48
1.0
  6
BYLAYER
100
AcDbCircle
 10
19.359500000000001
 20
-34.616
 30
0.0
 40
13.5883
100
AcDbArc
 50
121.14331
 51
136.78816
  0
ARC
  5
93
100
AcDbEntity
  8
_____1
 62
0
370
-1
 48
1.0
  6
BYLAYER
100
AcDbCircle
 10
17.484940000000002
 20
-17.056819999999998
 30
0.0
 40
7.8555799999999998
100
AcDbArc
 50
195.18966
 51
229.00665000000001
  0
ARC
  5
94
100
AcDbEntity
  8
_____1
 62
0
370
-1
 48
1.0
  6
BYLAYER
100
AcDbCircle
 10
-36.506459999999997
 20
0.27265
 30
0.0
 40
50.297089999999997
100
AcDbArc
 50
327.70501999999999
 51
337.32742000000002
  0
ARC
  5
95
100
AcDbEntity
  8
_____1
 62
0
370
-1
 48
1.0
  6
BYLAYER
100
AcDbCircle
 10
-0.57834
 20
-22.074159999999999
 30
0.0
 40
7.9931700000000001
100
AcDbArc
 50
308.94741000000005
 51
325.51342
  0
ARC
  5
96
100
AcDbEntity
  8
_____1
 62
0
370
-1
 48
1.0
  6
BYLAYER
100
AcDbCircle
 10
1.5084900000000001
 20
-24.290479999999999
 30
0.0
 40
4.9630200000000002
100
AcDbArc
 50
279.59692999999999
 51
306.29372000000006
  0
ARC
  5
97
100
AcDbEntity
  8
_____1
 62
0
370
-1
 48
1.0
  6
BYLAYER
100
AcDbCircle
 10
1.0299199999999999
 20
-21.353359999999999
 30
0.0
 40
7.9388300000000003
100
AcDbArc
 50
262.74726000000004
 51
279.46847000000002
  0
ARC
  5
98
100
AcDbEntity
  8
_____1
 62
0
370
-1
 48
1.0
  6
BYLAYER
100
AcDbCircle
 10
-0.49514
 20
-38.251939999999998
 30
0.0
 40
9.0383999999999993
100
AcDbArc
 50
86.683940000000007
 51
101.26587000000001
  0
ARC
  5
99
100
AcDbEntity
  8
_____1
 62
0
370
-1
 48
1.0
  6
BYLAYER
100
AcDbCircle
 10
-10.853429999999999
 20
-9.0980399999999992
 30
0.0
 40
22.034109999999998
100
AcDbArc
 50
276.10201999999998
 51
292.95230999999995
  0
ARC
  5
9A
100
AcDbEntity
  8
_____1
 62
0
370
-1
 48
1.0
  6
BYLAYER
100
AcDbCircle
 10
-8.9892199999999995
 20
-18.365320000000001
 30
0.0
 40
12.651020000000001
100
AcDbArc
 50
257.45585999999997
 51
272.16534000000001
  0
ARC
  5
9B
100
AcDbEntity
  8
_____1
 62
0
370
-1
 48
1.0
  6
BYLAYER
100
AcDbCircle
 10
-15.33785
 20
-51.221139999999998
 30
0.0
 40
20.820550000000001
100
AcDbArc
 50
80.040539999999993
 51
88.962609999999984
  0
ARC
  5
9C
100
AcDbEntity
  8
_____1
 62
0
370
-1
 48
1.0
  6
BYLAYER
100
AcDbCircle
 10
-15.19631
 20
-25.747319999999998
 30
0.0
 40
4.6626300000000001
100
AcDbArc
 50
242.02153000000001
 51
272.89404999999999
  0
ARC
  5
9D
100
AcDbEntity
  8
_____1
 62
0
370
-1
 48
1.0
  6
BYLAYER
100
AcDbCircle
 10
-16.105039999999999
 20
-28.121210000000001
 30
0.0
 40
2.1623700000000001
100
AcDbArc
 50
200.20927
 51
233.74789000000001
  0
ARC
  5
9E
100
AcDbEntity
  8
_____1
 62
0
370
-1
 48
1.0
  6
BYLAYER
100
AcDbCircle
 10
-13.33501
 20
-26.913129999999999
 30
0.0
 40
5.18222
100
AcDbArc
 50
195.17221000000004
 51
202.16443000000001
  0
ARC
  5
9F
100
AcDbEntity
  8
_____1
 62
0
370
-1
 48
1.0
  6
BYLAYER
100
AcDbCircle
 10
-19.249099999999999
 20
-28.551259999999999
 30
0.0
 40
0.9550300000000001
100
AcDbArc
 50
17.16394
 51
53.900310000000005
  0
ARC
  5
A0
100
AcDbEntity
  8
_____1
 62
0
370
-1
 48
1.0
  6
BYLAYER
100
AcDbCircle
 10
-19.183450000000001
 20
-14.80622
 30
0.0
 40
12.982889999999999
100
AcDbArc
 50
262.89519999999999
 51
272.19409999999999
  0
ARC
  5
A1
100
AcDbEntity
  8
_____1
 62
0
370
-1
 48
1.0
  6
BYLAYER
100
AcDbCircle
 10
-20.433979999999998
 20
-25.885919999999999
 30
0.0
 40
1.83816
100
AcDbArc
 50
226.35534000000001
 51
258.85671000000002
  0
ARC
  5
A2
100
AcDbEntity
  8
_____1
 62
0
370
-1
 48
1.0
  6
BYLAYER
100
AcDbCircle
 10
-19.933070000000001
 20
-25.991800000000001
 30
0.0
 40
2.1518099999999998
100
AcDbArc
 50
200.63077000000001
 51
214.67729
  0
ARC
  5
A3
100
AcDbEntity
  8
_____1
 62
0
370
-1
 48
1.0
  6
BYLAYER
100
AcDbCircle
 10
-22.41234
 20
-27.080660000000002
 30
0.0
 40
0.57096
100
AcDbArc
 50
35.391820000000003
 51
89.956310000000002
  0
ARC
  5
A4
100
AcDbEntity
  8
_____1
 62
0
370
-1
 48
1.0
  6
BYLAYER
100
AcDbCircle
 10
-20.60183
 20
-14.5669
 30
0.0
 40
12.079190000000001
100
AcDbArc
 50
250.98386000000002
 51
261.38175000000001
  0
ARC
  5
A5
100
AcDbEntity
  8
_____1
 62
0
370
-1
 48
1.0
  6
BYLAYER
100
AcDbCircle
 10
-23.566220000000001
 20
-23.80218
 30
0.0
 40
2.3909500000000001
100
AcDbArc
 50
194.28910000000002
 51
246.02781999999999
  0
ARC
  5
A6
100
AcDbEntity
  8
_____1
 62
0
370
-1
 48
1.0
  6
BYLAYER
100
AcDbCircle
 10
-19.120560000000001
 20
-23.753309999999999
 30
0.0
 40
6.7927600000000004
100
AcDbArc
 50
144.82715999999999
 51
185.39775
  0
ARC
  5
A7
100
AcDbEntity
  8
_____1
 62
0
370
-1
 48
1.0
  6
BYLAYER
100
AcDbCircle
 10
-14.097799999999999
 20
-26.915379999999999
 30
0.0
 40
12.723699999999999
100
AcDbArc
 50
124.53454999999998
 51
146.21695999999997
  0
ARC
  5
A8
100
AcDbEntity
  8
_____1
 62
0
370
-1
 48
1.0
  6
BYLAYER
100
AcDbCircle
 10
-6.1802700000000002
 20
-29.752310000000001
 30
0.0
 40
20.157350000000001
100
AcDbArc
 50
129.17023
 51
138.64462999999998
  0
ARC
  5
A9
100
AcDbEntity
  8
_____1
 62
0
370
-1
 48
1.0
  6
BYLAYER
100
AcDbCircle
 10
-15.6708
 20
-18.727419999999999
 30
0.0
 40
5.6294000000000004
100
AcDbArc
 50
91.066749999999999
 51
125.15549
  0
ARC
  5
AA
100
AcDbEntity
  8
_____1
 62
0
370
-1
 48
1.0
  6
BYLAYER
100
AcDbCircle
 10
-62.272010000000002
 20
-4.7154699999999998
 30
0.0
 40
47.246160000000003
100
AcDbArc
 50
349.77910000000003
 51
357.37151999999998
  0
ARC
  5
AB
100
AcDbEntity
  8
_____1
 62
0
370
-1
 48
1.0
  6
BYLAYER
100
AcDbCircle
 10
-78.037040000000005
 20
-3.2288399999999999
 30
0.0
 40
63.06738
100
AcDbArc
 50
356.67916000000002
 51
359.52255999999994
  0
ARC
  5
AC
100
AcDbEntity
  8
_____1
 62
0
370
-1
 48
1.0
  6
BYLAYER
100
AcDbCircle
 10
-32.816339999999997
 20
-3.5848800000000001
 30
0.0
 40
17.845300000000002
100
AcDbArc
 50
359.45582000000002
 51
369.48682999999994
  0
ARC
  5
AD
100
AcDbEntity
  8
_____1
 62
0
370
-1
 48
1.0
  6
BYLAYER
100
AcDbCircle
 10
-0.6394800000000001
 20
5.91106
 30
0.0
 40
15.981619999999999
100
AcDbArc
 50
187.47799000000001
 51
204.21346
  0
ARC
  5
AE
100
AcDbEntity
  8
_____1
 62
0
370
-1
 48
1.0
  6
BYLAYER
100
AcDbCircle
 10
68.27328
 20
21.51821
 30
0.0
 40
86.584230000000005
100
AcDbArc
 50
188.70338999999998
 51
191.78711999999999
  0
ARC
  5
AF
100
AcDbEntity
  8
_____1
 62
0
370
-1
 48
1.0
  6
BYLAYER
100
AcDbCircle
 10
209.2672
 20
44.77458
 30
0.0
 40
229.47970000000001
100
AcDbArc
 50
186.78895
 51
189.11623
  0
ARC
  5
B0
100
AcDbEntity
  8
_____1
 62
0
370
-1
 48
1.0
  6
BYLAYER
100
AcDbCircle
 10
795.39009999999996
 20
119.98515
 30
0.0
 40
820.40146000000004
100
AcDbArc
 50
186.51481999999996
 51
187.16582
  0
ARC
  5
B1
100
AcDbEntity
  8
_____1
 62
0
370
-1
 48
1.0
  6
BYLAYER
100
AcDbCircle
 10
-794.65791999999999
 20
-64.502200000000002
 30
0.0
 40
780.31620999999996
100
AcDbArc
 50
6.726939999999999
 51
7.0691299999999995
  0
ARC
  5
B2
100
AcDbEntity
  8
_____1
 62
0
370
-1
 48
1.0
  6
BYLAYER
100
AcDbCircle
 10
-77.861969999999999
 20
24.205290000000002
 30
0.0
 40
58.052399999999999
100
AcDbArc
 50
7.2473900000000002
 51
11.84782
  0
ARC
  5
B3
100
AcDbEntity
  8
_____1
 62
0
370
-1
 48
1.0
  6
BYLAYER
100
AcDbCircle
 10
34.858870000000003
 20
75.470740000000006
 30
0.0
 40
68.363280000000003
100
AcDbArc
 50
205.76602
 51
215.13821999999999
  0
ARC
  5
B4
100
AcDbEntity
  8
_____1
 62
0
370
-1
 48
1.0
  6
BYLAYER
100
AcDbCircle
 10
71.511930000000007
 20
96.237690000000001
 30
0.0
 40
110.43424
100
AcDbArc
 50
201.40384
 51
207.20292000000001
  0
ARC
  5
B5
100
AcDbEntity
  8
_____1
 62
0
370
-1
 48
1.0
  6
BYLAYER
100
AcDbCircle
 10
-236.54319000000001
 20
-24.379989999999999
 30
0.0
 40
220.3929
100
AcDbArc
 50
21.371980000000001
 51
25.773510000000002
  0
ARC
  5
B6
100
AcDbEntity
  8
_____1
 62
0
370
-1
 48
1.0
  6
BYLAYER
100
AcDbCircle
 10
-19.802779999999998
 20
79.749750000000006
 30
0.0
 40
20.068840000000002
100
AcDbArc
 50
176.49632999999997
 51
204.42861999999997
  0
ARC
  5
B7
100
AcDbEntity
  8
_____1
 62
0
370
-1
 48
1.0
  6
BYLAYER
100
AcDbCircle
 10
-3.4077600000000001
 20
80.027799999999999
 30
0.0
 40
36.438690000000001
100
AcDbArc
 50
163.1335
 51
178.50856999999996
  0
ARC
  5
B8
100
AcDbEntity
  8
_____1
 62
0
370
-1
 48
1.0
  6
BYLAYER
100
AcDbCircle
 10
38.26491
 20
69.861249999999998
 30
0.0
 40
79.30368
100
AcDbArc
 50
157.77931000000001
 51
164.84012000000001
  0
ARC
  5
B9
100
AcDbEntity
  8
_____1
 62
0
370
-1
 48
1.0
  6
BYLAYER
100
AcDbCircle
 10
163.11610999999999
 20
22.340900000000001
 30
0.0
 40
212.87812
100
AcDbArc
 50
156.01738999999998
 51
158.64718999999999
  0
ARC
  5
BA
100
AcDbEntity
  8
_____1
 62
0
370
-1
 48
1.0
  6
BYLAYER
100
AcDbCircle
 10
-34.711880000000001
 20
110.21227
 30
0.0
 40
3.5894300000000001
100
AcDbArc
 50
337.99238999999994
 51
366.05834999999996
  0
ARC
  5
BB
100
AcDbEntity
  8
_____1
 62
0
370
-1
 48
1.0
  6
BYLAYER
100
AcDbCircle
 10
82.847920000000002
 20
124.05454
 30
0.0
 40
114.78274999999999
100
AcDbArc
 50
184.49807000000001
 51
186.73600999999999
  0
ARC
  5
BC
100
AcDbEntity
  8
_____1
 62
0
370
-1
 48
1.0
  6
BYLAYER
100
AcDbCircle
 10
-18.05416
 20
115.67346000000001
 30
0.0
 40
13.54138
100
AcDbArc
 50
163.71441999999999
 51
182.62773000000004
  0
ARC
  5
BD
100
AcDbEntity
  8
_____1
 62
0
370
-1
 48
1.0
  6
BYLAYER
100
AcDbCircle
 10
-51.47936
 20
127.84654
 30
0.0
 40
22.077629999999999
100
AcDbArc
 50
337.70492999999993
 51
352.94893000000002
  0
ARC
  5
BE
100
AcDbEntity
  8
_____1
 62
0
370
-1
 48
1.0
  6
BYLAYER
100
AcDbCircle
 10
-46.801430000000003
 20
126.46116000000001
 30
0.0
 40
17.283580000000001
100
AcDbArc
 50
355.60412000000002
 51
375.12401
  0
ARC
  5
BF
100
AcDbEntity
  8
_____1
 62
0
370
-1
 48
1.0
  6
BYLAYER
100
AcDbCircle
 10
-1.6874100000000001
 20
136.72763
 30
0.0
 40
29.006150000000002
100
AcDbArc
 50
177.50021000000001
 51
191.44785999999999
  0
ARC
  5
C0
100
AcDbEntity
  8
_____1
 62
0
370
-1
 48
1.0
  6
BYLAYER
100
AcDbCircle
 10
-15.80598
 20
136.48428000000001
 30
0.0
 40
14.93634
100
AcDbArc
 50
147.02923999999999
 51
174.20359999999999
  0
ARC
  5
C1
100
AcDbEntity
  8
_____1
 62
0
370
-1
 48
1.0
  6
BYLAYER
100
AcDbCircle
 10
7.4087500000000004
 20
161.50805
 30
0.0
 40
39.53725
100
AcDbArc
 50
196.45253
 51
205.29791
  0
ARC
  5
C2
100
AcDbEntity
  8
_____1
 62
0
370
-1
 48
1.0
  6
BYLAYER
100
AcDbCircle
 10
-8.7124100000000002
 20
156.34236999999999
 30
0.0
 40
22.616479999999999
100
AcDbArc
 50
180.00882999999999
 51
195.46871999999999
  0
ARC
  5
C3
100
AcDbEntity
  8
_____1
 62
0
370
-1
 48
1.0
  6
BYLAYER
100
AcDbCircle
 10
-10.48667
 20
155.99431999999999
 30
0.0
 40
20.84507
100
AcDbArc
 50
162.26456999999999
 51
179.05287999999999
  0
ARC
  5
C4
100
AcDbEntity
  8
_____1
 62
0
370
-1
 48
1.0
  6
BYLAYER
100
AcDbCircle
 10
21.800750000000001
 20
147.10839999999999
 30
0.0
 40
54.322139999999997
100
AcDbArc
 50
157.26859999999999
 51
163.71168000000003
  0
ARC
  5
C5
100
AcDbEntity
  8
_____1
 62
0
370
-1
 48
1.0
  6
BYLAYER
100
AcDbCircle
 10
4.0000999999999998
 20
155.79913999999999
 30
0.0
 40
34.564639999999997
100
AcDbArc
 50
153.31943999999999
 51
159.15422000000001
  0
ARC
  5
C6
100
AcDbEntity
  8
_____1
 62
0
370
-1
 48
1.0
  6
BYLAYER
100
AcDbCircle
 10
-22.011849999999999
 20
168.542
 30
0.0
 40
5.6083100000000004
100
AcDbArc
 50
141.32513
 51
150.31723000000002
  0
ARC
  5
C7
100
AcDbEntity
  8
_____1
 62
0
370
-1
 48
1.0
  6
BYLAYER
100
AcDbCircle
 10
-25.40558
 20
171.18619000000001
 30
0.0
 40
1.30766
100
AcDbArc
 50
100.77891
 51
138.85251
  0
ARC
  5
C8
100
AcDbEntity
  8
_____1
 62
0
370
-1
 48
1.0
  6
BYLAYER
100
AcDbCircle
 10
-25.64181
 20
171.38453000000001
 30
0.0
 40
1.0862799999999999
100
AcDbArc
 50
43.481940000000002
 51
90.439599999999999
  0
ARC
  5
C9
100
AcDbEntity
  8
_____1
 62
0
370
-1
 48
1.0
  6
BYLAYER
100
AcDbCircle
 10
-29.73611
 20
165.41112000000001
 30
0.0
 40
8.3071900000000003
100
AcDbArc
 50
47.637779999999999
 51
54.002940000000002
  0
ARC
  5
CA
100
AcDbEntity
  8
_____1
 62
0
370
-1
 48
1.0
  6
BYLAYER
100
AcDbCircle
 10
-144.17392000000001
 20
23.343879999999999
 30
0.0
 40
190.71791999999999
100
AcDbArc
 50
48.221919999999997
 51
50.995109999999997
  0
ARC
  5
CB
100
AcDbEntity
  8
_____1
 62
0
370
-1
 48
1.0
  6
BYLAYER
100
AcDbCircle
 10
-59.143239999999999
 20
120.60760999999999
 30
0.0
 40
61.549619999999997
100
AcDbArc
 50
38.332059999999998
 51
46.926299999999998
  0
ARC
  5
CC
100
AcDbEntity
  8
_____1
 62
0
370
-1
 48
1.0
  6
BYLAYER
100
AcDbCircle
 10
-6.2522799999999998
 20
96.356840000000005
 30
0.0
 40
62.594920000000002
100
AcDbArc
 50
83.050229999999985
 51
94.223200000000006
  0
ARC
  5
CD
100
AcDbEntity
  8
_____1
 62
0
370
-1
 48
1.0
  6
BYLAYER
100
AcDbCircle
 10
-3.5063499999999999
 20
126.6348
 30
0.0
 40
32.220820000000003
100
AcDbArc
 50
70.527159999999995
 51
81.382289999999998
  0
ARC
  5
CE
100
AcDbEntity
  8
_____1
 62
0
370
-1
 48
1.0
  6
BYLAYER
100
AcDbCircle
 10
-0.50164
 20
136.05350000000001
 30
0.0
 40
22.341329999999999
100
AcDbArc
 50
54.086390000000009
 51
69.739859999999993
  0
ARC
  5
CF
100
AcDbEntity
  8
_____1
 62
0
370
-1
 48
1.0
  6
BYLAYER
100
AcDbCircle
 10
92.472769999999997
 20
53.298099999999998
 30
0.0
 40
128.64618999999999
100
AcDbArc
 50
124.54228000000001
 51
128.37810999999999
  0
ARC
  5
D0
100
AcDbEntity
  8
_____1
 62
0
370
-1
 48
1.0
  6
BYLAYER
100
AcDbCircle
 10
73.843029999999999
 20
73.651330000000002
 30
0.0
 40
101.38916
100
AcDbArc
 50
117.52155000000002
 51
122.3916
  0
ARC
  5
D1
100
AcDbEntity
  8
_____1
 62
0
370
-1
 48
1.0
  6
BYLAYER
100
AcDbCircle
 10
19.70552
 20
177.05726999999999
 30
0.0
 40
15.33276
100
AcDbArc
 50
298.37770999999998
 51
302.88456000000002
  0
ARC
  5
D2
100
AcDbEntity
  8
_____1
 62
0
370
-1
 48
1.0
  6
BYLAYER
100
AcDbCircle
 10
28.16272
 20
163.79383000000001
 30
0.0
 40
0.40948
100
AcDbArc
 50
25.818560000000002
 51
108.8516
  0
ARC
  5
D3
100
AcDbEntity
  8
_____1
 62
0
370
-1
 48
1.0
  6
BYLAYER
100
AcDbCircle
 10
27.151060000000001
 20
163.19753
 30
0.0
 40
1.5827800000000001
100
AcDbArc
 50
7.3977599999999999
 51
29.302140000000001
  0
ARC
  5
D4
100
AcDbEntity
  8
_____1
 62
0
370
-1
 48
1.0
  6
BYLAYER
100
AcDbCircle
 10
21.09836
 20
161.77385000000001
 30
0.0
 40
7.7941200000000004
100
AcDbArc
 50
3.1747899999999998
 51
12.052519999999999
  0
ARC
  5
D5
100
AcDbEntity
  8
_____1
 62
0
370
-1
 48
1.0
  6
BYLAYER
100
AcDbCircle
 10
10.301640000000001
 20
160.54723000000001
 30
0.0
 40
18.652729999999998
100
AcDbArc
 50
3.2452800000000002
 51
5.1004899999999997
  0
ARC
  5
D6
100
AcDbEntity
  8
_____1
 62
0
370
-1
 48
1.0
  6
BYLAYER
100
AcDbCircle
 10
159.06290999999999
 20
168.95242999999999
 30
0.0
 40
130.3458
100
AcDbArc
 50
183.23221000000001
 51
183.36476999999996
  0
ARC
  5
D7
100
AcDbEntity
  8
_____1
 62
0
370
-1
 48
1.0
  6
BYLAYER
100
AcDbCircle
 10
14.58986
 20
160.48400000000001
 30
0.0
 40
14.375249999999999
100
AcDbArc
 50
2.65802
 51
3.2625300000000004
  0
ARC
  5
D8
100
AcDbEntity
  8
_____1
 62
0
370
-1
 48
1.0
  6
BYLAYER
100
AcDbCircle
 10
847.04939999999999
 20
199.71566000000001
 30
0.0
 40
819.00823000000003
100
AcDbArc
 50
182.69891000000001
 51
182.71647000000002
  0
ARC
  5
D9
100
AcDbEntity
  8
_____1
 62
0
370
-1
 48
1.0
  6
BYLAYER
100
AcDbCircle
 10
-25.117529999999999
 20
158.51067
 30
0.0
 40
54.131790000000002
100
AcDbArc
 50
-4.2129599999999998
 51
2.5297000000000001
  0
ARC
  5
DA
100
AcDbEntity
  8
_____1
 62
0
370
-1
 48
1.0
  6
BYLAYER
100
AcDbCircle
 10
10.8857
 20
156.64103
 30
0.0
 40
18.105309999999999
100
AcDbArc
 50
333.12959000000001
 51
353.31682999999998
  0
ARC
  5
DB
100
AcDbEntity
  8
_____1
 62
0
370
-1
 48
1.0
  6
BYLAYER
100
AcDbCircle
 10
-80.429590000000005
 20
200.29041000000001
 30
0.0
 40
119.31264
100
AcDbArc
 50
331.64091000000002
 51
334.25122999999996
  0
ARC
  5
DC
100
AcDbEntity
  8
_____1
 62
0
370
-1
 48
1.0
  6
BYLAYER
100
AcDbCircle
 10
114.77659
 20
98.04607
 30
0.0
 40
101.06947
100
AcDbArc
 50
153.19914
 51
154.73981000000001
  0
ARC
  5
DD
100
AcDbEntity
  8
_____1
 62
0
370
-1
 48
1.0
  6
BYLAYER
100
AcDbCircle
 10
35.062269999999998
 20
135.78417999999999
 30
0.0
 40
12.874029999999999
100
AcDbArc
 50
155.24318
 51
167.28808000000001
  0
LINE
  5
DE
100
AcDbEntity
100
AcDbLine
  8
_____1
 62
0
370
-1
 48
1.0
  6
BYLAYER
 10
22.503799999999998
 20
138.61709999999999
 30
0.0
 11
22.504200000000001
 21
138.61179999999999
 31
0.0
  0
ENDSEC
  0
SECTION
  2
OBJECTS
  0
DICTIONARY
  5
C
100
AcDbDictionary
280
0
281
1
  3
ACAD_GROUP
350
D
  3
ACAD_LAYOUT
350
1A
  3
ACAD_MLINESTYLE
350
17
  3
ACAD_PLOTSETTINGS
350
19
  3
ACAD_PLOTSTYLENAME
350
E
  3
AcDbVariableDictionary
350
DF
  3
QCAD_OBJECTS
350
E0
  0
DICTIONARY
  5
D
100
AcDbDictionary
280
0
281
1
  0
ACDBDICTIONARYWDFLT
  5
E
100
AcDbDictionary
281
1
  3
Normal
350
F
100
AcDbDictionaryWithDefault
340
F
  0
ACDBPLACEHOLDER
  5
F
  0
DICTIONARY
  5
17
100
AcDbDictionary
280
0
281
1
  3
Standard
350
18
  0
MLINESTYLE
  5
18
100
AcDbMlineStyle
  2
STANDARD
 70
0
  3

 62
256
 51
90.0
 52
90.0
 71
2
 49
0.5
 62
256
  6
BYLAYER
 49
-0.5
 62
256
  6
BYLAYER
  0
DICTIONARY
  5
19
100
AcDbDictionary
280
0
281
1
  0
DICTIONARY
  5
1A
100
AcDbDictionary
281
1
  3
Layout1
350
1E
  3
Layout2
350
26
  3
Model
350
22
  0
LAYOUT
  5
1E
100
AcDbPlotSettings
  1

  2
none_device
  4

  6

 40
0.0
 41
0.0
 42
0.0
 43
0.0
 44
0.0
 45
0.0
 46
0.0
 47
0.0
 48
0.0
 49
0.0
140
0.0
141
0.0
142
1.0
143
1.0
 70
688
 72
0
 73
0
 74
5
  7

 75
16
147
1.0
148
0.0
149
0.0
100
AcDbLayout
  1
Layout1
 70
1
 71
1
 10
0.0
 20
0.0
 11
420.0
 21
297.0
 12
0.0
 22
0.0
 32
0.0
 14
100000000000000000000.0
 24
100000000000000000000.0
 34
100000000000000000000.0
 15
-100000000000000000000.0
 25
-100000000000000000000.0
 35
-100000000000000000000.0
146
0.0
 13
0.0
 23
0.0
 33
0.0
 16
1.0
 26
0.0
 36
0.0
 17
0.0
 27
1.0
 37
0.0
 76
0
330
1B
  0
LAYOUT
  5
22
100
AcDbPlotSettings
  1

  2
none_device
  4

  6

 40
0.0
 41
0.0
 42
0.0
 43
0.0
 44
0.0
 45
0.0
 46
0.0
 47
0.0
 48
0.0
 49
0.0
140
0.0
141
0.0
142
1.0
143
1.0
 70
1712
 72
0
 73
0
 74
0
  7

 75
0
147
1.0
148
0.0
149
0.0
100
AcDbLayout
  1
Model
 70
1
 71
0
 10
0.0
 20
0.0
 11
12.0
 21
9.0
 12
0.0
 22
0.0
 32
0.0
 14
0.0
 24
0.0
 34
0.0
 15
0.0
 25
0.0
 35
0.0
146
0.0
 13
0.0
 23
0.0
 33
0.0
 16
1.0
 26
0.0
 36
0.0
 17
0.0
 27
1.0
 37
0.0
 76
0
330
1F
  0
LAYOUT
  5
26
100
AcDbPlotSettings
  1

  2
none_device
  4

  6

 40
0.0
 41
0.0
 42
0.0
 43
0.0
 44
0.0
 45
0.0
 46
0.0
 47
0.0
 48
0.0
 49
0.0
140
0.0
141
0.0
142
1.0
143
1.0
 70
688
 72
0
 73
0
 74
5
  7

 75
16
147
1.0
148
0.0
149
0.0
100
AcDbLayout
  1
Layout2
 70
1
 71
2
 10
0.0
 20
0.0
 11
12.0
 21
9.0
 12
0.0
 22
0.0
 32
0.0
 14
0.0
 24
0.0
 34
0.0
 15
0.0
 25
0.0
 35
0.0
146
0.0
 13
0.0
 23
0.0
 33
0.0
 16
1.0
 26
0.0
 36
0.0
 17
0.0
 27
1.0
 37
0.0
 76
0
330
23
  0
DICTIONARY
  5
DF
100
AcDbDictionary
281
1
  3
DIMASSOC
350
E2
  3
HIDETEXT
350
E1
  0
DICTIONARYVAR
  5
E1
100
DictionaryVariables
280
0
  1
2
  0
DICTIONARYVAR
  5
E2
100
DictionaryVariables
280
0
  1
1
  0
DICTIONARY
  5
E0
100
AcDbDictionary
281
1
  3
ColorSettings/BackgroundColor
350
E3
  3
ColorSettings/ColorMode
350
E4
  3
Grid/DisplayGrid00
350
E5
  3
Grid/DisplayGrid01
350
E6
  3
Grid/DisplayGrid02
350
E7
  3
Grid/DisplayGrid03
350
E8
  3
Grid/GridSpacingX00
350
E9
  3
Grid/GridSpacingX01
350
EA
  3
Grid/GridSpacingX02
350
EB
  3
Grid/GridSpacingX03
350
EC
  3
Grid/GridSpacingY00
350
ED
  3
Grid/GridSpacingY01
350
EE
  3
Grid/GridSpacingY02
350
EF
  3
Grid/GridSpacingY03
350
F0
  3
Grid/IsometricGrid00
350
F1
  3
Grid/IsometricGrid01
350
F2
  3
Grid/IsometricGrid02
350
F3
  3
Grid/IsometricGrid03
350
F4
  3
Grid/IsometricProjection00
350
F5
  3
Grid/IsometricProjection01
350
F6
  3
Grid/IsometricProjection02
350
F7
  3
Grid/IsometricProjection03
350
F8
  3
Grid/MetaGridSpacingX00
350
F9
  3
Grid/MetaGridSpacingX01
350
FA
  3
Grid/MetaGridSpacingX02
350
FB
  3
Grid/MetaGridSpacingX03
350
FC
  3
Grid/MetaGridSpacingY00
350
FD
  3
Grid/MetaGridSpacingY01
350
FE
  3
Grid/MetaGridSpacingY02
350
FF
  3
Grid/MetaGridSpacingY03
350
100
  3
MultiPageSettings/Columns
350
101
  3
MultiPageSettings/GlueMarginsBottom
350
102
  3
MultiPageSettings/GlueMarginsLeft
350
103
  3
MultiPageSettings/GlueMarginsRight
350
104
  3
MultiPageSettings/GlueMarginsTop
350
105
  3
MultiPageSettings/PrintCropMarks
350
106
  3
MultiPageSettings/Rows
350
107
  3
PageSettings/OffsetX
350
108
  3
PageSettings/OffsetY
350
109
  3
PageSettings/PageOrientation
350
10A
  3
PageSettings/PaperHeight
350
10B
  3
PageSettings/PaperWidth
350
10C
  3
PageSettings/Scale
350
10D
  3
PageSettings/ShowPaperBorders
350
10E
  3
UnitSettings/PaperUnit
350
10F
  3
ViewportCenter
350
110
  3
ViewportHeight
350
111
  3
ViewportWidth
350
112
  0
XRECORD
  5
E3
330
E0
100
AcDbXrecord
280
1
1000
Blanc
  0
XRECORD
  5
E4
330
E0
100
AcDbXrecord
280
1
1000
FullColor
  0
XRECORD
  5
E5
330
E0
100
AcDbXrecord
280
1
290
1
  0
XRECORD
  5
E6
330
E0
100
AcDbXrecord
280
1
290
1
  0
XRECORD
  5
E7
330
E0
100
AcDbXrecord
280
1
290
1
  0
XRECORD
  5
E8
330
E0
100
AcDbXrecord
280
1
290
1
  0
XRECORD
  5
E9
330
E0
100
AcDbXrecord
280
1
1000
auto
  0
XRECORD
  5
EA
330
E0
100
AcDbXrecord
280
1
1000
auto
  0
XRECORD
  5
EB
330
E0
100
AcDbXrecord
280
1
1000
auto
  0
XRECORD
  5
EC
330
E0
100
AcDbXrecord
280
1
1000
auto
  0
XRECORD
  5
ED
330
E0
100
AcDbXrecord
280
1
1000
auto
  0
XRECORD
  5
EE
330
E0
100
AcDbXrecord
280
1
1000
auto
  0
XRECORD
  5
EF
330
E0
100
AcDbXrecord
280
1
1000
auto
  0
XRECORD
  5
F0
330
E0
100
AcDbXrecord
280
1
1000
auto
  0
XRECORD
  5
F1
330
E0
100
AcDbXrecord
280
1
290
0
  0
XRECORD
  5
F2
330
E0
100
AcDbXrecord
280
1
290
0
  0
XRECORD
  5
F3
330
E0
100
AcDbXrecord
280
1
290
0
  0
XRECORD
  5
F4
330
E0
100
AcDbXrecord
280
1
290
0
  0
XRECORD
  5
F5
330
E0
100
AcDbXrecord
280
1
 90
0
  0
XRECORD
  5
F6
330
E0
100
AcDbXrecord
280
1
 90
0
  0
XRECORD
  5
F7
330
E0
100
AcDbXrecord
280
1
 90
0
  0
XRECORD
  5
F8
330
E0
100
AcDbXrecord
280
1
 90
0
  0
XRECORD
  5
F9
330
E0
100
AcDbXrecord
280
1
1000
auto
  0
XRECORD
  5
FA
330
E0
100
AcDbXrecord
280
1
1000
auto
  0
XRECORD
  5
FB
330
E0
100
AcDbXrecord
280
1
1000
auto
  0
XRECORD
  5
FC
330
E0
100
AcDbXrecord
280
1
1000
auto
  0
XRECORD
  5
FD
330
E0
100
AcDbXrecord
280
1
1000
auto
  0
XRECORD
  5
FE
330
E0
100
AcDbXrecord
280
1
1000
auto
  0
XRECORD
  5
FF
330
E0
100
AcDbXrecord
280
1
1000
auto
  0
XRECORD
  5
100
330
E0
100
AcDbXrecord
280
1
1000
auto
  0
XRECORD
  5
101
330
E0
100
AcDbXrecord
280
1
 90
1
  0
XRECORD
  5
102
330
E0
100
AcDbXrecord
280
1
 40
10.0
  0
XRECORD
  5
103
330
E0
100
AcDbXrecord
280
1
 40
10.0
  0
XRECORD
  5
104
330
E0
100
AcDbXrecord
280
1
 40
10.0
  0
XRECORD
  5
105
330
E0
100
AcDbXrecord
280
1
 40
10.0
  0
XRECORD
  5
106
330
E0
100
AcDbXrecord
280
1
290
0
  0
XRECORD
  5
107
330
E0
100
AcDbXrecord
280
1
 90
1
  0
XRECORD
  5
108
330
E0
100
AcDbXrecord
280
1
 40
0.0
  0
XRECORD
  5
109
330
E0
100
AcDbXrecord
280
1
 40
0.0
  0
XRECORD
  5
10A
330
E0
100
AcDbXrecord
280
1
1000
Portrait
  0
XRECORD
  5
10B
330
E0
100
AcDbXrecord
280
1
 40
297.0
  0
XRECORD
  5
10C
330
E0
100
AcDbXrecord
280
1
 40
210.0
  0
XRECORD
  5
10D
330
E0
100
AcDbXrecord
280
1
1000
1:1
  0
XRECORD
  5
10E
330
E0
100
AcDbXrecord
280
1
290
1
  0
XRECORD
  5
10F
330
E0
100
AcDbXrecord
280
1
 90
4
  0
XRECORD
  5
111
330
E0
100
AcDbXrecord
280
1
 40
220.52505158322057
  0
XRECORD
  5
112
330
E0
100
AcDbXrecord
280
1
 40
374.80873786197566
  0
ENDSEC
  0
EOF
