999
dxflib 3.12.2.0
  0
SECTION
  2
HEADER
  9
$ACADVER
  1
AC1015
  9
$HANDSEED
  5
FFFF
  9
$ANGBASE
 50
0.0
  9
$ANGDIR
 70
0
  9
$ATTMODE
 70
0
  9
$AUNITS
 70
0
  9
$AUPREC
 70
2
  9
$CECOLOR
 62
256
  9
$CELTSCALE
 40
1.0
  9
$CHAMFERA
 40
0.0
  9
$CHAMFERB
 40
0.0
  9
$CHAMFERC
 40
0.0
  9
$CHAMFERD
 40
0.0
  9
$CMLJUST
 70
0
  9
$CMLSCALE
 40
20.0
  9
$DIMADEC
 70
0
  9
$DIMALT
 70
0
  9
$DIMALTD
 70
3
  9
$DIMALTF
 40
0.03937
  9
$DIMALTRND
 40
0.0
  9
$DIMALTTD
 70
3
  9
$DIMALTTZ
 70
0
  9
$DIMALTU
 70
2
  9
$DIMALTZ
 70
0
  9
$DIMAPOST
  1

  9
$DIMASZ
 40
2.5
  9
$DIMATFIT
 70
3
  9
$DIMAUNIT
 70
0
  9
$DIMAZIN
 70
0
  9
$DIMBLK
  1

  9
$DIMBLK1
  1

  9
$DIMBLK2
  1

  9
$DIMCEN
 40
2.5
  9
$DIMCLRD
 70
0
  9
$DIMCLRE
 70
0
  9
$DIMCLRT
 70
0
  9
$DIMDEC
 70
4
  9
$DIMDLE
 40
0.0
  9
$DIMDLI
 40
3.75
  9
$DIMDSEP
 70
44
  9
$DIMEXE
 40
1.25
  9
$DIMEXO
 40
0.625
  9
$DIMFRAC
 70
0
  9
$DIMGAP
 40
0.625
  9
$DIMJUST
 70
0
  9
$DIMLDRBLK
  1
STANDARD
  9
$DIMLFAC
 40
1.0
  9
$DIMLIM
 70
0
  9
$DIMLUNIT
 70
2
  9
$DIMLWD
 70
-2
  9
$DIMLWE
 70
-2
  9
$DIMPOST
  1

  9
$DIMRND
 40
0.0
  9
$DIMSAH
 70
0
  9
$DIMSCALE
 40
2.5
  9
$DIMSD1
 70
0
  9
$DIMSD2
 70
0
  9
$DIMSE1
 70
0
  9
$DIMSE2
 70
0
  9
$DIMSOXD
 70
0
  9
$DIMTAD
 70
1
  9
$DIMTDEC
 70
2
  9
$DIMTFAC
 40
1.0
  9
$DIMTIH
 70
0
  9
$DIMTIX
 70
0
  9
$DIMTM
 40
0.0
  9
$DIMTOFL
 70
1
  9
$DIMTOH
 70
0
  9
$DIMTOL
 70
0
  9
$DIMTOLJ
 70
0
  9
$DIMTP
 40
0.0
  9
$DIMTSZ
 40
0.0
  9
$DIMTVP
 40
0.0
  9
$DIMTXSTY
  7
STANDARD
  9
$DIMTXT
 40
2.5
  9
$DIMTZIN
 70
8
  9
$DIMUPT
 70
0
  9
$DIMZIN
 70
8
  9
$DISPSILH
 70
0
  9
$DWGCODEPAGE
  3
ANSI_1252
  9
$ELEVATION
 40
0.0
  9
$EXTMAX
 10
227.4025151194034
 20
227.9372203111989
 30
0.0
  9
$EXTMIN
 10
4.8557899370314033
 20
5.390495128826899
 30
0.0
  9
$FILLETRAD
 40
0.0
  9
$FILLMODE
 70
1
  9
$INSBASE
 10
0.0
 20
0.0
 30
0.0
  9
$INSUNITS
 70
4
  9
$LIMCHECK
 70
0
  9
$LIMMAX
 10
420.0
 20
297.0
  9
$LIMMIN
 10
0.0
 20
0.0
  9
$LTSCALE
 40
1.0
  9
$LUNITS
 70
2
  9
$LUPREC
 70
4
  9
$MAXACTVP
 70
64
  9
$MEASUREMENT
 70
1
  9
$MIRRTEXT
 70
0
  9
$ORTHOMODE
 70
0
  9
$PDMODE
 70
34
  9
$PDSIZE
 40
0
  9
$PELEVATION
 40
0.0
  9
$PEXTMAX
 10
0.0
 20
0.0
 30
0.0
  9
$PEXTMIN
 10
0.0
 20
0.0
 30
0.0
  9
$PINSBASE
 10
0.0
 20
0.0
 30
0.0
  9
$PLIMCHECK
 70
0
  9
$PLIMMAX
 10
210.0
 20
297.0
  9
$PLIMMIN
 10
0.0
 20
0.0
  9
$PLINEGEN
 70
0
  9
$PLINEWID
 40
0.0
  9
$PROXYGRAPHICS
 70
1
  9
$PSLTSCALE
 70
1
  9
$PUCSNAME
  2

  9
$PUCSORG
 10
0.0
 20
0.0
 30
0.0
  9
$PUCSXDIR
 10
1.0
 20
0.0
 30
0.0
  9
$PUCSYDIR
 10
0.0
 20
1.0
 30
0.0
  9
$QTEXTMODE
 70
0
  9
$REGENMODE
 70
1
  9
$SHADEDGE
 70
3
  9
$SHADEDIF
 70
70
  9
$SKETCHINC
 40
1.0
  9
$SKPOLY
 70
0
  9
$SPLFRAME
 70
0
  9
$SPLINESEGS
 70
8
  9
$SPLINETYPE
 70
2
  9
$SURFTAB1
 70
6
  9
$SURFTAB2
 70
6
  9
$SURFTYPE
 70
6
  9
$SURFU
 70
6
  9
$SURFV
 70
6
  9
$TEXTSIZE
 40
2.5
  9
$TEXTSTYLE
  7
STANDARD
  9
$THICKNESS
 40
0.0
  9
$TILEMODE
 70
1
  9
$TRACEWID
 40
15.68
  9
$TREEDEPTH
 70
3020
  9
$UCSNAME
  2

  9
$UCSORG
 10
0.0
 20
0.0
 30
0.0
  9
$UCSXDIR
 10
1.0
 20
0.0
 30
0.0
  9
$UCSYDIR
 10
0.0
 20
1.0
 30
0.0
  9
$UNITMODE
 70
0
  9
$USERI1
 70
0
  9
$USERI2
 70
0
  9
$USERI3
 70
0
  9
$USERI4
 70
0
  9
$USERI5
 70
0
  9
$USERR1
 40
0.0
  9
$USERR2
 40
0.0
  9
$USERR3
 40
0.0
  9
$USERR4
 40
0.0
  9
$USERR5
 40
0.0
  9
$USRTIMER
 70
1
  9
$VISRETAIN
 70
1
  0
ENDSEC
  0
SECTION
  2
TABLES
  0
TABLE
  2
VPORT
  5
8
100
AcDbSymbolTable
 70
1
  0
VPORT
  5
30
100
AcDbSymbolTableRecord
100
AcDbViewportTableRecord
  2
*Active
 70
0
 10
0.0
 20
0.0
 11
1.0
 21
1.0
 12
286.30555555555549
 22
148.5
 13
0.0
 23
0.0
 14
10.0
 24
10.0
 15
10.0
 25
10.0
 16
0.0
 26
0.0
 36
1.0
 17
0.0
 27
0.0
 37
0.0
 40
297.0
 41
1.92798353909465
 42
50.0
 43
0.0
 44
0.0
 50
0.0
 51
0.0
 71
0
 72
100
 73
1
 74
3
 75
1
 76
1
 77
0
 78
0
281
0
 65
1
110
0.0
120
0.0
130
0.0
111
1.0
121
0.0
131
0.0
112
0.0
122
1.0
132
0.0
 79
0
146
0.0
  0
ENDTAB
  0
TABLE
  2
LTYPE
  5
5
100
AcDbSymbolTable
 70
47
  0
LTYPE
  5
16
100
AcDbSymbolTableRecord
100
AcDbLinetypeTableRecord
  2
Continuous
 70
0
  3
Solid line
 72
65
 73
0
 40
0.0
  0
LTYPE
  5
31
100
AcDbSymbolTableRecord
100
AcDbLinetypeTableRecord
  2
ACAD_ISO15W100
 70
0
  3
ISO double-dash triple-dot __ __ . . . __ __ . .
 72
65
 73
10
 40
39.0
 49
12.0
 74
0
 49
-3.0
 74
0
 49
12.0
 74
0
 49
-3.0
 74
0
 49
0.0
 74
0
 49
-3.0
 74
0
 49
0.0
 74
0
 49
-3.0
 74
0
 49
0.0
 74
0
 49
-3.0
 74
0
  0
LTYPE
  5
32
100
AcDbSymbolTableRecord
100
AcDbLinetypeTableRecord
  2
DIVIDE
 70
0
  3
Divide ____ . . ____ . . ____ . . ____ . . ____
 72
65
 73
6
 40
31.750000000000004
 49
12.699999999999999
 74
0
 49
-6.2999999999999998
 74
0
 49
0.1
 74
0
 49
-6.25
 74
0
 49
0.1
 74
0
 49
-6.2999999999999998
 74
0
  0
LTYPE
  5
33
100
AcDbSymbolTableRecord
100
AcDbLinetypeTableRecord
  2
ACAD_ISO10W100
 70
0
  3
ISO dash dot __ . __ . __ . __ . __ . __ . __ . 
 72
65
 73
4
 40
18.0
 49
12.0
 74
0
 49
-3.0
 74
0
 49
0.0
 74
0
 49
-3.0
 74
0
  0
LTYPE
  5
34
100
AcDbSymbolTableRecord
100
AcDbLinetypeTableRecord
  2
DOTTINY
 70
0
  3
Dot (.15x) .....................................
 72
65
 73
2
 40
0.9525
 49
0.1
 74
0
 49
-0.8525
 74
0
  0
LTYPE
  5
35
100
AcDbSymbolTableRecord
100
AcDbLinetypeTableRecord
  2
ACAD_ISO04W100
 70
0
  3
ISO long-dash dot ____ . ____ . ____ . ____ . _
 72
65
 73
4
 40
30.0
 49
24.0
 74
0
 49
-3.0
 74
0
 49
0.0
 74
0
 49
-3.0
 74
0
  0
LTYPE
  5
14
100
AcDbSymbolTableRecord
100
AcDbLinetypeTableRecord
  2
ByBlock
 70
0
  3

 72
65
 73
0
 40
0.0
  0
LTYPE
  5
36
100
AcDbSymbolTableRecord
100
AcDbLinetypeTableRecord
  2
CENTER2
 70
0
  3
Center (.5x) ___ _ ___ _ ___ _ ___ _ ___ _ ___
 72
65
 73
4
 40
28.575000000000003
 49
19.050000000000001
 74
0
 49
-3.1749999999999998
 74
0
 49
3.1749999999999998
 74
0
 49
-3.1749999999999998
 74
0
  0
LTYPE
  5
37
100
AcDbSymbolTableRecord
100
AcDbLinetypeTableRecord
  2
ACAD_ISO11W100
 70
0
  3
ISO double-dash dot __ __ . __ __ . __ __ . __ _
 72
65
 73
6
 40
33.0
 49
12.0
 74
0
 49
-3.0
 74
0
 49
12.0
 74
0
 49
-3.0
 74
0
 49
0.0
 74
0
 49
-3.0
 74
0
  0
LTYPE
  5
38
100
AcDbSymbolTableRecord
100
AcDbLinetypeTableRecord
  2
HIDDEN2
 70
0
  3
Hidden (.5x) _ _ _ _ _ _ _ _ _ _ _ _ _ _ _ _ _ 
 72
65
 73
2
 40
4.7624999999999993
 49
3.1749999999999998
 74
0
 49
-1.5874999999999999
 74
0
  0
LTYPE
  5
39
100
AcDbSymbolTableRecord
100
AcDbLinetypeTableRecord
  2
BORDERX2
 70
0
  3
Border (2x) ____  ____  .  ____  ____  .  ___
 72
65
 73
6
 40
88.899999999999977
 49
25.399999999999999
 74
0
 49
-12.699999999999999
 74
0
 49
25.399999999999999
 74
0
 49
-12.649999999999999
 74
0
 49
0.1
 74
0
 49
-12.649999999999999
 74
0
  0
LTYPE
  5
3A
100
AcDbSymbolTableRecord
100
AcDbLinetypeTableRecord
  2
BORDERTINY
 70
0
  3
Border (.15x) __.__.__.__.__.__.__.__.__.__.__.
 72
65
 73
6
 40
6.6674999999999995
 49
1.905
 74
0
 49
-0.9525
 74
0
 49
1.905
 74
0
 49
-0.9025
 74
0
 49
0.1
 74
0
 49
-0.9025
 74
0
  0
LTYPE
  5
3B
100
AcDbSymbolTableRecord
100
AcDbLinetypeTableRecord
  2
CENTERTINY
 70
0
  3
Center (.15x) ___ _ ___ _ ___ _ ___ _ ___ _ ___
 72
65
 73
4
 40
7.6199999999999992
 49
4.7625000000000002
 74
0
 49
-0.9525
 74
0
 49
0.9525
 74
0
 49
-0.9525
 74
0
  0
LTYPE
  5
3C
100
AcDbSymbolTableRecord
100
AcDbLinetypeTableRecord
  2
ACAD_ISO05W100
 70
0
  3
ISO long-dash double-dot ____ .. ____ .. ____ . 
 72
65
 73
6
 40
33.0
 49
24.0
 74
0
 49
-3.0
 74
0
 49
0.0
 74
0
 49
-3.0
 74
0
 49
0.0
 74
0
 49
-3.0
 74
0
  0
LTYPE
  5
3D
100
AcDbSymbolTableRecord
100
AcDbLinetypeTableRecord
  2
DASHDOTX2
 70
0
  3
Dash dot (2x) ____  .  ____  .  ____  .  ___
 72
65
 73
4
 40
50.799999999999997
 49
25.399999999999999
 74
0
 49
-12.649999999999999
 74
0
 49
0.1
 74
0
 49
-12.649999999999999
 74
0
  0
LTYPE
  5
3E
100
AcDbSymbolTableRecord
100
AcDbLinetypeTableRecord
  2
HIDDENX2
 70
0
  3
Hidden (2x) ____ ____ ____ ____ ____ ____ ____ 
 72
65
 73
2
 40
19.049999999999997
 49
12.699999999999999
 74
0
 49
-6.3499999999999996
 74
0
  0
LTYPE
  5
3F
100
AcDbSymbolTableRecord
100
AcDbLinetypeTableRecord
  2
CENTERX2
 70
0
  3
Center (2x) ________  __  ________  __  _____
 72
65
 73
4
 40
101.60000000000001
 49
63.5
 74
0
 49
-12.699999999999999
 74
0
 49
12.699999999999999
 74
0
 49
-12.699999999999999
 74
0
  0
LTYPE
  5
40
100
AcDbSymbolTableRecord
100
AcDbLinetypeTableRecord
  2
BORDER2
 70
0
  3
Border (.5x) __.__.__.__.__.__.__.__.__.__.__.
 72
65
 73
6
 40
22.225000000000001
 49
6.3499999999999996
 74
0
 49
-3.1749999999999998
 74
0
 49
6.3499999999999996
 74
0
 49
-3.125
 74
0
 49
0.1
 74
0
 49
-3.125
 74
0
  0
LTYPE
  5
41
100
AcDbSymbolTableRecord
100
AcDbLinetypeTableRecord
  2
DASHDOT2
 70
0
  3
Dash dot (.5x) _._._._._._._._._._._._._._._.
 72
65
 73
4
 40
12.699999999999999
 49
6.3499999999999996
 74
0
 49
-3.125
 74
0
 49
0.1
 74
0
 49
-3.125
 74
0
  0
LTYPE
  5
42
100
AcDbSymbolTableRecord
100
AcDbLinetypeTableRecord
  2
ACAD_ISO12W100
 70
0
  3
ISO dash double-dot __ . . __ . . __ . . __ . . 
 72
65
 73
6
 40
21.0
 49
12.0
 74
0
 49
-3.0
 74
0
 49
0.0
 74
0
 49
-3.0
 74
0
 49
0.0
 74
0
 49
-3.0
 74
0
  0
LTYPE
  5
43
100
AcDbSymbolTableRecord
100
AcDbLinetypeTableRecord
  2
ACAD_ISO07W100
 70
0
  3
ISO dot . . . . . . . . . . . . . . . . . . . . 
 72
65
 73
2
 40
3.0
 49
0.0
 74
0
 49
-3.0
 74
0
  0
LTYPE
  5
44
100
AcDbSymbolTableRecord
100
AcDbLinetypeTableRecord
  2
HIDDEN
 70
0
  3
Hidden __ __ __ __ __ __ __ __ __ __ __ __ __ __
 72
65
 73
2
 40
9.5249999999999986
 49
6.3499999999999996
 74
0
 49
-3.1749999999999998
 74
0
  0
LTYPE
  5
45
100
AcDbSymbolTableRecord
100
AcDbLinetypeTableRecord
  2
ACAD_ISO06W100
 70
0
  3
ISO long-dash triple-dot ____ ... ____ ... ____
 72
65
 73
8
 40
36.0
 49
24.0
 74
0
 49
-3.0
 74
0
 49
0.0
 74
0
 49
-3.0
 74
0
 49
0.0
 74
0
 49
-3.0
 74
0
 49
0.0
 74
0
 49
-3.0
 74
0
  0
LTYPE
  5
46
100
AcDbSymbolTableRecord
100
AcDbLinetypeTableRecord
  2
CENTER
 70
0
  3
Center ____ _ ____ _ ____ _ ____ _ ____ _ ____
 72
65
 73
4
 40
50.800000000000004
 49
31.75
 74
0
 49
-6.3499999999999996
 74
0
 49
6.3499999999999996
 74
0
 49
-6.3499999999999996
 74
0
  0
LTYPE
  5
47
100
AcDbSymbolTableRecord
100
AcDbLinetypeTableRecord
  2
DOTX2
 70
0
  3
Dot (2x) .  .  .  .  .  .  .  .  .  .  .  .  .
 72
65
 73
2
 40
12.699999999999999
 49
0.1
 74
0
 49
-12.6
 74
0
  0
LTYPE
  5
48
100
AcDbSymbolTableRecord
100
AcDbLinetypeTableRecord
  2
PHANTOM
 70
0
  3
Phantom ______  __  __  ______  __  __  ______ 
 72
65
 73
6
 40
63.500000000000007
 49
31.75
 74
0
 49
-6.3499999999999996
 74
0
 49
6.3499999999999996
 74
0
 49
-6.3499999999999996
 74
0
 49
6.3499999999999996
 74
0
 49
-6.3499999999999996
 74
0
  0
LTYPE
  5
49
100
AcDbSymbolTableRecord
100
AcDbLinetypeTableRecord
  2
ACAD_ISO08W100
 70
0
  3
ISO long-dash short-dash ____ __ ____ __ ____ _
 72
65
 73
4
 40
36.0
 49
24.0
 74
0
 49
-3.0
 74
0
 49
6.0
 74
0
 49
-3.0
 74
0
  0
LTYPE
  5
4A
100
AcDbSymbolTableRecord
100
AcDbLinetypeTableRecord
  2
DASHEDX2
 70
0
  3
Dashed (2x) ____  ____  ____  ____  ____  ___
 72
65
 73
2
 40
38.099999999999994
 49
25.399999999999999
 74
0
 49
-12.699999999999999
 74
0
  0
LTYPE
  5
4B
100
AcDbSymbolTableRecord
100
AcDbLinetypeTableRecord
  2
ACAD_ISO02W100
 70
0
  3
ISO dash __ __ __ __ __ __ __ __ __ __ __ __ __
 72
65
 73
2
 40
15.0
 49
12.0
 74
0
 49
-3.0
 74
0
  0
LTYPE
  5
4C
100
AcDbSymbolTableRecord
100
AcDbLinetypeTableRecord
  2
PHANTOM2
 70
0
  3
Phantom (.5x) ___ _ _ ___ _ _ ___ _ _ ___ _ _
 72
65
 73
6
 40
31.750000000000004
 49
15.875
 74
0
 49
-3.1749999999999998
 74
0
 49
3.1749999999999998
 74
0
 49
-3.1749999999999998
 74
0
 49
3.1749999999999998
 74
0
 49
-3.1749999999999998
 74
0
  0
LTYPE
  5
4D
100
AcDbSymbolTableRecord
100
AcDbLinetypeTableRecord
  2
DASHED2
 70
0
  3
Dashed (.5x) _ _ _ _ _ _ _ _ _ _ _ _ _ _ _ _ _
 72
65
 73
2
 40
9.5249999999999986
 49
6.3499999999999996
 74
0
 49
-3.1749999999999998
 74
0
  0
LTYPE
  5
4E
100
AcDbSymbolTableRecord
100
AcDbLinetypeTableRecord
  2
DASHDOTTINY
 70
0
  3
Dash dot (.15x) _._._._._._._._._._._._._._._.
 72
65
 73
4
 40
3.8100000000000001
 49
1.905
 74
0
 49
-0.9025
 74
0
 49
0.1
 74
0
 49
-0.9025
 74
0
  0
LTYPE
  5
4F
100
AcDbSymbolTableRecord
100
AcDbLinetypeTableRecord
  2
ACAD_ISO09W100
 70
0
  3
ISO long-dash double-short-dash ____ __ __ ____
 72
65
 73
6
 40
45.0
 49
24.0
 74
0
 49
-3.0
 74
0
 49
6.0
 74
0
 49
-3.0
 74
0
 49
6.0
 74
0
 49
-3.0
 74
0
  0
LTYPE
  5
50
100
AcDbSymbolTableRecord
100
AcDbLinetypeTableRecord
  2
ACAD_ISO13W100
 70
0
  3
ISO double-dash double-dot __ __ . . __ __ . . _
 72
65
 73
8
 40
36.0
 49
12.0
 74
0
 49
-3.0
 74
0
 49
12.0
 74
0
 49
-3.0
 74
0
 49
0.0
 74
0
 49
-3.0
 74
0
 49
0.0
 74
0
 49
-3.0
 74
0
  0
LTYPE
  5
51
100
AcDbSymbolTableRecord
100
AcDbLinetypeTableRecord
  2
DIVIDETINY
 70
0
  3
Divide (.15x) __..__..__..__..__..__..__..__.._
 72
65
 73
6
 40
4.7625000000000002
 49
1.905
 74
0
 49
-0.9025
 74
0
 49
0.1
 74
0
 49
-0.8524999999999999
 74
0
 49
0.1
 74
0
 49
-0.9025
 74
0
  0
LTYPE
  5
52
100
AcDbSymbolTableRecord
100
AcDbLinetypeTableRecord
  2
DOT2
 70
0
  3
Dot (.5x) .....................................
 72
65
 73
2
 40
3.1749999999999998
 49
0.1
 74
0
 49
-3.0749999999999997
 74
0
  0
LTYPE
  5
53
100
AcDbSymbolTableRecord
100
AcDbLinetypeTableRecord
  2
DASHED
 70
0
  3
Dashed _ _ _ _ _ _ _ _ _ _ _ _ _ _ _ _ _
 72
65
 73
2
 40
19.049999999999997
 49
12.699999999999999
 74
0
 49
-6.3499999999999996
 74
0
  0
LTYPE
  5
54
100
AcDbSymbolTableRecord
100
AcDbLinetypeTableRecord
  2
ACAD_ISO14W100
 70
0
  3
ISO dash triple-dot __ . . . __ . . . __ . . . _
 72
65
 73
8
 40
24.0
 49
12.0
 74
0
 49
-3.0
 74
0
 49
0.0
 74
0
 49
-3.0
 74
0
 49
0.0
 74
0
 49
-3.0
 74
0
 49
0.0
 74
0
 49
-3.0
 74
0
  0
LTYPE
  5
55
100
AcDbSymbolTableRecord
100
AcDbLinetypeTableRecord
  2
PHANTOMX2
 70
0
  3
Phantom (2x) ____________    ____    ____   _
 72
65
 73
6
 40
127.00000000000001
 49
63.5
 74
0
 49
-12.699999999999999
 74
0
 49
12.699999999999999
 74
0
 49
-12.699999999999999
 74
0
 49
12.699999999999999
 74
0
 49
-12.699999999999999
 74
0
  0
LTYPE
  5
56
100
AcDbSymbolTableRecord
100
AcDbLinetypeTableRecord
  2
DIVIDEX2
 70
0
  3
Divide (2x) ________  .  .  ________  .  .  _
 72
65
 73
6
 40
63.5
 49
25.399999999999999
 74
0
 49
-12.649999999999999
 74
0
 49
0.1
 74
0
 49
-12.599999999999998
 74
0
 49
0.1
 74
0
 49
-12.649999999999999
 74
0
  0
LTYPE
  5
57
100
AcDbSymbolTableRecord
100
AcDbLinetypeTableRecord
  2
BORDER
 70
0
  3
Border __ __ . __ __ . __ __ . __ __ . __ __ .
 72
65
 73
6
 40
44.449999999999996
 49
12.699999999999999
 74
0
 49
-6.3499999999999996
 74
0
 49
12.699999999999999
 74
0
 49
-6.2999999999999998
 74
0
 49
0.1
 74
0
 49
-6.2999999999999998
 74
0
  0
LTYPE
  5
58
100
AcDbSymbolTableRecord
100
AcDbLinetypeTableRecord
  2
DIVIDE2
 70
0
  3
Divide (.5x) __..__..__..__..__..__..__..__.._
 72
65
 73
6
 40
15.874999999999998
 49
6.3499999999999996
 74
0
 49
-3.125
 74
0
 49
0.1
 74
0
 49
-3.0750000000000002
 74
0
 49
0.1
 74
0
 49
-3.125
 74
0
  0
LTYPE
  5
59
100
AcDbSymbolTableRecord
100
AcDbLinetypeTableRecord
  2
DOT
 70
0
  3
Dot . . . . . . . . . . . . . . . . . . . . . .
 72
65
 73
2
 40
6.3499999999999996
 49
0.1
 74
0
 49
-6.25
 74
0
  0
LTYPE
  5
5A
100
AcDbSymbolTableRecord
100
AcDbLinetypeTableRecord
  2
DASHEDTINY
 70
0
  3
Dashed (.15x) _ _ _ _ _ _ _ _ _ _ _ _ _ _ _ _ _
 72
65
 73
2
 40
2.8574999999999999
 49
1.905
 74
0
 49
-0.9525
 74
0
  0
LTYPE
  5
5B
100
AcDbSymbolTableRecord
100
AcDbLinetypeTableRecord
  2
DASHDOT
 70
0
  3
Dash dot __ . __ . __ . __ . __ . __ . __ . __
 72
65
 73
4
 40
25.400000000000002
 49
12.699999999999999
 74
0
 49
-6.2999999999999998
 74
0
 49
0.1
 74
0
 49
-6.2999999999999998
 74
0
  0
LTYPE
  5
5C
100
AcDbSymbolTableRecord
100
AcDbLinetypeTableRecord
  2
ACAD_ISO03W100
 70
0
  3
ISO dash space __    __    __    __    __    __
 72
65
 73
2
 40
30.0
 49
12.0
 74
0
 49
-18.0
 74
0
  0
LTYPE
  5
15
100
AcDbSymbolTableRecord
100
AcDbLinetypeTableRecord
  2
ByLayer
 70
0
  3

 72
65
 73
0
 40
0.0
  0
ENDTAB
  0
TABLE
  2
LAYER
  5
2
100
AcDbSymbolTable
 70
1
  0
LAYER
  5
10
100
AcDbSymbolTableRecord
100
AcDbLayerTableRecord
  2
0
 70
0
 62
7
420
16777215
  6
Continuous
370
-3
390
F
  0
ENDTAB
  0
TABLE
  2
STYLE
  5
3
100
AcDbSymbolTable
 70
1
  0
STYLE
  5
5D
100
AcDbSymbolTableRecord
100
AcDbTextStyleTableRecord
  2
Standard
 70
0
 40
0.0
 41
1.0
 50
0.0
 71
0
 42
2.5
  3

  4

1001
ACAD
1000
txt
1071
0
  0
ENDTAB
  0
TABLE
  2
VIEW
  5
6
100
AcDbSymbolTable
 70
0
  0
ENDTAB
  0
TABLE
  2
UCS
  5
7
100
AcDbSymbolTable
 70
0
  0
ENDTAB
  0
TABLE
  2
APPID
  5
9
100
AcDbSymbolTable
 70
1
  0
APPID
  5
12
100
AcDbSymbolTableRecord
100
AcDbRegAppTableRecord
  2
ACAD
 70
0
  0
APPID
  5
5E
100
AcDbSymbolTableRecord
100
AcDbRegAppTableRecord
  2
QCAD
 70
0
  0
ENDTAB
  0
TABLE
  2
DIMSTYLE
  5
A
100
AcDbSymbolTable
 70
1
100
AcDbDimStyleTable
 71
0
  0
DIMSTYLE
105
27
100
AcDbSymbolTableRecord
100
AcDbDimStyleTableRecord
  2
Standard
 41
2.5
 42
0.625
 43
3.75
 44
1.25
 70
0
 73
0
 74
0
 77
1
 78
8
140
2.5
141
2.5
143
0.03937007874016
147
0.625
171
3
172
1
271
2
272
2
274
3
278
44
283
0
284
8
340
5D
  0
ENDTAB
  0
TABLE
  2
BLOCK_RECORD
  5
1
100
AcDbSymbolTable
 70
1
  0
BLOCK_RECORD
  5
1F
100
AcDbSymbolTableRecord
100
AcDbBlockTableRecord
  2
*Model_Space
340
22
  0
BLOCK_RECORD
  5
1B
100
AcDbSymbolTableRecord
100
AcDbBlockTableRecord
  2
*Paper_Space
340
1E
  0
BLOCK_RECORD
  5
23
100
AcDbSymbolTableRecord
100
AcDbBlockTableRecord
  2
*Paper_Space0
340
26
  0
BLOCK_RECORD
  5
5F
100
AcDbSymbolTableRecord
100
AcDbBlockTableRecord
  2
TUX
340
0
  0
ENDTAB
  0
ENDSEC
  0
SECTION
  2
BLOCKS
  0
BLOCK
  5
20
100
AcDbEntity
  8
0
100
AcDbBlockBegin
  2
*Model_Space
 70
0
 10
0.0
 20
0.0
 30
0.0
  3
*Model_Space
  1

  0
ENDBLK
  5
21
100
AcDbEntity
  8
0
100
AcDbBlockEnd
  0
BLOCK
  5
1C
100
AcDbEntity
 67
1
  8
0
100
AcDbBlockBegin
  2
*Paper_Space
 70
0
 10
0.0
 20
0.0
 30
0.0
  3
*Paper_Space
  1

  0
ENDBLK
  5
1D
100
AcDbEntity
 67
1
  8
0
100
AcDbBlockEnd
  0
BLOCK
  5
24
100
AcDbEntity
  8
0
100
AcDbBlockBegin
  2
*Paper_Space0
 70
0
 10
0.0
 20
0.0
 30
0.0
  3
*Paper_Space0
  1

  0
ENDBLK
  5
25
100
AcDbEntity
  8
0
100
AcDbBlockEnd
  0
BLOCK
  5
60
100
AcDbEntity
  8
0
100
AcDbBlockBegin
  2
TUX
 70
0
 10
0.0
 20
0.0
 30
0.0
  3
TUX
  1

  0
ARC
  5
61
100
AcDbEntity
  8
0
 62
0
370
-1
 48
1.0
  6
Continuous
100
AcDbCircle
 10
12.727015
 20
26.404627000000001
 30
0.0
 40
3.9318719999999998
100
AcDbArc
 50
105.14142599999998
 51
177.151825
  0
ARC
  5
62
100
AcDbEntity
  8
0
 62
0
370
-1
 48
1.0
  6
Continuous
100
AcDbCircle
 10
12.877936999999999
 20
25.504308000000002
 30
0.0
 40
4.8411840000000002
100
AcDbArc
 50
39.750774
 51
104.082336
  0
ARC
  5
63
100
AcDbEntity
  8
0
 62
0
370
-1
 48
1.0
  6
Continuous
100
AcDbCircle
 10
8.2048389999999998
 20
23.946774000000001
 30
0.0
 40
9.5985019999999999
100
AcDbArc
 50
1.5117409999999998
 51
28.998494999999998
  0
ARC
  5
64
100
AcDbEntity
  8
0
 62
0
370
-1
 48
1.0
  6
Continuous
100
AcDbCircle
 10
21.393749
 20
23.318750000000001
 30
0.0
 40
3.7002220000000001
100
AcDbArc
 50
166.22195400000001
 51
199.23066699999998
  0
ARC
  5
65
100
AcDbEntity
  8
0
 62
0
370
-1
 48
1.0
  6
Continuous
100
AcDbCircle
 10
28.341781999999998
 20
24.829452
 30
0.0
 40
10.792622
100
AcDbArc
 50
194.64917
 51
215.90626499999999
  0
ARC
  5
66
100
AcDbEntity
  8
0
 62
0
370
-1
 48
1.0
  6
Continuous
100
AcDbCircle
 10
14.31
 20
11.81
 30
0.0
 40
8.5287869999999995
100
AcDbArc
 50
27.135886999999997
 51
51.665436
  0
ARC
  5
67
100
AcDbEntity
  8
0
 62
0
370
-1
 48
1.0
  6
Continuous
100
AcDbCircle
 10
10.25
 20
10.75
 30
0.0
 40
12.658001000000001
100
AcDbArc
 50
7.4899530000000007
 51
23.020284999999998
  0
ARC
  5
68
100
AcDbEntity
  8
0
 62
0
370
-1
 48
1.0
  6
Continuous
100
AcDbCircle
 10
18.777632000000001
 20
11.196382
 30
0.0
 40
4.198588
100
AcDbArc
 50
310.42114299999997
 51
16.658829000000001
  0
ARC
  5
69
100
AcDbEntity
  8
0
 62
0
370
-1
 48
1.0
  6
Continuous
100
AcDbCircle
 10
20.403659999999999
 20
9.4304880000000004
 30
0.0
 40
1.8022929999999999
100
AcDbArc
 50
218.84750399999999
 51
307.466949
  0
ARC
  5
6A
100
AcDbEntity
  8
0
 62
0
370
-1
 48
1.0
  6
Continuous
100
AcDbCircle
 10
20.632560999999999
 20
8.7012260000000001
 30
0.0
 40
1.6811419999999999
100
AcDbArc
 50
50.583835999999998
 51
193.80763200000001
  0
ARC
  5
6B
100
AcDbEntity
  8
0
 62
0
370
-1
 48
1.0
  6
Continuous
100
AcDbCircle
 10
25.431249999999999
 20
8.2874999999999996
 30
0.0
 40
2.3489110000000002
100
AcDbArc
 50
187.030472
 51
222.51980599999999
  0
ARC
  5
6C
100
AcDbEntity
  8
0
 62
0
370
-1
 48
1.0
  6
Continuous
100
AcDbCircle
 10
28.475000000000001
 20
11.5625
 30
0.0
 40
6.8150219999999999
100
AcDbArc
 50
225.52018699999996
 51
239.34263600000003
  0
ARC
  5
6D
100
AcDbEntity
  8
0
 62
0
370
-1
 48
1.0
  6
Continuous
100
AcDbCircle
 10
24.637501
 20
5.0
 30
0.0
 40
0.788293
100
AcDbArc
 50
297.37771599999996
 51
62.622295000000008
  0
ARC
  5
6E
100
AcDbEntity
  8
0
 62
0
370
-1
 48
1.0
  6
Continuous
100
AcDbCircle
 10
27.612499
 20
-5.5187489999999997
 30
0.0
 40
9.7841330000000006
100
AcDbArc
 50
119.463425
 51
136.630661
  0
ARC
  5
6F
100
AcDbEntity
  8
0
 62
0
370
-1
 48
1.0
  6
Continuous
100
AcDbCircle
 10
18.957018000000001
 20
2.8991229999999999
 30
0.0
 40
2.295172
100
AcDbArc
 50
211.49703999999997
 51
312.24276700000001
  0
ARC
  5
70
100
AcDbEntity
  8
0
 62
0
370
-1
 48
1.0
  6
Continuous
100
AcDbCircle
 10
20.776759999999999
 20
2.966901
 30
0.0
 40
3.9835859999999998
100
AcDbArc
 50
157.36532599999998
 51
198.54385400000001
  0
ARC
  5
71
100
AcDbEntity
  8
0
 62
0
370
-1
 48
1.0
  6
Continuous
100
AcDbCircle
 10
3.2000000000000002
 20
7.2000000000000002
 30
0.0
 40
14.159802000000001
100
AcDbArc
 50
349.00747699999999
 51
5.2676970000000001
  0
ARC
  5
72
100
AcDbEntity
  8
0
 62
0
370
-1
 48
1.0
  6
Continuous
100
AcDbCircle
 10
17.850000000000001
 20
8.8499999999999996
 30
0.0
 40
0.6519200000000001
100
AcDbArc
 50
57.52880900000001
 51
212.47119099999998
  0
ARC
  5
73
100
AcDbEntity
  8
0
 62
0
370
-1
 48
1.0
  6
Continuous
100
AcDbCircle
 10
6.0499999999999998
 20
6.3499999999999996
 30
0.0
 40
5.0916600000000001
100
AcDbArc
 50
162.27676399999999
 51
187.33438100000001
  0
ARC
  5
74
100
AcDbEntity
  8
0
 62
0
370
-1
 48
1.0
  6
Continuous
100
AcDbCircle
 10
4.8837659999999996
 20
8.9759740000000008
 30
0.0
 40
1.0274460000000001
100
AcDbArc
 50
37.398586000000002
 51
149.33433500000001
  0
ARC
  5
75
100
AcDbEntity
  8
0
 62
0
370
-1
 48
1.0
  6
Continuous
100
AcDbCircle
 10
-12.5
 20
-6.0
 30
0.0
 40
23.970815999999999
100
AcDbArc
 50
26.778839000000005
 51
40.601295
  0
ARC
  5
76
100
AcDbEntity
  8
0
 62
0
370
-1
 48
1.0
  6
Continuous
100
AcDbCircle
 10
7.7595239999999999
 20
2.8880949999999999
 30
0.0
 40
2.2262219999999999
100
AcDbArc
 50
321.426331
 51
59.183371999999991
  0
ARC
  5
77
100
AcDbEntity
  8
0
 62
0
370
-1
 48
1.0
  6
Continuous
100
AcDbCircle
 10
7.8404759999999998
 20
2.819048
 30
0.0
 40
2.1198830000000002
100
AcDbArc
 50
234.18553199999999
 51
321.52108799999996
  0
ARC
  5
78
100
AcDbEntity
  8
0
 62
0
370
-1
 48
1.0
  6
Continuous
100
AcDbCircle
 10
10.525
 20
8.1875
 30
0.0
 40
7.1972759999999996
100
AcDbArc
 50
140.143463
 51
156.99740600000001
  0
ARC
  5
79
100
AcDbEntity
  8
0
 62
0
370
-1
 48
1.0
  6
Continuous
100
AcDbCircle
 10
-3.7999999999999998
 20
16.930769000000002
 30
0.0
 40
9.7212779999999999
100
AcDbArc
 50
334.85437000000002
 51
350.940155
  0
ARC
  5
7A
100
AcDbEntity
  8
0
 62
0
370
-1
 48
1.0
  6
Continuous
100
AcDbCircle
 10
10.541667
 20
14.083333
 30
0.0
 40
4.9210789999999998
100
AcDbArc
 50
136.02915999999999
 51
164.48107899999999
  0
ARC
  5
7B
100
AcDbEntity
  8
0
 62
0
370
-1
 48
1.0
  6
Continuous
100
AcDbCircle
 10
-2.0
 20
26.016667000000002
 30
0.0
 40
12.390867999999999
100
AcDbArc
 50
316.580536
 51
328.811554
  0
ARC
  5
7C
100
AcDbEntity
  8
0
 62
0
370
-1
 48
1.0
  6
Continuous
100
AcDbCircle
 10
6.4375
 20
21.100000000000001
 30
0.0
 40
2.6318069999999998
100
AcDbArc
 50
325.25320399999998
 51
13.178191
  0
ARC
  5
7D
100
AcDbEntity
  8
0
 62
0
370
-1
 48
1.0
  6
Continuous
100
AcDbCircle
 10
1481.349976
 20
84.25
 30
0.0
 40
1473.678101
100
AcDbArc
 50
182.241974
 51
182.43263200000001
  0
ARC
  5
7E
100
AcDbEntity
  8
0
 62
0
370
-1
 48
1.0
  6
Continuous
100
AcDbCircle
 10
11.572222
 20
10.527778
 30
0.0
 40
7.119097
100
AcDbArc
 50
289.08535800000004
 51
323.56829800000003
  0
ARC
  5
7F
100
AcDbEntity
  8
0
 62
0
370
-1
 48
1.0
  6
Continuous
100
AcDbCircle
 10
27.143256999999998
 20
30.218537999999999
 30
0.0
 40
29.124475
100
AcDbArc
 50
220.50958299999999
 51
232.21826200000001
  0
ARC
  5
80
100
AcDbEntity
  8
0
 62
0
370
-1
 48
1.0
  6
Continuous
100
AcDbCircle
 10
15.85
 20
12.25
 30
0.0
 40
4.7565739999999996
100
AcDbArc
 50
3.012788
 51
56.142891000000006
  0
ARC
  5
81
100
AcDbEntity
  8
0
 62
0
370
-1
 48
1.0
  6
Continuous
100
AcDbCircle
 10
10.6
 20
20.399999999999999
 30
0.0
 40
1.0
100
AcDbArc
 50
143.13009599999998
 51
216.86990399999999
  0
ARC
  5
82
100
AcDbEntity
  8
0
 62
0
370
-1
 48
1.0
  6
Continuous
100
AcDbCircle
 10
18.902381999999999
 20
12.683332999999999
 30
0.0
 40
11.554232000000001
100
AcDbArc
 50
141.980042
 51
155.36257900000001
  0
ARC
  5
83
100
AcDbEntity
  8
0
 62
0
370
-1
 48
1.0
  6
Continuous
100
AcDbCircle
 10
9.3000000000000007
 20
16.850000000000001
 30
0.0
 40
1.1101799999999999
100
AcDbArc
 50
144.16235399999999
 51
215.83764600000001
  0
ARC
  5
84
100
AcDbEntity
  8
0
 62
0
370
-1
 48
1.0
  6
Continuous
100
AcDbCircle
 10
13.725
 20
10.925000000000001
 30
0.0
 40
7.4954150000000004
100
AcDbArc
 50
135.270264
 51
187.859848
  0
ARC
  5
85
100
AcDbEntity
  8
0
 62
0
370
-1
 48
1.0
  6
Continuous
100
AcDbCircle
 10
7.1944439999999998
 20
14.627777999999999
 30
0.0
 40
10.198078000000001
100
AcDbArc
 50
11.150778000000001
 51
32.452041999999999
  0
ARC
  5
86
100
AcDbEntity
  8
0
 62
0
370
-1
 48
1.0
  6
Continuous
100
AcDbCircle
 10
15.15
 20
20.399999999999999
 30
0.0
 40
0.7158910000000001
100
AcDbArc
 50
335.22485399999994
 51
77.905242999999999
  0
ARC
  5
87
100
AcDbEntity
  8
0
 62
0
370
-1
 48
1.0
  6
Continuous
100
AcDbCircle
 10
32.492105000000002
 20
10.623684000000001
 30
0.0
 40
21.895337999999999
100
AcDbArc
 50
172.187378
 51
185.56601000000001
  0
ARC
  5
88
100
AcDbEntity
  8
0
 62
0
370
-1
 48
1.0
  6
Continuous
100
AcDbCircle
 10
12.872413999999999
 20
9.6965520000000005
 30
0.0
 40
6.9516119999999999
100
AcDbArc
 50
44.859321999999999
 51
78.149399000000003
  0
ARC
  5
89
100
AcDbEntity
  8
0
 62
0
370
-1
 48
1.0
  6
Continuous
100
AcDbCircle
 10
16.960000000000001
 20
7.9400000000000004
 30
0.0
 40
8.9637720000000005
100
AcDbArc
 50
91.662132000000014
 51
107.262512
  0
ARC
  5
8A
100
AcDbEntity
  8
0
 62
0
370
-1
 48
1.0
  6
Continuous
100
AcDbCircle
 10
10.455556
 20
24.883333
 30
0.0
 40
0.951623
100
AcDbArc
 50
7.0420389999999999
 51
154.03331
  0
ARC
  5
8B
100
AcDbEntity
  8
0
 62
0
370
-1
 48
1.0
  6
Continuous
100
AcDbCircle
 10
9.7973680000000005
 20
17.889474
 30
0.0
 40
1.293552
100
AcDbArc
 50
202.23431400000001
 51
274.55068999999997
  0
ARC
  5
8C
100
AcDbEntity
  8
0
 62
0
370
-1
 48
1.0
  6
Continuous
100
AcDbCircle
 10
15.050000000000001
 20
3.7999999999999998
 30
0.0
 40
13.797192000000001
100
AcDbArc
 50
111.91708399999999
 51
121.21302
  0
ARC
  5
8D
100
AcDbEntity
  8
0
 62
0
370
-1
 48
1.0
  6
Continuous
100
AcDbCircle
 10
9.0694689999999998
 20
6.3606189999999998
 30
0.0
 40
0.870462
100
AcDbArc
 50
278.62435900000003
 51
74.642700000000005
  0
ARC
  5
8E
100
AcDbEntity
  8
0
 62
0
370
-1
 48
1.0
  6
Continuous
100
AcDbCircle
 10
4.983333
 20
10.5
 30
0.0
 40
1.193152
100
AcDbArc
 50
155.22485399999999
 51
224.07708700000001
  0
ARC
  5
8F
100
AcDbEntity
  8
0
 62
0
370
-1
 48
1.0
  6
Continuous
100
AcDbCircle
 10
-0.926087
 20
5.0304349999999998
 30
0.0
 40
2.0391490000000001
100
AcDbArc
 50
314.26324499999998
 51
19.168976000000001
  0
ARC
  5
90
100
AcDbEntity
  8
0
 62
0
370
-1
 48
1.0
  6
Continuous
100
AcDbCircle
 10
1.1857139999999999
 20
3.3999999999999999
 30
0.0
 40
0.709268
100
AcDbArc
 50
166.12233000000001
 51
279.27261399999998
  0
ARC
  5
91
100
AcDbEntity
  8
0
 62
0
370
-1
 48
1.0
  6
Continuous
100
AcDbCircle
 10
15.269231
 20
38.850000000000001
 30
0.0
 40
38.755153999999997
100
AcDbArc
 50
248.87226899999999
 51
256.92227200000002
  0
ARC
  5
92
100
AcDbEntity
  8
0
 62
0
370
-1
 48
1.0
  6
Continuous
100
AcDbCircle
 10
2.7714289999999999
 20
9.5071429999999992
 30
0.0
 40
1.2285919999999999
100
AcDbArc
 50
261.56558200000001
 51
359.66690099999994
  0
ARC
  5
93
100
AcDbEntity
  8
0
 62
0
370
-1
 48
1.0
  6
Continuous
100
AcDbCircle
 10
2.8394740000000001
 20
4.7447369999999998
 30
0.0
 40
3.5557780000000001
100
AcDbArc
 50
94.003441000000009
 51
117.45637499999998
  0
ARC
  5
94
100
AcDbEntity
  8
0
 62
0
370
-1
 48
1.0
  6
Continuous
100
AcDbCircle
 10
13.4
 20
-13.1625
 30
0.0
 40
15.463793000000001
100
AcDbArc
 50
76.918593999999999
 51
103.712036
  0
ARC
  5
95
100
AcDbEntity
  8
0
 62
0
370
-1
 48
1.0
  6
Continuous
100
AcDbCircle
 10
12.100942999999999
 20
9.04434
 30
0.0
 40
5.54434
100
AcDbArc
 50
243.68719499999997
 51
288.93438700000002
  0
ARC
  5
96
100
AcDbEntity
  8
0
 62
0
370
-1
 48
1.0
  6
Continuous
100
AcDbCircle
 10
21.924999
 20
8.3249999999999993
 30
0.0
 40
1.2191190000000001
100
AcDbArc
 50
344.53878800000001
 51
58.775948000000007
  0
ARC
  5
97
100
AcDbEntity
  8
0
 62
0
370
-1
 48
1.0
  6
Continuous
100
AcDbCircle
 10
11.6875
 20
13.36875
 30
0.0
 40
8.9547410000000003
100
AcDbArc
 50
339.92611700000003
 51
354.43264799999997
  0
ARC
  5
98
100
AcDbEntity
  8
0
 62
0
370
-1
 48
1.0
  6
Continuous
100
AcDbCircle
 10
10.674467999999999
 20
11.73617
 30
0.0
 40
8.1387599999999996
100
AcDbArc
 50
341.88952599999999
 51
36.699142000000002
  0
ARC
  5
99
100
AcDbEntity
  8
0
 62
0
370
-1
 48
1.0
  6
Continuous
100
AcDbCircle
 10
19.234760000000001
 20
10.310893999999999
 30
0.0
 40
1.3785700000000001
100
AcDbArc
 50
221.35730000000001
 51
258.97430400000002
  0
ARC
  5
9A
100
AcDbEntity
  8
0
 62
0
370
-1
 48
1.0
  6
Continuous
100
AcDbCircle
 10
11.869565
 20
11.278261000000001
 30
0.0
 40
6.3696020000000004
100
AcDbArc
 50
138.48663300000001
 51
185.20031700000001
  0
ARC
  5
9B
100
AcDbEntity
  8
0
 62
0
370
-1
 48
1.0
  6
Continuous
100
AcDbCircle
 10
13.670968
 20
24.309677000000001
 30
0.0
 40
1.9383980000000001
100
AcDbArc
 50
311.96636999999998
 51
62.028458000000008
  0
ARC
  5
9C
100
AcDbEntity
  8
0
 62
0
370
-1
 48
1.0
  6
Continuous
100
AcDbCircle
 10
12.1
 20
22.699999999999999
 30
0.0
 40
1.204159
100
AcDbArc
 50
30.362411000000002
 51
138.366455
  0
ARC
  5
9D
100
AcDbEntity
  8
0
 62
0
370
-1
 48
1.0
  6
Continuous
100
AcDbCircle
 10
10.383333
 20
21.797619000000001
 30
0.0
 40
0.988167
100
AcDbArc
 50
116.20534499999998
 51
233.82037399999999
  0
ARC
  5
9E
100
AcDbEntity
  8
0
 62
0
370
-1
 48
1.0
  6
Continuous
100
AcDbCircle
 10
12.375
 20
20.324999999999999
 30
0.0
 40
3.3854470000000001
100
AcDbArc
 50
110.308441
 51
135.82350199999999
  0
ARC
  5
9F
100
AcDbEntity
  8
0
 62
0
370
-1
 48
1.0
  6
Continuous
100
AcDbCircle
 10
9.3499999999999996
 20
24.649999999999999
 30
0.0
 40
2.079663
100
AcDbArc
 50
324.26037600000001
 51
9.6887869999999996
  0
ARC
  5
A0
100
AcDbEntity
  8
0
 62
0
370
-1
 48
1.0
  6
Continuous
100
AcDbCircle
 10
12.480625
 20
24.056663
 30
0.0
 40
3.1374970000000002
100
AcDbArc
 50
156.65399199999999
 51
208.87178
  0
ARC
  5
A1
100
AcDbEntity
  8
0
 62
0
370
-1
 48
1.0
  6
Continuous
100
AcDbCircle
 10
13.217642
 20
19.648993999999998
 30
0.0
 40
3.660514
100
AcDbArc
 50
62.638961999999999
 51
91.230979999999988
  0
ARC
  5
A2
100
AcDbEntity
  8
0
 62
0
370
-1
 48
1.0
  6
Continuous
100
AcDbCircle
 10
15.264609
 20
24.871905999999999
 30
0.0
 40
2.5824189999999998
100
AcDbArc
 50
188.83506800000001
 51
217.23010300000001
  0
ARC
  5
A3
100
AcDbEntity
  8
0
 62
0
370
-1
 48
1.0
  6
Continuous
100
AcDbCircle
 10
14.115116
 20
24.682558
 30
0.0
 40
1.4175219999999999
100
AcDbArc
 50
70.849288999999999
 51
190.29920999999999
  0
ARC
  5
A4
100
AcDbEntity
  8
0
 62
0
370
-1
 48
1.0
  6
Continuous
100
AcDbCircle
 10
10.31601
 20
24.450403999999999
 30
0.0
 40
0.3
100
AcDbArc
 50
63.315994000000003
 51
150.122559
  0
ARC
  5
A5
100
AcDbEntity
  8
0
 62
0
370
-1
 48
1.0
  6
Continuous
100
AcDbCircle
 10
10.057895
 20
23.936841999999999
 30
0.0
 40
0.874777
100
AcDbArc
 50
344.29135100000002
 51
63.315994000000003
  0
ARC
  5
A6
100
AcDbEntity
  8
0
 62
0
370
-1
 48
1.0
  6
Continuous
100
AcDbCircle
 10
11.1
 20
24.0
 30
0.0
 40
1.204159
100
AcDbArc
 50
150.122559
 51
232.26332099999999
  0
ARC
  5
A7
100
AcDbEntity
  8
0
 62
0
370
-1
 48
1.0
  6
Continuous
100
AcDbCircle
 10
14.212873
 20
24.585545
 30
0.0
 40
0.3
100
AcDbArc
 50
46.369446000000011
 51
103.18042800000002
  0
ARC
  5
A8
100
AcDbEntity
  8
0
 62
0
370
-1
 48
1.0
  6
Continuous
100
AcDbCircle
 10
14.35
 20
24.0
 30
0.0
 40
0.901388
100
AcDbArc
 50
103.18042800000002
 51
235.625168
  0
ARC
  5
A9
100
AcDbEntity
  8
0
 62
0
370
-1
 48
1.0
  6
Continuous
100
AcDbCircle
 10
13.75
 20
24.100000000000001
 30
0.0
 40
0.970824
100
AcDbArc
 50
291.83279399999998
 51
46.369446000000011
  0
ARC
  5
AA
100
AcDbEntity
  8
0
 62
0
370
-1
 48
1.0
  6
Continuous
100
AcDbCircle
 10
14.945522
 20
21.459682999999998
 30
0.0
 40
0.3
100
AcDbArc
 50
294.03259300000002
 51
308.96630899999997
  0
ARC
  5
AB
100
AcDbEntity
  8
0
 62
0
370
-1
 48
1.0
  6
Continuous
100
AcDbCircle
 10
14.514286
 20
21.992857000000001
 30
0.0
 40
0.98574
100
AcDbArc
 50
308.96630899999997
 51
66.964957999999996
  0
ARC
  5
AC
100
AcDbEntity
  8
0
 62
0
370
-1
 48
1.0
  6
Continuous
100
AcDbCircle
 10
10.987847
 20
21.089974000000002
 30
0.0
 40
0.3
100
AcDbArc
 50
244.80934099999999
 51
261.61901899999998
  0
ARC
  5
AD
100
AcDbEntity
  8
0
 62
0
370
-1
 48
1.0
  6
Continuous
100
AcDbCircle
 10
12.786364000000001
 20
24.913636
 30
0.0
 40
4.5255239999999999
100
AcDbArc
 50
225.244156
 51
244.80934099999999
  0
ARC
  5
AE
100
AcDbEntity
  8
0
 62
0
370
-1
 48
1.0
  6
Continuous
100
AcDbCircle
 10
13.130515000000001
 20
20.928681999999998
 30
0.0
 40
0.3
100
AcDbArc
 50
110.92012
 51
120.32196000000002
  0
ARC
  5
AF
100
AcDbEntity
  8
0
 62
0
370
-1
 48
1.0
  6
Continuous
100
AcDbCircle
 10
11.4
 20
23.887499999999999
 30
0.0
 40
3.1277240000000002
100
AcDbArc
 50
261.61901899999998
 51
300.32195999999999
  0
ARC
  5
B0
100
AcDbEntity
  8
0
 62
0
370
-1
 48
1.0
  6
Continuous
100
AcDbCircle
 10
9.8785710000000009
 20
29.435714999999998
 30
0.0
 40
8.8074010000000005
100
AcDbArc
 50
290.92013500000002
 51
304.75979600000005
  0
ARC
  5
B1
100
AcDbEntity
  8
0
 62
0
370
-1
 48
1.0
  6
Continuous
100
AcDbCircle
 10
11.379521
 20
20.788561000000001
 30
0.0
 40
1.0
100
AcDbArc
 50
218.74629200000001
 51
251.565079
  0
ARC
  5
B2
100
AcDbEntity
  8
0
 62
0
370
-1
 48
1.0
  6
Continuous
100
AcDbCircle
 10
11.949999999999999
 20
22.5
 30
0.0
 40
2.8040150000000001
100
AcDbArc
 50
251.565079
 51
291.99111900000003
  0
ARC
  5
B3
100
AcDbEntity
  8
0
 62
0
370
-1
 48
1.0
  6
Continuous
100
AcDbCircle
 10
5.3499999999999996
 20
15.949999999999999
 30
0.0
 40
6.730899
100
AcDbArc
 50
38.746291999999997
 51
48.613879999999995
  0
ARC
  5
B4
100
AcDbEntity
  8
0
 62
0
370
-1
 48
1.0
  6
Continuous
100
AcDbCircle
 10
18.999158999999999
 20
12.557426
 30
0.0
 40
9.4817339999999994
100
AcDbArc
 50
114.49632999999999
 51
129.25010700000001
  0
ARC
  5
B5
100
AcDbEntity
  8
0
 62
0
370
-1
 48
1.0
  6
Continuous
100
AcDbCircle
 10
8.9430420000000002
 20
9.1931639999999994
 30
0.0
 40
3.7020930000000001
100
AcDbArc
 50
263.50045799999998
 51
273.98004200000003
  0
ARC
  5
B6
100
AcDbEntity
  8
0
 62
0
370
-1
 48
1.0
  6
Continuous
100
AcDbCircle
 10
28.940781000000001
 20
-4.8805509999999996
 30
0.0
 40
9.9906089999999992
100
AcDbArc
 50
113.23158300000001
 51
127.926872
  0
ARC
  5
B7
100
AcDbEntity
  8
0
 62
0
370
-1
 48
1.0
  6
Continuous
100
AcDbCircle
 10
9.1069709999999997
 20
23.999931
 30
0.0
 40
1.817941
100
AcDbArc
 50
337.95315599999998
 51
350.503693
  0
ENDBLK
  5
B8
100
AcDbEntity
  8
0
100
AcDbBlockEnd
  0
ENDSEC
  0
SECTION
  2
ENTITIES
  0
LINE
  5
B9
100
AcDbEntity
100
AcDbLine
  8
0
 62
176
420
76
370
-1
 48
1.0
  6
ByLayer
 10
126.1291525282174
 20
136.91385772001291
 30
0.0
 11
136.12915252821739
 21
136.91385772001291
 31
0.0
  0
LINE
  5
BA
100
AcDbEntity
100
AcDbLine
  8
0
 62
176
420
76
370
-1
 48
1.0
  6
ByLayer
 10
177.87915252821759
 20
136.16385772001291
 30
0.0
 11
187.87915252821759
 21
136.16385772001291
 31
0.0
  0
LINE
  5
BB
100
AcDbEntity
100
AcDbLine
  8
0
 62
176
420
76
370
-1
 48
1.0
  6
ByLayer
 10
133.8791525282175
 20
123.6638577200129
 30
0.0
 11
143.8791525282175
 21
123.6638577200129
 31
0.0
  0
LINE
  5
BC
100
AcDbEntity
100
AcDbLine
  8
0
 62
176
420
76
370
-1
 48
1.0
  6
ByLayer
 10
186.12915252821759
 20
125.4138577200129
 30
0.0
 11
196.12915252821759
 21
125.4138577200129
 31
0.0
  0
LINE
  5
BD
100
AcDbEntity
100
AcDbLine
  8
0
 62
176
420
76
370
-1
 48
1.0
  6
ByLayer
 10
148.1291525282175
 20
156.16385772001291
 30
0.0
 11
158.1291525282175
 21
156.16385772001291
 31
0.0
  0
LINE
  5
BE
100
AcDbEntity
100
AcDbLine
  8
0
 62
176
420
76
370
-1
 48
1.0
  6
ByLayer
 10
121.3791525282174
 20
131.16385772001291
 30
0.0
 11
126.6291525282174
 21
174.663857720013
 31
0.0
  0
LINE
  5
BF
100
AcDbEntity
100
AcDbLine
  8
0
 62
176
420
76
370
-1
 48
1.0
  6
ByLayer
 10
126.6291525282174
 20
174.663857720013
 30
0.0
 11
164.6291525282175
 21
171.413857720013
 31
0.0
  0
LINE
  5
C0
100
AcDbEntity
100
AcDbLine
  8
0
 62
176
420
76
370
-1
 48
1.0
  6
ByLayer
 10
164.6291525282175
 20
171.413857720013
 30
0.0
 11
164.8791525282175
 21
126.9138577200129
 31
0.0
  0
LINE
  5
C1
100
AcDbEntity
100
AcDbLine
  8
0
 62
176
420
76
370
-1
 48
1.0
  6
ByLayer
 10
164.8791525282175
 20
126.9138577200129
 30
0.0
 11
121.1291525282174
 21
130.41385772001291
 31
0.0
  0
LINE
  5
C2
100
AcDbEntity
100
AcDbLine
  8
0
 62
176
420
76
370
-1
 48
1.0
  6
ByLayer
 10
179.12915252821759
 20
116.4138577200129
 30
0.0
 11
173.62915252821759
 21
147.16385772001291
 31
0.0
  0
LINE
  5
C3
100
AcDbEntity
100
AcDbLine
  8
0
 62
176
420
76
370
-1
 48
1.0
  6
ByLayer
 10
173.62915252821759
 20
147.16385772001291
 30
0.0
 11
190.87915252821759
 21
153.41385772001291
 31
0.0
  0
LINE
  5
C4
100
AcDbEntity
100
AcDbLine
  8
0
 62
176
420
76
370
-1
 48
1.0
  6
ByLayer
 10
190.87915252821759
 20
153.41385772001291
 30
0.0
 11
206.37915252821759
 21
118.6638577200129
 31
0.0
  0
LINE
  5
C5
100
AcDbEntity
100
AcDbLine
  8
0
 62
176
420
76
370
-1
 48
1.0
  6
ByLayer
 10
206.37915252821759
 20
118.6638577200129
 30
0.0
 11
178.37915252821759
 21
116.6638577200129
 31
0.0
  0
LINE
  5
C6
100
AcDbEntity
100
AcDbLine
  8
0
 62
176
420
76
370
-1
 48
1.0
  6
ByLayer
 10
69.879152528217332
 20
130.91385772001291
 30
0.0
 11
33.879152528217261
 21
173.913857720013
 31
0.0
  0
LINE
  5
C7
100
AcDbEntity
100
AcDbLine
  8
0
 62
176
420
76
370
-1
 48
1.0
  6
ByLayer
 10
33.879152528217261
 20
173.913857720013
 30
0.0
 11
85.879152528217361
 21
179.913857720013
 31
0.0
  0
LINE
  5
C8
100
AcDbEntity
100
AcDbLine
  8
0
 62
176
420
76
370
-1
 48
1.0
  6
ByLayer
 10
85.879152528217361
 20
179.913857720013
 30
0.0
 11
104.1291525282174
 21
152.91385772001291
 31
0.0
  0
LINE
  5
C9
100
AcDbEntity
100
AcDbLine
  8
0
 62
176
420
76
370
-1
 48
1.0
  6
ByLayer
 10
104.1291525282174
 20
152.91385772001291
 30
0.0
 11
70.879152528217332
 21
130.41385772001291
 31
0.0
  0
CIRCLE
  5
CA
100
AcDbEntity
100
AcDbCircle
  8
0
 62
176
420
76
370
-1
 48
1.0
  6
ByLayer
 10
116.1291525282174
 20
116.6638577200129
 30
0.0
 40
111.273362591186
  0
CIRCLE
  5
CB
100
AcDbEntity
100
AcDbCircle
  8
0
 62
176
420
76
370
-1
 48
1.0
  6
ByLayer
 10
75.379152528217347
 20
91.788857720012828
 30
0.0
 40
25.183389863161839
  0
CIRCLE
  5
CC
100
AcDbEntity
100
AcDbCircle
  8
0
 62
176
420
76
370
-1
 48
1.0
  6
ByLayer
 10
155.4269431894522
 20
83.246825441730124
 30
0.0
 40
21.838509121690379
  0
ARC
  5
CD
100
AcDbEntity
  8
0
 62
176
420
76
370
-1
 48
1.0
  6
ByLayer
100
AcDbCircle
 10
46.613896218120949
 20
182.93755496922941
 30
0.0
 40
21.512004940432391
100
AcDbArc
 50
6.6613016397701639
 51
86.820169880135765
  0
ARC
  5
CE
100
AcDbEntity
  8
0
 62
176
420
76
370
-1
 48
1.0
  6
ByLayer
100
AcDbCircle
 10
130.70487970103309
 20
162.86044863421259
 30
0.0
 40
31.546114291342729
100
AcDbArc
 50
46.06083131762648
 51
168.21171768952561
  0
LWPOLYLINE
  5
CF
  8
0
 62
176
420
76
370
-1
 48
1.0
  6
ByLayer
100
AcDbEntity
100
AcDbPolyline
 90
324
 70
0
 10
81.134564643804865
 20
196.13016710643339
 30
0.0
 10
81.134564643804865
 20
196.5699208443402
 30
0.0
 10
81.134564643804865
 20
196.78979771329361
 30
0.0
 10
81.134564643804865
 20
197.22955145120039
 30
0.0
 10
81.134564643804865
 20
197.4494283201538
 30
0.0
 10
81.134564643804865
 20
197.66930518910721
 30
0.0
 10
81.354441512758257
 20
198.10905892701399
 30
0.0
 10
81.794195250665055
 20
198.98856640282759
 30
0.0
 10
82.014072119618461
 20
199.64819700968781
 30
0.0
 10
82.45382585752526
 20
200.307827616548
 30
0.0
 10
82.893579595432058
 20
200.74758135445481
 30
0.0
 10
83.333333333338871
 20
201.62708883026841
 30
0.0
 10
83.553210202292263
 20
202.06684256817519
 30
0.0
 10
83.992963940199061
 20
202.28671943712871
 30
0.0
 10
84.212840809152468
 20
202.94635004398879
 30
0.0
 10
84.432717678105874
 20
203.16622691294219
 30
0.0
 10
84.432717678105874
 20
203.38610378189571
 30
0.0
 10
84.652594547059266
 20
203.60598065084909
 30
0.0
 10
84.872471416012672
 20
203.82585751980241
 30
0.0
 10
85.092348284966064
 20
203.82585751980241
 30
0.0
 10
85.092348284966064
 20
204.04573438875579
 30
0.0
 10
85.532102022872877
 20
204.26561125770931
 30
0.0
 10
85.532102022872877
 20
204.48548812666269
 30
0.0
 10
85.751978891826269
 20
204.48548812666269
 30
0.0
 10
85.971855760779675
 20
204.70536499561609
 30
0.0
 10
86.191732629733082
 20
204.92524186456939
 30
0.0
 10
86.411609498686474
 20
205.14511873352279
 30
0.0
 10
86.63148636763988
 20
205.14511873352279
 30
0.0
 10
87.071240105546678
 20
205.36499560247631
 30
0.0
 10
87.291116974500085
 20
205.58487247142969
 30
0.0
 10
87.510993843453477
 20
205.58487247142969
 30
0.0
 10
87.730870712406883
 20
205.58487247142969
 30
0.0
 10
87.950747581360275
 20
205.58487247142969
 30
0.0
 10
88.170624450313682
 20
205.58487247142969
 30
0.0
 10
88.390501319267088
 20
205.58487247142969
 30
0.0
 10
88.830255057173886
 20
205.58487247142969
 30
0.0
 10
89.050131926127278
 20
205.58487247142969
 30
0.0
 10
89.270008795080685
 20
205.58487247142969
 30
0.0
 10
89.489885664034091
 20
205.58487247142969
 30
0.0
 10
89.709762532987483
 20
205.58487247142969
 30
0.0
 10
90.149516270894281
 20
205.58487247142969
 30
0.0
 10
90.589270008801094
 20
205.58487247142969
 30
0.0
 10
90.809146877754486
 20
205.36499560247631
 30
0.0
 10
91.029023746707892
 20
205.36499560247631
 30
0.0
 10
91.029023746707892
 20
205.14511873352279
 30
0.0
 10
91.248900615661285
 20
205.14511873352279
 30
0.0
 10
91.248900615661285
 20
204.92524186456939
 30
0.0
 10
91.468777484614691
 20
204.92524186456939
 30
0.0
 10
91.688654353568097
 20
204.92524186456939
 30
0.0
 10
91.908531222521489
 20
204.48548812666269
 30
0.0
 10
92.348284960428288
 20
204.26561125770931
 30
0.0
 10
92.568161829381694
 20
204.04573438875579
 30
0.0
 10
92.7880386983351
 20
204.04573438875579
 30
0.0
 10
93.007915567288492
 20
204.04573438875579
 30
0.0
 10
93.447669305195305
 20
203.82585751980241
 30
0.0
 10
93.887423043102103
 20
203.38610378189571
 30
0.0
 10
94.327176781008902
 20
202.94635004398879
 30
0.0
 10
94.7669305189157
 20
202.72647317503541
 30
0.0
 10
95.426561125775905
 20
202.28671943712871
 30
0.0
 10
95.646437994729311
 20
202.06684256817519
 30
0.0
 10
96.086191732636109
 20
201.84696569922181
 30
0.0
 10
96.306068601589502
 20
201.84696569922181
 30
0.0
 10
96.965699208449706
 20
201.40721196131511
 30
0.0
 10
97.185576077403113
 20
201.40721196131511
 30
0.0
 10
97.625329815309911
 20
201.18733509236159
 30
0.0
 10
97.845206684263317
 20
200.96745822340819
 30
0.0
 10
98.724714160076914
 20
200.74758135445481
 30
0.0
 10
99.164467897983712
 20
200.5277044855014
 30
0.0
 10
99.604221635890511
 20
200.307827616548
 30
0.0
 10
100.2638522427507
 20
200.08795074759459
 30
0.0
 10
100.7036059806575
 20
200.08795074759459
 30
0.0
 10
101.1433597185643
 20
199.86807387864121
 30
0.0
 10
101.3632365875177
 20
199.86807387864121
 30
0.0
 10
101.5831134564711
 20
199.64819700968781
 30
0.0
 10
102.02286719437789
 20
199.64819700968781
 30
0.0
 10
102.6824978012381
 20
199.64819700968781
 30
0.0
 10
103.1222515391449
 20
199.64819700968781
 30
0.0
 10
103.3421284080983
 20
199.64819700968781
 30
0.0
 10
104.2216358839119
 20
199.64819700968781
 30
0.0
 10
104.44151275286529
 20
199.64819700968781
 30
0.0
 10
104.88126649077211
 20
199.64819700968781
 30
0.0
 10
105.3210202286789
 20
199.64819700968781
 30
0.0
 10
105.98065083553909
 20
199.4283201407344
 30
0.0
 10
106.42040457344589
 20
199.4283201407344
 30
0.0
 10
106.86015831135271
 20
199.4283201407344
 30
0.0
 10
107.0800351803061
 20
199.4283201407344
 30
0.0
 10
107.5197889182129
 20
199.4283201407344
 30
0.0
 10
108.39929639402651
 20
199.64819700968781
 30
0.0
 10
108.83905013193331
 20
199.64819700968781
 30
0.0
 10
109.0589270008868
 20
199.86807387864121
 30
0.0
 10
109.7185576077469
 20
200.08795074759459
 30
0.0
 10
109.93843447670039
 20
200.307827616548
 30
0.0
 10
110.37818821460711
 20
200.5277044855014
 30
0.0
 10
110.5980650835606
 20
200.74758135445481
 30
0.0
 10
110.81794195251391
 20
201.18733509236159
 30
0.0
 10
111.2576956904208
 20
201.40721196131511
 30
0.0
 10
112.1372031662344
 20
202.28671943712871
 30
0.0
 10
112.35708003518781
 20
202.94635004398879
 30
0.0
 10
113.016710642048
 20
203.38610378189571
 30
0.0
 10
113.2365875110014
 20
203.82585751980241
 30
0.0
 10
113.89621811786159
 20
204.92524186456939
 30
0.0
 10
114.33597185576841
 20
205.36499560247631
 30
0.0
 10
114.5558487247218
 20
205.8047493403831
 30
0.0
 10
114.9956024626286
 20
206.46437994724329
 30
0.0
 10
115.215479331582
 20
206.9041336851501
 30
0.0
 10
115.6552330694888
 20
207.34388742305691
 30
0.0
 10
115.6552330694888
 20
207.56376429201029
 30
0.0
 10
116.0949868073956
 20
208.22339489887051
 30
0.0
 10
116.31486367634901
 20
208.66314863677729
 30
0.0
 10
116.7546174142558
 20
209.10290237468411
 30
0.0
 10
117.41424802111599
 20
209.7625329815443
 30
0.0
 10
117.6341248900694
 20
209.9824098504977
 30
0.0
 10
118.0738786279762
 20
210.64204045735789
 30
0.0
 10
118.29375549692961
 20
210.8619173263113
 30
0.0
 10
119.39313984169659
 20
211.7414248021249
 30
0.0
 10
119.83289357960339
 20
211.9613016710783
 30
0.0
 10
120.27264731751021
 20
212.18117854003171
 30
0.0
 10
121.1521547933238
 20
212.62093227793849
 30
0.0
 10
121.5919085312306
 20
212.8408091468919
 30
0.0
 10
122.0316622691374
 20
213.06068601584531
 30
0.0
 10
122.4714160070442
 20
213.06068601584531
 30
0.0
 10
122.6912928759976
 20
213.06068601584531
 30
0.0
 10
123.1310466139044
 20
213.06068601584531
 30
0.0
 10
123.5708003518112
 20
213.06068601584531
 30
0.0
 10
125.32981530343839
 20
212.62093227793849
 30
0.0
 10
126.4291996482054
 20
212.18117854003171
 30
0.0
 10
127.30870712401899
 20
212.18117854003171
 30
0.0
 10
129.72735268250639
 20
211.30167106421811
 30
0.0
 10
130.60686015831999
 20
210.8619173263113
 30
0.0
 10
131.26649076518021
 20
210.64204045735789
 30
0.0
 10
131.9261213720404
 20
210.42216358840449
 30
0.0
 10
133.0255057168074
 20
209.7625329815443
 30
0.0
 10
133.68513632366759
 20
209.54265611259089
 30
0.0
 10
135.004397537388
 20
209.10290237468411
 30
0.0
 10
135.44415127529479
 20
208.8830255057307
 30
0.0
 10
136.103781882155
 20
208.44327176782389
 30
0.0
 10
136.54353562006179
 20
208.0035180299171
 30
0.0
 10
136.7634124890152
 20
207.7836411609637
 30
0.0
 10
136.9832893579686
 20
207.56376429201029
 30
0.0
 10
137.64291996482879
 20
207.34388742305691
 30
0.0
 10
137.8627968337822
 20
207.12401055410339
 30
0.0
 10
138.30255057168901
 20
206.68425681619669
 30
0.0
 10
138.74230430959591
 20
206.24450307828991
 30
0.0
 10
139.18205804750261
 20
206.02462620933639
 30
0.0
 10
139.40193491645601
 20
205.58487247142969
 30
0.0
 10
140.28144239226961
 20
204.92524186456939
 30
0.0
 10
140.50131926122299
 20
204.70536499561609
 30
0.0
 10
141.16094986808329
 20
204.26561125770931
 30
0.0
 10
141.82058047494351
 20
203.60598065084909
 30
0.0
 10
142.04045734389689
 20
203.38610378189571
 30
0.0
 10
142.70008795075711
 20
202.94635004398879
 30
0.0
 10
143.13984168866389
 20
202.72647317503541
 30
0.0
 10
143.3597185576173
 20
202.50659630608209
 30
0.0
 10
143.79947229552411
 20
202.28671943712871
 30
0.0
 10
144.4591029023843
 20
202.06684256817519
 30
0.0
 10
145.3386103781979
 20
201.62708883026841
 30
0.0
 10
145.99824098505809
 20
201.40721196131511
 30
0.0
 10
147.3175021987785
 20
200.96745822340819
 30
0.0
 10
147.75725593668531
 20
200.96745822340819
 30
0.0
 10
148.1970096745921
 20
200.74758135445481
 30
0.0
 10
148.85664028145229
 20
200.5277044855014
 30
0.0
 10
149.2963940193591
 20
200.5277044855014
 30
0.0
 10
149.5162708883125
 20
200.5277044855014
 30
0.0
 10
149.95602462621929
 20
200.5277044855014
 30
0.0
 10
150.61565523307951
 20
200.74758135445481
 30
0.0
 10
151.05540897098629
 20
200.74758135445481
 30
0.0
 10
151.4951627088931
 20
200.96745822340819
 30
0.0
 10
151.71503957784651
 20
200.96745822340819
 30
0.0
 10
151.93491644679989
 20
200.96745822340819
 30
0.0
 10
151.93491644679989
 20
201.18733509236159
 30
0.0
 10
152.1547933157533
 20
201.40721196131511
 30
0.0
 10
152.3746701847067
 20
201.62708883026841
 30
0.0
 10
152.59454705366011
 20
201.62708883026841
 30
0.0
 10
153.03430079156689
 20
202.06684256817519
 30
0.0
 10
153.03430079156689
 20
202.50659630608209
 30
0.0
 10
153.2541776605203
 20
202.72647317503541
 30
0.0
 10
153.69393139842711
 20
203.16622691294219
 30
0.0
 10
153.91380826738049
 20
203.38610378189571
 30
0.0
 10
154.1336851363339
 20
203.82585751980241
 30
0.0
 10
154.1336851363339
 20
204.26561125770931
 30
0.0
 10
154.3535620052873
 20
204.48548812666269
 30
0.0
 10
154.57343887424071
 20
204.92524186456939
 30
0.0
 10
154.79331574319411
 20
205.58487247142969
 30
0.0
 10
155.01319261214749
 20
205.8047493403831
 30
0.0
 10
155.2330694811009
 20
206.46437994724329
 30
0.0
 10
155.2330694811009
 20
206.9041336851501
 30
0.0
 10
155.4529463500543
 20
207.12401055410339
 30
0.0
 10
155.4529463500543
 20
207.56376429201029
 30
0.0
 10
155.4529463500543
 20
207.7836411609637
 30
0.0
 10
155.4529463500543
 20
208.0035180299171
 30
0.0
 10
155.4529463500543
 20
208.44327176782389
 30
0.0
 10
155.4529463500543
 20
208.66314863677729
 30
0.0
 10
155.4529463500543
 20
209.32277924363751
 30
0.0
 10
155.2330694811009
 20
209.54265611259089
 30
0.0
 10
155.01319261214749
 20
210.20228671945111
 30
0.0
 10
154.79331574319411
 20
210.42216358840449
 30
0.0
 10
154.79331574319411
 20
210.8619173263113
 30
0.0
 10
154.57343887424071
 20
211.30167106421811
 30
0.0
 10
154.3535620052873
 20
211.52154793317149
 30
0.0
 10
154.3535620052873
 20
211.7414248021249
 30
0.0
 10
153.91380826738049
 20
211.9613016710783
 30
0.0
 10
153.91380826738049
 20
212.40105540898509
 30
0.0
 10
153.4740545294737
 20
212.40105540898509
 30
0.0
 10
153.03430079156689
 20
213.06068601584531
 30
0.0
 10
152.81442392261351
 20
213.28056288479871
 30
0.0
 10
152.3746701847067
 20
213.50043975375209
 30
0.0
 10
152.1547933157533
 20
213.7203166227055
 30
0.0
 10
151.93491644679989
 20
213.9401934916589
 30
0.0
 10
151.93491644679989
 20
214.16007036061231
 30
0.0
 10
151.71503957784651
 20
214.16007036061231
 30
0.0
 10
151.4951627088931
 20
214.37994722956569
 30
0.0
 10
151.2752858399397
 20
214.59982409851909
 30
0.0
 10
151.05540897098629
 20
214.59982409851909
 30
0.0
 10
150.61565523307951
 20
214.8197009674725
 30
0.0
 10
150.61565523307951
 20
215.03957783642591
 30
0.0
 10
150.1759014951727
 20
215.47933157433269
 30
0.0
 10
149.95602462621929
 20
215.6992084432861
 30
0.0
 10
149.07651715040569
 20
215.9190853122395
 30
0.0
 10
148.63676341249891
 20
216.35883905014629
 30
0.0
 10
147.75725593668531
 20
216.57871591909969
 30
0.0
 10
147.3175021987785
 20
217.01846965700651
 30
0.0
 10
146.4379947229649
 20
217.23834652595991
 30
0.0
 10
145.99824098505809
 20
217.45822339491329
 30
0.0
 10
145.11873350924449
 20
217.6781002638667
 30
0.0
 10
144.67897977133771
 20
217.8979771328201
 30
0.0
 10
143.57959542657059
 20
218.11785400177351
 30
0.0
 10
142.91996481971049
 20
218.33773087072689
 30
0.0
 10
142.2603342128503
 20
218.33773087072689
 30
0.0
 10
141.60070360598999
 20
218.55760773968029
 30
0.0
 10
140.50131926122299
 20
218.7774846086337
 30
0.0
 10
139.84168865436291
 20
218.7774846086337
 30
0.0
 10
139.18205804750261
 20
218.7774846086337
 30
0.0
 10
138.74230430959591
 20
218.7774846086337
 30
0.0
 10
138.30255057168901
 20
218.7774846086337
 30
0.0
 10
137.20316622692201
 20
218.99736147758711
 30
0.0
 10
136.7634124890152
 20
218.99736147758711
 30
0.0
 10
135.8839050132016
 20
218.99736147758711
 30
0.0
 10
135.44415127529479
 20
218.99736147758711
 30
0.0
 10
134.56464379948119
 20
218.99736147758711
 30
0.0
 10
133.46525945471419
 20
219.21723834654051
 30
0.0
 10
132.805628847854
 20
219.21723834654051
 30
0.0
 10
131.48636763413359
 20
219.21723834654051
 30
0.0
 10
131.0466138962268
 20
219.43711521549389
 30
0.0
 10
129.9472295514598
 20
219.43711521549389
 30
0.0
 10
128.62796833773939
 20
219.6569920844473
 30
0.0
 10
127.5285839929724
 20
219.6569920844473
 30
0.0
 10
125.9894459102986
 20
219.6569920844473
 30
0.0
 10
124.23043095867141
 20
219.6569920844473
 30
0.0
 10
123.35092348285779
 20
219.6569920844473
 30
0.0
 10
121.5919085312306
 20
219.6569920844473
 30
0.0
 10
120.712401055417
 20
219.6569920844473
 30
0.0
 10
119.39313984169659
 20
219.6569920844473
 30
0.0
 10
118.513632365883
 20
219.6569920844473
 30
0.0
 10
117.85400175902279
 20
219.43711521549389
 30
0.0
 10
117.1943711521626
 20
219.21723834654051
 30
0.0
 10
116.7546174142558
 20
219.21723834654051
 30
0.0
 10
116.31486367634901
 20
218.99736147758711
 30
0.0
 10
115.6552330694888
 20
218.7774846086337
 30
0.0
 10
115.4353562005354
 20
218.55760773968029
 30
0.0
 10
114.5558487247218
 20
218.11785400177351
 30
0.0
 10
114.116094986815
 20
217.8979771328201
 30
0.0
 10
113.2365875110014
 20
217.45822339491329
 30
0.0
 10
112.5769569041412
 20
216.7985927880531
 30
0.0
 10
112.35708003518781
 20
216.57871591909969
 30
0.0
 10
111.91732629728099
 20
216.35883905014629
 30
0.0
 10
111.91732629728099
 20
216.13896218119291
 30
0.0
 10
111.6974494283276
 20
215.9190853122395
 30
0.0
 10
111.4775725593742
 20
215.47933157433269
 30
0.0
 10
111.2576956904208
 20
215.25945470537931
 30
0.0
 10
111.0378188214674
 20
214.8197009674725
 30
0.0
 10
110.81794195251391
 20
214.59982409851909
 30
0.0
 10
110.37818821460711
 20
213.9401934916589
 30
0.0
 10
109.93843447670039
 20
213.28056288479871
 30
0.0
 10
109.93843447670039
 20
213.06068601584531
 30
0.0
 10
109.2788038698401
 20
212.40105540898509
 30
0.0
 10
108.83905013193331
 20
212.40105540898509
 30
0.0
 10
108.6191732629799
 20
212.18117854003171
 30
0.0
 10
108.1794195250731
 20
211.9613016710783
 30
0.0
 10
107.7396657871663
 20
211.7414248021249
 30
0.0
 10
107.0800351803061
 20
211.52154793317149
 30
0.0
 10
106.6402814423993
 20
211.52154793317149
 30
0.0
 10
105.98065083553909
 20
211.30167106421811
 30
0.0
 10
105.7607739665857
 20
211.30167106421811
 30
0.0
 10
104.88126649077211
 20
211.30167106421811
 30
0.0
 10
104.44151275286529
 20
211.30167106421811
 30
0.0
 10
103.5620052770517
 20
211.08179419526471
 30
0.0
 10
102.46262093228469
 20
211.08179419526471
 30
0.0
 10
102.02286719437789
 20
211.08179419526471
 30
0.0
 10
101.1433597185643
 20
211.08179419526471
 30
0.0
 10
100.04397537379729
 20
211.30167106421811
 30
0.0
 10
99.604221635890511
 20
211.30167106421811
 30
0.0
 10
98.724714160076914
 20
211.30167106421811
 30
0.0
 10
98.284960422170116
 20
211.30167106421811
 30
0.0
 10
97.185576077403113
 20
211.30167106421811
 30
0.0
 10
96.086191732636109
 20
211.52154793317149
 30
0.0
 10
95.426561125775905
 20
211.7414248021249
 30
0.0
 10
94.547053649962308
 20
211.9613016710783
 30
0.0
 10
93.447669305195305
 20
212.40105540898509
 30
0.0
 10
93.007915567288492
 20
212.62093227793849
 30
0.0
 10
92.128408091474896
 20
212.62093227793849
 30
0.0
 10
90.809146877754486
 20
212.8408091468919
 30
0.0
 10
90.369393139847688
 20
212.8408091468919
 30
0.0
 10
89.050131926127278
 20
212.8408091468919
 30
0.0
 10
88.170624450313682
 20
212.8408091468919
 30
0.0
 10
87.510993843453477
 20
212.8408091468919
 30
0.0
 10
86.411609498686474
 20
212.8408091468919
 30
0.0
 10
85.971855760779675
 20
212.8408091468919
 30
0.0
 10
85.532102022872877
 20
212.8408091468919
 30
0.0
 10
84.872471416012672
 20
212.40105540898509
 30
0.0
 10
84.432717678105874
 20
212.40105540898509
 30
0.0
 10
84.212840809152468
 20
212.18117854003171
 30
0.0
 10
83.773087071245669
 20
211.9613016710783
 30
0.0
 10
83.333333333338871
 20
211.9613016710783
 30
0.0
 10
83.333333333338871
 20
211.7414248021249
 30
0.0
 10
83.113456464385465
 20
211.52154793317149
 30
0.0
 10
82.673702726478666
 20
211.30167106421811
 30
0.0
 10
82.233948988571868
 20
210.64204045735789
 30
0.0
 10
82.014072119618461
 20
210.42216358840449
 30
0.0
 10
81.574318381711663
 20
209.7625329815443
 30
0.0
 10
81.134564643804865
 20
209.10290237468411
 30
0.0
 10
80.914687774851458
 20
208.8830255057307
 30
0.0
 10
80.47493403694466
 20
208.66314863677729
 30
0.0
 10
80.47493403694466
 20
208.44327176782389
 30
0.0
 10
80.255057167991254
 20
208.44327176782389
 30
0.0
  0
INSERT
  5
D0
100
AcDbEntity
100
AcDbBlockReference
  8
0
 62
176
420
76
370
-1
 48
1.0
  6
ByLayer
  2
TUX
 10
258.74692230400319
 20
100.75272535155879
 30
0.0
  0
ENDSEC
  0
SECTION
  2
OBJECTS
  0
DICTIONARY
  5
C
100
AcDbDictionary
280
0
281
1
  3
ACAD_GROUP
350
D
  3
ACAD_LAYOUT
350
1A
  3
ACAD_MLINESTYLE
350
17
  3
ACAD_PLOTSETTINGS
350
19
  3
ACAD_PLOTSTYLENAME
350
E
  3
AcDbVariableDictionary
350
D1
  3
QCAD_OBJECTS
350
D2
  0
DICTIONARY
  5
D
100
AcDbDictionary
280
0
281
1
  0
ACDBDICTIONARYWDFLT
  5
E
100
AcDbDictionary
281
1
  3
Normal
350
F
100
AcDbDictionaryWithDefault
340
F
  0
ACDBPLACEHOLDER
  5
F
  0
DICTIONARY
  5
17
100
AcDbDictionary
280
0
281
1
  3
Standard
350
18
  0
MLINESTYLE
  5
18
100
AcDbMlineStyle
  2
STANDARD
 70
0
  3

 62
256
 51
90.0
 52
90.0
 71
2
 49
0.5
 62
256
  6
BYLAYER
 49
-0.5
 62
256
  6
BYLAYER
  0
DICTIONARY
  5
19
100
AcDbDictionary
280
0
281
1
  0
DICTIONARY
  5
1A
100
AcDbDictionary
281
1
  3
Layout1
350
1E
  3
Layout2
350
26
  3
Model
350
22
  0
LAYOUT
  5
1E
100
AcDbPlotSettings
  1

  2
none_device
  4

  6

 40
0.0
 41
0.0
 42
0.0
 43
0.0
 44
0.0
 45
0.0
 46
0.0
 47
0.0
 48
0.0
 49
0.0
140
0.0
141
0.0
142
1.0
143
1.0
 70
688
 72
0
 73
0
 74
5
  7

 75
16
147
1.0
148
0.0
149
0.0
100
AcDbLayout
  1
Layout1
 70
1
 71
1
 10
0.0
 20
0.0
 11
420.0
 21
297.0
 12
0.0
 22
0.0
 32
0.0
 14
100000000000000000000.0
 24
100000000000000000000.0
 34
100000000000000000000.0
 15
-100000000000000000000.0
 25
-100000000000000000000.0
 35
-100000000000000000000.0
146
0.0
 13
0.0
 23
0.0
 33
0.0
 16
1.0
 26
0.0
 36
0.0
 17
0.0
 27
1.0
 37
0.0
 76
0
330
1B
  0
LAYOUT
  5
22
100
AcDbPlotSettings
  1

  2
none_device
  4

  6

 40
0.0
 41
0.0
 42
0.0
 43
0.0
 44
0.0
 45
0.0
 46
0.0
 47
0.0
 48
0.0
 49
0.0
140
0.0
141
0.0
142
1.0
143
1.0
 70
1712
 72
0
 73
0
 74
0
  7

 75
0
147
1.0
148
0.0
149
0.0
100
AcDbLayout
  1
Model
 70
1
 71
0
 10
0.0
 20
0.0
 11
12.0
 21
9.0
 12
0.0
 22
0.0
 32
0.0
 14
0.0
 24
0.0
 34
0.0
 15
0.0
 25
0.0
 35
0.0
146
0.0
 13
0.0
 23
0.0
 33
0.0
 16
1.0
 26
0.0
 36
0.0
 17
0.0
 27
1.0
 37
0.0
 76
0
330
1F
  0
LAYOUT
  5
26
100
AcDbPlotSettings
  1

  2
none_device
  4

  6

 40
0.0
 41
0.0
 42
0.0
 43
0.0
 44
0.0
 45
0.0
 46
0.0
 47
0.0
 48
0.0
 49
0.0
140
0.0
141
0.0
142
1.0
143
1.0
 70
688
 72
0
 73
0
 74
5
  7

 75
16
147
1.0
148
0.0
149
0.0
100
AcDbLayout
  1
Layout2
 70
1
 71
2
 10
0.0
 20
0.0
 11
12.0
 21
9.0
 12
0.0
 22
0.0
 32
0.0
 14
0.0
 24
0.0
 34
0.0
 15
0.0
 25
0.0
 35
0.0
146
0.0
 13
0.0
 23
0.0
 33
0.0
 16
1.0
 26
0.0
 36
0.0
 17
0.0
 27
1.0
 37
0.0
 76
0
330
23
  0
DICTIONARY
  5
D1
100
AcDbDictionary
281
1
  3
DIMASSOC
350
D4
  3
HIDETEXT
350
D3
  0
DICTIONARYVAR
  5
D3
100
DictionaryVariables
280
0
  1
2
  0
DICTIONARYVAR
  5
D4
100
DictionaryVariables
280
0
  1
1
  0
DICTIONARY
  5
D2
100
AcDbDictionary
281
1
  3
ColorSettings/BackgroundColor
350
D5
  3
ColorSettings/ColorMode
350
D6
  3
Grid/DisplayGrid00
350
D7
  3
Grid/DisplayGrid01
350
D8
  3
Grid/DisplayGrid02
350
D9
  3
Grid/DisplayGrid03
350
DA
  3
Grid/GridSpacingX00
350
DB
  3
Grid/GridSpacingX01
350
DC
  3
Grid/GridSpacingX02
350
DD
  3
Grid/GridSpacingX03
350
DE
  3
Grid/GridSpacingY00
350
DF
  3
Grid/GridSpacingY01
350
E0
  3
Grid/GridSpacingY02
350
E1
  3
Grid/GridSpacingY03
350
E2
  3
Grid/IsometricGrid00
350
E3
  3
Grid/IsometricGrid01
350
E4
  3
Grid/IsometricGrid02
350
E5
  3
Grid/IsometricGrid03
350
E6
  3
Grid/IsometricProjection00
350
E7
  3
Grid/IsometricProjection01
350
E8
  3
Grid/IsometricProjection02
350
E9
  3
Grid/IsometricProjection03
350
EA
  3
Grid/MetaGridSpacingX00
350
EB
  3
Grid/MetaGridSpacingX01
350
EC
  3
Grid/MetaGridSpacingX02
350
ED
  3
Grid/MetaGridSpacingX03
350
EE
  3
Grid/MetaGridSpacingY00
350
EF
  3
Grid/MetaGridSpacingY01
350
F0
  3
Grid/MetaGridSpacingY02
350
F1
  3
Grid/MetaGridSpacingY03
350
F2
  3
MultiPageSettings/Columns
350
F3
  3
MultiPageSettings/GlueMarginsBottom
350
F4
  3
MultiPageSettings/GlueMarginsLeft
350
F5
  3
MultiPageSettings/GlueMarginsRight
350
F6
  3
MultiPageSettings/GlueMarginsTop
350
F7
  3
MultiPageSettings/PrintCropMarks
350
F8
  3
MultiPageSettings/Rows
350
F9
  3
PageSettings/OffsetX
350
FA
  3
PageSettings/OffsetY
350
FB
  3
PageSettings/PageOrientation
350
FC
  3
PageSettings/PaperHeight
350
FD
  3
PageSettings/PaperWidth
350
FE
  3
PageSettings/Scale
350
FF
  3
PageSettings/ShowPaperBorders
350
100
  3
UnitSettings/PaperUnit
350
101
  3
ViewportCenter
350
102
  3
ViewportHeight
350
103
  3
ViewportWidth
350
104
  0
XRECORD
  5
D5
330
D2
100
AcDbXrecord
280
1
1000
Blanc
  0
XRECORD
  5
D6
330
D2
100
AcDbXrecord
280
1
1000
FullColor
  0
XRECORD
  5
D7
330
D2
100
AcDbXrecord
280
1
290
1
  0
XRECORD
  5
D8
330
D2
100
AcDbXrecord
280
1
290
1
  0
XRECORD
  5
D9
330
D2
100
AcDbXrecord
280
1
290
1
  0
XRECORD
  5
DA
330
D2
100
AcDbXrecord
280
1
290
1
  0
XRECORD
  5
DB
330
D2
100
AcDbXrecord
280
1
1000
auto
  0
XRECORD
  5
DC
330
D2
100
AcDbXrecord
280
1
1000
auto
  0
XRECORD
  5
DD
330
D2
100
AcDbXrecord
280
1
1000
auto
  0
XRECORD
  5
DE
330
D2
100
AcDbXrecord
280
1
1000
auto
  0
XRECORD
  5
DF
330
D2
100
AcDbXrecord
280
1
1000
auto
  0
XRECORD
  5
E0
330
D2
100
AcDbXrecord
280
1
1000
auto
  0
XRECORD
  5
E1
330
D2
100
AcDbXrecord
280
1
1000
auto
  0
XRECORD
  5
E2
330
D2
100
AcDbXrecord
280
1
1000
auto
  0
XRECORD
  5
E3
330
D2
100
AcDbXrecord
280
1
290
0
  0
XRECORD
  5
E4
330
D2
100
AcDbXrecord
280
1
290
0
  0
XRECORD
  5
E5
330
D2
100
AcDbXrecord
280
1
290
0
  0
XRECORD
  5
E6
330
D2
100
AcDbXrecord
280
1
290
0
  0
XRECORD
  5
E7
330
D2
100
AcDbXrecord
280
1
 90
0
  0
XRECORD
  5
E8
330
D2
100
AcDbXrecord
280
1
 90
0
  0
XRECORD
  5
E9
330
D2
100
AcDbXrecord
280
1
 90
0
  0
XRECORD
  5
EA
330
D2
100
AcDbXrecord
280
1
 90
0
  0
XRECORD
  5
EB
330
D2
100
AcDbXrecord
280
1
1000
auto
  0
XRECORD
  5
EC
330
D2
100
AcDbXrecord
280
1
1000
auto
  0
XRECORD
  5
ED
330
D2
100
AcDbXrecord
280
1
1000
auto
  0
XRECORD
  5
EE
330
D2
100
AcDbXrecord
280
1
1000
auto
  0
XRECORD
  5
EF
330
D2
100
AcDbXrecord
280
1
1000
auto
  0
XRECORD
  5
F0
330
D2
100
AcDbXrecord
280
1
1000
auto
  0
XRECORD
  5
F1
330
D2
100
AcDbXrecord
280
1
1000
auto
  0
XRECORD
  5
F2
330
D2
100
AcDbXrecord
280
1
1000
auto
  0
XRECORD
  5
F3
330
D2
100
AcDbXrecord
280
1
 90
1
  0
XRECORD
  5
F4
330
D2
100
AcDbXrecord
280
1
 40
10.0
  0
XRECORD
  5
F5
330
D2
100
AcDbXrecord
280
1
 40
10.0
  0
XRECORD
  5
F6
330
D2
100
AcDbXrecord
280
1
 40
10.0
  0
XRECORD
  5
F7
330
D2
100
AcDbXrecord
280
1
 40
10.0
  0
XRECORD
  5
F8
330
D2
100
AcDbXrecord
280
1
290
0
  0
XRECORD
  5
F9
330
D2
100
AcDbXrecord
280
1
 90
1
  0
XRECORD
  5
FA
330
D2
100
AcDbXrecord
280
1
 40
0.0
  0
XRECORD
  5
FB
330
D2
100
AcDbXrecord
280
1
 40
0.0
  0
XRECORD
  5
FC
330
D2
100
AcDbXrecord
280
1
1000
Portrait
  0
XRECORD
  5
FD
330
D2
100
AcDbXrecord
280
1
 40
297.0
  0
XRECORD
  5
FE
330
D2
100
AcDbXrecord
280
1
 40
210.0
  0
XRECORD
  5
FF
330
D2
100
AcDbXrecord
280
1
1000
1:1
  0
XRECORD
  5
100
330
D2
100
AcDbXrecord
280
1
290
1
  0
XRECORD
  5
101
330
D2
100
AcDbXrecord
280
1
 90
4
  0
XRECORD
  5
103
330
D2
100
AcDbXrecord
280
1
 40
243.86666095637977
  0
XRECORD
  5
104
330
D2
100
AcDbXrecord
280
1
 40
298.79509417498934
  0
ENDSEC
  0
EOF
