  0
SECTION
  2
HEADER
  9
$ACADVER
  1
AC1015
  9
$ACADMAINTVER
 70
     6
  9
$DWGCODEPAGE
  3
ANSI_1252
  9
$INSBASE
 10
0.0
 20
0.0
 30
0.0
  9
$EXTMIN
 10
1.000000E+20
 20
1.000000E+20
 30
1.000000E+20
  9
$EXTMAX
 10
-1.000000E+20
 20
-1.000000E+20
 30
-1.000000E+20
  9
$LIMMIN
 10
0.0
 20
0.0
  9
$LIMMAX
 10
420.0
 20
297.0
  9
$ORTHOMODE
 70
     0
  9
$REGENMODE
 70
     1
  9
$FILLMODE
 70
     1
  9
$QTEXTMODE
 70
     0
  9
$MIRRTEXT
 70
     1
  9
$LTSCALE
 40
1.0
  9
$ATTMODE
 70
     1
  9
$TEXTSIZE
 40
2.5
  9
$TRACEWID
 40
1.0
  9
$TEXTSTYLE
  7
Standard
  9
$CLAYER
  8
0
  9
$CELTYPE
  6
ByLayer
  9
$CECOLOR
 62
   256
  9
$CELTSCALE
 40
1.0
  9
$DISPSILH
 70
     0
  9
$DIMSCALE
 40
1.0
  9
$DIMASZ
 40
2.5
  9
$DIMEXO
 40
0.625
  9
$DIMDLI
 40
3.75
  9
$DIMRND
 40
0.0
  9
$DIMDLE
 40
0.0
  9
$DIMEXE
 40
1.25
  9
$DIMTP
 40
0.0
  9
$DIMTM
 40
0.0
  9
$DIMTXT
 40
2.5
  9
$DIMCEN
 40
2.5
  9
$DIMTSZ
 40
0.0
  9
$DIMTOL
 70
     0
  9
$DIMLIM
 70
     0
  9
$DIMTIH
 70
     0
  9
$DIMTOH
 70
     0
  9
$DIMSE1
 70
     0
  9
$DIMSE2
 70
     0
  9
$DIMTAD
 70
     1
  9
$DIMZIN
 70
     8
  9
$DIMBLK
  1

  9
$DIMASO
 70
     1
  9
$DIMSHO
 70
     1
  9
$DIMPOST
  1

  9
$DIMAPOST
  1

  9
$DIMALT
 70
     0
  9
$DIMALTD
 70
     3
  9
$DIMALTF
 40
0.03937
  9
$DIMLFAC
 40
1.0
  9
$DIMTOFL
 70
     1
  9
$DIMTVP
 40
0.0
  9
$DIMTIX
 70
     0
  9
$DIMSOXD
 70
     0
  9
$DIMSAH
 70
     0
  9
$DIMBLK1
  1

  9
$DIMBLK2
  1

  9
$DIMSTYLE
  2
ISO-25
  9
$DIMCLRD
 70
     0
  9
$DIMCLRE
 70
     0
  9
$DIMCLRT
 70
     0
  9
$DIMTFAC
 40
1.0
  9
$DIMGAP
 40
0.625
  9
$DIMJUST
 70
     0
  9
$DIMSD1
 70
     0
  9
$DIMSD2
 70
     0
  9
$DIMTOLJ
 70
     0
  9
$DIMTZIN
 70
     8
  9
$DIMALTZ
 70
     0
  9
$DIMALTTZ
 70
     0
  9
$DIMUPT
 70
     0
  9
$DIMDEC
 70
     2
  9
$DIMTDEC
 70
     2
  9
$DIMALTU
 70
     2
  9
$DIMALTTD
 70
     3
  9
$DIMTXSTY
  7
Standard
  9
$DIMAUNIT
 70
     0
  9
$DIMADEC
 70
     0
  9
$DIMALTRND
 40
0.0
  9
$DIMAZIN
 70
     0
  9
$DIMDSEP
 70
    44
  9
$DIMATFIT
 70
     3
  9
$DIMFRAC
 70
     0
  9
$DIMLDRBLK
  1

  9
$DIMLUNIT
 70
     2
  9
$DIMLWD
 70
    -2
  9
$DIMLWE
 70
    -2
  9
$DIMTMOVE
 70
     0
  9
$LUNITS
 70
     2
  9
$LUPREC
 70
     4
  9
$SKETCHINC
 40
1.0
  9
$FILLETRAD
 40
10.0
  9
$AUNITS
 70
     0
  9
$AUPREC
 70
     0
  9
$MENU
  1
.
  9
$ELEVATION
 40
0.0
  9
$PELEVATION
 40
0.0
  9
$THICKNESS
 40
0.0
  9
$LIMCHECK
 70
     0
  9
$CHAMFERA
 40
10.0
  9
$CHAMFERB
 40
10.0
  9
$CHAMFERC
 40
20.0
  9
$CHAMFERD
 40
0.0
  9
$SKPOLY
 70
     0
  9
$TDCREATE
 40
2455586.817349641
  9
$TDUCREATE
 40
2455587.025682975
  9
$TDUPDATE
 40
2455586.817349653
  9
$TDUUPDATE
 40
2455587.025682986
  9
$TDINDWG
 40
0.0000000116
  9
$TDUSRTIMER
 40
0.0000000116
  9
$USRTIMER
 70
     1
  9
$ANGBASE
 50
0.0
  9
$ANGDIR
 70
     0
  9
$PDMODE
 70
     3
  9
$PDSIZE
 40
-0.7
  9
$PLINEWID
 40
0.0
  9
$SPLFRAME
 70
     0
  9
$SPLINETYPE
 70
     6
  9
$SPLINESEGS
 70
     8
  9
$HANDSEED
  5
2B
  9
$SURFTAB1
 70
     6
  9
$SURFTAB2
 70
     6
  9
$SURFTYPE
 70
     6
  9
$SURFU
 70
     6
  9
$SURFV
 70
     6
  9
$UCSBASE
  2

  9
$UCSNAME
  2

  9
$UCSORG
 10
0.0
 20
0.0
 30
0.0
  9
$UCSXDIR
 10
1.0
 20
0.0
 30
0.0
  9
$UCSYDIR
 10
0.0
 20
1.0
 30
0.0
  9
$UCSORTHOREF
  2

  9
$UCSORTHOVIEW
 70
     0
  9
$UCSORGTOP
 10
0.0
 20
0.0
 30
0.0
  9
$UCSORGBOTTOM
 10
0.0
 20
0.0
 30
0.0
  9
$UCSORGLEFT
 10
0.0
 20
0.0
 30
0.0
  9
$UCSORGRIGHT
 10
0.0
 20
0.0
 30
0.0
  9
$UCSORGFRONT
 10
0.0
 20
0.0
 30
0.0
  9
$UCSORGBACK
 10
0.0
 20
0.0
 30
0.0
  9
$PUCSBASE
  2

  9
$PUCSNAME
  2

  9
$PUCSORG
 10
0.0
 20
0.0
 30
0.0
  9
$PUCSXDIR
 10
1.0
 20
0.0
 30
0.0
  9
$PUCSYDIR
 10
0.0
 20
1.0
 30
0.0
  9
$PUCSORTHOREF
  2

  9
$PUCSORTHOVIEW
 70
     0
  9
$PUCSORGTOP
 10
0.0
 20
0.0
 30
0.0
  9
$PUCSORGBOTTOM
 10
0.0
 20
0.0
 30
0.0
  9
$PUCSORGLEFT
 10
0.0
 20
0.0
 30
0.0
  9
$PUCSORGRIGHT
 10
0.0
 20
0.0
 30
0.0
  9
$PUCSORGFRONT
 10
0.0
 20
0.0
 30
0.0
  9
$PUCSORGBACK
 10
0.0
 20
0.0
 30
0.0
  9
$USERI1
 70
     0
  9
$USERI2
 70
     0
  9
$USERI3
 70
     0
  9
$USERI4
 70
     0
  9
$USERI5
 70
     0
  9
$USERR1
 40
0.0
  9
$USERR2
 40
0.0
  9
$USERR3
 40
0.0
  9
$USERR4
 40
0.0
  9
$USERR5
 40
0.0
  9
$WORLDVIEW
 70
     1
  9
$SHADEDGE
 70
     3
  9
$SHADEDIF
 70
    70
  9
$TILEMODE
 70
     1
  9
$MAXACTVP
 70
    64
  9
$PINSBASE
 10
0.0
 20
0.0
 30
0.0
  9
$PLIMCHECK
 70
     0
  9
$PEXTMIN
 10
1.000000E+20
 20
1.000000E+20
 30
1.000000E+20
  9
$PEXTMAX
 10
-1.000000E+20
 20
-1.000000E+20
 30
-1.000000E+20
  9
$PLIMMIN
 10
0.0
 20
0.0
  9
$PLIMMAX
 10
420.0
 20
297.0
  9
$UNITMODE
 70
     0
  9
$VISRETAIN
 70
     1
  9
$PLINEGEN
 70
     0
  9
$PSLTSCALE
 70
     1
  9
$TREEDEPTH
 70
  3020
  9
$CMLSTYLE
  2
Standard
  9
$CMLJUST
 70
     1
  9
$CMLSCALE
 40
1.0
  9
$PROXYGRAPHICS
 70
     1
  9
$MEASUREMENT
 70
     1
  9
$CELWEIGHT
370
    -1
  9
$ENDCAPS
280
     0
  9
$JOINSTYLE
280
     0
  9
$LWDISPLAY
290
     0
  9
$INSUNITS
 70
     4
  9
$HYPERLINKBASE
  1

  9
$STYLESHEET
  1

  9
$XEDIT
290
     1
  9
$CEPSNTYPE
380
     0
  9
$PSTYLEMODE
290
     1
  9
$FINGERPRINTGUID
  2
{FAEB1C30-E019-11D5-929B-00C0DF256EC4}
  9
$VERSIONGUID
  2
{FAEB1C32-E019-11D5-929B-00C0DF256EC4}
  9
$EXTNAMES
290
     1
  9
$PSVPSCALE
 40
0.0
  9
$OLESTARTUP
290
     0
  0
ENDSEC
  0
SECTION
  2
CLASSES
  0
CLASS
  1
ACDBDICTIONARYWDFLT
  2
AcDbDictionaryWithDefault
  3
ObjectDBX Classes
 90
        0
280
     0
281
     0
  0
CLASS
  1
ACDBPLACEHOLDER
  2
AcDbPlaceHolder
  3
ObjectDBX Classes
 90
        0
280
     0
281
     0
  0
CLASS
  1
LAYOUT
  2
AcDbLayout
  3
ObjectDBX Classes
 90
        0
280
     0
281
     0
  0
ENDSEC
  0
SECTION
  2
TABLES
  0
TABLE
  2
VPORT
  5
8
330
0
100
AcDbSymbolTable
 70
     2
  0
VPORT
  5
29
330
8
100
AcDbSymbolTableRecord
100
AcDbViewportTableRecord
  2
*Active
 70
     0
 10
0.0
 20
0.0
 11
1.0
 21
1.0
 12
50.0
 22
50.0
 13
0.0
 23
0.0
 14
10.0
 24
10.0
 15
10.0
 25
10.0
 16
0.0
 26
0.0
 36
1.0
 17
0.0
 27
0.0
 37
0.0
 40
103.921569
 41
1.0
 42
50.0
 43
0.0
 44
0.0
 50
0.0
 51
0.0
 71
     0
 72
   100
 73
     1
 74
     3
 75
     0
 76
     0
 77
     0
 78
     0
281
     0
 65
     1
110
0.0
120
0.0
130
0.0
111
1.0
121
0.0
131
0.0
112
0.0
122
1.0
132
0.0
 79
     0
146
0.0
  0
ENDTAB
  0
TABLE
  2
LTYPE
  5
5
330
0
100
AcDbSymbolTable
 70
     1
  0
LTYPE
  5
14
330
5
100
AcDbSymbolTableRecord
100
AcDbLinetypeTableRecord
  2
ByBlock
 70
     0
  3

 72
    65
 73
     0
 40
0.0
  0
LTYPE
  5
15
330
5
100
AcDbSymbolTableRecord
100
AcDbLinetypeTableRecord
  2
ByLayer
 70
     0
  3

 72
    65
 73
     0
 40
0.0
  0
LTYPE
  5
16
330
5
100
AcDbSymbolTableRecord
100
AcDbLinetypeTableRecord
  2
Continuous
 70
     0
  3

 72
    65
 73
     0
 40
0.0
  0
ENDTAB
  0
TABLE
  2
LAYER
  5
2
330
0
100
AcDbSymbolTable
 70
     1
  0
LAYER
  5
10
330
2
100
AcDbSymbolTableRecord
100
AcDbLayerTableRecord
  2
0
 70
     0
 62
     7
  6
Continuous
370
    -3
390
F
  0
ENDTAB
  0
TABLE
  2
STYLE
  5
3
330
0
100
AcDbSymbolTable
 70
     1
  0
STYLE
  5
11
330
3
100
AcDbSymbolTableRecord
100
AcDbTextStyleTableRecord
  2
Standard
 70
     0
 40
1.0
 41
1.0
 50
0.0
 71
     0
 42
2.5
  3
RomanS
  4

  0
ENDTAB
  0
TABLE
  2
VIEW
  5
6
330
0
100
AcDbSymbolTable
 70
     0
  0
ENDTAB
  0
TABLE
  2
UCS
  5
7
330
0
100
AcDbSymbolTable
 70
     0
  0
ENDTAB
  0
TABLE
  2
APPID
  5
9
330
0
100
AcDbSymbolTable
 70
     1
  0
APPID
  5
12
330
9
100
AcDbSymbolTableRecord
100
AcDbRegAppTableRecord
  2
ACAD
 70
     0
  0
ENDTAB
  0
TABLE
  2
DIMSTYLE
  5
A
330
0
100
AcDbSymbolTable
 70
     1
100
AcDbDimStyleTable
  0
DIMSTYLE
105
27
330
A
100
AcDbSymbolTableRecord
100
AcDbDimStyleTableRecord
  2
ISO-25
 70
     0
 41
2.5
 42
0.625
 44
1.25
 73
     0
 74
     0
 77
     1
 78
     8
 79
     2
140
2.5
141
2.5
146
0.0
147
0.625
271
     2
272
     0
273
     0
274
     0
278
    44
283
     0
289
     0
340
11
  0
ENDTAB
  0
TABLE
  2
BLOCK_RECORD
  5
1
330
0
100
AcDbSymbolTable
 70
     1
  0
BLOCK_RECORD
  5
1F
330
1
100
AcDbSymbolTableRecord
100
AcDbBlockTableRecord
  2
*Model_Space
340
22
  0
BLOCK_RECORD
  5
1B
330
1
100
AcDbSymbolTableRecord
100
AcDbBlockTableRecord
  2
*Paper_Space
340
1E
  0
BLOCK_RECORD
  5
23
330
1
100
AcDbSymbolTableRecord
100
AcDbBlockTableRecord
  2
*Paper_Space0
340
26
  0
ENDTAB
  0
ENDSEC
  0
SECTION
  2
BLOCKS
  0
BLOCK
  5
20
330
1F
100
AcDbEntity
  8
0
100
AcDbBlockBegin
  2
*Model_Space
 70
     0
 71
     0
 10
0.0
 20
0.0
 30
0.0
  3
*Model_Space
  1

  0
ENDBLK
  5
21
330
1F
100
AcDbEntity
  8
0
100
AcDbBlockEnd
  0
BLOCK
  5
1C
330
1B
100
AcDbEntity
 67
     1
  8
0
100
AcDbBlockBegin
  2
*Paper_Space
 70
     0
 71
     0
 10
0.0
 20
0.0
 30
0.0
  3
*Paper_Space
  1

  0
ENDBLK
  5
1D
330
1B
100
AcDbEntity
 67
     1
  8
0
100
AcDbBlockEnd
  0
BLOCK
  5
24
330
23
100
AcDbEntity
  8
0
100
AcDbBlockBegin
  2
*Paper_Space0
 70
     0
 71
     0
 10
0.0
 20
0.0
 30
0.0
  3
*Paper_Space0
  1

  0
ENDBLK
  5
25
330
23
100
AcDbEntity
  8
0
100
AcDbBlockEnd
  0
ENDSEC
  0
SECTION
  2
ENTITIES
  0
LWPOLYLINE
  5
2A
330
1F
100
AcDbEntity
  8
0
100
AcDbPolyline
 90
      298
 70
   128
 43
0.0
 10
0.583361
 20
2.127278
 10
0.568312
 20
2.127087
 10
0.553356
 20
2.126518
 10
0.538498
 20
2.125576
 10
0.523743
 20
2.124264
 10
0.509096
 20
2.122588
 10
0.49456
 20
2.120552
 10
0.48014
 20
2.118161
 10
0.465842
 20
2.115419
 10
0.451669
 20
2.112331
 10
0.437626
 20
2.108902
 10
0.423718
 20
2.105135
 10
0.40995
 20
2.101037
 10
0.396325
 20
2.09661
 10
0.382849
 20
2.091861
 10
0.369526
 20
2.086793
 10
0.356361
 20
2.081411
 10
0.343359
 20
2.07572
 10
0.330523
 20
2.069723
 10
0.317859
 20
2.063427
 10
0.305371
 20
2.056835
 10
0.293064
 20
2.049953
 10
0.280942
 20
2.042784
 10
0.26901
 20
2.035333
 10
0.257272
 20
2.027605
 10
0.245734
 20
2.019604
 10
0.234399
 20
2.011335
 10
0.223272
 20
2.002803
 10
0.212359
 20
1.994012
 10
0.201663
 20
1.984967
 10
0.191189
 20
1.975672
 10
0.180941
 20
1.966133
 10
0.170925
 20
1.956352
 10
0.161145
 20
1.946336
 10
0.151605
 20
1.936089
 10
0.142311
 20
1.925615
 10
0.133265
 20
1.914919
 10
0.124475
 20
1.904005
 10
0.115942
 20
1.892879
 10
0.107674
 20
1.881544
 10
0.099673
 20
1.870006
 10
0.091945
 20
1.858268
 10
0.084494
 20
1.846336
 10
0.077325
 20
1.834214
 10
0.070442
 20
1.821907
 10
0.063851
 20
1.809419
 10
0.057554
 20
1.796755
 10
0.051558
 20
1.783919
 10
0.045867
 20
1.770916
 10
0.040485
 20
1.757751
 10
0.035417
 20
1.744429
 10
0.030667
 20
1.730953
 10
0.026241
 20
1.717328
 10
0.022142
 20
1.70356
 10
0.018376
 20
1.689652
 10
0.014947
 20
1.675609
 10
0.011859
 20
1.661436
 10
0.009117
 20
1.647138
 10
0.006726
 20
1.632718
 10
0.00469
 20
1.618182
 10
0.003014
 20
1.603534
 10
0.001702
 20
1.588779
 10
0.00076
 20
1.573922
 10
0.000191
 20
1.558966
 10
0.0
 20
1.543917
 10
0.000481
 20
1.51356
 10
0.001909
 20
1.483889
 10
0.004266
 20
1.454883
 10
0.007531
 20
1.426518
 10
0.011684
 20
1.398774
 10
0.016706
 20
1.371628
 10
0.022575
 20
1.345058
 10
0.029273
 20
1.319043
 10
0.03678
 20
1.293559
 10
0.045075
 20
1.268587
 10
0.054139
 20
1.244102
 10
0.063951
 20
1.220085
 10
0.074492
 20
1.196511
 10
0.085741
 20
1.173361
 10
0.09768
 20
1.150611
 10
0.110287
 20
1.128239
 10
0.123543
 20
1.106225
 10
0.137428
 20
1.084545
 10
0.151922
 20
1.063178
 10
0.167005
 20
1.042102
 10
0.182657
 20
1.021294
 10
0.198859
 20
1.000734
 10
0.21559
 20
0.980399
 10
0.23283
 20
0.960267
 10
0.250559
 20
0.940315
 10
0.268758
 20
0.920523
 10
0.287406
 20
0.900868
 10
0.306484
 20
0.881329
 10
0.325971
 20
0.861883
 10
0.345848
 20
0.842508
 10
0.386691
 20
0.803884
 10
0.428853
 20
0.765282
 10
0.472175
 20
0.726526
 10
0.56166
 20
0.64785
 10
0.607504
 20
0.60758
 10
0.65387
 20
0.566452
 10
0.700597
 20
0.524293
 10
0.747527
 20
0.480926
 10
0.7945
 20
0.436177
 10
0.817953
 20
0.413228
 10
0.841357
 20
0.389868
 10
0.864691
 20
0.366074
 10
0.887937
 20
0.341825
 10
0.911073
 20
0.317098
 10
0.934081
 20
0.291871
 10
0.95694
 20
0.266123
 10
0.97963
 20
0.239832
 10
1.002132
 20
0.212976
 10
1.024425
 20
0.185532
 10
1.046489
 20
0.157479
 10
1.068305
 20
0.128794
 10
1.089852
 20
0.099457
 10
1.111111
 20
0.069444
 10
1.131253
 20
0.099292
 10
1.151754
 20
0.128504
 10
1.172593
 20
0.157103
 10
1.193746
 20
0.185107
 10
1.215194
 20
0.212538
 10
1.236913
 20
0.239414
 10
1.258884
 20
0.265758
 10
1.281083
 20
0.291589
 10
1.30349
 20
0.316926
 10
1.326082
 20
0.341792
 10
1.348838
 20
0.366204
 10
1.371737
 20
0.390185
 10
1.394757
 20
0.413754
 10
1.417875
 20
0.436931
 10
1.464324
 20
0.482192
 10
1.510909
 20
0.526129
 10
1.557459
 20
0.568905
 10
1.649759
 20
0.65162
 10
1.739838
 20
0.731632
 10
1.783612
 20
0.77103
 10
1.826313
 20
0.810238
 10
1.867766
 20
0.849418
 10
1.88797
 20
0.869048
 10
1.907798
 20
0.888732
 10
1.927228
 20
0.90849
 10
1.946238
 20
0.928343
 10
1.964806
 20
0.948309
 10
1.982911
 20
0.968411
 10
2.000531
 20
0.988668
 10
2.017644
 20
1.0091
 10
2.03423
 20
1.029727
 10
2.050266
 20
1.05057
 10
2.06573
 20
1.071649
 10
2.080601
 20
1.092985
 10
2.094858
 20
1.114596
 10
2.108478
 20
1.136505
 10
2.121441
 20
1.158731
 10
2.133724
 20
1.181293
 10
2.145306
 20
1.204214
 10
2.156165
 20
1.227511
 10
2.166279
 20
1.251207
 10
2.175628
 20
1.275321
 10
2.184189
 20
1.299874
 10
2.19194
 20
1.324885
 10
2.198861
 20
1.350375
 10
2.204929
 20
1.376364
 10
2.210123
 20
1.402873
 10
2.214421
 20
1.429922
 10
2.217802
 20
1.45753
 10
2.220243
 20
1.485718
 10
2.221724
 20
1.514507
 10
2.222222
 20
1.543917
 10
2.222032
 20
1.558966
 10
2.221463
 20
1.573922
 10
2.22052
 20
1.588779
 10
2.219209
 20
1.603534
 10
2.217533
 20
1.618182
 10
2.215497
 20
1.632718
 10
2.213105
 20
1.647138
 10
2.210364
 20
1.661436
 10
2.207276
 20
1.675609
 10
2.203846
 20
1.689652
 10
2.20008
 20
1.70356
 10
2.195981
 20
1.717328
 10
2.191555
 20
1.730953
 10
2.186805
 20
1.744429
 10
2.181737
 20
1.757751
 10
2.176355
 20
1.770916
 10
2.170664
 20
1.783919
 10
2.164668
 20
1.796755
 10
2.158372
 20
1.809419
 10
2.15178
 20
1.821907
 10
2.144897
 20
1.834214
 10
2.137728
 20
1.846336
 10
2.130277
 20
1.858268
 10
2.122549
 20
1.870006
 10
2.114548
 20
1.881544
 10
2.10628
 20
1.892879
 10
2.097748
 20
1.904005
 10
2.088957
 20
1.914919
 10
2.079912
 20
1.925615
 10
2.070617
 20
1.936089
 10
2.061077
 20
1.946336
 10
2.051297
 20
1.956352
 10
2.041281
 20
1.966133
 10
2.031033
 20
1.975672
 10
2.020559
 20
1.984967
 10
2.009863
 20
1.994012
 10
1.99895
 20
2.002803
 10
1.987823
 20
2.011335
 10
1.976489
 20
2.019604
 10
1.96495
 20
2.027605
 10
1.953213
 20
2.035333
 10
1.941281
 20
2.042784
 10
1.929159
 20
2.049953
 10
1.916851
 20
2.056835
 10
1.904363
 20
2.063427
 10
1.891699
 20
2.069723
 10
1.878864
 20
2.07572
 10
1.865861
 20
2.081411
 10
1.852696
 20
2.086793
 10
1.839373
 20
2.091861
 10
1.825897
 20
2.09661
 10
1.812273
 20
2.101037
 10
1.798504
 20
2.105135
 10
1.784596
 20
2.108902
 10
1.770554
 20
2.112331
 10
1.756381
 20
2.115419
 10
1.742082
 20
2.118161
 10
1.727663
 20
2.120552
 10
1.713127
 20
2.122588
 10
1.698479
 20
2.124264
 10
1.683724
 20
2.125576
 10
1.668866
 20
2.126518
 10
1.65391
 20
2.127087
 10
1.638861
 20
2.127278
 10
1.617062
 20
2.126876
 10
1.595467
 20
2.12568
 10
1.57409
 20
2.123705
 10
1.552945
 20
2.120964
 10
1.532046
 20
2.117472
 10
1.511407
 20
2.113242
 10
1.491041
 20
2.108289
 10
1.470963
 20
2.102628
 10
1.451185
 20
2.096272
 10
1.431722
 20
2.089235
 10
1.412588
 20
2.081531
 10
1.393797
 20
2.073176
 10
1.375361
 20
2.064182
 10
1.357296
 20
2.054565
 10
1.339614
 20
2.044338
 10
1.32233
 20
2.033516
 10
1.305457
 20
2.022112
 10
1.28901
 20
2.010141
 10
1.273001
 20
1.997617
 10
1.257445
 20
1.984554
 10
1.242356
 20
1.970966
 10
1.227747
 20
1.956868
 10
1.213632
 20
1.942274
 10
1.200025
 20
1.927198
 10
1.18694
 20
1.911653
 10
1.17439
 20
1.895655
 10
1.16239
 20
1.879217
 10
1.150953
 20
1.862354
 10
1.140093
 20
1.84508
 10
1.129823
 20
1.827408
 10
1.120158
 20
1.809354
 10
1.111111
 20
1.790931
 10
1.102064
 20
1.809354
 10
1.092399
 20
1.827408
 10
1.08213
 20
1.84508
 10
1.071269
 20
1.862354
 10
1.059832
 20
1.879217
 10
1.047832
 20
1.895655
 10
1.035282
 20
1.911653
 10
1.022197
 20
1.927198
 10
1.00859
 20
1.942274
 10
0.994475
 20
1.956868
 10
0.979866
 20
1.970966
 10
0.964777
 20
1.984554
 10
0.949221
 20
1.997617
 10
0.933213
 20
2.010141
 10
0.916765
 20
2.022112
 10
0.899892
 20
2.033516
 10
0.882608
 20
2.044338
 10
0.864927
 20
2.054565
 10
0.846861
 20
2.064182
 10
0.828426
 20
2.073176
 10
0.809634
 20
2.081531
 10
0.7905
 20
2.089235
 10
0.771037
 20
2.096272
 10
0.75126
 20
2.102628
 10
0.731181
 20
2.108289
 10
0.710815
 20
2.113242
 10
0.690176
 20
2.117472
 10
0.669277
 20
2.120964
 10
0.648132
 20
2.123705
 10
0.626756
 20
2.12568
 10
0.605161
 20
2.126876
 10
0.583361
 20
2.127278
  0
ENDSEC
  0
SECTION
  2
OBJECTS
  0
DICTIONARY
  5
C
330
0
100
AcDbDictionary
281
     1
  3
ACAD_GROUP
350
D
  3
ACAD_LAYOUT
350
1A
  3
ACAD_MLINESTYLE
350
17
  3
ACAD_PLOTSETTINGS
350
19
  3
ACAD_PLOTSTYLENAME
350
E
  0
DICTIONARY
  5
D
102
{ACAD_REACTORS
330
C
102
}
330
C
100
AcDbDictionary
281
     1
  0
DICTIONARY
  5
1A
102
{ACAD_REACTORS
330
C
102
}
330
C
100
AcDbDictionary
281
     1
  3
Layout1
350
1E
  3
Layout2
350
26
  3
Model
350
22
  0
DICTIONARY
  5
17
102
{ACAD_REACTORS
330
C
102
}
330
C
100
AcDbDictionary
281
     1
  3
Standard
350
18
  0
DICTIONARY
  5
19
102
{ACAD_REACTORS
330
C
102
}
330
C
100
AcDbDictionary
281
     1
  0
ACDBDICTIONARYWDFLT
  5
E
102
{ACAD_REACTORS
330
C
102
}
330
C
100
AcDbDictionary
281
     1
  3
Normal
350
F
100
AcDbDictionaryWithDefault
340
F
  0
LAYOUT
  5
1E
102
{ACAD_REACTORS
330
1A
102
}
330
1A
100
AcDbPlotSettings
  1

  2

  4

  6

 40
0.0
 41
0.0
 42
0.0
 43
0.0
 44
0.0
 45
0.0
 46
0.0
 47
0.0
 48
0.0
 49
0.0
140
0.0
141
0.0
142
1.0
143
1.0
 70
   688
 72
     0
 73
     0
 74
     5
  7

 75
    16
147
1.0
148
0.0
149
0.0
100
AcDbLayout
  1
Layout1
 70
     1
 71
     1
 10
0.0
 20
0.0
 11
420.0
 21
297.0
 12
0.0
 22
0.0
 32
0.0
 14
1.000000E+20
 24
1.000000E+20
 34
1.000000E+20
 15
-1.000000E+20
 25
-1.000000E+20
 35
-1.000000E+20
146
0.0
 13
0.0
 23
0.0
 33
0.0
 16
1.0
 26
0.0
 36
0.0
 17
0.0
 27
1.0
 37
0.0
 76
     0
330
1B
  0
LAYOUT
  5
26
102
{ACAD_REACTORS
330
1A
102
}
330
1A
100
AcDbPlotSettings
  1

  2

  4

  6

 40
0.0
 41
0.0
 42
0.0
 43
0.0
 44
0.0
 45
0.0
 46
0.0
 47
0.0
 48
0.0
 49
0.0
140
0.0
141
0.0
142
1.0
143
1.0
 70
   688
 72
     0
 73
     0
 74
     5
  7

 75
    16
147
1.0
148
0.0
149
0.0
100
AcDbLayout
  1
Layout2
 70
     1
 71
     2
 10
0.0
 20
0.0
 11
0.0
 21
0.0
 12
0.0
 22
0.0
 32
0.0
 14
0.0
 24
0.0
 34
0.0
 15
0.0
 25
0.0
 35
0.0
146
0.0
 13
0.0
 23
0.0
 33
0.0
 16
1.0
 26
0.0
 36
0.0
 17
0.0
 27
1.0
 37
0.0
 76
     0
330
23
  0
LAYOUT
  5
22
102
{ACAD_REACTORS
330
1A
102
}
330
1A
100
AcDbPlotSettings
  1

  2

  4

  6

 40
0.0
 41
0.0
 42
0.0
 43
0.0
 44
0.0
 45
0.0
 46
0.0
 47
0.0
 48
0.0
 49
0.0
140
0.0
141
0.0
142
1.0
143
1.0
 70
  1712
 72
     0
 73
     0
 74
     0
  7

 75
     0
147
1.0
148
0.0
149
0.0
100
AcDbLayout
  1
Model
 70
     1
 71
     0
 10
0.0
 20
0.0
 11
0.0
 21
0.0
 12
0.0
 22
0.0
 32
0.0
 14
0.0
 24
0.0
 34
0.0
 15
0.0
 25
0.0
 35
0.0
146
0.0
 13
0.0
 23
0.0
 33
0.0
 16
1.0
 26
0.0
 36
0.0
 17
0.0
 27
1.0
 37
0.0
 76
     0
330
1F
  0
MLINESTYLE
  5
18
102
{ACAD_REACTORS
330
17
102
}
330
17
100
AcDbMlineStyle
  2
Standard
 70
     0
  3

 62
   256
 51
90.0
 52
90.0
 71
     2
 49
1.0
 62
   256
  6
BYLAYER
 49
-1.0
 62
   256
  6
BYLAYER
  0
ACDBPLACEHOLDER
  5
F
102
{ACAD_REACTORS
330
E
102
}
330
E
  0
ENDSEC
  0
EOF
