999
dxfrw 0.6.3
  0
SECTION
  2
HEADER
  9
$ACADVER
  1
AC1021
  9
$DWGCODEPAGE
  3
ANSI_1252
  9
$INSBASE
 10
0
 20
0
 30
0
  9
$EXTMIN
 10
114
 20
91
 30
0
  9
$EXTMAX
 10
978
 20
906
 30
0
  9
$LIMMIN
 10
0
 20
0
  9
$LIMMAX
 10
1107
 20
940
  9
$ORTHOMODE
 70
    0
  9
$REGENMODE
 70
    1
  9
$FILLMODE
 70
    1
  9
$QTEXTMODE
 70
    0
  9
$MIRRTEXT
 70
    0
  9
$LTSCALE
 40
1
  9
$ATTMODE
 70
    0
  9
$TEXTSIZE
 40
2.5
  9
$TRACEWID
 40
15.68
  9
$TEXTSTYLE
  7
STANDARD
  9
$CLAYER
  8
0
  9
$CELTYPE
  6
BYLAYER
  9
$CECOLOR
 62
  256
  9
$CELTSCALE
 40
1
  9
$DISPSILH
 70
    0
  9
$DIMSCALE
 40
2.5
  9
$DIMASZ
 40
2.5
  9
$DIMEXO
 40
0.625
  9
$DIMDLI
 40
3.75
  9
$DIMRND
 40
0
  9
$DIMDLE
 40
0
  9
$DIMEXE
 40
1.25
  9
$DIMTP
 40
0
  9
$DIMTM
 40
0
  9
$DIMTXT
 40
2.5
  9
$DIMCEN
 40
2.5
  9
$DIMTSZ
 40
0
  9
$DIMTOL
 70
    0
  9
$DIMLIM
 70
    0
  9
$DIMTIH
 70
    0
  9
$DIMTOH
 70
    0
  9
$DIMSE1
 70
    0
  9
$DIMSE2
 70
    0
  9
$DIMTAD
 70
    1
  9
$DIMZIN
 70
    8
  9
$DIMBLK
  1

  9
$DIMASO
 70
    1
  9
$DIMSHO
 70
    1
  9
$DIMPOST
  1

  9
$DIMAPOST
  1

  9
$DIMALT
 70
    0
  9
$DIMALTD
 70
    3
  9
$DIMALTF
 40
0.03937
  9
$DIMLFAC
 40
1
  9
$DIMTOFL
 70
    1
  9
$DIMTVP
 40
0
  9
$DIMTIX
 70
    0
  9
$DIMSOXD
 70
    0
  9
$DIMSAH
 70
    0
  9
$DIMBLK1
  1

  9
$DIMBLK2
  1

  9
$DIMSTYLE
  2
Standard
  9
$DIMCLRD
 70
    0
  9
$DIMCLRE
 70
    0
  9
$DIMCLRT
 70
    0
  9
$DIMTFAC
 40
1
  9
$DIMGAP
 40
0.625
  9
$DIMJUST
 70
    0
  9
$DIMSD1
 70
    0
  9
$DIMSD2
 70
    0
  9
$DIMTOLJ
 70
    0
  9
$DIMTZIN
 70
    8
  9
$DIMALTZ
 70
    0
  9
$DIMALTTZ
 70
    0
  9
$DIMUPT
 70
    0
  9
$DIMDEC
 70
    2
  9
$DIMTDEC
 70
    2
  9
$DIMALTU
 70
    2
  9
$DIMALTTD
 70
    3
  9
$DIMTXSTY
  7
STANDARD
  9
$DIMAUNIT
 70
    0
  9
$DIMADEC
 70
    0
  9
$DIMALTRND
 40
0
  9
$DIMAZIN
 70
    0
  9
$DIMDSEP
 70
   44
  9
$DIMATFIT
 70
    3
  9
$DIMFRAC
 70
    0
  9
$DIMLDRBLK
  1
STANDARD
  9
$DIMLUNIT
 70
    2
  9
$DIMLWD
 70
   -2
  9
$DIMLWE
 70
   -2
  9
$DIMTMOVE
 70
    0
  9
$DIMFXL
 40
1
  9
$DIMFXLON
 70
    0
  9
$DIMJOGANG
 40
0.7854
  9
$DIMTFILL
 70
    0
  9
$DIMTFILLCLR
 70
    0
  9
$DIMARCSYM
 70
    0
  9
$DIMLTYPE
  6

  9
$DIMLTEX1
  6

  9
$DIMLTEX2
  6

  9
$LUNITS
 70
    2
  9
$LUPREC
 70
    3
  9
$SKETCHINC
 40
1
  9
$FILLETRAD
 40
0
  9
$AUNITS
 70
    0
  9
$AUPREC
 70
    2
  9
$MENU
  1
.
  9
$ELEVATION
 40
0
  9
$PELEVATION
 40
0
  9
$THICKNESS
 40
0
  9
$LIMCHECK
 70
    0
  9
$CHAMFERA
 40
0
  9
$CHAMFERB
 40
0
  9
$CHAMFERC
 40
0
  9
$CHAMFERD
 40
0
  9
$SKPOLY
 70
    0
  9
$USRTIMER
 70
    1
  9
$ANGBASE
 50
0
  9
$ANGDIR
 70
    0
  9
$PDMODE
 70
   34
  9
$PDSIZE
 40
0
  9
$PLINEWID
 40
0
  9
$SPLFRAME
 70
    0
  9
$SPLINETYPE
 70
    2
  9
$SPLINESEGS
 70
    8
  9
$HANDSEED
  5
20000
  9
$SURFTAB1
 70
    6
  9
$SURFTAB2
 70
    6
  9
$SURFTYPE
 70
    6
  9
$SURFU
 70
    6
  9
$SURFV
 70
    6
  9
$UCSBASE
  2

  9
$UCSNAME
  2

  9
$UCSORG
 10
0
 20
0
 30
0
  9
$UCSXDIR
 10
1
 20
0
 30
0
  9
$UCSYDIR
 10
0
 20
1
 30
0
  9
$UCSORTHOREF
  2

  9
$UCSORTHOVIEW
 70
    0
  9
$UCSORGTOP
 10
0
 20
0
 30
0
  9
$UCSORGBOTTOM
 10
0
 20
0
 30
0
  9
$UCSORGLEFT
 10
0
 20
0
 30
0
  9
$UCSORGRIGHT
 10
0
 20
0
 30
0
  9
$UCSORGFRONT
 10
0
 20
0
 30
0
  9
$UCSORGBACK
 10
0
 20
0
 30
0
  9
$PUCSBASE
  2

  9
$PUCSNAME
  2

  9
$PUCSORG
 10
0
 20
0
 30
0
  9
$PUCSXDIR
 10
1
 20
0
 30
0
  9
$PUCSYDIR
 10
0
 20
1
 30
0
  9
$PUCSORTHOREF
  2

  9
$PUCSORTHOVIEW
 70
    0
  9
$PUCSORGTOP
 10
0
 20
0
 30
0
  9
$PUCSORGBOTTOM
 10
0
 20
0
 30
0
  9
$PUCSORGLEFT
 10
0
 20
0
 30
0
  9
$PUCSORGRIGHT
 10
0
 20
0
 30
0
  9
$PUCSORGFRONT
 10
0
 20
0
 30
0
  9
$PUCSORGBACK
 10
0
 20
0
 30
0
  9
$USERI1
 70
    0
  9
$USERI2
 70
    0
  9
$USERI3
 70
    0
  9
$USERI4
 70
    0
  9
$USERI5
 70
    0
  9
$USERR1
 40
0
  9
$USERR2
 40
0
  9
$USERR3
 40
0
  9
$USERR4
 40
0
  9
$USERR5
 40
0
  9
$WORLDVIEW
 70
    1
  9
$SHADEDGE
 70
    3
  9
$SHADEDIF
 70
   70
  9
$TILEMODE
 70
    1
  9
$MAXACTVP
 70
   64
  9
$PINSBASE
 10
0
 20
0
 30
0
  9
$PLIMCHECK
 70
    0
  9
$PEXTMIN
 10
0
 20
0
 30
0
  9
$PEXTMAX
 10
0
 20
0
 30
0
  9
$GRIDMODE
 70
    0
  9
$SNAPSTYLE
 70
    0
  9
$PLIMMIN
 10
0
 20
0
  9
$PLIMMAX
 10
297
 20
210
  9
$UNITMODE
 70
    0
  9
$VISRETAIN
 70
    1
  9
$PLINEGEN
 70
    0
  9
$PSLTSCALE
 70
    1
  9
$TREEDEPTH
 70
 3020
  9
$CMLSTYLE
  2
Standard
  9
$CMLJUST
 70
    0
  9
$CMLSCALE
 40
20
  9
$PROXYGRAPHICS
 70
    1
  9
$MEASUREMENT
 70
    1
  9
$CELWEIGHT
370
   -1
  9
$ENDCAPS
280
    0
  9
$JOINSTYLE
280
    0
  9
$LWDISPLAY
290
    0
  9
$INSUNITS
 70
    4
  9
$HYPERLINKBASE
  1

  9
$STYLESHEET
  1

  9
$XEDIT
290
    1
  9
$CEPSNTYPE
380
    0
  9
$PSTYLEMODE
290
    1
  9
$EXTNAMES
290
    1
  9
$PSVPSCALE
 40
1
  9
$OLESTARTUP
290
    0
  9
$SORTENTS
280
  127
  9
$INDEXCTL
280
    0
  9
$HIDETEXT
280
    1
  9
$XCLIPFRAME
290
    0
  9
$HALOGAP
280
    0
  9
$OBSCOLOR
 70
  257
  9
$OBSLTYPE
280
    0
  9
$INTERSECTIONDISPLAY
280
    0
  9
$INTERSECTIONCOLOR
 70
  257
  9
$DIMASSOC
280
    1
  9
$PROJECTNAME
  1

  9
$CAMERADISPLAY
290
    0
  9
$LENSLENGTH
 40
50
  9
$CAMERAHEIGHT
 40
0
  9
$STEPSPERSEC
 40
2
  9
$STEPSIZE
 40
50
  9
$3DDWFPREC
 40
2
  9
$PSOLWIDTH
 40
5
  9
$PSOLHEIGHT
 40
80
  9
$LOFTANG1
 40
1.570796326794897
  9
$LOFTANG2
 40
1.570796326794897
  9
$LOFTMAG1
 40
0
  9
$LOFTMAG2
 40
0
  9
$LOFTPARAM
 70
    7
  9
$LOFTNORMALS
280
    1
  9
$LATITUDE
 40
1
  9
$LONGITUDE
 40
1
  9
$NORTHDIRECTION
 40
0
  9
$TIMEZONE
 70
-8000
  9
$LIGHTGLYPHDISPLAY
280
    1
  9
$TILEMODELIGHTSYNCH
280
    1
  9
$SOLIDHIST
280
    1
  9
$SHOWHIST
280
    1
  9
$DWFFRAME
280
    2
  9
$DGNFRAME
280
    0
  9
$REALWORLDSCALE
290
    1
  9
$INTERFERECOLOR
 62
    1
  9
$CSHADOW
280
    0
  9
$SHADOWPLANELOCATION
 40
0
  0
ENDSEC
  0
SECTION
  2
CLASSES
  0
ENDSEC
  0
SECTION
  2
TABLES
  0
TABLE
  2
VPORT
  5
8
330
0
100
AcDbSymbolTable
 70
    1
  0
VPORT
  5
31
330
2
100
AcDbSymbolTableRecord
100
AcDbViewportTableRecord
  2
*ACTIVE
 70
    0
 10
0
 20
0
 11
1
 21
1
 12
719.4846781277332
 22
552.1626599584929
 13
0
 23
0
 14
10
 24
10
 15
10
 25
10
 16
0
 26
0
 36
1
 17
0
 27
0
 37
0
 40
835.6258436805
 41
1.886925795053004
 42
50
 43
0
 44
0
 50
0
 51
0
 71
    0
 72
  100
 73
    1
 74
    3
 75
    0
 76
    0
 77
    0
 78
    0
281
    0
 65
    1
110
0
120
0
130
0
111
1
121
0
131
0
112
0
122
1
132
0
 79
    0
146
0
348
10020
 60
    7
 61
    5
292
1
282
    1
141
0
142
0
 63
  250
421
3358443
  0
ENDTAB
  0
TABLE
  2
LTYPE
  5
5
330
0
100
AcDbSymbolTable
 70
    4
  0
LTYPE
  5
14
330
5
100
AcDbSymbolTableRecord
100
AcDbLinetypeTableRecord
  2
ByBlock
 70
    0
  3

 72
   65
 73
    0
 40
0
  0
LTYPE
  5
15
330
5
100
AcDbSymbolTableRecord
100
AcDbLinetypeTableRecord
  2
ByLayer
 70
    0
  3

 72
   65
 73
    0
 40
0
  0
LTYPE
  5
16
330
5
100
AcDbSymbolTableRecord
100
AcDbLinetypeTableRecord
  2
Continuous
 70
    0
  3
Solid line
 72
   65
 73
    0
 40
0
  0
LTYPE
  5
32
330
5
100
AcDbSymbolTableRecord
100
AcDbLinetypeTableRecord
  2
DOT
 70
    0
  3
Dot . . . . . . . . . . . . . . . . . . . . . .
 72
   65
 73
    2
 40
6.35
 49
0
 74
    0
 49
-6.35
 74
    0
  0
LTYPE
  5
33
330
5
100
AcDbSymbolTableRecord
100
AcDbLinetypeTableRecord
  2
DOTTINY
 70
    0
  3
Dot (.15x) .....................................
 72
   65
 73
    2
 40
0.9525
 49
0
 74
    0
 49
-0.9525
 74
    0
  0
LTYPE
  5
34
330
5
100
AcDbSymbolTableRecord
100
AcDbLinetypeTableRecord
  2
DOT2
 70
    0
  3
Dot (.5x) .....................................
 72
   65
 73
    2
 40
3.175
 49
0
 74
    0
 49
-3.175
 74
    0
  0
LTYPE
  5
35
330
5
100
AcDbSymbolTableRecord
100
AcDbLinetypeTableRecord
  2
DOTX2
 70
    0
  3
Dot (2x) .  .  .  .  .  .  .  .  .  .  .  .  .
 72
   65
 73
    2
 40
12.7
 49
0
 74
    0
 49
-12.7
 74
    0
  0
LTYPE
  5
36
330
5
100
AcDbSymbolTableRecord
100
AcDbLinetypeTableRecord
  2
DASHED
 70
    0
  3
Dashed _ _ _ _ _ _ _ _ _ _ _ _ _ _ _ _ _
 72
   65
 73
    2
 40
19.05
 49
12.7
 74
    0
 49
-6.35
 74
    0
  0
LTYPE
  5
37
330
5
100
AcDbSymbolTableRecord
100
AcDbLinetypeTableRecord
  2
DASHEDTINY
 70
    0
  3
Dashed (.15x) _ _ _ _ _ _ _ _ _ _ _ _ _ _ _ _ _
 72
   65
 73
    2
 40
2.8575
 49
1.905
 74
    0
 49
-0.9525
 74
    0
  0
LTYPE
  5
38
330
5
100
AcDbSymbolTableRecord
100
AcDbLinetypeTableRecord
  2
DASHED2
 70
    0
  3
Dashed (.5x) _ _ _ _ _ _ _ _ _ _ _ _ _ _ _ _ _
 72
   65
 73
    2
 40
9.524999999999999
 49
6.35
 74
    0
 49
-3.175
 74
    0
  0
LTYPE
  5
39
330
5
100
AcDbSymbolTableRecord
100
AcDbLinetypeTableRecord
  2
DASHEDX2
 70
    0
  3
Dashed (2x) ____  ____  ____  ____  ____  ___
 72
   65
 73
    2
 40
38.09999999999999
 49
25.4
 74
    0
 49
-12.7
 74
    0
  0
LTYPE
  5
3A
330
5
100
AcDbSymbolTableRecord
100
AcDbLinetypeTableRecord
  2
DASHDOT
 70
    0
  3
Dash dot __ . __ . __ . __ . __ . __ . __ . __
 72
   65
 73
    4
 40
25.4
 49
12.7
 74
    0
 49
-6.35
 74
    0
 49
0
 74
    0
 49
-6.35
 74
    0
  0
LTYPE
  5
3B
330
5
100
AcDbSymbolTableRecord
100
AcDbLinetypeTableRecord
  2
DASHDOTTINY
 70
    0
  3
Dash dot (.15x) _._._._._._._._._._._._._._._.
 72
   65
 73
    4
 40
3.81
 49
1.905
 74
    0
 49
-0.9525
 74
    0
 49
0
 74
    0
 49
-0.9525
 74
    0
  0
LTYPE
  5
3C
330
5
100
AcDbSymbolTableRecord
100
AcDbLinetypeTableRecord
  2
DASHDOT2
 70
    0
  3
Dash dot (.5x) _._._._._._._._._._._._._._._.
 72
   65
 73
    4
 40
12.7
 49
6.35
 74
    0
 49
-3.175
 74
    0
 49
0
 74
    0
 49
-3.175
 74
    0
  0
LTYPE
  5
3D
330
5
100
AcDbSymbolTableRecord
100
AcDbLinetypeTableRecord
  2
DASHDOTX2
 70
    0
  3
Dash dot (2x) ____  .  ____  .  ____  .  ___
 72
   65
 73
    4
 40
50.8
 49
25.4
 74
    0
 49
-12.7
 74
    0
 49
0
 74
    0
 49
-12.7
 74
    0
  0
LTYPE
  5
3E
330
5
100
AcDbSymbolTableRecord
100
AcDbLinetypeTableRecord
  2
DIVIDE
 70
    0
  3
Divide ____ . . ____ . . ____ . . ____ . . ____
 72
   65
 73
    6
 40
31.75
 49
12.7
 74
    0
 49
-6.35
 74
    0
 49
0
 74
    0
 49
-6.35
 74
    0
 49
0
 74
    0
 49
-6.35
 74
    0
  0
LTYPE
  5
3F
330
5
100
AcDbSymbolTableRecord
100
AcDbLinetypeTableRecord
  2
DIVIDETINY
 70
    0
  3
Divide (.15x) __..__..__..__..__..__..__..__.._
 72
   65
 73
    6
 40
4.7625
 49
1.905
 74
    0
 49
-0.9525
 74
    0
 49
0
 74
    0
 49
-0.9525
 74
    0
 49
0
 74
    0
 49
-0.9525
 74
    0
  0
LTYPE
  5
40
330
5
100
AcDbSymbolTableRecord
100
AcDbLinetypeTableRecord
  2
DIVIDE2
 70
    0
  3
Divide (.5x) __..__..__..__..__..__..__..__.._
 72
   65
 73
    6
 40
15.875
 49
6.35
 74
    0
 49
-3.175
 74
    0
 49
0
 74
    0
 49
-3.175
 74
    0
 49
0
 74
    0
 49
-3.175
 74
    0
  0
LTYPE
  5
41
330
5
100
AcDbSymbolTableRecord
100
AcDbLinetypeTableRecord
  2
DIVIDEX2
 70
    0
  3
Divide (2x) ________  .  .  ________  .  .  _
 72
   65
 73
    6
 40
63.5
 49
25.4
 74
    0
 49
-12.7
 74
    0
 49
0
 74
    0
 49
-12.7
 74
    0
 49
0
 74
    0
 49
-12.7
 74
    0
  0
LTYPE
  5
42
330
5
100
AcDbSymbolTableRecord
100
AcDbLinetypeTableRecord
  2
BORDER
 70
    0
  3
Border __ __ . __ __ . __ __ . __ __ . __ __ .
 72
   65
 73
    6
 40
44.45
 49
12.7
 74
    0
 49
-6.35
 74
    0
 49
12.7
 74
    0
 49
-6.35
 74
    0
 49
0
 74
    0
 49
-6.35
 74
    0
  0
LTYPE
  5
43
330
5
100
AcDbSymbolTableRecord
100
AcDbLinetypeTableRecord
  2
BORDERTINY
 70
    0
  3
Border (.15x) __.__.__.__.__.__.__.__.__.__.__.
 72
   65
 73
    6
 40
6.6675
 49
1.905
 74
    0
 49
-0.9525
 74
    0
 49
1.905
 74
    0
 49
-0.9525
 74
    0
 49
0
 74
    0
 49
-0.9525
 74
    0
  0
LTYPE
  5
44
330
5
100
AcDbSymbolTableRecord
100
AcDbLinetypeTableRecord
  2
BORDER2
 70
    0
  3
Border (.5x) __.__.__.__.__.__.__.__.__.__.__.
 72
   65
 73
    6
 40
22.225
 49
6.35
 74
    0
 49
-3.175
 74
    0
 49
6.35
 74
    0
 49
-3.175
 74
    0
 49
0
 74
    0
 49
-3.175
 74
    0
  0
LTYPE
  5
45
330
5
100
AcDbSymbolTableRecord
100
AcDbLinetypeTableRecord
  2
BORDERX2
 70
    0
  3
Border (2x) ____  ____  .  ____  ____  .  ___
 72
   65
 73
    6
 40
88.89999999999999
 49
25.4
 74
    0
 49
-12.7
 74
    0
 49
25.4
 74
    0
 49
-12.7
 74
    0
 49
0
 74
    0
 49
-12.7
 74
    0
  0
LTYPE
  5
46
330
5
100
AcDbSymbolTableRecord
100
AcDbLinetypeTableRecord
  2
CENTER
 70
    0
  3
Center ____ _ ____ _ ____ _ ____ _ ____ _ ____
 72
   65
 73
    4
 40
50.8
 49
31.75
 74
    0
 49
-6.35
 74
    0
 49
6.35
 74
    0
 49
-6.35
 74
    0
  0
LTYPE
  5
47
330
5
100
AcDbSymbolTableRecord
100
AcDbLinetypeTableRecord
  2
CENTERTINY
 70
    0
  3
Center (.15x) ___ _ ___ _ ___ _ ___ _ ___ _ ___
 72
   65
 73
    4
 40
7.62
 49
4.7625
 74
    0
 49
-0.9525
 74
    0
 49
0.9525
 74
    0
 49
-0.9525
 74
    0
  0
LTYPE
  5
48
330
5
100
AcDbSymbolTableRecord
100
AcDbLinetypeTableRecord
  2
CENTER2
 70
    0
  3
Center (.5x) ___ _ ___ _ ___ _ ___ _ ___ _ ___
 72
   65
 73
    4
 40
28.575
 49
19.05
 74
    0
 49
-3.175
 74
    0
 49
3.175
 74
    0
 49
-3.175
 74
    0
  0
LTYPE
  5
49
330
5
100
AcDbSymbolTableRecord
100
AcDbLinetypeTableRecord
  2
CENTERX2
 70
    0
  3
Center (2x) ________  __  ________  __  _____
 72
   65
 73
    4
 40
101.6
 49
63.5
 74
    0
 49
-12.7
 74
    0
 49
12.7
 74
    0
 49
-12.7
 74
    0
  0
ENDTAB
  0
TABLE
  2
LAYER
  5
2
330
0
100
AcDbSymbolTable
 70
    1
  0
LAYER
  5
10
330
2
100
AcDbSymbolTableRecord
100
AcDbLayerTableRecord
  2
0
 70
    0
 62
    7
  6
CONTINUOUS
370
   -3
390
F
  0
ENDTAB
  0
TABLE
  2
STYLE
  5
3
330
0
100
AcDbSymbolTable
 70
    3
  0
STYLE
  5
4A
330
2
100
AcDbSymbolTableRecord
100
AcDbTextStyleTableRecord
  2
Standard
 70
    0
 40
0
 41
1
 50
0
 71
    0
 42
1
  3
txt
  4

  0
ENDTAB
  0
TABLE
  2
VIEW
  5
6
330
0
100
AcDbSymbolTable
 70
    0
  0
ENDTAB
  0
TABLE
  2
UCS
  5
7
330
0
100
AcDbSymbolTable
 70
    0
  0
ENDTAB
  0
TABLE
  2
APPID
  5
9
330
0
100
AcDbSymbolTable
 70
    1
  0
APPID
  5
12
330
9
100
AcDbSymbolTableRecord
100
AcDbRegAppTableRecord
  2
ACAD
 70
    0
  0
APPID
  5
4B
330
9
100
AcDbSymbolTableRecord
100
AcDbRegAppTableRecord
  2
LibreCad
 70
    0
  0
ENDTAB
  0
TABLE
  2
DIMSTYLE
  5
A
330
0
100
AcDbSymbolTable
 70
    1
100
AcDbDimStyleTable
 71
    1
  0
DIMSTYLE
105
4C
330
A
100
AcDbSymbolTableRecord
100
AcDbDimStyleTableRecord
  2
Standard
 70
    0
 40
1
 41
2.5
 42
0.625
 43
0.38
 44
1.25
 45
0
 46
0
 47
0
 48
0
 49
1
140
2.5
141
0.09
142
2.5
143
25.4
144
1
145
0
146
1
147
0.625
148
0
 71
    0
 72
    0
 73
    0
 74
    1
 75
    0
 76
    0
 77
    0
 78
    1
 79
    0
170
    0
171
    2
172
    0
173
    0
174
    0
175
    0
176
    0
177
    0
178
    0
179
    0
271
    2
272
    4
273
    2
274
    2
275
    0
276
    0
277
    2
278
    0
279
    0
280
    0
281
    0
282
    0
283
    1
284
    0
285
    0
286
    0
288
    0
289
    3
340
standard
341

371
   -2
372
   -2
  0
ENDTAB
  0
TABLE
  2
BLOCK_RECORD
  5
1
330
0
100
AcDbSymbolTable
 70
    2
  0
BLOCK_RECORD
  5
1F
330
1
100
AcDbSymbolTableRecord
100
AcDbBlockTableRecord
  2
*Model_Space
 70
    0
280
    1
281
    0
  0
BLOCK_RECORD
  5
1E
330
1
100
AcDbSymbolTableRecord
100
AcDbBlockTableRecord
  2
*Paper_Space
 70
    0
280
    1
281
    0
  0
ENDTAB
  0
ENDSEC
  0
SECTION
  2
BLOCKS
  0
BLOCK
  5
20
330
1F
100
AcDbEntity
  8
0
100
AcDbBlockBegin
  2
*Model_Space
 70
    0
 10
0
 20
0
 30
0
  3
*Model_Space
  1

  0
ENDBLK
  5
21
330
1F
100
AcDbEntity
  8
0
100
AcDbBlockEnd
  0
BLOCK
  5
1C
330
1B
100
AcDbEntity
  8
0
100
AcDbBlockBegin
  2
*Paper_Space
 70
    0
 10
0
 20
0
 30
0
  3
*Paper_Space
  1

  0
ENDBLK
  5
1D
330
1F
100
AcDbEntity
  8
0
100
AcDbBlockEnd
  0
ENDSEC
  0
SECTION
  2
ENTITIES
  0
LWPOLYLINE
  5
4D
100
AcDbEntity
  8
0
  6
CONTINUOUS
 62
    7
370
   -1
100
AcDbPolyline
 90
   14
 70
    0
 43
0
 10
385
 20
823
 10
388
 20
824
 10
390
 20
826
 10
391
 20
830
 10
390.3
 20
834.1
 10
390
 20
836
 10
385
 20
840
 10
381
 20
840
 10
375.1
 20
837.7
 10
366
 20
834
 10
369.609756
 20
831.512195
 10
378.615385
 20
824.923077
 10
383.1
 20
823.3
 10
385
 20
823
  0
LWPOLYLINE
  5
4E
100
AcDbEntity
  8
0
  6
CONTINUOUS
 62
    7
370
   -1
100
AcDbPolyline
 90
   14
 70
    0
 43
0
 10
306
 20
789
 10
311
 20
793
 10
311
 20
799
 10
309
 20
803
 10
305
 20
805
 10
298
 20
805
 10
297
 20
804
 10
299
 20
803
 10
302
 20
800
 10
303
 20
794
 10
301.769231
 20
792.153846
 10
300
 20
790
 10
301
 20
789
 10
306
 20
789
  0
LWPOLYLINE
  5
4F
100
AcDbEntity
  8
0
  6
CONTINUOUS
 62
    7
370
   -1
100
AcDbPolyline
 90
   27
 70
    0
 43
0
 10
504
 20
621
 10
505.769231
 20
623.153846
 10
512.7
 20
647.1
 10
513.3
 20
648.9
 10
519.3846150000001
 20
673.923077
 10
527
 20
718
 10
527
 20
759
 10
524.647059
 20
768.9117649999999
 10
519.647059
 20
785.9117649999999
 10
507.8
 20
809.9
 10
507.2
 20
811.1
 10
503
 20
819
 10
496
 20
826
 10
495
 20
826
 10
490
 20
821
 10
504.2
 20
798.1
 10
510.647059
 20
781.9117649999999
 10
512.352941
 20
775.0882350000001
 10
516.5380709999999
 20
759.967005
 10
517.4619290000001
 20
747.032995
 10
518
 20
723
 10
514.594595
 20
705.0675680000001
 10
513.554455
 20
695.0445539999999
 10
511.7
 20
689.1
 10
511.3
 20
687.9
 10
497
 20
632
 10
504
 20
621
  0
LWPOLYLINE
  5
50
100
AcDbEntity
  8
0
  6
CONTINUOUS
 62
    7
370
   -1
100
AcDbPolyline
 90
  840
 70
    0
 43
0
 10
677
 20
91
 10
688.9324319999999
 20
93.405405
 10
700
 20
101
 10
702.2
 20
105.9
 10
707
 20
115
 10
706
 20
116
 10
697.9400000000001
 20
117.58
 10
682
 20
120
 10
681
 20
121
 10
682
 20
124
 10
685
 20
127
 10
707
 20
127
 10
710.230769
 20
131.846154
 10
712
 20
135
 10
714.846154
 20
137.230769
 10
717.153846
 20
138.769231
 10
728.9
 20
146.2
 10
740.0599999999999
 20
148.58
 10
746
 20
149
 10
747
 20
150
 10
748
 20
152
 10
747.352941
 20
158.088235
 10
746.647059
 20
160.911765
 10
740
 20
170
 10
739
 20
170
 10
737
 20
172
 10
737
 20
178
 10
738.352941
 20
181.911765
 10
751.230769
 20
208.846154
 10
752.769231
 20
211.153846
 10
766.243902
 20
230.804878
 10
769.756098
 20
235.195122
 10
774.8
 20
244.1
 10
777.5692309999999
 20
251.053846
 10
779
 20
264
 10
778
 20
266
 10
769.195122
 20
274.243902
 10
764
 20
278
 10
751.2
 20
295.1
 10
748.769231
 20
298.846154
 10
737
 20
316
 10
734
 20
317
 10
732
 20
319
 10
732
 20
323
 10
746.769231
 20
347.153846
 10
758.8
 20
369.1
 10
768.3
 20
390.9
 10
773
 20
406
 10
773
 20
426
 10
769.8
 20
433.9
 10
769
 20
435
 10
773
 20
438
 10
778
 20
438
 10
784
 20
428
 10
785
 20
427
 10
787
 20
427
 10
790
 20
423
 10
794.2
 20
421.4
 10
805.8200000000001
 20
416.76
 10
810
 20
414
 10
811.3
 20
409.1
 10
811.7
 20
407.9
 10
812.3
 20
403.9
 10
811.3
 20
400.9
 10
810
 20
396
 10
811
 20
395
 10
812.2
 20
396.9
 10
819.294118
 20
408.176471
 10
821
 20
420
 10
822
 20
421
 10
824
 20
419
 10
824
 20
417
 10
829.9
 20
411.8
 10
847.153846
 20
409.230769
 10
851
 20
407
 10
852
 20
408
 10
851.58
 20
413.94
 10
849.911917
 20
419.365285
 10
839.3
 20
434.1
 10
838.52
 20
435.64
 10
833
 20
442
 10
834
 20
443
 10
836
 20
443
 10
839.8
 20
440.6
 10
844
 20
438
 10
852
 20
438
 10
853
 20
439
 10
856
 20
439
 10
859.9
 20
436.8
 10
861.9
 20
435.8
 10
875.0675680000001
 20
438.594595
 10
880.75
 20
439.25
 10
879
 20
445
 10
876
 20
448
 10
867
 20
451
 10
867
 20
452
 10
863
 20
456
 10
861.1
 20
456.3
 10
857
 20
458
 10
857
 20
460
 10
858
 20
461
 10
870
 20
461
 10
871.9
 20
459.8
 10
877
 20
456
 10
882
 20
456
 10
885.846154
 20
458.230769
 10
896
 20
465
 10
895
 20
467
 10
887.0882350000001
 20
470.352941
 10
885.9
 20
470.8
 10
881.216814
 20
473.247788
 10
870
 20
483
 10
871
 20
484
 10
879.856
 20
484.792
 10
882.846154
 20
486.230769
 10
891
 20
490
 10
896
 20
490
 10
898
 20
488
 10
903
 20
488
 10
908
 20
491
 10
910
 20
493
 10
910
 20
494
 10
908.195122
 20
495.243902
 10
893
 20
506
 10
871
 20
505
 10
861
 20
509
 10
854
 20
509
 10
843.1
 20
505.7
 10
842
 20
505
 10
840
 20
506
 10
844
 20
511
 10
845.9
 20
512.2
 10
860.035294
 20
518.541176
 10
885.967005
 20
520.4619290000001
 10
890.8
 20
522.4
 10
894
 20
524
 10
897
 20
528
 10
902
 20
528
 10
905.9117649999999
 20
526.647059
 10
907
 20
526
 10
911
 20
526
 10
914.9
 20
528.2
 10
921.365145
 20
531.630705
 10
933.1
 20
533.8
 10
940
 20
539
 10
937
 20
542
 10
927.9
 20
546.8
 10
927.1
 20
547.2
 10
922.872832
 20
549.17341
 10
912
 20
550
 10
911
 20
551
 10
911
 20
552
 10
925.9
 20
560.2
 10
927
 20
561
 10
934
 20
561
 10
935.9
 20
559.8
 10
942
 20
557
 10
946
 20
557
 10
951
 20
562
 10
951
 20
563
 10
946.1
 20
565.3
 10
931.964706
 20
574.541176
 10
920.352941
 20
576.4117649999999
 10
915.153846
 20
579.230769
 10
912.153846
 20
581.230769
 10
905
 20
585
 10
905
 20
586
 10
906
 20
587
 10
909
 20
587
 10
915
 20
584
 10
919
 20
584
 10
927.9
 20
587.2
 10
929.1
 20
587.8
 10
938
 20
591
 10
947
 20
587
 10
956
 20
587
 10
961
 20
589
 10
965
 20
593
 10
964
 20
594
 10
955.9
 20
596.7
 10
954.1
 20
597.3
 10
939.964706
 20
607.541176
 10
917.040984
 20
609.45082
 10
913.1
 20
611.2
 10
911.1
 20
612.2
 10
894.9400000000001
 20
617.58
 10
889
 20
618
 10
888
 20
619
 10
890
 20
621
 10
896.1
 20
622.8
 10
898
 20
624
 10
914
 20
624
 10
917.0445539999999
 20
622.445545
 10
927.9
 20
620.8
 10
929
 20
620
 10
952
 20
620
 10
953.9
 20
621.2
 10
959
 20
624
 10
959.2
 20
624.9
 10
964
 20
631
 10
964
 20
639
 10
956.76
 20
651.8200000000001
 10
954
 20
655
 10
954
 20
657
 10
955
 20
658
 10
960
 20
658
 10
967
 20
655
 10
972
 20
655
 10
975
 20
657
 10
976.230769
 20
658.846154
 10
978
 20
661
 10
978
 20
666
 10
977.2
 20
667.1
 10
973
 20
674
 10
964.195122
 20
682.243902
 10
948
 20
694
 10
946
 20
693
 10
954.247059
 20
685.211765
 10
960.7
 20
676.9
 10
961.3
 20
675.1
 10
962
 20
674
 10
962
 20
669
 10
961
 20
668
 10
958.1
 20
669.3
 10
954
 20
671
 10
945
 20
671
 10
943
 20
670
 10
941
 20
668
 10
940.3
 20
665.9
 10
939.7
 20
664.1
 10
939
 20
660
 10
944
 20
651
 10
944
 20
649
 10
940
 20
644
 10
931
 20
644
 10
923.153846
 20
647.230769
 10
915.1
 20
650.3
 10
878
 20
662
 10
856
 20
662
 10
847.04878
 20
660.560976
 10
838.1
 20
656.8
 10
836
 20
656
 10
832.756098
 20
652.195122
 10
812
 20
622
 10
811
 20
623
 10
815.6153849999999
 20
635.076923
 10
817
 20
640
 10
816.3
 20
642.1
 10
815.2
 20
645.1
 10
804
 20
661
 10
799
 20
666
 10
792.9
 20
668.8
 10
790
 20
670
 10
789
 20
669
 10
795.247788
 20
662.216814
 10
801.515385
 20
654.623077
 10
802.7
 20
651.9
 10
803.3
 20
650.1
 10
804
 20
649
 10
804
 20
645
 10
802.7
 20
642.1
 10
801
 20
638
 10
794.1799999999999
 20
631.76
 10
790.8200000000001
 20
629.24
 10
783
 20
622
 10
779.2
 20
613.9
 10
778.8
 20
613.1
 10
776
 20
600
 10
776
 20
595
 10
779.352941
 20
583.0882350000001
 10
782.6153849999999
 20
569.923077
 10
785.2
 20
561.1
 10
793.647059
 20
537.9117649999999
 10
794.352941
 20
535.0882350000001
 10
799
 20
515
 10
796.352941
 20
493.911765
 10
793
 20
484
 10
791
 20
482
 10
776.856
 20
475.792
 10
768.0445539999999
 20
474.554455
 10
760
 20
474
 10
758.9
 20
474.8
 10
746.195122
 20
480.243902
 10
741.1799999999999
 20
484.24
 10
706.735294
 20
512.558824
 10
687.846154
 20
523.769231
 10
642.9
 20
533.8
 10
637.2
 20
535.6
 10
590.1
 20
552.3
 10
586.9
 20
553.8
 10
556
 20
570
 10
549
 20
577
 10
544.153846
 20
580.230769
 10
541.846154
 20
581.769231
 10
537.1799999999999
 20
586.24
 10
526
 20
595
 10
524
 20
598
 10
524
 20
608
 10
538
 20
623
 10
549.076923
 20
626.6153849999999
 10
552.923077
 20
627.3846150000001
 10
556
 20
629
 10
555.75
 20
630.75
 10
550.1
 20
634.2
 10
541.9
 20
637.7
 10
535
 20
641
 10
533
 20
643
 10
534
 20
644
 10
539
 20
644
 10
540.9
 20
642.8
 10
542.9
 20
641.8
 10
551
 20
639
 10
557.0599999999999
 20
639.58
 10
573
 20
642
 10
574.9
 20
640.8
 10
576
 20
640
 10
588
 20
640
 10
589
 20
641
 10
588
 20
643
 10
584.1
 20
646.2
 10
577.630769
 20
650.353846
 10
562.823529
 20
654.294118
 10
557
 20
655
 10
556
 20
657
 10
552.9
 20
658.7
 10
551
 20
659
 10
549.769231
 20
660.846154
 10
548
 20
663
 10
549
 20
664
 10
562.9117649999999
 20
660.647059
 10
564
 20
660
 10
577.060104
 20
663.068394
 10
605.983907
 20
664.482797
 10
609
 20
666
 10
606
 20
669
 10
594.9
 20
673.8
 10
589.9
 20
675.8
 10
571.9324319999999
 20
679.594595
 10
567.0675680000001
 20
680.405405
 10
561
 20
684
 10
558
 20
687
 10
572.135135
 20
690.1891890000001
 10
583.0882350000001
 20
691.647059
 10
586
 20
692
 10
587
 20
693
 10
585.153846
 20
694.230769
 10
570.923077
 20
699.6153849999999
 10
565.9
 20
700.8
 10
561
 20
704
 10
563
 20
706
 10
574
 20
706
 10
576.9
 20
704.7
 10
578
 20
704
 10
582
 20
704
 10
588.9
 20
706.2
 10
590.1
 20
706.8
 10
596.846154
 20
709.230769
 10
599
 20
711
 10
606
 20
711
 10
610.076923
 20
709.3846150000001
 10
613.923077
 20
708.6153849999999
 10
615
 20
708
 10
625
 20
708
 10
630
 20
711
 10
631
 20
712
 10
631
 20
713
 10
629
 20
715
 10
624.9
 20
715.8
 10
622.1
 20
717.2
 10
612.946154
 20
721.5692309999999
 10
584.9
 20
724.7
 10
574.1
 20
728.2
 10
572.1
 20
729.2
 10
568
 20
732
 10
569
 20
733
 10
591.980069
 20
733.478336
 10
594.9
 20
734.3
 10
602.9
 20
737.3
 10
607.030973
 20
738.535398
 10
622.030973
 20
739.535398
 10
639
 20
742
 10
641
 20
744
 10
641
 20
745
 10
619.076923
 20
753.3846150000001
 10
588
 20
753
 10
579.153846
 20
758.230769
 10
574
 20
762
 10
574
 20
763
 10
577
 20
766
 10
578
 20
766
 10
579
 20
767
 10
576
 20
770
 10
574
 20
770
 10
573
 20
771
 10
575.9
 20
772.3
 10
593.846154
 20
777.230769
 10
596.846154
 20
779.230769
 10
606.95122
 20
781.439024
 10
619.964706
 20
782.458824
 10
622.9
 20
783.3
 10
625.9
 20
784.3
 10
632
 20
788
 10
632
 20
790
 10
630
 20
792
 10
621.0445539999999
 20
792.445545
 10
616.1
 20
794.2
 10
614.9
 20
794.8
 10
599
 20
799
 10
590.95122
 20
797.439024
 10
582
 20
796
 10
575.9400000000001
 20
796.58
 10
567.793103
 20
798.482759
 10
561
 20
801
 10
560
 20
802
 10
566.1
 20
805.7
 10
567.9
 20
806.3
 10
583
 20
812
 10
583
 20
813
 10
581
 20
815
 10
572.9117649999999
 20
816.647059
 10
570.0882350000001
 20
817.352941
 10
562.970817
 20
818.5330740000001
 10
546
 20
820
 10
545
 20
821
 10
547
 20
823
 10
553.04878
 20
823.560976
 10
560.95122
 20
824.439024
 10
580.9
 20
833.3
 10
582
 20
834
 10
587
 20
834
 10
588
 20
833
 10
593
 20
833
 10
597.076923
 20
834.6153849999999
 10
601
 20
835
 10
604
 20
839
 10
604
 20
840
 10
576.076923
 20
847.3846150000001
 10
551
 20
851
 10
536
 20
851
 10
535
 20
850
 10
517
 20
850
 10
516
 20
851
 10
518
 20
853
 10
530.1
 20
857.7
 10
538.735294
 20
860.441176
 10
545
 20
864
 10
546.2
 20
866.9
 10
547
 20
868
 10
546
 20
869
 10
544
 20
868
 10
539
 20
868
 10
525.1
 20
872.2
 10
520
 20
874
 10
499
 20
874
 10
498
 20
873
 10
494
 20
873
 10
493
 20
874
 10
494.9
 20
875.2
 10
503.9
 20
879.2
 10
510
 20
883
 10
509
 20
884
 10
490.023691
 20
884.4738149999999
 10
473
 20
887
 10
472
 20
886
 10
470.405405
 20
876.9324319999999
 10
466
 20
854
 10
461
 20
849
 10
450
 20
855
 10
449
 20
856
 10
455
 20
858
 10
459.2
 20
865.9
 10
462.560976
 20
883.04878
 10
464.405405
 20
896.9324319999999
 10
465
 20
905
 10
464
 20
906
 10
463
 20
905
 10
458.3
 20
893.9
 10
454
 20
886
 10
445
 20
877
 10
433
 20
870
 10
430
 20
867
 10
428.3
 20
862.9
 10
428
 20
861
 10
426
 20
859
 10
424
 20
859
 10
423
 20
860
 10
423
 20
864
 10
425.3
 20
869.9
 10
425.8
 20
871.1
 10
429
 20
875
 10
431.1
 20
875.8
 10
443
 20
882
 10
444
 20
883
 10
442
 20
885
 10
433.076923
 20
886.3846150000001
 10
432
 20
887
 10
419
 20
887
 10
413
 20
884
 10
411.8
 20
882.1
 10
410.2
 20
877.9
 10
408
 20
869
 10
406
 20
867
 10
402.9
 20
866.3
 10
348.9
 20
841.2
 10
320.153846
 20
824.769231
 10
307.911765
 20
818.352941
 10
297.9
 20
816.3
 10
290.153846
 20
812.769231
 10
285
 20
809
 10
284.769231
 20
808.153846
 10
279
 20
798
 10
279
 20
787
 10
280
 20
786
 10
280
 20
776
 10
279
 20
775
 10
279
 20
773
 10
288.019931
 20
770.478336
 10
312.04878
 20
769.439024
 10
320
 20
769
 10
322
 20
767
 10
322
 20
765
 10
320
 20
763
 10
301.9
 20
755.2
 10
295.1
 20
751.8
 10
292
 20
750
 10
292
 20
749
 10
304.9
 20
738.8
 10
310
 20
736
 10
318
 20
736
 10
323.932432
 20
737.405405
 10
341.846154
 20
749.230769
 10
347.2
 20
752.6
 10
354.076923
 20
754.6153849999999
 10
373
 20
759
 10
379.846154
 20
752.769231
 10
393
 20
747
 10
400
 20
747
 10
408.9
 20
749.2
 10
415.1
 20
751.7
 10
427
 20
759
 10
430
 20
762
 10
430
 20
763
 10
436
 20
769
 10
438
 20
769
 10
439
 20
767
 10
434.754098
 20
761.204918
 10
425
 20
750
 10
411.9
 20
743.2
 10
409.1
 20
741.8
 10
398.088235
 20
738.647059
 10
389
 20
736
 10
366.76
 20
711.1799999999999
 10
354.245902
 20
695.795082
 10
325.2
 20
650.9
 10
323.750408
 20
648.235726
 10
307.249592
 20
630.764274
 10
299.230769
 20
618.846154
 10
297.8
 20
616.1
 10
294
 20
609
 10
267.82
 20
626.76
 10
250.243902
 20
648.195122
 10
245.769231
 20
653.846154
 10
240.3
 20
666.1
 10
238
 20
671
 10
234.1
 20
675.2
 10
230
 20
678
 10
205.9
 20
673.2
 10
201
 20
670
 10
192
 20
651
 10
184.751381
 20
644.223757
 10
157
 20
613
 10
146.82
 20
605.24
 10
140
 20
599
 10
136.352941
 20
587.9117649999999
 10
135
 20
581
 10
139
 20
566
 10
139
 20
559
 10
132.8
 20
548.1
 10
130
 20
543
 10
120.9
 20
538.3
 10
119.1
 20
537.7
 10
114
 20
536
 10
115
 20
535
 10
126
 20
534
 10
128
 20
530
 10
126.445545
 20
517.9554460000001
 10
125
 20
508
 10
125
 20
506
 10
130
 20
503
 10
143
 20
503
 10
147.8
 20
504.6
 10
156.1
 20
506.7
 10
171
 20
513
 10
174
 20
516
 10
176.647059
 20
523.0882350000001
 10
179
 20
536
 10
178
 20
537
 10
157
 20
538
 10
155
 20
540
 10
155
 20
542
 10
163.9
 20
545.3
 10
169.1
 20
546.7
 10
171
 20
547
 10
174
 20
550
 10
174.8
 20
555.1
 10
178
 20
561
 10
183
 20
566
 10
190
 20
570
 10
192
 20
572
 10
191.2
 20
574.1
 10
187
 20
586
 10
185.204918
 20
587.245902
 10
177
 20
594
 10
178
 20
597
 10
192.22069
 20
609.751724
 10
213
 20
631
 10
218
 20
631
 10
225.247788
 20
622.216814
 10
231.752212
 20
614.783186
 10
238.769231
 20
603.846154
 10
242.7
 20
596.9
 10
254
 20
561
 10
257
 20
558
 10
280.088235
 20
548.352941
 10
283
 20
548
 10
284
 20
549
 10
283
 20
555
 10
283
 20
575
 10
284.8
 20
578.1
 10
289
 20
587
 10
291
 20
586
 10
289.594595
 20
580.0675680000001
 10
289
 20
572
 10
292.430769
 20
550.053846
 10
294.75
 20
539.25
 10
291
 20
537
 10
283
 20
537
 10
270.088235
 20
540.352941
 10
268.911765
 20
540.647059
 10
251.1
 20
545.2
 10
249.1
 20
546.2
 10
234.9
 20
552.7
 10
229.088235
 20
554.352941
 10
228
 20
555
 10
221
 20
555
 10
216
 20
551
 10
215
 20
550
 10
208.2
 20
534.9
 10
206
 20
531
 10
206
 20
524
 10
209.3
 20
516.1
 10
214.384615
 20
497.076923
 10
217.464602
 20
456.030973
 10
219.8
 20
434.9
 10
226
 20
426
 10
237.9
 20
419.8
 10
241.846154
 20
417.769231
 10
253
 20
410
 10
253.2
 20
409.1
 10
256.615385
 20
399.923077
 10
257.384615
 20
396.076923
 10
258
 20
395
 10
258
 20
383
 10
257
 20
381
 10
258
 20
380
 10
263
 20
385
 10
265
 20
385
 10
272
 20
380
 10
280.754098
 20
369.795082
 10
283
 20
367
 10
286
 20
366
 10
288
 20
367
 10
289.243902
 20
368.804878
 10
292.538462
 20
373.307692
 10
294.8
 20
379.1
 10
295.2
 20
379.9
 10
300.615385
 20
393.076923
 10
301.384615
 20
396.923077
 10
303
 20
404
 10
303
 20
415
 10
299.769231
 20
421.846154
 10
298
 20
425
 10
292.1
 20
430.2
 10
291
 20
431
 10
281.769231
 20
414.153846
 10
277
 20
407
 10
274
 20
407
 10
273
 20
408
 10
275.3
 20
414.9
 10
281.75
 20
432.75
 10
276
 20
433
 10
271
 20
438
 10
270.647059
 20
440.911765
 10
270
 20
442
 10
270
 20
452
 10
271.352941
 20
455.911765
 10
272.75
 20
465.75
 10
265.076923
 20
467.384615
 10
257
 20
469
 10
252.94
 20
468.42
 10
244
 20
467
 10
242
 20
469
 10
240.531034
 20
494.972414
 10
240.25
 20
509.75
 10
243
 20
511
 10
248
 20
511
 10
259.1
 20
507.3
 10
270.153846
 20
502.230769
 10
278.18
 20
497.24
 10
311.1
 20
477.2
 10
322.9
 20
470.8
 10
347
 20
463
 10
355
 20
463
 10
361
 20
469
 10
364.8
 20
477.1
 10
365.2
 20
477.9
 10
368.594595
 20
489.067568
 10
369.594595
 20
495.067568
 10
371
 20
508
 10
372
 20
509
 10
373
 20
508
 10
375
 20
498
 10
372
 20
463
 10
374.804878
 20
460.756098
 10
379.9
 20
456.8
 10
397
 20
447
 10
398
 20
445
 10
416.804878
 20
435.756098
 10
421.195122
 20
432.243902
 10
428.1
 20
429.2
 10
428.846154
 20
428.769231
 10
460.1
 20
414.3
 10
479.911765
 20
408.647059
 10
504.06
 20
400.42
 10
534.0882350000001
 20
394.352941
 10
599
 20
385
 10
600
 20
384
 10
600.5692309999999
 20
374.946154
 10
604.2
 20
348.1
 10
605.647059
 20
342.911765
 10
608
 20
335
 10
606
 20
333
 10
605
 20
333
 10
596.3
 20
348.1
 10
594.7
 20
352.9
 10
590.3846150000001
 20
366.076923
 10
589.2
 20
371.1
 10
587
 20
374
 10
578.0445539999999
 20
374.445545
 10
541.9
 20
378.8
 10
541.1
 20
379.2
 10
534.25
 20
379.75
 10
534
 20
379
 10
540.8
 20
362.9
 10
543.3
 20
356.1
 10
550.2
 20
343.1
 10
552.248619
 20
339.223757
 10
570
 20
320
 10
571
 20
320
 10
576.249057
 20
314.228302
 10
586.750943
 20
302.771698
 10
588.524887
 20
298.977376
 10
590
 20
278
 10
588.352941
 20
259.911765
 10
587.3
 20
255.9
 10
568.2
 20
227.9
 10
566.230769
 20
224.846154
 10
560.750943
 20
217.228302
 10
550
 20
205
 10
548.153846
 20
203.769231
 10
536
 20
196
 10
520.756098
 20
179.195122
 10
516
 20
173
 10
501.088235
 20
167.647059
 10
494
 20
166
 10
494
 20
165
 10
496
 20
163
 10
496
 20
157
 10
486.7
 20
136.1
 10
486.352941
 20
134.911765
 10
485
 20
130
 10
486
 20
129
 10
504
 20
125
 10
522.076923
 20
126.615385
 10
527.0675680000001
 20
127.594595
 10
533.846154
 20
129.230769
 10
536.153846
 20
130.769231
 10
543
 20
137
 10
548.230769
 20
147.846154
 10
550
 20
150
 10
533.9400000000001
 20
153.58
 10
528
 20
154
 10
527
 20
155
 10
528
 20
160
 10
529
 20
161
 10
550.1
 20
161.8
 10
560.9
 20
171.2
 10
570.9117649999999
 20
174.352941
 10
588.75
 20
178.25
 10
588.5448280000001
 20
189.962069
 10
588.2
 20
191.1
 10
583
 20
199
 10
583
 20
201
 10
596.247059
 20
218.788235
 10
612
 20
237
 10
625.1
 20
242.8
 10
630.153846
 20
245.769231
 10
642
 20
253
 10
646
 20
257
 10
649
 20
263
 10
646.405405
 20
277.067568
 10
644
 20
294
 10
645
 20
295
 10
648.8
 20
292.6
 10
673.9
 20
275.8
 10
697.1
 20
266.3
 10
699
 20
266
 10
706
 20
259
 10
725.230769
 20
235.153846
 10
728
 20
231
 10
724.3
 20
219.9
 10
716.7
 20
201.1
 10
706.8
 20
183.1
 10
706.2
 20
181.9
 10
674
 20
143
 10
667.9
 20
139.2
 10
665.1
 20
137.8
 10
652.9117649999999
 20
133.352941
 10
650
 20
133
 10
648
 20
131
 10
650
 20
129
 10
650
 20
121
 10
641.8
 20
106.1
 10
641.2
 20
104.9
 10
637
 20
98
 10
639
 20
96
 10
641.076923
 20
95.384615
 10
644.923077
 20
94.615385
 10
662.029183
 20
91.466926
 10
677
 20
91
  0
ENDSEC
  0
SECTION
  2
OBJECTS
  0
DICTIONARY
  5
C
330
0
100
AcDbDictionary
281
    1
  3
ACAD_GROUP
350
D
  0
DICTIONARY
  5
D
330
C
100
AcDbDictionary
281
    1
  0
ENDSEC
  0
EOF
