999
dxflib 3.12.2.0
  0
SECTION
  2
HEADER
  9
$ACADVER
  1
AC1015
  9
$HANDSEED
  5
FFFF
  9
$DIMADEC
 70
0
  9
$DIMASZ
 40
0.18
  9
$DIMAUNIT
 70
0
  9
$DIMAZIN
 70
0
  9
$DIMDEC
 70
4
  9
$DIMEXE
 40
0.18
  9
$DIMEXO
 40
0.0625
  9
$DIMGAP
 40
0.09
  9
$DIMLUNIT
 70
2
  9
$DIMSCALE
 40
1.0
  9
$DIMTSZ
 40
0.0
  9
$DIMTXT
 40
0.18
  9
$DIMZIN
 70
0
  9
$DWGCODEPAGE
  3
ANSI_1252
  9
$EXTMAX
 10
1107.0
 20
940.0
 30
0.0
  9
$EXTMIN
 10
0.0
 20
0.0
 30
0.0
  9
$INSBASE
 10
0.0
 20
0.0
 30
0.0
  9
$INSUNITS
 70
0
  9
$LIMCHECK
 70
0
  9
$LIMMAX
 10
1107.0
 20
940.0
  9
$LIMMIN
 10
0.0
 20
0.0
  9
$LTSCALE
 40
1.0
  9
$LUNITS
 70
2
  9
$LUPREC
 70
3
  9
$MEASUREMENT
 70
1
  9
$PDMODE
 70
0
  9
$PDSIZE
 40
0
  9
$UCSNAME
  2

  9
$UCSORG
 10
0.0
 20
0.0
 30
0.0
  9
$UCSXDIR
 10
1.0
 20
0.0
 30
0.0
  9
$UCSYDIR
 10
0.0
 20
1.0
 30
0.0
  9
$UNITMODE
 70
0
  0
ENDSEC
  0
SECTION
  2
TABLES
  0
TABLE
  2
VPORT
  5
8
100
AcDbSymbolTable
 70
1
  0
VPORT
  5
30
100
AcDbSymbolTableRecord
100
AcDbViewportTableRecord
  2
*Active
 70
0
 10
0.0
 20
0.0
 11
1.0
 21
1.0
 12
286.30555555555549
 22
148.5
 13
0.0
 23
0.0
 14
10.0
 24
10.0
 15
10.0
 25
10.0
 16
0.0
 26
0.0
 36
1.0
 17
0.0
 27
0.0
 37
0.0
 40
297.0
 41
1.92798353909465
 42
50.0
 43
0.0
 44
0.0
 50
0.0
 51
0.0
 71
0
 72
100
 73
1
 74
3
 75
1
 76
1
 77
0
 78
0
281
0
 65
1
110
0.0
120
0.0
130
0.0
111
1.0
121
0.0
131
0.0
112
0.0
122
1.0
132
0.0
 79
0
146
0.0
  0
ENDTAB
  0
TABLE
  2
LTYPE
  5
5
100
AcDbSymbolTable
 70
41
  0
LTYPE
  5
16
100
AcDbSymbolTableRecord
100
AcDbLinetypeTableRecord
  2
CONTINUOUS
 70
0
  3
Solid line
 72
65
 73
0
 40
0.0
  0
LTYPE
  5
31
100
AcDbSymbolTableRecord
100
AcDbLinetypeTableRecord
  2
ACAD_ISO15W100
 70
0
  3
ISO double-dash triple-dot __ __ . . . __ __ . .
 72
65
 73
10
 40
39.0
 49
12.0
 74
0
 49
-3.0
 74
0
 49
12.0
 74
0
 49
-3.0
 74
0
 49
0.0
 74
0
 49
-3.0
 74
0
 49
0.0
 74
0
 49
-3.0
 74
0
 49
0.0
 74
0
 49
-3.0
 74
0
  0
LTYPE
  5
32
100
AcDbSymbolTableRecord
100
AcDbLinetypeTableRecord
  2
DIVIDE
 70
0
  3
Divide ____ . . ____ . . ____ . . ____ . . ____
 72
65
 73
6
 40
31.75
 49
12.699999999999999
 74
0
 49
-6.3499999999999996
 74
0
 49
0.0
 74
0
 49
-6.3499999999999996
 74
0
 49
0.0
 74
0
 49
-6.3499999999999996
 74
0
  0
LTYPE
  5
33
100
AcDbSymbolTableRecord
100
AcDbLinetypeTableRecord
  2
ACAD_ISO10W100
 70
0
  3
ISO dash dot __ . __ . __ . __ . __ . __ . __ . 
 72
65
 73
4
 40
18.0
 49
12.0
 74
0
 49
-3.0
 74
0
 49
0.0
 74
0
 49
-3.0
 74
0
  0
LTYPE
  5
34
100
AcDbSymbolTableRecord
100
AcDbLinetypeTableRecord
  2
ACAD_ISO04W100
 70
0
  3
ISO long-dash dot ____ . ____ . ____ . ____ . _
 72
65
 73
4
 40
30.0
 49
24.0
 74
0
 49
-3.0
 74
0
 49
0.0
 74
0
 49
-3.0
 74
0
  0
LTYPE
  5
35
100
AcDbSymbolTableRecord
100
AcDbLinetypeTableRecord
  2
CENTER2
 70
0
  3
Center (.5x) ___ _ ___ _ ___ _ ___ _ ___ _ ___
 72
65
 73
4
 40
28.575000000000003
 49
19.050000000000001
 74
0
 49
-3.1749999999999998
 74
0
 49
3.1749999999999998
 74
0
 49
-3.1749999999999998
 74
0
  0
LTYPE
  5
36
100
AcDbSymbolTableRecord
100
AcDbLinetypeTableRecord
  2
ACAD_ISO11W100
 70
0
  3
ISO double-dash dot __ __ . __ __ . __ __ . __ _
 72
65
 73
6
 40
33.0
 49
12.0
 74
0
 49
-3.0
 74
0
 49
12.0
 74
0
 49
-3.0
 74
0
 49
0.0
 74
0
 49
-3.0
 74
0
  0
LTYPE
  5
37
100
AcDbSymbolTableRecord
100
AcDbLinetypeTableRecord
  2
HIDDEN2
 70
0
  3
Hidden (.5x) _ _ _ _ _ _ _ _ _ _ _ _ _ _ _ _ _ 
 72
65
 73
2
 40
4.7624999999999993
 49
3.1749999999999998
 74
0
 49
-1.5874999999999999
 74
0
  0
LTYPE
  5
38
100
AcDbSymbolTableRecord
100
AcDbLinetypeTableRecord
  2
BORDERX2
 70
0
  3
Border (2x) ____  ____  .  ____  ____  .  ___
 72
65
 73
6
 40
88.899999999999991
 49
25.399999999999999
 74
0
 49
-12.699999999999999
 74
0
 49
25.399999999999999
 74
0
 49
-12.699999999999999
 74
0
 49
0.0
 74
0
 49
-12.699999999999999
 74
0
  0
LTYPE
  5
39
100
AcDbSymbolTableRecord
100
AcDbLinetypeTableRecord
  2
ACAD_ISO05W100
 70
0
  3
ISO long-dash double-dot ____ .. ____ .. ____ . 
 72
65
 73
6
 40
33.0
 49
24.0
 74
0
 49
-3.0
 74
0
 49
0.0
 74
0
 49
-3.0
 74
0
 49
0.0
 74
0
 49
-3.0
 74
0
  0
LTYPE
  5
3A
100
AcDbSymbolTableRecord
100
AcDbLinetypeTableRecord
  2
DASHDOTX2
 70
0
  3
Dash dot (2x) ____  .  ____  .  ____  .  ___
 72
65
 73
4
 40
50.799999999999997
 49
25.399999999999999
 74
0
 49
-12.699999999999999
 74
0
 49
0.0
 74
0
 49
-12.699999999999999
 74
0
  0
LTYPE
  5
3B
100
AcDbSymbolTableRecord
100
AcDbLinetypeTableRecord
  2
HIDDENX2
 70
0
  3
Hidden (2x) ____ ____ ____ ____ ____ ____ ____ 
 72
65
 73
2
 40
19.049999999999997
 49
12.699999999999999
 74
0
 49
-6.3499999999999996
 74
0
  0
LTYPE
  5
3C
100
AcDbSymbolTableRecord
100
AcDbLinetypeTableRecord
  2
CENTERX2
 70
0
  3
Center (2x) ________  __  ________  __  _____
 72
65
 73
4
 40
101.60000000000001
 49
63.5
 74
0
 49
-12.699999999999999
 74
0
 49
12.699999999999999
 74
0
 49
-12.699999999999999
 74
0
  0
LTYPE
  5
3D
100
AcDbSymbolTableRecord
100
AcDbLinetypeTableRecord
  2
BORDER2
 70
0
  3
Border (.5x) __.__.__.__.__.__.__.__.__.__.__.
 72
65
 73
6
 40
22.224999999999998
 49
6.3499999999999996
 74
0
 49
-3.1749999999999998
 74
0
 49
6.3499999999999996
 74
0
 49
-3.1749999999999998
 74
0
 49
0.0
 74
0
 49
-3.1749999999999998
 74
0
  0
LTYPE
  5
3E
100
AcDbSymbolTableRecord
100
AcDbLinetypeTableRecord
  2
DASHDOT2
 70
0
  3
Dash dot (.5x) _._._._._._._._._._._._._._._.
 72
65
 73
4
 40
12.699999999999999
 49
6.3499999999999996
 74
0
 49
-3.1749999999999998
 74
0
 49
0.0
 74
0
 49
-3.1749999999999998
 74
0
  0
LTYPE
  5
3F
100
AcDbSymbolTableRecord
100
AcDbLinetypeTableRecord
  2
ACAD_ISO12W100
 70
0
  3
ISO dash double-dot __ . . __ . . __ . . __ . . 
 72
65
 73
6
 40
21.0
 49
12.0
 74
0
 49
-3.0
 74
0
 49
0.0
 74
0
 49
-3.0
 74
0
 49
0.0
 74
0
 49
-3.0
 74
0
  0
LTYPE
  5
40
100
AcDbSymbolTableRecord
100
AcDbLinetypeTableRecord
  2
ACAD_ISO07W100
 70
0
  3
ISO dot . . . . . . . . . . . . . . . . . . . . 
 72
65
 73
2
 40
3.0
 49
0.0
 74
0
 49
-3.0
 74
0
  0
LTYPE
  5
41
100
AcDbSymbolTableRecord
100
AcDbLinetypeTableRecord
  2
HIDDEN
 70
0
  3
Hidden __ __ __ __ __ __ __ __ __ __ __ __ __ __
 72
65
 73
2
 40
9.5249999999999986
 49
6.3499999999999996
 74
0
 49
-3.1749999999999998
 74
0
  0
LTYPE
  5
42
100
AcDbSymbolTableRecord
100
AcDbLinetypeTableRecord
  2
ACAD_ISO06W100
 70
0
  3
ISO long-dash triple-dot ____ ... ____ ... ____
 72
65
 73
8
 40
36.0
 49
24.0
 74
0
 49
-3.0
 74
0
 49
0.0
 74
0
 49
-3.0
 74
0
 49
0.0
 74
0
 49
-3.0
 74
0
 49
0.0
 74
0
 49
-3.0
 74
0
  0
LTYPE
  5
43
100
AcDbSymbolTableRecord
100
AcDbLinetypeTableRecord
  2
CENTER
 70
0
  3
Center ____ _ ____ _ ____ _ ____ _ ____ _ ____
 72
65
 73
4
 40
50.800000000000004
 49
31.75
 74
0
 49
-6.3499999999999996
 74
0
 49
6.3499999999999996
 74
0
 49
-6.3499999999999996
 74
0
  0
LTYPE
  5
44
100
AcDbSymbolTableRecord
100
AcDbLinetypeTableRecord
  2
DOTX2
 70
0
  3
Dot (2x) .  .  .  .  .  .  .  .  .  .  .  .  .  .
 72
65
 73
2
 40
12.699999999999999
 49
0.0
 74
0
 49
-12.699999999999999
 74
0
  0
LTYPE
  5
45
100
AcDbSymbolTableRecord
100
AcDbLinetypeTableRecord
  2
PHANTOM
 70
0
  3
Phantom ______  __  __  ______  __  __  ______ 
 72
65
 73
6
 40
63.500000000000007
 49
31.75
 74
0
 49
-6.3499999999999996
 74
0
 49
6.3499999999999996
 74
0
 49
-6.3499999999999996
 74
0
 49
6.3499999999999996
 74
0
 49
-6.3499999999999996
 74
0
  0
LTYPE
  5
46
100
AcDbSymbolTableRecord
100
AcDbLinetypeTableRecord
  2
ACAD_ISO08W100
 70
0
  3
ISO long-dash short-dash ____ __ ____ __ ____ _
 72
65
 73
4
 40
36.0
 49
24.0
 74
0
 49
-3.0
 74
0
 49
6.0
 74
0
 49
-3.0
 74
0
  0
LTYPE
  5
47
100
AcDbSymbolTableRecord
100
AcDbLinetypeTableRecord
  2
DASHEDX2
 70
0
  3
Dashed (2x) ____  ____  ____  ____  ____  ___
 72
65
 73
2
 40
38.099999999999994
 49
25.399999999999999
 74
0
 49
-12.699999999999999
 74
0
  0
LTYPE
  5
48
100
AcDbSymbolTableRecord
100
AcDbLinetypeTableRecord
  2
ACAD_ISO02W100
 70
0
  3
ISO dash __ __ __ __ __ __ __ __ __ __ __ __ __
 72
65
 73
2
 40
15.0
 49
12.0
 74
0
 49
-3.0
 74
0
  0
LTYPE
  5
49
100
AcDbSymbolTableRecord
100
AcDbLinetypeTableRecord
  2
PHANTOM2
 70
0
  3
Phantom (.5x) ___ _ _ ___ _ _ ___ _ _ ___ _ _
 72
65
 73
6
 40
31.750000000000004
 49
15.875
 74
0
 49
-3.1749999999999998
 74
0
 49
3.1749999999999998
 74
0
 49
-3.1749999999999998
 74
0
 49
3.1749999999999998
 74
0
 49
-3.1749999999999998
 74
0
  0
LTYPE
  5
4A
100
AcDbSymbolTableRecord
100
AcDbLinetypeTableRecord
  2
DASHED2
 70
0
  3
Dashed (.5x) _ _ _ _ _ _ _ _ _ _ _ _ _ _ _ _ _ 
 72
65
 73
2
 40
9.5249999999999986
 49
6.3499999999999996
 74
0
 49
-3.1749999999999998
 74
0
  0
LTYPE
  5
4B
100
AcDbSymbolTableRecord
100
AcDbLinetypeTableRecord
  2
ACAD_ISO09W100
 70
0
  3
ISO long-dash double-short-dash ____ __ __ ____
 72
65
 73
6
 40
45.0
 49
24.0
 74
0
 49
-3.0
 74
0
 49
6.0
 74
0
 49
-3.0
 74
0
 49
6.0
 74
0
 49
-3.0
 74
0
  0
LTYPE
  5
4C
100
AcDbSymbolTableRecord
100
AcDbLinetypeTableRecord
  2
ACAD_ISO13W100
 70
0
  3
ISO double-dash double-dot __ __ . . __ __ . . _
 72
65
 73
8
 40
36.0
 49
12.0
 74
0
 49
-3.0
 74
0
 49
12.0
 74
0
 49
-3.0
 74
0
 49
0.0
 74
0
 49
-3.0
 74
0
 49
0.0
 74
0
 49
-3.0
 74
0
  0
LTYPE
  5
4D
100
AcDbSymbolTableRecord
100
AcDbLinetypeTableRecord
  2
DOT2
 70
0
  3
Dot (.5x) ........................................
 72
65
 73
2
 40
3.1749999999999998
 49
0.0
 74
0
 49
-3.1749999999999998
 74
0
  0
LTYPE
  5
4E
100
AcDbSymbolTableRecord
100
AcDbLinetypeTableRecord
  2
DASHED
 70
0
  3
Dashed __ __ __ __ __ __ __ __ __ __ __ __ __ _
 72
65
 73
2
 40
19.049999999999997
 49
12.699999999999999
 74
0
 49
-6.3499999999999996
 74
0
  0
LTYPE
  5
4F
100
AcDbSymbolTableRecord
100
AcDbLinetypeTableRecord
  2
ACAD_ISO14W100
 70
0
  3
ISO dash triple-dot __ . . . __ . . . __ . . . _
 72
65
 73
8
 40
24.0
 49
12.0
 74
0
 49
-3.0
 74
0
 49
0.0
 74
0
 49
-3.0
 74
0
 49
0.0
 74
0
 49
-3.0
 74
0
 49
0.0
 74
0
 49
-3.0
 74
0
  0
LTYPE
  5
15
100
AcDbSymbolTableRecord
100
AcDbLinetypeTableRecord
  2
BYLAYER
 70
0
  3

 72
65
 73
0
 40
0.0
  0
LTYPE
  5
50
100
AcDbSymbolTableRecord
100
AcDbLinetypeTableRecord
  2
PHANTOMX2
 70
0
  3
Phantom (2x) ____________    ____    ____   _
 72
65
 73
6
 40
127.00000000000001
 49
63.5
 74
0
 49
-12.699999999999999
 74
0
 49
12.699999999999999
 74
0
 49
-12.699999999999999
 74
0
 49
12.699999999999999
 74
0
 49
-12.699999999999999
 74
0
  0
LTYPE
  5
14
100
AcDbSymbolTableRecord
100
AcDbLinetypeTableRecord
  2
BYBLOCK
 70
0
  3

 72
65
 73
0
 40
0.0
  0
LTYPE
  5
51
100
AcDbSymbolTableRecord
100
AcDbLinetypeTableRecord
  2
DIVIDEX2
 70
0
  3
Divide (2x) ________  .  .  ________  .  .  _
 72
65
 73
6
 40
63.5
 49
25.399999999999999
 74
0
 49
-12.699999999999999
 74
0
 49
0.0
 74
0
 49
-12.699999999999999
 74
0
 49
0.0
 74
0
 49
-12.699999999999999
 74
0
  0
LTYPE
  5
52
100
AcDbSymbolTableRecord
100
AcDbLinetypeTableRecord
  2
BORDER
 70
0
  3
Border __ __ . __ __ . __ __ . __ __ . __ __ .
 72
65
 73
6
 40
44.449999999999996
 49
12.699999999999999
 74
0
 49
-6.3499999999999996
 74
0
 49
12.699999999999999
 74
0
 49
-6.3499999999999996
 74
0
 49
0.0
 74
0
 49
-6.3499999999999996
 74
0
  0
LTYPE
  5
53
100
AcDbSymbolTableRecord
100
AcDbLinetypeTableRecord
  2
DIVIDE2
 70
0
  3
Divide (.5x) __..__..__..__..__..__..__..__.._
 72
65
 73
6
 40
15.875
 49
6.3499999999999996
 74
0
 49
-3.1749999999999998
 74
0
 49
0.0
 74
0
 49
-3.1749999999999998
 74
0
 49
0.0
 74
0
 49
-3.1749999999999998
 74
0
  0
LTYPE
  5
54
100
AcDbSymbolTableRecord
100
AcDbLinetypeTableRecord
  2
DOT
 70
0
  3
Dot . . . . . . . . . . . . . . . . . . . . . . . .
 72
65
 73
2
 40
6.3499999999999996
 49
0.0
 74
0
 49
-6.3499999999999996
 74
0
  0
LTYPE
  5
55
100
AcDbSymbolTableRecord
100
AcDbLinetypeTableRecord
  2
DASHDOT
 70
0
  3
Dash dot __ . __ . __ . __ . __ . __ . __ . __
 72
65
 73
4
 40
25.399999999999999
 49
12.699999999999999
 74
0
 49
-6.3499999999999996
 74
0
 49
0.0
 74
0
 49
-6.3499999999999996
 74
0
  0
LTYPE
  5
56
100
AcDbSymbolTableRecord
100
AcDbLinetypeTableRecord
  2
ACAD_ISO03W100
 70
0
  3
ISO dash space __    __    __    __    __    __
 72
65
 73
2
 40
30.0
 49
12.0
 74
0
 49
-18.0
 74
0
  0
ENDTAB
  0
TABLE
  2
LAYER
  5
2
100
AcDbSymbolTable
 70
1
  0
LAYER
  5
10
100
AcDbSymbolTableRecord
100
AcDbLayerTableRecord
  2
0
 70
0
 62
7
420
16777215
  6
CONTINUOUS
370
5
390
F
  0
ENDTAB
  0
TABLE
  2
STYLE
  5
3
100
AcDbSymbolTable
 70
1
  0
STYLE
  5
57
100
AcDbSymbolTableRecord
100
AcDbTextStyleTableRecord
  2
Standard
 70
0
 40
0.0
 41
1.0
 50
0.0
 71
0
 42
2.5
  3

  4

1001
ACAD
1000
txt
1071
0
  0
ENDTAB
  0
TABLE
  2
VIEW
  5
6
100
AcDbSymbolTable
 70
0
  0
ENDTAB
  0
TABLE
  2
UCS
  5
7
100
AcDbSymbolTable
 70
0
  0
ENDTAB
  0
TABLE
  2
APPID
  5
9
100
AcDbSymbolTable
 70
1
  0
APPID
  5
12
100
AcDbSymbolTableRecord
100
AcDbRegAppTableRecord
  2
ACAD
 70
0
  0
APPID
  5
58
100
AcDbSymbolTableRecord
100
AcDbRegAppTableRecord
  2
QCAD
 70
0
  0
ENDTAB
  0
TABLE
  2
DIMSTYLE
  5
A
100
AcDbSymbolTable
 70
1
100
AcDbDimStyleTable
 71
0
  0
DIMSTYLE
105
27
100
AcDbSymbolTableRecord
100
AcDbDimStyleTableRecord
  2
Standard
 41
0.18
 42
0.0625
 43
3.75
 44
0.18
 70
0
 73
0
 74
0
 77
1
 78
8
140
0.18
141
2.5
143
0.03937007874016
147
0.09
171
3
172
1
271
2
272
2
274
3
278
44
283
0
284
8
340
57
  0
ENDTAB
  0
TABLE
  2
BLOCK_RECORD
  5
1
100
AcDbSymbolTable
 70
1
  0
BLOCK_RECORD
  5
1F
100
AcDbSymbolTableRecord
100
AcDbBlockTableRecord
  2
*Model_Space
340
22
  0
BLOCK_RECORD
  5
1B
100
AcDbSymbolTableRecord
100
AcDbBlockTableRecord
  2
*Paper_Space
340
1E
  0
BLOCK_RECORD
  5
23
100
AcDbSymbolTableRecord
100
AcDbBlockTableRecord
  2
*Paper_Space0
340
26
  0
ENDTAB
  0
ENDSEC
  0
SECTION
  2
BLOCKS
  0
BLOCK
  5
20
100
AcDbEntity
  8
0
100
AcDbBlockBegin
  2
*Model_Space
 70
0
 10
0.0
 20
0.0
 30
0.0
  3
*Model_Space
  1

  0
ENDBLK
  5
21
100
AcDbEntity
  8
0
100
AcDbBlockEnd
  0
BLOCK
  5
1C
100
AcDbEntity
 67
1
  8
0
100
AcDbBlockBegin
  2
*Paper_Space
 70
0
 10
0.0
 20
0.0
 30
0.0
  3
*Paper_Space
  1

  0
ENDBLK
  5
1D
100
AcDbEntity
 67
1
  8
0
100
AcDbBlockEnd
  0
BLOCK
  5
24
100
AcDbEntity
  8
0
100
AcDbBlockBegin
  2
*Paper_Space0
 70
0
 10
0.0
 20
0.0
 30
0.0
  3
*Paper_Space0
  1

  0
ENDBLK
  5
25
100
AcDbEntity
  8
0
100
AcDbBlockEnd
  0
ENDSEC
  0
SECTION
  2
ENTITIES
  0
LWPOLYLINE
  5
59
  8
0
 62
256
370
-1
 48
1.0
  6
BYLAYER
100
AcDbEntity
100
AcDbPolyline
 90
14
 70
0
 10
385.0
 20
823.0
 30
0.0
 10
388.0
 20
824.0
 30
0.0
 10
390.0
 20
826.0
 30
0.0
 10
391.0
 20
830.0
 30
0.0
 10
390.30000000000001
 20
834.10000000000002
 30
0.0
 10
390.0
 20
836.0
 30
0.0
 10
385.0
 20
840.0
 30
0.0
 10
381.0
 20
840.0
 30
0.0
 10
375.10000000000002
 20
837.70000000000005
 30
0.0
 10
366.0
 20
834.0
 30
0.0
 10
369.609756
 20
831.51219500000002
 30
0.0
 10
378.615385
 20
824.92307700000003
 30
0.0
 10
383.10000000000002
 20
823.29999999999995
 30
0.0
 10
385.0
 20
823.0
 30
0.0
  0
LWPOLYLINE
  5
5A
  8
0
 62
256
370
-1
 48
1.0
  6
BYLAYER
100
AcDbEntity
100
AcDbPolyline
 90
14
 70
0
 10
306.0
 20
789.0
 30
0.0
 10
311.0
 20
793.0
 30
0.0
 10
311.0
 20
799.0
 30
0.0
 10
309.0
 20
803.0
 30
0.0
 10
305.0
 20
805.0
 30
0.0
 10
298.0
 20
805.0
 30
0.0
 10
297.0
 20
804.0
 30
0.0
 10
299.0
 20
803.0
 30
0.0
 10
302.0
 20
800.0
 30
0.0
 10
303.0
 20
794.0
 30
0.0
 10
301.76923099999999
 20
792.15384600000004
 30
0.0
 10
300.0
 20
790.0
 30
0.0
 10
301.0
 20
789.0
 30
0.0
 10
306.0
 20
789.0
 30
0.0
  0
LWPOLYLINE
  5
5B
  8
0
 62
256
370
-1
 48
1.0
  6
BYLAYER
100
AcDbEntity
100
AcDbPolyline
 90
27
 70
0
 10
504.0
 20
621.0
 30
0.0
 10
505.76923099999999
 20
623.15384600000004
 30
0.0
 10
512.70000000000005
 20
647.10000000000002
 30
0.0
 10
513.29999999999995
 20
648.89999999999998
 30
0.0
 10
519.38461500000005
 20
673.92307700000003
 30
0.0
 10
527.0
 20
718.0
 30
0.0
 10
527.0
 20
759.0
 30
0.0
 10
524.64705900000001
 20
768.91176499999995
 30
0.0
 10
519.64705900000001
 20
785.91176499999995
 30
0.0
 10
507.80000000000001
 20
809.89999999999998
 30
0.0
 10
507.19999999999999
 20
811.10000000000002
 30
0.0
 10
503.0
 20
819.0
 30
0.0
 10
496.0
 20
826.0
 30
0.0
 10
495.0
 20
826.0
 30
0.0
 10
490.0
 20
821.0
 30
0.0
 10
504.19999999999999
 20
798.10000000000002
 30
0.0
 10
510.64705900000001
 20
781.91176499999995
 30
0.0
 10
512.35294099999999
 20
775.08823500000005
 30
0.0
 10
516.53807099999995
 20
759.96700499999997
 30
0.0
 10
517.46192900000005
 20
747.03299500000003
 30
0.0
 10
518.0
 20
723.0
 30
0.0
 10
514.59459500000003
 20
705.06756800000005
 30
0.0
 10
513.55445499999996
 20
695.04455399999995
 30
0.0
 10
511.69999999999999
 20
689.10000000000002
 30
0.0
 10
511.30000000000001
 20
687.89999999999998
 30
0.0
 10
497.0
 20
632.0
 30
0.0
 10
504.0
 20
621.0
 30
0.0
  0
LWPOLYLINE
  5
5C
  8
0
 62
256
370
-1
 48
1.0
  6
BYLAYER
100
AcDbEntity
100
AcDbPolyline
 90
840
 70
0
 10
677.0
 20
91.0
 30
0.0
 10
688.93243199999995
 20
93.405405000000002
 30
0.0
 10
700.0
 20
101.0
 30
0.0
 10
702.20000000000005
 20
105.90000000000001
 30
0.0
 10
707.0
 20
115.0
 30
0.0
 10
706.0
 20
116.0
 30
0.0
 10
697.94000000000005
 20
117.58
 30
0.0
 10
682.0
 20
120.0
 30
0.0
 10
681.0
 20
121.0
 30
0.0
 10
682.0
 20
124.0
 30
0.0
 10
685.0
 20
127.0
 30
0.0
 10
707.0
 20
127.0
 30
0.0
 10
710.23076900000001
 20
131.84615400000001
 30
0.0
 10
712.0
 20
135.0
 30
0.0
 10
714.84615399999996
 20
137.23076900000001
 30
0.0
 10
717.15384600000004
 20
138.76923099999999
 30
0.0
 10
728.89999999999998
 20
146.19999999999999
 30
0.0
 10
740.05999999999995
 20
148.58000000000001
 30
0.0
 10
746.0
 20
149.0
 30
0.0
 10
747.0
 20
150.0
 30
0.0
 10
748.0
 20
152.0
 30
0.0
 10
747.35294099999999
 20
158.088235
 30
0.0
 10
746.64705900000001
 20
160.911765
 30
0.0
 10
740.0
 20
170.0
 30
0.0
 10
739.0
 20
170.0
 30
0.0
 10
737.0
 20
172.0
 30
0.0
 10
737.0
 20
178.0
 30
0.0
 10
738.35294099999999
 20
181.911765
 30
0.0
 10
751.23076900000001
 20
208.84615400000001
 30
0.0
 10
752.76923099999999
 20
211.15384599999999
 30
0.0
 10
766.24390200000005
 20
230.804878
 30
0.0
 10
769.75609799999995
 20
235.195122
 30
0.0
 10
774.79999999999995
 20
244.09999999999999
 30
0.0
 10
777.56923099999995
 20
251.05384599999999
 30
0.0
 10
779.0
 20
264.0
 30
0.0
 10
778.0
 20
266.0
 30
0.0
 10
769.19512199999997
 20
274.24390199999999
 30
0.0
 10
764.0
 20
278.0
 30
0.0
 10
751.20000000000005
 20
295.10000000000002
 30
0.0
 10
748.76923099999999
 20
298.84615400000001
 30
0.0
 10
737.0
 20
316.0
 30
0.0
 10
734.0
 20
317.0
 30
0.0
 10
732.0
 20
319.0
 30
0.0
 10
732.0
 20
323.0
 30
0.0
 10
746.76923099999999
 20
347.15384599999999
 30
0.0
 10
758.79999999999995
 20
369.10000000000002
 30
0.0
 10
768.29999999999995
 20
390.89999999999998
 30
0.0
 10
773.0
 20
406.0
 30
0.0
 10
773.0
 20
426.0
 30
0.0
 10
769.79999999999995
 20
433.89999999999998
 30
0.0
 10
769.0
 20
435.0
 30
0.0
 10
773.0
 20
438.0
 30
0.0
 10
778.0
 20
438.0
 30
0.0
 10
784.0
 20
428.0
 30
0.0
 10
785.0
 20
427.0
 30
0.0
 10
787.0
 20
427.0
 30
0.0
 10
790.0
 20
423.0
 30
0.0
 10
794.20000000000005
 20
421.39999999999998
 30
0.0
 10
805.82000000000005
 20
416.75999999999999
 30
0.0
 10
810.0
 20
414.0
 30
0.0
 10
811.29999999999995
 20
409.10000000000002
 30
0.0
 10
811.70000000000005
 20
407.89999999999998
 30
0.0
 10
812.29999999999995
 20
403.89999999999998
 30
0.0
 10
811.29999999999995
 20
400.89999999999998
 30
0.0
 10
810.0
 20
396.0
 30
0.0
 10
811.0
 20
395.0
 30
0.0
 10
812.20000000000005
 20
396.89999999999998
 30
0.0
 10
819.29411800000003
 20
408.17647099999999
 30
0.0
 10
821.0
 20
420.0
 30
0.0
 10
822.0
 20
421.0
 30
0.0
 10
824.0
 20
419.0
 30
0.0
 10
824.0
 20
417.0
 30
0.0
 10
829.89999999999998
 20
411.80000000000001
 30
0.0
 10
847.15384600000004
 20
409.23076900000001
 30
0.0
 10
851.0
 20
407.0
 30
0.0
 10
852.0
 20
408.0
 30
0.0
 10
851.58000000000004
 20
413.94
 30
0.0
 10
849.91191700000002
 20
419.36528499999997
 30
0.0
 10
839.29999999999995
 20
434.10000000000002
 30
0.0
 10
838.51999999999998
 20
435.63999999999999
 30
0.0
 10
833.0
 20
442.0
 30
0.0
 10
834.0
 20
443.0
 30
0.0
 10
836.0
 20
443.0
 30
0.0
 10
839.79999999999995
 20
440.60000000000002
 30
0.0
 10
844.0
 20
438.0
 30
0.0
 10
852.0
 20
438.0
 30
0.0
 10
853.0
 20
439.0
 30
0.0
 10
856.0
 20
439.0
 30
0.0
 10
859.89999999999998
 20
436.80000000000001
 30
0.0
 10
861.89999999999998
 20
435.80000000000001
 30
0.0
 10
875.06756800000005
 20
438.59459500000003
 30
0.0
 10
880.75
 20
439.25
 30
0.0
 10
879.0
 20
445.0
 30
0.0
 10
876.0
 20
448.0
 30
0.0
 10
867.0
 20
451.0
 30
0.0
 10
867.0
 20
452.0
 30
0.0
 10
863.0
 20
456.0
 30
0.0
 10
861.10000000000002
 20
456.30000000000001
 30
0.0
 10
857.0
 20
458.0
 30
0.0
 10
857.0
 20
460.0
 30
0.0
 10
858.0
 20
461.0
 30
0.0
 10
870.0
 20
461.0
 30
0.0
 10
871.89999999999998
 20
459.80000000000001
 30
0.0
 10
877.0
 20
456.0
 30
0.0
 10
882.0
 20
456.0
 30
0.0
 10
885.84615399999996
 20
458.23076900000001
 30
0.0
 10
896.0
 20
465.0
 30
0.0
 10
895.0
 20
467.0
 30
0.0
 10
887.08823500000005
 20
470.35294099999999
 30
0.0
 10
885.89999999999998
 20
470.80000000000001
 30
0.0
 10
881.216814
 20
473.24778800000001
 30
0.0
 10
870.0
 20
483.0
 30
0.0
 10
871.0
 20
484.0
 30
0.0
 10
879.85599999999999
 20
484.79199999999997
 30
0.0
 10
882.84615399999996
 20
486.23076900000001
 30
0.0
 10
891.0
 20
490.0
 30
0.0
 10
896.0
 20
490.0
 30
0.0
 10
898.0
 20
488.0
 30
0.0
 10
903.0
 20
488.0
 30
0.0
 10
908.0
 20
491.0
 30
0.0
 10
910.0
 20
493.0
 30
0.0
 10
910.0
 20
494.0
 30
0.0
 10
908.19512199999997
 20
495.24390199999999
 30
0.0
 10
893.0
 20
506.0
 30
0.0
 10
871.0
 20
505.0
 30
0.0
 10
861.0
 20
509.0
 30
0.0
 10
854.0
 20
509.0
 30
0.0
 10
843.10000000000002
 20
505.69999999999999
 30
0.0
 10
842.0
 20
505.0
 30
0.0
 10
840.0
 20
506.0
 30
0.0
 10
844.0
 20
511.0
 30
0.0
 10
845.89999999999998
 20
512.20000000000005
 30
0.0
 10
860.03529400000002
 20
518.54117599999995
 30
0.0
 10
885.96700499999997
 20
520.46192900000005
 30
0.0
 10
890.79999999999995
 20
522.39999999999998
 30
0.0
 10
894.0
 20
524.0
 30
0.0
 10
897.0
 20
528.0
 30
0.0
 10
902.0
 20
528.0
 30
0.0
 10
905.91176499999995
 20
526.64705900000001
 30
0.0
 10
907.0
 20
526.0
 30
0.0
 10
911.0
 20
526.0
 30
0.0
 10
914.89999999999998
 20
528.20000000000005
 30
0.0
 10
921.36514499999998
 20
531.63070500000003
 30
0.0
 10
933.10000000000002
 20
533.79999999999995
 30
0.0
 10
940.0
 20
539.0
 30
0.0
 10
937.0
 20
542.0
 30
0.0
 10
927.89999999999998
 20
546.79999999999995
 30
0.0
 10
927.10000000000002
 20
547.20000000000005
 30
0.0
 10
922.87283200000002
 20
549.17340999999999
 30
0.0
 10
912.0
 20
550.0
 30
0.0
 10
911.0
 20
551.0
 30
0.0
 10
911.0
 20
552.0
 30
0.0
 10
925.89999999999998
 20
560.20000000000005
 30
0.0
 10
927.0
 20
561.0
 30
0.0
 10
934.0
 20
561.0
 30
0.0
 10
935.89999999999998
 20
559.79999999999995
 30
0.0
 10
942.0
 20
557.0
 30
0.0
 10
946.0
 20
557.0
 30
0.0
 10
951.0
 20
562.0
 30
0.0
 10
951.0
 20
563.0
 30
0.0
 10
946.10000000000002
 20
565.29999999999995
 30
0.0
 10
931.96470599999998
 20
574.54117599999995
 30
0.0
 10
920.35294099999999
 20
576.41176499999995
 30
0.0
 10
915.15384600000004
 20
579.23076900000001
 30
0.0
 10
912.15384600000004
 20
581.23076900000001
 30
0.0
 10
905.0
 20
585.0
 30
0.0
 10
905.0
 20
586.0
 30
0.0
 10
906.0
 20
587.0
 30
0.0
 10
909.0
 20
587.0
 30
0.0
 10
915.0
 20
584.0
 30
0.0
 10
919.0
 20
584.0
 30
0.0
 10
927.89999999999998
 20
587.20000000000005
 30
0.0
 10
929.10000000000002
 20
587.79999999999995
 30
0.0
 10
938.0
 20
591.0
 30
0.0
 10
947.0
 20
587.0
 30
0.0
 10
956.0
 20
587.0
 30
0.0
 10
961.0
 20
589.0
 30
0.0
 10
965.0
 20
593.0
 30
0.0
 10
964.0
 20
594.0
 30
0.0
 10
955.89999999999998
 20
596.70000000000005
 30
0.0
 10
954.10000000000002
 20
597.29999999999995
 30
0.0
 10
939.96470599999998
 20
607.54117599999995
 30
0.0
 10
917.04098399999998
 20
609.45082000000002
 30
0.0
 10
913.10000000000002
 20
611.20000000000005
 30
0.0
 10
911.10000000000002
 20
612.20000000000005
 30
0.0
 10
894.94000000000005
 20
617.58000000000004
 30
0.0
 10
889.0
 20
618.0
 30
0.0
 10
888.0
 20
619.0
 30
0.0
 10
890.0
 20
621.0
 30
0.0
 10
896.10000000000002
 20
622.79999999999995
 30
0.0
 10
898.0
 20
624.0
 30
0.0
 10
914.0
 20
624.0
 30
0.0
 10
917.04455399999995
 20
622.44554500000004
 30
0.0
 10
927.89999999999998
 20
620.79999999999995
 30
0.0
 10
929.0
 20
620.0
 30
0.0
 10
952.0
 20
620.0
 30
0.0
 10
953.89999999999998
 20
621.20000000000005
 30
0.0
 10
959.0
 20
624.0
 30
0.0
 10
959.20000000000005
 20
624.89999999999998
 30
0.0
 10
964.0
 20
631.0
 30
0.0
 10
964.0
 20
639.0
 30
0.0
 10
956.75999999999999
 20
651.82000000000005
 30
0.0
 10
954.0
 20
655.0
 30
0.0
 10
954.0
 20
657.0
 30
0.0
 10
955.0
 20
658.0
 30
0.0
 10
960.0
 20
658.0
 30
0.0
 10
967.0
 20
655.0
 30
0.0
 10
972.0
 20
655.0
 30
0.0
 10
975.0
 20
657.0
 30
0.0
 10
976.23076900000001
 20
658.84615399999996
 30
0.0
 10
978.0
 20
661.0
 30
0.0
 10
978.0
 20
666.0
 30
0.0
 10
977.20000000000005
 20
667.10000000000002
 30
0.0
 10
973.0
 20
674.0
 30
0.0
 10
964.19512199999997
 20
682.24390200000005
 30
0.0
 10
948.0
 20
694.0
 30
0.0
 10
946.0
 20
693.0
 30
0.0
 10
954.24705900000004
 20
685.21176500000001
 30
0.0
 10
960.70000000000005
 20
676.89999999999998
 30
0.0
 10
961.29999999999995
 20
675.10000000000002
 30
0.0
 10
962.0
 20
674.0
 30
0.0
 10
962.0
 20
669.0
 30
0.0
 10
961.0
 20
668.0
 30
0.0
 10
958.10000000000002
 20
669.29999999999995
 30
0.0
 10
954.0
 20
671.0
 30
0.0
 10
945.0
 20
671.0
 30
0.0
 10
943.0
 20
670.0
 30
0.0
 10
941.0
 20
668.0
 30
0.0
 10
940.29999999999995
 20
665.89999999999998
 30
0.0
 10
939.70000000000005
 20
664.10000000000002
 30
0.0
 10
939.0
 20
660.0
 30
0.0
 10
944.0
 20
651.0
 30
0.0
 10
944.0
 20
649.0
 30
0.0
 10
940.0
 20
644.0
 30
0.0
 10
931.0
 20
644.0
 30
0.0
 10
923.15384600000004
 20
647.23076900000001
 30
0.0
 10
915.10000000000002
 20
650.29999999999995
 30
0.0
 10
878.0
 20
662.0
 30
0.0
 10
856.0
 20
662.0
 30
0.0
 10
847.04877999999997
 20
660.56097599999998
 30
0.0
 10
838.10000000000002
 20
656.79999999999995
 30
0.0
 10
836.0
 20
656.0
 30
0.0
 10
832.75609799999995
 20
652.19512199999997
 30
0.0
 10
812.0
 20
622.0
 30
0.0
 10
811.0
 20
623.0
 30
0.0
 10
815.61538499999995
 20
635.07692299999997
 30
0.0
 10
817.0
 20
640.0
 30
0.0
 10
816.29999999999995
 20
642.10000000000002
 30
0.0
 10
815.20000000000005
 20
645.10000000000002
 30
0.0
 10
804.0
 20
661.0
 30
0.0
 10
799.0
 20
666.0
 30
0.0
 10
792.89999999999998
 20
668.79999999999995
 30
0.0
 10
790.0
 20
670.0
 30
0.0
 10
789.0
 20
669.0
 30
0.0
 10
795.24778800000001
 20
662.216814
 30
0.0
 10
801.51538500000004
 20
654.62307699999997
 30
0.0
 10
802.70000000000005
 20
651.89999999999998
 30
0.0
 10
803.29999999999995
 20
650.10000000000002
 30
0.0
 10
804.0
 20
649.0
 30
0.0
 10
804.0
 20
645.0
 30
0.0
 10
802.70000000000005
 20
642.10000000000002
 30
0.0
 10
801.0
 20
638.0
 30
0.0
 10
794.17999999999995
 20
631.75999999999999
 30
0.0
 10
790.82000000000005
 20
629.24000000000001
 30
0.0
 10
783.0
 20
622.0
 30
0.0
 10
779.20000000000005
 20
613.89999999999998
 30
0.0
 10
778.79999999999995
 20
613.10000000000002
 30
0.0
 10
776.0
 20
600.0
 30
0.0
 10
776.0
 20
595.0
 30
0.0
 10
779.35294099999999
 20
583.08823500000005
 30
0.0
 10
782.61538499999995
 20
569.92307700000003
 30
0.0
 10
785.20000000000005
 20
561.10000000000002
 30
0.0
 10
793.64705900000001
 20
537.91176499999995
 30
0.0
 10
794.35294099999999
 20
535.08823500000005
 30
0.0
 10
799.0
 20
515.0
 30
0.0
 10
796.35294099999999
 20
493.911765
 30
0.0
 10
793.0
 20
484.0
 30
0.0
 10
791.0
 20
482.0
 30
0.0
 10
776.85599999999999
 20
475.79199999999997
 30
0.0
 10
768.04455399999995
 20
474.55445500000002
 30
0.0
 10
760.0
 20
474.0
 30
0.0
 10
758.89999999999998
 20
474.80000000000001
 30
0.0
 10
746.19512199999997
 20
480.24390199999999
 30
0.0
 10
741.17999999999995
 20
484.24000000000001
 30
0.0
 10
706.73529399999995
 20
512.55882399999996
 30
0.0
 10
687.84615399999996
 20
523.76923099999999
 30
0.0
 10
642.89999999999998
 20
533.79999999999995
 30
0.0
 10
637.20000000000005
 20
535.60000000000002
 30
0.0
 10
590.10000000000002
 20
552.29999999999995
 30
0.0
 10
586.89999999999998
 20
553.79999999999995
 30
0.0
 10
556.0
 20
570.0
 30
0.0
 10
549.0
 20
577.0
 30
0.0
 10
544.15384600000004
 20
580.23076900000001
 30
0.0
 10
541.84615399999996
 20
581.76923099999999
 30
0.0
 10
537.17999999999995
 20
586.24000000000001
 30
0.0
 10
526.0
 20
595.0
 30
0.0
 10
524.0
 20
598.0
 30
0.0
 10
524.0
 20
608.0
 30
0.0
 10
538.0
 20
623.0
 30
0.0
 10
549.07692299999997
 20
626.61538499999995
 30
0.0
 10
552.92307700000003
 20
627.38461500000005
 30
0.0
 10
556.0
 20
629.0
 30
0.0
 10
555.75
 20
630.75
 30
0.0
 10
550.10000000000002
 20
634.20000000000005
 30
0.0
 10
541.89999999999998
 20
637.70000000000005
 30
0.0
 10
535.0
 20
641.0
 30
0.0
 10
533.0
 20
643.0
 30
0.0
 10
534.0
 20
644.0
 30
0.0
 10
539.0
 20
644.0
 30
0.0
 10
540.89999999999998
 20
642.79999999999995
 30
0.0
 10
542.89999999999998
 20
641.79999999999995
 30
0.0
 10
551.0
 20
639.0
 30
0.0
 10
557.05999999999995
 20
639.58000000000004
 30
0.0
 10
573.0
 20
642.0
 30
0.0
 10
574.89999999999998
 20
640.79999999999995
 30
0.0
 10
576.0
 20
640.0
 30
0.0
 10
588.0
 20
640.0
 30
0.0
 10
589.0
 20
641.0
 30
0.0
 10
588.0
 20
643.0
 30
0.0
 10
584.10000000000002
 20
646.20000000000005
 30
0.0
 10
577.63076899999999
 20
650.35384599999998
 30
0.0
 10
562.82352900000001
 20
654.29411800000003
 30
0.0
 10
557.0
 20
655.0
 30
0.0
 10
556.0
 20
657.0
 30
0.0
 10
552.89999999999998
 20
658.70000000000005
 30
0.0
 10
551.0
 20
659.0
 30
0.0
 10
549.76923099999999
 20
660.84615399999996
 30
0.0
 10
548.0
 20
663.0
 30
0.0
 10
549.0
 20
664.0
 30
0.0
 10
562.91176499999995
 20
660.64705900000001
 30
0.0
 10
564.0
 20
660.0
 30
0.0
 10
577.06010400000002
 20
663.06839400000001
 30
0.0
 10
605.98390700000004
 20
664.48279700000001
 30
0.0
 10
609.0
 20
666.0
 30
0.0
 10
606.0
 20
669.0
 30
0.0
 10
594.89999999999998
 20
673.79999999999995
 30
0.0
 10
589.89999999999998
 20
675.79999999999995
 30
0.0
 10
571.93243199999995
 20
679.59459500000003
 30
0.0
 10
567.06756800000005
 20
680.40540499999997
 30
0.0
 10
561.0
 20
684.0
 30
0.0
 10
558.0
 20
687.0
 30
0.0
 10
572.13513499999999
 20
690.18918900000006
 30
0.0
 10
583.08823500000005
 20
691.64705900000001
 30
0.0
 10
586.0
 20
692.0
 30
0.0
 10
587.0
 20
693.0
 30
0.0
 10
585.15384600000004
 20
694.23076900000001
 30
0.0
 10
570.92307700000003
 20
699.61538499999995
 30
0.0
 10
565.89999999999998
 20
700.79999999999995
 30
0.0
 10
561.0
 20
704.0
 30
0.0
 10
563.0
 20
706.0
 30
0.0
 10
574.0
 20
706.0
 30
0.0
 10
576.89999999999998
 20
704.70000000000005
 30
0.0
 10
578.0
 20
704.0
 30
0.0
 10
582.0
 20
704.0
 30
0.0
 10
588.89999999999998
 20
706.20000000000005
 30
0.0
 10
590.10000000000002
 20
706.79999999999995
 30
0.0
 10
596.84615399999996
 20
709.23076900000001
 30
0.0
 10
599.0
 20
711.0
 30
0.0
 10
606.0
 20
711.0
 30
0.0
 10
610.07692299999997
 20
709.38461500000005
 30
0.0
 10
613.92307700000003
 20
708.61538499999995
 30
0.0
 10
615.0
 20
708.0
 30
0.0
 10
625.0
 20
708.0
 30
0.0
 10
630.0
 20
711.0
 30
0.0
 10
631.0
 20
712.0
 30
0.0
 10
631.0
 20
713.0
 30
0.0
 10
629.0
 20
715.0
 30
0.0
 10
624.89999999999998
 20
715.79999999999995
 30
0.0
 10
622.10000000000002
 20
717.20000000000005
 30
0.0
 10
612.94615399999998
 20
721.56923099999995
 30
0.0
 10
584.89999999999998
 20
724.70000000000005
 30
0.0
 10
574.10000000000002
 20
728.20000000000005
 30
0.0
 10
572.10000000000002
 20
729.20000000000005
 30
0.0
 10
568.0
 20
732.0
 30
0.0
 10
569.0
 20
733.0
 30
0.0
 10
591.98006899999996
 20
733.47833600000001
 30
0.0
 10
594.89999999999998
 20
734.29999999999995
 30
0.0
 10
602.89999999999998
 20
737.29999999999995
 30
0.0
 10
607.03097300000002
 20
738.53539799999999
 30
0.0
 10
622.03097300000002
 20
739.53539799999999
 30
0.0
 10
639.0
 20
742.0
 30
0.0
 10
641.0
 20
744.0
 30
0.0
 10
641.0
 20
745.0
 30
0.0
 10
619.07692299999997
 20
753.38461500000005
 30
0.0
 10
588.0
 20
753.0
 30
0.0
 10
579.15384600000004
 20
758.23076900000001
 30
0.0
 10
574.0
 20
762.0
 30
0.0
 10
574.0
 20
763.0
 30
0.0
 10
577.0
 20
766.0
 30
0.0
 10
578.0
 20
766.0
 30
0.0
 10
579.0
 20
767.0
 30
0.0
 10
576.0
 20
770.0
 30
0.0
 10
574.0
 20
770.0
 30
0.0
 10
573.0
 20
771.0
 30
0.0
 10
575.89999999999998
 20
772.29999999999995
 30
0.0
 10
593.84615399999996
 20
777.23076900000001
 30
0.0
 10
596.84615399999996
 20
779.23076900000001
 30
0.0
 10
606.95122000000003
 20
781.43902400000002
 30
0.0
 10
619.96470599999998
 20
782.45882400000005
 30
0.0
 10
622.89999999999998
 20
783.29999999999995
 30
0.0
 10
625.89999999999998
 20
784.29999999999995
 30
0.0
 10
632.0
 20
788.0
 30
0.0
 10
632.0
 20
790.0
 30
0.0
 10
630.0
 20
792.0
 30
0.0
 10
621.04455399999995
 20
792.44554500000004
 30
0.0
 10
616.10000000000002
 20
794.20000000000005
 30
0.0
 10
614.89999999999998
 20
794.79999999999995
 30
0.0
 10
599.0
 20
799.0
 30
0.0
 10
590.95122000000003
 20
797.43902400000002
 30
0.0
 10
582.0
 20
796.0
 30
0.0
 10
575.94000000000005
 20
796.58000000000004
 30
0.0
 10
567.79310299999997
 20
798.48275899999999
 30
0.0
 10
561.0
 20
801.0
 30
0.0
 10
560.0
 20
802.0
 30
0.0
 10
566.10000000000002
 20
805.70000000000005
 30
0.0
 10
567.89999999999998
 20
806.29999999999995
 30
0.0
 10
583.0
 20
812.0
 30
0.0
 10
583.0
 20
813.0
 30
0.0
 10
581.0
 20
815.0
 30
0.0
 10
572.91176499999995
 20
816.64705900000001
 30
0.0
 10
570.08823500000005
 20
817.35294099999999
 30
0.0
 10
562.97081700000001
 20
818.53307400000006
 30
0.0
 10
546.0
 20
820.0
 30
0.0
 10
545.0
 20
821.0
 30
0.0
 10
547.0
 20
823.0
 30
0.0
 10
553.04877999999997
 20
823.56097599999998
 30
0.0
 10
560.95122000000003
 20
824.43902400000002
 30
0.0
 10
580.89999999999998
 20
833.29999999999995
 30
0.0
 10
582.0
 20
834.0
 30
0.0
 10
587.0
 20
834.0
 30
0.0
 10
588.0
 20
833.0
 30
0.0
 10
593.0
 20
833.0
 30
0.0
 10
597.07692299999997
 20
834.61538499999995
 30
0.0
 10
601.0
 20
835.0
 30
0.0
 10
604.0
 20
839.0
 30
0.0
 10
604.0
 20
840.0
 30
0.0
 10
576.07692299999997
 20
847.38461500000005
 30
0.0
 10
551.0
 20
851.0
 30
0.0
 10
536.0
 20
851.0
 30
0.0
 10
535.0
 20
850.0
 30
0.0
 10
517.0
 20
850.0
 30
0.0
 10
516.0
 20
851.0
 30
0.0
 10
518.0
 20
853.0
 30
0.0
 10
530.10000000000002
 20
857.70000000000005
 30
0.0
 10
538.73529399999995
 20
860.44117600000004
 30
0.0
 10
545.0
 20
864.0
 30
0.0
 10
546.20000000000005
 20
866.89999999999998
 30
0.0
 10
547.0
 20
868.0
 30
0.0
 10
546.0
 20
869.0
 30
0.0
 10
544.0
 20
868.0
 30
0.0
 10
539.0
 20
868.0
 30
0.0
 10
525.10000000000002
 20
872.20000000000005
 30
0.0
 10
520.0
 20
874.0
 30
0.0
 10
499.0
 20
874.0
 30
0.0
 10
498.0
 20
873.0
 30
0.0
 10
494.0
 20
873.0
 30
0.0
 10
493.0
 20
874.0
 30
0.0
 10
494.89999999999998
 20
875.20000000000005
 30
0.0
 10
503.89999999999998
 20
879.20000000000005
 30
0.0
 10
510.0
 20
883.0
 30
0.0
 10
509.0
 20
884.0
 30
0.0
 10
490.02369099999999
 20
884.47381499999995
 30
0.0
 10
473.0
 20
887.0
 30
0.0
 10
472.0
 20
886.0
 30
0.0
 10
470.40540499999997
 20
876.93243199999995
 30
0.0
 10
466.0
 20
854.0
 30
0.0
 10
461.0
 20
849.0
 30
0.0
 10
450.0
 20
855.0
 30
0.0
 10
449.0
 20
856.0
 30
0.0
 10
455.0
 20
858.0
 30
0.0
 10
459.19999999999999
 20
865.89999999999998
 30
0.0
 10
462.56097599999998
 20
883.04877999999997
 30
0.0
 10
464.40540499999997
 20
896.93243199999995
 30
0.0
 10
465.0
 20
905.0
 30
0.0
 10
464.0
 20
906.0
 30
0.0
 10
463.0
 20
905.0
 30
0.0
 10
458.30000000000001
 20
893.89999999999998
 30
0.0
 10
454.0
 20
886.0
 30
0.0
 10
445.0
 20
877.0
 30
0.0
 10
433.0
 20
870.0
 30
0.0
 10
430.0
 20
867.0
 30
0.0
 10
428.30000000000001
 20
862.89999999999998
 30
0.0
 10
428.0
 20
861.0
 30
0.0
 10
426.0
 20
859.0
 30
0.0
 10
424.0
 20
859.0
 30
0.0
 10
423.0
 20
860.0
 30
0.0
 10
423.0
 20
864.0
 30
0.0
 10
425.30000000000001
 20
869.89999999999998
 30
0.0
 10
425.80000000000001
 20
871.10000000000002
 30
0.0
 10
429.0
 20
875.0
 30
0.0
 10
431.10000000000002
 20
875.79999999999995
 30
0.0
 10
443.0
 20
882.0
 30
0.0
 10
444.0
 20
883.0
 30
0.0
 10
442.0
 20
885.0
 30
0.0
 10
433.07692300000002
 20
886.38461500000005
 30
0.0
 10
432.0
 20
887.0
 30
0.0
 10
419.0
 20
887.0
 30
0.0
 10
413.0
 20
884.0
 30
0.0
 10
411.80000000000001
 20
882.10000000000002
 30
0.0
 10
410.19999999999999
 20
877.89999999999998
 30
0.0
 10
408.0
 20
869.0
 30
0.0
 10
406.0
 20
867.0
 30
0.0
 10
402.89999999999998
 20
866.29999999999995
 30
0.0
 10
348.89999999999998
 20
841.20000000000005
 30
0.0
 10
320.15384599999999
 20
824.76923099999999
 30
0.0
 10
307.911765
 20
818.35294099999999
 30
0.0
 10
297.89999999999998
 20
816.29999999999995
 30
0.0
 10
290.15384599999999
 20
812.76923099999999
 30
0.0
 10
285.0
 20
809.0
 30
0.0
 10
284.76923099999999
 20
808.15384600000004
 30
0.0
 10
279.0
 20
798.0
 30
0.0
 10
279.0
 20
787.0
 30
0.0
 10
280.0
 20
786.0
 30
0.0
 10
280.0
 20
776.0
 30
0.0
 10
279.0
 20
775.0
 30
0.0
 10
279.0
 20
773.0
 30
0.0
 10
288.01993099999999
 20
770.47833600000001
 30
0.0
 10
312.04878000000002
 20
769.43902400000002
 30
0.0
 10
320.0
 20
769.0
 30
0.0
 10
322.0
 20
767.0
 30
0.0
 10
322.0
 20
765.0
 30
0.0
 10
320.0
 20
763.0
 30
0.0
 10
301.89999999999998
 20
755.20000000000005
 30
0.0
 10
295.10000000000002
 20
751.79999999999995
 30
0.0
 10
292.0
 20
750.0
 30
0.0
 10
292.0
 20
749.0
 30
0.0
 10
304.89999999999998
 20
738.79999999999995
 30
0.0
 10
310.0
 20
736.0
 30
0.0
 10
318.0
 20
736.0
 30
0.0
 10
323.93243200000001
 20
737.40540499999997
 30
0.0
 10
341.84615400000001
 20
749.23076900000001
 30
0.0
 10
347.19999999999999
 20
752.60000000000002
 30
0.0
 10
354.07692300000002
 20
754.61538499999995
 30
0.0
 10
373.0
 20
759.0
 30
0.0
 10
379.84615400000001
 20
752.76923099999999
 30
0.0
 10
393.0
 20
747.0
 30
0.0
 10
400.0
 20
747.0
 30
0.0
 10
408.89999999999998
 20
749.20000000000005
 30
0.0
 10
415.10000000000002
 20
751.70000000000005
 30
0.0
 10
427.0
 20
759.0
 30
0.0
 10
430.0
 20
762.0
 30
0.0
 10
430.0
 20
763.0
 30
0.0
 10
436.0
 20
769.0
 30
0.0
 10
438.0
 20
769.0
 30
0.0
 10
439.0
 20
767.0
 30
0.0
 10
434.754098
 20
761.20491800000002
 30
0.0
 10
425.0
 20
750.0
 30
0.0
 10
411.89999999999998
 20
743.20000000000005
 30
0.0
 10
409.10000000000002
 20
741.79999999999995
 30
0.0
 10
398.088235
 20
738.64705900000001
 30
0.0
 10
389.0
 20
736.0
 30
0.0
 10
366.75999999999999
 20
711.17999999999995
 30
0.0
 10
354.245902
 20
695.79508199999998
 30
0.0
 10
325.19999999999999
 20
650.89999999999998
 30
0.0
 10
323.75040799999999
 20
648.235726
 30
0.0
 10
307.24959200000001
 20
630.764274
 30
0.0
 10
299.23076900000001
 20
618.84615399999996
 30
0.0
 10
297.80000000000001
 20
616.10000000000002
 30
0.0
 10
294.0
 20
609.0
 30
0.0
 10
267.81999999999999
 20
626.75999999999999
 30
0.0
 10
250.24390199999999
 20
648.19512199999997
 30
0.0
 10
245.76923099999999
 20
653.84615399999996
 30
0.0
 10
240.30000000000001
 20
666.10000000000002
 30
0.0
 10
238.0
 20
671.0
 30
0.0
 10
234.09999999999999
 20
675.20000000000005
 30
0.0
 10
230.0
 20
678.0
 30
0.0
 10
205.90000000000001
 20
673.20000000000005
 30
0.0
 10
201.0
 20
670.0
 30
0.0
 10
192.0
 20
651.0
 30
0.0
 10
184.75138100000001
 20
644.22375699999998
 30
0.0
 10
157.0
 20
613.0
 30
0.0
 10
146.81999999999999
 20
605.24000000000001
 30
0.0
 10
140.0
 20
599.0
 30
0.0
 10
136.35294099999999
 20
587.91176499999995
 30
0.0
 10
135.0
 20
581.0
 30
0.0
 10
139.0
 20
566.0
 30
0.0
 10
139.0
 20
559.0
 30
0.0
 10
132.80000000000001
 20
548.10000000000002
 30
0.0
 10
130.0
 20
543.0
 30
0.0
 10
120.90000000000001
 20
538.29999999999995
 30
0.0
 10
119.09999999999999
 20
537.70000000000005
 30
0.0
 10
114.0
 20
536.0
 30
0.0
 10
115.0
 20
535.0
 30
0.0
 10
126.0
 20
534.0
 30
0.0
 10
128.0
 20
530.0
 30
0.0
 10
126.445545
 20
517.95544600000005
 30
0.0
 10
125.0
 20
508.0
 30
0.0
 10
125.0
 20
506.0
 30
0.0
 10
130.0
 20
503.0
 30
0.0
 10
143.0
 20
503.0
 30
0.0
 10
147.80000000000001
 20
504.60000000000002
 30
0.0
 10
156.09999999999999
 20
506.69999999999999
 30
0.0
 10
171.0
 20
513.0
 30
0.0
 10
174.0
 20
516.0
 30
0.0
 10
176.64705900000001
 20
523.08823500000005
 30
0.0
 10
179.0
 20
536.0
 30
0.0
 10
178.0
 20
537.0
 30
0.0
 10
157.0
 20
538.0
 30
0.0
 10
155.0
 20
540.0
 30
0.0
 10
155.0
 20
542.0
 30
0.0
 10
163.90000000000001
 20
545.29999999999995
 30
0.0
 10
169.09999999999999
 20
546.70000000000005
 30
0.0
 10
171.0
 20
547.0
 30
0.0
 10
174.0
 20
550.0
 30
0.0
 10
174.80000000000001
 20
555.10000000000002
 30
0.0
 10
178.0
 20
561.0
 30
0.0
 10
183.0
 20
566.0
 30
0.0
 10
190.0
 20
570.0
 30
0.0
 10
192.0
 20
572.0
 30
0.0
 10
191.19999999999999
 20
574.10000000000002
 30
0.0
 10
187.0
 20
586.0
 30
0.0
 10
185.20491799999999
 20
587.245902
 30
0.0
 10
177.0
 20
594.0
 30
0.0
 10
178.0
 20
597.0
 30
0.0
 10
192.22068999999999
 20
609.75172399999997
 30
0.0
 10
213.0
 20
631.0
 30
0.0
 10
218.0
 20
631.0
 30
0.0
 10
225.24778800000001
 20
622.216814
 30
0.0
 10
231.75221199999999
 20
614.783186
 30
0.0
 10
238.76923099999999
 20
603.84615399999996
 30
0.0
 10
242.69999999999999
 20
596.89999999999998
 30
0.0
 10
254.0
 20
561.0
 30
0.0
 10
257.0
 20
558.0
 30
0.0
 10
280.088235
 20
548.35294099999999
 30
0.0
 10
283.0
 20
548.0
 30
0.0
 10
284.0
 20
549.0
 30
0.0
 10
283.0
 20
555.0
 30
0.0
 10
283.0
 20
575.0
 30
0.0
 10
284.80000000000001
 20
578.10000000000002
 30
0.0
 10
289.0
 20
587.0
 30
0.0
 10
291.0
 20
586.0
 30
0.0
 10
289.59459500000003
 20
580.06756800000005
 30
0.0
 10
289.0
 20
572.0
 30
0.0
 10
292.430769
 20
550.05384600000002
 30
0.0
 10
294.75
 20
539.25
 30
0.0
 10
291.0
 20
537.0
 30
0.0
 10
283.0
 20
537.0
 30
0.0
 10
270.088235
 20
540.35294099999999
 30
0.0
 10
268.911765
 20
540.64705900000001
 30
0.0
 10
251.09999999999999
 20
545.20000000000005
 30
0.0
 10
249.09999999999999
 20
546.20000000000005
 30
0.0
 10
234.90000000000001
 20
552.70000000000005
 30
0.0
 10
229.088235
 20
554.35294099999999
 30
0.0
 10
228.0
 20
555.0
 30
0.0
 10
221.0
 20
555.0
 30
0.0
 10
216.0
 20
551.0
 30
0.0
 10
215.0
 20
550.0
 30
0.0
 10
208.19999999999999
 20
534.89999999999998
 30
0.0
 10
206.0
 20
531.0
 30
0.0
 10
206.0
 20
524.0
 30
0.0
 10
209.30000000000001
 20
516.10000000000002
 30
0.0
 10
214.384615
 20
497.07692300000002
 30
0.0
 10
217.46460200000001
 20
456.03097300000002
 30
0.0
 10
219.80000000000001
 20
434.89999999999998
 30
0.0
 10
226.0
 20
426.0
 30
0.0
 10
237.90000000000001
 20
419.80000000000001
 30
0.0
 10
241.84615400000001
 20
417.76923099999999
 30
0.0
 10
253.0
 20
410.0
 30
0.0
 10
253.19999999999999
 20
409.10000000000002
 30
0.0
 10
256.615385
 20
399.92307699999998
 30
0.0
 10
257.384615
 20
396.07692300000002
 30
0.0
 10
258.0
 20
395.0
 30
0.0
 10
258.0
 20
383.0
 30
0.0
 10
257.0
 20
381.0
 30
0.0
 10
258.0
 20
380.0
 30
0.0
 10
263.0
 20
385.0
 30
0.0
 10
265.0
 20
385.0
 30
0.0
 10
272.0
 20
380.0
 30
0.0
 10
280.754098
 20
369.79508199999998
 30
0.0
 10
283.0
 20
367.0
 30
0.0
 10
286.0
 20
366.0
 30
0.0
 10
288.0
 20
367.0
 30
0.0
 10
289.24390199999999
 20
368.80487799999997
 30
0.0
 10
292.53846199999998
 20
373.30769199999997
 30
0.0
 10
294.80000000000001
 20
379.10000000000002
 30
0.0
 10
295.19999999999999
 20
379.89999999999998
 30
0.0
 10
300.615385
 20
393.07692300000002
 30
0.0
 10
301.384615
 20
396.92307699999998
 30
0.0
 10
303.0
 20
404.0
 30
0.0
 10
303.0
 20
415.0
 30
0.0
 10
299.76923099999999
 20
421.84615400000001
 30
0.0
 10
298.0
 20
425.0
 30
0.0
 10
292.10000000000002
 20
430.19999999999999
 30
0.0
 10
291.0
 20
431.0
 30
0.0
 10
281.76923099999999
 20
414.15384599999999
 30
0.0
 10
277.0
 20
407.0
 30
0.0
 10
274.0
 20
407.0
 30
0.0
 10
273.0
 20
408.0
 30
0.0
 10
275.30000000000001
 20
414.89999999999998
 30
0.0
 10
281.75
 20
432.75
 30
0.0
 10
276.0
 20
433.0
 30
0.0
 10
271.0
 20
438.0
 30
0.0
 10
270.64705900000001
 20
440.911765
 30
0.0
 10
270.0
 20
442.0
 30
0.0
 10
270.0
 20
452.0
 30
0.0
 10
271.35294099999999
 20
455.911765
 30
0.0
 10
272.75
 20
465.75
 30
0.0
 10
265.07692300000002
 20
467.384615
 30
0.0
 10
257.0
 20
469.0
 30
0.0
 10
252.94
 20
468.42000000000002
 30
0.0
 10
244.0
 20
467.0
 30
0.0
 10
242.0
 20
469.0
 30
0.0
 10
240.53103400000001
 20
494.97241400000001
 30
0.0
 10
240.25
 20
509.75
 30
0.0
 10
243.0
 20
511.0
 30
0.0
 10
248.0
 20
511.0
 30
0.0
 10
259.10000000000002
 20
507.30000000000001
 30
0.0
 10
270.15384599999999
 20
502.23076900000001
 30
0.0
 10
278.18000000000001
 20
497.24000000000001
 30
0.0
 10
311.10000000000002
 20
477.19999999999999
 30
0.0
 10
322.89999999999998
 20
470.80000000000001
 30
0.0
 10
347.0
 20
463.0
 30
0.0
 10
355.0
 20
463.0
 30
0.0
 10
361.0
 20
469.0
 30
0.0
 10
364.80000000000001
 20
477.10000000000002
 30
0.0
 10
365.19999999999999
 20
477.89999999999998
 30
0.0
 10
368.59459500000003
 20
489.06756799999999
 30
0.0
 10
369.59459500000003
 20
495.06756799999999
 30
0.0
 10
371.0
 20
508.0
 30
0.0
 10
372.0
 20
509.0
 30
0.0
 10
373.0
 20
508.0
 30
0.0
 10
375.0
 20
498.0
 30
0.0
 10
372.0
 20
463.0
 30
0.0
 10
374.80487799999997
 20
460.75609800000001
 30
0.0
 10
379.89999999999998
 20
456.80000000000001
 30
0.0
 10
397.0
 20
447.0
 30
0.0
 10
398.0
 20
445.0
 30
0.0
 10
416.80487799999997
 20
435.75609800000001
 30
0.0
 10
421.19512200000003
 20
432.24390199999999
 30
0.0
 10
428.10000000000002
 20
429.19999999999999
 30
0.0
 10
428.84615400000001
 20
428.76923099999999
 30
0.0
 10
460.10000000000002
 20
414.30000000000001
 30
0.0
 10
479.911765
 20
408.64705900000001
 30
0.0
 10
504.06
 20
400.42000000000002
 30
0.0
 10
534.08823500000005
 20
394.35294099999999
 30
0.0
 10
599.0
 20
385.0
 30
0.0
 10
600.0
 20
384.0
 30
0.0
 10
600.56923099999995
 20
374.94615399999998
 30
0.0
 10
604.20000000000005
 20
348.10000000000002
 30
0.0
 10
605.64705900000001
 20
342.911765
 30
0.0
 10
608.0
 20
335.0
 30
0.0
 10
606.0
 20
333.0
 30
0.0
 10
605.0
 20
333.0
 30
0.0
 10
596.29999999999995
 20
348.10000000000002
 30
0.0
 10
594.70000000000005
 20
352.89999999999998
 30
0.0
 10
590.38461500000005
 20
366.07692300000002
 30
0.0
 10
589.20000000000005
 20
371.10000000000002
 30
0.0
 10
587.0
 20
374.0
 30
0.0
 10
578.04455399999995
 20
374.44554499999998
 30
0.0
 10
541.89999999999998
 20
378.80000000000001
 30
0.0
 10
541.10000000000002
 20
379.19999999999999
 30
0.0
 10
534.25
 20
379.75
 30
0.0
 10
534.0
 20
379.0
 30
0.0
 10
540.79999999999995
 20
362.89999999999998
 30
0.0
 10
543.29999999999995
 20
356.10000000000002
 30
0.0
 10
550.20000000000005
 20
343.10000000000002
 30
0.0
 10
552.24861899999996
 20
339.22375699999998
 30
0.0
 10
570.0
 20
320.0
 30
0.0
 10
571.0
 20
320.0
 30
0.0
 10
576.24905699999999
 20
314.22830199999999
 30
0.0
 10
586.75094300000001
 20
302.77169800000001
 30
0.0
 10
588.52488700000004
 20
298.97737599999999
 30
0.0
 10
590.0
 20
278.0
 30
0.0
 10
588.35294099999999
 20
259.911765
 30
0.0
 10
587.29999999999995
 20
255.90000000000001
 30
0.0
 10
568.20000000000005
 20
227.90000000000001
 30
0.0
 10
566.23076900000001
 20
224.84615400000001
 30
0.0
 10
560.75094300000001
 20
217.22830200000001
 30
0.0
 10
550.0
 20
205.0
 30
0.0
 10
548.15384600000004
 20
203.76923099999999
 30
0.0
 10
536.0
 20
196.0
 30
0.0
 10
520.75609799999995
 20
179.195122
 30
0.0
 10
516.0
 20
173.0
 30
0.0
 10
501.088235
 20
167.64705900000001
 30
0.0
 10
494.0
 20
166.0
 30
0.0
 10
494.0
 20
165.0
 30
0.0
 10
496.0
 20
163.0
 30
0.0
 10
496.0
 20
157.0
 30
0.0
 10
486.69999999999999
 20
136.09999999999999
 30
0.0
 10
486.35294099999999
 20
134.911765
 30
0.0
 10
485.0
 20
130.0
 30
0.0
 10
486.0
 20
129.0
 30
0.0
 10
504.0
 20
125.0
 30
0.0
 10
522.07692299999997
 20
126.615385
 30
0.0
 10
527.06756800000005
 20
127.594595
 30
0.0
 10
533.84615399999996
 20
129.23076900000001
 30
0.0
 10
536.15384600000004
 20
130.76923099999999
 30
0.0
 10
543.0
 20
137.0
 30
0.0
 10
548.23076900000001
 20
147.84615400000001
 30
0.0
 10
550.0
 20
150.0
 30
0.0
 10
533.94000000000005
 20
153.58000000000001
 30
0.0
 10
528.0
 20
154.0
 30
0.0
 10
527.0
 20
155.0
 30
0.0
 10
528.0
 20
160.0
 30
0.0
 10
529.0
 20
161.0
 30
0.0
 10
550.10000000000002
 20
161.80000000000001
 30
0.0
 10
560.89999999999998
 20
171.19999999999999
 30
0.0
 10
570.91176499999995
 20
174.35294099999999
 30
0.0
 10
588.75
 20
178.25
 30
0.0
 10
588.54482800000005
 20
189.96206900000001
 30
0.0
 10
588.20000000000005
 20
191.09999999999999
 30
0.0
 10
583.0
 20
199.0
 30
0.0
 10
583.0
 20
201.0
 30
0.0
 10
596.24705900000004
 20
218.78823499999999
 30
0.0
 10
612.0
 20
237.0
 30
0.0
 10
625.10000000000002
 20
242.80000000000001
 30
0.0
 10
630.15384600000004
 20
245.76923099999999
 30
0.0
 10
642.0
 20
253.0
 30
0.0
 10
646.0
 20
257.0
 30
0.0
 10
649.0
 20
263.0
 30
0.0
 10
646.40540499999997
 20
277.06756799999999
 30
0.0
 10
644.0
 20
294.0
 30
0.0
 10
645.0
 20
295.0
 30
0.0
 10
648.79999999999995
 20
292.60000000000002
 30
0.0
 10
673.89999999999998
 20
275.80000000000001
 30
0.0
 10
697.10000000000002
 20
266.30000000000001
 30
0.0
 10
699.0
 20
266.0
 30
0.0
 10
706.0
 20
259.0
 30
0.0
 10
725.23076900000001
 20
235.15384599999999
 30
0.0
 10
728.0
 20
231.0
 30
0.0
 10
724.29999999999995
 20
219.90000000000001
 30
0.0
 10
716.70000000000005
 20
201.09999999999999
 30
0.0
 10
706.79999999999995
 20
183.09999999999999
 30
0.0
 10
706.20000000000005
 20
181.90000000000001
 30
0.0
 10
674.0
 20
143.0
 30
0.0
 10
667.89999999999998
 20
139.19999999999999
 30
0.0
 10
665.10000000000002
 20
137.80000000000001
 30
0.0
 10
652.91176499999995
 20
133.35294099999999
 30
0.0
 10
650.0
 20
133.0
 30
0.0
 10
648.0
 20
131.0
 30
0.0
 10
650.0
 20
129.0
 30
0.0
 10
650.0
 20
121.0
 30
0.0
 10
641.79999999999995
 20
106.09999999999999
 30
0.0
 10
641.20000000000005
 20
104.90000000000001
 30
0.0
 10
637.0
 20
98.0
 30
0.0
 10
639.0
 20
96.0
 30
0.0
 10
641.07692299999997
 20
95.384614999999997
 30
0.0
 10
644.92307700000003
 20
94.615385000000003
 30
0.0
 10
662.02918299999999
 20
91.466926000000001
 30
0.0
 10
677.0
 20
91.0
 30
0.0
  0
ENDSEC
  0
SECTION
  2
OBJECTS
  0
DICTIONARY
  5
C
100
AcDbDictionary
280
0
281
1
  3
ACAD_GROUP
350
D
  3
ACAD_LAYOUT
350
1A
  3
ACAD_MLINESTYLE
350
17
  3
ACAD_PLOTSETTINGS
350
19
  3
ACAD_PLOTSTYLENAME
350
E
  3
AcDbVariableDictionary
350
5D
  3
QCAD_OBJECTS
350
5E
  0
DICTIONARY
  5
D
100
AcDbDictionary
280
0
281
1
  0
ACDBDICTIONARYWDFLT
  5
E
100
AcDbDictionary
281
1
  3
Normal
350
F
100
AcDbDictionaryWithDefault
340
F
  0
ACDBPLACEHOLDER
  5
F
  0
DICTIONARY
  5
17
100
AcDbDictionary
280
0
281
1
  3
Standard
350
18
  0
MLINESTYLE
  5
18
100
AcDbMlineStyle
  2
STANDARD
 70
0
  3

 62
256
 51
90.0
 52
90.0
 71
2
 49
0.5
 62
256
  6
BYLAYER
 49
-0.5
 62
256
  6
BYLAYER
  0
DICTIONARY
  5
19
100
AcDbDictionary
280
0
281
1
  0
DICTIONARY
  5
1A
100
AcDbDictionary
281
1
  3
Layout1
350
1E
  3
Layout2
350
26
  3
Model
350
22
  0
LAYOUT
  5
1E
100
AcDbPlotSettings
  1

  2
none_device
  4

  6

 40
0.0
 41
0.0
 42
0.0
 43
0.0
 44
0.0
 45
0.0
 46
0.0
 47
0.0
 48
0.0
 49
0.0
140
0.0
141
0.0
142
1.0
143
1.0
 70
688
 72
0
 73
0
 74
5
  7

 75
16
147
1.0
148
0.0
149
0.0
100
AcDbLayout
  1
Layout1
 70
1
 71
1
 10
0.0
 20
0.0
 11
420.0
 21
297.0
 12
0.0
 22
0.0
 32
0.0
 14
100000000000000000000.0
 24
100000000000000000000.0
 34
100000000000000000000.0
 15
-100000000000000000000.0
 25
-100000000000000000000.0
 35
-100000000000000000000.0
146
0.0
 13
0.0
 23
0.0
 33
0.0
 16
1.0
 26
0.0
 36
0.0
 17
0.0
 27
1.0
 37
0.0
 76
0
330
1B
  0
LAYOUT
  5
22
100
AcDbPlotSettings
  1

  2
none_device
  4

  6

 40
0.0
 41
0.0
 42
0.0
 43
0.0
 44
0.0
 45
0.0
 46
0.0
 47
0.0
 48
0.0
 49
0.0
140
0.0
141
0.0
142
1.0
143
1.0
 70
1712
 72
0
 73
0
 74
0
  7

 75
0
147
1.0
148
0.0
149
0.0
100
AcDbLayout
  1
Model
 70
1
 71
0
 10
0.0
 20
0.0
 11
12.0
 21
9.0
 12
0.0
 22
0.0
 32
0.0
 14
0.0
 24
0.0
 34
0.0
 15
0.0
 25
0.0
 35
0.0
146
0.0
 13
0.0
 23
0.0
 33
0.0
 16
1.0
 26
0.0
 36
0.0
 17
0.0
 27
1.0
 37
0.0
 76
0
330
1F
  0
LAYOUT
  5
26
100
AcDbPlotSettings
  1

  2
none_device
  4

  6

 40
0.0
 41
0.0
 42
0.0
 43
0.0
 44
0.0
 45
0.0
 46
0.0
 47
0.0
 48
0.0
 49
0.0
140
0.0
141
0.0
142
1.0
143
1.0
 70
688
 72
0
 73
0
 74
5
  7

 75
16
147
1.0
148
0.0
149
0.0
100
AcDbLayout
  1
Layout2
 70
1
 71
2
 10
0.0
 20
0.0
 11
12.0
 21
9.0
 12
0.0
 22
0.0
 32
0.0
 14
0.0
 24
0.0
 34
0.0
 15
0.0
 25
0.0
 35
0.0
146
0.0
 13
0.0
 23
0.0
 33
0.0
 16
1.0
 26
0.0
 36
0.0
 17
0.0
 27
1.0
 37
0.0
 76
0
330
23
  0
DICTIONARY
  5
5D
100
AcDbDictionary
281
1
  3
DIMASSOC
350
60
  3
HIDETEXT
350
5F
  0
DICTIONARYVAR
  5
5F
100
DictionaryVariables
280
0
  1
2
  0
DICTIONARYVAR
  5
60
100
DictionaryVariables
280
0
  1
1
  0
DICTIONARY
  5
5E
100
AcDbDictionary
281
1
  3
ColorSettings/BackgroundColor
350
61
  3
ColorSettings/ColorMode
350
62
  3
Grid/DisplayGrid00
350
63
  3
Grid/DisplayGrid01
350
64
  3
Grid/DisplayGrid02
350
65
  3
Grid/DisplayGrid03
350
66
  3
Grid/GridSpacingX00
350
67
  3
Grid/GridSpacingX01
350
68
  3
Grid/GridSpacingX02
350
69
  3
Grid/GridSpacingX03
350
6A
  3
Grid/GridSpacingY00
350
6B
  3
Grid/GridSpacingY01
350
6C
  3
Grid/GridSpacingY02
350
6D
  3
Grid/GridSpacingY03
350
6E
  3
Grid/IsometricGrid00
350
6F
  3
Grid/IsometricGrid01
350
70
  3
Grid/IsometricGrid02
350
71
  3
Grid/IsometricGrid03
350
72
  3
Grid/IsometricProjection00
350
73
  3
Grid/IsometricProjection01
350
74
  3
Grid/IsometricProjection02
350
75
  3
Grid/IsometricProjection03
350
76
  3
Grid/MetaGridSpacingX00
350
77
  3
Grid/MetaGridSpacingX01
350
78
  3
Grid/MetaGridSpacingX02
350
79
  3
Grid/MetaGridSpacingX03
350
7A
  3
Grid/MetaGridSpacingY00
350
7B
  3
Grid/MetaGridSpacingY01
350
7C
  3
Grid/MetaGridSpacingY02
350
7D
  3
Grid/MetaGridSpacingY03
350
7E
  3
MultiPageSettings/Columns
350
7F
  3
MultiPageSettings/GlueMarginsBottom
350
80
  3
MultiPageSettings/GlueMarginsLeft
350
81
  3
MultiPageSettings/GlueMarginsRight
350
82
  3
MultiPageSettings/GlueMarginsTop
350
83
  3
MultiPageSettings/PrintCropMarks
350
84
  3
MultiPageSettings/Rows
350
85
  3
PageSettings/OffsetX
350
86
  3
PageSettings/OffsetY
350
87
  3
PageSettings/PageOrientation
350
88
  3
PageSettings/PaperHeight
350
89
  3
PageSettings/PaperWidth
350
8A
  3
PageSettings/Scale
350
8B
  3
PageSettings/ShowPaperBorders
350
8C
  3
UnitSettings/PaperUnit
350
8D
  3
ViewportCenter
350
8E
  3
ViewportHeight
350
8F
  3
ViewportWidth
350
90
  0
XRECORD
  5
61
330
5E
100
AcDbXrecord
280
1
1000
Blanc
  0
XRECORD
  5
62
330
5E
100
AcDbXrecord
280
1
1000
FullColor
  0
XRECORD
  5
63
330
5E
100
AcDbXrecord
280
1
290
1
  0
XRECORD
  5
64
330
5E
100
AcDbXrecord
280
1
290
1
  0
XRECORD
  5
65
330
5E
100
AcDbXrecord
280
1
290
1
  0
XRECORD
  5
66
330
5E
100
AcDbXrecord
280
1
290
1
  0
XRECORD
  5
67
330
5E
100
AcDbXrecord
280
1
1000
auto
  0
XRECORD
  5
68
330
5E
100
AcDbXrecord
280
1
1000
auto
  0
XRECORD
  5
69
330
5E
100
AcDbXrecord
280
1
1000
auto
  0
XRECORD
  5
6A
330
5E
100
AcDbXrecord
280
1
1000
auto
  0
XRECORD
  5
6B
330
5E
100
AcDbXrecord
280
1
1000
auto
  0
XRECORD
  5
6C
330
5E
100
AcDbXrecord
280
1
1000
auto
  0
XRECORD
  5
6D
330
5E
100
AcDbXrecord
280
1
1000
auto
  0
XRECORD
  5
6E
330
5E
100
AcDbXrecord
280
1
1000
auto
  0
XRECORD
  5
6F
330
5E
100
AcDbXrecord
280
1
290
0
  0
XRECORD
  5
70
330
5E
100
AcDbXrecord
280
1
290
0
  0
XRECORD
  5
71
330
5E
100
AcDbXrecord
280
1
290
0
  0
XRECORD
  5
72
330
5E
100
AcDbXrecord
280
1
290
0
  0
XRECORD
  5
73
330
5E
100
AcDbXrecord
280
1
 90
0
  0
XRECORD
  5
74
330
5E
100
AcDbXrecord
280
1
 90
0
  0
XRECORD
  5
75
330
5E
100
AcDbXrecord
280
1
 90
0
  0
XRECORD
  5
76
330
5E
100
AcDbXrecord
280
1
 90
0
  0
XRECORD
  5
77
330
5E
100
AcDbXrecord
280
1
1000
auto
  0
XRECORD
  5
78
330
5E
100
AcDbXrecord
280
1
1000
auto
  0
XRECORD
  5
79
330
5E
100
AcDbXrecord
280
1
1000
auto
  0
XRECORD
  5
7A
330
5E
100
AcDbXrecord
280
1
1000
auto
  0
XRECORD
  5
7B
330
5E
100
AcDbXrecord
280
1
1000
auto
  0
XRECORD
  5
7C
330
5E
100
AcDbXrecord
280
1
1000
auto
  0
XRECORD
  5
7D
330
5E
100
AcDbXrecord
280
1
1000
auto
  0
XRECORD
  5
7E
330
5E
100
AcDbXrecord
280
1
1000
auto
  0
XRECORD
  5
7F
330
5E
100
AcDbXrecord
280
1
 90
1
  0
XRECORD
  5
80
330
5E
100
AcDbXrecord
280
1
 40
10.0
  0
XRECORD
  5
81
330
5E
100
AcDbXrecord
280
1
 40
10.0
  0
XRECORD
  5
82
330
5E
100
AcDbXrecord
280
1
 40
10.0
  0
XRECORD
  5
83
330
5E
100
AcDbXrecord
280
1
 40
10.0
  0
XRECORD
  5
84
330
5E
100
AcDbXrecord
280
1
290
0
  0
XRECORD
  5
85
330
5E
100
AcDbXrecord
280
1
 90
1
  0
XRECORD
  5
86
330
5E
100
AcDbXrecord
280
1
 40
0.0
  0
XRECORD
  5
87
330
5E
100
AcDbXrecord
280
1
 40
0.0
  0
XRECORD
  5
88
330
5E
100
AcDbXrecord
280
1
1000
Portrait
  0
XRECORD
  5
89
330
5E
100
AcDbXrecord
280
1
 40
297.0
  0
XRECORD
  5
8A
330
5E
100
AcDbXrecord
280
1
 40
210.0
  0
XRECORD
  5
8B
330
5E
100
AcDbXrecord
280
1
1000
1:1
  0
XRECORD
  5
8C
330
5E
100
AcDbXrecord
280
1
290
1
  0
XRECORD
  5
8D
330
5E
100
AcDbXrecord
280
1
 90
4
  0
XRECORD
  5
8F
330
5E
100
AcDbXrecord
280
1
 40
870.1954668470903
  0
XRECORD
  5
90
330
5E
100
AcDbXrecord
280
1
 40
1479.0014208389709
  0
ENDSEC
  0
EOF
