0
SECTION
2
HEADER
9
$ACADVER
1
AC1009
9
$ANGDIR
70
0
9
$EXTMIN
10
0
20
0
9
$EXTMAX
10
24.00000
20
18.00000
9
$CECOLOR
62
256
0
ENDSEC
0
SECTION
2
ENTITIES
0
POLYLINE
62
0
8
_____1
66
1
0
VERTEX
8
0
10
60.52010
20
77.42170
42
-0.34915
0
VERTEX
8
0
10
61.28750
20
77.75585
42
-0.13218
0
VERTEX
8
0
10
61.92911
20
77.20615
42
-0.05157
0
VERTEX
8
0
10
62.64770
20
75.64442
42
-0.02994
0
VERTEX
8
0
10
63.48080
20
72.30160
42
-0.07421
0
VERTEX
8
0
10
63.62370
20
64.56580
42
-0.08868
0
VERTEX
8
0
10
61.05680
20
56.49090
42
-0.05247
0
VERTEX
8
0
10
58.24020
20
52.21310
42
0.31835
0
VERTEX
8
0
10
57.78518
20
50.70316
42
0.05292
0
VERTEX
8
0
10
58.74270
20
49.36890
42
0.06498
0
VERTEX
8
0
10
63.75075
20
58.82395
42
0.11437
0
VERTEX
8
0
10
65.42410
20
69.33160
42
0.04387
0
VERTEX
8
0
10
64.58660
20
74.36689
42
0.02058
0
VERTEX
8
0
10
63.02250
20
79.23000
42
-0.27152
0
VERTEX
8
0
10
63.27054
20
81.40907
42
-0.08404
0
VERTEX
8
0
10
65.11675
20
82.77173
42
-0.00541
0
VERTEX
8
0
10
67.23445
20
83.70370
42
0.11555
0
VERTEX
8
0
10
69.25550
20
84.81100
42
0.21076
0
VERTEX
8
0
10
71.20733
20
88.61863
42
0.13790
0
VERTEX
8
0
10
69.98519
20
92.78098
42
0.08724
0
VERTEX
8
0
10
66.99978
20
95.99146
42
0.11743
0
VERTEX
8
0
10
63.06990
20
97.91510
42
0.08485
0
VERTEX
8
0
10
58.08020
20
97.98760
42
-0.02187
0
VERTEX
8
0
10
55.88704
20
97.51027
42
-0.16820
0
VERTEX
8
0
10
53.68120
20
97.68000
42
-0.50375
0
VERTEX
8
0
10
52.58883
20
100.44046
42
-0.30740
0
VERTEX
8
0
10
55.62450
20
101.66610
42
-0.01382
0
VERTEX
8
0
10
58.09080
20
100.99244
42
0.02625
0
VERTEX
8
0
10
60.55338
20
100.30179
42
0.14425
0
VERTEX
8
0
10
65.60520
20
100.40440
42
0.10244
0
VERTEX
8
0
10
69.83170
20
102.81100
42
0.17328
0
VERTEX
8
0
10
72.50140
20
106.83100
42
0.21983
0
VERTEX
8
0
10
71.84165
20
111.11642
42
0.08734
0
VERTEX
8
0
10
68.49350
20
114.02940
42
-0.09238
0
VERTEX
8
0
10
66.62003
20
115.70700
42
-0.03988
0
VERTEX
8
0
10
65.34485
20
117.88934
42
0.03190
0
VERTEX
8
0
10
64.20664
20
120.15031
42
0.09336
0
VERTEX
8
0
10
62.61090
20
122.10030
42
0.20242
0
VERTEX
8
0
10
58.56183
20
123.50255
42
0.12936
0
VERTEX
8
0
10
54.53563
20
121.86618
42
0.08563
0
VERTEX
8
0
10
51.56711
20
118.64006
42
0.11677
0
VERTEX
8
0
10
49.93680
20
114.58060
42
0.05657
0
VERTEX
8
0
10
50.02518
20
112.23016
0
VERTEX
8
0
10
50.41664
20
109.90690
42
-0.05702
0
VERTEX
8
0
10
50.62977
20
107.56365
42
-0.19331
0
VERTEX
8
0
10
49.95920
20
105.34930
42
-0.25306
0
VERTEX
8
0
10
48.54403
20
104.41920
42
-0.22785
0
VERTEX
8
0
10
47.05783
20
105.31070
42
-0.26991
0
VERTEX
8
0
10
46.67840
20
108.80260
42
0.10693
0
VERTEX
8
0
10
48.04840
20
114.55308
42
0.15194
0
VERTEX
8
0
10
46.54470
20
120.22620
42
0.12404
0
VERTEX
8
0
10
43.04968
20
123.88482
42
0.22017
0
VERTEX
8
0
10
38.16890
20
124.71010
42
0.11936
0
VERTEX
8
0
10
35.68828
20
123.23690
42
0.02864
0
VERTEX
8
0
10
33.85395
20
120.97333
42
-0.04720
0
VERTEX
8
0
10
32.04974
20
118.68383
42
-0.11738
0
VERTEX
8
0
10
29.67050
20
117.03430
42
0.15040
0
VERTEX
8
0
10
25.67956
20
114.36812
42
0.22259
0
VERTEX
8
0
10
24.70980
20
109.79370
42
0.25128
0
VERTEX
8
0
10
31.92010
20
102.52950
42
0.09720
0
VERTEX
8
0
10
36.78400
20
102.13700
42
-0.00603
0
VERTEX
8
0
10
39.42379
20
102.68702
42
-0.18245
0
VERTEX
8
0
10
42.07790
20
102.57160
42
-0.27121
0
VERTEX
8
0
10
43.42527
20
100.80092
42
-0.29254
0
VERTEX
8
0
10
42.42300
20
98.84630
42
-0.17359
0
VERTEX
8
0
10
39.80024
20
98.67803
42
0.02752
0
VERTEX
8
0
10
37.26470
20
99.62990
42
0.11289
0
VERTEX
8
0
10
31.96390
20
100.18619
42
0.13230
0
VERTEX
8
0
10
27.01930
20
98.24970
42
0.15099
0
VERTEX
8
0
10
23.57351
20
94.14624
42
0.24304
0
VERTEX
8
0
10
23.90440
20
88.94920
42
0.09604
0
VERTEX
8
0
10
25.79862
20
87.10542
42
-0.03903
0
VERTEX
8
0
10
28.05710
20
85.68690
42
-0.14751
0
VERTEX
8
0
10
31.30300
20
80.91580
42
0.08976
0
VERTEX
8
0
10
32.39733
20
78.70020
42
0.14187
0
VERTEX
8
0
10
34.33773
20
77.13839
42
0.11907
0
VERTEX
8
0
10
36.81234
20
76.82412
42
0.07355
0
VERTEX
8
0
10
39.22378
20
77.52410
42
0.09722
0
VERTEX
8
0
10
43.23434
20
80.52681
42
0.14457
0
VERTEX
8
0
10
45.66560
20
84.88480
42
0.09885
0
VERTEX
8
0
10
45.56350
20
90.77670
42
-0.08903
0
VERTEX
8
0
10
45.20313
20
93.22331
42
-0.26375
0
VERTEX
8
0
10
46.27410
20
95.34690
42
-0.26459
0
VERTEX
8
0
10
48.17051
20
95.51170
42
-0.22311
0
VERTEX
8
0
10
49.38630
20
94.01470
42
-0.11781
0
VERTEX
8
0
10
49.05171
20
91.23383
42
0.05491
0
VERTEX
8
0
10
48.05930
20
88.56990
42
0.26340
0
VERTEX
8
0
10
50.93710
20
77.83920
42
0.19221
0
VERTEX
8
0
10
55.68963
20
75.40613
42
0.23394
0
VERTEX
8
0
10
60.52010
20
77.42170
0
SEQEND
8
0
0
ENDSEC
0
EOF
