999
dxflib 3.12.2.0
  0
SECTION
  2
HEADER
  9
$ACADVER
  1
AC1015
  9
$HANDSEED
  5
FFFF
  9
$ANGDIR
 70
0
  9
$CECOLOR
 62
256
  9
$DIMADEC
 70
0
  9
$DIMASZ
 40
0.18
  9
$DIMAUNIT
 70
0
  9
$DIMAZIN
 70
0
  9
$DIMDEC
 70
4
  9
$DIMEXE
 40
0.18
  9
$DIMEXO
 40
0.0625
  9
$DIMGAP
 40
0.09
  9
$DIMLUNIT
 70
2
  9
$DIMSCALE
 40
1.0
  9
$DIMTSZ
 40
0.0
  9
$DIMTXT
 40
0.18
  9
$DIMZIN
 70
0
  9
$DWGCODEPAGE
  3
ANSI_1252
  9
$EXTMAX
 10
24.0
 20
18.0
 30
0.0
  9
$EXTMIN
 10
0.0
 20
0.0
 30
0.0
  9
$INSUNITS
 70
0
  9
$LTSCALE
 40
1.0
  9
$MEASUREMENT
 70
1
  9
$PDMODE
 70
0
  9
$PDSIZE
 40
0
  0
ENDSEC
  0
SECTION
  2
TABLES
  0
TABLE
  2
VPORT
  5
8
100
AcDbSymbolTable
 70
1
  0
VPORT
  5
30
100
AcDbSymbolTableRecord
100
AcDbViewportTableRecord
  2
*Active
 70
0
 10
0.0
 20
0.0
 11
1.0
 21
1.0
 12
286.30555555555549
 22
148.5
 13
0.0
 23
0.0
 14
10.0
 24
10.0
 15
10.0
 25
10.0
 16
0.0
 26
0.0
 36
1.0
 17
0.0
 27
0.0
 37
0.0
 40
297.0
 41
1.92798353909465
 42
50.0
 43
0.0
 44
0.0
 50
0.0
 51
0.0
 71
0
 72
100
 73
1
 74
3
 75
1
 76
1
 77
0
 78
0
281
0
 65
1
110
0.0
120
0.0
130
0.0
111
1.0
121
0.0
131
0.0
112
0.0
122
1.0
132
0.0
 79
0
146
0.0
  0
ENDTAB
  0
TABLE
  2
LTYPE
  5
5
100
AcDbSymbolTable
 70
41
  0
LTYPE
  5
16
100
AcDbSymbolTableRecord
100
AcDbLinetypeTableRecord
  2
Continuous
 70
0
  3
Solid line
 72
65
 73
0
 40
0.0
  0
LTYPE
  5
31
100
AcDbSymbolTableRecord
100
AcDbLinetypeTableRecord
  2
ACAD_ISO15W100
 70
0
  3
ISO double-dash triple-dot __ __ . . . __ __ . .
 72
65
 73
10
 40
39.0
 49
12.0
 74
0
 49
-3.0
 74
0
 49
12.0
 74
0
 49
-3.0
 74
0
 49
0.0
 74
0
 49
-3.0
 74
0
 49
0.0
 74
0
 49
-3.0
 74
0
 49
0.0
 74
0
 49
-3.0
 74
0
  0
LTYPE
  5
32
100
AcDbSymbolTableRecord
100
AcDbLinetypeTableRecord
  2
DIVIDE
 70
0
  3
Divide ____ . . ____ . . ____ . . ____ . . ____
 72
65
 73
6
 40
31.75
 49
12.699999999999999
 74
0
 49
-6.3499999999999996
 74
0
 49
0.0
 74
0
 49
-6.3499999999999996
 74
0
 49
0.0
 74
0
 49
-6.3499999999999996
 74
0
  0
LTYPE
  5
33
100
AcDbSymbolTableRecord
100
AcDbLinetypeTableRecord
  2
ACAD_ISO10W100
 70
0
  3
ISO dash dot __ . __ . __ . __ . __ . __ . __ . 
 72
65
 73
4
 40
18.0
 49
12.0
 74
0
 49
-3.0
 74
0
 49
0.0
 74
0
 49
-3.0
 74
0
  0
LTYPE
  5
34
100
AcDbSymbolTableRecord
100
AcDbLinetypeTableRecord
  2
ACAD_ISO04W100
 70
0
  3
ISO long-dash dot ____ . ____ . ____ . ____ . _
 72
65
 73
4
 40
30.0
 49
24.0
 74
0
 49
-3.0
 74
0
 49
0.0
 74
0
 49
-3.0
 74
0
  0
LTYPE
  5
35
100
AcDbSymbolTableRecord
100
AcDbLinetypeTableRecord
  2
CENTER2
 70
0
  3
Center (.5x) ___ _ ___ _ ___ _ ___ _ ___ _ ___
 72
65
 73
4
 40
28.575000000000003
 49
19.050000000000001
 74
0
 49
-3.1749999999999998
 74
0
 49
3.1749999999999998
 74
0
 49
-3.1749999999999998
 74
0
  0
LTYPE
  5
36
100
AcDbSymbolTableRecord
100
AcDbLinetypeTableRecord
  2
ACAD_ISO11W100
 70
0
  3
ISO double-dash dot __ __ . __ __ . __ __ . __ _
 72
65
 73
6
 40
33.0
 49
12.0
 74
0
 49
-3.0
 74
0
 49
12.0
 74
0
 49
-3.0
 74
0
 49
0.0
 74
0
 49
-3.0
 74
0
  0
LTYPE
  5
37
100
AcDbSymbolTableRecord
100
AcDbLinetypeTableRecord
  2
HIDDEN2
 70
0
  3
Hidden (.5x) _ _ _ _ _ _ _ _ _ _ _ _ _ _ _ _ _ 
 72
65
 73
2
 40
4.7624999999999993
 49
3.1749999999999998
 74
0
 49
-1.5874999999999999
 74
0
  0
LTYPE
  5
38
100
AcDbSymbolTableRecord
100
AcDbLinetypeTableRecord
  2
BORDERX2
 70
0
  3
Border (2x) ____  ____  .  ____  ____  .  ___
 72
65
 73
6
 40
88.899999999999991
 49
25.399999999999999
 74
0
 49
-12.699999999999999
 74
0
 49
25.399999999999999
 74
0
 49
-12.699999999999999
 74
0
 49
0.0
 74
0
 49
-12.699999999999999
 74
0
  0
LTYPE
  5
39
100
AcDbSymbolTableRecord
100
AcDbLinetypeTableRecord
  2
ACAD_ISO05W100
 70
0
  3
ISO long-dash double-dot ____ .. ____ .. ____ . 
 72
65
 73
6
 40
33.0
 49
24.0
 74
0
 49
-3.0
 74
0
 49
0.0
 74
0
 49
-3.0
 74
0
 49
0.0
 74
0
 49
-3.0
 74
0
  0
LTYPE
  5
3A
100
AcDbSymbolTableRecord
100
AcDbLinetypeTableRecord
  2
DASHDOTX2
 70
0
  3
Dash dot (2x) ____  .  ____  .  ____  .  ___
 72
65
 73
4
 40
50.799999999999997
 49
25.399999999999999
 74
0
 49
-12.699999999999999
 74
0
 49
0.0
 74
0
 49
-12.699999999999999
 74
0
  0
LTYPE
  5
3B
100
AcDbSymbolTableRecord
100
AcDbLinetypeTableRecord
  2
HIDDENX2
 70
0
  3
Hidden (2x) ____ ____ ____ ____ ____ ____ ____ 
 72
65
 73
2
 40
19.049999999999997
 49
12.699999999999999
 74
0
 49
-6.3499999999999996
 74
0
  0
LTYPE
  5
3C
100
AcDbSymbolTableRecord
100
AcDbLinetypeTableRecord
  2
CENTERX2
 70
0
  3
Center (2x) ________  __  ________  __  _____
 72
65
 73
4
 40
101.60000000000001
 49
63.5
 74
0
 49
-12.699999999999999
 74
0
 49
12.699999999999999
 74
0
 49
-12.699999999999999
 74
0
  0
LTYPE
  5
3D
100
AcDbSymbolTableRecord
100
AcDbLinetypeTableRecord
  2
BORDER2
 70
0
  3
Border (.5x) __.__.__.__.__.__.__.__.__.__.__.
 72
65
 73
6
 40
22.224999999999998
 49
6.3499999999999996
 74
0
 49
-3.1749999999999998
 74
0
 49
6.3499999999999996
 74
0
 49
-3.1749999999999998
 74
0
 49
0.0
 74
0
 49
-3.1749999999999998
 74
0
  0
LTYPE
  5
3E
100
AcDbSymbolTableRecord
100
AcDbLinetypeTableRecord
  2
DASHDOT2
 70
0
  3
Dash dot (.5x) _._._._._._._._._._._._._._._.
 72
65
 73
4
 40
12.699999999999999
 49
6.3499999999999996
 74
0
 49
-3.1749999999999998
 74
0
 49
0.0
 74
0
 49
-3.1749999999999998
 74
0
  0
LTYPE
  5
3F
100
AcDbSymbolTableRecord
100
AcDbLinetypeTableRecord
  2
ACAD_ISO12W100
 70
0
  3
ISO dash double-dot __ . . __ . . __ . . __ . . 
 72
65
 73
6
 40
21.0
 49
12.0
 74
0
 49
-3.0
 74
0
 49
0.0
 74
0
 49
-3.0
 74
0
 49
0.0
 74
0
 49
-3.0
 74
0
  0
LTYPE
  5
40
100
AcDbSymbolTableRecord
100
AcDbLinetypeTableRecord
  2
ACAD_ISO07W100
 70
0
  3
ISO dot . . . . . . . . . . . . . . . . . . . . 
 72
65
 73
2
 40
3.0
 49
0.0
 74
0
 49
-3.0
 74
0
  0
LTYPE
  5
41
100
AcDbSymbolTableRecord
100
AcDbLinetypeTableRecord
  2
HIDDEN
 70
0
  3
Hidden __ __ __ __ __ __ __ __ __ __ __ __ __ __
 72
65
 73
2
 40
9.5249999999999986
 49
6.3499999999999996
 74
0
 49
-3.1749999999999998
 74
0
  0
LTYPE
  5
42
100
AcDbSymbolTableRecord
100
AcDbLinetypeTableRecord
  2
ACAD_ISO06W100
 70
0
  3
ISO long-dash triple-dot ____ ... ____ ... ____
 72
65
 73
8
 40
36.0
 49
24.0
 74
0
 49
-3.0
 74
0
 49
0.0
 74
0
 49
-3.0
 74
0
 49
0.0
 74
0
 49
-3.0
 74
0
 49
0.0
 74
0
 49
-3.0
 74
0
  0
LTYPE
  5
43
100
AcDbSymbolTableRecord
100
AcDbLinetypeTableRecord
  2
CENTER
 70
0
  3
Center ____ _ ____ _ ____ _ ____ _ ____ _ ____
 72
65
 73
4
 40
50.800000000000004
 49
31.75
 74
0
 49
-6.3499999999999996
 74
0
 49
6.3499999999999996
 74
0
 49
-6.3499999999999996
 74
0
  0
LTYPE
  5
44
100
AcDbSymbolTableRecord
100
AcDbLinetypeTableRecord
  2
DOTX2
 70
0
  3
Dot (2x) .  .  .  .  .  .  .  .  .  .  .  .  .  .
 72
65
 73
2
 40
12.699999999999999
 49
0.0
 74
0
 49
-12.699999999999999
 74
0
  0
LTYPE
  5
45
100
AcDbSymbolTableRecord
100
AcDbLinetypeTableRecord
  2
PHANTOM
 70
0
  3
Phantom ______  __  __  ______  __  __  ______ 
 72
65
 73
6
 40
63.500000000000007
 49
31.75
 74
0
 49
-6.3499999999999996
 74
0
 49
6.3499999999999996
 74
0
 49
-6.3499999999999996
 74
0
 49
6.3499999999999996
 74
0
 49
-6.3499999999999996
 74
0
  0
LTYPE
  5
46
100
AcDbSymbolTableRecord
100
AcDbLinetypeTableRecord
  2
ACAD_ISO08W100
 70
0
  3
ISO long-dash short-dash ____ __ ____ __ ____ _
 72
65
 73
4
 40
36.0
 49
24.0
 74
0
 49
-3.0
 74
0
 49
6.0
 74
0
 49
-3.0
 74
0
  0
LTYPE
  5
47
100
AcDbSymbolTableRecord
100
AcDbLinetypeTableRecord
  2
DASHEDX2
 70
0
  3
Dashed (2x) ____  ____  ____  ____  ____  ___
 72
65
 73
2
 40
38.099999999999994
 49
25.399999999999999
 74
0
 49
-12.699999999999999
 74
0
  0
LTYPE
  5
48
100
AcDbSymbolTableRecord
100
AcDbLinetypeTableRecord
  2
ACAD_ISO02W100
 70
0
  3
ISO dash __ __ __ __ __ __ __ __ __ __ __ __ __
 72
65
 73
2
 40
15.0
 49
12.0
 74
0
 49
-3.0
 74
0
  0
LTYPE
  5
49
100
AcDbSymbolTableRecord
100
AcDbLinetypeTableRecord
  2
PHANTOM2
 70
0
  3
Phantom (.5x) ___ _ _ ___ _ _ ___ _ _ ___ _ _
 72
65
 73
6
 40
31.750000000000004
 49
15.875
 74
0
 49
-3.1749999999999998
 74
0
 49
3.1749999999999998
 74
0
 49
-3.1749999999999998
 74
0
 49
3.1749999999999998
 74
0
 49
-3.1749999999999998
 74
0
  0
LTYPE
  5
4A
100
AcDbSymbolTableRecord
100
AcDbLinetypeTableRecord
  2
DASHED2
 70
0
  3
Dashed (.5x) _ _ _ _ _ _ _ _ _ _ _ _ _ _ _ _ _ 
 72
65
 73
2
 40
9.5249999999999986
 49
6.3499999999999996
 74
0
 49
-3.1749999999999998
 74
0
  0
LTYPE
  5
4B
100
AcDbSymbolTableRecord
100
AcDbLinetypeTableRecord
  2
ACAD_ISO09W100
 70
0
  3
ISO long-dash double-short-dash ____ __ __ ____
 72
65
 73
6
 40
45.0
 49
24.0
 74
0
 49
-3.0
 74
0
 49
6.0
 74
0
 49
-3.0
 74
0
 49
6.0
 74
0
 49
-3.0
 74
0
  0
LTYPE
  5
4C
100
AcDbSymbolTableRecord
100
AcDbLinetypeTableRecord
  2
ACAD_ISO13W100
 70
0
  3
ISO double-dash double-dot __ __ . . __ __ . . _
 72
65
 73
8
 40
36.0
 49
12.0
 74
0
 49
-3.0
 74
0
 49
12.0
 74
0
 49
-3.0
 74
0
 49
0.0
 74
0
 49
-3.0
 74
0
 49
0.0
 74
0
 49
-3.0
 74
0
  0
LTYPE
  5
4D
100
AcDbSymbolTableRecord
100
AcDbLinetypeTableRecord
  2
DOT2
 70
0
  3
Dot (.5x) ........................................
 72
65
 73
2
 40
3.1749999999999998
 49
0.0
 74
0
 49
-3.1749999999999998
 74
0
  0
LTYPE
  5
4E
100
AcDbSymbolTableRecord
100
AcDbLinetypeTableRecord
  2
DASHED
 70
0
  3
Dashed __ __ __ __ __ __ __ __ __ __ __ __ __ _
 72
65
 73
2
 40
19.049999999999997
 49
12.699999999999999
 74
0
 49
-6.3499999999999996
 74
0
  0
LTYPE
  5
4F
100
AcDbSymbolTableRecord
100
AcDbLinetypeTableRecord
  2
ACAD_ISO14W100
 70
0
  3
ISO dash triple-dot __ . . . __ . . . __ . . . _
 72
65
 73
8
 40
24.0
 49
12.0
 74
0
 49
-3.0
 74
0
 49
0.0
 74
0
 49
-3.0
 74
0
 49
0.0
 74
0
 49
-3.0
 74
0
 49
0.0
 74
0
 49
-3.0
 74
0
  0
LTYPE
  5
15
100
AcDbSymbolTableRecord
100
AcDbLinetypeTableRecord
  2
BYLAYER
 70
0
  3

 72
65
 73
0
 40
0.0
  0
LTYPE
  5
50
100
AcDbSymbolTableRecord
100
AcDbLinetypeTableRecord
  2
PHANTOMX2
 70
0
  3
Phantom (2x) ____________    ____    ____   _
 72
65
 73
6
 40
127.00000000000001
 49
63.5
 74
0
 49
-12.699999999999999
 74
0
 49
12.699999999999999
 74
0
 49
-12.699999999999999
 74
0
 49
12.699999999999999
 74
0
 49
-12.699999999999999
 74
0
  0
LTYPE
  5
14
100
AcDbSymbolTableRecord
100
AcDbLinetypeTableRecord
  2
BYBLOCK
 70
0
  3

 72
65
 73
0
 40
0.0
  0
LTYPE
  5
51
100
AcDbSymbolTableRecord
100
AcDbLinetypeTableRecord
  2
DIVIDEX2
 70
0
  3
Divide (2x) ________  .  .  ________  .  .  _
 72
65
 73
6
 40
63.5
 49
25.399999999999999
 74
0
 49
-12.699999999999999
 74
0
 49
0.0
 74
0
 49
-12.699999999999999
 74
0
 49
0.0
 74
0
 49
-12.699999999999999
 74
0
  0
LTYPE
  5
52
100
AcDbSymbolTableRecord
100
AcDbLinetypeTableRecord
  2
BORDER
 70
0
  3
Border __ __ . __ __ . __ __ . __ __ . __ __ .
 72
65
 73
6
 40
44.449999999999996
 49
12.699999999999999
 74
0
 49
-6.3499999999999996
 74
0
 49
12.699999999999999
 74
0
 49
-6.3499999999999996
 74
0
 49
0.0
 74
0
 49
-6.3499999999999996
 74
0
  0
LTYPE
  5
53
100
AcDbSymbolTableRecord
100
AcDbLinetypeTableRecord
  2
DIVIDE2
 70
0
  3
Divide (.5x) __..__..__..__..__..__..__..__.._
 72
65
 73
6
 40
15.875
 49
6.3499999999999996
 74
0
 49
-3.1749999999999998
 74
0
 49
0.0
 74
0
 49
-3.1749999999999998
 74
0
 49
0.0
 74
0
 49
-3.1749999999999998
 74
0
  0
LTYPE
  5
54
100
AcDbSymbolTableRecord
100
AcDbLinetypeTableRecord
  2
DOT
 70
0
  3
Dot . . . . . . . . . . . . . . . . . . . . . . . .
 72
65
 73
2
 40
6.3499999999999996
 49
0.0
 74
0
 49
-6.3499999999999996
 74
0
  0
LTYPE
  5
55
100
AcDbSymbolTableRecord
100
AcDbLinetypeTableRecord
  2
DASHDOT
 70
0
  3
Dash dot __ . __ . __ . __ . __ . __ . __ . __
 72
65
 73
4
 40
25.399999999999999
 49
12.699999999999999
 74
0
 49
-6.3499999999999996
 74
0
 49
0.0
 74
0
 49
-6.3499999999999996
 74
0
  0
LTYPE
  5
56
100
AcDbSymbolTableRecord
100
AcDbLinetypeTableRecord
  2
ACAD_ISO03W100
 70
0
  3
ISO dash space __    __    __    __    __    __
 72
65
 73
2
 40
30.0
 49
12.0
 74
0
 49
-18.0
 74
0
  0
ENDTAB
  0
TABLE
  2
LAYER
  5
2
100
AcDbSymbolTable
 70
2
  0
LAYER
  5
57
100
AcDbSymbolTableRecord
100
AcDbLayerTableRecord
  2
_____1
 70
0
 62
0
  6
BYLAYER
370
5
390
F
  0
LAYER
  5
10
100
AcDbSymbolTableRecord
100
AcDbLayerTableRecord
  2
0
 70
0
 62
7
420
16777215
  6
Continuous
370
25
390
F
  0
ENDTAB
  0
TABLE
  2
STYLE
  5
3
100
AcDbSymbolTable
 70
1
  0
STYLE
  5
58
100
AcDbSymbolTableRecord
100
AcDbTextStyleTableRecord
  2
Standard
 70
0
 40
0.0
 41
1.0
 50
0.0
 71
0
 42
2.5
  3

  4

1001
ACAD
1000
txt
1071
0
  0
ENDTAB
  0
TABLE
  2
VIEW
  5
6
100
AcDbSymbolTable
 70
0
  0
ENDTAB
  0
TABLE
  2
UCS
  5
7
100
AcDbSymbolTable
 70
0
  0
ENDTAB
  0
TABLE
  2
APPID
  5
9
100
AcDbSymbolTable
 70
1
  0
APPID
  5
12
100
AcDbSymbolTableRecord
100
AcDbRegAppTableRecord
  2
ACAD
 70
0
  0
APPID
  5
59
100
AcDbSymbolTableRecord
100
AcDbRegAppTableRecord
  2
QCAD
 70
0
  0
ENDTAB
  0
TABLE
  2
DIMSTYLE
  5
A
100
AcDbSymbolTable
 70
1
100
AcDbDimStyleTable
 71
0
  0
DIMSTYLE
105
27
100
AcDbSymbolTableRecord
100
AcDbDimStyleTableRecord
  2
Standard
 41
0.18
 42
0.0625
 43
3.75
 44
0.18
 70
0
 73
0
 74
0
 77
1
 78
8
140
0.18
141
2.5
143
0.03937007874016
147
0.09
171
3
172
1
271
2
272
2
274
3
278
44
283
0
284
8
340
58
  0
ENDTAB
  0
TABLE
  2
BLOCK_RECORD
  5
1
100
AcDbSymbolTable
 70
1
  0
BLOCK_RECORD
  5
1F
100
AcDbSymbolTableRecord
100
AcDbBlockTableRecord
  2
*Model_Space
340
22
  0
BLOCK_RECORD
  5
1B
100
AcDbSymbolTableRecord
100
AcDbBlockTableRecord
  2
*Paper_Space
340
1E
  0
BLOCK_RECORD
  5
23
100
AcDbSymbolTableRecord
100
AcDbBlockTableRecord
  2
*Paper_Space0
340
26
  0
ENDTAB
  0
ENDSEC
  0
SECTION
  2
BLOCKS
  0
BLOCK
  5
20
100
AcDbEntity
  8
0
100
AcDbBlockBegin
  2
*Model_Space
 70
0
 10
0.0
 20
0.0
 30
0.0
  3
*Model_Space
  1

  0
ENDBLK
  5
21
100
AcDbEntity
  8
0
100
AcDbBlockEnd
  0
BLOCK
  5
1C
100
AcDbEntity
 67
1
  8
0
100
AcDbBlockBegin
  2
*Paper_Space
 70
0
 10
0.0
 20
0.0
 30
0.0
  3
*Paper_Space
  1

  0
ENDBLK
  5
1D
100
AcDbEntity
 67
1
  8
0
100
AcDbBlockEnd
  0
BLOCK
  5
24
100
AcDbEntity
  8
0
100
AcDbBlockBegin
  2
*Paper_Space0
 70
0
 10
0.0
 20
0.0
 30
0.0
  3
*Paper_Space0
  1

  0
ENDBLK
  5
25
100
AcDbEntity
  8
0
100
AcDbBlockEnd
  0
ENDSEC
  0
SECTION
  2
ENTITIES
  0
LINE
  5
5A
100
AcDbEntity
100
AcDbLine
  8
_____1
 62
0
370
-1
 48
1.0
  6
BYLAYER
 10
-28.572500000000002
 20
33.132100000000001
 30
0.0
 11
-28.5733
 21
33.137099999999997
 31
0.0
  0
ARC
  5
5B
100
AcDbEntity
  8
_____1
 62
0
370
-1
 48
1.0
  6
BYLAYER
100
AcDbCircle
 10
-18.300270000000001
 20
33.243549999999999
 30
0.0
 40
10.273580000000001
100
AcDbArc
 50
166.69968
 51
180.59370999999999
  0
ARC
  5
5C
100
AcDbEntity
  8
_____1
 62
0
370
-1
 48
1.0
  6
BYLAYER
100
AcDbCircle
 10
45.433419999999998
 20
16.59132
 30
0.0
 40
76.144350000000003
100
AcDbArc
 50
163.65817999999999
 51
165.53832
  0
ARC
  5
5D
100
AcDbEntity
  8
_____1
 62
0
370
-1
 48
1.0
  6
BYLAYER
100
AcDbCircle
 10
-131.52812
 20
69.870019999999997
 30
0.0
 40
108.66705
100
AcDbArc
 50
342.95423000000005
 51
344.27177999999998
  0
ARC
  5
5E
100
AcDbEntity
  8
_____1
 62
0
370
-1
 48
1.0
  6
BYLAYER
100
AcDbCircle
 10
-36.25535
 20
43.687370000000001
 30
0.0
 40
9.8836999999999993
100
AcDbArc
 50
340.65386000000007
 51
355.15971999999999
  0
ARC
  5
5F
100
AcDbEntity
  8
_____1
 62
0
370
-1
 48
1.0
  6
BYLAYER
100
AcDbCircle
 10
2.6193900000000001
 20
40.949330000000003
 30
0.0
 40
29.08868
100
AcDbArc
 50
172.33664999999999
 51
176.24687000000003
  0
ARC
  5
60
100
AcDbEntity
  8
_____1
 62
0
370
-1
 48
1.0
  6
BYLAYER
100
AcDbCircle
 10
-19.686309999999999
 20
44.2149
 30
0.0
 40
6.5519600000000002
100
AcDbArc
 50
157.26306
 51
174.6275
  0
ARC
  5
61
100
AcDbEntity
  8
_____1
 62
0
370
-1
 48
1.0
  6
BYLAYER
100
AcDbCircle
 10
-18.255780000000001
 20
42.761949999999999
 30
0.0
 40
8.4695499999999999
100
AcDbArc
 50
125.20580000000001
 51
151.93040999999999
  0
ARC
  5
62
100
AcDbEntity
  8
_____1
 62
0
370
-1
 48
1.0
  6
BYLAYER
100
AcDbCircle
 10
-47.289380000000001
 20
78.720169999999996
 30
0.0
 40
37.768470000000001
100
AcDbArc
 50
309.75027999999998
 51
316.92835000000002
  0
ARC
  5
63
100
AcDbEntity
  8
_____1
 62
0
370
-1
 48
1.0
  6
BYLAYER
100
AcDbCircle
 10
-139.64350999999999
 20
163.51859999999999
 30
0.0
 40
163.14697000000001
100
AcDbArc
 50
317.32327000000004
 51
318.98586999999998
  0
ARC
  5
64
100
AcDbEntity
  8
_____1
 62
0
370
-1
 48
1.0
  6
BYLAYER
100
AcDbCircle
 10
-7618.3525600000003
 20
6609.9925300000004
 30
0.0
 40
10036.752399999999
100
AcDbArc
 50
319.23530000000005
 51
319.26233000000002
  0
ARC
  5
65
100
AcDbEntity
  8
_____1
 62
0
370
-1
 48
1.0
  6
BYLAYER
100
AcDbCircle
 10
8.8211399999999998
 20
43.047499999999999
 30
0.0
 40
28.014479999999999
100
AcDbArc
 50
132.96788000000001
 51
142.65687
  0
ARC
  5
66
100
AcDbEntity
  8
_____1
 62
0
370
-1
 48
1.0
  6
BYLAYER
100
AcDbCircle
 10
533.30556999999999
 20
186.45352
 30
0.0
 40
557.30061000000001
100
AcDbArc
 50
192.08144999999999
 51
192.74072000000004
  0
ARC
  5
67
100
AcDbEntity
  8
_____1
 62
0
370
-1
 48
1.0
  6
BYLAYER
100
AcDbCircle
 10
8.9202899999999996
 20
74.667670000000001
 30
0.0
 40
21.137599999999999
100
AcDbArc
 50
184.59229999999999
 51
193.28763999999998
  0
ARC
  5
68
100
AcDbEntity
  8
_____1
 62
0
370
-1
 48
1.0
  6
BYLAYER
100
AcDbCircle
 10
-3.5041199999999999
 20
74.058599999999998
 30
0.0
 40
8.7129300000000001
100
AcDbArc
 50
166.02611999999999
 51
187.14232000000001
  0
ARC
  5
69
100
AcDbEntity
  8
_____1
 62
0
370
-1
 48
1.0
  6
BYLAYER
100
AcDbCircle
 10
570.40322000000003
 20
245.63686000000001
 30
0.0
 40
606.52083000000005
100
AcDbArc
 50
195.4153
 51
196.22560999999996
  0
ARC
  5
6A
100
AcDbEntity
  8
_____1
 62
0
370
-1
 48
1.0
  6
BYLAYER
100
AcDbCircle
 10
26.86825
 20
96.331419999999994
 30
0.0
 40
42.855879999999999
100
AcDbArc
 50
190.40836999999999
 51
196.14375999999999
  0
ARC
  5
6B
100
AcDbEntity
  8
_____1
 62
0
370
-1
 48
1.0
  6
BYLAYER
100
AcDbCircle
 10
1.96899
 20
92.323480000000004
 30
0.0
 40
17.651009999999999
100
AcDbArc
 50
178.28285
 51
192.21467999999999
  0
ARC
  5
6C
100
AcDbEntity
  8
_____1
 62
0
370
-1
 48
1.0
  6
BYLAYER
100
AcDbCircle
 10
-21.538419999999999
 20
93.783839999999998
 30
0.0
 40
5.9378299999999999
100
AcDbArc
 50
350.97501
 51
396.03095000000002
  0
ARC
  5
6D
100
AcDbEntity
  8
_____1
 62
0
370
-1
 48
1.0
  6
BYLAYER
100
AcDbCircle
 10
0.10996
 20
110.37183
 30
0.0
 40
21.337489999999999
100
AcDbArc
 50
196.09953999999999
 51
217.85893999999996
  0
ARC
  5
6E
100
AcDbEntity
  8
_____1
 62
0
370
-1
 48
1.0
  6
BYLAYER
100
AcDbCircle
 10
-30.09854
 20
101.26828
 30
0.0
 40
10.21744
100
AcDbArc
 50
18.172000000000001
 51
60.948520000000002
  0
ARC
  5
6F
100
AcDbEntity
  8
_____1
 62
0
370
-1
 48
1.0
  6
BYLAYER
100
AcDbCircle
 10
-22.648800000000001
 20
115.00991
 30
0.0
 40
5.4152100000000001
100
AcDbArc
 50
186.56489999999999
 51
242.64618999999999
  0
ARC
  5
70
100
AcDbEntity
  8
_____1
 62
0
370
-1
 48
1.0
  6
BYLAYER
100
AcDbCircle
 10
-29.281130000000001
 20
114.20593
 30
0.0
 40
1.2662
100
AcDbArc
 50
8.3953199999999999
 51
67.780090000000001
  0
ARC
  5
71
100
AcDbEntity
  8
_____1
 62
0
370
-1
 48
1.0
  6
BYLAYER
100
AcDbCircle
 10
-26.230619999999998
 20
121.58624
 30
0.0
 40
6.7197100000000001
100
AcDbArc
 50
221.93548999999999
 51
247.49856
  0
ARC
  5
72
100
AcDbEntity
  8
_____1
 62
0
370
-1
 48
1.0
  6
BYLAYER
100
AcDbCircle
 10
-31.873940000000001
 20
116.07352
 30
0.0
 40
1.20825
100
AcDbArc
 50
57.761479999999992
 51
132.38301999999996
  0
ARC
  5
73
100
AcDbEntity
  8
_____1
 62
0
370
-1
 48
1.0
  6
BYLAYER
100
AcDbCircle
 10
-55.530949999999997
 20
148.02318
 30
0.0
 40
38.552950000000003
100
AcDbArc
 50
280.33564000000001
 51
306.33447000000007
  0
ARC
  5
74
100
AcDbEntity
  8
_____1
 62
0
370
-1
 48
1.0
  6
BYLAYER
100
AcDbCircle
 10
-25.014890000000001
 20
16.958760000000002
 30
0.0
 40
96.080309999999997
100
AcDbArc
 50
104.21839
 51
107.56428999999999
  0
ARC
  5
75
100
AcDbEntity
  8
_____1
 62
0
370
-1
 48
1.0
  6
BYLAYER
100
AcDbCircle
 10
-56.114400000000003
 20
113.09475
 30
0.0
 40
4.9996799999999997
100
AcDbArc
 50
262.24880999999999
 51
294.89688000000001
  0
ARC
  5
76
100
AcDbEntity
  8
_____1
 62
0
370
-1
 48
1.0
  6
BYLAYER
100
AcDbCircle
 10
-55.831760000000003
 20
111.94743
 30
0.0
 40
3.9251200000000002
100
AcDbArc
 50
214.9194
 51
255.88901999999993
  0
ARC
  5
77
100
AcDbEntity
  8
_____1
 62
0
370
-1
 48
1.0
  6
BYLAYER
100
AcDbCircle
 10
-58.98657
 20
111.88986
 30
0.0
 40
2.1901799999999998
100
AcDbArc
 50
208.96773999999999
 51
268.33514000000002
  0
ARC
  5
78
100
AcDbEntity
  8
_____1
 62
0
370
-1
 48
1.0
  6
BYLAYER
100
AcDbCircle
 10
-55.536749999999998
 20
112.92303
 30
0.0
 40
5.7600600000000002
100
AcDbArc
 50
178.72506999999999
 51
201.3167
  0
ARC
  5
79
100
AcDbEntity
  8
_____1
 62
0
370
-1
 48
1.0
  6
BYLAYER
100
AcDbCircle
 10
-9.5123999999999995
 20
108.2306
 30
0.0
 40
52.006889999999999
100
AcDbArc
 50
169.65513999999996
 51
174.68154000000004
  0
ARC
  5
7A
100
AcDbEntity
  8
_____1
 62
0
370
-1
 48
1.0
  6
BYLAYER
100
AcDbCircle
 10
-42.04562
 20
115.20173
 30
0.0
 40
18.778169999999999
100
AcDbArc
 50
134.37388000000001
 51
172.75587999999999
  0
ARC
  5
7B
100
AcDbEntity
  8
_____1
 62
0
370
-1
 48
1.0
  6
BYLAYER
100
AcDbCircle
 10
-84.453639999999993
 20
156.49960999999999
 30
0.0
 40
40.424100000000003
100
AcDbArc
 50
316.40359000000001
 51
323.05216000000001
  0
ARC
  5
7C
100
AcDbEntity
  8
_____1
 62
0
370
-1
 48
1.0
  6
BYLAYER
100
AcDbCircle
 10
-9.1283899999999996
 20
101.25982
 30
0.0
 40
52.990589999999997
100
AcDbArc
 50
141.73801
 51
144.27447000000001
  0
ARC
  5
7D
100
AcDbEntity
  8
_____1
 62
0
370
-1
 48
1.0
  6
BYLAYER
100
AcDbCircle
 10
-47.016629999999999
 20
131.89909
 30
0.0
 40
4.3088699999999998
100
AcDbArc
 50
118.28468000000001
 51
149.67471
  0
ARC
  5
7E
100
AcDbEntity
  8
_____1
 62
0
370
-1
 48
1.0
  6
BYLAYER
100
AcDbCircle
 10
-49.320059999999998
 20
136.06156999999999
 30
0.0
 40
0.45159
100
AcDbArc
 50
305.40899000000002
 51
369.83461999999997
  0
ARC
  5
7F
100
AcDbEntity
  8
_____1
 62
0
370
-1
 48
1.0
  6
BYLAYER
100
AcDbCircle
 10
-45.643990000000002
 20
136.53489999999999
 30
0.0
 40
3.2553100000000001
100
AcDbArc
 50
158.55411000000001
 51
186.99082000000001
  0
ARC
  5
80
100
AcDbEntity
  8
_____1
 62
0
370
-1
 48
1.0
  6
BYLAYER
100
AcDbCircle
 10
-51.559660000000001
 20
139.63706999999999
 30
0.0
 40
3.4616500000000001
100
AcDbArc
 50
326.47354999999999
 51
353.43509999999998
  0
ARC
  5
81
100
AcDbEntity
  8
_____1
 62
0
370
-1
 48
1.0
  6
BYLAYER
100
AcDbCircle
 10
-47.029260000000001
 20
138.98745
 30
0.0
 40
1.1205700000000001
100
AcDbArc
 50
109.15179999999999
 51
166.90691000000001
  0
ARC
  5
82
100
AcDbEntity
  8
_____1
 62
0
370
-1
 48
1.0
  6
BYLAYER
100
AcDbCircle
 10
-45.761989999999997
 20
133.58322999999999
 30
0.0
 40
6.6663500000000004
100
AcDbArc
 50
94.366140000000001
 51
104.19636999999999
  0
ARC
  5
83
100
AcDbEntity
  8
_____1
 62
0
370
-1
 48
1.0
  6
BYLAYER
100
AcDbCircle
 10
-46.653970000000001
 20
151.72209000000001
 30
0.0
 40
11.498279999999999
100
AcDbArc
 50
271.91618
 51
277.62410999999992
  0
ARC
  5
84
100
AcDbEntity
  8
_____1
 62
0
370
-1
 48
1.0
  6
BYLAYER
100
AcDbCircle
 10
-45.108499999999999
 20
141.98177999999999
 30
0.0
 40
1.65645
100
AcDbArc
 50
269.30962
 51
309.22566999999998
  0
ARC
  5
85
100
AcDbEntity
  8
_____1
 62
0
370
-1
 48
1.0
  6
BYLAYER
100
AcDbCircle
 10
-41.384300000000003
 20
141.27056999999999
 30
0.0
 40
2.7371300000000001
100
AcDbArc
 50
143.39689000000001
 51
192.06178
  0
ARC
  5
86
100
AcDbEntity
  8
_____1
 62
0
370
-1
 48
1.0
  6
BYLAYER
100
AcDbCircle
 10
-40.067770000000003
 20
139.71977000000001
 30
0.0
 40
4.7410699999999997
100
AcDbArc
 50
109.98311000000001
 51
137.82962000000001
  0
ARC
  5
87
100
AcDbEntity
  8
_____1
 62
0
370
-1
 48
1.0
  6
BYLAYER
100
AcDbCircle
 10
-78.707570000000004
 20
238.42426
 30
0.0
 40
101.25857000000001
100
AcDbArc
 50
291.44416999999999
 51
294.74090000000007
  0
ARC
  5
88
100
AcDbEntity
  8
_____1
 62
0
370
-1
 48
1.0
  6
BYLAYER
100
AcDbCircle
 10
-15.40446
 20
106.37819
 30
0.0
 40
45.215269999999997
100
AcDbArc
 50
110.17946000000002
 51
117.5668
  0
ARC
  5
89
100
AcDbEntity
  8
_____1
 62
0
370
-1
 48
1.0
  6
BYLAYER
100
AcDbCircle
 10
-16.998080000000002
 20
115.05105
 30
0.0
 40
36.555660000000003
100
AcDbArc
 50
105.90475999999998
 51
112.5249
  0
ARC
  5
8A
100
AcDbEntity
  8
_____1
 62
0
370
-1
 48
1.0
  6
BYLAYER
100
AcDbCircle
 10
-22.449670000000001
 20
135.46491
 30
0.0
 40
15.43333
100
AcDbArc
 50
91.51648999999999
 51
107.20905999999999
  0
ARC
  5
8B
100
AcDbEntity
  8
_____1
 62
0
370
-1
 48
1.0
  6
BYLAYER
100
AcDbCircle
 10
-22.79149
 20
137.40461999999999
 30
0.0
 40
13.48837
100
AcDbArc
 50
54.461129999999997
 51
90.282990000000012
  0
ARC
  5
8C
100
AcDbEntity
  8
_____1
 62
0
370
-1
 48
1.0
  6
BYLAYER
100
AcDbCircle
 10
-25.255120000000002
 20
132.12816000000001
 30
0.0
 40
19.243279999999999
100
AcDbArc
 50
28.600370000000002
 51
57.625559999999986
  0
ARC
  5
8D
100
AcDbEntity
  8
_____1
 62
0
370
-1
 48
1.0
  6
BYLAYER
100
AcDbCircle
 10
-29.724129999999999
 20
130.21025
 30
0.0
 40
24.089390000000002
100
AcDbArc
 50
15.950370000000001
 51
27.517130000000005
  0
ARC
  5
8E
100
AcDbEntity
  8
_____1
 62
0
370
-1
 48
1.0
  6
BYLAYER
100
AcDbCircle
 10
-56.658140000000003
 20
123.35290000000001
 30
0.0
 40
51.877180000000003
100
AcDbArc
 50
9.6847000000000012
 51
15.05766
  0
ARC
  5
8F
100
AcDbEntity
  8
_____1
 62
0
370
-1
 48
1.0
  6
BYLAYER
100
AcDbCircle
 10
126.56404999999999
 20
153.85657
 30
0.0
 40
133.86744999999999
100
AcDbArc
 50
189.36206000000004
 51
193.19300000000001
  0
ARC
  5
90
100
AcDbEntity
  8
_____1
 62
0
370
-1
 48
1.0
  6
BYLAYER
100
AcDbCircle
 10
57.259590000000003
 20
136.44852
 30
0.0
 40
62.42933
100
AcDbArc
 50
192.15484999999998
 51
200.37101999999999
  0
ARC
  5
91
100
AcDbEntity
  8
_____1
 62
0
370
-1
 48
1.0
  6
BYLAYER
100
AcDbCircle
 10
-0.56404
 20
115.03373999999999
 30
0.0
 40
0.7694800000000001
100
AcDbArc
 50
204.30704
 51
268.90800000000002
  0
ARC
  5
92
100
AcDbEntity
  8
_____1
 62
0
370
-1
 48
1.0
  6
BYLAYER
100
AcDbCircle
 10
-0.9232
 20
75.65249
 30
0.0
 40
38.61345
100
AcDbArc
 50
73.009289999999993
 51
89.488810000000001
  0
ARC
  5
93
100
AcDbEntity
  8
_____1
 62
0
370
-1
 48
1.0
  6
BYLAYER
100
AcDbCircle
 10
-14.4884
 20
36.918889999999998
 30
0.0
 40
79.637569999999997
100
AcDbArc
 50
63.824019999999997
 51
71.818860000000001
  0
ARC
  5
94
100
AcDbEntity
  8
_____1
 62
0
370
-1
 48
1.0
  6
BYLAYER
100
AcDbCircle
 10
-59.492370000000001
 20
-65.865620000000007
 30
0.0
 40
191.79739000000001
100
AcDbArc
 50
61.380049999999997
 51
65.303730000000002
  0
ARC
  5
95
100
AcDbEntity
  8
_____1
 62
0
370
-1
 48
1.0
  6
BYLAYER
100
AcDbCircle
 10
2.3806400000000001
 20
46.062980000000003
 30
0.0
 40
63.911459999999998
100
AcDbArc
 50
56.119729999999997
 51
62.007249999999999
  0
ARC
  5
96
100
AcDbEntity
  8
_____1
 62
0
370
-1
 48
1.0
  6
BYLAYER
100
AcDbCircle
 10
21.682739999999999
 20
73.499269999999996
 30
0.0
 40
30.382380000000001
100
AcDbArc
 50
45.108510000000003
 51
57.496650000000017
  0
ARC
  5
97
100
AcDbEntity
  8
_____1
 62
0
370
-1
 48
1.0
  6
BYLAYER
100
AcDbCircle
 10
-20.465730000000001
 20
32.330500000000001
 30
0.0
 40
89.298770000000005
100
AcDbArc
 50
39.065539999999999
 51
44.59243
  0
ARC
  5
98
100
AcDbEntity
  8
_____1
 62
0
370
-1
 48
1.0
  6
BYLAYER
100
AcDbCircle
 10
180.97447
 20
189.85783000000001
 30
0.0
 40
166.44441
100
AcDbArc
 50
217.46768999999998
 51
220.43341000000001
  0
ARC
  5
99
100
AcDbEntity
  8
_____1
 62
0
370
-1
 48
1.0
  6
BYLAYER
100
AcDbCircle
 10
69.524349999999998
 20
93.761750000000006
 30
0.0
 40
19.30781
100
AcDbArc
 50
217.87460000000002
 51
248.15661
  0
ARC
  5
9A
100
AcDbEntity
  8
_____1
 62
0
370
-1
 48
1.0
  6
BYLAYER
100
AcDbCircle
 10
73.230379999999997
 20
105.14608
 30
0.0
 40
31.263839999999998
100
AcDbArc
 50
249.61524000000003
 51
258.94977
  0
ARC
  5
9B
100
AcDbEntity
  8
_____1
 62
0
370
-1
 48
1.0
  6
BYLAYER
100
AcDbCircle
 10
91.156270000000006
 20
209.14904000000001
 30
0.0
 40
136.79441
100
AcDbArc
 50
259.93018999999998
 51
262.06438000000003
  0
ARC
  5
9C
100
AcDbEntity
  8
_____1
 62
0
370
-1
 48
1.0
  6
BYLAYER
100
AcDbCircle
 10
80.944609999999997
 20
169.54533000000001
 30
0.0
 40
96.272300000000001
100
AcDbArc
 50
264.83058999999997
 51
269.68178
  0
ARC
  5
9D
100
AcDbEntity
  8
_____1
 62
0
370
-1
 48
1.0
  6
BYLAYER
100
AcDbCircle
 10
82.40522
 20
-133.86295999999999
 30
0.0
 40
207.14707999999999
100
AcDbArc
 50
88.297129999999996
 51
90.551900000000003
  0
ARC
  5
9E
100
AcDbEntity
  8
_____1
 62
0
370
-1
 48
1.0
  6
BYLAYER
100
AcDbCircle
 10
87.924149999999997
 20
14.058909999999999
 30
0.0
 40
59.137160000000002
100
AcDbArc
 50
81.483280000000008
 51
89.383089999999982
  0
ARC
  5
9F
100
AcDbEntity
  8
_____1
 62
0
370
-1
 48
1.0
  6
BYLAYER
100
AcDbCircle
 10
94.229579999999999
 20
48.952629999999999
 30
0.0
 40
23.71846
100
AcDbArc
 50
64.348530000000011
 51
84.064599999999999
  0
ARC
  5
A0
100
AcDbEntity
  8
_____1
 62
0
370
-1
 48
1.0
  6
BYLAYER
100
AcDbCircle
 10
96.414289999999994
 20
52.476419999999997
 30
0.0
 40
19.601240000000001
100
AcDbArc
 50
29.481770000000001
 51
65.646360000000001
  0
ARC
  5
A1
100
AcDbEntity
  8
_____1
 62
0
370
-1
 48
1.0
  6
BYLAYER
100
AcDbCircle
 10
97.033150000000006
 20
53.083530000000003
 30
0.0
 40
18.765059999999998
100
AcDbArc
 50
-8.8956199999999992
 51
28.79804
  0
ARC
  5
A2
100
AcDbEntity
  8
_____1
 62
0
370
-1
 48
1.0
  6
BYLAYER
100
AcDbCircle
 10
103.12196
 20
52.139009999999999
 30
0.0
 40
12.603429999999999
100
AcDbArc
 50
350.03181000000001
 51
351.06627000000003
  0
ARC
  5
A3
100
AcDbEntity
  8
_____1
 62
0
370
-1
 48
1.0
  6
BYLAYER
100
AcDbCircle
 10
110.82593
 20
50.760379999999998
 30
0.0
 40
4.7771800000000004
100
AcDbArc
 50
349.07859000000002
 51
350.32272
  0
ARC
  5
A4
100
AcDbEntity
  8
_____1
 62
0
370
-1
 48
1.0
  6
BYLAYER
100
AcDbCircle
 10
109.15555000000001
 20
51.009250000000002
 30
0.0
 40
6.4648700000000003
100
AcDbArc
 50
347.87984999999998
 51
349.71769999999998
  0
ARC
  5
A5
100
AcDbEntity
  8
_____1
 62
0
370
-1
 48
1.0
  6
BYLAYER
100
AcDbCircle
 10
109.65313
 20
50.852330000000002
 30
0.0
 40
5.9456300000000004
100
AcDbArc
 50
344.35338999999999
 51
348.35154
  0
ARC
  5
A6
100
AcDbEntity
  8
_____1
 62
0
370
-1
 48
1.0
  6
BYLAYER
100
AcDbCircle
 10
113.03749000000001
 20
49.849800000000002
 30
0.0
 40
2.4168699999999999
100
AcDbArc
 50
335.76375000000002
 51
345.60064
  0
ARC
  5
A7
100
AcDbEntity
  8
_____1
 62
0
370
-1
 48
1.0
  6
BYLAYER
100
AcDbCircle
 10
115.03570999999999
 20
48.79316
 30
0.0
 40
0.21551
100
AcDbArc
 50
-108.72235999999999
 51
17.42015
  0
ARC
  5
A8
100
AcDbEntity
  8
_____1
 62
0
370
-1
 48
1.0
  6
BYLAYER
100
AcDbCircle
 10
118.88500999999999
 20
50.068199999999997
 30
0.0
 40
4.1883499999999998
100
AcDbArc
 50
178.44578000000004
 51
200.68055000000001
  0
ARC
  5
A9
100
AcDbEntity
  8
_____1
 62
0
370
-1
 48
1.0
  6
BYLAYER
100
AcDbCircle
 10
98.972880000000004
 20
50.015700000000002
 30
0.0
 40
15.7262
100
AcDbArc
 50
0.6051800000000001
 51
36.567880000000002
  0
ARC
  5
AA
100
AcDbEntity
  8
_____1
 62
0
370
-1
 48
1.0
  6
BYLAYER
100
AcDbCircle
 10
96.879739999999998
 20
48.088470000000001
 30
0.0
 40
18.557939999999999
100
AcDbArc
 50
37.496659999999991
 51
68.002549999999999
  0
ARC
  5
AB
100
AcDbEntity
  8
_____1
 62
0
370
-1
 48
1.0
  6
BYLAYER
100
AcDbCircle
 10
94.885059999999996
 20
41.746139999999997
 30
0.0
 40
25.191179999999999
100
AcDbArc
 50
69.199319999999986
 51
85.421229999999994
  0
ARC
  5
AC
100
AcDbEntity
  8
_____1
 62
0
370
-1
 48
1.0
  6
BYLAYER
100
AcDbCircle
 10
94.345179999999999
 20
28.424219999999998
 30
0.0
 40
38.517270000000003
100
AcDbArc
 50
86.202699999999993
 51
96.815969999999979
  0
ARC
  5
AD
100
AcDbEntity
  8
_____1
 62
0
370
-1
 48
1.0
  6
BYLAYER
100
AcDbCircle
 10
98.941400000000002
 20
2.3009900000000001
 30
0.0
 40
65.01782
100
AcDbArc
 50
98.105689999999996
 51
110.67836999999999
  0
ARC
  5
AE
100
AcDbEntity
  8
_____1
 62
0
370
-1
 48
1.0
  6
BYLAYER
100
AcDbCircle
 10
60.47775
 20
103.8079
 30
0.0
 40
43.532319999999999
100
AcDbArc
 50
277.21992
 51
290.86453000000006
  0
ARC
  5
AF
100
AcDbEntity
  8
_____1
 62
0
370
-1
 48
1.0
  6
BYLAYER
100
AcDbCircle
 10
60.958669999999998
 20
94.961690000000004
 30
0.0
 40
34.701619999999998
100
AcDbArc
 50
261.14366999999993
 51
278.26787999999999
  0
ARC
  5
B0
100
AcDbEntity
  8
_____1
 62
0
370
-1
 48
1.0
  6
BYLAYER
100
AcDbCircle
 10
90.620410000000007
 20
234.67211
 30
0.0
 40
177.48441
100
AcDbArc
 50
256.84111000000001
 51
258.62529000000001
  0
ARC
  5
B1
100
AcDbEntity
  8
_____1
 62
0
370
-1
 48
1.0
  6
BYLAYER
100
AcDbCircle
 10
44.28604
 20
38.918579999999999
 30
0.0
 40
23.683730000000001
100
AcDbArc
 50
75.500739999999993
 51
82.188890000000001
  0
ARC
  5
B2
100
AcDbEntity
  8
_____1
 62
0
370
-1
 48
1.0
  6
BYLAYER
100
AcDbCircle
 10
45.98415
 20
52.578879999999998
 30
0.0
 40
9.9209200000000006
100
AcDbArc
 50
81.182850000000002
 51
97.152449999999988
  0
ARC
  5
B3
100
AcDbEntity
  8
_____1
 62
0
370
-1
 48
1.0
  6
BYLAYER
100
AcDbCircle
 10
78.286609999999996
 20
54.407519999999998
 30
0.0
 40
34.48216
100
AcDbArc
 50
166.55914999999999
 51
183.81870000000001
  0
ARC
  5
B4
100
AcDbEntity
  8
_____1
 62
0
370
-1
 48
1.0
  6
BYLAYER
100
AcDbCircle
 10
84.15455
 20
54.716639999999998
 30
0.0
 40
40.357750000000003
100
AcDbArc
 50
183.70175
 51
198.45993999999999
  0
ARC
  5
B5
100
AcDbEntity
  8
_____1
 62
0
370
-1
 48
1.0
  6
BYLAYER
100
AcDbCircle
 10
22.92858
 20
35.33605
 30
0.0
 40
23.87565
100
AcDbArc
 50
-6.5772899999999996
 51
16.051500000000001
  0
ARC
  5
B6
100
AcDbEntity
  8
_____1
 62
0
370
-1
 48
1.0
  6
BYLAYER
100
AcDbCircle
 10
-14.403269999999999
 20
40.68974
 30
0.0
 40
61.583840000000002
100
AcDbArc
 50
348.05921999999998
 51
352.45289999999994
  0
ARC
  5
B7
100
AcDbEntity
  8
_____1
 62
0
370
-1
 48
1.0
  6
BYLAYER
100
AcDbCircle
 10
136.29465999999999
 20
6.4779099999999996
 30
0.0
 40
92.959999999999994
100
AcDbArc
 50
166.64635999999999
 51
169.55761999999999
  0
ARC
  5
B8
100
AcDbEntity
  8
_____1
 62
0
370
-1
 48
1.0
  6
BYLAYER
100
AcDbCircle
 10
79.162279999999996
 20
16.909189999999999
 30
0.0
 40
34.883360000000003
100
AcDbArc
 50
169.39905000000002
 51
177.96130999999997
  0
ARC
  5
B9
100
AcDbEntity
  8
_____1
 62
0
370
-1
 48
1.0
  6
BYLAYER
100
AcDbCircle
 10
61.797750000000001
 20
16.633780000000002
 30
0.0
 40
17.562329999999999
100
AcDbArc
 50
175.04680999999999
 51
192.07828000000001
  0
ARC
  5
BA
100
AcDbEntity
  8
_____1
 62
0
370
-1
 48
1.0
  6
BYLAYER
100
AcDbCircle
 10
33.981610000000003
 20
10.31733
 30
0.0
 40
10.96552
100
AcDbArc
 50
-16.440380000000001
 51
13.939509999999999
  0
ARC
  5
BB
100
AcDbEntity
  8
_____1
 62
0
370
-1
 48
1.0
  6
BYLAYER
100
AcDbCircle
 10
79.421080000000003
 20
0.12651
 30
0.0
 40
35.6342
100
AcDbArc
 50
168.52778000000001
 51
178.02178000000001
  0
ARC
  5
BC
100
AcDbEntity
  8
_____1
 62
0
370
-1
 48
1.0
  6
BYLAYER
100
AcDbCircle
 10
77.782709999999994
 20
-0.22224
 30
0.0
 40
34.011270000000003
100
AcDbArc
 50
177.33931999999999
 51
182.31612000000001
  0
ARC
  5
BD
100
AcDbEntity
  8
_____1
 62
0
370
-1
 48
1.0
  6
BYLAYER
100
AcDbCircle
 10
56.748779999999996
 20
-1.64299
 30
0.0
 40
12.949630000000001
100
AcDbArc
 50
179.79535999999999
 51
192.87459999999996
  0
ARC
  5
BE
100
AcDbEntity
  8
_____1
 62
0
370
-1
 48
1.0
  6
BYLAYER
100
AcDbCircle
 10
30.273109999999999
 20
-7.4637799999999999
 30
0.0
 40
14.1592
100
AcDbArc
 50
-3.7371999999999996
 51
11.964890000000002
  0
ARC
  5
BF
100
AcDbEntity
  8
_____1
 62
0
370
-1
 48
1.0
  6
BYLAYER
100
AcDbCircle
 10
17.951599999999999
 20
-5.83988
 30
0.0
 40
26.57292
100
AcDbArc
 50
346.13073000000003
 51
354.50022000000001
  0
ARC
  5
C0
100
AcDbEntity
  8
_____1
 62
0
370
-1
 48
1.0
  6
BYLAYER
100
AcDbCircle
 10
49.723649999999999
 20
-13.2896
 30
0.0
 40
6.0706899999999999
100
AcDbArc
 50
169.75233
 51
197.33309000000003
  0
ARC
  5
C1
100
AcDbEntity
  8
_____1
 62
0
370
-1
 48
1.0
  6
BYLAYER
100
AcDbCircle
 10
40.29421
 20
-16.230260000000001
 30
0.0
 40
3.8066499999999999
100
AcDbArc
 50
-26.958829999999999
 51
17.300630000000002
  0
ARC
  5
C2
100
AcDbEntity
  8
_____1
 62
0
370
-1
 48
1.0
  6
BYLAYER
100
AcDbCircle
 10
49.988219999999998
 20
-20.775929999999999
 30
0.0
 40
6.9032499999999999
100
AcDbArc
 50
155.88980000000001
 51
183.09005999999999
  0
ARC
  5
C3
100
AcDbEntity
  8
_____1
 62
0
370
-1
 48
1.0
  6
BYLAYER
100
AcDbCircle
 10
70.360579999999999
 20
-18.351559999999999
 30
0.0
 40
27.408609999999999
100
AcDbArc
 50
185.85606999999999
 51
192.72435999999999
  0
ARC
  5
C4
100
AcDbEntity
  8
_____1
 62
0
370
-1
 48
1.0
  6
BYLAYER
100
AcDbCircle
 10
35.167180000000002
 20
-26.46621
 30
0.0
 40
8.7093600000000002
100
AcDbArc
 50
4.9065500000000002
 51
13.80095
  0
ARC
  5
C5
100
AcDbEntity
  8
_____1
 62
0
370
-1
 48
1.0
  6
BYLAYER
100
AcDbCircle
 10
41.13288
 20
-26.16038
 30
0.0
 40
2.7470599999999998
100
AcDbArc
 50
-19.00836
 51
9.1974099999999996
  0
ARC
  5
C6
100
AcDbEntity
  8
_____1
 62
0
370
-1
 48
1.0
  6
BYLAYER
100
AcDbCircle
 10
42.03237
 20
-26.427019999999999
 30
0.0
 40
1.81023
100
AcDbArc
 50
297.17365000000001
 51
339.69815
  0
ARC
  5
C7
100
AcDbEntity
  8
_____1
 62
0
370
-1
 48
1.0
  6
BYLAYER
100
AcDbCircle
 10
41.026809999999998
 20
-23.805129999999998
 30
0.0
 40
4.6119199999999996
100
AcDbArc
 50
276.68385999999998
 51
293.40881999999999
  0
ARC
  5
C8
100
AcDbEntity
  8
_____1
 62
0
370
-1
 48
1.0
  6
BYLAYER
100
AcDbCircle
 10
39.714509999999997
 20
-12.281510000000001
 30
0.0
 40
16.210000000000001
100
AcDbArc
 50
275.97557
 51
276.55004000000002
  0
ARC
  5
C9
100
AcDbEntity
  8
_____1
 62
0
370
-1
 48
1.0
  6
BYLAYER
100
AcDbCircle
 10
39.067340000000002
 20
-5.0591200000000001
 30
0.0
 40
23.46077
100
AcDbArc
 50
275.51558
 51
275.71125000000001
  0
ARC
  5
CA
100
AcDbEntity
  8
_____1
 62
0
370
-1
 48
1.0
  6
BYLAYER
100
AcDbCircle
 10
41.352400000000003
 20
-28.577279999999998
 30
0.0
 40
0.16872
100
AcDbArc
 50
96.051610000000011
 51
100.27372
  0
ARC
  5
CB
100
AcDbEntity
  8
_____1
 62
0
370
-1
 48
1.0
  6
BYLAYER
100
AcDbCircle
 10
48.482039999999998
 20
-96.16816
 30
0.0
 40
68.13458
100
AcDbArc
 50
95.874889999999994
 51
96.021500000000003
  0
ARC
  5
CC
100
AcDbEntity
  8
_____1
 62
0
370
-1
 48
1.0
  6
BYLAYER
100
AcDbCircle
 10
40.616639999999997
 20
-20.90192
 30
0.0
 40
7.5423799999999996
100
AcDbArc
 50
275.50044000000003
 51
276.78721999999999
  0
ARC
  5
CD
100
AcDbEntity
  8
_____1
 62
0
370
-1
 48
1.0
  6
BYLAYER
100
AcDbCircle
 10
40.525539999999999
 20
-20.053290000000001
 30
0.0
 40
8.3958300000000001
100
AcDbArc
 50
272.36295000000001
 51
275.56412999999998
  0
ARC
  5
CE
100
AcDbEntity
  8
_____1
 62
0
370
-1
 48
1.0
  6
BYLAYER
100
AcDbCircle
 10
40.600230000000003
 20
-24.807880000000001
 30
0.0
 40
3.6442299999999999
100
AcDbArc
 50
259.52620999999999
 51
274.27208000000002
  0
ARC
  5
CF
100
AcDbEntity
  8
_____1
 62
0
370
-1
 48
1.0
  6
BYLAYER
100
AcDbCircle
 10
40.181930000000001
 20
-27.17972
 30
0.0
 40
1.23603
100
AcDbArc
 50
174.62902
 51
258.60673000000003
  0
ARC
  5
D0
100
AcDbEntity
  8
_____1
 62
0
370
-1
 48
1.0
  6
BYLAYER
100
AcDbCircle
 10
156.7662
 20
-52.809420000000003
 30
0.0
 40
120.59507000000001
100
AcDbArc
 50
166.78310999999999
 51
167.67326000000003
  0
ARC
  5
D1
100
AcDbEntity
  8
_____1
 62
0
370
-1
 48
1.0
  6
BYLAYER
100
AcDbCircle
 10
36.974119999999999
 20
-24.29665
 30
0.0
 40
2.5695600000000001
100
AcDbArc
 50
338.53799000000004
 51
380.68751999999995
  0
ARC
  5
D2
100
AcDbEntity
  8
_____1
 62
0
370
-1
 48
1.0
  6
BYLAYER
100
AcDbCircle
 10
46.008029999999998
 20
-31.199639999999999
 30
0.0
 40
10.245240000000001
100
AcDbArc
 50
130.32574
 51
140.91428999999999
  0
ARC
  5
D3
100
AcDbEntity
  8
_____1
 62
0
370
-1
 48
1.0
  6
BYLAYER
100
AcDbCircle
 10
12.05884
 20
-4.8894099999999998
 30
0.0
 40
32.709130000000002
100
AcDbArc
 50
319.31605999999999
 51
322.63515999999998
  0
ARC
  5
D4
100
AcDbEntity
  8
_____1
 62
0
370
-1
 48
1.0
  6
BYLAYER
100
AcDbCircle
 10
30.67099
 20
-21.3215
 30
0.0
 40
7.89018
100
AcDbArc
 50
307.92849000000001
 51
321.69662
  0
ARC
  5
D5
100
AcDbEntity
  8
_____1
 62
0
370
-1
 48
1.0
  6
BYLAYER
100
AcDbCircle
 10
33.47936
 20
-25.329529999999998
 30
0.0
 40
3.0127600000000001
100
AcDbArc
 50
276.48642000000007
 51
312.65904999999998
  0
ARC
  5
D6
100
AcDbEntity
  8
_____1
 62
0
370
-1
 48
1.0
  6
BYLAYER
100
AcDbCircle
 10
30.593060000000001
 20
-5.9668000000000001
 30
0.0
 40
22.58784
100
AcDbArc
 50
270.31948
 51
278.21269999999998
  0
ARC
  5
D7
100
AcDbEntity
  8
_____1
 62
0
370
-1
 48
1.0
  6
BYLAYER
100
AcDbCircle
 10
30.460609999999999
 20
-22.650030000000001
 30
0.0
 40
5.9099199999999996
100
AcDbArc
 50
257.41809999999998
 51
272.50594999999998
  0
ARC
  5
D8
100
AcDbEntity
  8
_____1
 62
0
370
-1
 48
1.0
  6
BYLAYER
100
AcDbCircle
 10
29.143529999999998
 20
-27.15082
 30
0.0
 40
1.26755
100
AcDbArc
 50
199.50300999999999
 51
271.34249999999997
  0
ARC
  5
D9
100
AcDbEntity
  8
_____1
 62
0
370
-1
 48
1.0
  6
BYLAYER
100
AcDbCircle
 10
26.27834
 20
-23.017040000000001
 30
0.0
 40
4.8534499999999996
100
AcDbArc
 50
256.96967999999998
 51
290.13047999999998
  0
ARC
  5
DA
100
AcDbEntity
  8
_____1
 62
0
370
-1
 48
1.0
  6
BYLAYER
100
AcDbCircle
 10
19.509309999999999
 20
-40.80641
 30
0.0
 40
14.24042
100
AcDbArc
 50
66.51585
 51
77.811369999999997
  0
ARC
  5
DB
100
AcDbEntity
  8
_____1
 62
0
370
-1
 48
1.0
  6
BYLAYER
100
AcDbCircle
 10
22.687750000000001
 20
-24.40399
 30
0.0
 40
2.48895
100
AcDbArc
 50
232.87086000000002
 51
266.04075
  0
ARC
  5
DC
100
AcDbEntity
  8
_____1
 62
0
370
-1
 48
1.0
  6
BYLAYER
100
AcDbCircle
 10
21.372530000000001
 20
-26.031590000000001
 30
0.0
 40
0.40288
100
AcDbArc
 50
141.59748999999999
 51
242.32130000000001
  0
ARC
  5
DD
100
AcDbEntity
  8
_____1
 62
0
370
-1
 48
1.0
  6
BYLAYER
100
AcDbCircle
 10
22.44181
 20
-27.206720000000001
 30
0.0
 40
1.9874499999999999
100
AcDbArc
 50
113.75834999999999
 51
134.17651000000001
  0
ARC
  5
DE
100
AcDbEntity
  8
_____1
 62
0
370
-1
 48
1.0
  6
BYLAYER
100
AcDbCircle
 10
18.89302
 20
-28.571739999999998
 30
0.0
 40
4.2059600000000001
100
AcDbArc
 50
49.203230000000005
 51
84.029610000000005
  0
ARC
  5
DF
100
AcDbEntity
  8
_____1
 62
0
370
-1
 48
1.0
  6
BYLAYER
100
AcDbCircle
 10
21.794180000000001
 20
-25.78219
 30
0.0
 40
2.8305099999999999
100
AcDbArc
 50
117.22305999999999
 51
150.50523000000001
  0
ARC
  5
E0
100
AcDbEntity
  8
_____1
 62
0
370
-1
 48
1.0
  6
BYLAYER
100
AcDbCircle
 10
24.387229999999999
 20
-31.47251
 30
0.0
 40
9.0815999999999999
100
AcDbArc
 50
104.89442
 51
115.34741
  0
ARC
  5
E1
100
AcDbEntity
  8
_____1
 62
0
370
-1
 48
1.0
  6
BYLAYER
100
AcDbCircle
 10
26.32302
 20
-39.936430000000001
 30
0.0
 40
17.761340000000001
100
AcDbArc
 50
93.217960000000005
 51
103.91110999999999
  0
ARC
  5
E2
100
AcDbEntity
  8
_____1
 62
0
370
-1
 48
1.0
  6
BYLAYER
100
AcDbCircle
 10
24.76332
 20
-18.256689999999999
 30
0.0
 40
3.9863300000000002
100
AcDbArc
 50
278.11457000000001
 51
315.29991999999999
  0
ARC
  5
E3
100
AcDbEntity
  8
_____1
 62
0
370
-1
 48
1.0
  6
BYLAYER
100
AcDbCircle
 10
-0.2446
 20
2.79922
 30
0.0
 40
36.666559999999997
100
AcDbArc
 50
319.40366
 51
323.47872999999998
  0
ARC
  5
E4
100
AcDbEntity
  8
_____1
 62
0
370
-1
 48
1.0
  6
BYLAYER
100
AcDbCircle
 10
47.492139999999999
 20
-31.394729999999999
 30
0.0
 40
22.065529999999999
100
AcDbArc
 50
132.33249999999998
 51
145.89339000000001
  0
ARC
  5
E5
100
AcDbEntity
  8
_____1
 62
0
370
-1
 48
1.0
  6
BYLAYER
100
AcDbCircle
 10
21.155349999999999
 20
-4.6342699999999999
 30
0.0
 40
15.520849999999999
100
AcDbArc
 50
317.68600000000004
 51
335.0976
  0
ARC
  5
E6
100
AcDbEntity
  8
_____1
 62
0
370
-1
 48
1.0
  6
BYLAYER
100
AcDbCircle
 10
5.69008
 20
2.0855399999999999
 30
0.0
 40
32.380470000000003
100
AcDbArc
 50
335.83542999999997
 51
344.19466999999997
  0
ARC
  5
E7
100
AcDbEntity
  8
_____1
 62
0
370
-1
 48
1.0
  6
BYLAYER
100
AcDbCircle
 10
2.4436800000000001
 20
3.0666600000000002
 30
0.0
 40
35.771419999999999
100
AcDbArc
 50
344.09888999999998
 51
351.66710999999998
  0
ARC
  5
E8
100
AcDbEntity
  8
_____1
 62
0
370
-1
 48
1.0
  6
BYLAYER
100
AcDbCircle
 10
15.732419999999999
 20
1.61364
 30
0.0
 40
22.41771
100
AcDbArc
 50
350.41931
 51
362.49952000000002
  0
ARC
  5
E9
100
AcDbEntity
  8
_____1
 62
0
370
-1
 48
1.0
  6
BYLAYER
100
AcDbCircle
 10
-114.61351999999999
 20
-5.9290099999999999
 30
0.0
 40
152.97977
100
AcDbArc
 50
3.19278
 51
5.5989300000000002
  0
ARC
  5
EA
100
AcDbEntity
  8
_____1
 62
0
370
-1
 48
1.0
  6
BYLAYER
100
AcDbCircle
 10
82.176680000000005
 20
14.262
 30
0.0
 40
44.850430000000003
100
AcDbArc
 50
182.63825999999997
 51
186.74233999999998
  0
ARC
  5
EB
100
AcDbEntity
  8
_____1
 62
0
370
-1
 48
1.0
  6
BYLAYER
100
AcDbCircle
 10
47.74841
 20
13.17619
 30
0.0
 40
10.420680000000001
100
AcDbArc
 50
167.70849000000001
 51
185.38884999999999
  0
ARC
  5
EC
100
AcDbEntity
  8
_____1
 62
0
370
-1
 48
1.0
  6
BYLAYER
100
AcDbCircle
 10
30.65494
 20
17.37548
 30
0.0
 40
7.1899199999999999
100
AcDbArc
 50
344.00767000000002
 51
369.45532000000003
  0
ARC
  5
ED
100
AcDbEntity
  8
_____1
 62
0
370
-1
 48
1.0
  6
BYLAYER
100
AcDbCircle
 10
50.929589999999997
 20
22.23264
 30
0.0
 40
13.685359999999999
100
AcDbArc
 50
182.21966
 51
195.58150000000001
  0
ARC
  5
EE
100
AcDbEntity
  8
_____1
 62
0
370
-1
 48
1.0
  6
BYLAYER
100
AcDbCircle
 10
29.904039999999998
 20
20.859020000000001
 30
0.0
 40
7.3987100000000003
100
AcDbArc
 50
6.54697
 51
23.974730000000005
  0
ARC
  5
EF
100
AcDbEntity
  8
_____1
 62
0
370
-1
 48
1.0
  6
BYLAYER
100
AcDbCircle
 10
-1.2892399999999999
 20
6.0590400000000004
 30
0.0
 40
41.923090000000002
100
AcDbArc
 50
25.134060000000002
 51
28.213899999999999
  0
ARC
  5
F0
100
AcDbEntity
  8
_____1
 62
0
370
-1
 48
1.0
  6
BYLAYER
100
AcDbCircle
 10
45.805160000000001
 20
32.675139999999999
 30
0.0
 40
12.217129999999999
100
AcDbArc
 50
192.60316999999998
 51
213.80005
  0
ARC
  5
F1
100
AcDbEntity
  8
_____1
 62
0
370
-1
 48
1.0
  6
BYLAYER
100
AcDbCircle
 10
59.899419999999999
 20
38.744669999999999
 30
0.0
 40
27.444320000000001
100
AcDbArc
 50
190.69646000000003
 51
198.55958999999999
  0
ARC
  5
F2
100
AcDbEntity
  8
_____1
 62
0
370
-1
 48
1.0
  6
BYLAYER
100
AcDbCircle
 10
46.099220000000003
 20
35.752319999999997
 30
0.0
 40
13.33389
100
AcDbArc
 50
172.90263999999999
 51
189.06785999999997
  0
ARC
  5
F3
100
AcDbEntity
  8
_____1
 62
0
370
-1
 48
1.0
  6
BYLAYER
100
AcDbCircle
 10
-4.96462
 20
45.01446
 30
0.0
 40
38.59084
100
AcDbArc
 50
348.61984999999999
 51
361.39148
  0
ARC
  5
F4
100
AcDbEntity
  8
_____1
 62
0
370
-1
 48
1.0
  6
BYLAYER
100
AcDbCircle
 10
16.040120000000002
 20
45.949330000000003
 30
0.0
 40
17.574719999999999
100
AcDbArc
 50
0.00734
 51
14.02272
  0
ARC
  5
F5
100
AcDbEntity
  8
_____1
 62
0
370
-1
 48
1.0
  6
BYLAYER
100
AcDbCircle
 10
24.72531
 20
48.583109999999998
 30
0.0
 40
8.5220900000000004
100
AcDbArc
 50
10.99037
 51
39.939419999999998
  0
ARC
  5
F6
100
AcDbEntity
  8
_____1
 62
0
370
-1
 48
1.0
  6
BYLAYER
100
AcDbCircle
 10
19.122019999999999
 20
60.821210000000001
 30
0.0
 40
13.89639
100
AcDbArc
 50
302.31788999999998
 51
330.85846999999995
  0
ARC
  5
F7
100
AcDbEntity
  8
_____1
 62
0
370
-1
 48
1.0
  6
BYLAYER
100
AcDbCircle
 10
20.164169999999999
 20
58.169530000000002
 30
0.0
 40
11.11131
100
AcDbArc
 50
269.24160999999992
 51
305.08758999999998
  0
ARC
  5
F8
100
AcDbEntity
  8
_____1
 62
0
370
-1
 48
1.0
  6
BYLAYER
100
AcDbCircle
 10
19.90832
 20
51.849960000000003
 30
0.0
 40
4.7919999999999998
100
AcDbArc
 50
253.88751000000002
 51
271.30079000000001
  0
ARC
  5
F9
100
AcDbEntity
  8
_____1
 62
0
370
-1
 48
1.0
  6
BYLAYER
100
AcDbCircle
 10
19.204989999999999
 20
49.713619999999999
 30
0.0
 40
2.5457299999999998
100
AcDbArc
 50
223.02125000000001
 51
255.75169999999997
  0
ARC
  5
FA
100
AcDbEntity
  8
_____1
 62
0
370
-1
 48
1.0
  6
BYLAYER
100
AcDbCircle
 10
21.788889999999999
 20
50.931319999999999
 30
0.0
 40
5.33744
100
AcDbArc
 50
182.68378000000001
 51
213.61129
  0
ARC
  5
FB
100
AcDbEntity
  8
_____1
 62
0
370
-1
 48
1.0
  6
BYLAYER
100
AcDbCircle
 10
8.1472499999999997
 20
49.604939999999999
 30
0.0
 40
8.3794799999999992
100
AcDbArc
 50
7.3808499999999997
 51
27.968800000000002
  0
ARC
  5
FC
100
AcDbEntity
  8
_____1
 62
0
370
-1
 48
1.0
  6
BYLAYER
100
AcDbCircle
 10
32.131819999999998
 20
63.202970000000001
 30
0.0
 40
19.19622
100
AcDbArc
 50
205.73229999999998
 51
210.24162000000001
  0
ARC
  5
FD
100
AcDbEntity
  8
_____1
 62
0
370
-1
 48
1.0
  6
BYLAYER
100
AcDbCircle
 10
17.81878
 20
56.574739999999998
 30
0.0
 40
3.43344
100
AcDbArc
 50
184.53776999999999
 51
209.79629
  0
ARC
  5
FE
100
AcDbEntity
  8
_____1
 62
0
370
-1
 48
1.0
  6
BYLAYER
100
AcDbCircle
 10
-11.39202
 20
81.004519999999999
 30
0.0
 40
35.709760000000003
100
AcDbArc
 50
310.94451000000004
 51
316.23298999999997
  0
ARC
  5
FF
100
AcDbEntity
  8
_____1
 62
0
370
-1
 48
1.0
  6
BYLAYER
100
AcDbCircle
 10
19.553660000000001
 20
44.73274
 30
0.0
 40
11.974019999999999
100
AcDbArc
 50
129.05288999999999
 51
136.94558000000001
  0
ARC
  5
100
100
AcDbEntity
  8
_____1
 62
0
370
-1
 48
1.0
  6
BYLAYER
100
AcDbCircle
 10
13.362450000000001
 20
50.354349999999997
 30
0.0
 40
3.6141899999999998
100
AcDbArc
 50
135.05933999999999
 51
148.14394999999999
  0
ARC
  5
101
100
AcDbEntity
  8
_____1
 62
0
370
-1
 48
1.0
  6
BYLAYER
100
AcDbCircle
 10
11.25779
 20
51.493769999999998
 30
0.0
 40
1.23349
100
AcDbArc
 50
141.48611
 51
180.00345999999999
  0
ARC
  5
102
100
AcDbEntity
  8
_____1
 62
0
370
-1
 48
1.0
  6
BYLAYER
100
AcDbCircle
 10
15.10111
 20
52.190150000000003
 30
0.0
 40
5.1243600000000002
100
AcDbArc
 50
187.81122999999997
 51
207.15871000000001
  0
ARC
  5
103
100
AcDbEntity
  8
_____1
 62
0
370
-1
 48
1.0
  6
BYLAYER
100
AcDbCircle
 10
51.895180000000003
 20
72.445459999999997
 30
0.0
 40
47.123379999999997
100
AcDbArc
 50
208.65094999999999
 51
210.75802999999999
  0
ARC
  5
104
100
AcDbEntity
  8
_____1
 62
0
370
-1
 48
1.0
  6
BYLAYER
100
AcDbCircle
 10
-11.914680000000001
 20
33.67257
 30
0.0
 40
27.548169999999999
100
AcDbArc
 50
24.973129999999998
 51
32.184260000000002
  0
ARC
  5
105
100
AcDbEntity
  8
_____1
 62
0
370
-1
 48
1.0
  6
BYLAYER
100
AcDbCircle
 10
-3.37853
 20
37.526730000000001
 30
0.0
 40
18.183240000000001
100
AcDbArc
 50
3.4735199999999997
 51
25.320010000000003
  0
ARC
  5
106
100
AcDbEntity
  8
_____1
 62
0
370
-1
 48
1.0
  6
BYLAYER
100
AcDbCircle
 10
338.27640000000002
 20
54.706400000000002
 30
0.0
 40
323.90438999999998
100
AcDbArc
 50
182.84522000000004
 51
183.86608999999999
  0
ARC
  5
107
100
AcDbEntity
  8
_____1
 62
0
370
-1
 48
1.0
  6
BYLAYER
100
AcDbCircle
 10
79.562610000000006
 20
36.401690000000002
 30
0.0
 40
64.550349999999995
100
AcDbArc
 50
183.13881000000001
 51
188.26195999999999
  0
ARC
  5
108
100
AcDbEntity
  8
_____1
 62
0
370
-1
 48
1.0
  6
BYLAYER
100
AcDbCircle
 10
45.971589999999999
 20
30.92568
 30
0.0
 40
30.526789999999998
100
AcDbArc
 50
187.15044
 51
197.98570000000001
  0
ARC
  5
109
100
AcDbEntity
  8
_____1
 62
0
370
-1
 48
1.0
  6
BYLAYER
100
AcDbCircle
 10
33.823500000000003
 20
26.532050000000002
 30
0.0
 40
17.62087
100
AcDbArc
 50
196.59437999999997
 51
215.37172000000001
  0
ARC
  5
10A
100
AcDbEntity
  8
_____1
 62
0
370
-1
 48
1.0
  6
BYLAYER
100
AcDbCircle
 10
10.234970000000001
 20
8.6780000000000008
 30
0.0
 40
11.98297
100
AcDbArc
 50
20.506930000000001
 51
39.69603
  0
ARC
  5
10B
100
AcDbEntity
  8
_____1
 62
0
370
-1
 48
1.0
  6
BYLAYER
100
AcDbCircle
 10
18.733450000000001
 20
11.584949999999999
 30
0.0
 40
3.0154399999999999
100
AcDbArc
 50
-12.808909999999999
 51
25.34761
  0
ARC
  5
10C
100
AcDbEntity
  8
_____1
 62
0
370
-1
 48
1.0
  6
BYLAYER
100
AcDbCircle
 10
14.637269999999999
 20
13.41109
 30
0.0
 40
7.4657099999999996
100
AcDbArc
 50
325.19150000000002
 51
340.47913999999997
  0
ARC
  5
10D
100
AcDbEntity
  8
_____1
 62
0
370
-1
 48
1.0
  6
BYLAYER
100
AcDbCircle
 10
-1.6143799999999999
 20
25.377700000000001
 30
0.0
 40
27.645759999999999
100
AcDbArc
 50
310.64978000000002
 51
324.05498999999998
  0
ARC
  5
10E
100
AcDbEntity
  8
_____1
 62
0
370
-1
 48
1.0
  6
BYLAYER
100
AcDbCircle
 10
4.7518200000000004
 20
1.5228600000000001
 30
0.0
 40
11.99405
100
AcDbArc
 50
0.29836
 51
13.892780000000002
  0
ARC
  5
10F
100
AcDbEntity
  8
_____1
 62
0
370
-1
 48
1.0
  6
BYLAYER
100
AcDbCircle
 10
22.820799999999998
 20
1.0200499999999999
 30
0.0
 40
6.1013400000000004
100
AcDbArc
 50
174.68416999999999
 51
201.51517000000001
  0
ARC
  5
110
100
AcDbEntity
  8
_____1
 62
0
370
-1
 48
1.0
  6
BYLAYER
100
AcDbCircle
 10
11.32236
 20
-3.5477300000000001
 30
0.0
 40
6.2712000000000003
100
AcDbArc
 50
-16.606270000000002
 51
21.811900000000001
  0
ARC
  5
111
100
AcDbEntity
  8
_____1
 62
0
370
-1
 48
1.0
  6
BYLAYER
100
AcDbCircle
 10
-11.783910000000001
 20
3.1222500000000002
 30
0.0
 40
30.320709999999998
100
AcDbArc
 50
343.04106000000002
 51
343.79401999999999
  0
ARC
  5
112
100
AcDbEntity
  8
_____1
 62
0
370
-1
 48
1.0
  6
BYLAYER
100
AcDbCircle
 10
-3.8262100000000001
 20
0.75131
 30
0.0
 40
22.01755
100
AcDbArc
 50
341.59676999999999
 51
342.90231999999997
  0
ARC
  5
113
100
AcDbEntity
  8
_____1
 62
0
370
-1
 48
1.0
  6
BYLAYER
100
AcDbCircle
 10
9.3605099999999997
 20
-3.7846299999999999
 30
0.0
 40
8.0744600000000002
100
AcDbArc
 50
335.47611000000001
 51
342.59652999999997
  0
ARC
  5
114
100
AcDbEntity
  8
_____1
 62
0
370
-1
 48
1.0
  6
BYLAYER
100
AcDbCircle
 10
14.51084
 20
-6.2313299999999998
 30
0.0
 40
2.3748200000000002
100
AcDbArc
 50
325.48956999999996
 51
337.60493000000002
  0
ARC
  5
115
100
AcDbEntity
  8
_____1
 62
0
370
-1
 48
1.0
  6
BYLAYER
100
AcDbCircle
 10
16.223299999999998
 20
-7.5865099999999996
 30
0.0
 40
0.24464
100
AcDbArc
 50
-128.17213000000001
 51
2.2737400000000001
  0
ARC
  5
116
100
AcDbEntity
  8
_____1
 62
0
370
-1
 48
1.0
  6
BYLAYER
100
AcDbCircle
 10
18.435870000000001
 20
-6.50176
 30
0.0
 40
2.68668
100
AcDbArc
 50
187.20445000000001
 51
208.3811
  0
ARC
  5
117
100
AcDbEntity
  8
_____1
 62
0
370
-1
 48
1.0
  6
BYLAYER
100
AcDbCircle
 10
12.752269999999999
 20
-6.8134800000000002
 30
0.0
 40
3.01824
100
AcDbArc
 50
359.52122000000003
 51
393.04212999999999
  0
ARC
  5
118
100
AcDbEntity
  8
_____1
 62
0
370
-1
 48
1.0
  6
BYLAYER
100
AcDbCircle
 10
13.369300000000001
 20
-7.0722399999999999
 30
0.0
 40
2.6994099999999999
100
AcDbArc
 50
44.870930000000001
 51
81.424769999999995
  0
ARC
  5
119
100
AcDbEntity
  8
_____1
 62
0
370
-1
 48
1.0
  6
BYLAYER
100
AcDbCircle
 10
27.451550000000001
 20
-8.9858600000000006
 30
0.0
 40
14.427
100
AcDbArc
 50
161.47863000000001
 51
190.63343999999998
  0
ARC
  5
11A
100
AcDbEntity
  8
_____1
 62
0
370
-1
 48
1.0
  6
BYLAYER
100
AcDbCircle
 10
9.3792200000000001
 20
-12.619300000000001
 30
0.0
 40
4.01241
100
AcDbArc
 50
-16.500029999999999
 51
14.008929999999999
  0
ARC
  5
11B
100
AcDbEntity
  8
_____1
 62
0
370
-1
 48
1.0
  6
BYLAYER
100
AcDbCircle
 10
11.03895
 20
-13.260389999999999
 30
0.0
 40
2.2435299999999998
100
AcDbArc
 50
292.51611000000003
 51
347.16212000000002
  0
ARC
  5
11C
100
AcDbEntity
  8
_____1
 62
0
370
-1
 48
1.0
  6
BYLAYER
100
AcDbCircle
 10
13.204610000000001
 20
-17.43262
 30
0.0
 40
2.4730099999999999
100
AcDbArc
 50
121.89113999999998
 51
164.32216
  0
ARC
  5
11D
100
AcDbEntity
  8
_____1
 62
0
370
-1
 48
1.0
  6
BYLAYER
100
AcDbCircle
 10
7.0409899999999999
 20
-16.106809999999999
 30
0.0
 40
3.83934
100
AcDbArc
 50
336.21023000000008
 51
350.13878999999997
  0
ARC
  5
11E
100
AcDbEntity
  8
_____1
 62
0
370
-1
 48
1.0
  6
BYLAYER
100
AcDbCircle
 10
9.6658399999999993
 20
-17.362400000000001
 30
0.0
 40
0.93538
100
AcDbArc
 50
284.47206999999997
 51
341.73705999999999
  0
ARC
  5
11F
100
AcDbEntity
  8
_____1
 62
0
370
-1
 48
1.0
  6
BYLAYER
100
AcDbCircle
 10
12.95008
 20
-16.363060000000001
 30
0.0
 40
3.5964800000000001
100
AcDbArc
 50
180.84437000000003
 51
211.98500999999999
  0
ARC
  5
120
100
AcDbEntity
  8
_____1
 62
0
370
-1
 48
1.0
  6
BYLAYER
100
AcDbCircle
 10
-7.0857299999999999
 20
-14.523910000000001
 30
0.0
 40
16.548259999999999
100
AcDbArc
 50
353.43436000000003
 51
360.22645999999997
  0
ARC
  5
121
100
AcDbEntity
  8
_____1
 62
0
370
-1
 48
1.0
  6
BYLAYER
100
AcDbCircle
 10
6.26553
 20
-14.82109
 30
0.0
 40
3.2173699999999998
100
AcDbArc
 50
6.4708999999999994
 51
24.919440000000002
  0
ARC
  5
122
100
AcDbEntity
  8
_____1
 62
0
370
-1
 48
1.0
  6
BYLAYER
100
AcDbCircle
 10
13.38832
 20
-11.167490000000001
 30
0.0
 40
4.7919099999999997
100
AcDbArc
 50
196.19811000000004
 51
208.65630000000002
  0
ARC
  5
123
100
AcDbEntity
  8
_____1
 62
0
370
-1
 48
1.0
  6
BYLAYER
100
AcDbCircle
 10
12.25807
 20
-11.672779999999999
 30
0.0
 40
3.56962
100
AcDbArc
 50
160.15199000000001
 51
193.46948
  0
ARC
  5
124
100
AcDbEntity
  8
_____1
 62
0
370
-1
 48
1.0
  6
BYLAYER
100
AcDbCircle
 10
6.2584900000000001
 20
-9.2397600000000004
 30
0.0
 40
2.9105300000000001
100
AcDbArc
 50
335.19535000000008
 51
374.56565000000006
  0
ARC
  5
125
100
AcDbEntity
  8
_____1
 62
0
370
-1
 48
1.0
  6
BYLAYER
100
AcDbCircle
 10
8.0690299999999997
 20
-8.7016500000000008
 30
0.0
 40
1.02494
100
AcDbArc
 50
10.90282
 51
39.533749999999998
  0
ARC
  5
126
100
AcDbEntity
  8
_____1
 62
0
370
-1
 48
1.0
  6
BYLAYER
100
AcDbCircle
 10
8.5237300000000005
 20
-8.2686200000000003
 30
0.0
 40
0.4011
100
AcDbArc
 50
33.157739999999997
 51
106.59289
  0
ARC
  5
127
100
AcDbEntity
  8
_____1
 62
0
370
-1
 48
1.0
  6
BYLAYER
100
AcDbCircle
 10
9.4071700000000007
 20
-9.3539899999999996
 30
0.0
 40
1.7765599999999999
100
AcDbArc
 50
124.17693
 51
156.65871000000001
  0
ARC
  5
128
100
AcDbEntity
  8
_____1
 62
0
370
-1
 48
1.0
  6
BYLAYER
100
AcDbCircle
 10
20.585619999999999
 20
-11.582050000000001
 30
0.0
 40
13.140879999999999
100
AcDbArc
 50
167.10783000000001
 51
181.38381000000001
  0
ARC
  5
129
100
AcDbEntity
  8
_____1
 62
0
370
-1
 48
1.0
  6
BYLAYER
100
AcDbCircle
 10
-10.56601
 20
-12.814159999999999
 30
0.0
 40
18.037790000000001
100
AcDbArc
 50
-2.3132000000000001
 51
2.9068999999999994
  0
ARC
  5
12A
100
AcDbEntity
  8
_____1
 62
0
370
-1
 48
1.0
  6
BYLAYER
100
AcDbCircle
 10
4.5439800000000004
 20
-13.81765
 30
0.0
 40
2.9260999999999999
100
AcDbArc
 50
-26.972079999999998
 51
5.4016400000000004
  0
ARC
  5
12B
100
AcDbEntity
  8
_____1
 62
0
370
-1
 48
1.0
  6
BYLAYER
100
AcDbCircle
 10
1.1522300000000001
 20
-11.777799999999999
 30
0.0
 40
6.8797899999999998
100
AcDbArc
 50
313.66652999999997
 51
330.69855000000001
  0
ARC
  5
12C
100
AcDbEntity
  8
_____1
 62
0
370
-1
 48
1.0
  6
BYLAYER
100
AcDbCircle
 10
9.5475399999999997
 20
-21.200839999999999
 30
0.0
 40
5.7495399999999997
100
AcDbArc
 50
129.34431999999998
 51
139.56549999999999
  0
ARC
  5
12D
100
AcDbEntity
  8
_____1
 62
0
370
-1
 48
1.0
  6
BYLAYER
100
AcDbCircle
 10
6.06609
 20
-18.397829999999999
 30
0.0
 40
1.2877000000000001
100
AcDbArc
 50
134.01773000000003
 51
179.77617000000001
  0
ARC
  5
12E
100
AcDbEntity
  8
_____1
 62
0
370
-1
 48
1.0
  6
BYLAYER
100
AcDbCircle
 10
-5.3979600000000003
 20
-19.150780000000001
 30
0.0
 40
10.204549999999999
100
AcDbArc
 50
-18.5063
 51
4.2598000000000003
  0
ARC
  5
12F
100
AcDbEntity
  8
_____1
 62
0
370
-1
 48
1.0
  6
BYLAYER
100
AcDbCircle
 10
8.2661599999999993
 20
-18.266760000000001
 30
0.0
 40
5.7356499999999997
100
AcDbArc
 50
204.45857000000001
 51
225.95916000000003
  0
ARC
  5
130
100
AcDbEntity
  8
_____1
 62
0
370
-1
 48
1.0
  6
BYLAYER
100
AcDbCircle
 10
13.163399999999999
 20
-16.171240000000001
 30
0.0
 40
11.06169
100
AcDbArc
 50
192.65259
 51
203.83617000000001
  0
ARC
  5
131
100
AcDbEntity
  8
_____1
 62
0
370
-1
 48
1.0
  6
BYLAYER
100
AcDbCircle
 10
10.20959
 20
-16.337019999999999
 30
0.0
 40
8.1577400000000004
100
AcDbArc
 50
165.63499999999999
 51
196.06271000000001
  0
ARC
  5
132
100
AcDbEntity
  8
_____1
 62
0
370
-1
 48
1.0
  6
BYLAYER
100
AcDbCircle
 10
2.87799
 20
-19.883559999999999
 30
0.0
 40
5.5996600000000001
100
AcDbArc
 50
95.853539999999995
 51
115.20471000000001
  0
ARC
  5
133
100
AcDbEntity
  8
_____1
 62
0
370
-1
 48
1.0
  6
BYLAYER
100
AcDbCircle
 10
1.5170399999999999
 20
-17.26492
 30
0.0
 40
2.6533199999999999
100
AcDbArc
 50
112.69422000000002
 51
133.13207
  0
ARC
  5
134
100
AcDbEntity
  8
_____1
 62
0
370
-1
 48
1.0
  6
BYLAYER
100
AcDbCircle
 10
0.28431
 20
-16.144500000000001
 30
0.0
 40
1.0018100000000001
100
AcDbArc
 50
125.46822
 51
179.99988999999999
  0
ARC
  5
135
100
AcDbEntity
  8
_____1
 62
0
370
-1
 48
1.0
  6
BYLAYER
100
AcDbCircle
 10
-2.7770999999999999
 20
-16.300380000000001
 30
0.0
 40
2.06549
100
AcDbArc
 50
-30.90569
 51
4.3282400000000001
  0
ARC
  5
136
100
AcDbEntity
  8
_____1
 62
0
370
-1
 48
1.0
  6
BYLAYER
100
AcDbCircle
 10
-1.2621800000000001
 20
-17.25628
 30
0.0
 40
0.27789
100
AcDbArc
 50
210.47772000000001
 51
337.80110000000002
  0
ARC
  5
137
100
AcDbEntity
  8
_____1
 62
0
370
-1
 48
1.0
  6
BYLAYER
100
AcDbCircle
 10
1.39299
 20
-16.054770000000001
 30
0.0
 40
3.1908099999999999
100
AcDbArc
 50
192.93097000000003
 51
204.88040999999998
  0
ARC
  5
138
100
AcDbEntity
  8
_____1
 62
0
370
-1
 48
1.0
  6
BYLAYER
100
AcDbCircle
 10
9.5337999999999994
 20
-14.45152
 30
0.0
 40
11.48686
100
AcDbArc
 50
178.26644999999999
 51
191.63833
  0
ARC
  5
139
100
AcDbEntity
  8
_____1
 62
0
370
-1
 48
1.0
  6
BYLAYER
100
AcDbCircle
 10
5.2910599999999999
 20
-14.20731
 30
0.0
 40
7.2396000000000003
100
AcDbArc
 50
168.57068999999998
 51
179.18256999999997
  0
ARC
  5
13A
100
AcDbEntity
  8
_____1
 62
0
370
-1
 48
1.0
  6
BYLAYER
100
AcDbCircle
 10
0.99046
 20
-13.09717
 30
0.0
 40
2.8142100000000001
100
AcDbArc
 50
145.99548999999999
 51
173.37957
  0
ARC
  5
13B
100
AcDbEntity
  8
_____1
 62
0
370
-1
 48
1.0
  6
BYLAYER
100
AcDbCircle
 10
-45.526850000000003
 20
19.226279999999999
 30
0.0
 40
53.831150000000001
100
AcDbArc
 50
325.16446999999999
 51
330.58627000000001
  0
ARC
  5
13C
100
AcDbEntity
  8
_____1
 62
0
370
-1
 48
1.0
  6
BYLAYER
100
AcDbCircle
 10
-17.998719999999999
 20
4.2248999999999999
 30
0.0
 40
22.488679999999999
100
AcDbArc
 50
329.43520000000001
 51
335.92259999999999
  0
ARC
  5
13D
100
AcDbEntity
  8
_____1
 62
0
370
-1
 48
1.0
  6
BYLAYER
100
AcDbCircle
 10
-1.99814
 20
-2.2277
 30
0.0
 40
5.2862299999999998
100
AcDbArc
 50
329.00616000000002
 51
356.73361999999997
  0
ARC
  5
13E
100
AcDbEntity
  8
_____1
 62
0
370
-1
 48
1.0
  6
BYLAYER
100
AcDbCircle
 10
11.590780000000001
 20
-4.1197400000000002
 30
0.0
 40
8.4621600000000008
100
AcDbArc
 50
141.60679999999999
 51
169.16419999999999
  0
ARC
  5
13F
100
AcDbEntity
  8
_____1
 62
0
370
-1
 48
1.0
  6
BYLAYER
100
AcDbCircle
 10
18.07743
 20
-9.5584299999999995
 30
0.0
 40
16.925519999999999
100
AcDbArc
 50
126.96056
 51
140.8143
  0
ARC
  5
140
100
AcDbEntity
  8
_____1
 62
0
370
-1
 48
1.0
  6
BYLAYER
100
AcDbCircle
 10
-19.594069999999999
 20
39.173760000000001
 30
0.0
 40
44.671639999999996
100
AcDbArc
 50
307.98723000000001
 51
314.57769999999999
  0
ARC
  5
141
100
AcDbEntity
  8
_____1
 62
0
370
-1
 48
1.0
  6
BYLAYER
100
AcDbCircle
 10
-3.2689499999999998
 20
23.96538
 30
0.0
 40
22.400839999999999
100
AcDbArc
 50
312.13695999999999
 51
325.29117000000002
  0
ARC
  5
142
100
AcDbEntity
  8
_____1
 62
0
370
-1
 48
1.0
  6
BYLAYER
100
AcDbCircle
 10
-34.5807
 20
-2.0011999999999999
 30
0.0
 40
51.451590000000003
100
AcDbArc
 50
14.878690000000001
 51
21.514319999999998
  0
ARC
  5
143
100
AcDbEntity
  8
_____1
 62
0
370
-1
 48
1.0
  6
BYLAYER
100
AcDbCircle
 10
-16.67878
 20
5.3747199999999999
 30
0.0
 40
32.093339999999998
100
AcDbArc
 50
20.984490000000005
 51
31.623100000000001
  0
ARC
  5
144
100
AcDbEntity
  8
_____1
 62
0
370
-1
 48
1.0
  6
BYLAYER
100
AcDbCircle
 10
311.38085000000001
 20
214.96027000000001
 30
0.0
 40
357.2047
100
AcDbArc
 50
210.75710000000001
 51
212.6584
  0
ARC
  5
145
100
AcDbEntity
  8
_____1
 62
0
370
-1
 48
1.0
  6
BYLAYER
100
AcDbCircle
 10
113.60608000000001
 20
98.227739999999997
 30
0.0
 40
127.55406000000001
100
AcDbArc
 50
208.46736000000001
 51
211.12931
  0
ARC
  5
146
100
AcDbEntity
  8
_____1
 62
0
370
-1
 48
1.0
  6
BYLAYER
100
AcDbCircle
 10
46.652670000000001
 20
62.354570000000002
 30
0.0
 40
51.598210000000002
100
AcDbArc
 50
205.5976
 51
208.88730000000001
  0
ARC
  5
147
100
AcDbEntity
  8
_____1
 62
0
370
-1
 48
1.0
  6
BYLAYER
100
AcDbCircle
 10
9.2394800000000004
 20
45.252279999999999
 30
0.0
 40
10.494249999999999
100
AcDbArc
 50
193.44184999999999
 51
209.64431999999996
  0
ARC
  5
148
100
AcDbEntity
  8
_____1
 62
0
370
-1
 48
1.0
  6
BYLAYER
100
AcDbCircle
 10
-18.968499999999999
 20
47.755929999999999
 30
0.0
 40
18.667560000000002
100
AcDbArc
 50
329.87894
 51
344.64506999999998
  0
ARC
  5
149
100
AcDbEntity
  8
_____1
 62
0
370
-1
 48
1.0
  6
BYLAYER
100
AcDbCircle
 10
-13.676159999999999
 20
44.496299999999998
 30
0.0
 40
12.455159999999999
100
AcDbArc
 50
319.56693000000001
 51
330.63164
  0
ARC
  5
14A
100
AcDbEntity
  8
_____1
 62
0
370
-1
 48
1.0
  6
BYLAYER
100
AcDbCircle
 10
-8.5123700000000007
 20
39.699190000000002
 30
0.0
 40
5.4218900000000003
100
AcDbArc
 50
297.29070999999999
 51
322.76378
  0
ARC
  5
14B
100
AcDbEntity
  8
_____1
 62
0
370
-1
 48
1.0
  6
BYLAYER
100
AcDbCircle
 10
7.1159999999999997
 20
13.22695
 30
0.0
 40
25.33006
100
AcDbArc
 50
121.25488
 51
127.06133999999999
  0
ARC
  5
14C
100
AcDbEntity
  8
_____1
 62
0
370
-1
 48
1.0
  6
BYLAYER
100
AcDbCircle
 10
-22.907360000000001
 20
51.856630000000003
 30
0.0
 40
23.599959999999999
100
AcDbArc
 50
302.46697999999998
 51
308.70620000000002
  0
ARC
  5
14D
100
AcDbEntity
  8
_____1
 62
0
370
-1
 48
1.0
  6
BYLAYER
100
AcDbCircle
 10
-14.502649999999999
 20
38.031649999999999
 30
0.0
 40
7.4314
100
AcDbArc
 50
285.18472000000003
 51
305.01501000000002
  0
ARC
  5
14E
100
AcDbEntity
  8
_____1
 62
0
370
-1
 48
1.0
  6
BYLAYER
100
AcDbCircle
 10
-13.68812
 20
34.74783
 30
0.0
 40
4.0495599999999996
100
AcDbArc
 50
249.86369999999994
 51
286.23244
  0
ARC
  5
14F
100
AcDbEntity
  8
_____1
 62
0
370
-1
 48
1.0
  6
BYLAYER
100
AcDbCircle
 10
-17.318010000000001
 20
36.631320000000002
 30
0.0
 40
6.1093400000000004
100
AcDbArc
 50
275.43959999999993
 51
291.46699999999998
  0
ARC
  5
150
100
AcDbEntity
  8
_____1
 62
0
370
-1
 48
1.0
  6
BYLAYER
100
AcDbCircle
 10
-17.104489999999998
 20
33.387799999999999
 30
0.0
 40
2.8617599999999999
100
AcDbArc
 50
260.23552999999998
 51
277.34033000000005
  0
ARC
  5
151
100
AcDbEntity
  8
_____1
 62
0
370
-1
 48
1.0
  6
BYLAYER
100
AcDbCircle
 10
-17.676449999999999
 20
31.175180000000001
 30
0.0
 40
0.61382
100
AcDbArc
 50
195.75637000000003
 51
278.11133000000001
  0
ARC
  5
152
100
AcDbEntity
  8
_____1
 62
0
370
-1
 48
1.0
  6
BYLAYER
100
AcDbCircle
 10
-15.87937
 20
30.901029999999999
 30
0.0
 40
2.39025
100
AcDbArc
 50
137.25897000000001
 51
177.42304999999999
  0
ARC
  5
153
100
AcDbEntity
  8
_____1
 62
0
370
-1
 48
1.0
  6
BYLAYER
100
AcDbCircle
 10
-14.305580000000001
 20
28.933900000000001
 30
0.0
 40
4.8956600000000003
100
AcDbArc
 50
113.26535
 51
132.84697000000003
  0
ARC
  5
154
100
AcDbEntity
  8
_____1
 62
0
370
-1
 48
1.0
  6
BYLAYER
100
AcDbCircle
 10
162.72237000000001
 20
-443.33438999999998
 30
0.0
 40
509.24745000000001
100
AcDbArc
 50
110.38576
 51
110.57442999999999
  0
ARC
  5
155
100
AcDbEntity
  8
_____1
 62
0
370
-1
 48
1.0
  6
BYLAYER
100
AcDbCircle
 10
-15.3367
 20
36.970309999999998
 30
0.0
 40
3.0268299999999999
100
AcDbArc
 50
282.75555000000003
 51
314.67991999999998
  0
ARC
  5
156
100
AcDbEntity
  8
_____1
 62
0
370
-1
 48
1.0
  6
BYLAYER
100
AcDbCircle
 10
-20.360399999999998
 20
43.518700000000003
 30
0.0
 40
11.262840000000001
100
AcDbArc
 50
309.42065000000002
 51
329.58041999999995
  0
ARC
  5
157
100
AcDbEntity
  8
_____1
 62
0
370
-1
 48
1.0
  6
BYLAYER
100
AcDbCircle
 10
-11.25427
 20
39.396520000000002
 30
0.0
 40
1.6928099999999999
100
AcDbArc
 50
231.34862000000001
 51
290.98613
  0
ARC
  5
158
100
AcDbEntity
  8
_____1
 62
0
370
-1
 48
1.0
  6
BYLAYER
100
AcDbCircle
 10
-11.920970000000001
 20
38.540990000000001
 30
0.0
 40
0.60841
100
AcDbArc
 50
150.30915999999999
 51
230.06042999999994
  0
ARC
  5
159
100
AcDbEntity
  8
_____1
 62
0
370
-1
 48
1.0
  6
BYLAYER
100
AcDbCircle
 10
-10.4137
 20
37.361739999999998
 30
0.0
 40
2.51728
100
AcDbArc
 50
124.35094000000001
 51
143.97228000000001
  0
ARC
  5
15A
100
AcDbEntity
  8
_____1
 62
0
370
-1
 48
1.0
  6
BYLAYER
100
AcDbCircle
 10
-31.9541
 20
64.035640000000001
 30
0.0
 40
31.776720000000001
100
AcDbArc
 50
309.28424000000001
 51
314.93511999999998
  0
ARC
  5
15B
100
AcDbEntity
  8
_____1
 62
0
370
-1
 48
1.0
  6
BYLAYER
100
AcDbCircle
 10
73.958029999999994
 20
-39.795540000000003
 30
0.0
 40
116.54397
100
AcDbArc
 50
134.19972000000001
 51
135.74110999999999
  0
ARC
  5
15C
100
AcDbEntity
  8
_____1
 62
0
370
-1
 48
1.0
  6
BYLAYER
100
AcDbCircle
 10
14.873419999999999
 20
21.46369
 30
0.0
 40
31.436779999999999
100
AcDbArc
 50
129.12099000000001
 51
134.83579999999998
  0
ARC
  5
15D
100
AcDbEntity
  8
_____1
 62
0
370
-1
 48
1.0
  6
BYLAYER
100
AcDbCircle
 10
1.88418
 20
38.205759999999998
 30
0.0
 40
10.263859999999999
100
AcDbArc
 50
114.31198000000001
 51
131.83681999999999
  0
ARC
  5
15E
100
AcDbEntity
  8
_____1
 62
0
370
-1
 48
1.0
  6
BYLAYER
100
AcDbCircle
 10
5.14825
 20
48.256500000000003
 30
0.0
 40
7.5221200000000001
100
AcDbArc
 50
170.27609000000004
 51
185.31743
  0
ARC
  5
15F
100
AcDbEntity
  8
_____1
 62
0
370
-1
 48
1.0
  6
BYLAYER
100
AcDbCircle
 10
1.9543699999999999
 20
49.026420000000002
 30
0.0
 40
4.2497499999999997
100
AcDbArc
 50
146.56012999999999
 51
173.23555999999999
  0
ARC
  5
160
100
AcDbEntity
  8
_____1
 62
0
370
-1
 48
1.0
  6
BYLAYER
100
AcDbCircle
 10
-2.9693700000000001
 20
52.376519999999999
 30
0.0
 40
1.70702
100
AcDbArc
 50
323.79829000000001
 51
355.57031000000001
  0
ARC
  5
161
100
AcDbEntity
  8
_____1
 62
0
370
-1
 48
1.0
  6
BYLAYER
100
AcDbCircle
 10
9.7172699999999992
 20
53.21264
 30
0.0
 40
11.027279999999999
100
AcDbArc
 50
180.07491999999999
 51
185.03583000000003
  0
ARC
  5
162
100
AcDbEntity
  8
_____1
 62
0
370
-1
 48
1.0
  6
BYLAYER
100
AcDbCircle
 10
2.1143800000000001
 20
52.792119999999997
 30
0.0
 40
3.4483799999999998
100
AcDbArc
 50
141.71812
 51
173.23694
  0
ARC
  5
163
100
AcDbEntity
  8
_____1
 62
0
370
-1
 48
1.0
  6
BYLAYER
100
AcDbCircle
 10
-4.9779
 20
57.325569999999999
 30
0.0
 40
4.99777
100
AcDbArc
 50
331.33891000000006
 51
350.55137000000002
  0
ARC
  5
164
100
AcDbEntity
  8
_____1
 62
0
370
-1
 48
1.0
  6
BYLAYER
100
AcDbCircle
 10
-23.694089999999999
 20
59.953699999999998
 30
0.0
 40
23.8963
100
AcDbArc
 50
351.70240999999999
 51
355.71526999999998
  0
ARC
  5
165
100
AcDbEntity
  8
_____1
 62
0
370
-1
 48
1.0
  6
BYLAYER
100
AcDbCircle
 10
116.62906
 20
52.205530000000003
 30
0.0
 40
116.64614
100
AcDbArc
 50
175.42516000000001
 51
177.06983
  0
ARC
  5
166
100
AcDbEntity
  8
_____1
 62
0
370
-1
 48
1.0
  6
BYLAYER
100
AcDbCircle
 10
21.12471
 20
60.369880000000002
 30
0.0
 40
20.801390000000001
100
AcDbArc
 50
167.63431
 51
176.85981000000001
  0
ARC
  5
167
100
AcDbEntity
  8
_____1
 62
0
370
-1
 48
1.0
  6
BYLAYER
100
AcDbCircle
 10
8.1567299999999996
 20
63.704790000000003
 30
0.0
 40
7.4356299999999997
100
AcDbArc
 50
145.48011000000002
 51
171.33895000000004
  0
ARC
  5
168
100
AcDbEntity
  8
_____1
 62
0
370
-1
 48
1.0
  6
BYLAYER
100
AcDbCircle
 10
4.6200099999999997
 20
83.27176
 30
0.0
 40
15.57014
100
AcDbArc
 50
243.33282000000005
 51
260.42574999999999
  0
ARC
  5
169
100
AcDbEntity
  8
_____1
 62
0
370
-1
 48
1.0
  6
BYLAYER
100
AcDbCircle
 10
2.1403799999999999
 20
79.020110000000003
 30
0.0
 40
10.66231
100
AcDbArc
 50
220.00847999999996
 51
244.98648999999997
  0
ARC
  5
16A
100
AcDbEntity
  8
_____1
 62
0
370
-1
 48
1.0
  6
BYLAYER
100
AcDbCircle
 10
-26.40354
 20
65.949809999999999
 30
0.0
 40
21.303999999999998
100
AcDbArc
 50
5.4460600000000001
 51
16.962879999999998
  0
ARC
  5
16B
100
AcDbEntity
  8
_____1
 62
0
370
-1
 48
1.0
  6
BYLAYER
100
AcDbCircle
 10
-86.447329999999994
 20
63.692399999999999
 30
0.0
 40
81.364230000000006
100
AcDbArc
 50
0.0
 51
3.0148600000000005
  0
ARC
  5
16C
100
AcDbEntity
  8
_____1
 62
0
370
-1
 48
1.0
  6
BYLAYER
100
AcDbCircle
 10
-10.22458
 20
62.623240000000003
 30
0.0
 40
5.2514700000000003
100
AcDbArc
 50
-23.859649999999998
 51
11.7471
  0
ARC
  5
16D
100
AcDbEntity
  8
_____1
 62
0
370
-1
 48
1.0
  6
BYLAYER
100
AcDbCircle
 10
-14.29368
 20
65.317009999999996
 30
0.0
 40
10.095599999999999
100
AcDbArc
 50
313.11180999999999
 51
331.49504999999999
  0
ARC
  5
16E
100
AcDbEntity
  8
_____1
 62
0
370
-1
 48
1.0
  6
BYLAYER
100
AcDbCircle
 10
-133.65387000000001
 20
208.81467000000001
 30
0.0
 40
196.72971999999999
100
AcDbArc
 50
307.50128999999998
 51
309.92565000000002
  0
ARC
  5
16F
100
AcDbEntity
  8
_____1
 62
0
370
-1
 48
1.0
  6
BYLAYER
100
AcDbCircle
 10
32.555509999999998
 20
-13.57372
 30
0.0
 40
80.961399999999998
100
AcDbArc
 50
125.00592
 51
130.90306999999999
  0
ARC
  5
170
100
AcDbEntity
  8
_____1
 62
0
370
-1
 48
1.0
  6
BYLAYER
100
AcDbCircle
 10
-18.737410000000001
 20
44.693869999999997
 30
0.0
 40
3.39236
100
AcDbArc
 50
120.44780000000002
 51
163.14892
  0
ARC
  5
171
100
AcDbEntity
  8
_____1
 62
0
370
-1
 48
1.0
  6
BYLAYER
100
AcDbCircle
 10
-12.48897
 20
44.076050000000002
 30
0.0
 40
9.6292000000000009
100
AcDbArc
 50
170.42794000000001
 51
185.29399000000001
  0
ARC
  5
172
100
AcDbEntity
  8
_____1
 62
0
370
-1
 48
1.0
  6
BYLAYER
100
AcDbCircle
 10
18.510680000000001
 20
46.630330000000001
 30
0.0
 40
40.733530000000002
100
AcDbArc
 50
184.84833
 51
188.16240999999999
  0
ARC
  5
173
100
AcDbEntity
  8
_____1
 62
0
370
-1
 48
1.0
  6
BYLAYER
100
AcDbCircle
 10
-17.37163
 20
40.837400000000002
 30
0.0
 40
4.43858
100
AcDbArc
 50
179.87608
 51
210.48574999999997
  0
ARC
  5
174
100
AcDbEntity
  8
_____1
 62
0
370
-1
 48
1.0
  6
BYLAYER
100
AcDbCircle
 10
-26.393339999999998
 20
33.591140000000003
 30
0.0
 40
7.2076900000000004
100
AcDbArc
 50
32.209130000000002
 51
43.862879999999997
  0
ARC
  5
175
100
AcDbEntity
  8
_____1
 62
0
370
-1
 48
1.0
  6
BYLAYER
100
AcDbCircle
 10
-22.272629999999999
 20
36.300190000000001
 30
0.0
 40
2.2791800000000002
100
AcDbArc
 50
-6.9296699999999998
 51
29.801169999999999
  0
ARC
  5
176
100
AcDbEntity
  8
_____1
 62
0
370
-1
 48
1.0
  6
BYLAYER
100
AcDbCircle
 10
-16.431239999999999
 20
36.178690000000003
 30
0.0
 40
3.5821499999999999
100
AcDbArc
 50
182.45581000000001
 51
205.82067000000001
  0
ARC
  5
177
100
AcDbEntity
  8
_____1
 62
0
370
-1
 48
1.0
  6
BYLAYER
100
AcDbCircle
 10
-20.145309999999998
 20
34.206659999999999
 30
0.0
 40
0.63973
100
AcDbArc
 50
-29.187329999999999
 51
40.069609999999997
  0
ARC
  5
178
100
AcDbEntity
  8
_____1
 62
0
370
-1
 48
1.0
  6
BYLAYER
100
AcDbCircle
 10
-21.343029999999999
 20
35.235379999999999
 30
0.0
 40
2.20947
100
AcDbArc
 50
302.95868000000002
 51
322.64184
  0
ARC
  5
179
100
AcDbEntity
  8
_____1
 62
0
370
-1
 48
1.0
  6
BYLAYER
100
AcDbCircle
 10
-19.104790000000001
 20
31.96133
 30
0.0
 40
1.7580100000000001
100
AcDbArc
 50
126.11586
 51
194.00700000000001
  0
ARC
  5
17A
100
AcDbEntity
  8
_____1
 62
0
370
-1
 48
1.0
  6
BYLAYER
100
AcDbCircle
 10
-8.0557200000000009
 20
36.326079999999997
 30
0.0
 40
13.62467
100
AcDbArc
 50
200.58439000000001
 51
209.51821000000001
  0
ARC
  5
17B
100
AcDbEntity
  8
_____1
 62
0
370
-1
 48
1.0
  6
BYLAYER
100
AcDbCircle
 10
-27.578679999999999
 20
24.993839999999999
 30
0.0
 40
8.9508700000000001
100
AcDbArc
 50
23.897120000000001
 51
31.06963
  0
ARC
  5
17C
100
AcDbEntity
  8
_____1
 62
0
370
-1
 48
1.0
  6
BYLAYER
100
AcDbCircle
 10
-20.22888
 20
27.876370000000001
 30
0.0
 40
1.1170599999999999
100
AcDbArc
 50
-18.051780000000001
 51
41.722470000000001
  0
ARC
  5
17D
100
AcDbEntity
  8
_____1
 62
0
370
-1
 48
1.0
  6
BYLAYER
100
AcDbCircle
 10
-19.648869999999999
 20
27.799959999999999
 30
0.0
 40
0.5523900000000001
100
AcDbArc
 50
273.48025999999999
 51
330.77109999999999
  0
ARC
  5
17E
100
AcDbEntity
  8
_____1
 62
0
370
-1
 48
1.0
  6
BYLAYER
100
AcDbCircle
 10
-19.604220000000002
 20
29.620909999999999
 30
0.0
 40
2.37236
100
AcDbArc
 50
256.04082
 51
269.73162000000002
  0
ARC
  5
17F
100
AcDbEntity
  8
_____1
 62
0
370
-1
 48
1.0
  6
BYLAYER
100
AcDbCircle
 10
-17.60604
 20
36.234749999999998
 30
0.0
 40
9.2792600000000007
100
AcDbArc
 50
246.91703999999996
 51
253.91802999999996
  0
ARC
  5
180
100
AcDbEntity
  8
_____1
 62
0
370
-1
 48
1.0
  6
BYLAYER
100
AcDbCircle
 10
-22.868729999999999
 20
25.55199
 30
0.0
 40
2.6919300000000002
100
AcDbArc
 50
-12.924440000000001
 51
52.877600000000001
  0
ARC
  5
181
100
AcDbEntity
  8
_____1
 62
0
370
-1
 48
1.0
  6
BYLAYER
100
AcDbCircle
 10
-21.236660000000001
 20
21.65738
 30
0.0
 40
3.4386199999999998
100
AcDbArc
 50
49.87172000000001
 51
73.238460000000003
  0
ARC
  5
182
100
AcDbEntity
  8
_____1
 62
0
370
-1
 48
1.0
  6
BYLAYER
100
AcDbCircle
 10
-19.827580000000001
 20
22.93572
 30
0.0
 40
1.57359
100
AcDbArc
 50
7.42971
 51
59.142009999999999
  0
ARC
  5
183
100
AcDbEntity
  8
_____1
 62
0
370
-1
 48
1.0
  6
BYLAYER
100
AcDbCircle
 10
-18.625859999999999
 20
23.006920000000001
 30
0.0
 40
0.38227
100
AcDbArc
 50
-65.900320000000008
 51
20.245659999999997
  0
ARC
  5
184
100
AcDbEntity
  8
_____1
 62
0
370
-1
 48
1.0
  6
BYLAYER
100
AcDbCircle
 10
-18.970890000000001
 20
24.536259999999999
 30
0.0
 40
1.9439900000000001
100
AcDbArc
 50
268.25420000000003
 51
284.93835000000001
  0
ARC
  5
185
100
AcDbEntity
  8
_____1
 62
0
370
-1
 48
1.0
  6
BYLAYER
100
AcDbCircle
 10
-17.122140000000002
 20
48.43582
 30
0.0
 40
25.913
100
AcDbArc
 50
263.26398999999998
 51
265.77749
  0
ARC
  5
186
100
AcDbEntity
  8
_____1
 62
0
370
-1
 48
1.0
  6
BYLAYER
100
AcDbCircle
 10
-20.367159999999998
 20
25.465409999999999
 30
0.0
 40
2.7713399999999999
100
AcDbArc
 50
240.60214999999999
 51
274.25382000000002
  0
ARC
  5
187
100
AcDbEntity
  8
_____1
 62
0
370
-1
 48
1.0
  6
BYLAYER
100
AcDbCircle
 10
-18.81382
 20
26.59066
 30
0.0
 40
4.5846999999999998
100
AcDbArc
 50
210.50067999999999
 51
230.54060000000001
  0
ARC
  5
188
100
AcDbEntity
  8
_____1
 62
0
370
-1
 48
1.0
  6
BYLAYER
100
AcDbCircle
 10
-36.088259999999998
 20
17.70138
 30
0.0
 40
14.85252
100
AcDbArc
 50
26.220859999999998
 51
33.279760000000003
  0
ARC
  5
189
100
AcDbEntity
  8
_____1
 62
0
370
-1
 48
1.0
  6
BYLAYER
100
AcDbCircle
 10
-25.318190000000001
 20
24.96087
 30
0.0
 40
1.87202
100
AcDbArc
 50
28.403980000000004
 51
84.445650000000001
  0
ARC
  5
18A
100
AcDbEntity
  8
_____1
 62
0
370
-1
 48
1.0
  6
BYLAYER
100
AcDbCircle
 10
-24.575800000000001
 20
28.138349999999999
 30
0.0
 40
1.42906
100
AcDbArc
 50
206.80108000000001
 51
246.87691000000001
  0
ARC
  5
18B
100
AcDbEntity
  8
_____1
 62
0
370
-1
 48
1.0
  6
BYLAYER
100
AcDbCircle
 10
-13.72498
 20
33.036830000000002
 30
0.0
 40
13.3331
100
AcDbArc
 50
200.18554
 51
204.56464
  0
ARC
  5
18C
100
AcDbEntity
  8
_____1
 62
0
370
-1
 48
1.0
  6
BYLAYER
100
AcDbCircle
 10
-36.393749999999997
 20
25.380769999999998
 30
0.0
 40
10.60427
100
AcDbArc
 50
16.745529999999999
 51
27.76971
  0
ARC
  5
18D
100
AcDbEntity
  8
_____1
 62
0
370
-1
 48
1.0
  6
BYLAYER
100
AcDbCircle
 10
-48.705039999999997
 20
16.94896
 30
0.0
 40
25.4846
100
AcDbArc
 50
31.650089999999999
 51
35.290629999999993
  0
ARC
  5
18E
100
AcDbEntity
  8
_____1
 62
0
370
-1
 48
1.0
  6
BYLAYER
100
AcDbCircle
 10
-25.58907
 20
33.615490000000001
 30
0.0
 40
3.0223399999999998
100
AcDbArc
 50
189.20341000000002
 51
220.01843
  0
ENDSEC
  0
SECTION
  2
OBJECTS
  0
DICTIONARY
  5
C
100
AcDbDictionary
280
0
281
1
  3
ACAD_GROUP
350
D
  3
ACAD_LAYOUT
350
1A
  3
ACAD_MLINESTYLE
350
17
  3
ACAD_PLOTSETTINGS
350
19
  3
ACAD_PLOTSTYLENAME
350
E
  3
AcDbVariableDictionary
350
18F
  3
QCAD_OBJECTS
350
190
  0
DICTIONARY
  5
D
100
AcDbDictionary
280
0
281
1
  0
ACDBDICTIONARYWDFLT
  5
E
100
AcDbDictionary
281
1
  3
Normal
350
F
100
AcDbDictionaryWithDefault
340
F
  0
ACDBPLACEHOLDER
  5
F
  0
DICTIONARY
  5
17
100
AcDbDictionary
280
0
281
1
  3
Standard
350
18
  0
MLINESTYLE
  5
18
100
AcDbMlineStyle
  2
STANDARD
 70
0
  3

 62
256
 51
90.0
 52
90.0
 71
2
 49
0.5
 62
256
  6
BYLAYER
 49
-0.5
 62
256
  6
BYLAYER
  0
DICTIONARY
  5
19
100
AcDbDictionary
280
0
281
1
  0
DICTIONARY
  5
1A
100
AcDbDictionary
281
1
  3
Layout1
350
1E
  3
Layout2
350
26
  3
Model
350
22
  0
LAYOUT
  5
1E
100
AcDbPlotSettings
  1

  2
none_device
  4

  6

 40
0.0
 41
0.0
 42
0.0
 43
0.0
 44
0.0
 45
0.0
 46
0.0
 47
0.0
 48
0.0
 49
0.0
140
0.0
141
0.0
142
1.0
143
1.0
 70
688
 72
0
 73
0
 74
5
  7

 75
16
147
1.0
148
0.0
149
0.0
100
AcDbLayout
  1
Layout1
 70
1
 71
1
 10
0.0
 20
0.0
 11
420.0
 21
297.0
 12
0.0
 22
0.0
 32
0.0
 14
100000000000000000000.0
 24
100000000000000000000.0
 34
100000000000000000000.0
 15
-100000000000000000000.0
 25
-100000000000000000000.0
 35
-100000000000000000000.0
146
0.0
 13
0.0
 23
0.0
 33
0.0
 16
1.0
 26
0.0
 36
0.0
 17
0.0
 27
1.0
 37
0.0
 76
0
330
1B
  0
LAYOUT
  5
22
100
AcDbPlotSettings
  1

  2
none_device
  4

  6

 40
0.0
 41
0.0
 42
0.0
 43
0.0
 44
0.0
 45
0.0
 46
0.0
 47
0.0
 48
0.0
 49
0.0
140
0.0
141
0.0
142
1.0
143
1.0
 70
1712
 72
0
 73
0
 74
0
  7

 75
0
147
1.0
148
0.0
149
0.0
100
AcDbLayout
  1
Model
 70
1
 71
0
 10
0.0
 20
0.0
 11
12.0
 21
9.0
 12
0.0
 22
0.0
 32
0.0
 14
0.0
 24
0.0
 34
0.0
 15
0.0
 25
0.0
 35
0.0
146
0.0
 13
0.0
 23
0.0
 33
0.0
 16
1.0
 26
0.0
 36
0.0
 17
0.0
 27
1.0
 37
0.0
 76
0
330
1F
  0
LAYOUT
  5
26
100
AcDbPlotSettings
  1

  2
none_device
  4

  6

 40
0.0
 41
0.0
 42
0.0
 43
0.0
 44
0.0
 45
0.0
 46
0.0
 47
0.0
 48
0.0
 49
0.0
140
0.0
141
0.0
142
1.0
143
1.0
 70
688
 72
0
 73
0
 74
5
  7

 75
16
147
1.0
148
0.0
149
0.0
100
AcDbLayout
  1
Layout2
 70
1
 71
2
 10
0.0
 20
0.0
 11
12.0
 21
9.0
 12
0.0
 22
0.0
 32
0.0
 14
0.0
 24
0.0
 34
0.0
 15
0.0
 25
0.0
 35
0.0
146
0.0
 13
0.0
 23
0.0
 33
0.0
 16
1.0
 26
0.0
 36
0.0
 17
0.0
 27
1.0
 37
0.0
 76
0
330
23
  0
DICTIONARY
  5
18F
100
AcDbDictionary
281
1
  3
DIMASSOC
350
192
  3
HIDETEXT
350
191
  0
DICTIONARYVAR
  5
191
100
DictionaryVariables
280
0
  1
2
  0
DICTIONARYVAR
  5
192
100
DictionaryVariables
280
0
  1
1
  0
DICTIONARY
  5
190
100
AcDbDictionary
281
1
  3
ColorSettings/BackgroundColor
350
193
  3
ColorSettings/ColorMode
350
194
  3
Grid/DisplayGrid00
350
195
  3
Grid/DisplayGrid01
350
196
  3
Grid/DisplayGrid02
350
197
  3
Grid/DisplayGrid03
350
198
  3
Grid/GridSpacingX00
350
199
  3
Grid/GridSpacingX01
350
19A
  3
Grid/GridSpacingX02
350
19B
  3
Grid/GridSpacingX03
350
19C
  3
Grid/GridSpacingY00
350
19D
  3
Grid/GridSpacingY01
350
19E
  3
Grid/GridSpacingY02
350
19F
  3
Grid/GridSpacingY03
350
1A0
  3
Grid/IsometricGrid00
350
1A1
  3
Grid/IsometricGrid01
350
1A2
  3
Grid/IsometricGrid02
350
1A3
  3
Grid/IsometricGrid03
350
1A4
  3
Grid/IsometricProjection00
350
1A5
  3
Grid/IsometricProjection01
350
1A6
  3
Grid/IsometricProjection02
350
1A7
  3
Grid/IsometricProjection03
350
1A8
  3
Grid/MetaGridSpacingX00
350
1A9
  3
Grid/MetaGridSpacingX01
350
1AA
  3
Grid/MetaGridSpacingX02
350
1AB
  3
Grid/MetaGridSpacingX03
350
1AC
  3
Grid/MetaGridSpacingY00
350
1AD
  3
Grid/MetaGridSpacingY01
350
1AE
  3
Grid/MetaGridSpacingY02
350
1AF
  3
Grid/MetaGridSpacingY03
350
1B0
  3
MultiPageSettings/Columns
350
1B1
  3
MultiPageSettings/GlueMarginsBottom
350
1B2
  3
MultiPageSettings/GlueMarginsLeft
350
1B3
  3
MultiPageSettings/GlueMarginsRight
350
1B4
  3
MultiPageSettings/GlueMarginsTop
350
1B5
  3
MultiPageSettings/PrintCropMarks
350
1B6
  3
MultiPageSettings/Rows
350
1B7
  3
PageSettings/OffsetX
350
1B8
  3
PageSettings/OffsetY
350
1B9
  3
PageSettings/PageOrientation
350
1BA
  3
PageSettings/PaperHeight
350
1BB
  3
PageSettings/PaperWidth
350
1BC
  3
PageSettings/Scale
350
1BD
  3
PageSettings/ShowPaperBorders
350
1BE
  3
UnitSettings/PaperUnit
350
1BF
  3
ViewportCenter
350
1C0
  3
ViewportHeight
350
1C1
  3
ViewportWidth
350
1C2
  0
XRECORD
  5
193
330
190
100
AcDbXrecord
280
1
1000
Blanc
  0
XRECORD
  5
194
330
190
100
AcDbXrecord
280
1
1000
FullColor
  0
XRECORD
  5
195
330
190
100
AcDbXrecord
280
1
290
1
  0
XRECORD
  5
196
330
190
100
AcDbXrecord
280
1
290
1
  0
XRECORD
  5
197
330
190
100
AcDbXrecord
280
1
290
1
  0
XRECORD
  5
198
330
190
100
AcDbXrecord
280
1
290
1
  0
XRECORD
  5
199
330
190
100
AcDbXrecord
280
1
1000
auto
  0
XRECORD
  5
19A
330
190
100
AcDbXrecord
280
1
1000
auto
  0
XRECORD
  5
19B
330
190
100
AcDbXrecord
280
1
1000
auto
  0
XRECORD
  5
19C
330
190
100
AcDbXrecord
280
1
1000
auto
  0
XRECORD
  5
19D
330
190
100
AcDbXrecord
280
1
1000
auto
  0
XRECORD
  5
19E
330
190
100
AcDbXrecord
280
1
1000
auto
  0
XRECORD
  5
19F
330
190
100
AcDbXrecord
280
1
1000
auto
  0
XRECORD
  5
1A0
330
190
100
AcDbXrecord
280
1
1000
auto
  0
XRECORD
  5
1A1
330
190
100
AcDbXrecord
280
1
290
0
  0
XRECORD
  5
1A2
330
190
100
AcDbXrecord
280
1
290
0
  0
XRECORD
  5
1A3
330
190
100
AcDbXrecord
280
1
290
0
  0
XRECORD
  5
1A4
330
190
100
AcDbXrecord
280
1
290
0
  0
XRECORD
  5
1A5
330
190
100
AcDbXrecord
280
1
 90
0
  0
XRECORD
  5
1A6
330
190
100
AcDbXrecord
280
1
 90
0
  0
XRECORD
  5
1A7
330
190
100
AcDbXrecord
280
1
 90
0
  0
XRECORD
  5
1A8
330
190
100
AcDbXrecord
280
1
 90
0
  0
XRECORD
  5
1A9
330
190
100
AcDbXrecord
280
1
1000
auto
  0
XRECORD
  5
1AA
330
190
100
AcDbXrecord
280
1
1000
auto
  0
XRECORD
  5
1AB
330
190
100
AcDbXrecord
280
1
1000
auto
  0
XRECORD
  5
1AC
330
190
100
AcDbXrecord
280
1
1000
auto
  0
XRECORD
  5
1AD
330
190
100
AcDbXrecord
280
1
1000
auto
  0
XRECORD
  5
1AE
330
190
100
AcDbXrecord
280
1
1000
auto
  0
XRECORD
  5
1AF
330
190
100
AcDbXrecord
280
1
1000
auto
  0
XRECORD
  5
1B0
330
190
100
AcDbXrecord
280
1
1000
auto
  0
XRECORD
  5
1B1
330
190
100
AcDbXrecord
280
1
 90
1
  0
XRECORD
  5
1B2
330
190
100
AcDbXrecord
280
1
 40
10.0
  0
XRECORD
  5
1B3
330
190
100
AcDbXrecord
280
1
 40
10.0
  0
XRECORD
  5
1B4
330
190
100
AcDbXrecord
280
1
 40
10.0
  0
XRECORD
  5
1B5
330
190
100
AcDbXrecord
280
1
 40
10.0
  0
XRECORD
  5
1B6
330
190
100
AcDbXrecord
280
1
290
0
  0
XRECORD
  5
1B7
330
190
100
AcDbXrecord
280
1
 90
1
  0
XRECORD
  5
1B8
330
190
100
AcDbXrecord
280
1
 40
0.0
  0
XRECORD
  5
1B9
330
190
100
AcDbXrecord
280
1
 40
0.0
  0
XRECORD
  5
1BA
330
190
100
AcDbXrecord
280
1
1000
Portrait
  0
XRECORD
  5
1BB
330
190
100
AcDbXrecord
280
1
 40
297.0
  0
XRECORD
  5
1BC
330
190
100
AcDbXrecord
280
1
 40
210.0
  0
XRECORD
  5
1BD
330
190
100
AcDbXrecord
280
1
1000
1:1
  0
XRECORD
  5
1BE
330
190
100
AcDbXrecord
280
1
290
1
  0
XRECORD
  5
1BF
330
190
100
AcDbXrecord
280
1
 90
4
  0
XRECORD
  5
1C1
330
190
100
AcDbXrecord
280
1
 40
191.64792917456023
  0
XRECORD
  5
1C2
330
190
100
AcDbXrecord
280
1
 40
325.72860966170504
  0
ENDSEC
  0
EOF
