999
dxflib 3.12.2.0
  0
SECTION
  2
HEADER
  9
$ACADVER
  1
AC1015
  9
$HANDSEED
  5
FFFF
  9
$ANGDIR
 70
0
  9
$CECOLOR
 62
256
  9
$DIMADEC
 70
0
  9
$DIMASZ
 40
0.18
  9
$DIMAUNIT
 70
0
  9
$DIMAZIN
 70
0
  9
$DIMDEC
 70
4
  9
$DIMEXE
 40
0.18
  9
$DIMEXO
 40
0.0625
  9
$DIMGAP
 40
0.09
  9
$DIMLUNIT
 70
2
  9
$DIMSCALE
 40
1.0
  9
$DIMTSZ
 40
0.0
  9
$DIMTXT
 40
0.18
  9
$DIMZIN
 70
0
  9
$DWGCODEPAGE
  3
ANSI_1252
  9
$EXTMAX
 10
24.0
 20
18.0
 30
0.0
  9
$EXTMIN
 10
0.0
 20
0.0
 30
0.0
  9
$INSUNITS
 70
0
  9
$LTSCALE
 40
1.0
  9
$MEASUREMENT
 70
1
  9
$PDMODE
 70
0
  9
$PDSIZE
 40
0
  0
ENDSEC
  0
SECTION
  2
TABLES
  0
TABLE
  2
VPORT
  5
8
100
AcDbSymbolTable
 70
1
  0
VPORT
  5
30
100
AcDbSymbolTableRecord
100
AcDbViewportTableRecord
  2
*Active
 70
0
 10
0.0
 20
0.0
 11
1.0
 21
1.0
 12
286.30555555555549
 22
148.5
 13
0.0
 23
0.0
 14
10.0
 24
10.0
 15
10.0
 25
10.0
 16
0.0
 26
0.0
 36
1.0
 17
0.0
 27
0.0
 37
0.0
 40
297.0
 41
1.92798353909465
 42
50.0
 43
0.0
 44
0.0
 50
0.0
 51
0.0
 71
0
 72
100
 73
1
 74
3
 75
1
 76
1
 77
0
 78
0
281
0
 65
1
110
0.0
120
0.0
130
0.0
111
1.0
121
0.0
131
0.0
112
0.0
122
1.0
132
0.0
 79
0
146
0.0
  0
ENDTAB
  0
TABLE
  2
LTYPE
  5
5
100
AcDbSymbolTable
 70
41
  0
LTYPE
  5
16
100
AcDbSymbolTableRecord
100
AcDbLinetypeTableRecord
  2
Continuous
 70
0
  3
Solid line
 72
65
 73
0
 40
0.0
  0
LTYPE
  5
31
100
AcDbSymbolTableRecord
100
AcDbLinetypeTableRecord
  2
ACAD_ISO15W100
 70
0
  3
ISO double-dash triple-dot __ __ . . . __ __ . .
 72
65
 73
10
 40
39.0
 49
12.0
 74
0
 49
-3.0
 74
0
 49
12.0
 74
0
 49
-3.0
 74
0
 49
0.0
 74
0
 49
-3.0
 74
0
 49
0.0
 74
0
 49
-3.0
 74
0
 49
0.0
 74
0
 49
-3.0
 74
0
  0
LTYPE
  5
32
100
AcDbSymbolTableRecord
100
AcDbLinetypeTableRecord
  2
DIVIDE
 70
0
  3
Divide ____ . . ____ . . ____ . . ____ . . ____
 72
65
 73
6
 40
31.75
 49
12.699999999999999
 74
0
 49
-6.3499999999999996
 74
0
 49
0.0
 74
0
 49
-6.3499999999999996
 74
0
 49
0.0
 74
0
 49
-6.3499999999999996
 74
0
  0
LTYPE
  5
33
100
AcDbSymbolTableRecord
100
AcDbLinetypeTableRecord
  2
ACAD_ISO10W100
 70
0
  3
ISO dash dot __ . __ . __ . __ . __ . __ . __ . 
 72
65
 73
4
 40
18.0
 49
12.0
 74
0
 49
-3.0
 74
0
 49
0.0
 74
0
 49
-3.0
 74
0
  0
LTYPE
  5
34
100
AcDbSymbolTableRecord
100
AcDbLinetypeTableRecord
  2
ACAD_ISO04W100
 70
0
  3
ISO long-dash dot ____ . ____ . ____ . ____ . _
 72
65
 73
4
 40
30.0
 49
24.0
 74
0
 49
-3.0
 74
0
 49
0.0
 74
0
 49
-3.0
 74
0
  0
LTYPE
  5
35
100
AcDbSymbolTableRecord
100
AcDbLinetypeTableRecord
  2
CENTER2
 70
0
  3
Center (.5x) ___ _ ___ _ ___ _ ___ _ ___ _ ___
 72
65
 73
4
 40
28.575000000000003
 49
19.050000000000001
 74
0
 49
-3.1749999999999998
 74
0
 49
3.1749999999999998
 74
0
 49
-3.1749999999999998
 74
0
  0
LTYPE
  5
36
100
AcDbSymbolTableRecord
100
AcDbLinetypeTableRecord
  2
ACAD_ISO11W100
 70
0
  3
ISO double-dash dot __ __ . __ __ . __ __ . __ _
 72
65
 73
6
 40
33.0
 49
12.0
 74
0
 49
-3.0
 74
0
 49
12.0
 74
0
 49
-3.0
 74
0
 49
0.0
 74
0
 49
-3.0
 74
0
  0
LTYPE
  5
37
100
AcDbSymbolTableRecord
100
AcDbLinetypeTableRecord
  2
HIDDEN2
 70
0
  3
Hidden (.5x) _ _ _ _ _ _ _ _ _ _ _ _ _ _ _ _ _ 
 72
65
 73
2
 40
4.7624999999999993
 49
3.1749999999999998
 74
0
 49
-1.5874999999999999
 74
0
  0
LTYPE
  5
38
100
AcDbSymbolTableRecord
100
AcDbLinetypeTableRecord
  2
BORDERX2
 70
0
  3
Border (2x) ____  ____  .  ____  ____  .  ___
 72
65
 73
6
 40
88.899999999999991
 49
25.399999999999999
 74
0
 49
-12.699999999999999
 74
0
 49
25.399999999999999
 74
0
 49
-12.699999999999999
 74
0
 49
0.0
 74
0
 49
-12.699999999999999
 74
0
  0
LTYPE
  5
39
100
AcDbSymbolTableRecord
100
AcDbLinetypeTableRecord
  2
ACAD_ISO05W100
 70
0
  3
ISO long-dash double-dot ____ .. ____ .. ____ . 
 72
65
 73
6
 40
33.0
 49
24.0
 74
0
 49
-3.0
 74
0
 49
0.0
 74
0
 49
-3.0
 74
0
 49
0.0
 74
0
 49
-3.0
 74
0
  0
LTYPE
  5
3A
100
AcDbSymbolTableRecord
100
AcDbLinetypeTableRecord
  2
DASHDOTX2
 70
0
  3
Dash dot (2x) ____  .  ____  .  ____  .  ___
 72
65
 73
4
 40
50.799999999999997
 49
25.399999999999999
 74
0
 49
-12.699999999999999
 74
0
 49
0.0
 74
0
 49
-12.699999999999999
 74
0
  0
LTYPE
  5
3B
100
AcDbSymbolTableRecord
100
AcDbLinetypeTableRecord
  2
HIDDENX2
 70
0
  3
Hidden (2x) ____ ____ ____ ____ ____ ____ ____ 
 72
65
 73
2
 40
19.049999999999997
 49
12.699999999999999
 74
0
 49
-6.3499999999999996
 74
0
  0
LTYPE
  5
3C
100
AcDbSymbolTableRecord
100
AcDbLinetypeTableRecord
  2
CENTERX2
 70
0
  3
Center (2x) ________  __  ________  __  _____
 72
65
 73
4
 40
101.60000000000001
 49
63.5
 74
0
 49
-12.699999999999999
 74
0
 49
12.699999999999999
 74
0
 49
-12.699999999999999
 74
0
  0
LTYPE
  5
3D
100
AcDbSymbolTableRecord
100
AcDbLinetypeTableRecord
  2
BORDER2
 70
0
  3
Border (.5x) __.__.__.__.__.__.__.__.__.__.__.
 72
65
 73
6
 40
22.224999999999998
 49
6.3499999999999996
 74
0
 49
-3.1749999999999998
 74
0
 49
6.3499999999999996
 74
0
 49
-3.1749999999999998
 74
0
 49
0.0
 74
0
 49
-3.1749999999999998
 74
0
  0
LTYPE
  5
3E
100
AcDbSymbolTableRecord
100
AcDbLinetypeTableRecord
  2
DASHDOT2
 70
0
  3
Dash dot (.5x) _._._._._._._._._._._._._._._.
 72
65
 73
4
 40
12.699999999999999
 49
6.3499999999999996
 74
0
 49
-3.1749999999999998
 74
0
 49
0.0
 74
0
 49
-3.1749999999999998
 74
0
  0
LTYPE
  5
3F
100
AcDbSymbolTableRecord
100
AcDbLinetypeTableRecord
  2
ACAD_ISO12W100
 70
0
  3
ISO dash double-dot __ . . __ . . __ . . __ . . 
 72
65
 73
6
 40
21.0
 49
12.0
 74
0
 49
-3.0
 74
0
 49
0.0
 74
0
 49
-3.0
 74
0
 49
0.0
 74
0
 49
-3.0
 74
0
  0
LTYPE
  5
40
100
AcDbSymbolTableRecord
100
AcDbLinetypeTableRecord
  2
ACAD_ISO07W100
 70
0
  3
ISO dot . . . . . . . . . . . . . . . . . . . . 
 72
65
 73
2
 40
3.0
 49
0.0
 74
0
 49
-3.0
 74
0
  0
LTYPE
  5
41
100
AcDbSymbolTableRecord
100
AcDbLinetypeTableRecord
  2
HIDDEN
 70
0
  3
Hidden __ __ __ __ __ __ __ __ __ __ __ __ __ __
 72
65
 73
2
 40
9.5249999999999986
 49
6.3499999999999996
 74
0
 49
-3.1749999999999998
 74
0
  0
LTYPE
  5
42
100
AcDbSymbolTableRecord
100
AcDbLinetypeTableRecord
  2
ACAD_ISO06W100
 70
0
  3
ISO long-dash triple-dot ____ ... ____ ... ____
 72
65
 73
8
 40
36.0
 49
24.0
 74
0
 49
-3.0
 74
0
 49
0.0
 74
0
 49
-3.0
 74
0
 49
0.0
 74
0
 49
-3.0
 74
0
 49
0.0
 74
0
 49
-3.0
 74
0
  0
LTYPE
  5
43
100
AcDbSymbolTableRecord
100
AcDbLinetypeTableRecord
  2
CENTER
 70
0
  3
Center ____ _ ____ _ ____ _ ____ _ ____ _ ____
 72
65
 73
4
 40
50.800000000000004
 49
31.75
 74
0
 49
-6.3499999999999996
 74
0
 49
6.3499999999999996
 74
0
 49
-6.3499999999999996
 74
0
  0
LTYPE
  5
44
100
AcDbSymbolTableRecord
100
AcDbLinetypeTableRecord
  2
DOTX2
 70
0
  3
Dot (2x) .  .  .  .  .  .  .  .  .  .  .  .  .  .
 72
65
 73
2
 40
12.699999999999999
 49
0.0
 74
0
 49
-12.699999999999999
 74
0
  0
LTYPE
  5
45
100
AcDbSymbolTableRecord
100
AcDbLinetypeTableRecord
  2
PHANTOM
 70
0
  3
Phantom ______  __  __  ______  __  __  ______ 
 72
65
 73
6
 40
63.500000000000007
 49
31.75
 74
0
 49
-6.3499999999999996
 74
0
 49
6.3499999999999996
 74
0
 49
-6.3499999999999996
 74
0
 49
6.3499999999999996
 74
0
 49
-6.3499999999999996
 74
0
  0
LTYPE
  5
46
100
AcDbSymbolTableRecord
100
AcDbLinetypeTableRecord
  2
ACAD_ISO08W100
 70
0
  3
ISO long-dash short-dash ____ __ ____ __ ____ _
 72
65
 73
4
 40
36.0
 49
24.0
 74
0
 49
-3.0
 74
0
 49
6.0
 74
0
 49
-3.0
 74
0
  0
LTYPE
  5
47
100
AcDbSymbolTableRecord
100
AcDbLinetypeTableRecord
  2
DASHEDX2
 70
0
  3
Dashed (2x) ____  ____  ____  ____  ____  ___
 72
65
 73
2
 40
38.099999999999994
 49
25.399999999999999
 74
0
 49
-12.699999999999999
 74
0
  0
LTYPE
  5
48
100
AcDbSymbolTableRecord
100
AcDbLinetypeTableRecord
  2
ACAD_ISO02W100
 70
0
  3
ISO dash __ __ __ __ __ __ __ __ __ __ __ __ __
 72
65
 73
2
 40
15.0
 49
12.0
 74
0
 49
-3.0
 74
0
  0
LTYPE
  5
49
100
AcDbSymbolTableRecord
100
AcDbLinetypeTableRecord
  2
PHANTOM2
 70
0
  3
Phantom (.5x) ___ _ _ ___ _ _ ___ _ _ ___ _ _
 72
65
 73
6
 40
31.750000000000004
 49
15.875
 74
0
 49
-3.1749999999999998
 74
0
 49
3.1749999999999998
 74
0
 49
-3.1749999999999998
 74
0
 49
3.1749999999999998
 74
0
 49
-3.1749999999999998
 74
0
  0
LTYPE
  5
4A
100
AcDbSymbolTableRecord
100
AcDbLinetypeTableRecord
  2
DASHED2
 70
0
  3
Dashed (.5x) _ _ _ _ _ _ _ _ _ _ _ _ _ _ _ _ _ 
 72
65
 73
2
 40
9.5249999999999986
 49
6.3499999999999996
 74
0
 49
-3.1749999999999998
 74
0
  0
LTYPE
  5
4B
100
AcDbSymbolTableRecord
100
AcDbLinetypeTableRecord
  2
ACAD_ISO09W100
 70
0
  3
ISO long-dash double-short-dash ____ __ __ ____
 72
65
 73
6
 40
45.0
 49
24.0
 74
0
 49
-3.0
 74
0
 49
6.0
 74
0
 49
-3.0
 74
0
 49
6.0
 74
0
 49
-3.0
 74
0
  0
LTYPE
  5
4C
100
AcDbSymbolTableRecord
100
AcDbLinetypeTableRecord
  2
ACAD_ISO13W100
 70
0
  3
ISO double-dash double-dot __ __ . . __ __ . . _
 72
65
 73
8
 40
36.0
 49
12.0
 74
0
 49
-3.0
 74
0
 49
12.0
 74
0
 49
-3.0
 74
0
 49
0.0
 74
0
 49
-3.0
 74
0
 49
0.0
 74
0
 49
-3.0
 74
0
  0
LTYPE
  5
4D
100
AcDbSymbolTableRecord
100
AcDbLinetypeTableRecord
  2
DOT2
 70
0
  3
Dot (.5x) ........................................
 72
65
 73
2
 40
3.1749999999999998
 49
0.0
 74
0
 49
-3.1749999999999998
 74
0
  0
LTYPE
  5
4E
100
AcDbSymbolTableRecord
100
AcDbLinetypeTableRecord
  2
DASHED
 70
0
  3
Dashed __ __ __ __ __ __ __ __ __ __ __ __ __ _
 72
65
 73
2
 40
19.049999999999997
 49
12.699999999999999
 74
0
 49
-6.3499999999999996
 74
0
  0
LTYPE
  5
4F
100
AcDbSymbolTableRecord
100
AcDbLinetypeTableRecord
  2
ACAD_ISO14W100
 70
0
  3
ISO dash triple-dot __ . . . __ . . . __ . . . _
 72
65
 73
8
 40
24.0
 49
12.0
 74
0
 49
-3.0
 74
0
 49
0.0
 74
0
 49
-3.0
 74
0
 49
0.0
 74
0
 49
-3.0
 74
0
 49
0.0
 74
0
 49
-3.0
 74
0
  0
LTYPE
  5
15
100
AcDbSymbolTableRecord
100
AcDbLinetypeTableRecord
  2
BYLAYER
 70
0
  3

 72
65
 73
0
 40
0.0
  0
LTYPE
  5
50
100
AcDbSymbolTableRecord
100
AcDbLinetypeTableRecord
  2
PHANTOMX2
 70
0
  3
Phantom (2x) ____________    ____    ____   _
 72
65
 73
6
 40
127.00000000000001
 49
63.5
 74
0
 49
-12.699999999999999
 74
0
 49
12.699999999999999
 74
0
 49
-12.699999999999999
 74
0
 49
12.699999999999999
 74
0
 49
-12.699999999999999
 74
0
  0
LTYPE
  5
14
100
AcDbSymbolTableRecord
100
AcDbLinetypeTableRecord
  2
BYBLOCK
 70
0
  3

 72
65
 73
0
 40
0.0
  0
LTYPE
  5
51
100
AcDbSymbolTableRecord
100
AcDbLinetypeTableRecord
  2
DIVIDEX2
 70
0
  3
Divide (2x) ________  .  .  ________  .  .  _
 72
65
 73
6
 40
63.5
 49
25.399999999999999
 74
0
 49
-12.699999999999999
 74
0
 49
0.0
 74
0
 49
-12.699999999999999
 74
0
 49
0.0
 74
0
 49
-12.699999999999999
 74
0
  0
LTYPE
  5
52
100
AcDbSymbolTableRecord
100
AcDbLinetypeTableRecord
  2
BORDER
 70
0
  3
Border __ __ . __ __ . __ __ . __ __ . __ __ .
 72
65
 73
6
 40
44.449999999999996
 49
12.699999999999999
 74
0
 49
-6.3499999999999996
 74
0
 49
12.699999999999999
 74
0
 49
-6.3499999999999996
 74
0
 49
0.0
 74
0
 49
-6.3499999999999996
 74
0
  0
LTYPE
  5
53
100
AcDbSymbolTableRecord
100
AcDbLinetypeTableRecord
  2
DIVIDE2
 70
0
  3
Divide (.5x) __..__..__..__..__..__..__..__.._
 72
65
 73
6
 40
15.875
 49
6.3499999999999996
 74
0
 49
-3.1749999999999998
 74
0
 49
0.0
 74
0
 49
-3.1749999999999998
 74
0
 49
0.0
 74
0
 49
-3.1749999999999998
 74
0
  0
LTYPE
  5
54
100
AcDbSymbolTableRecord
100
AcDbLinetypeTableRecord
  2
DOT
 70
0
  3
Dot . . . . . . . . . . . . . . . . . . . . . . . .
 72
65
 73
2
 40
6.3499999999999996
 49
0.0
 74
0
 49
-6.3499999999999996
 74
0
  0
LTYPE
  5
55
100
AcDbSymbolTableRecord
100
AcDbLinetypeTableRecord
  2
DASHDOT
 70
0
  3
Dash dot __ . __ . __ . __ . __ . __ . __ . __
 72
65
 73
4
 40
25.399999999999999
 49
12.699999999999999
 74
0
 49
-6.3499999999999996
 74
0
 49
0.0
 74
0
 49
-6.3499999999999996
 74
0
  0
LTYPE
  5
56
100
AcDbSymbolTableRecord
100
AcDbLinetypeTableRecord
  2
ACAD_ISO03W100
 70
0
  3
ISO dash space __    __    __    __    __    __
 72
65
 73
2
 40
30.0
 49
12.0
 74
0
 49
-18.0
 74
0
  0
ENDTAB
  0
TABLE
  2
LAYER
  5
2
100
AcDbSymbolTable
 70
2
  0
LAYER
  5
57
100
AcDbSymbolTableRecord
100
AcDbLayerTableRecord
  2
_____1
 70
0
 62
0
  6
BYLAYER
370
5
390
F
  0
LAYER
  5
10
100
AcDbSymbolTableRecord
100
AcDbLayerTableRecord
  2
0
 70
0
 62
7
420
16777215
  6
Continuous
370
25
390
F
  0
ENDTAB
  0
TABLE
  2
STYLE
  5
3
100
AcDbSymbolTable
 70
1
  0
STYLE
  5
58
100
AcDbSymbolTableRecord
100
AcDbTextStyleTableRecord
  2
Standard
 70
0
 40
0.0
 41
1.0
 50
0.0
 71
0
 42
2.5
  3

  4

1001
ACAD
1000
txt
1071
0
  0
ENDTAB
  0
TABLE
  2
VIEW
  5
6
100
AcDbSymbolTable
 70
0
  0
ENDTAB
  0
TABLE
  2
UCS
  5
7
100
AcDbSymbolTable
 70
0
  0
ENDTAB
  0
TABLE
  2
APPID
  5
9
100
AcDbSymbolTable
 70
1
  0
APPID
  5
12
100
AcDbSymbolTableRecord
100
AcDbRegAppTableRecord
  2
ACAD
 70
0
  0
APPID
  5
59
100
AcDbSymbolTableRecord
100
AcDbRegAppTableRecord
  2
QCAD
 70
0
  0
ENDTAB
  0
TABLE
  2
DIMSTYLE
  5
A
100
AcDbSymbolTable
 70
1
100
AcDbDimStyleTable
 71
0
  0
DIMSTYLE
105
27
100
AcDbSymbolTableRecord
100
AcDbDimStyleTableRecord
  2
Standard
 41
0.18
 42
0.0625
 43
3.75
 44
0.18
 70
0
 73
0
 74
0
 77
1
 78
8
140
0.18
141
2.5
143
0.03937007874016
147
0.09
171
3
172
1
271
2
272
2
274
3
278
44
283
0
284
8
340
58
  0
ENDTAB
  0
TABLE
  2
BLOCK_RECORD
  5
1
100
AcDbSymbolTable
 70
1
  0
BLOCK_RECORD
  5
1F
100
AcDbSymbolTableRecord
100
AcDbBlockTableRecord
  2
*Model_Space
340
22
  0
BLOCK_RECORD
  5
1B
100
AcDbSymbolTableRecord
100
AcDbBlockTableRecord
  2
*Paper_Space
340
1E
  0
BLOCK_RECORD
  5
23
100
AcDbSymbolTableRecord
100
AcDbBlockTableRecord
  2
*Paper_Space0
340
26
  0
ENDTAB
  0
ENDSEC
  0
SECTION
  2
BLOCKS
  0
BLOCK
  5
20
100
AcDbEntity
  8
0
100
AcDbBlockBegin
  2
*Model_Space
 70
0
 10
0.0
 20
0.0
 30
0.0
  3
*Model_Space
  1

  0
ENDBLK
  5
21
100
AcDbEntity
  8
0
100
AcDbBlockEnd
  0
BLOCK
  5
1C
100
AcDbEntity
 67
1
  8
0
100
AcDbBlockBegin
  2
*Paper_Space
 70
0
 10
0.0
 20
0.0
 30
0.0
  3
*Paper_Space
  1

  0
ENDBLK
  5
1D
100
AcDbEntity
 67
1
  8
0
100
AcDbBlockEnd
  0
BLOCK
  5
24
100
AcDbEntity
  8
0
100
AcDbBlockBegin
  2
*Paper_Space0
 70
0
 10
0.0
 20
0.0
 30
0.0
  3
*Paper_Space0
  1

  0
ENDBLK
  5
25
100
AcDbEntity
  8
0
100
AcDbBlockEnd
  0
ENDSEC
  0
SECTION
  2
ENTITIES
  0
LINE
  5
5A
100
AcDbEntity
100
AcDbLine
  8
_____1
 62
0
370
-1
 48
1.0
  6
BYLAYER
 10
-34.117400000000004
 20
-1.514
 30
0.0
 11
-34.121400000000001
 21
-1.5152000000000001
 31
0.0
  0
ARC
  5
5B
100
AcDbEntity
  8
_____1
 62
0
370
-1
 48
1.0
  6
BYLAYER
100
AcDbCircle
 10
-40.665640000000003
 20
20.76436
 30
0.0
 40
23.22081
100
AcDbArc
 50
270.94056
 51
286.36926
  0
ARC
  5
5C
100
AcDbEntity
  8
_____1
 62
0
370
-1
 48
1.0
  6
BYLAYER
100
AcDbCircle
 10
-40.532069999999997
 20
28.076499999999999
 30
0.0
 40
30.530819999999999
100
AcDbArc
 50
258.72755999999993
 51
270.46465999999998
  0
ARC
  5
5D
100
AcDbEntity
  8
_____1
 62
0
370
-1
 48
1.0
  6
BYLAYER
100
AcDbCircle
 10
-40.309609999999999
 20
29.683520000000001
 30
0.0
 40
32.150469999999999
100
AcDbArc
 50
247.75034999999997
 51
258.89859000000007
  0
ARC
  5
5E
100
AcDbEntity
  8
_____1
 62
0
370
-1
 48
1.0
  6
BYLAYER
100
AcDbCircle
 10
-43.71425
 20
21.889410000000002
 30
0.0
 40
23.648389999999999
100
AcDbArc
 50
240.65589000000003
 51
248.23478999999998
  0
ARC
  5
5F
100
AcDbEntity
  8
_____1
 62
0
370
-1
 48
1.0
  6
BYLAYER
100
AcDbCircle
 10
-51.373550000000002
 20
9.4151000000000007
 30
0.0
 40
9.0387500000000003
100
AcDbArc
 50
224.37272999999996
 51
244.23005000000003
  0
ARC
  5
60
100
AcDbEntity
  8
_____1
 62
0
370
-1
 48
1.0
  6
BYLAYER
100
AcDbCircle
 10
-50.339129999999997
 20
10.35258
 30
0.0
 40
10.43389
100
AcDbArc
 50
222.88812999999999
 51
224.08011999999999
  0
ARC
  5
61
100
AcDbEntity
  8
_____1
 62
0
370
-1
 48
1.0
  6
BYLAYER
100
AcDbCircle
 10
-53.369950000000003
 20
7.5411599999999996
 30
0.0
 40
6.2998900000000004
100
AcDbArc
 50
220.05250000000001
 51
222.91360999999998
  0
ARC
  5
62
100
AcDbEntity
  8
_____1
 62
0
370
-1
 48
1.0
  6
BYLAYER
100
AcDbCircle
 10
-56.072069999999997
 20
5.3960400000000002
 30
0.0
 40
2.8528199999999999
100
AcDbArc
 50
209.34601000000001
 51
221.99675999999999
  0
ARC
  5
63
100
AcDbEntity
  8
_____1
 62
0
370
-1
 48
1.0
  6
BYLAYER
100
AcDbCircle
 10
-58.152830000000002
 20
4.4016500000000001
 30
0.0
 40
0.57255
100
AcDbArc
 50
160.29656000000003
 51
224.84093999999999
  0
ARC
  5
64
100
AcDbEntity
  8
_____1
 62
0
370
-1
 48
1.0
  6
BYLAYER
100
AcDbCircle
 10
-58.108710000000002
 20
4.1332500000000003
 30
0.0
 40
0.74363
100
AcDbArc
 50
94.479100000000003
 51
141.64608000000001
  0
ARC
  5
65
100
AcDbEntity
  8
_____1
 62
0
370
-1
 48
1.0
  6
BYLAYER
100
AcDbCircle
 10
-58.654060000000001
 20
-2.14263
 30
0.0
 40
7.0341300000000002
100
AcDbArc
 50
65.575569999999999
 51
86.027750000000012
  0
ARC
  5
66
100
AcDbEntity
  8
_____1
 62
0
370
-1
 48
1.0
  6
BYLAYER
100
AcDbCircle
 10
-54.20232
 20
6.7967599999999999
 30
0.0
 40
2.9675600000000002
100
AcDbArc
 50
238.66670999999999
 51
314.04505999999992
  0
ARC
  5
67
100
AcDbEntity
  8
_____1
 62
0
370
-1
 48
1.0
  6
BYLAYER
100
AcDbCircle
 10
-51.968170000000001
 20
4.5138100000000003
 30
0.0
 40
0.22742
100
AcDbArc
 50
26.645849999999996
 51
138.76889
  0
ARC
  5
68
100
AcDbEntity
  8
_____1
 62
0
370
-1
 48
1.0
  6
BYLAYER
100
AcDbCircle
 10
-48.246760000000002
 20
6.7804900000000004
 30
0.0
 40
4.1307600000000004
100
AcDbArc
 50
211.60374999999999
 51
257.54847999999998
  0
ARC
  5
69
100
AcDbEntity
  8
_____1
 62
0
370
-1
 48
1.0
  6
BYLAYER
100
AcDbCircle
 10
-48.394489999999998
 20
5.3455300000000001
 30
0.0
 40
2.70275
100
AcDbArc
 50
254.04535000000001
 51
324.25393000000003
  0
ARC
  5
6A
100
AcDbEntity
  8
_____1
 62
0
370
-1
 48
1.0
  6
BYLAYER
100
AcDbCircle
 10
-46.00714
 20
3.6583700000000001
 30
0.0
 40
0.22194
100
AcDbArc
 50
36.957500000000003
 51
150.81205
  0
ARC
  5
6B
100
AcDbEntity
  8
_____1
 62
0
370
-1
 48
1.0
  6
BYLAYER
100
AcDbCircle
 10
-40.942120000000003
 20
7.4642900000000001
 30
0.0
 40
6.1136400000000002
100
AcDbArc
 50
216.92039
 51
249.47149999999996
  0
ARC
  5
6C
100
AcDbEntity
  8
_____1
 62
0
370
-1
 48
1.0
  6
BYLAYER
100
AcDbCircle
 10
-42.213189999999997
 20
3.6300500000000002
 30
0.0
 40
2.0828700000000002
100
AcDbArc
 50
245.22539
 51
292.97692000000001
  0
ARC
  5
6D
100
AcDbEntity
  8
_____1
 62
0
370
-1
 48
1.0
  6
BYLAYER
100
AcDbCircle
 10
-42.911900000000003
 20
4.5334500000000002
 30
0.0
 40
3.2005699999999999
100
AcDbArc
 50
298.18687999999997
 51
328.99923000000007
  0
ARC
  5
6E
100
AcDbEntity
  8
_____1
 62
0
370
-1
 48
1.0
  6
BYLAYER
100
AcDbCircle
 10
-39.962539999999997
 20
2.7974100000000002
 30
0.0
 40
0.22381
100
AcDbArc
 50
41.839559999999999
 51
156.96041000000002
  0
ARC
  5
6F
100
AcDbEntity
  8
_____1
 62
0
370
-1
 48
1.0
  6
BYLAYER
100
AcDbCircle
 10
-37.327370000000002
 20
5.3426600000000004
 30
0.0
 40
3.4400200000000001
100
AcDbArc
 50
224.14635000000001
 51
277.25396999999998
  0
ARC
  5
70
100
AcDbEntity
  8
_____1
 62
0
370
-1
 48
1.0
  6
BYLAYER
100
AcDbCircle
 10
-37.548409999999997
 20
6.0254700000000003
 30
0.0
 40
4.1474200000000003
100
AcDbArc
 50
279.09244999999999
 51
322.90667999999999
  0
ARC
  5
71
100
AcDbEntity
  8
_____1
 62
0
370
-1
 48
1.0
  6
BYLAYER
100
AcDbCircle
 10
-37.550249999999998
 20
-0.51173
 30
0.0
 40
5.2196100000000003
100
AcDbArc
 50
50.642589999999998
 51
116.97284000000002
  0
ARC
  5
72
100
AcDbEntity
  8
_____1
 62
0
370
-1
 48
1.0
  6
BYLAYER
100
AcDbCircle
 10
-40.013030000000001
 20
4.3335499999999998
 30
0.0
 40
0.21566
100
AcDbArc
 50
202.61985999999999
 51
296.23392000000001
  0
ARC
  5
73
100
AcDbEntity
  8
_____1
 62
0
370
-1
 48
1.0
  6
BYLAYER
100
AcDbCircle
 10
-42.993789999999997
 20
3.3514200000000001
 30
0.0
 40
2.9234100000000001
100
AcDbArc
 50
17.91338
 51
81.90388999999999
  0
ARC
  5
74
100
AcDbEntity
  8
_____1
 62
0
370
-1
 48
1.0
  6
BYLAYER
100
AcDbCircle
 10
-42.859769999999997
 20
0.55553
 30
0.0
 40
5.6969399999999997
100
AcDbArc
 50
87.206109999999995
 51
119.93807000000001
  0
ARC
  5
75
100
AcDbEntity
  8
_____1
 62
0
370
-1
 48
1.0
  6
BYLAYER
100
AcDbCircle
 10
-45.776339999999998
 20
5.6905000000000001
 30
0.0
 40
0.21137
100
AcDbArc
 50
194.57705000000004
 51
290.33141999999998
  0
ARC
  5
76
100
AcDbEntity
  8
_____1
 62
0
370
-1
 48
1.0
  6
BYLAYER
100
AcDbCircle
 10
-50.123289999999997
 20
4.5510000000000002
 30
0.0
 40
4.2824499999999999
100
AcDbArc
 50
14.694409999999996
 51
105.48999000000001
  0
ARC
  5
77
100
AcDbEntity
  8
_____1
 62
0
370
-1
 48
1.0
  6
BYLAYER
100
AcDbCircle
 10
-51.375959999999999
 20
9.0681999999999992
 30
0.0
 40
0.40523
100
AcDbArc
 50
200.70990000000003
 51
285.59781999999996
  0
ARC
  5
78
100
AcDbEntity
  8
_____1
 62
0
370
-1
 48
1.0
  6
BYLAYER
100
AcDbCircle
 10
-57.491979999999998
 20
7.3228
 30
0.0
 40
5.95648
100
AcDbArc
 50
15.602890000000002
 51
48.940759999999997
  0
ARC
  5
79
100
AcDbEntity
  8
_____1
 62
0
370
-1
 48
1.0
  6
BYLAYER
100
AcDbCircle
 10
-57.793500000000002
 20
6.0463899999999997
 30
0.0
 40
7.14316
100
AcDbArc
 50
53.847880000000004
 51
81.424769999999995
  0
ARC
  5
7A
100
AcDbEntity
  8
_____1
 62
0
370
-1
 48
1.0
  6
BYLAYER
100
AcDbCircle
 10
-54.467260000000003
 20
19.775759999999998
 30
0.0
 40
7.03911
100
AcDbArc
 50
225.08641
 51
251.26299
  0
ARC
  5
7B
100
AcDbEntity
  8
_____1
 62
0
370
-1
 48
1.0
  6
BYLAYER
100
AcDbCircle
 10
-52.829450000000001
 20
21.88796
 30
0.0
 40
9.6969399999999997
100
AcDbArc
 50
207.90853000000001
 51
227.04520000000002
  0
ARC
  5
7C
100
AcDbEntity
  8
_____1
 62
0
370
-1
 48
1.0
  6
BYLAYER
100
AcDbCircle
 10
-60.65896
 20
18.10941
 30
0.0
 40
1.0606599999999999
100
AcDbArc
 50
172.48353
 51
225.78591000000003
  0
ARC
  5
7D
100
AcDbEntity
  8
_____1
 62
0
370
-1
 48
1.0
  6
BYLAYER
100
AcDbCircle
 10
-61.370379999999997
 20
18.053239999999999
 30
0.0
 40
0.39202
100
AcDbArc
 50
85.608080000000001
 51
150.18387999999999
  0
ARC
  5
7E
100
AcDbEntity
  8
_____1
 62
0
370
-1
 48
1.0
  6
BYLAYER
100
AcDbCircle
 10
-61.76681
 20
15.278790000000001
 30
0.0
 40
3.1939199999999999
100
AcDbArc
 50
73.874170000000007
 51
82.326859999999996
  0
ARC
  5
7F
100
AcDbEntity
  8
_____1
 62
0
370
-1
 48
1.0
  6
BYLAYER
100
AcDbCircle
 10
-70.170479999999998
 20
-7.8361099999999997
 30
0.0
 40
27.78265
100
AcDbArc
 50
66.573800000000006
 51
70.463390000000004
  0
ARC
  5
80
100
AcDbEntity
  8
_____1
 62
0
370
-1
 48
1.0
  6
BYLAYER
100
AcDbCircle
 10
-26.444469999999999
 20
107.43644999999999
 30
0.0
 40
95.542959999999994
100
AcDbArc
 50
249.99814000000001
 51
256.39118999999999
  0
ARC
  5
81
100
AcDbEntity
  8
_____1
 62
0
370
-1
 48
1.0
  6
BYLAYER
100
AcDbCircle
 10
-30.013739999999999
 20
90.904619999999994
 30
0.0
 40
78.636570000000006
100
AcDbArc
 50
256.08462999999995
 51
259.96958999999998
  0
ARC
  5
82
100
AcDbEntity
  8
_____1
 62
0
370
-1
 48
1.0
  6
BYLAYER
100
AcDbCircle
 10
-37.819920000000003
 20
41.482550000000003
 30
0.0
 40
28.6251
100
AcDbArc
 50
258.12579000000005
 51
268.80239999999998
  0
ARC
  5
83
100
AcDbEntity
  8
_____1
 62
0
370
-1
 48
1.0
  6
BYLAYER
100
AcDbCircle
 10
-27.245059999999999
 20
5.0391899999999996
 30
0.0
 40
13.640459999999999
100
AcDbArc
 50
116.22676999999999
 51
144.9966
  0
ARC
  5
84
100
AcDbEntity
  8
_____1
 62
0
370
-1
 48
1.0
  6
BYLAYER
100
AcDbCircle
 10
-20.638359999999999
 20
-11.69027
 30
0.0
 40
31.601369999999999
100
AcDbArc
 50
101.13969999999999
 51
113.56672999999999
  0
ARC
  5
85
100
AcDbEntity
  8
_____1
 62
0
370
-1
 48
1.0
  6
BYLAYER
100
AcDbCircle
 10
-22.7499
 20
1.8859900000000001
 30
0.0
 40
17.881440000000001
100
AcDbArc
 50
82.902119999999996
 51
102.90611999999999
  0
ARC
  5
86
100
AcDbEntity
  8
_____1
 62
0
370
-1
 48
1.0
  6
BYLAYER
100
AcDbCircle
 10
-21.60022
 20
8.9466999999999999
 30
0.0
 40
10.736140000000001
100
AcDbArc
 50
67.683430000000001
 51
84.33475
  0
ARC
  5
87
100
AcDbEntity
  8
_____1
 62
0
370
-1
 48
1.0
  6
BYLAYER
100
AcDbCircle
 10
-19.99841
 20
12.36209
 30
0.0
 40
6.9707699999999999
100
AcDbArc
 50
43.55498
 51
69.203609999999998
  0
ARC
  5
88
100
AcDbEntity
  8
_____1
 62
0
370
-1
 48
1.0
  6
BYLAYER
100
AcDbCircle
 10
-18.751370000000001
 20
14.14202
 30
0.0
 40
4.8596899999999996
100
AcDbArc
 50
10.602550000000001
 51
38.470759999999999
  0
ARC
  5
89
100
AcDbEntity
  8
_____1
 62
0
370
-1
 48
1.0
  6
BYLAYER
100
AcDbCircle
 10
-24.66582
 20
13.427860000000001
 30
0.0
 40
10.81146
100
AcDbArc
 50
-4.0034799999999997
 51
8.5550800000000002
  0
ARC
  5
8A
100
AcDbEntity
  8
_____1
 62
0
370
-1
 48
1.0
  6
BYLAYER
100
AcDbCircle
 10
-27.138999999999999
 20
13.31901
 30
0.0
 40
13.27399
100
AcDbArc
 50
336.71153000000004
 51
357.21059000000008
  0
ARC
  5
8B
100
AcDbEntity
  8
_____1
 62
0
370
-1
 48
1.0
  6
BYLAYER
100
AcDbCircle
 10
97.283330000000007
 20
-76.122150000000005
 30
0.0
 40
140.29975999999999
100
AcDbArc
 50
141.07927000000001
 51
143.12331
  0
ARC
  5
8C
100
AcDbEntity
  8
_____1
 62
0
370
-1
 48
1.0
  6
BYLAYER
100
AcDbCircle
 10
20.147559999999999
 20
-11.675380000000001
 30
0.0
 40
39.834029999999998
100
AcDbArc
 50
136.29472000000001
 51
143.49712
  0
ARC
  5
8D
100
AcDbEntity
  8
_____1
 62
0
370
-1
 48
1.0
  6
BYLAYER
100
AcDbCircle
 10
2.1508600000000002
 20
3.4321700000000002
 30
0.0
 40
16.455359999999999
100
AcDbArc
 50
115.91563999999998
 51
131.01742999999999
  0
ARC
  5
8E
100
AcDbEntity
  8
_____1
 62
0
370
-1
 48
1.0
  6
BYLAYER
100
AcDbCircle
 10
-88.574269999999999
 20
196.73245
 30
0.0
 40
197.07857999999999
100
AcDbArc
 50
295.07840999999996
 51
295.71035000000001
  0
ARC
  5
8F
100
AcDbEntity
  8
_____1
 62
0
370
-1
 48
1.0
  6
BYLAYER
100
AcDbCircle
 10
-6.5248900000000001
 20
27.533919999999998
 30
0.0
 40
9.0513100000000009
100
AcDbArc
 50
292.38916
 51
306.16494
  0
ARC
  5
90
100
AcDbEntity
  8
_____1
 62
0
370
-1
 48
1.0
  6
BYLAYER
100
AcDbCircle
 10
1.86347
 20
21.855409999999999
 30
0.0
 40
3.4550900000000002
100
AcDbArc
 50
157.9325
 51
208.12667999999999
  0
ARC
  5
91
100
AcDbEntity
  8
_____1
 62
0
370
-1
 48
1.0
  6
BYLAYER
100
AcDbCircle
 10
3.5378799999999999
 20
20.48122
 30
0.0
 40
5.5605900000000004
100
AcDbArc
 50
120.43269999999997
 51
151.27727999999999
  0
ARC
  5
92
100
AcDbEntity
  8
_____1
 62
0
370
-1
 48
1.0
  6
BYLAYER
100
AcDbCircle
 10
8.7678899999999995
 20
28.87669
 30
0.0
 40
8.8155999999999999
100
AcDbArc
 50
159.01127999999997
 51
204.10935000000001
  0
ARC
  5
93
100
AcDbEntity
  8
_____1
 62
0
370
-1
 48
1.0
  6
BYLAYER
100
AcDbCircle
 10
2.02908
 20
33.772449999999999
 30
0.0
 40
2.29061
100
AcDbArc
 50
183.95218000000003
 51
229.36000000000001
  0
ARC
  5
94
100
AcDbEntity
  8
_____1
 62
0
370
-1
 48
1.0
  6
BYLAYER
100
AcDbCircle
 10
2.7772800000000002
 20
33.301819999999999
 30
0.0
 40
3.0494400000000002
100
AcDbArc
 50
140.78913
 51
174.11333999999997
  0
ARC
  5
95
100
AcDbEntity
  8
_____1
 62
0
370
-1
 48
1.0
  6
BYLAYER
100
AcDbCircle
 10
6.6456799999999996
 20
30.128080000000001
 30
0.0
 40
8.0531400000000009
100
AcDbArc
 50
129.99261000000001
 51
140.69252
  0
ARC
  5
96
100
AcDbEntity
  8
_____1
 62
0
370
-1
 48
1.0
  6
BYLAYER
100
AcDbCircle
 10
3.83704
 20
33.835430000000002
 30
0.0
 40
3.4155700000000002
100
AcDbArc
 50
108.57359
 51
133.86875000000003
  0
ARC
  5
97
100
AcDbEntity
  8
_____1
 62
0
370
-1
 48
1.0
  6
BYLAYER
100
AcDbCircle
 10
6.1854100000000001
 20
38.386299999999999
 30
0.0
 40
3.67869
100
AcDbArc
 50
158.8304
 51
200.91458
  0
ARC
  5
98
100
AcDbEntity
  8
_____1
 62
0
370
-1
 48
1.0
  6
BYLAYER
100
AcDbCircle
 10
8.3401800000000001
 20
36.730829999999997
 30
0.0
 40
6.3323299999999998
100
AcDbArc
 50
127.67809000000001
 51
151.8861
  0
ARC
  5
99
100
AcDbEntity
  8
_____1
 62
0
370
-1
 48
1.0
  6
BYLAYER
100
AcDbCircle
 10
13.654730000000001
 20
44.129269999999998
 30
0.0
 40
9.4900500000000001
100
AcDbArc
 50
158.28236000000001
 51
194.56582
  0
ARC
  5
9A
100
AcDbEntity
  8
_____1
 62
0
370
-1
 48
1.0
  6
BYLAYER
100
AcDbCircle
 10
9.7405500000000007
 20
52.686430000000001
 30
0.0
 40
7.0348800000000002
100
AcDbArc
 50
199.51668000000004
 51
225.82520000000002
  0
ARC
  5
9B
100
AcDbEntity
  8
_____1
 62
0
370
-1
 48
1.0
  6
BYLAYER
100
AcDbCircle
 10
7.4033100000000003
 20
51.819070000000004
 30
0.0
 40
4.5423
100
AcDbArc
 50
158.57980000000001
 51
199.05377000000001
  0
ARC
  5
9C
100
AcDbEntity
  8
_____1
 62
0
370
-1
 48
1.0
  6
BYLAYER
100
AcDbCircle
 10
12.776490000000001
 20
48.994410000000002
 30
0.0
 40
10.59695
100
AcDbArc
 50
137.61491000000001
 51
154.96976000000001
  0
ARC
  5
9D
100
AcDbEntity
  8
_____1
 62
0
370
-1
 48
1.0
  6
BYLAYER
100
AcDbCircle
 10
24.41367
 20
37.677790000000002
 30
0.0
 40
26.8261
100
AcDbArc
 50
129.65010000000004
 51
136.51688999999999
  0
ARC
  5
9E
100
AcDbEntity
  8
_____1
 62
0
370
-1
 48
1.0
  6
BYLAYER
100
AcDbCircle
 10
15.339410000000001
 20
61.481169999999999
 30
0.0
 40
8.63767
100
AcDbArc
 50
189.54420999999999
 51
201.37712999999999
  0
ARC
  5
9F
100
AcDbEntity
  8
_____1
 62
0
370
-1
 48
1.0
  6
BYLAYER
100
AcDbCircle
 10
8.5382999999999996
 20
60.505000000000003
 30
0.0
 40
1.7765200000000001
100
AcDbArc
 50
137.21476000000001
 51
194.87402000000003
  0
ARC
  5
A0
100
AcDbEntity
  8
_____1
 62
0
370
-1
 48
1.0
  6
BYLAYER
100
AcDbCircle
 10
-6.9156300000000002
 20
73.940640000000002
 30
0.0
 40
18.702220000000001
100
AcDbArc
 50
319.16551000000004
 51
329.92038000000002
  0
ARC
  5
A1
100
AcDbEntity
  8
_____1
 62
0
370
-1
 48
1.0
  6
BYLAYER
100
AcDbCircle
 10
2.5718100000000002
 20
69.253680000000003
 30
0.0
 40
8.1733200000000004
100
AcDbArc
 50
325.01173999999997
 51
349.71516000000003
  0
ARC
  5
A2
100
AcDbEntity
  8
_____1
 62
0
370
-1
 48
1.0
  6
BYLAYER
100
AcDbCircle
 10
10.53519
 20
73.647989999999993
 30
0.0
 40
5.8541100000000004
100
AcDbArc
 50
243.84388999999999
 51
270.76940999999999
  0
ARC
  5
A3
100
AcDbEntity
  8
_____1
 62
0
370
-1
 48
1.0
  6
BYLAYER
100
AcDbCircle
 10
10.03032
 20
72.32123
 30
0.0
 40
4.4426199999999998
100
AcDbArc
 50
206.86295000000001
 51
242.14530999999999
  0
ARC
  5
A4
100
AcDbEntity
  8
_____1
 62
0
370
-1
 48
1.0
  6
BYLAYER
100
AcDbCircle
 10
-20.717580000000002
 20
56.462760000000003
 30
0.0
 40
30.154109999999999
100
AcDbArc
 50
27.344640000000002
 51
33.791690000000003
  0
ARC
  5
A5
100
AcDbEntity
  8
_____1
 62
0
370
-1
 48
1.0
  6
BYLAYER
100
AcDbCircle
 10
-7.28254
 20
66.311059999999998
 30
0.0
 40
13.530099999999999
100
AcDbArc
 50
30.773720000000001
 51
45.161389999999997
  0
ARC
  5
A6
100
AcDbEntity
  8
_____1
 62
0
370
-1
 48
1.0
  6
BYLAYER
100
AcDbCircle
 10
-1.2502599999999999
 20
80.555030000000002
 30
0.0
 40
5.8246599999999997
100
AcDbArc
 50
281.66208
 51
307.03190000000006
  0
ARC
  5
A7
100
AcDbEntity
  8
_____1
 62
0
370
-1
 48
1.0
  6
BYLAYER
100
AcDbCircle
 10
0.52128
 20
66.801509999999993
 30
0.0
 40
8.0709900000000001
100
AcDbArc
 50
94.221630000000005
 51
112.72410000000001
  0
ARC
  5
A8
100
AcDbEntity
  8
_____1
 62
0
370
-1
 48
1.0
  6
BYLAYER
100
AcDbCircle
 10
-4.4255399999999998
 20
82.248249999999999
 30
0.0
 40
8.2086199999999998
100
AcDbArc
 50
244.15958999999998
 51
282.87468999999999
  0
ARC
  5
A9
100
AcDbEntity
  8
_____1
 62
0
370
-1
 48
1.0
  6
BYLAYER
100
AcDbCircle
 10
-0.68902
 20
88.850980000000007
 30
0.0
 40
15.787229999999999
100
AcDbArc
 50
221.63265000000001
 51
242.39909
  0
ARC
  5
AA
100
AcDbEntity
  8
_____1
 62
0
370
-1
 48
1.0
  6
BYLAYER
100
AcDbCircle
 10
-27.189250000000001
 20
2.9362300000000001
 30
0.0
 40
76.845680000000002
100
AcDbArc
 50
78.971360000000004
 51
85.425319999999999
  0
ARC
  5
AB
100
AcDbEntity
  8
_____1
 62
0
370
-1
 48
1.0
  6
BYLAYER
100
AcDbCircle
 10
-26.524010000000001
 20
25.357099999999999
 30
0.0
 40
54.454799999999999
100
AcDbArc
 50
84.24139000000001
 51
93.35275
  0
ARC
  5
AC
100
AcDbEntity
  8
_____1
 62
0
370
-1
 48
1.0
  6
BYLAYER
100
AcDbCircle
 10
-31.70994
 20
116.42707
 30
0.0
 40
36.762880000000003
100
AcDbArc
 50
264.43711000000002
 51
273.12052
  0
ARC
  5
AD
100
AcDbEntity
  8
_____1
 62
0
370
-1
 48
1.0
  6
BYLAYER
100
AcDbCircle
 10
-33.057859999999998
 20
104.11226000000001
 30
0.0
 40
24.37585
100
AcDbArc
 50
258.23741000000001
 51
264.78451000000001
  0
ARC
  5
AE
100
AcDbEntity
  8
_____1
 62
0
370
-1
 48
1.0
  6
BYLAYER
100
AcDbCircle
 10
-37.703890000000001
 20
85.213639999999998
 30
0.0
 40
4.9758599999999999
100
AcDbArc
 50
233.97620999999995
 51
266.27634
  0
ARC
  5
AF
100
AcDbEntity
  8
_____1
 62
0
370
-1
 48
1.0
  6
BYLAYER
100
AcDbCircle
 10
-38.560020000000002
 20
84.276730000000001
 30
0.0
 40
3.7172900000000002
100
AcDbArc
 50
226.86019000000002
 51
236.15617000000003
  0
ARC
  5
B0
100
AcDbEntity
  8
_____1
 62
0
370
-1
 48
1.0
  6
BYLAYER
100
AcDbCircle
 10
-41.052619999999997
 20
81.872619999999998
 30
0.0
 40
0.31226
100
AcDbArc
 50
146.89492000000001
 51
260.93097999999998
  0
ARC
  5
B1
100
AcDbEntity
  8
_____1
 62
0
370
-1
 48
1.0
  6
BYLAYER
100
AcDbCircle
 10
-39.637949999999996
 20
79.002129999999994
 30
0.0
 40
3.4724200000000001
100
AcDbArc
 50
100.34486
 51
118.86378999999998
  0
ARC
  5
B2
100
AcDbEntity
  8
_____1
 62
0
370
-1
 48
1.0
  6
BYLAYER
100
AcDbCircle
 10
-41.614530000000002
 20
96.570030000000003
 30
0.0
 40
14.216469999999999
100
AcDbArc
 50
275.46131000000008
 51
283.87714999999997
  0
ARC
  5
B3
100
AcDbEntity
  8
_____1
 62
0
370
-1
 48
1.0
  6
BYLAYER
100
AcDbCircle
 10
-38.867820000000002
 20
86.388930000000002
 30
0.0
 40
3.6806199999999998
100
AcDbArc
 50
280.37713000000002
 51
312.94983000000002
  0
ARC
  5
B4
100
AcDbEntity
  8
_____1
 62
0
370
-1
 48
1.0
  6
BYLAYER
100
AcDbCircle
 10
-35.798760000000001
 20
83.238010000000003
 30
0.0
 40
0.7237
100
AcDbArc
 50
58.840130000000009
 51
140.85220000000001
  0
ARC
  5
B5
100
AcDbEntity
  8
_____1
 62
0
370
-1
 48
1.0
  6
BYLAYER
100
AcDbCircle
 10
-31.623809999999999
 20
91.091499999999996
 30
0.0
 40
8.1717499999999994
100
AcDbArc
 50
242.28479000000002
 51
268.1327
  0
ARC
  5
B6
100
AcDbEntity
  8
_____1
 62
0
370
-1
 48
1.0
  6
BYLAYER
100
AcDbCircle
 10
-31.387280000000001
 20
87.015839999999997
 30
0.0
 40
4.1225199999999997
100
AcDbArc
 50
262.99457000000001
 51
314.52474999999998
  0
ARC
  5
B7
100
AcDbEntity
  8
_____1
 62
0
370
-1
 48
1.0
  6
BYLAYER
100
AcDbCircle
 10
-28.017119999999998
 20
83.390439999999998
 30
0.0
 40
0.83711
100
AcDbArc
 50
70.268259999999998
 51
124.9358
  0
ARC
  5
B8
100
AcDbEntity
  8
_____1
 62
0
370
-1
 48
1.0
  6
BYLAYER
100
AcDbCircle
 10
-22.825109999999999
 20
96.341179999999994
 30
0.0
 40
13.11622
100
AcDbArc
 50
248.01899
 51
266.89845000000008
  0
ARC
  5
B9
100
AcDbEntity
  8
_____1
 62
0
370
-1
 48
1.0
  6
BYLAYER
100
AcDbCircle
 10
-22.937909999999999
 20
89.352720000000005
 30
0.0
 40
6.1376499999999998
100
AcDbArc
 50
264.41935000000001
 51
284.60354000000001
  0
ARC
  5
BA
100
AcDbEntity
  8
_____1
 62
0
370
-1
 48
1.0
  6
BYLAYER
100
AcDbCircle
 10
-21.916550000000001
 20
85.980860000000007
 30
0.0
 40
2.6208499999999999
100
AcDbArc
 50
281.58053000000001
 51
305.22465
  0
ARC
  5
BB
100
AcDbEntity
  8
_____1
 62
0
370
-1
 48
1.0
  6
BYLAYER
100
AcDbCircle
 10
-21.16732
 20
85.04468
 30
0.0
 40
1.4257599999999999
100
AcDbArc
 50
302.32702999999998
 51
345.80295999999998
  0
ARC
  5
BC
100
AcDbEntity
  8
_____1
 62
0
370
-1
 48
1.0
  6
BYLAYER
100
AcDbCircle
 10
-19.48602
 20
84.679640000000006
 30
0.0
 40
0.29948
100
AcDbArc
 50
70.591890000000006
 51
177.05982
  0
ARC
  5
BD
100
AcDbEntity
  8
_____1
 62
0
370
-1
 48
1.0
  6
BYLAYER
100
AcDbCircle
 10
-17.891850000000002
 20
90.632189999999994
 30
0.0
 40
5.8637800000000002
100
AcDbArc
 50
255.23262999999997
 51
277.18054000000001
  0
ARC
  5
BE
100
AcDbEntity
  8
_____1
 62
0
370
-1
 48
1.0
  6
BYLAYER
100
AcDbCircle
 10
-23.91206
 20
80.951939999999993
 30
0.0
 40
7.7797099999999997
100
AcDbArc
 50
29.767349999999997
 51
57.563469999999995
  0
ARC
  5
BF
100
AcDbEntity
  8
_____1
 62
0
370
-1
 48
1.0
  6
BYLAYER
100
AcDbCircle
 10
-21.716670000000001
 20
90.33193
 30
0.0
 40
3.4392900000000002
100
AcDbArc
 50
266.33152999999993
 51
305.09503000000007
  0
ARC
  5
C0
100
AcDbEntity
  8
_____1
 62
0
370
-1
 48
1.0
  6
BYLAYER
100
AcDbCircle
 10
-21.749459999999999
 20
91.714950000000002
 30
0.0
 40
4.8189099999999998
100
AcDbArc
 50
239.72656999999998
 51
267.77285999999998
  0
ARC
  5
C1
100
AcDbEntity
  8
_____1
 62
0
370
-1
 48
1.0
  6
BYLAYER
100
AcDbCircle
 10
-38.355220000000003
 20
46.213769999999997
 30
0.0
 40
43.702620000000003
100
AcDbArc
 50
71.071749999999994
 51
80.604960000000005
  0
ARC
  5
C2
100
AcDbEntity
  8
_____1
 62
0
370
-1
 48
1.0
  6
BYLAYER
100
AcDbCircle
 10
-38.833959999999998
 20
44.986229999999999
 30
0.0
 40
44.992669999999997
100
AcDbArc
 50
80.25866000000002
 51
84.894650000000013
  0
ARC
  5
C3
100
AcDbEntity
  8
_____1
 62
0
370
-1
 48
1.0
  6
BYLAYER
100
AcDbCircle
 10
-36.887349999999998
 20
74.441289999999995
 30
0.0
 40
15.496270000000001
100
AcDbArc
 50
82.371369999999999
 51
95.841099999999997
  0
ARC
  5
C4
100
AcDbEntity
  8
_____1
 62
0
370
-1
 48
1.0
  6
BYLAYER
100
AcDbCircle
 10
-39.106870000000001
 20
92.656769999999995
 30
0.0
 40
2.8724400000000001
100
AcDbArc
 50
251.63346000000004
 51
282.92446999999999
  0
ARC
  5
C5
100
AcDbEntity
  8
_____1
 62
0
370
-1
 48
1.0
  6
BYLAYER
100
AcDbCircle
 10
-39.989289999999997
 20
90.41377
 30
0.0
 40
0.48365
100
AcDbArc
 50
176.15868999999998
 51
267.31323000000003
  0
ARC
  5
C6
100
AcDbEntity
  8
_____1
 62
0
370
-1
 48
1.0
  6
BYLAYER
100
AcDbCircle
 10
-39.02431
 20
90.052679999999995
 30
0.0
 40
1.50007
100
AcDbArc
 50
136.41630000000001
 51
164.79230999999999
  0
ARC
  5
C7
100
AcDbEntity
  8
_____1
 62
0
370
-1
 48
1.0
  6
BYLAYER
100
AcDbCircle
 10
-32.694929999999999
 20
82.134929999999997
 30
0.0
 40
11.624700000000001
100
AcDbArc
 50
114.89702
 51
129.63917000000001
  0
ARC
  5
C8
100
AcDbEntity
  8
_____1
 62
0
370
-1
 48
1.0
  6
BYLAYER
100
AcDbCircle
 10
-29.92305
 20
72.32244
 30
0.0
 40
21.752369999999999
100
AcDbArc
 50
98.636349999999979
 51
110.63478000000002
  0
ARC
  5
C9
100
AcDbEntity
  8
_____1
 62
0
370
-1
 48
1.0
  6
BYLAYER
100
AcDbCircle
 10
-27.682369999999999
 20
56.535739999999997
 30
0.0
 40
37.696860000000001
100
AcDbArc
 50
91.469650000000001
 51
98.400319999999994
  0
ARC
  5
CA
100
AcDbEntity
  8
_____1
 62
0
370
-1
 48
1.0
  6
BYLAYER
100
AcDbCircle
 10
-27.073899999999998
 20
66.834980000000002
 30
0.0
 40
27.430479999999999
100
AcDbArc
 50
74.224689999999995
 51
93.292209999999997
  0
ARC
  5
CB
100
AcDbEntity
  8
_____1
 62
0
370
-1
 48
1.0
  6
BYLAYER
100
AcDbCircle
 10
-8.9339700000000004
 20
131.77754999999999
 30
0.0
 40
39.998159999999999
100
AcDbArc
 50
254.50967000000003
 51
260.67541999999997
  0
ARC
  5
CC
100
AcDbEntity
  8
_____1
 62
0
370
-1
 48
1.0
  6
BYLAYER
100
AcDbCircle
 10
126.61689
 20
1107.7850100000001
 30
0.0
 40
1025.36175
100
AcDbArc
 50
262.03787
 51
262.27850999999998
  0
ARC
  5
CD
100
AcDbEntity
  8
_____1
 62
0
370
-1
 48
1.0
  6
BYLAYER
100
AcDbCircle
 10
-13.017720000000001
 20
71.954440000000005
 30
0.0
 40
19.854089999999999
100
AcDbArc
 50
72.161090000000002
 51
84.597570000000005
  0
ARC
  5
CE
100
AcDbEntity
  8
_____1
 62
0
370
-1
 48
1.0
  6
BYLAYER
100
AcDbCircle
 10
-11.00116
 20
78.204059999999998
 30
0.0
 40
13.287179999999999
100
AcDbArc
 50
53.612879999999997
 51
72.183030000000002
  0
ARC
  5
CF
100
AcDbEntity
  8
_____1
 62
0
370
-1
 48
1.0
  6
BYLAYER
100
AcDbCircle
 10
-15.72805
 20
71.499179999999996
 30
0.0
 40
21.489650000000001
100
AcDbArc
 50
35.9253
 51
54.072310000000002
  0
ARC
  5
D0
100
AcDbEntity
  8
_____1
 62
0
370
-1
 48
1.0
  6
BYLAYER
100
AcDbCircle
 10
1.60538
 20
79.300200000000004
 30
0.0
 40
4.8080800000000004
100
AcDbArc
 50
26.360790000000001
 51
89.183459999999997
  0
ARC
  5
D1
100
AcDbEntity
  8
_____1
 62
0
370
-1
 48
1.0
  6
BYLAYER
100
AcDbCircle
 10
1.47204
 20
61.152459999999998
 30
0.0
 40
20.76323
100
AcDbArc
 50
61.127639999999992
 51
77.648439999999994
  0
ARC
  5
D2
100
AcDbEntity
  8
_____1
 62
0
370
-1
 48
1.0
  6
BYLAYER
100
AcDbCircle
 10
2.56311
 20
62.981270000000002
 30
0.0
 40
18.635059999999999
100
AcDbArc
 50
52.145259999999993
 51
61.350189999999998
  0
ARC
  5
D3
100
AcDbEntity
  8
_____1
 62
0
370
-1
 48
1.0
  6
BYLAYER
100
AcDbCircle
 10
10.104710000000001
 20
71.935599999999994
 30
0.0
 40
6.9522199999999996
100
AcDbArc
 50
31.19192
 51
55.93647
  0
ARC
  5
D4
100
AcDbEntity
  8
_____1
 62
0
370
-1
 48
1.0
  6
BYLAYER
100
AcDbCircle
 10
23.777159999999999
 20
79.781270000000006
 30
0.0
 40
8.8147800000000007
100
AcDbArc
 50
208.78902000000002
 51
235.75423000000001
  0
ARC
  5
D5
100
AcDbEntity
  8
_____1
 62
0
370
-1
 48
1.0
  6
BYLAYER
100
AcDbCircle
 10
18.04984
 20
70.954809999999995
 30
0.0
 40
1.72027
100
AcDbArc
 50
-21.888339999999996
 51
63.526890000000002
  0
ARC
  5
D6
100
AcDbEntity
  8
_____1
 62
0
370
-1
 48
1.0
  6
BYLAYER
100
AcDbCircle
 10
32.191609999999997
 20
62.537849999999999
 30
0.0
 40
14.75976
100
AcDbArc
 50
148.20956000000001
 51
157.88462999999999
  0
ARC
  5
D7
100
AcDbEntity
  8
_____1
 62
0
370
-1
 48
1.0
  6
BYLAYER
100
AcDbCircle
 10
24.731069999999999
 20
65.464690000000004
 30
0.0
 40
6.7469299999999999
100
AcDbArc
 50
157.05924999999999
 51
178.21709999999999
  0
ARC
  5
D8
100
AcDbEntity
  8
_____1
 62
0
370
-1
 48
1.0
  6
BYLAYER
100
AcDbCircle
 10
11.99803
 20
66.772099999999995
 30
0.0
 40
6.0891000000000002
100
AcDbArc
 50
318.64663999999999
 51
349.61623000000003
  0
ARC
  5
D9
100
AcDbEntity
  8
_____1
 62
0
370
-1
 48
1.0
  6
BYLAYER
100
AcDbCircle
 10
40.439779999999999
 20
36.185479999999998
 30
0.0
 40
35.713380000000001
100
AcDbArc
 50
131.94403000000003
 51
137.26474999999999
  0
ARC
  5
DA
100
AcDbEntity
  8
_____1
 62
0
370
-1
 48
1.0
  6
BYLAYER
100
AcDbCircle
 10
27.536519999999999
 20
52.588099999999997
 30
0.0
 40
15.4594
100
AcDbArc
 50
149.55736999999999
 51
160.85222999999999
  0
ARC
  5
DB
100
AcDbEntity
  8
_____1
 62
0
370
-1
 48
1.0
  6
BYLAYER
100
AcDbCircle
 10
6.3306800000000001
 20
59.020189999999999
 30
0.0
 40
6.7406199999999998
100
AcDbArc
 50
322.22345000000001
 51
348.34854999999999
  0
ARC
  5
DC
100
AcDbEntity
  8
_____1
 62
0
370
-1
 48
1.0
  6
BYLAYER
100
AcDbCircle
 10
15.41093
 20
45.345640000000003
 30
0.0
 40
10.25644
100
AcDbArc
 50
84.907459999999986
 51
111.46055999999999
  0
ARC
  5
DD
100
AcDbEntity
  8
_____1
 62
0
370
-1
 48
1.0
  6
BYLAYER
100
AcDbCircle
 10
14.46603
 20
38.010710000000003
 30
0.0
 40
17.648679999999999
100
AcDbArc
 50
68.491600000000005
 51
83.965669999999989
  0
ARC
  5
DE
100
AcDbEntity
  8
_____1
 62
0
370
-1
 48
1.0
  6
BYLAYER
100
AcDbCircle
 10
49.29674
 20
120.48295
 30
0.0
 40
71.883449999999996
100
AcDbArc
 50
246.76346000000001
 51
249.23983000000001
  0
ARC
  5
DF
100
AcDbEntity
  8
_____1
 62
0
370
-1
 48
1.0
  6
BYLAYER
100
AcDbCircle
 10
26.631070000000001
 20
59.013269999999999
 30
0.0
 40
6.3985200000000004
100
AcDbArc
 50
243.91023000000004
 51
271.82549
  0
ARC
  5
E0
100
AcDbEntity
  8
_____1
 62
0
370
-1
 48
1.0
  6
BYLAYER
100
AcDbCircle
 10
102.18713
 20
-59.093350000000001
 30
0.0
 40
134.74933999999999
100
AcDbArc
 50
119.58704
 51
124.00069999999998
  0
ARC
  5
E1
100
AcDbEntity
  8
_____1
 62
0
370
-1
 48
1.0
  6
BYLAYER
100
AcDbCircle
 10
68.040040000000005
 20
2.1417600000000001
 30
0.0
 40
64.641180000000006
100
AcDbArc
 50
115.46562
 51
120.06568000000001
  0
ARC
  5
E2
100
AcDbEntity
  8
_____1
 62
0
370
-1
 48
1.0
  6
BYLAYER
100
AcDbCircle
 10
50.070869999999999
 20
42.105460000000001
 30
0.0
 40
20.856120000000001
100
AcDbArc
 50
103.83391999999999
 51
118.10335999999998
  0
ARC
  5
E3
100
AcDbEntity
  8
_____1
 62
0
370
-1
 48
1.0
  6
BYLAYER
100
AcDbCircle
 10
48.229430000000001
 20
33.105580000000003
 30
0.0
 40
29.419650000000001
100
AcDbArc
 50
96.137559999999993
 51
106.94250999999998
  0
ARC
  5
E4
100
AcDbEntity
  8
_____1
 62
0
370
-1
 48
1.0
  6
BYLAYER
100
AcDbCircle
 10
54.28528
 20
12.93219
 30
0.0
 40
50.482289999999999
100
AcDbArc
 50
106.84518000000001
 51
109.99760000000002
  0
ARC
  5
E5
100
AcDbEntity
  8
_____1
 62
0
370
-1
 48
1.0
  6
BYLAYER
100
AcDbCircle
 10
40.929400000000001
 20
47.216200000000001
 30
0.0
 40
13.722810000000001
100
AcDbArc
 50
106.54617
 51
118.15538000000001
  0
ARC
  5
E6
100
AcDbEntity
  8
_____1
 62
0
370
-1
 48
1.0
  6
BYLAYER
100
AcDbCircle
 10
32.96949
 20
60.14387
 30
0.0
 40
1.7002299999999999
100
AcDbArc
 50
278.16411000000005
 51
330.83089000000001
  0
ARC
  5
E7
100
AcDbEntity
  8
_____1
 62
0
370
-1
 48
1.0
  6
BYLAYER
100
AcDbCircle
 10
32.678530000000002
 20
62.022509999999997
 30
0.0
 40
3.6012
100
AcDbArc
 50
253.03590000000003
 51
278.50179000000003
  0
ARC
  5
E8
100
AcDbEntity
  8
_____1
 62
0
370
-1
 48
1.0
  6
BYLAYER
100
AcDbCircle
 10
31.707909999999998
 20
59.170290000000001
 30
0.0
 40
0.59768
100
AcDbArc
 50
184.58544000000001
 51
262.29696999999993
  0
ARC
  5
E9
100
AcDbEntity
  8
_____1
 62
0
370
-1
 48
1.0
  6
BYLAYER
100
AcDbCircle
 10
32.677489999999999
 20
59.013550000000002
 30
0.0
 40
1.56914
100
AcDbArc
 50
146.57212000000001
 51
176.01829000000001
  0
ARC
  5
EA
100
AcDbEntity
  8
_____1
 62
0
370
-1
 48
1.0
  6
BYLAYER
100
AcDbCircle
 10
34.676929999999999
 20
57.496949999999998
 30
0.0
 40
4.0766099999999996
100
AcDbArc
 50
121.46052
 51
144.26286999999999
  0
ARC
  5
EB
100
AcDbEntity
  8
_____1
 62
0
370
-1
 48
1.0
  6
BYLAYER
100
AcDbCircle
 10
34.51294
 20
58.698810000000002
 30
0.0
 40
3.00562
100
AcDbArc
 50
76.346860000000007
 51
130.79275000000001
  0
ARC
  5
EC
100
AcDbEntity
  8
_____1
 62
0
370
-1
 48
1.0
  6
BYLAYER
100
AcDbCircle
 10
42.942030000000003
 20
49.533999999999999
 30
0.0
 40
14.34057
100
AcDbArc
 50
112.492
 51
122.56846
  0
ARC
  5
ED
100
AcDbEntity
  8
_____1
 62
0
370
-1
 48
1.0
  6
BYLAYER
100
AcDbCircle
 10
65.340729999999994
 20
-7.0301799999999997
 30
0.0
 40
75.176730000000006
100
AcDbArc
 50
109.84765000000002
 51
111.77252999999999
  0
ARC
  5
EE
100
AcDbEntity
  8
_____1
 62
0
370
-1
 48
1.0
  6
BYLAYER
100
AcDbCircle
 10
27.85397
 20
101.89248000000001
 30
0.0
 40
40.040329999999997
100
AcDbArc
 50
287.38357999999999
 51
294.61417999999998
  0
ARC
  5
EF
100
AcDbEntity
  8
_____1
 62
0
370
-1
 48
1.0
  6
BYLAYER
100
AcDbCircle
 10
49.369540000000001
 20
56.707549999999998
 30
0.0
 40
10.02754
100
AcDbArc
 50
95.537559999999999
 51
118.85044999999998
  0
ARC
  5
F0
100
AcDbEntity
  8
_____1
 62
0
370
-1
 48
1.0
  6
BYLAYER
100
AcDbCircle
 10
48.477220000000003
 20
64.000219999999999
 30
0.0
 40
2.6891400000000001
100
AcDbArc
 50
56.415689999999998
 51
91.604980000000012
  0
ARC
  5
F1
100
AcDbEntity
  8
_____1
 62
0
370
-1
 48
1.0
  6
BYLAYER
100
AcDbCircle
 10
48.85528
 20
64.445740000000001
 30
0.0
 40
2.1099700000000001
100
AcDbArc
 50
35.795439999999999
 51
58.276119999999999
  0
ARC
  5
F2
100
AcDbEntity
  8
_____1
 62
0
370
-1
 48
1.0
  6
BYLAYER
100
AcDbCircle
 10
49.829749999999997
 20
65.037660000000002
 30
0.0
 40
0.97749
100
AcDbArc
 50
-7.7113900000000015
 51
41.069399999999995
  0
ARC
  5
F3
100
AcDbEntity
  8
_____1
 62
0
370
-1
 48
1.0
  6
BYLAYER
100
AcDbCircle
 10
41.849460000000001
 20
66.123649999999998
 30
0.0
 40
9.0313400000000001
100
AcDbArc
 50
330.07726000000002
 51
352.25466999999998
  0
ARC
  5
F4
100
AcDbEntity
  8
_____1
 62
0
370
-1
 48
1.0
  6
BYLAYER
100
AcDbCircle
 10
44.7361
 20
64.245699999999999
 30
0.0
 40
5.5958600000000001
100
AcDbArc
 50
296.16576999999995
 51
331.99916999999999
  0
ARC
  5
F5
100
AcDbEntity
  8
_____1
 62
0
370
-1
 48
1.0
  6
BYLAYER
100
AcDbCircle
 10
50.490180000000002
 20
36.690420000000003
 30
0.0
 40
22.77129
100
AcDbArc
 50
98.298220000000001
 51
116.60608999999999
  0
ARC
  5
F6
100
AcDbEntity
  8
_____1
 62
0
370
-1
 48
1.0
  6
BYLAYER
100
AcDbCircle
 10
53.327539999999999
 20
30.96293
 30
0.0
 40
29.163019999999999
100
AcDbArc
 50
116.55074
 51
123.70817
  0
ARC
  5
F7
100
AcDbEntity
  8
_____1
 62
0
370
-1
 48
1.0
  6
BYLAYER
100
AcDbCircle
 10
44.11694
 20
43.562629999999999
 30
0.0
 40
13.58661
100
AcDbArc
 50
120.88285
 51
136.26195999999999
  0
ARC
  5
F8
100
AcDbEntity
  8
_____1
 62
0
370
-1
 48
1.0
  6
BYLAYER
100
AcDbCircle
 10
34.484380000000002
 20
60.52684
 30
0.0
 40
7.5731700000000002
100
AcDbArc
 50
268.60872000000001
 51
283.91023999999999
  0
ARC
  5
F9
100
AcDbEntity
  8
_____1
 62
0
370
-1
 48
1.0
  6
BYLAYER
100
AcDbCircle
 10
26.24446
 20
90.993250000000003
 30
0.0
 40
39.132800000000003
100
AcDbArc
 50
284.89726000000002
 51
287.86446999999998
  0
ARC
  5
FA
100
AcDbEntity
  8
_____1
 62
0
370
-1
 48
1.0
  6
BYLAYER
100
AcDbCircle
 10
44.813429999999997
 20
38.618969999999997
 30
0.0
 40
16.491060000000001
100
AcDbArc
 50
99.348640000000003
 51
113.45659999999999
  0
ARC
  5
FB
100
AcDbEntity
  8
_____1
 62
0
370
-1
 48
1.0
  6
BYLAYER
100
AcDbCircle
 10
47.178910000000002
 20
29.204540000000001
 30
0.0
 40
26.17708
100
AcDbArc
 50
86.109769999999983
 51
101.11037
  0
ARC
  5
FC
100
AcDbEntity
  8
_____1
 62
0
370
-1
 48
1.0
  6
BYLAYER
100
AcDbCircle
 10
104.66871
 20
-24.759930000000001
 30
0.0
 40
97.555269999999993
100
AcDbArc
 50
119.57114
 51
124.82696000000001
  0
ARC
  5
FD
100
AcDbEntity
  8
_____1
 62
0
370
-1
 48
1.0
  6
BYLAYER
100
AcDbCircle
 10
90.941370000000006
 20
0.39
 30
0.0
 40
68.908410000000003
100
AcDbArc
 50
116.24315
 51
119.96386000000003
  0
ARC
  5
FE
100
AcDbEntity
  8
_____1
 62
0
370
-1
 48
1.0
  6
BYLAYER
100
AcDbCircle
 10
74.959879999999998
 20
33.392560000000003
 30
0.0
 40
32.241889999999998
100
AcDbArc
 50
112.7277
 51
116.70325
  0
ARC
  5
FF
100
AcDbEntity
  8
_____1
 62
0
370
-1
 48
1.0
  6
BYLAYER
100
AcDbCircle
 10
66.076070000000001
 20
55.874720000000003
 30
0.0
 40
8.0881399999999992
100
AcDbArc
 50
100.34819
 51
116.21541000000001
  0
ARC
  5
100
100
AcDbEntity
  8
_____1
 62
0
370
-1
 48
1.0
  6
BYLAYER
100
AcDbCircle
 10
66.463099999999997
 20
63.490340000000003
 30
0.0
 40
1.8712200000000001
100
AcDbArc
 50
97.010679999999994
 51
169.50143
  0
ARC
  5
101
100
AcDbEntity
  8
_____1
 62
0
370
-1
 48
1.0
  6
BYLAYER
100
AcDbCircle
 10
66.200789999999998
 20
57.844889999999999
 30
0.0
 40
7.5027600000000003
100
AcDbArc
 50
71.707220000000007
 51
89.740990000000011
  0
ARC
  5
102
100
AcDbEntity
  8
_____1
 62
0
370
-1
 48
1.0
  6
BYLAYER
100
AcDbCircle
 10
69.652140000000003
 20
68.300359999999998
 30
0.0
 40
3.5076299999999998
100
AcDbArc
 50
251.78470999999999
 51
253.41112000000001
  0
ARC
  5
103
100
AcDbEntity
  8
_____1
 62
0
370
-1
 48
1.0
  6
BYLAYER
100
AcDbCircle
 10
69.591459999999998
 20
68.175449999999998
 30
0.0
 40
3.3706700000000001
100
AcDbArc
 50
253.79347000000001
 51
257.59739000000002
  0
ARC
  5
104
100
AcDbEntity
  8
_____1
 62
0
370
-1
 48
1.0
  6
BYLAYER
100
AcDbCircle
 10
69.769189999999995
 20
69.191789999999997
 30
0.0
 40
4.4016900000000003
100
AcDbArc
 50
258.17944
 51
264.00412999999998
  0
ARC
  5
105
100
AcDbEntity
  8
_____1
 62
0
370
-1
 48
1.0
  6
BYLAYER
100
AcDbCircle
 10
70.047899999999998
 20
74.252539999999996
 30
0.0
 40
9.4672099999999997
100
AcDbArc
 50
265.52602000000002
 51
270.94221000000005
  0
ARC
  5
106
100
AcDbEntity
  8
_____1
 62
0
370
-1
 48
1.0
  6
BYLAYER
100
AcDbCircle
 10
70.614450000000005
 20
61.829250000000002
 30
0.0
 40
2.98577
100
AcDbArc
 50
80.685040000000001
 51
97.909499999999994
  0
ARC
  5
107
100
AcDbEntity
  8
_____1
 62
0
370
-1
 48
1.0
  6
BYLAYER
100
AcDbCircle
 10
71.135990000000007
 20
64.551670000000001
 30
0.0
 40
0.22722
100
AcDbArc
 50
-14.391360000000002
 51
99.693269999999984
  0
ARC
  5
108
100
AcDbEntity
  8
_____1
 62
0
370
-1
 48
1.0
  6
BYLAYER
100
AcDbCircle
 10
69.765289999999993
 20
65.141199999999998
 30
0.0
 40
1.71695
100
AcDbArc
 50
322.99952000000008
 51
337.89836000000003
  0
ARC
  5
109
100
AcDbEntity
  8
_____1
 62
0
370
-1
 48
1.0
  6
BYLAYER
100
AcDbCircle
 10
60.288110000000003
 20
73.530969999999996
 30
0.0
 40
14.36947
100
AcDbArc
 50
305.30626000000001
 51
319.02193
  0
ARC
  5
10A
100
AcDbEntity
  8
_____1
 62
0
370
-1
 48
1.0
  6
BYLAYER
100
AcDbCircle
 10
62.768439999999998
 20
69.694810000000004
 30
0.0
 40
9.8072800000000004
100
AcDbArc
 50
296.38639999999998
 51
306.43367000000001
  0
ARC
  5
10B
100
AcDbEntity
  8
_____1
 62
0
370
-1
 48
1.0
  6
BYLAYER
100
AcDbCircle
 10
65.762799999999999
 20
62.783740000000002
 30
0.0
 40
2.3183400000000001
100
AcDbArc
 50
263.07794999999999
 51
306.04677000000004
  0
ARC
  5
10C
100
AcDbEntity
  8
_____1
 62
0
370
-1
 48
1.0
  6
BYLAYER
100
AcDbCircle
 10
65.456800000000001
 20
53.507759999999998
 30
0.0
 40
6.9745900000000001
100
AcDbArc
 50
89.781490000000019
 51
114.21852999999999
  0
ARC
  5
10D
100
AcDbEntity
  8
_____1
 62
0
370
-1
 48
1.0
  6
BYLAYER
100
AcDbCircle
 10
89.999579999999995
 20
-10.013249999999999
 30
0.0
 40
75.062849999999997
100
AcDbArc
 50
111.41245000000001
 51
114.80316000000001
  0
ARC
  5
10E
100
AcDbEntity
  8
_____1
 62
0
370
-1
 48
1.0
  6
BYLAYER
100
AcDbCircle
 10
69.488410000000002
 20
33.685380000000002
 30
0.0
 40
26.792290000000001
100
AcDbArc
 50
114.18845000000002
 51
118.93494
  0
ARC
  5
10F
100
AcDbEntity
  8
_____1
 62
0
370
-1
 48
1.0
  6
BYLAYER
100
AcDbCircle
 10
60.803069999999998
 20
49.08867
 30
0.0
 40
9.1109100000000005
100
AcDbArc
 50
117.99923
 51
124.98017
  0
ARC
  5
110
100
AcDbEntity
  8
_____1
 62
0
370
-1
 48
1.0
  6
BYLAYER
100
AcDbCircle
 10
56.658320000000003
 20
54.539479999999998
 30
0.0
 40
2.2847599999999999
100
AcDbArc
 50
118.16595
 51
146.11505
  0
ARC
  5
111
100
AcDbEntity
  8
_____1
 62
0
370
-1
 48
1.0
  6
BYLAYER
100
AcDbCircle
 10
56.677030000000002
 20
44.140309999999999
 30
0.0
 40
11.8291
100
AcDbArc
 50
89.929060000000007
 51
99.318680000000001
  0
ARC
  5
112
100
AcDbEntity
  8
_____1
 62
0
370
-1
 48
1.0
  6
BYLAYER
100
AcDbCircle
 10
56.909570000000002
 20
53.763289999999998
 30
0.0
 40
2.2168399999999999
100
AcDbArc
 50
70.261240000000001
 51
95.640530000000012
  0
ARC
  5
113
100
AcDbEntity
  8
_____1
 62
0
370
-1
 48
1.0
  6
BYLAYER
100
AcDbCircle
 10
57.443539999999999
 20
55.301679999999998
 30
0.0
 40
0.58875
100
AcDbArc
 50
-22.570799999999998
 51
68.610569999999996
  0
ARC
  5
114
100
AcDbEntity
  8
_____1
 62
0
370
-1
 48
1.0
  6
BYLAYER
100
AcDbCircle
 10
65.254050000000007
 20
43.173560000000002
 30
0.0
 40
13.945180000000001
100
AcDbArc
 50
105.57420999999999
 51
121.40612999999999
  0
ARC
  5
115
100
AcDbEntity
  8
_____1
 62
0
370
-1
 48
1.0
  6
BYLAYER
100
AcDbCircle
 10
64.043819999999997
 20
48.383929999999999
 30
0.0
 40
8.6043500000000002
100
AcDbArc
 50
94.412999999999997
 51
107.12672000000001
  0
ARC
  5
116
100
AcDbEntity
  8
_____1
 62
0
370
-1
 48
1.0
  6
BYLAYER
100
AcDbCircle
 10
63.741579999999999
 20
54.453890000000001
 30
0.0
 40
2.5345499999999999
100
AcDbArc
 50
76.542460000000005
 51
98.161689999999979
  0
ARC
  5
117
100
AcDbEntity
  8
_____1
 62
0
370
-1
 48
1.0
  6
BYLAYER
100
AcDbCircle
 10
64.310739999999996
 20
56.327689999999997
 30
0.0
 40
0.59151
100
AcDbArc
 50
-5.2177100000000003
 51
87.995459999999994
  0
ARC
  5
118
100
AcDbEntity
  8
_____1
 62
0
370
-1
 48
1.0
  6
BYLAYER
100
AcDbCircle
 10
67.691280000000006
 20
54.63776
 30
0.0
 40
3.2356400000000001
100
AcDbArc
 50
121.60518
 51
149.62458000000001
  0
ARC
  5
119
100
AcDbEntity
  8
_____1
 62
0
370
-1
 48
1.0
  6
BYLAYER
100
AcDbCircle
 10
71.572620000000001
 20
47.667639999999999
 30
0.0
 40
11.21138
100
AcDbArc
 50
111.70504
 51
119.8309
  0
ARC
  5
11A
100
AcDbEntity
  8
_____1
 62
0
370
-1
 48
1.0
  6
BYLAYER
100
AcDbCircle
 10
56.476610000000001
 20
94.316850000000002
 30
0.0
 40
37.851100000000002
100
AcDbArc
 50
286.81509
 51
291.63089000000002
  0
ARC
  5
11B
100
AcDbEntity
  8
_____1
 62
0
370
-1
 48
1.0
  6
BYLAYER
100
AcDbCircle
 10
76.544560000000004
 20
45.217889999999997
 30
0.0
 40
15.19792
100
AcDbArc
 50
109.52966000000001
 51
113.7259
  0
ARC
  5
11C
100
AcDbEntity
  8
_____1
 62
0
370
-1
 48
1.0
  6
BYLAYER
100
AcDbCircle
 10
71.765640000000005
 20
59.325859999999999
 30
0.0
 40
0.37079
100
AcDbArc
 50
46.795070000000003
 51
144.44707
  0
ARC
  5
11D
100
AcDbEntity
  8
_____1
 62
0
370
-1
 48
1.0
  6
BYLAYER
100
AcDbCircle
 10
70.888800000000003
 20
59.364080000000001
 30
0.0
 40
1.15425
100
AcDbArc
 50
-16.36308
 51
11.59797
  0
ARC
  5
11E
100
AcDbEntity
  8
_____1
 62
0
370
-1
 48
1.0
  6
BYLAYER
100
AcDbCircle
 10
79.082650000000001
 20
51.208060000000003
 30
0.0
 40
10.561170000000001
100
AcDbArc
 50
110.01125999999999
 51
132.14282
  0
ARC
  5
11F
100
AcDbEntity
  8
_____1
 62
0
370
-1
 48
1.0
  6
BYLAYER
100
AcDbCircle
 10
77.309060000000002
 20
55.84149
 30
0.0
 40
5.60114
100
AcDbArc
 50
67.704930000000004
 51
109.18343
  0
ARC
  5
120
100
AcDbEntity
  8
_____1
 62
0
370
-1
 48
1.0
  6
BYLAYER
100
AcDbCircle
 10
85.791089999999997
 20
72.712950000000006
 30
0.0
 40
13.30588
100
AcDbArc
 50
241.46045000000007
 51
257.05561
  0
ARC
  5
121
100
AcDbEntity
  8
_____1
 62
0
370
-1
 48
1.0
  6
BYLAYER
100
AcDbCircle
 10
77.820409999999995
 20
67.702579999999998
 30
0.0
 40
9.3925999999999998
100
AcDbArc
 50
302.09190999999998
 51
319.21039999999999
  0
ARC
  5
122
100
AcDbEntity
  8
_____1
 62
0
370
-1
 48
1.0
  6
BYLAYER
100
AcDbCircle
 10
82.675460000000001
 20
64.184169999999995
 30
0.0
 40
3.4557699999999998
100
AcDbArc
 50
310.75916000000001
 51
357.71857999999997
  0
ARC
  5
123
100
AcDbEntity
  8
_____1
 62
0
370
-1
 48
1.0
  6
BYLAYER
100
AcDbCircle
 10
89.526269999999997
 20
64.328720000000004
 30
0.0
 40
3.4094600000000002
100
AcDbArc
 50
137.56008
 51
184.74637999999999
  0
ARC
  5
124
100
AcDbEntity
  8
_____1
 62
0
370
-1
 48
1.0
  6
BYLAYER
100
AcDbCircle
 10
88.623099999999994
 20
64.848190000000002
 30
0.0
 40
2.4030499999999999
100
AcDbArc
 50
66.798990000000003
 51
132.16102000000001
  0
ARC
  5
125
100
AcDbEntity
  8
_____1
 62
0
370
-1
 48
1.0
  6
BYLAYER
100
AcDbCircle
 10
108.92579000000001
 20
77.342190000000002
 30
0.0
 40
21.918970000000002
100
AcDbArc
 50
197.71881999999999
 51
207.98506
  0
ARC
  5
126
100
AcDbEntity
  8
_____1
 62
0
370
-1
 48
1.0
  6
BYLAYER
100
AcDbCircle
 10
101.16258999999999
 20
75.073260000000005
 30
0.0
 40
13.83498
100
AcDbArc
 50
190.42299
 51
198.55293
  0
ARC
  5
127
100
AcDbEntity
  8
_____1
 62
0
370
-1
 48
1.0
  6
BYLAYER
100
AcDbCircle
 10
92.368939999999995
 20
73.734030000000004
 30
0.0
 40
4.9517199999999999
100
AcDbArc
 50
170.83765
 51
193.59223999999998
  0
ARC
  5
128
100
AcDbEntity
  8
_____1
 62
0
370
-1
 48
1.0
  6
BYLAYER
100
AcDbCircle
 10
114.33914
 20
68.026859999999999
 30
0.0
 40
27.633050000000001
100
AcDbArc
 50
161.54712000000001
 51
166.40437000000003
  0
ARC
  5
129
100
AcDbEntity
  8
_____1
 62
0
370
-1
 48
1.0
  6
BYLAYER
100
AcDbCircle
 10
85.74503
 20
77.809799999999996
 30
0.0
 40
2.59755
100
AcDbArc
 50
336.48486000000003
 51
388.23074000000003
  0
ARC
  5
12A
100
AcDbEntity
  8
_____1
 62
0
370
-1
 48
1.0
  6
BYLAYER
100
AcDbCircle
 10
96.163489999999996
 20
100.30791000000001
 30
0.0
 40
22.770219999999998
100
AcDbArc
 50
237.16731999999999
 51
249.08146000000002
  0
ARC
  5
12B
100
AcDbEntity
  8
_____1
 62
0
370
-1
 48
1.0
  6
BYLAYER
100
AcDbCircle
 10
88.916510000000002
 20
90.495099999999994
 30
0.0
 40
10.623570000000001
100
AcDbArc
 50
215.72327000000001
 51
241.31806
  0
ARC
  5
12C
100
AcDbEntity
  8
_____1
 62
0
370
-1
 48
1.0
  6
BYLAYER
100
AcDbCircle
 10
91.871769999999998
 20
93.617819999999995
 30
0.0
 40
14.868119999999999
100
AcDbArc
 50
204.35145999999997
 51
218.84501
  0
ARC
  5
12D
100
AcDbEntity
  8
_____1
 62
0
370
-1
 48
1.0
  6
BYLAYER
100
AcDbCircle
 10
83.043899999999994
 20
89.865229999999997
 30
0.0
 40
5.2829600000000001
100
AcDbArc
 50
186.35213999999999
 51
206.75210999999999
  0
ARC
  5
12E
100
AcDbEntity
  8
_____1
 62
0
370
-1
 48
1.0
  6
BYLAYER
100
AcDbCircle
 10
80.953019999999995
 20
89.725430000000003
 30
0.0
 40
3.1907800000000002
100
AcDbArc
 50
154.23696000000001
 51
188.01127
  0
ARC
  5
12F
100
AcDbEntity
  8
_____1
 62
0
370
-1
 48
1.0
  6
BYLAYER
100
AcDbCircle
 10
75.007400000000004
 20
111.96746
 30
0.0
 40
21.080200000000001
100
AcDbArc
 50
258.89161999999999
 51
278.37951999999996
  0
ARC
  5
130
100
AcDbEntity
  8
_____1
 62
0
370
-1
 48
1.0
  6
BYLAYER
100
AcDbCircle
 10
83.28322
 20
145.41077000000001
 30
0.0
 40
55.516750000000002
100
AcDbArc
 50
249.7525
 51
257.16021000000001
  0
ARC
  5
131
100
AcDbEntity
  8
_____1
 62
0
370
-1
 48
1.0
  6
BYLAYER
100
AcDbCircle
 10
65.498180000000005
 20
98.948300000000003
 30
0.0
 40
5.8021700000000003
100
AcDbArc
 50
207.93326999999999
 51
255.75245999999999
  0
ARC
  5
132
100
AcDbEntity
  8
_____1
 62
0
370
-1
 48
1.0
  6
BYLAYER
100
AcDbCircle
 10
104.33168999999999
 20
113.7693
 30
0.0
 40
47.32938
100
AcDbArc
 50
195.91647
 51
201.75095999999996
  0
ARC
  5
133
100
AcDbEntity
  8
_____1
 62
0
370
-1
 48
1.0
  6
BYLAYER
100
AcDbCircle
 10
49.049399999999999
 20
104.11378000000001
 30
0.0
 40
10.31748
100
AcDbArc
 50
300.97566999999998
 51
341.20637999999997
  0
ARC
  5
134
100
AcDbEntity
  8
_____1
 62
0
370
-1
 48
1.0
  6
BYLAYER
100
AcDbCircle
 10
39.815440000000002
 20
124.33750000000001
 30
0.0
 40
32.505119999999998
100
AcDbArc
 50
283.80617999999998
 51
296.57957000000005
  0
ARC
  5
135
100
AcDbEntity
  8
_____1
 62
0
370
-1
 48
1.0
  6
BYLAYER
100
AcDbCircle
 10
46.400530000000003
 20
80.791899999999998
 30
0.0
 40
12.03678
100
AcDbArc
 50
50.589750000000002
 51
84.412970000000001
  0
ARC
  5
136
100
AcDbEntity
  8
_____1
 62
0
370
-1
 48
1.0
  6
BYLAYER
100
AcDbCircle
 10
50.06514
 20
84.588149999999999
 30
0.0
 40
6.7902500000000003
100
AcDbArc
 50
-5.8775899999999996
 51
54.146430000000002
  0
ARC
  5
137
100
AcDbEntity
  8
_____1
 62
0
370
-1
 48
1.0
  6
BYLAYER
100
AcDbCircle
 10
48.402619999999999
 20
79.970789999999994
 30
0.0
 40
9.2859800000000003
100
AcDbArc
 50
24.983550000000005
 51
68.141840000000002
  0
ARC
  5
138
100
AcDbEntity
  8
_____1
 62
0
370
-1
 48
1.0
  6
BYLAYER
100
AcDbCircle
 10
47.558579999999999
 20
76.998069999999998
 30
0.0
 40
12.36346
100
AcDbArc
 50
69.640789999999996
 51
85.788930000000008
  0
ARC
  5
139
100
AcDbEntity
  8
_____1
 62
0
370
-1
 48
1.0
  6
BYLAYER
100
AcDbCircle
 10
47.167839999999998
 20
65.924549999999996
 30
0.0
 40
23.439599999999999
100
AcDbArc
 50
86.824079999999995
 51
95.345939999999999
  0
ARC
  5
13A
100
AcDbEntity
  8
_____1
 62
0
370
-1
 48
1.0
  6
BYLAYER
100
AcDbCircle
 10
18.123570000000001
 20
115.76092
 30
0.0
 40
37.731490000000001
100
AcDbArc
 50
309.05984000000001
 51
315.38839000000002
  0
ARC
  5
13B
100
AcDbEntity
  8
_____1
 62
0
370
-1
 48
1.0
  6
BYLAYER
100
AcDbCircle
 10
33.924500000000002
 20
95.425709999999995
 30
0.0
 40
11.99713
100
AcDbArc
 50
291.68459000000001
 51
311.6617
  0
ARC
  5
13C
100
AcDbEntity
  8
_____1
 62
0
370
-1
 48
1.0
  6
BYLAYER
100
AcDbCircle
 10
35.588839999999998
 20
90.737279999999998
 30
0.0
 40
7.0279800000000003
100
AcDbArc
 50
259.11362000000003
 51
293.19956999999994
  0
ARC
  5
13D
100
AcDbEntity
  8
_____1
 62
0
370
-1
 48
1.0
  6
BYLAYER
100
AcDbCircle
 10
36.64255
 20
93.668980000000005
 30
0.0
 40
10.117369999999999
100
AcDbArc
 50
232.77090000000004
 51
256.38832000000002
  0
ARC
  5
13E
100
AcDbEntity
  8
_____1
 62
0
370
-1
 48
1.0
  6
BYLAYER
100
AcDbCircle
 10
35.257809999999999
 20
92.397120000000001
 30
0.0
 40
8.2736300000000007
100
AcDbArc
 50
178.42004999999997
 51
235.07813999999999
  0
ARC
  5
13F
100
AcDbEntity
  8
_____1
 62
0
370
-1
 48
1.0
  6
BYLAYER
100
AcDbCircle
 10
43.909829999999999
 20
91.460849999999994
 30
0.0
 40
16.962510000000002
100
AcDbArc
 50
162.23361
 51
176.06384
  0
ARC
  5
140
100
AcDbEntity
  8
_____1
 62
0
370
-1
 48
1.0
  6
BYLAYER
100
AcDbCircle
 10
-155.76473999999999
 20
166.2824
 30
0.0
 40
196.29184000000001
100
AcDbArc
 50
339.21839999999997
 51
340.41440999999998
  0
ARC
  5
141
100
AcDbEntity
  8
_____1
 62
0
370
-1
 48
1.0
  6
BYLAYER
100
AcDbCircle
 10
41.500390000000003
 20
96.919629999999998
 30
0.0
 40
12.834820000000001
100
AcDbArc
 50
149.72691
 51
163.88330999999999
  0
ARC
  5
142
100
AcDbEntity
  8
_____1
 62
0
370
-1
 48
1.0
  6
BYLAYER
100
AcDbCircle
 10
32.363050000000001
 20
102.6833
 30
0.0
 40
2.0714800000000002
100
AcDbArc
 50
72.684179999999998
 51
160.05449999999996
  0
ARC
  5
143
100
AcDbEntity
  8
_____1
 62
0
370
-1
 48
1.0
  6
BYLAYER
100
AcDbCircle
 10
54.55742
 20
83.203680000000006
 30
0.0
 40
30.430489999999999
100
AcDbArc
 50
122.65992000000001
 51
135.16055999999998
  0
ARC
  5
144
100
AcDbEntity
  8
_____1
 62
0
370
-1
 48
1.0
  6
BYLAYER
100
AcDbCircle
 10
74.766130000000004
 20
50.667439999999999
 30
0.0
 40
68.730199999999996
100
AcDbArc
 50
116.66651
 51
122.20578999999996
  0
ARC
  5
145
100
AcDbEntity
  8
_____1
 62
0
370
-1
 48
1.0
  6
BYLAYER
100
AcDbCircle
 10
75.681110000000004
 20
49.387390000000003
 30
0.0
 40
70.285150000000002
100
AcDbArc
 50
111.44757
 51
116.86473999999998
  0
ARC
  5
146
100
AcDbEntity
  8
_____1
 62
0
370
-1
 48
1.0
  6
BYLAYER
100
AcDbCircle
 10
60.3352
 20
92.147300000000001
 30
0.0
 40
24.911740000000002
100
AcDbArc
 50
99.255660000000006
 51
114.55841000000001
  0
ARC
  5
147
100
AcDbEntity
  8
_____1
 62
0
370
-1
 48
1.0
  6
BYLAYER
100
AcDbCircle
 10
57.804090000000002
 20
109.08817999999999
 30
0.0
 40
7.7876099999999999
100
AcDbArc
 50
75.688739999999996
 51
100.92316000000001
  0
ARC
  5
148
100
AcDbEntity
  8
_____1
 62
0
370
-1
 48
1.0
  6
BYLAYER
100
AcDbCircle
 10
58.57488
 20
111.56507999999999
 30
0.0
 40
5.1987899999999998
100
AcDbArc
 50
39.338509999999999
 51
77.172370000000001
  0
ARC
  5
149
100
AcDbEntity
  8
_____1
 62
0
370
-1
 48
1.0
  6
BYLAYER
100
AcDbCircle
 10
66.935270000000003
 20
107.77731
 30
0.0
 40
8.3069100000000002
100
AcDbArc
 50
87.240269999999995
 51
121.49369000000002
  0
ARC
  5
14A
100
AcDbEntity
  8
_____1
 62
0
370
-1
 48
1.0
  6
BYLAYER
100
AcDbCircle
 10
65.925510000000003
 20
98.510890000000003
 30
0.0
 40
17.620190000000001
100
AcDbArc
 50
69.206469999999996
 51
85.411090000000002
  0
ARC
  5
14B
100
AcDbEntity
  8
_____1
 62
0
370
-1
 48
1.0
  6
BYLAYER
100
AcDbCircle
 10
57.436700000000002
 20
73.204400000000007
 30
0.0
 40
44.304290000000002
100
AcDbArc
 50
56.309929999999994
 51
70.56183
  0
ARC
  5
14C
100
AcDbEntity
  8
_____1
 62
0
370
-1
 48
1.0
  6
BYLAYER
100
AcDbCircle
 10
77.954099999999997
 20
102.88827000000001
 30
0.0
 40
8.2470999999999997
100
AcDbArc
 50
34.759500000000003
 51
60.522840000000009
  0
ARC
  5
14D
100
AcDbEntity
  8
_____1
 62
0
370
-1
 48
1.0
  6
BYLAYER
100
AcDbCircle
 10
75.870320000000007
 20
102.15407
 30
0.0
 40
10.39409
100
AcDbArc
 50
11.178890000000001
 51
31.533950000000001
  0
ARC
  5
14E
100
AcDbEntity
  8
_____1
 62
0
370
-1
 48
1.0
  6
BYLAYER
100
AcDbCircle
 10
87.715239999999994
 20
97.323869999999999
 30
0.0
 40
7.0409199999999998
100
AcDbArc
 50
37.278640000000003
 51
103.53660000000001
  0
ARC
  5
14F
100
AcDbEntity
  8
_____1
 62
0
370
-1
 48
1.0
  6
BYLAYER
100
AcDbCircle
 10
-312.2561
 20
-173.11407
 30
0.0
 40
489.84854999999999
100
AcDbArc
 50
32.647379999999998
 51
34.110509999999998
  0
ARC
  5
150
100
AcDbEntity
  8
_____1
 62
0
370
-1
 48
1.0
  6
BYLAYER
100
AcDbCircle
 10
92.286370000000005
 20
85.398629999999997
 30
0.0
 40
9.7785100000000007
100
AcDbArc
 50
21.189959999999999
 51
35.977600000000002
  0
ARC
  5
151
100
AcDbEntity
  8
_____1
 62
0
370
-1
 48
1.0
  6
BYLAYER
100
AcDbCircle
 10
97.859459999999999
 20
87.667959999999994
 30
0.0
 40
3.7633299999999998
100
AcDbArc
 50
-18.50543
 51
19.645409999999998
  0
ARC
  5
152
100
AcDbEntity
  8
_____1
 62
0
370
-1
 48
1.0
  6
BYLAYER
100
AcDbCircle
 10
99.418019999999999
 20
81.367559999999997
 30
0.0
 40
5.4873900000000004
100
AcDbArc
 50
38.089169999999996
 51
68.510660000000001
  0
ARC
  5
153
100
AcDbEntity
  8
_____1
 62
0
370
-1
 48
1.0
  6
BYLAYER
100
AcDbCircle
 10
97.639740000000003
 20
80.578190000000006
 30
0.0
 40
7.3892699999999998
100
AcDbArc
 50
11.96176
 51
34.397970000000001
  0
ARC
  5
154
100
AcDbEntity
  8
_____1
 62
0
370
-1
 48
1.0
  6
BYLAYER
100
AcDbCircle
 10
76.013069999999999
 20
77.675899999999999
 30
0.0
 40
29.194140000000001
100
AcDbArc
 50
-2.6323600000000003
 51
8.7354299999999991
  0
ARC
  5
155
100
AcDbEntity
  8
_____1
 62
0
370
-1
 48
1.0
  6
BYLAYER
100
AcDbCircle
 10
-1329.36122
 20
127.78736000000001
 30
0.0
 40
1435.4600399999999
100
AcDbArc
 50
357.71656999999993
 51
357.94587000000007
  0
ARC
  5
156
100
AcDbEntity
  8
_____1
 62
0
370
-1
 48
1.0
  6
BYLAYER
100
AcDbCircle
 10
63.449559999999998
 20
71.56926
 30
0.0
 40
41.520890000000001
100
AcDbArc
 50
354.69556
 51
358.65494000000001
  0
ARC
  5
157
100
AcDbEntity
  8
_____1
 62
0
370
-1
 48
1.0
  6
BYLAYER
100
AcDbCircle
 10
97.728049999999996
 20
68.131290000000007
 30
0.0
 40
7.0759299999999996
100
AcDbArc
 50
345.13204000000002
 51
356.75493999999998
  0
ARC
  5
158
100
AcDbEntity
  8
_____1
 62
0
370
-1
 48
1.0
  6
BYLAYER
100
AcDbCircle
 10
102.48457000000001
 20
66.743160000000003
 30
0.0
 40
2.1259299999999999
100
AcDbArc
 50
329.03665999999998
 51
348.39959000000005
  0
ARC
  5
159
100
AcDbEntity
  8
_____1
 62
0
370
-1
 48
1.0
  6
BYLAYER
100
AcDbCircle
 10
103.56498999999999
 20
66.01979
 30
0.0
 40
0.8298100000000001
100
AcDbArc
 50
283.81901999999997
 51
333.48872
  0
ARC
  5
15A
100
AcDbEntity
  8
_____1
 62
0
370
-1
 48
1.0
  6
BYLAYER
100
AcDbCircle
 10
96.343339999999998
 20
62.178159999999998
 30
0.0
 40
8.0168900000000001
100
AcDbArc
 50
-6.8505100000000008
 51
22.251940000000005
  0
ARC
  5
15B
100
AcDbEntity
  8
_____1
 62
0
370
-1
 48
1.0
  6
BYLAYER
100
AcDbCircle
 10
94.318160000000006
 20
62.954270000000001
 30
0.0
 40
10.13401
100
AcDbArc
 50
327.25045
 51
350.15724
  0
ARC
  5
15C
100
AcDbEntity
  8
_____1
 62
0
370
-1
 48
1.0
  6
BYLAYER
100
AcDbCircle
 10
44.67454
 20
92.908079999999998
 30
0.0
 40
68.110799999999998
100
AcDbArc
 50
321.4991
 51
328.64965999999998
  0
ARC
  5
15D
100
AcDbEntity
  8
_____1
 62
0
370
-1
 48
1.0
  6
BYLAYER
100
AcDbCircle
 10
72.519580000000005
 20
70.267780000000002
 30
0.0
 40
32.227400000000003
100
AcDbArc
 50
314.62655000000001
 51
322.18177000000003
  0
ARC
  5
15E
100
AcDbEntity
  8
_____1
 62
0
370
-1
 48
1.0
  6
BYLAYER
100
AcDbCircle
 10
84.111260000000001
 20
57.805390000000003
 30
0.0
 40
15.223330000000001
100
AcDbArc
 50
300.52278999999999
 51
316.52686999999992
  0
ARC
  5
15F
100
AcDbEntity
  8
_____1
 62
0
370
-1
 48
1.0
  6
BYLAYER
100
AcDbCircle
 10
86.783720000000002
 20
45.19894
 30
0.0
 40
5.0845599999999997
100
AcDbArc
 50
308.34629999999999
 51
354.27350000000001
  0
ARC
  5
160
100
AcDbEntity
  8
_____1
 62
0
370
-1
 48
1.0
  6
BYLAYER
100
AcDbCircle
 10
-21.242719999999998
 20
208.72102000000001
 30
0.0
 40
201.04907
100
AcDbArc
 50
302.40415999999999
 51
303.57335
  0
ARC
  5
161
100
AcDbEntity
  8
_____1
 62
0
370
-1
 48
1.0
  6
BYLAYER
100
AcDbCircle
 10
12.964460000000001
 20
151.9701
 30
0.0
 40
134.81237999999999
100
AcDbArc
 50
301.47885000000002
 51
303.05502999999999
  0
ARC
  5
162
100
AcDbEntity
  8
_____1
 62
0
370
-1
 48
1.0
  6
BYLAYER
100
AcDbCircle
 10
73.347130000000007
 20
53.018099999999997
 30
0.0
 40
18.892810000000001
100
AcDbArc
 50
290.76562999999999
 51
302.00896
  0
ARC
  5
163
100
AcDbEntity
  8
_____1
 62
0
370
-1
 48
1.0
  6
BYLAYER
100
AcDbCircle
 10
75.885859999999994
 20
35.347520000000003
 30
0.0
 40
4.1596500000000001
100
AcDbArc
 50
-39.856920000000002
 51
0.06997
  0
ARC
  5
164
100
AcDbEntity
  8
_____1
 62
0
370
-1
 48
1.0
  6
BYLAYER
100
AcDbCircle
 10
73.716629999999995
 20
38.580030000000001
 30
0.0
 40
7.9715199999999999
100
AcDbArc
 50
291.71879000000001
 51
312.27510000000001
  0
ARC
  5
165
100
AcDbEntity
  8
_____1
 62
0
370
-1
 48
1.0
  6
BYLAYER
100
AcDbCircle
 10
58.764780000000002
 20
72.777379999999994
 30
0.0
 40
45.291049999999998
100
AcDbArc
 50
287.10935000000001
 51
293.28215999999998
  0
ARC
  5
166
100
AcDbEntity
  8
_____1
 62
0
370
-1
 48
1.0
  6
BYLAYER
100
AcDbCircle
 10
65.046080000000003
 20
50.748609999999999
 30
0.0
 40
22.39432
100
AcDbArc
 50
275.84456999999998
 51
288.33103
  0
ARC
  5
167
100
AcDbEntity
  8
_____1
 62
0
370
-1
 48
1.0
  6
BYLAYER
100
AcDbCircle
 10
74.287850000000006
 20
89.927639999999997
 30
0.0
 40
61.84995
100
AcDbArc
 50
263.53753999999998
 51
270.02560999999997
  0
ARC
  5
168
100
AcDbEntity
  8
_____1
 62
0
370
-1
 48
1.0
  6
BYLAYER
100
AcDbCircle
 10
73.635419999999996
 20
146.81523999999999
 30
0.0
 40
118.73948
100
AcDbArc
 50
270.32816000000003
 51
273.70835
  0
ARC
  5
169
100
AcDbEntity
  8
_____1
 62
0
370
-1
 48
1.0
  6
BYLAYER
100
AcDbCircle
 10
71.377120000000005
 20
180.04376999999999
 30
0.0
 40
152.04454000000001
100
AcDbArc
 50
273.74770000000007
 51
276.38738999999998
  0
ARC
  5
16A
100
AcDbEntity
  8
_____1
 62
0
370
-1
 48
1.0
  6
BYLAYER
100
AcDbCircle
 10
84.105950000000007
 20
82.35754
 30
0.0
 40
53.578270000000003
100
AcDbArc
 50
274.48117000000002
 51
281.97485
  0
ARC
  5
16B
100
AcDbEntity
  8
_____1
 62
0
370
-1
 48
1.0
  6
BYLAYER
100
AcDbCircle
 10
96.738349999999997
 20
25.18966
 30
0.0
 40
4.9912900000000002
100
AcDbArc
 50
86.359520000000003
 51
107.67989000000001
  0
ARC
  5
16C
100
AcDbEntity
  8
_____1
 62
0
370
-1
 48
1.0
  6
BYLAYER
100
AcDbCircle
 10
97.092749999999995
 20
29.192620000000002
 30
0.0
 40
0.97897
100
AcDbArc
 50
38.205289999999998
 51
92.194050000000004
  0
ARC
  5
16D
100
AcDbEntity
  8
_____1
 62
0
370
-1
 48
1.0
  6
BYLAYER
100
AcDbCircle
 10
102.16339000000001
 20
31.995740000000001
 30
0.0
 40
4.8302500000000004
100
AcDbArc
 50
207.06327999999999
 51
217.97496000000004
  0
ARC
  5
16E
100
AcDbEntity
  8
_____1
 62
0
370
-1
 48
1.0
  6
BYLAYER
100
AcDbCircle
 10
100.07174000000001
 20
30.326709999999999
 30
0.0
 40
2.1546599999999998
100
AcDbArc
 50
217.21358000000001
 51
242.84945999999999
  0
ARC
  5
16F
100
AcDbEntity
  8
_____1
 62
0
370
-1
 48
1.0
  6
BYLAYER
100
AcDbCircle
 10
98.08175
 20
25.674289999999999
 30
0.0
 40
2.9145799999999999
100
AcDbArc
 50
50.75996
 51
69.792619999999999
  0
ARC
  5
170
100
AcDbEntity
  8
_____1
 62
0
370
-1
 48
1.0
  6
BYLAYER
100
AcDbCircle
 10
95.084649999999996
 20
23.200060000000001
 30
0.0
 40
6.76912
100
AcDbArc
 50
28.034799999999997
 51
44.34639
  0
ARC
  5
171
100
AcDbEntity
  8
_____1
 62
0
370
-1
 48
1.0
  6
BYLAYER
100
AcDbCircle
 10
62.046439999999997
 20
9.0380000000000003
 30
0.0
 40
42.694490000000002
100
AcDbArc
 50
14.223710000000001
 51
23.967960000000001
  0
ARC
  5
172
100
AcDbEntity
  8
_____1
 62
0
370
-1
 48
1.0
  6
BYLAYER
100
AcDbCircle
 10
70.509219999999999
 20
10.371779999999999
 30
0.0
 40
34.17248
100
AcDbArc
 50
3.3557899999999998
 51
15.54252
  0
ARC
  5
173
100
AcDbEntity
  8
_____1
 62
0
370
-1
 48
1.0
  6
BYLAYER
100
AcDbCircle
 10
93.171390000000002
 20
10.935879999999999
 30
0.0
 40
11.54142
100
AcDbArc
 50
-4.3982299999999999
 51
7.1484400000000008
  0
ARC
  5
174
100
AcDbEntity
  8
_____1
 62
0
370
-1
 48
1.0
  6
BYLAYER
100
AcDbCircle
 10
102.61798
 20
10.04787
 30
0.0
 40
2.0608499999999998
100
AcDbArc
 50
-64.126540000000006
 51
0.0812
  0
ARC
  5
175
100
AcDbEntity
  8
_____1
 62
0
370
-1
 48
1.0
  6
BYLAYER
100
AcDbCircle
 10
104.16766
 20
7.1293100000000003
 30
0.0
 40
1.2472700000000001
100
AcDbArc
 50
121.42818
 51
165.27277000000001
  0
ARC
  5
176
100
AcDbEntity
  8
_____1
 62
0
370
-1
 48
1.0
  6
BYLAYER
100
AcDbCircle
 10
97.569479999999999
 20
8.3240200000000009
 30
0.0
 40
5.4628500000000004
100
AcDbArc
 50
340.58042999999998
 51
350.75511999999998
  0
ARC
  5
177
100
AcDbEntity
  8
_____1
 62
0
370
-1
 48
1.0
  6
BYLAYER
100
AcDbCircle
 10
99.459569999999999
 20
7.8292000000000002
 30
0.0
 40
3.5194899999999998
100
AcDbArc
 50
306.46875999999997
 51
337.94614000000001
  0
ARC
  5
178
100
AcDbEntity
  8
_____1
 62
0
370
-1
 48
1.0
  6
BYLAYER
100
AcDbCircle
 10
159.88631000000001
 20
-67.001589999999993
 30
0.0
 40
92.666179999999997
100
AcDbArc
 50
129.01439999999997
 51
134.75707
  0
ARC
  5
179
100
AcDbEntity
  8
_____1
 62
0
370
-1
 48
1.0
  6
BYLAYER
100
AcDbCircle
 10
137.10123999999999
 20
-44.808810000000001
 30
0.0
 40
60.866610000000001
100
AcDbArc
 50
134.23589000000001
 51
138.60694000000001
  0
ARC
  5
17A
100
AcDbEntity
  8
_____1
 62
0
370
-1
 48
1.0
  6
BYLAYER
100
AcDbCircle
 10
111.4152
 20
-22.548469999999998
 30
0.0
 40
26.87968
100
AcDbArc
 50
138.00020000000001
 51
142.94941999999998
  0
ARC
  5
17B
100
AcDbEntity
  8
_____1
 62
0
370
-1
 48
1.0
  6
BYLAYER
100
AcDbCircle
 10
94.169179999999997
 20
-10.231389999999999
 30
0.0
 40
5.7218200000000001
100
AcDbArc
 50
137.32525000000001
 51
160.64009999999999
  0
ARC
  5
17C
100
AcDbEntity
  8
_____1
 62
0
370
-1
 48
1.0
  6
BYLAYER
100
AcDbCircle
 10
87.873589999999993
 20
-8.10839
 30
0.0
 40
0.92538
100
AcDbArc
 50
299.06900999999999
 51
345.85095000000001
  0
ARC
  5
17D
100
AcDbEntity
  8
_____1
 62
0
370
-1
 48
1.0
  6
BYLAYER
100
AcDbCircle
 10
87.058499999999995
 20
-5.5470199999999998
 30
0.0
 40
3.5996700000000001
100
AcDbArc
 50
278.57433999999995
 51
290.56914999999992
  0
ARC
  5
17E
100
AcDbEntity
  8
_____1
 62
0
370
-1
 48
1.0
  6
BYLAYER
100
AcDbCircle
 10
87.790800000000004
 20
-11.97353
 30
0.0
 40
2.8737300000000001
100
AcDbArc
 50
93.903260000000003
 51
124.12119000000001
  0
ARC
  5
17F
100
AcDbEntity
  8
_____1
 62
0
370
-1
 48
1.0
  6
BYLAYER
100
AcDbCircle
 10
86.050280000000001
 20
-9.4511699999999994
 30
0.0
 40
0.19251
100
AcDbArc
 50
160.87450999999999
 51
311.88177000000002
  0
ARC
  5
180
100
AcDbEntity
  8
_____1
 62
0
370
-1
 48
1.0
  6
BYLAYER
100
AcDbCircle
 10
129.96825999999999
 20
-27.585159999999998
 30
0.0
 40
47.706710000000001
100
AcDbArc
 50
144.49366000000001
 51
157.57734000000002
  0
ARC
  5
181
100
AcDbEntity
  8
_____1
 62
0
370
-1
 48
1.0
  6
BYLAYER
100
AcDbCircle
 10
123.63365
 20
-22.509609999999999
 30
0.0
 40
39.604759999999999
100
AcDbArc
 50
137.26170999999999
 51
145.14852999999999
  0
ARC
  5
182
100
AcDbEntity
  8
_____1
 62
0
370
-1
 48
1.0
  6
BYLAYER
100
AcDbCircle
 10
110.91661999999999
 20
-10.436680000000001
 30
0.0
 40
22.072569999999999
100
AcDbArc
 50
130.80037999999999
 51
137.87608
  0
ARC
  5
183
100
AcDbEntity
  8
_____1
 62
0
370
-1
 48
1.0
  6
BYLAYER
100
AcDbCircle
 10
102.99024
 20
-0.68218
 30
0.0
 40
9.5165299999999995
100
AcDbArc
 50
116.62910999999998
 51
133.05053000000001
  0
ARC
  5
184
100
AcDbEntity
  8
_____1
 62
0
370
-1
 48
1.0
  6
BYLAYER
100
AcDbCircle
 10
106.96786
 20
12.639810000000001
 30
0.0
 40
9.5462799999999994
100
AcDbArc
 50
187.25409999999999
 51
210.28989999999999
  0
ARC
  5
185
100
AcDbEntity
  8
_____1
 62
0
370
-1
 48
1.0
  6
BYLAYER
100
AcDbCircle
 10
137.84922
 20
15.239509999999999
 30
0.0
 40
40.530239999999999
100
AcDbArc
 50
179.94757000000001
 51
185.38704999999999
  0
ARC
  5
186
100
AcDbEntity
  8
_____1
 62
0
370
-1
 48
1.0
  6
BYLAYER
100
AcDbCircle
 10
16.650770000000001
 20
17.18702
 30
0.0
 40
80.690849999999998
100
AcDbArc
 50
358.64335
 51
361.37657999999999
  0
ARC
  5
187
100
AcDbEntity
  8
_____1
 62
0
370
-1
 48
1.0
  6
BYLAYER
100
AcDbCircle
 10
84.149590000000003
 20
19.54748
 30
0.0
 40
13.1755
100
AcDbArc
 50
358.16466000000003
 51
374.92325
  0
ARC
  5
188
100
AcDbEntity
  8
_____1
 62
0
370
-1
 48
1.0
  6
BYLAYER
100
AcDbCircle
 10
87.234359999999995
 20
129.39921000000001
 30
0.0
 40
106.89485000000001
100
AcDbArc
 50
268.44353000000001
 51
275.17748999999998
  0
ARC
  5
189
100
AcDbEntity
  8
_____1
 62
0
370
-1
 48
1.0
  6
BYLAYER
100
AcDbCircle
 10
84.515439999999998
 20
102.83423999999999
 30
0.0
 40
80.290649999999999
100
AcDbArc
 50
260.89657999999997
 51
269.86828000000003
  0
ARC
  5
18A
100
AcDbEntity
  8
_____1
 62
0
370
-1
 48
1.0
  6
BYLAYER
100
AcDbCircle
 10
52.03839
 20
18.677969999999998
 30
0.0
 40
20.366250000000001
100
AcDbArc
 50
-5.6538500000000003
 51
13.854760000000001
  0
ARC
  5
18B
100
AcDbEntity
  8
_____1
 62
0
370
-1
 48
1.0
  6
BYLAYER
100
AcDbCircle
 10
43.88561
 20
20.498139999999999
 30
0.0
 40
28.676410000000001
100
AcDbArc
 50
345.41996000000006
 51
352.33150000000001
  0
ARC
  5
18C
100
AcDbEntity
  8
_____1
 62
0
370
-1
 48
1.0
  6
BYLAYER
100
AcDbCircle
 10
114.98363000000001
 20
1.0679799999999999
 30
0.0
 40
45.032359999999997
100
AcDbArc
 50
164.26615000000001
 51
168.67041
  0
ARC
  5
18D
100
AcDbEntity
  8
_____1
 62
0
370
-1
 48
1.0
  6
BYLAYER
100
AcDbCircle
 10
28.471920000000001
 20
17.653870000000001
 30
0.0
 40
43.058100000000003
100
AcDbArc
 50
345.40010999999998
 51
349.64551000000006
  0
ARC
  5
18E
100
AcDbEntity
  8
_____1
 62
0
370
-1
 48
1.0
  6
BYLAYER
100
AcDbCircle
 10
64.155159999999995
 20
7.9730600000000003
 30
0.0
 40
6.0983200000000002
100
AcDbArc
 50
333.78642000000002
 51
348.91262
  0
ARC
  5
18F
100
AcDbEntity
  8
_____1
 62
0
370
-1
 48
1.0
  6
BYLAYER
100
AcDbCircle
 10
68.506879999999995
 20
5.6929999999999996
 30
0.0
 40
1.1934100000000001
100
AcDbArc
 50
263.48638
 51
339.71812
  0
ARC
  5
190
100
AcDbEntity
  8
_____1
 62
0
370
-1
 48
1.0
  6
BYLAYER
100
AcDbCircle
 10
62.945700000000002
 20
5.4792899999999998
 30
0.0
 40
5.5121700000000002
100
AcDbArc
 50
326.96501000000001
 51
349.84361999999999
  0
ARC
  5
191
100
AcDbEntity
  8
_____1
 62
0
370
-1
 48
1.0
  6
BYLAYER
100
AcDbCircle
 10
56.606279999999998
 20
10.07802
 30
0.0
 40
13.339729999999999
100
AcDbArc
 50
315.78791000000001
 51
325.24954000000002
  0
ARC
  5
192
100
AcDbEntity
  8
_____1
 62
0
370
-1
 48
1.0
  6
BYLAYER
100
AcDbCircle
 10
301.52066000000002
 20
-251.46862999999999
 30
0.0
 40
344.99038999999999
100
AcDbArc
 50
133.01590999999999
 51
133.74790999999999
  0
ARC
  5
193
100
AcDbEntity
  8
_____1
 62
0
370
-1
 48
1.0
  6
BYLAYER
100
AcDbCircle
 10
166.48166000000001
 20
-110.28609
 30
0.0
 40
149.62398999999999
100
AcDbArc
 50
133.77668
 51
136.04105000000001
  0
ARC
  5
194
100
AcDbEntity
  8
_____1
 62
0
370
-1
 48
1.0
  6
BYLAYER
100
AcDbCircle
 10
90.685100000000006
 20
-39.544960000000003
 30
0.0
 40
45.989469999999997
100
AcDbArc
 50
133.9332
 51
141.30322000000001
  0
ARC
  5
195
100
AcDbEntity
  8
_____1
 62
0
370
-1
 48
1.0
  6
BYLAYER
100
AcDbCircle
 10
52.940809999999999
 20
-9.4962800000000005
 30
0.0
 40
2.2597499999999999
100
AcDbArc
 50
298.35376000000002
 51
325.00051000000002
  0
ARC
  5
196
100
AcDbEntity
  8
_____1
 62
0
370
-1
 48
1.0
  6
BYLAYER
100
AcDbCircle
 10
52.260800000000003
 20
-6.56609
 30
0.0
 40
5.2219499999999996
100
AcDbArc
 50
277.60820999999999
 51
289.61730999999997
  0
ARC
  5
197
100
AcDbEntity
  8
_____1
 62
0
370
-1
 48
1.0
  6
BYLAYER
100
AcDbCircle
 10
53.102170000000001
 20
-13.341200000000001
 30
0.0
 40
1.60616
100
AcDbArc
 50
95.358289999999997
 51
134.59902
  0
ARC
  5
198
100
AcDbEntity
  8
_____1
 62
0
370
-1
 48
1.0
  6
BYLAYER
100
AcDbCircle
 10
55.417140000000003
 20
-15.309530000000001
 30
0.0
 40
4.6407699999999998
100
AcDbArc
 50
137.8887
 51
151.46001000000001
  0
ARC
  5
199
100
AcDbEntity
  8
_____1
 62
0
370
-1
 48
1.0
  6
BYLAYER
100
AcDbCircle
 10
51.264879999999998
 20
-13.03407
 30
0.0
 40
0.09528
100
AcDbArc
 50
177.31227999999996
 51
322.32830000000001
  0
ARC
  5
19A
100
AcDbEntity
  8
_____1
 62
0
370
-1
 48
1.0
  6
BYLAYER
100
AcDbCircle
 10
61.38203
 20
-15.23326
 30
0.0
 40
10.447380000000001
100
AcDbArc
 50
153.01150000000001
 51
167.82320000000001
  0
ARC
  5
19B
100
AcDbEntity
  8
_____1
 62
0
370
-1
 48
1.0
  6
BYLAYER
100
AcDbCircle
 10
80.181160000000006
 20
-25.253399999999999
 30
0.0
 40
31.748989999999999
100
AcDbArc
 50
147.42859999999996
 51
152.29384999999996
  0
ARC
  5
19C
100
AcDbEntity
  8
_____1
 62
0
370
-1
 48
1.0
  6
BYLAYER
100
AcDbCircle
 10
111.2778
 20
-45.964320000000001
 30
0.0
 40
69.108189999999993
100
AcDbArc
 50
142.36767
 51
146.83774
  0
ARC
  5
19D
100
AcDbEntity
  8
_____1
 62
0
370
-1
 48
1.0
  6
BYLAYER
100
AcDbCircle
 10
122.12494
 20
-54.218899999999998
 30
0.0
 40
82.738759999999999
100
AcDbArc
 50
138.69318000000004
 51
142.42723000000001
  0
ARC
  5
19E
100
AcDbEntity
  8
_____1
 62
0
370
-1
 48
1.0
  6
BYLAYER
100
AcDbCircle
 10
97.094679999999997
 20
-31.859940000000002
 30
0.0
 40
49.178199999999997
100
AcDbArc
 50
135.87139999999999
 51
139.01178999999996
  0
ARC
  5
19F
100
AcDbEntity
  8
_____1
 62
0
370
-1
 48
1.0
  6
BYLAYER
100
AcDbCircle
 10
77.702219999999997
 20
-12.81704
 30
0.0
 40
22.000309999999999
100
AcDbArc
 50
132.79094000000001
 51
136.30420000000001
  0
ARC
  5
1A0
100
AcDbEntity
  8
_____1
 62
0
370
-1
 48
1.0
  6
BYLAYER
100
AcDbCircle
 10
65.014560000000003
 20
1.4642999999999999
 30
0.0
 40
2.9273099999999999
100
AcDbArc
 50
113.99178000000001
 51
140.46671000000001
  0
ARC
  5
1A1
100
AcDbEntity
  8
_____1
 62
0
370
-1
 48
1.0
  6
BYLAYER
100
AcDbCircle
 10
64.715339999999998
 20
4.9784699999999997
 30
0.0
 40
1.22441
100
AcDbArc
 50
159.77828
 51
223.30343999999999
  0
ARC
  5
1A2
100
AcDbEntity
  8
_____1
 62
0
370
-1
 48
1.0
  6
BYLAYER
100
AcDbCircle
 10
65.402630000000002
 20
4.2022199999999996
 30
0.0
 40
2.1932800000000001
100
AcDbArc
 50
112.55087999999999
 51
146.84635000000003
  0
ARC
  5
1A3
100
AcDbEntity
  8
_____1
 62
0
370
-1
 48
1.0
  6
BYLAYER
100
AcDbCircle
 10
71.396439999999998
 20
9.9753399999999992
 30
0.0
 40
7.7949000000000002
100
AcDbArc
 50
186.79649000000001
 51
208.73557
  0
ARC
  5
1A4
100
AcDbEntity
  8
_____1
 62
0
370
-1
 48
1.0
  6
BYLAYER
100
AcDbCircle
 10
78.308750000000003
 20
10.42473
 30
0.0
 40
14.716519999999999
100
AcDbArc
 50
173.72050999999999
 51
185.34885
  0
ARC
  5
1A5
100
AcDbEntity
  8
_____1
 62
0
370
-1
 48
1.0
  6
BYLAYER
100
AcDbCircle
 10
94.981790000000004
 20
7.6986800000000004
 30
0.0
 40
31.600110000000001
100
AcDbArc
 50
161.27930000000001
 51
172.11381
  0
ARC
  5
1A6
100
AcDbEntity
  8
_____1
 62
0
370
-1
 48
1.0
  6
BYLAYER
100
AcDbCircle
 10
54.821770000000001
 20
-141.23570000000001
 30
0.0
 40
159.40530999999999
100
AcDbArc
 50
86.319829999999982
 51
87.720200000000006
  0
ARC
  5
1A7
100
AcDbEntity
  8
_____1
 62
0
370
-1
 48
1.0
  6
BYLAYER
100
AcDbCircle
 10
61.904879999999999
 20
51.263539999999999
 30
0.0
 40
33.228389999999997
100
AcDbArc
 50
262.00774999999999
 51
268.72042000000005
  0
ARC
  5
1A8
100
AcDbEntity
  8
_____1
 62
0
370
-1
 48
1.0
  6
BYLAYER
100
AcDbCircle
 10
58.607500000000002
 20
31.532900000000001
 30
0.0
 40
13.24123
100
AcDbArc
 50
247.40921
 51
264.26715000000002
  0
ARC
  5
1A9
100
AcDbEntity
  8
_____1
 62
0
370
-1
 48
1.0
  6
BYLAYER
100
AcDbCircle
 10
55.076009999999997
 20
24.262560000000001
 30
0.0
 40
5.1932099999999997
100
AcDbArc
 50
209.41762
 51
252.57562999999999
  0
ARC
  5
1AA
100
AcDbEntity
  8
_____1
 62
0
370
-1
 48
1.0
  6
BYLAYER
100
AcDbCircle
 10
48.928959999999996
 20
35.4968
 30
0.0
 40
13.88026
100
AcDbArc
 50
254.18269000000004
 51
276.71672000000001
  0
ARC
  5
1AB
100
AcDbEntity
  8
_____1
 62
0
370
-1
 48
1.0
  6
BYLAYER
100
AcDbCircle
 10
16.874289999999998
 20
26.449339999999999
 30
0.0
 40
28.597539999999999
100
AcDbArc
 50
328.80038000000002
 51
351.33739000000003
  0
ARC
  5
1AC
100
AcDbEntity
  8
_____1
 62
0
370
-1
 48
1.0
  6
BYLAYER
100
AcDbCircle
 10
42.589919999999999
 20
6.8807700000000001
 30
0.0
 40
4.9170800000000003
100
AcDbArc
 50
104.77803
 51
137.89073000000002
  0
ARC
  5
1AD
100
AcDbEntity
  8
_____1
 62
0
370
-1
 48
1.0
  6
BYLAYER
100
AcDbCircle
 10
48.733130000000003
 20
2.52617
 30
0.0
 40
12.426310000000001
100
AcDbArc
 50
141.9922
 51
155.06842
  0
ARC
  5
1AE
100
AcDbEntity
  8
_____1
 62
0
370
-1
 48
1.0
  6
BYLAYER
100
AcDbCircle
 10
55.405389999999997
 20
-41.132530000000003
 30
0.0
 40
52.084200000000003
100
AcDbArc
 50
110.14843999999999
 51
123.75337999999999
  0
ARC
  5
1AF
100
AcDbEntity
  8
_____1
 62
0
370
-1
 48
1.0
  6
BYLAYER
100
AcDbCircle
 10
39.609340000000003
 20
-16.121390000000002
 30
0.0
 40
22.525369999999999
100
AcDbArc
 50
125.69517
 51
132.19604000000001
  0
ARC
  5
1B0
100
AcDbEntity
  8
_____1
 62
0
370
-1
 48
1.0
  6
BYLAYER
100
AcDbCircle
 10
20.790559999999999
 20
3.6482700000000001
 30
0.0
 40
4.8069800000000003
100
AcDbArc
 50
289.50301000000002
 51
320.12666999999999
  0
ARC
  5
1B1
100
AcDbEntity
  8
_____1
 62
0
370
-1
 48
1.0
  6
BYLAYER
100
AcDbCircle
 10
22.22035
 20
-0.6812200000000001
 30
0.0
 40
0.26705
100
AcDbArc
 50
151.52521000000002
 51
310.95766000000003
  0
ARC
  5
1B2
100
AcDbEntity
  8
_____1
 62
0
370
-1
 48
1.0
  6
BYLAYER
100
AcDbCircle
 10
12.52543
 20
5.1701899999999998
 30
0.0
 40
11.057119999999999
100
AcDbArc
 50
328.82300000000004
 51
339.30124000000001
  0
ARC
  5
1B3
100
AcDbEntity
  8
_____1
 62
0
370
-1
 48
1.0
  6
BYLAYER
100
AcDbCircle
 10
18.487860000000001
 20
2.95072
 30
0.0
 40
4.6951900000000002
100
AcDbArc
 50
338.92002000000002
 51
363.57632999999998
  0
ARC
  5
1B4
100
AcDbEntity
  8
_____1
 62
0
370
-1
 48
1.0
  6
BYLAYER
100
AcDbCircle
 10
23.473800000000001
 20
3.2946900000000001
 30
0.0
 40
0.30422
100
AcDbArc
 50
108.43495000000001
 51
189.66730999999996
  0
ARC
  5
1B5
100
AcDbEntity
  8
_____1
 62
0
370
-1
 48
1.0
  6
BYLAYER
100
AcDbCircle
 10
16.509340000000002
 20
19.987310000000001
 30
0.0
 40
17.783829999999998
100
AcDbArc
 50
292.71877000000001
 51
304.03059000000002
  0
ARC
  5
1B6
100
AcDbEntity
  8
_____1
 62
0
370
-1
 48
1.0
  6
BYLAYER
100
AcDbCircle
 10
-21.588139999999999
 20
74.529650000000004
 30
0.0
 40
84.31241
100
AcDbArc
 50
304.74349999999993
 51
307.13260000000002
  0
ARC
  5
1B7
100
AcDbEntity
  8
_____1
 62
0
370
-1
 48
1.0
  6
BYLAYER
100
AcDbCircle
 10
69.431169999999995
 20
-40.670389999999998
 30
0.0
 40
62.54768
100
AcDbArc
 50
123.45903
 51
129.90233000000003
  0
ARC
  5
1B8
100
AcDbEntity
  8
_____1
 62
0
370
-1
 48
1.0
  6
BYLAYER
100
AcDbCircle
 10
82.844939999999994
 20
0.90615
 30
0.0
 40
49.058950000000003
100
AcDbArc
 50
159.09791999999999
 51
167.51501999999999
  0
ARC
  5
1B9
100
AcDbEntity
  8
_____1
 62
0
370
-1
 48
1.0
  6
BYLAYER
100
AcDbCircle
 10
59.781640000000003
 20
10.138640000000001
 30
0.0
 40
24.222770000000001
100
AcDbArc
 50
151.5137
 51
160.036
  0
ARC
  5
1BA
100
AcDbEntity
  8
_____1
 62
0
370
-1
 48
1.0
  6
BYLAYER
100
AcDbCircle
 10
45.145180000000003
 20
18.87256
 30
0.0
 40
7.2262500000000003
100
AcDbArc
 50
128.36464000000001
 51
157.03819000000001
  0
ARC
  5
1BB
100
AcDbEntity
  8
_____1
 62
0
370
-1
 48
1.0
  6
BYLAYER
100
AcDbCircle
 10
34.07826
 20
-6.6651699999999998
 30
0.0
 40
31.890270000000001
100
AcDbArc
 50
78.089110000000005
 51
89.960840000000005
  0
ARC
  5
1BC
100
AcDbEntity
  8
_____1
 62
0
370
-1
 48
1.0
  6
BYLAYER
100
AcDbCircle
 10
32.766309999999997
 20
69.852950000000007
 30
0.0
 40
44.647779999999997
100
AcDbArc
 50
267.47053
 51
271.71182999999996
  0
ARC
  5
1BD
100
AcDbEntity
  8
_____1
 62
0
370
-1
 48
1.0
  6
BYLAYER
100
AcDbCircle
 10
30.899920000000002
 20
33.90446
 30
0.0
 40
8.6564099999999993
100
AcDbArc
 50
258.36900000000003
 51
269.31123000000002
  0
ARC
  5
1BE
100
AcDbEntity
  8
_____1
 62
0
370
-1
 48
1.0
  6
BYLAYER
100
AcDbCircle
 10
29.271830000000001
 20
27.522939999999998
 30
0.0
 40
2.1004100000000001
100
AcDbArc
 50
221.33862999999999
 51
266.80389000000002
  0
ARC
  5
1BF
100
AcDbEntity
  8
_____1
 62
0
370
-1
 48
1.0
  6
BYLAYER
100
AcDbCircle
 10
25.665600000000001
 20
27.508369999999999
 30
0.0
 40
2.4499300000000002
100
AcDbArc
 50
285.53469000000001
 51
325.92137000000002
  0
ARC
  5
1C0
100
AcDbEntity
  8
_____1
 62
0
370
-1
 48
1.0
  6
BYLAYER
100
AcDbCircle
 10
25.62792
 20
29.170249999999999
 30
0.0
 40
4.0817199999999998
100
AcDbArc
 50
255.75162
 51
279.7869
  0
ARC
  5
1C1
100
AcDbEntity
  8
_____1
 62
0
370
-1
 48
1.0
  6
BYLAYER
100
AcDbCircle
 10
10.34205
 20
30.102049999999998
 30
0.0
 40
15.094569999999999
100
AcDbArc
 50
318.24152999999995
 51
341.10581000000002
  0
ARC
  5
1C2
100
AcDbEntity
  8
_____1
 62
0
370
-1
 48
1.0
  6
BYLAYER
100
AcDbCircle
 10
16.45617
 20
24.214030000000001
 30
0.0
 40
6.6200599999999996
100
AcDbArc
 50
268.89233000000002
 51
321.01445999999999
  0
ARC
  5
1C3
100
AcDbEntity
  8
_____1
 62
0
370
-1
 48
1.0
  6
BYLAYER
100
AcDbCircle
 10
16.621289999999998
 20
4.1803699999999999
 30
0.0
 40
13.41803
100
AcDbArc
 50
91.251609999999999
 51
110.57491
  0
ARC
  5
1C4
100
AcDbEntity
  8
_____1
 62
0
370
-1
 48
1.0
  6
BYLAYER
100
AcDbCircle
 10
4.9723300000000004
 20
32.146999999999998
 30
0.0
 40
16.89292
100
AcDbArc
 50
286.53674999999998
 51
294.23212999999998
  0
ARC
  5
1C5
100
AcDbEntity
  8
_____1
 62
0
370
-1
 48
1.0
  6
BYLAYER
100
AcDbCircle
 10
8.0331899999999994
 20
21.179290000000002
 30
0.0
 40
5.51084
100
AcDbArc
 50
264.88427999999999
 51
288.48642000000001
  0
ARC
  5
1C6
100
AcDbEntity
  8
_____1
 62
0
370
-1
 48
1.0
  6
BYLAYER
100
AcDbCircle
 10
-9.9259799999999991
 20
22.32208
 30
0.0
 40
18.684290000000001
100
AcDbArc
 50
314.47773000000001
 51
339.21062000000001
  0
ARC
  5
1C7
100
AcDbEntity
  8
_____1
 62
0
370
-1
 48
1.0
  6
BYLAYER
100
AcDbCircle
 10
-10.50611
 20
23.157879999999999
 30
0.0
 40
19.687850000000001
100
AcDbArc
 50
302.25531000000001
 51
313.97818000000001
  0
ARC
  5
1C8
100
AcDbEntity
  8
_____1
 62
0
370
-1
 48
1.0
  6
BYLAYER
100
AcDbCircle
 10
-23.093820000000001
 20
44.091389999999997
 30
0.0
 40
44.111989999999999
100
AcDbArc
 50
298.95434999999998
 51
301.57091000000003
  0
ARC
  5
1C9
100
AcDbEntity
  8
_____1
 62
0
370
-1
 48
1.0
  6
BYLAYER
100
AcDbCircle
 10
1.3857999999999999
 20
-1.5646899999999999
 30
0.0
 40
7.7184999999999997
100
AcDbArc
 50
113.87855999999999
 51
128.85481999999999
  0
ARC
  5
1CA
100
AcDbEntity
  8
_____1
 62
0
370
-1
 48
1.0
  6
BYLAYER
100
AcDbCircle
 10
-14.09538
 20
17.867249999999999
 30
0.0
 40
17.126519999999999
100
AcDbArc
 50
288.43495000000001
 51
308.40375999999998
  0
ARC
  5
1CB
100
AcDbEntity
  8
_____1
 62
0
370
-1
 48
1.0
  6
BYLAYER
100
AcDbCircle
 10
-11.04508
 20
3.4496000000000002
 30
0.0
 40
2.9908000000000001
100
AcDbArc
 50
291.16898999999995
 51
322.27472
  0
ARC
  5
1CC
100
AcDbEntity
  8
_____1
 62
0
370
-1
 48
1.0
  6
BYLAYER
100
AcDbCircle
 10
-10.671860000000001
 20
1.69861
 30
0.0
 40
1.25579
100
AcDbArc
 50
228.38859999999997
 51
304.25268999999997
  0
ARC
  5
1CD
100
AcDbEntity
  8
_____1
 62
0
370
-1
 48
1.0
  6
BYLAYER
100
AcDbCircle
 10
-15.460380000000001
 20
2.0563199999999999
 30
0.0
 40
4.1617199999999999
100
AcDbArc
 50
306.77099000000004
 51
341.84687000000002
  0
ARC
  5
1CE
100
AcDbEntity
  8
_____1
 62
0
370
-1
 48
1.0
  6
BYLAYER
100
AcDbCircle
 10
-17.150739999999999
 20
4.8340399999999999
 30
0.0
 40
7.4050900000000004
100
AcDbArc
 50
284.61628000000002
 51
304.38130999999998
  0
ARC
  5
1CF
100
AcDbEntity
  8
_____1
 62
0
370
-1
 48
1.0
  6
BYLAYER
100
AcDbCircle
 10
-18.06579
 20
9.63598
 30
0.0
 40
12.28687
100
AcDbArc
 50
259.26844999999997
 51
283.09449999999998
  0
ARC
  5
1D0
100
AcDbEntity
  8
_____1
 62
0
370
-1
 48
1.0
  6
BYLAYER
100
AcDbCircle
 10
-24.748480000000001
 20
-36.468150000000001
 30
0.0
 40
34.31474
100
AcDbArc
 50
82.641769999999994
 51
94.295680000000004
  0
ARC
  5
1D1
100
AcDbEntity
  8
_____1
 62
0
370
-1
 48
1.0
  6
BYLAYER
100
AcDbCircle
 10
-30.324179999999998
 20
22.63194
 30
0.0
 40
25.0626
100
AcDbArc
 50
268.89648
 51
276.88724999999999
  0
ARC
  5
1D2
100
AcDbEntity
  8
_____1
 62
0
370
-1
 48
1.0
  6
BYLAYER
100
AcDbCircle
 10
-31.34686
 20
2.0783499999999999
 30
0.0
 40
4.5366099999999996
100
AcDbArc
 50
232.35941
 51
276.83623
  0
ARC
  5
1D3
100
AcDbEntity
  8
_____1
 62
0
370
-1
 48
1.0
  6
BYLAYER
100
AcDbCircle
 10
4.5243599999999997
 20
19.44942
 30
0.0
 40
4.2285500000000003
100
AcDbArc
 50
349.22805
 51
394.65805999999998
  0
ARC
  5
1D4
100
AcDbEntity
  8
_____1
 62
0
370
-1
 48
1.0
  6
BYLAYER
100
AcDbCircle
 10
0.88823
 20
25.2258
 30
0.0
 40
7.8728999999999996
100
AcDbArc
 50
334.64244000000002
 51
362.14805999999999
  0
ARC
  5
1D5
100
AcDbEntity
  8
_____1
 62
0
370
-1
 48
1.0
  6
BYLAYER
100
AcDbCircle
 10
-2.57301
 20
25.50207
 30
0.0
 40
11.32863
100
AcDbArc
 50
0.09515
 51
19.201170000000001
  0
ARC
  5
1D6
100
AcDbEntity
  8
_____1
 62
0
370
-1
 48
1.0
  6
BYLAYER
100
AcDbCircle
 10
21.393000000000001
 20
33.521850000000001
 30
0.0
 40
13.94515
100
AcDbArc
 50
180.98221000000004
 51
197.93373
  0
ARC
  5
1D7
100
AcDbEntity
  8
_____1
 62
0
370
-1
 48
1.0
  6
BYLAYER
100
AcDbCircle
 10
8.2849500000000003
 20
34.837420000000002
 30
0.0
 40
1.7646999999999999
100
AcDbArc
 50
241.75801000000007
 51
314.99193000000002
  0
ARC
  5
1D8
100
AcDbEntity
  8
_____1
 62
0
370
-1
 48
1.0
  6
BYLAYER
100
AcDbCircle
 10
5.5600100000000001
 20
39.339869999999998
 30
0.0
 40
6.9892300000000001
100
AcDbArc
 50
304.63792000000001
 51
322.92448000000002
  0
ARC
  5
1D9
100
AcDbEntity
  8
_____1
 62
0
370
-1
 48
1.0
  6
BYLAYER
100
AcDbCircle
 10
12.15976
 20
35.626820000000002
 30
0.0
 40
1.1393
100
AcDbArc
 50
206.06079999999997
 51
247.24248000000003
  0
ARC
  5
1DA
100
AcDbEntity
  8
_____1
 62
0
370
-1
 48
1.0
  6
BYLAYER
100
AcDbCircle
 10
13.20734
 20
37.24588
 30
0.0
 40
3.0564900000000002
100
AcDbArc
 50
240.86093
 51
256.11174
  0
ARC
  5
1DB
100
AcDbEntity
  8
_____1
 62
0
370
-1
 48
1.0
  6
BYLAYER
100
AcDbCircle
 10
13.641629999999999
 20
38.509219999999999
 30
0.0
 40
4.3887299999999998
100
AcDbArc
 50
254.56643000000003
 51
275.80603000000002
  0
ARC
  5
1DC
100
AcDbEntity
  8
_____1
 62
0
370
-1
 48
1.0
  6
BYLAYER
100
AcDbCircle
 10
19.353010000000001
 20
31.449580000000001
 30
0.0
 40
5.9160899999999996
100
AcDbArc
 50
152.91771
 51
186.17176000000001
  0
ARC
  5
1DD
100
AcDbEntity
  8
_____1
 62
0
370
-1
 48
1.0
  6
BYLAYER
100
AcDbCircle
 10
15.554270000000001
 20
31.231339999999999
 30
0.0
 40
2.1245400000000001
100
AcDbArc
 50
191.34104999999997
 51
283.54629
  0
ARC
  5
1DE
100
AcDbEntity
  8
_____1
 62
0
370
-1
 48
1.0
  6
BYLAYER
100
AcDbCircle
 10
18.228200000000001
 20
30.592510000000001
 30
0.0
 40
2.6022099999999999
100
AcDbArc
 50
213.24565999999999
 51
267.55121000000003
  0
ARC
  5
1DF
100
AcDbEntity
  8
_____1
 62
0
370
-1
 48
1.0
  6
BYLAYER
100
AcDbCircle
 10
19.3124
 20
33.84299
 30
0.0
 40
5.97119
100
AcDbArc
 50
258.45179000000002
 51
281.83345999999995
  0
ARC
  5
1E0
100
AcDbEntity
  8
_____1
 62
0
370
-1
 48
1.0
  6
BYLAYER
100
AcDbCircle
 10
24.68449
 20
21.67454
 30
0.0
 40
7.5629
100
AcDbArc
 50
123.25812000000001
 51
150.93091000000001
  0
ARC
  5
1E1
100
AcDbEntity
  8
_____1
 62
0
370
-1
 48
1.0
  6
BYLAYER
100
AcDbCircle
 10
27.75412
 20
19.52901
 30
0.0
 40
11.294829999999999
100
AcDbArc
 50
148.98342
 51
167.48419999999999
  0
ARC
  5
1E2
100
AcDbEntity
  8
_____1
 62
0
370
-1
 48
1.0
  6
BYLAYER
100
AcDbCircle
 10
17.093640000000001
 20
13.43318
 30
0.0
 40
8.5513499999999993
100
AcDbArc
 50
92.452589999999987
 51
121.96798
  0
ARC
  5
1E3
100
AcDbEntity
  8
_____1
 62
0
370
-1
 48
1.0
  6
BYLAYER
100
AcDbCircle
 10
32.311720000000001
 20
-15.33394
 30
0.0
 40
41.078499999999998
100
AcDbArc
 50
118.72973000000003
 51
121.79635000000002
  0
ARC
  5
1E4
100
AcDbEntity
  8
_____1
 62
0
370
-1
 48
1.0
  6
BYLAYER
100
AcDbCircle
 10
4.9650600000000003
 20
29.290220000000001
 30
0.0
 40
11.26098
100
AcDbArc
 50
289.25376999999997
 51
300.42297000000002
  0
ENDSEC
  0
SECTION
  2
OBJECTS
  0
DICTIONARY
  5
C
100
AcDbDictionary
280
0
281
1
  3
ACAD_GROUP
350
D
  3
ACAD_LAYOUT
350
1A
  3
ACAD_MLINESTYLE
350
17
  3
ACAD_PLOTSETTINGS
350
19
  3
ACAD_PLOTSTYLENAME
350
E
  3
AcDbVariableDictionary
350
1E5
  3
QCAD_OBJECTS
350
1E6
  0
DICTIONARY
  5
D
100
AcDbDictionary
280
0
281
1
  0
ACDBDICTIONARYWDFLT
  5
E
100
AcDbDictionary
281
1
  3
Normal
350
F
100
AcDbDictionaryWithDefault
340
F
  0
ACDBPLACEHOLDER
  5
F
  0
DICTIONARY
  5
17
100
AcDbDictionary
280
0
281
1
  3
Standard
350
18
  0
MLINESTYLE
  5
18
100
AcDbMlineStyle
  2
STANDARD
 70
0
  3

 62
256
 51
90.0
 52
90.0
 71
2
 49
0.5
 62
256
  6
BYLAYER
 49
-0.5
 62
256
  6
BYLAYER
  0
DICTIONARY
  5
19
100
AcDbDictionary
280
0
281
1
  0
DICTIONARY
  5
1A
100
AcDbDictionary
281
1
  3
Layout1
350
1E
  3
Layout2
350
26
  3
Model
350
22
  0
LAYOUT
  5
1E
100
AcDbPlotSettings
  1

  2
none_device
  4

  6

 40
0.0
 41
0.0
 42
0.0
 43
0.0
 44
0.0
 45
0.0
 46
0.0
 47
0.0
 48
0.0
 49
0.0
140
0.0
141
0.0
142
1.0
143
1.0
 70
688
 72
0
 73
0
 74
5
  7

 75
16
147
1.0
148
0.0
149
0.0
100
AcDbLayout
  1
Layout1
 70
1
 71
1
 10
0.0
 20
0.0
 11
420.0
 21
297.0
 12
0.0
 22
0.0
 32
0.0
 14
100000000000000000000.0
 24
100000000000000000000.0
 34
100000000000000000000.0
 15
-100000000000000000000.0
 25
-100000000000000000000.0
 35
-100000000000000000000.0
146
0.0
 13
0.0
 23
0.0
 33
0.0
 16
1.0
 26
0.0
 36
0.0
 17
0.0
 27
1.0
 37
0.0
 76
0
330
1B
  0
LAYOUT
  5
22
100
AcDbPlotSettings
  1

  2
none_device
  4

  6

 40
0.0
 41
0.0
 42
0.0
 43
0.0
 44
0.0
 45
0.0
 46
0.0
 47
0.0
 48
0.0
 49
0.0
140
0.0
141
0.0
142
1.0
143
1.0
 70
1712
 72
0
 73
0
 74
0
  7

 75
0
147
1.0
148
0.0
149
0.0
100
AcDbLayout
  1
Model
 70
1
 71
0
 10
0.0
 20
0.0
 11
12.0
 21
9.0
 12
0.0
 22
0.0
 32
0.0
 14
0.0
 24
0.0
 34
0.0
 15
0.0
 25
0.0
 35
0.0
146
0.0
 13
0.0
 23
0.0
 33
0.0
 16
1.0
 26
0.0
 36
0.0
 17
0.0
 27
1.0
 37
0.0
 76
0
330
1F
  0
LAYOUT
  5
26
100
AcDbPlotSettings
  1

  2
none_device
  4

  6

 40
0.0
 41
0.0
 42
0.0
 43
0.0
 44
0.0
 45
0.0
 46
0.0
 47
0.0
 48
0.0
 49
0.0
140
0.0
141
0.0
142
1.0
143
1.0
 70
688
 72
0
 73
0
 74
5
  7

 75
16
147
1.0
148
0.0
149
0.0
100
AcDbLayout
  1
Layout2
 70
1
 71
2
 10
0.0
 20
0.0
 11
12.0
 21
9.0
 12
0.0
 22
0.0
 32
0.0
 14
0.0
 24
0.0
 34
0.0
 15
0.0
 25
0.0
 35
0.0
146
0.0
 13
0.0
 23
0.0
 33
0.0
 16
1.0
 26
0.0
 36
0.0
 17
0.0
 27
1.0
 37
0.0
 76
0
330
23
  0
DICTIONARY
  5
1E5
100
AcDbDictionary
281
1
  3
DIMASSOC
350
1E8
  3
HIDETEXT
350
1E7
  0
DICTIONARYVAR
  5
1E7
100
DictionaryVariables
280
0
  1
2
  0
DICTIONARYVAR
  5
1E8
100
DictionaryVariables
280
0
  1
1
  0
DICTIONARY
  5
1E6
100
AcDbDictionary
281
1
  3
ColorSettings/BackgroundColor
350
1E9
  3
ColorSettings/ColorMode
350
1EA
  3
Grid/DisplayGrid00
350
1EB
  3
Grid/DisplayGrid01
350
1EC
  3
Grid/DisplayGrid02
350
1ED
  3
Grid/DisplayGrid03
350
1EE
  3
Grid/GridSpacingX00
350
1EF
  3
Grid/GridSpacingX01
350
1F0
  3
Grid/GridSpacingX02
350
1F1
  3
Grid/GridSpacingX03
350
1F2
  3
Grid/GridSpacingY00
350
1F3
  3
Grid/GridSpacingY01
350
1F4
  3
Grid/GridSpacingY02
350
1F5
  3
Grid/GridSpacingY03
350
1F6
  3
Grid/IsometricGrid00
350
1F7
  3
Grid/IsometricGrid01
350
1F8
  3
Grid/IsometricGrid02
350
1F9
  3
Grid/IsometricGrid03
350
1FA
  3
Grid/IsometricProjection00
350
1FB
  3
Grid/IsometricProjection01
350
1FC
  3
Grid/IsometricProjection02
350
1FD
  3
Grid/IsometricProjection03
350
1FE
  3
Grid/MetaGridSpacingX00
350
1FF
  3
Grid/MetaGridSpacingX01
350
200
  3
Grid/MetaGridSpacingX02
350
201
  3
Grid/MetaGridSpacingX03
350
202
  3
Grid/MetaGridSpacingY00
350
203
  3
Grid/MetaGridSpacingY01
350
204
  3
Grid/MetaGridSpacingY02
350
205
  3
Grid/MetaGridSpacingY03
350
206
  3
MultiPageSettings/Columns
350
207
  3
MultiPageSettings/GlueMarginsBottom
350
208
  3
MultiPageSettings/GlueMarginsLeft
350
209
  3
MultiPageSettings/GlueMarginsRight
350
20A
  3
MultiPageSettings/GlueMarginsTop
350
20B
  3
MultiPageSettings/PrintCropMarks
350
20C
  3
MultiPageSettings/Rows
350
20D
  3
PageSettings/OffsetX
350
20E
  3
PageSettings/OffsetY
350
20F
  3
PageSettings/PageOrientation
350
210
  3
PageSettings/PaperHeight
350
211
  3
PageSettings/PaperWidth
350
212
  3
PageSettings/Scale
350
213
  3
PageSettings/ShowPaperBorders
350
214
  3
UnitSettings/PaperUnit
350
215
  3
ViewportCenter
350
216
  3
ViewportHeight
350
217
  3
ViewportWidth
350
218
  0
XRECORD
  5
1E9
330
1E6
100
AcDbXrecord
280
1
1000
Blanc
  0
XRECORD
  5
1EA
330
1E6
100
AcDbXrecord
280
1
1000
FullColor
  0
XRECORD
  5
1EB
330
1E6
100
AcDbXrecord
280
1
290
1
  0
XRECORD
  5
1EC
330
1E6
100
AcDbXrecord
280
1
290
1
  0
XRECORD
  5
1ED
330
1E6
100
AcDbXrecord
280
1
290
1
  0
XRECORD
  5
1EE
330
1E6
100
AcDbXrecord
280
1
290
1
  0
XRECORD
  5
1EF
330
1E6
100
AcDbXrecord
280
1
1000
auto
  0
XRECORD
  5
1F0
330
1E6
100
AcDbXrecord
280
1
1000
auto
  0
XRECORD
  5
1F1
330
1E6
100
AcDbXrecord
280
1
1000
auto
  0
XRECORD
  5
1F2
330
1E6
100
AcDbXrecord
280
1
1000
auto
  0
XRECORD
  5
1F3
330
1E6
100
AcDbXrecord
280
1
1000
auto
  0
XRECORD
  5
1F4
330
1E6
100
AcDbXrecord
280
1
1000
auto
  0
XRECORD
  5
1F5
330
1E6
100
AcDbXrecord
280
1
1000
auto
  0
XRECORD
  5
1F6
330
1E6
100
AcDbXrecord
280
1
1000
auto
  0
XRECORD
  5
1F7
330
1E6
100
AcDbXrecord
280
1
290
0
  0
XRECORD
  5
1F8
330
1E6
100
AcDbXrecord
280
1
290
0
  0
XRECORD
  5
1F9
330
1E6
100
AcDbXrecord
280
1
290
0
  0
XRECORD
  5
1FA
330
1E6
100
AcDbXrecord
280
1
290
0
  0
XRECORD
  5
1FB
330
1E6
100
AcDbXrecord
280
1
 90
0
  0
XRECORD
  5
1FC
330
1E6
100
AcDbXrecord
280
1
 90
0
  0
XRECORD
  5
1FD
330
1E6
100
AcDbXrecord
280
1
 90
0
  0
XRECORD
  5
1FE
330
1E6
100
AcDbXrecord
280
1
 90
0
  0
XRECORD
  5
1FF
330
1E6
100
AcDbXrecord
280
1
1000
auto
  0
XRECORD
  5
200
330
1E6
100
AcDbXrecord
280
1
1000
auto
  0
XRECORD
  5
201
330
1E6
100
AcDbXrecord
280
1
1000
auto
  0
XRECORD
  5
202
330
1E6
100
AcDbXrecord
280
1
1000
auto
  0
XRECORD
  5
203
330
1E6
100
AcDbXrecord
280
1
1000
auto
  0
XRECORD
  5
204
330
1E6
100
AcDbXrecord
280
1
1000
auto
  0
XRECORD
  5
205
330
1E6
100
AcDbXrecord
280
1
1000
auto
  0
XRECORD
  5
206
330
1E6
100
AcDbXrecord
280
1
1000
auto
  0
XRECORD
  5
207
330
1E6
100
AcDbXrecord
280
1
 90
1
  0
XRECORD
  5
208
330
1E6
100
AcDbXrecord
280
1
 40
10.0
  0
XRECORD
  5
209
330
1E6
100
AcDbXrecord
280
1
 40
10.0
  0
XRECORD
  5
20A
330
1E6
100
AcDbXrecord
280
1
 40
10.0
  0
XRECORD
  5
20B
330
1E6
100
AcDbXrecord
280
1
 40
10.0
  0
XRECORD
  5
20C
330
1E6
100
AcDbXrecord
280
1
290
0
  0
XRECORD
  5
20D
330
1E6
100
AcDbXrecord
280
1
 90
1
  0
XRECORD
  5
20E
330
1E6
100
AcDbXrecord
280
1
 40
0.0
  0
XRECORD
  5
20F
330
1E6
100
AcDbXrecord
280
1
 40
0.0
  0
XRECORD
  5
210
330
1E6
100
AcDbXrecord
280
1
1000
Portrait
  0
XRECORD
  5
211
330
1E6
100
AcDbXrecord
280
1
 40
297.0
  0
XRECORD
  5
212
330
1E6
100
AcDbXrecord
280
1
 40
210.0
  0
XRECORD
  5
213
330
1E6
100
AcDbXrecord
280
1
1000
1:1
  0
XRECORD
  5
214
330
1E6
100
AcDbXrecord
280
1
290
1
  0
XRECORD
  5
215
330
1E6
100
AcDbXrecord
280
1
 90
4
  0
XRECORD
  5
217
330
1E6
100
AcDbXrecord
280
1
 40
138.854540541272
  0
XRECORD
  5
218
330
1E6
100
AcDbXrecord
280
1
 40
235.99992251691475
  0
ENDSEC
  0
EOF
