0
SECTION
2
HEADER
9
$ACADVER
1
AC1009
9
$ANGDIR
70
0
9
$EXTMIN
10
0
20
0
9
$EXTMAX
10
24.00000
20
18.00000
9
$CECOLOR
62
256
0
ENDSEC
0
SECTION
2
ENTITIES
0
ARC
62
0
8
_____1
10
-3.60473
20
-21.55556
40
7.58702
50
37.45596
51
72.56513
0
ARC
62
0
8
_____1
10
2.22772
20
-19.15562
40
2.22228
50
40.32471
51
85.08821
0
ARC
62
0
8
_____1
10
2.94759
20
-18.15255
40
1.06707
50
-23.79906
51
24.05850
0
ARC
62
0
8
_____1
10
1.86476
20
-17.86163
40
2.18191
50
317.29691
51
340.68992
0
ARC
62
0
8
_____1
10
-3.12798
20
-21.38750
40
6.90624
50
-12.37101
51
17.23360
0
ARC
62
0
8
_____1
10
0.56747
20
-25.58894
40
4.08822
50
29.71505
51
41.74194
0
ARC
62
0
8
_____1
10
3.05353
20
-24.10508
40
1.19487
50
-13.73896
51
27.00851
0
ARC
62
0
8
_____1
10
3.40367
20
-24.04751
40
0.87949
50
280.59544
51
337.16193
0
ARC
62
0
8
_____1
10
2.79361
20
-22.68790
40
2.35421
50
268.16436
51
289.13703
0
ARC
62
0
8
_____1
10
-6.12522
20
-20.86602
40
9.77935
50
323.76738
51
334.72854
0
ARC
62
0
8
_____1
10
-1.69311
20
-23.85280
40
4.44391
50
296.90770
51
321.05293
0
ARC
62
0
8
_____1
10
-2.15764
20
-27.69955
40
2.47836
50
319.67177
51
357.31622
0
ARC
62
0
8
_____1
10
-0.67151
20
-28.60114
40
0.80985
50
240.47320
51
299.86271
0
ARC
62
0
8
_____1
10
-0.22015
20
-27.13521
40
2.33127
50
227.95286
51
248.60387
0
ARC
62
0
8
_____1
10
-3.95646
20
-18.91766
40
10.18371
50
270.29218
51
282.33180
0
ARC
62
0
8
_____1
10
-3.76834
20
-25.64302
40
3.46089
50
250.04964
51
267.74473
0
ARC
62
0
8
_____1
10
-4.47750
20
-27.83157
40
1.16447
50
194.13783
51
246.10316
0
ARC
62
0
8
_____1
10
-4.22421
20
-27.91461
40
1.39708
50
118.43734
51
188.28818
0
ARC
62
0
8
_____1
10
-1.40527
20
-31.90885
40
6.27830
50
108.10776
51
123.70817
0
ARC
62
0
8
_____1
10
-4.32525
20
-23.59887
40
2.53500
50
292.46458
51
354.76954
0
ARC
62
0
8
_____1
10
-4.18311
20
-23.76557
40
2.38317
50
358.45166
51
425.80807
0
ARC
62
0
8
_____1
10
-6.01055
20
-26.06982
40
5.28358
50
57.94651
51
106.16126
0
ARC
62
0
8
_____1
10
-6.19399
20
-26.58088
40
5.73224
50
102.97669
51
147.09081
0
ARC
62
0
8
_____1
10
-3.31167
20
-28.46463
40
9.17553
50
146.99416
51
183.13030
0
ARC
62
0
8
_____1
10
-0.69727
20
-28.79604
40
11.77745
50
180.82529
51
208.91624
0
ARC
62
0
8
_____1
10
0.36031
20
-28.06190
40
13.05883
50
209.49209
51
238.66095
0
ARC
62
0
8
_____1
10
-5.69005
20
-40.85954
40
1.80354
50
69.83125
51
114.27776
0
ARC
62
0
8
_____1
10
-5.63320
20
-40.25821
40
1.22917
50
-3.84314
51
62.63553
0
ARC
62
0
8
_____1
10
4.79815
20
-23.01417
40
19.61980
50
242.01979
51
259.26341
0
ARC
62
0
8
_____1
10
3.46111
20
-45.45688
40
3.92417
50
103.62997
51
126.20679
0
ARC
62
0
8
_____1
10
2.48599
20
-42.43369
40
0.79207
50
29.30390
51
86.35245
0
ARC
62
0
8
_____1
10
1.09511
20
-43.58810
40
2.59058
50
19.09807
51
36.53173
0
ARC
62
0
8
_____1
10
7.22555
20
-19.81656
40
23.21783
50
260.87411
51
274.42748
0
ARC
62
0
8
_____1
10
12.22414
20
-45.69443
40
4.21061
50
117.04496
51
139.59371
0
ARC
62
0
8
_____1
10
10.53825
20
-42.90106
40
0.98375
50
54.67548
51
103.43861
0
ARC
62
0
8
_____1
10
9.95619
20
-43.94861
40
2.17891
50
36.06107
51
58.11713
0
ARC
62
0
8
_____1
10
10.07259
20
-21.93890
40
20.79228
50
274.53777
51
290.68604
0
ARC
62
0
8
_____1
10
24.58760
20
-43.32023
40
7.42529
50
158.41334
51
164.93826
0
ARC
62
0
8
_____1
10
18.53847
20
-40.99078
40
0.94527
50
104.57309
51
154.80733
0
ARC
62
0
8
_____1
10
18.41236
20
-41.47180
40
1.40034
50
59.73374
51
94.57651
0
ARC
62
0
8
_____1
10
16.34806
20
-46.90519
40
7.19729
50
60.49981
51
67.36372
0
ARC
62
0
8
_____1
10
16.24906
20
-29.03257
40
12.16668
50
287.42373
51
300.00873
0
ARC
62
0
8
_____1
10
-29.47308
20
60.79124
40
112.94251
50
297.30346
51
298.65798
0
ARC
62
0
8
_____1
10
-30.22159
20
-31.03962
40
55.39343
50
352.45233
51
353.51622
0
ARC
62
0
8
_____1
10
26.37523
20
-37.60426
40
1.58815
50
132.03702
51
168.76191
0
ARC
62
0
8
_____1
10
26.02666
20
-37.51467
40
1.30347
50
77.66522
51
123.26001
0
ARC
62
0
8
_____1
10
25.95984
20
-40.65622
40
4.42841
50
72.15773
51
85.52830
0
ARC
62
0
8
_____1
10
-4.38997
20
3.29287
40
50.83382
50
308.58916
51
314.93887
0
ARC
62
0
8
_____1
10
43.24696
20
-32.08802
40
11.74582
50
177.21906
51
182.93969
0
ARC
62
0
8
_____1
10
33.09186
20
-31.69466
40
1.58673
50
131.57988
51
173.61260
0
ARC
62
0
8
_____1
10
33.37112
20
-32.25980
40
2.20108
50
96.57990
51
127.25040
0
ARC
62
0
8
_____1
10
34.72739
20
-37.61009
40
7.70661
50
93.23943
51
102.04712
0
ARC
62
0
8
_____1
10
-20.98511
20
15.05107
40
71.25705
50
320.87226
51
325.39610
0
ARC
62
0
8
_____1
10
47.94258
20
-22.97884
40
10.56118
50
188.02534
51
193.34107
0
ARC
62
0
8
_____1
10
39.19676
20
-24.27712
40
1.72097
50
153.54901
51
185.87571
0
ARC
62
0
8
_____1
10
38.80316
20
-24.33312
40
1.41165
50
104.28151
51
144.35877
0
ARC
62
0
8
_____1
10
41.50104
20
-30.23770
40
7.88477
50
105.51903
51
112.72623
0
ARC
62
0
8
_____1
10
111.81429
20
-61.13545
40
82.01795
50
150.15524
51
152.00795
0
ARC
62
0
8
_____1
10
19.94269
20
-9.21271
40
23.51874
50
331.82053
51
338.27950
0
ARC
62
0
8
_____1
10
45.79652
20
-16.21474
40
4.35148
50
171.11756
51
203.02151
0
ARC
62
0
8
_____1
10
43.23265
20
-16.17835
40
1.84812
50
121.85930
51
159.88732
0
ARC
62
0
8
_____1
10
44.32465
20
-17.60115
40
3.63726
50
105.28164
51
124.64047
0
ARC
62
0
8
_____1
10
20.40996
20
-4.63451
40
24.82808
50
337.60813
51
350.06879
0
ARC
62
0
8
_____1
10
48.00783
20
-6.10194
40
4.21816
50
209.51072
51
221.85504
0
ARC
62
0
8
_____1
10
45.52209
20
-7.57051
40
1.33259
50
168.39302
51
207.20564
0
ARC
62
0
8
_____1
10
45.29854
20
-7.65096
40
1.13656
50
115.90412
51
162.14015
0
ARC
62
0
8
_____1
10
46.97060
20
-9.90434
40
3.92852
50
110.17648
51
123.50502
0
ARC
62
0
8
_____1
10
12.88795
20
1.14331
40
33.54507
50
347.32547
51
356.39385
0
ARC
62
0
8
_____1
10
49.79008
20
3.68740
40
5.77754
50
222.82620
51
233.66184
0
ARC
62
0
8
_____1
10
46.70845
20
0.70916
40
1.49555
50
177.92655
51
219.39610
0
ARC
62
0
8
_____1
10
46.82427
20
0.50747
40
1.63058
50
132.30426
51
170.97454
0
ARC
62
0
8
_____1
10
50.23827
20
-2.12708
40
5.92478
50
128.91899
51
139.59322
0
ARC
62
0
8
_____1
10
26.77132
20
4.36306
40
19.83422
50
354.55967
51
368.90256
0
ARC
62
0
8
_____1
10
49.27492
20
12.25077
40
5.62797
50
227.57601
51
238.88467
0
ARC
62
0
8
_____1
10
46.52628
20
9.11896
40
1.46428
50
181.36502
51
224.29609
0
ARC
62
0
8
_____1
10
46.71314
20
8.89042
40
1.66205
50
134.67043
51
173.30891
0
ARC
62
0
8
_____1
10
65.96392
20
-4.71866
40
25.21352
50
141.55521
51
144.08160
0
ARC
62
0
8
_____1
10
25.40038
20
10.95810
40
20.81612
50
0.00000
51
17.61193
0
ARC
62
0
8
_____1
10
46.71083
20
19.64794
40
2.80721
50
201.02154
51
238.42184
0
ARC
62
0
8
_____1
10
47.40682
20
19.12656
40
3.35174
50
156.13717
51
188.33068
0
ARC
62
0
8
_____1
10
-10.47957
20
4.30576
40
57.15809
50
16.44038
51
21.93379
0
ARC
62
0
8
_____1
10
47.91501
20
34.26243
40
10.14610
50
233.33624
51
238.01869
0
ARC
62
0
8
_____1
10
42.72073
20
27.20899
40
1.38729
50
197.59755
51
231.47189
0
ARC
62
0
8
_____1
10
43.11888
20
27.05719
40
1.74121
50
161.42994
51
188.84140
0
ARC
62
0
8
_____1
10
91.17007
20
17.54033
40
50.71189
50
167.59881
51
168.54491
0
ARC
62
0
8
_____1
10
0.38504
20
13.63556
40
43.82913
50
19.72895
51
27.76929
0
ARC
62
0
8
_____1
10
40.88473
20
38.84023
40
5.08336
50
240.06455
51
250.24308
0
ARC
62
0
8
_____1
10
38.99471
20
35.44304
40
1.19761
50
194.59346
51
237.31689
0
ARC
62
0
8
_____1
10
39.50246
20
35.36440
40
1.68159
50
156.65915
51
187.62447
0
ARC
62
0
8
_____1
10
254.97101
20
-21.30240
40
224.45826
50
164.96963
51
165.20102
0
ARC
62
0
8
_____1
10
32.67732
20
34.23157
40
6.12905
50
25.87765
51
37.66236
0
ARC
62
0
8
_____1
10
35.81944
20
36.52428
40
2.24327
50
40.34231
51
72.37858
0
ARC
62
0
8
_____1
10
35.90827
20
36.11100
40
2.61868
50
76.97341
51
104.68474
0
ARC
62
0
8
_____1
10
34.55759
20
44.45483
40
5.85115
50
264.44118
51
276.74136
0
ARC
62
0
8
_____1
10
34.43293
20
41.37016
40
2.77441
50
210.29604
51
260.83028
0
ARC
62
0
8
_____1
10
30.14549
20
38.48237
40
2.40709
50
38.18856
51
94.86136
0
ARC
62
0
8
_____1
10
29.34807
20
49.84801
40
8.98683
50
255.43864
51
273.78620
0
ARC
62
0
8
_____1
10
28.16423
20
44.00885
40
3.05463
50
195.24580
51
249.38289
0
ARC
62
0
8
_____1
10
21.62469
20
41.99831
40
3.78985
50
18.57572
51
62.03163
0
ARC
62
0
8
_____1
10
17.57183
20
32.04427
40
14.52292
50
66.33110
51
72.06067
0
ARC
62
0
8
_____1
10
24.23666
20
51.12739
40
5.70409
50
232.85836
51
247.40464
0
ARC
62
0
8
_____1
10
33.90811
20
62.97531
40
20.99546
50
218.87884
51
231.34108
0
ARC
62
0
8
_____1
10
23.35166
20
53.84496
40
7.06309
50
178.08977
51
214.96807
0
ARC
62
0
8
_____1
10
-27.01232
20
59.40774
40
43.63127
50
352.98674
51
358.77006
0
ARC
62
0
8
_____1
10
6.50676
20
58.33745
40
10.10303
50
0.75851
51
25.61177
0
ARC
62
0
8
_____1
10
-8.63808
20
46.87098
40
28.96585
50
33.13640
51
36.78080
0
ARC
62
0
8
_____1
10
19.11415
20
67.38460
40
5.54758
50
195.87674
51
214.85133
0
ARC
62
0
8
_____1
10
17.13078
20
66.52153
40
3.41589
50
160.08282
51
191.04774
0
ARC
62
0
8
_____1
10
21.85172
20
65.29929
40
8.28355
50
150.49132
51
163.26002
0
ARC
62
0
8
_____1
10
5.88328
20
74.06932
40
9.93593
50
331.83476
51
365.83125
0
ARC
62
0
8
_____1
10
5.07824
20
73.78051
40
10.76812
50
6.92486
51
19.82940
0
ARC
62
0
8
_____1
10
60.25845
20
90.52025
40
46.91293
50
193.23953
51
196.19832
0
ARC
62
0
8
_____1
10
24.14041
20
81.74422
40
9.74872
50
177.41776
51
191.64703
0
ARC
62
0
8
_____1
10
19.36660
20
81.77388
40
4.98188
50
147.45139
51
175.28444
0
ARC
62
0
8
_____1
10
5.89257
20
90.71039
40
11.18744
50
325.99841
51
352.00595
0
ARC
62
0
8
_____1
10
0.73091
20
92.15067
40
16.51444
50
349.54730
51
367.13960
0
ARC
62
0
8
_____1
10
21.53364
20
94.77486
40
4.45318
50
153.68864
51
187.37546
0
ARC
62
0
8
_____1
10
25.21044
20
93.34795
40
8.38887
50
138.21511
51
156.08437
0
ARC
62
0
8
_____1
10
37.43707
20
83.80953
40
23.88389
50
134.42680
51
140.69806
0
ARC
62
0
8
_____1
10
-0.07385
20
120.86858
40
28.85164
50
316.10909
51
321.29540
0
ARC
62
0
8
_____1
10
32.71805
20
102.82682
40
10.27665
50
148.31040
51
179.99619
0
ARC
62
0
8
_____1
10
36.00615
20
100.24703
40
14.43731
50
135.14386
51
146.45332
0
ARC
62
0
8
_____1
10
8.62201
20
125.90175
40
23.09738
50
317.94489
51
324.99838
0
ARC
62
0
8
_____1
10
-1.33648
20
129.90120
40
33.63715
50
329.15153
51
335.04117
0
ARC
62
0
8
_____1
10
22.62930
20
118.21415
40
6.99464
50
338.99948
51
367.29651
0
ARC
62
0
8
_____1
10
33.09893
20
119.63853
40
3.57208
50
148.52971
51
188.63049
0
ARC
62
0
8
_____1
10
35.73213
20
116.80450
40
7.37158
50
130.55494
51
140.39962
0
ARC
62
0
8
_____1
10
26.28933
20
127.06108
40
6.58016
50
314.96426
51
325.95904
0
ARC
62
0
8
_____1
10
28.35185
20
125.61165
40
4.05998
50
326.61499
51
367.95712
0
ARC
62
0
8
_____1
10
30.29625
20
125.48138
40
2.18886
50
18.43839
51
97.34014
0
ARC
62
0
8
_____1
10
29.83369
20
123.82160
40
3.83507
50
87.26628
51
135.55548
0
ARC
62
0
8
_____1
10
30.86072
20
121.74865
40
6.06769
50
128.35261
51
158.45199
0
ARC
62
0
8
_____1
10
20.54844
20
125.21083
40
4.82889
50
332.42306
51
345.19868
0
ARC
62
0
8
_____1
10
23.28481
20
123.85978
40
1.77930
50
295.66755
51
330.19372
0
ARC
62
0
8
_____1
10
23.49151
20
123.69985
40
1.55004
50
251.32197
51
291.33748
0
ARC
62
0
8
_____1
10
23.96372
20
126.15310
40
4.03951
50
240.78031
51
256.12607
0
ARC
62
0
8
_____1
10
11.95463
20
103.32551
40
21.75581
50
62.52538
51
74.69927
0
ARC
62
0
8
_____1
10
6.99665
20
88.34917
40
37.51883
50
73.43134
51
80.48865
0
ARC
62
0
8
_____1
10
5.97113
20
83.66790
40
42.30587
50
80.16649
51
92.68001
0
ARC
62
0
8
_____1
10
5.35529
20
105.45696
40
20.51582
50
93.80736
51
129.54464
0
ARC
62
0
8
_____1
10
-12.43490
20
126.39035
40
6.96414
50
289.97118
51
312.76052
0
ARC
62
0
8
_____1
10
-19.80712
20
142.49147
40
24.65645
50
286.86936
51
293.29507
0
ARC
62
0
8
_____1
10
35.88115
20
-31.12550
40
157.67666
50
107.92682
51
109.93561
0
ARC
62
0
8
_____1
10
-4.17111
20
84.60940
40
35.26707
50
112.87625
51
127.99322
0
ARC
62
0
8
_____1
10
1.49914
20
79.77723
40
42.59186
50
130.00354
51
131.78173
0
ARC
62
0
8
_____1
10
-29.02541
20
114.15753
40
3.38661
50
287.02934
51
309.31744
0
ARC
62
0
8
_____1
10
-28.56332
20
113.30424
40
2.44295
50
251.43327
51
282.52313
0
ARC
62
0
8
_____1
10
-27.74300
20
117.14034
40
6.35610
50
243.48469
51
255.43731
0
ARC
62
0
8
_____1
10
-18.88658
20
137.06746
40
28.15778
50
234.64381
51
245.46159
0
ARC
62
0
8
_____1
10
-32.36113
20
117.48935
40
4.40641
50
200.52041
51
230.22391
0
ARC
62
0
8
_____1
10
-28.60080
20
118.47766
40
8.28389
50
181.90628
51
197.80432
0
ARC
62
0
8
_____1
10
-47.00951
20
117.18477
40
10.18037
50
5.73515
51
18.77971
0
ARC
62
0
8
_____1
10
-32.84134
20
121.51836
40
4.65128
50
178.91949
51
193.12532
0
ARC
62
0
8
_____1
10
-36.88637
20
121.49219
40
0.61605
50
65.41847
51
169.34635
0
ARC
62
0
8
_____1
10
-36.04592
20
126.10789
40
4.09734
50
261.80304
51
282.10153
0
ARC
62
0
8
_____1
10
-37.62241
20
142.33172
40
20.37621
50
276.86474
51
280.93727
0
ARC
62
0
8
_____1
10
-43.90114
20
175.84490
40
54.47226
50
280.73330
51
283.77968
0
ARC
62
0
8
_____1
10
-44.71435
20
179.03254
40
57.76187
50
283.80998
51
289.55488
0
ARC
62
0
8
_____1
10
-27.96621
20
130.26071
40
6.22105
50
294.55550
51
310.78751
0
ARC
62
0
8
_____1
10
-113.80841
20
240.83477
40
146.19703
50
307.94942
51
308.63952
0
ARC
62
0
8
_____1
10
-13.74780
20
115.00373
40
14.57394
50
113.16756
51
127.00818
0
ARC
62
0
8
_____1
10
-24.25576
20
139.86977
40
12.42152
50
292.60365
51
311.44240
0
ARC
62
0
8
_____1
10
-20.37007
20
135.08180
40
6.26578
50
313.78582
51
351.00172
0
ARC
62
0
8
_____1
10
-201.99760
20
152.05976
40
188.67277
50
354.53829
51
355.57381
0
ARC
62
0
8
_____1
10
-7.14083
20
136.48532
40
6.82242
50
142.88901
51
171.45554
0
ARC
62
0
8
_____1
10
-23.14519
20
149.25898
40
13.65796
50
320.66429
51
331.61055
0
ARC
62
0
8
_____1
10
-14.84723
20
144.62320
40
4.15594
50
333.44299
51
369.03019
0
ARC
62
0
8
_____1
10
-10.13933
20
145.53598
40
0.65729
50
136.05756
51
203.34682
0
ARC
62
0
8
_____1
10
-17.44990
20
151.52556
40
8.79590
50
321.01660
51
338.87775
0
ARC
62
0
8
_____1
10
-22.75299
20
154.36230
40
14.78323
50
336.02738
51
346.64056
0
ARC
62
0
8
_____1
10
-7.34125
20
150.68214
40
1.06198
50
71.02266
51
165.58582
0
ARC
62
0
8
_____1
10
-5.77413
20
155.41326
40
3.92201
50
251.84940
51
291.49886
0
ARC
62
0
8
_____1
10
16.08624
20
94.78188
40
60.53161
50
107.15518
51
109.71820
0
ARC
62
0
8
_____1
10
-1.99108
20
154.01902
40
1.41627
50
279.05439
51
330.06137
0
ARC
62
0
8
_____1
10
4.69775
20
151.20991
40
5.85219
50
139.56186
51
158.94702
0
ARC
62
0
8
_____1
10
2.71430
20
152.75395
40
3.34293
50
103.77713
51
137.65327
0
ARC
62
0
8
_____1
10
1.71572
20
156.99809
40
1.01773
50
281.47586
51
357.66365
0
ARC
62
0
8
_____1
10
-5.80425
20
159.62339
40
8.94369
50
342.65197
51
351.14681
0
ARC
62
0
8
_____1
10
7.81697
20
157.13464
40
4.91168
50
151.47651
51
166.91146
0
ARC
62
0
8
_____1
10
5.22307
20
158.38708
40
2.03925
50
110.22448
51
147.59005
0
ARC
62
0
8
_____1
10
4.11718
20
161.44022
40
1.20809
50
289.38193
51
353.21769
0
ARC
62
0
8
_____1
10
-3.33483
20
164.99131
40
9.40716
50
336.88028
51
344.87408
0
ARC
62
0
8
_____1
10
138.37502
20
123.52766
40
138.24631
50
162.52276
51
163.61026
0
ARC
62
0
8
_____1
10
22.03230
20
159.58604
40
16.45420
50
151.48673
51
160.61748
0
ARC
62
0
8
_____1
10
13.45878
20
163.96062
40
6.83684
50
127.27712
51
149.40199
0
ARC
62
0
8
_____1
10
15.65203
20
160.27640
40
11.10747
50
111.02863
51
124.76826
0
ARC
62
0
8
_____1
10
-47.79326
20
303.40166
40
145.46477
50
294.12669
51
295.17488
0
ARC
62
0
8
_____1
10
7.53170
20
185.01379
40
14.79071
50
296.29947
51
306.60296
0
ARC
62
0
8
_____1
10
12.79491
20
177.59619
40
5.70112
50
308.58956
51
335.28029
0
ARC
62
0
8
_____1
10
19.82103
20
174.38394
40
2.02456
50
98.72088
51
155.85446
0
ARC
62
0
8
_____1
10
19.75100
20
174.23871
40
2.15943
50
42.10558
51
96.29919
0
ARC
62
0
8
_____1
10
24.85993
20
179.37287
40
5.08787
50
226.42901
51
263.02978
0
ARC
62
0
8
_____1
10
24.22206
20
173.79578
40
0.52721
50
23.07290
51
87.77826
0
ARC
62
0
8
_____1
10
26.41312
20
174.72723
40
1.85361
50
203.01907
51
272.43906
0
ARC
62
0
8
_____1
10
26.49200
20
156.10395
40
16.77135
50
84.34575
51
90.00000
0
ARC
62
0
8
_____1
10
27.94647
20
171.82000
40
0.99362
50
-11.45290
51
78.50950
0
ARC
62
0
8
_____1
10
31.70961
20
170.73159
40
2.92820
50
162.28269
51
236.79903
0
ARC
62
0
8
_____1
10
34.48213
20
173.39608
40
6.73118
50
229.45093
51
261.63597
0
ARC
62
0
8
_____1
10
33.38121
20
166.15787
40
0.59131
50
2.61023
51
78.11342
0
ARC
62
0
8
_____1
10
42.06458
20
167.37305
40
8.17945
50
188.35304
51
204.56006
0
ARC
62
0
8
_____1
10
38.77528
20
166.16576
40
4.69366
50
207.84713
51
236.12007
0
ARC
62
0
8
_____1
10
39.78378
20
167.69337
40
6.52410
50
236.24566
51
256.61378
0
ARC
62
0
8
_____1
10
41.47319
20
173.08003
40
12.16200
50
254.74587
51
265.67873
0
ARC
62
0
8
_____1
10
40.49269
20
160.13215
40
0.82295
50
6.94789
51
85.53220
0
ARC
62
0
8
_____1
10
48.29998
20
161.30061
40
7.07163
50
188.69386
51
225.96340
0
ARC
62
0
8
_____1
10
48.13519
20
161.58427
40
7.16795
50
228.48726
51
265.48080
0
ARC
62
0
8
_____1
10
47.44038
20
153.53570
40
0.91222
50
12.07987
51
81.80574
0
ARC
62
0
8
_____1
10
56.77378
20
154.16208
40
8.45261
50
182.95322
51
219.93797
0
ARC
62
0
8
_____1
10
56.26790
20
154.16411
40
8.07263
50
222.25460
51
261.19137
0
ARC
62
0
8
_____1
10
54.81249
20
145.28065
40
0.93219
50
6.86673
51
76.39946
0
ARC
62
0
8
_____1
10
66.46142
20
145.94153
40
10.73749
50
182.93308
51
214.24333
0
ARC
62
0
8
_____1
10
67.49281
20
147.54238
40
12.51298
50
217.64737
51
231.13514
0
ARC
62
0
8
_____1
10
55.98207
20
133.92022
40
5.33260
50
30.90593
51
46.67305
0
ARC
62
0
8
_____1
10
58.89235
20
135.87429
40
1.84088
50
-20.59320
51
25.23794
0
ARC
62
0
8
_____1
10
69.88946
20
131.82222
40
9.87905
50
159.84104
51
185.27744
0
ARC
62
0
8
_____1
10
65.20350
20
131.90822
40
5.24637
50
190.92888
51
239.17027
0
ARC
62
0
8
_____1
10
58.38686
20
121.33779
40
7.33683
50
42.52772
51
55.76192
0
ARC
62
0
8
_____1
10
61.15212
20
124.01416
40
3.49141
50
13.09928
51
40.83430
0
ARC
62
0
8
_____1
10
60.99992
20
124.11767
40
3.61872
50
-15.91641
51
10.95627
0
ARC
62
0
8
_____1
10
53.89078
20
125.43377
40
10.83784
50
338.73056
51
347.70168
0
ARC
62
0
8
_____1
10
108.99238
20
105.61925
40
47.72263
50
160.55997
51
165.73689
0
ARC
62
0
8
_____1
10
72.59080
20
115.69498
40
9.99255
50
170.30993
51
195.03453
0
ARC
62
0
8
_____1
10
58.01502
20
111.70140
40
5.12080
50
-25.74177
51
15.88385
0
ARC
62
0
8
_____1
10
-2.84248
20
134.47611
40
70.08048
50
336.07282
51
339.10141
0
ARC
62
0
8
_____1
10
68.83231
20
103.74016
40
7.96037
50
163.10797
51
203.20814
0
ARC
62
0
8
_____1
10
2066.26906
20
-892.90269
40
2237.42897
50
153.63812
51
153.76141
0
ARC
62
0
8
_____1
10
67.79170
20
93.05320
40
9.00917
50
158.96231
51
174.25477
0
ARC
62
0
8
_____1
10
62.15720
20
93.82297
40
3.33203
50
177.72782
51
218.93918
0
ARC
62
0
8
_____1
10
66.05493
20
86.06781
40
8.61160
50
138.90049
51
160.00721
0
ARC
62
0
8
_____1
10
74.68534
20
81.85834
40
18.18892
50
156.83970
51
166.81527
0
ARC
62
0
8
_____1
10
72.31282
20
82.41970
40
15.75090
50
166.83496
51
178.35079
0
ARC
62
0
8
_____1
10
63.89220
20
82.81302
40
7.32399
50
179.53070
51
204.21070
0
ARC
62
0
8
_____1
10
32.17980
20
-16.60699
40
24.75315
50
319.01784
51
331.90136
0
ARC
62
0
8
_____1
10
77.38182
20
-27.91566
40
26.96903
50
190.52230
51
193.44309
0
ARC
62
0
8
_____1
10
48.96027
20
-34.56820
40
2.22461
50
-24.79652
51
9.90823
0
ARC
62
0
8
_____1
10
49.98165
20
-34.60205
40
1.34340
50
258.15144
51
317.98676
0
ARC
62
0
8
_____1
10
49.42180
20
-28.38607
40
7.53612
50
261.56158
51
272.15984
0
ARC
62
0
8
_____1
10
6.34798
20
2.22742
40
56.66110
50
312.21036
51
317.78964
0
ARC
62
0
8
_____1
10
-53.42963
20
-39.74050
40
97.84563
50
-0.81332
51
0.00000
0
ARC
62
0
8
_____1
10
41.33139
20
-41.00459
40
3.07728
50
332.13479
51
357.67574
0
ARC
62
0
8
_____1
10
43.22740
20
-41.63145
40
1.15679
50
244.70720
51
315.45616
0
ARC
62
0
8
_____1
10
43.85061
20
-34.42837
40
8.32432
50
252.46072
51
262.28538
0
ARC
62
0
8
_____1
10
25.07705
20
-24.28234
40
24.32194
50
302.63021
51
311.96957
0
ARC
62
0
8
_____1
10
42.71431
20
-46.63212
40
4.89259
50
157.57211
51
177.89401
0
ARC
62
0
8
_____1
10
-23.88192
20
-40.01099
40
62.04223
50
353.24084
51
354.04071
0
ARC
62
0
8
_____1
10
35.98833
20
-47.01489
40
1.76613
50
322.42446
51
350.27811
0
ARC
62
0
8
_____1
10
36.73848
20
-47.37718
40
0.96581
50
260.38304
51
312.26779
0
ARC
62
0
8
_____1
10
36.65985
20
-44.68560
40
3.64475
50
255.07752
51
268.69946
0
ARC
62
0
8
_____1
10
38.33649
20
-36.95188
40
11.55537
50
248.31801
51
256.91955
0
ARC
62
0
8
_____1
10
55.68429
20
-85.04265
40
43.15711
50
120.05893
51
123.09564
0
ARC
62
0
8
_____1
10
22.22079
20
-32.31634
40
19.30206
50
294.06518
51
300.85040
0
ARC
62
0
8
_____1
10
-46.55791
20
-35.35790
40
78.02449
50
347.90874
51
349.22805
0
ARC
62
0
8
_____1
10
26.89637
20
-50.94533
40
2.93825
50
310.67105
51
345.08399
0
ARC
62
0
8
_____1
10
28.39305
20
-52.16659
40
1.09067
50
245.04929
51
292.54826
0
ARC
62
0
8
_____1
10
28.91490
20
-50.28050
40
3.03803
50
234.19206
51
251.14252
0
ARC
62
0
8
_____1
10
31.94251
20
-45.51901
40
8.67718
50
224.39521
51
236.37464
0
ARC
62
0
8
_____1
10
10.61402
20
-15.71934
40
38.92998
50
285.04154
51
292.86772
0
ARC
62
0
8
_____1
10
64.68707
20
-87.70785
40
55.82286
50
141.96826
51
143.39760
0
ARC
62
0
8
_____1
10
16.96382
20
-52.17703
40
3.67519
50
300.81026
51
322.32980
0
ARC
62
0
8
_____1
10
18.44594
20
-54.08696
40
1.30928
50
225.62428
51
287.80317
0
ARC
62
0
8
_____1
10
21.73894
20
-47.72356
40
8.42565
50
230.39007
51
240.03272
0
ARC
62
0
8
_____1
10
11.78388
20
-40.63648
40
14.33087
50
268.83656
51
288.65170
0
ARC
62
0
8
_____1
10
19.93297
20
-65.71575
40
13.66844
50
128.13277
51
133.78193
0
ARC
62
0
8
_____1
10
7.59885
20
-52.63639
40
4.31117
50
294.07088
51
311.85662
0
ARC
62
0
8
_____1
10
9.12553
20
-55.44493
40
1.15130
50
213.34385
51
281.61030
0
ARC
62
0
8
_____1
10
12.14588
20
-51.85242
40
5.80610
50
213.29997
51
226.69734
0
ARC
62
0
8
_____1
10
6.24773
20
-28.90576
40
26.15524
50
256.05192
51
272.29061
0
ARC
62
0
8
_____1
10
22.35308
20
-95.80318
40
47.17588
50
118.36119
51
119.76368
0
ARC
62
0
8
_____1
10
-2.20757
20
-52.68708
40
2.44627
50
271.10566
51
297.81352
0
ARC
62
0
8
_____1
10
-1.88896
20
-54.01337
40
1.15195
50
197.88765
51
256.37269
0
ARC
62
0
8
_____1
10
2.51269
20
-50.98653
40
6.45414
50
201.15232
51
211.58731
0
ARC
62
0
8
_____1
10
20.78655
20
-0.28935
40
58.32607
50
240.67308
51
245.38582
0
ARC
62
0
8
_____1
10
-9.15826
20
-41.57656
40
9.66239
50
265.54651
51
278.19416
0
ARC
62
0
8
_____1
10
-9.61443
20
-50.20420
40
1.04770
50
195.15633
51
253.69686
0
ARC
62
0
8
_____1
10
-7.69648
20
-49.50562
40
3.08643
50
178.33048
51
198.36617
0
ARC
62
0
8
_____1
10
-43.05393
20
-91.11957
40
52.73249
50
52.26568
51
54.55739
0
ARC
62
0
8
_____1
10
-6.06791
20
-39.82695
40
10.51034
50
220.94980
51
232.43926
0
ARC
62
0
8
_____1
10
-15.68409
20
-34.03218
40
12.79373
50
271.98953
51
277.53600
0
ARC
62
0
8
_____1
10
-15.24061
20
-44.46066
40
2.35753
50
240.26731
51
270.01658
0
ARC
62
0
8
_____1
10
-15.60980
20
-45.65396
40
1.17010
50
165.00801
51
226.86378
0
ARC
62
0
8
_____1
10
-8.91897
20
-45.39258
40
7.82121
50
170.41522
51
179.69736
0
ARC
62
0
8
_____1
10
-2.20928
20
-32.04742
40
18.78874
50
206.95882
51
219.86362
0
ARC
62
0
8
_____1
10
-36.44683
20
-101.65717
40
63.54632
50
74.02365
51
75.18352
0
ARC
62
0
8
_____1
10
-19.18938
20
-36.81732
40
3.55222
50
232.94867
51
253.52936
0
ARC
62
0
8
_____1
10
-20.49651
20
-38.96303
40
1.08136
50
149.85106
51
219.60142
0
ARC
62
0
8
_____1
10
-14.95689
20
-40.09442
40
6.68772
50
154.26358
51
165.49968
0
ARC
62
0
8
_____1
10
-12.63720
20
-31.94129
40
9.85776
50
183.05003
51
212.17352
0
ARC
62
0
8
_____1
10
-19.78448
20
-28.77582
40
4.57025
50
210.99024
51
233.84181
0
ARC
62
0
8
_____1
10
-22.87536
20
-31.00993
40
0.83552
50
123.60981
51
188.19368
0
ARC
62
0
8
_____1
10
-19.58249
20
-33.85989
40
5.16482
50
126.17021
51
136.64398
0
ARC
62
0
8
_____1
10
-5.03472
20
-29.69050
40
17.59598
50
162.38769
51
180.00000
0
ARC
62
0
8
_____1
10
-16.36437
20
-19.83165
40
7.08337
50
211.55127
51
219.80642
0
ARC
62
0
8
_____1
10
-21.51424
20
-23.06653
40
1.00402
50
151.13525
51
208.01440
0
ARC
62
0
8
_____1
10
-21.01811
20
-23.63390
40
1.73165
50
108.57675
51
142.58764
0
ARC
62
0
8
_____1
10
-18.19844
20
-28.74055
40
7.54337
50
108.61230
51
116.54664
0
ARC
62
0
8
_____1
10
-8.35002
20
-27.36905
40
13.54942
50
133.96158
51
154.76128
0
ARC
62
0
8
_____1
10
78.74659
20
-10.36593
40
96.77425
50
183.69347
51
184.29653
0
ARC
62
0
8
_____1
10
-15.64272
20
-16.54465
40
2.18465
50
155.05304
51
181.45180
0
ARC
62
0
8
_____1
10
-16.89147
20
-16.22614
40
0.94839
50
77.77818
51
140.52481
0
ARC
62
0
8
_____1
10
-16.51804
20
-20.69668
40
5.40019
50
80.81668
51
91.83222
0
ARC
62
0
8
_____1
10
-6.65305
20
-28.33486
40
15.78784
50
105.43988
51
124.76826
0
ARC
62
0
8
_____1
10
-5.76137
20
-14.78004
40
5.35944
50
152.62745
51
161.92039
0
ARC
62
0
8
_____1
10
-9.47068
20
-12.92079
40
1.21183
50
109.58213
51
150.05604
0
ARC
62
0
8
_____1
10
-9.74157
20
-12.76486
40
0.99504
50
47.15564
51
97.81310
0
ARC
62
0
8
_____1
10
-11.15951
20
-15.30495
40
3.88303
50
44.32640
51
57.35594
0
ARC
62
0
8
_____1
10
-8.38170
20
75.31161
40
87.90331
50
270.00000
51
271.45648
0
ARC
62
0
8
_____1
10
-6.52677
20
-20.77870
40
8.22415
50
71.78625
51
87.35610
0
ARC
62
0
8
_____1
10
16.66761
20
-49.79595
40
42.21070
50
117.86083
51
119.24809
0
ARC
62
0
8
_____1
10
-2.46269
20
-13.70847
40
1.36705
50
74.35170
51
115.83936
0
ARC
62
0
8
_____1
10
-2.82184
20
-13.36411
40
1.21435
50
4.13009
51
53.17275
0
ARC
62
0
8
_____1
10
-11.12795
20
-16.37595
40
10.00923
50
12.18740
51
18.03778
0
ARC
62
0
8
_____1
10
60.26567
20
86.93057
40
7.75192
50
246.83010
51
271.13964
0
ARC
62
0
8
_____1
10
58.07665
20
27.94051
40
51.29322
50
85.54874
51
87.38169
0
ARC
62
0
8
_____1
10
61.67844
20
76.10795
40
2.99515
50
51.57736
51
82.72784
0
ARC
62
0
8
_____1
10
48.52789
20
62.59197
40
21.83981
50
34.49814
51
46.57816
0
ARC
62
0
8
_____1
10
36.88547
20
53.74233
40
36.45381
50
28.35997
51
35.59740
0
ARC
62
0
8
_____1
10
25.03582
20
46.95621
40
50.10592
50
18.22220
51
28.75215
0
ARC
62
0
8
_____1
10
24.23978
20
46.39410
40
51.03861
50
8.20655
51
18.54213
0
ARC
62
0
8
_____1
10
41.91809
20
49.23876
40
33.13656
50
-8.21054
51
7.70149
0
ARC
62
0
8
_____1
10
58.27552
20
47.47196
40
16.70480
50
339.84201
51
349.77457
0
ARC
62
0
8
_____1
10
72.97355
20
42.23802
40
1.11381
50
259.98811
51
332.01181
0
ARC
62
0
8
_____1
10
73.75509
20
44.42189
40
3.42259
50
228.56893
51
253.44560
0
ARC
62
0
8
_____1
10
27.14334
20
-22.02659
40
77.76640
50
55.23174
51
58.18629
0
ARC
62
0
8
_____1
10
57.87162
20
26.87626
40
20.01445
50
59.13756
51
70.61167
0
ARC
62
0
8
_____1
10
62.57156
20
39.43063
40
6.61714
50
72.91329
51
105.02624
0
ARC
62
0
8
_____1
10
61.79291
20
42.74193
40
3.21895
50
106.92153
51
139.78186
0
ARC
62
0
8
_____1
10
60.93431
20
43.72624
40
1.93783
50
145.62306
51
200.25383
0
ARC
62
0
8
_____1
10
-159.88948
20
-19.77413
40
227.84004
50
14.27534
51
16.00740
0
ARC
62
0
8
_____1
10
57.33887
20
29.84054
40
7.47733
50
41.69191
51
61.42540
0
ARC
62
0
8
_____1
10
61.92366
20
34.27282
40
1.13593
50
-36.69110
51
28.44640
0
ARC
62
0
8
_____1
10
60.39339
20
35.24333
40
2.94602
50
300.55166
51
325.95708
0
ARC
62
0
8
_____1
10
38.02687
20
26.49777
40
24.65842
50
3.45011
51
14.58294
0
ARC
62
0
8
_____1
10
66.71261
20
30.74214
40
4.91948
50
214.13359
51
234.27459
0
ARC
62
0
8
_____1
10
56.69484
20
18.34317
40
11.03189
50
40.69643
51
49.63212
0
ARC
62
0
8
_____1
10
64.06890
20
24.93442
40
1.15876
50
-54.48246
51
31.30633
0
ARC
62
0
8
_____1
10
61.66846
20
26.97907
40
4.28651
50
304.26433
51
315.81109
0
ARC
62
0
8
_____1
10
59.67029
20
29.55151
40
7.54023
50
302.53312
51
305.80763
0
ARC
62
0
8
_____1
10
60.05947
20
28.79958
40
6.69743
50
301.34302
51
303.18559
0
ARC
62
0
8
_____1
10
62.63847
20
24.53436
40
1.71321
50
300.86739
51
301.87660
0
ARC
62
0
8
_____1
10
63.78853
20
22.62347
40
0.51710
50
120.07306
51
121.61781
0
ARC
62
0
8
_____1
10
54.80890
20
37.25366
40
16.64922
50
301.32786
51
301.58609
0
ARC
62
0
8
_____1
10
40.59824
20
18.47673
40
23.31643
50
0.13533
51
11.26569
0
ARC
62
0
8
_____1
10
67.36167
20
20.54002
40
3.98940
50
210.22453
51
239.45929
0
ARC
62
0
8
_____1
10
60.09581
20
10.15098
40
8.70569
50
39.77290
51
53.00465
0
ARC
62
0
8
_____1
10
65.95891
20
15.38521
40
0.89326
50
-43.25369
51
22.04047
0
ARC
62
0
8
_____1
10
64.33867
20
16.46418
40
2.83130
50
302.79499
51
323.32534
0
ARC
62
0
8
_____1
10
60.68847
20
21.16383
40
8.77457
50
299.59582
51
306.21151
0
ARC
62
0
8
_____1
10
56.53635
20
28.13791
40
16.89020
50
298.43703
51
300.15911
0
ARC
62
0
8
_____1
10
58.86071
20
23.73133
40
11.90860
50
297.48301
51
298.69915
0
ARC
62
0
8
_____1
10
59.81207
20
21.79539
40
9.75223
50
297.38295
51
297.77330
0
ARC
62
0
8
_____1
10
61.84210
20
17.80431
40
5.27476
50
-62.17451
51
297.74219
0
ARC
62
0
8
_____1
10
-350.20245
20
799.09311
40
888.56005
50
297.80686
51
297.81161
0
ARC
62
0
8
_____1
10
101.01663
20
-56.31228
40
78.55786
50
117.73076
51
117.80742
0
ARC
62
0
8
_____1
10
56.22044
20
28.65521
40
17.49541
50
297.46742
51
298.10484
0
ARC
62
0
8
_____1
10
34.90235
20
10.39455
40
29.51497
50
-5.32171
51
5.32171
0
ARC
62
0
8
_____1
10
72.57286
20
17.22675
40
12.65632
50
229.12303
51
235.20787
0
ARC
62
0
8
_____1
10
63.56556
20
4.60301
40
2.85681
50
24.66664
51
51.31544
0
ARC
62
0
8
_____1
10
65.45424
20
5.67915
40
0.71691
50
-44.57366
51
9.32117
0
ARC
62
0
8
_____1
10
64.59200
20
6.31674
40
1.78500
50
298.66770
51
320.27763
0
ARC
62
0
8
_____1
10
62.66483
20
9.17780
40
5.22957
50
288.10656
51
302.15827
0
ARC
62
0
8
_____1
10
42.18765
20
4.11879
40
22.10263
50
-12.50666
51
0.22917
0
ARC
62
0
8
_____1
10
110.08719
20
43.13632
40
63.75308
50
223.39998
51
224.60942
0
ARC
62
0
8
_____1
10
62.78139
20
-3.35278
40
2.57538
50
12.28446
51
41.81939
0
ARC
62
0
8
_____1
10
64.20521
20
-2.74051
40
1.09448
50
284.32149
51
356.63119
0
ARC
62
0
8
_____1
10
61.48086
20
1.35567
40
5.96336
50
287.16410
51
300.14889
0
ARC
62
0
8
_____1
10
37.85518
20
-1.76091
40
25.51641
50
341.95045
51
354.19415
0
ARC
62
0
8
_____1
10
135.24957
20
52.58857
40
96.04310
50
220.40629
51
221.31184
0
ARC
62
0
8
_____1
10
60.94034
20
-12.52963
40
2.76459
50
7.46121
51
38.33316
0
ARC
62
0
8
_____1
10
62.90186
20
-11.98708
40
0.80097
50
291.97371
51
346.75195
0
ARC
62
0
8
_____1
10
61.95311
20
-10.59089
40
2.47666
50
282.68452
51
300.27093
0
ARC
62
0
8
_____1
10
60.47214
20
-5.73572
40
7.54804
50
274.02916
51
285.56046
0
ARC
62
0
8
_____1
10
38.99631
20
-8.88514
40
22.42620
50
337.50188
51
348.73431
0
ARC
62
0
8
_____1
10
107.39357
20
4.72827
40
52.59080
50
204.96279
51
206.48891
0
ARC
62
0
8
_____1
10
57.49562
20
-20.01407
40
3.10657
50
-1.00443
51
24.44480
0
ARC
62
0
8
_____1
10
59.81790
20
-19.79084
40
0.83155
50
291.90113
51
340.49218
0
ARC
62
0
8
_____1
10
58.90196
20
-18.31361
40
2.56131
50
282.92195
51
298.60099
0
ARC
62
0
8
_____1
10
57.24398
20
-12.55918
40
8.54712
50
275.51763
51
285.12907
0
ARC
62
0
8
_____1
10
36.96406
20
-13.26437
40
22.49800
50
327.98587
51
339.70823
0
ARC
62
0
8
_____1
10
75.63208
20
-15.61165
40
21.80820
50
206.05689
51
209.62050
0
ARC
62
0
8
_____1
10
54.37721
20
-27.50639
40
2.55339
50
10.72645
51
25.91611
0
ARC
62
0
8
_____1
10
56.15533
20
-27.11363
40
0.73529
50
-46.14512
51
6.44050
0
ARC
62
0
8
_____1
10
55.44512
20
-26.32443
40
1.79677
50
268.98145
51
312.74978
0
ARC
62
0
8
_____1
10
53.69346
20
-18.25591
40
10.01378
50
272.12635
51
279.88875
0
ENDSEC
0
EOF
