999
dxfrw 0.6.3
  0
SECTION
  2
HEADER
  9
$ACADVER
  1
AC1021
  9
$DWGCODEPAGE
  3
ANSI_1252
  9
$INSBASE
 10
0
 20
0
 30
0
  9
$EXTMIN
 10
-37.49262
 20
-56.59623
 30
0
  9
$EXTMAX
 10
75.05465000000001
 20
176.39814
 30
0
  9
$LIMMIN
 10
0
 20
0
  9
$LIMMAX
 10
420
 20
297
  9
$ORTHOMODE
 70
    0
  9
$REGENMODE
 70
    1
  9
$FILLMODE
 70
    1
  9
$QTEXTMODE
 70
    0
  9
$MIRRTEXT
 70
    0
  9
$LTSCALE
 40
1
  9
$ATTMODE
 70
    0
  9
$TEXTSIZE
 40
2.5
  9
$TRACEWID
 40
15.68
  9
$TEXTSTYLE
  7
STANDARD
  9
$CLAYER
  8
0
  9
$CELTYPE
  6
BYLAYER
  9
$CECOLOR
 62
  256
  9
$CELTSCALE
 40
1
  9
$DISPSILH
 70
    0
  9
$DIMSCALE
 40
2.5
  9
$DIMASZ
 40
2.5
  9
$DIMEXO
 40
0.625
  9
$DIMDLI
 40
3.75
  9
$DIMRND
 40
0
  9
$DIMDLE
 40
0
  9
$DIMEXE
 40
1.25
  9
$DIMTP
 40
0
  9
$DIMTM
 40
0
  9
$DIMTXT
 40
2.5
  9
$DIMCEN
 40
2.5
  9
$DIMTSZ
 40
0
  9
$DIMTOL
 70
    0
  9
$DIMLIM
 70
    0
  9
$DIMTIH
 70
    0
  9
$DIMTOH
 70
    0
  9
$DIMSE1
 70
    0
  9
$DIMSE2
 70
    0
  9
$DIMTAD
 70
    1
  9
$DIMZIN
 70
    8
  9
$DIMBLK
  1

  9
$DIMASO
 70
    1
  9
$DIMSHO
 70
    1
  9
$DIMPOST
  1

  9
$DIMAPOST
  1

  9
$DIMALT
 70
    0
  9
$DIMALTD
 70
    3
  9
$DIMALTF
 40
0.03937
  9
$DIMLFAC
 40
1
  9
$DIMTOFL
 70
    1
  9
$DIMTVP
 40
0
  9
$DIMTIX
 70
    0
  9
$DIMSOXD
 70
    0
  9
$DIMSAH
 70
    0
  9
$DIMBLK1
  1

  9
$DIMBLK2
  1

  9
$DIMSTYLE
  2
Standard
  9
$DIMCLRD
 70
    0
  9
$DIMCLRE
 70
    0
  9
$DIMCLRT
 70
    0
  9
$DIMTFAC
 40
1
  9
$DIMGAP
 40
0.625
  9
$DIMJUST
 70
    0
  9
$DIMSD1
 70
    0
  9
$DIMSD2
 70
    0
  9
$DIMTOLJ
 70
    0
  9
$DIMTZIN
 70
    8
  9
$DIMALTZ
 70
    0
  9
$DIMALTTZ
 70
    0
  9
$DIMUPT
 70
    0
  9
$DIMDEC
 70
    2
  9
$DIMTDEC
 70
    2
  9
$DIMALTU
 70
    2
  9
$DIMALTTD
 70
    3
  9
$DIMTXSTY
  7
STANDARD
  9
$DIMAUNIT
 70
    0
  9
$DIMADEC
 70
    0
  9
$DIMALTRND
 40
0
  9
$DIMAZIN
 70
    0
  9
$DIMDSEP
 70
   44
  9
$DIMATFIT
 70
    3
  9
$DIMFRAC
 70
    0
  9
$DIMLDRBLK
  1
STANDARD
  9
$DIMLUNIT
 70
    2
  9
$DIMLWD
 70
   -2
  9
$DIMLWE
 70
   -2
  9
$DIMTMOVE
 70
    0
  9
$DIMFXL
 40
1
  9
$DIMFXLON
 70
    0
  9
$DIMJOGANG
 40
0.7854
  9
$DIMTFILL
 70
    0
  9
$DIMTFILLCLR
 70
    0
  9
$DIMARCSYM
 70
    0
  9
$DIMLTYPE
  6

  9
$DIMLTEX1
  6

  9
$DIMLTEX2
  6

  9
$LUNITS
 70
    2
  9
$LUPREC
 70
    4
  9
$SKETCHINC
 40
1
  9
$FILLETRAD
 40
0
  9
$AUNITS
 70
    0
  9
$AUPREC
 70
    2
  9
$MENU
  1
.
  9
$ELEVATION
 40
0
  9
$PELEVATION
 40
0
  9
$THICKNESS
 40
0
  9
$LIMCHECK
 70
    0
  9
$CHAMFERA
 40
0
  9
$CHAMFERB
 40
0
  9
$CHAMFERC
 40
0
  9
$CHAMFERD
 40
0
  9
$SKPOLY
 70
    0
  9
$USRTIMER
 70
    1
  9
$ANGBASE
 50
0
  9
$ANGDIR
 70
    0
  9
$PDMODE
 70
   34
  9
$PDSIZE
 40
0
  9
$PLINEWID
 40
0
  9
$SPLFRAME
 70
    0
  9
$SPLINETYPE
 70
    2
  9
$SPLINESEGS
 70
    8
  9
$HANDSEED
  5
20000
  9
$SURFTAB1
 70
    6
  9
$SURFTAB2
 70
    6
  9
$SURFTYPE
 70
    6
  9
$SURFU
 70
    6
  9
$SURFV
 70
    6
  9
$UCSBASE
  2

  9
$UCSNAME
  2

  9
$UCSORG
 10
0
 20
0
 30
0
  9
$UCSXDIR
 10
1
 20
0
 30
0
  9
$UCSYDIR
 10
0
 20
1
 30
0
  9
$UCSORTHOREF
  2

  9
$UCSORTHOVIEW
 70
    0
  9
$UCSORGTOP
 10
0
 20
0
 30
0
  9
$UCSORGBOTTOM
 10
0
 20
0
 30
0
  9
$UCSORGLEFT
 10
0
 20
0
 30
0
  9
$UCSORGRIGHT
 10
0
 20
0
 30
0
  9
$UCSORGFRONT
 10
0
 20
0
 30
0
  9
$UCSORGBACK
 10
0
 20
0
 30
0
  9
$PUCSBASE
  2

  9
$PUCSNAME
  2

  9
$PUCSORG
 10
0
 20
0
 30
0
  9
$PUCSXDIR
 10
1
 20
0
 30
0
  9
$PUCSYDIR
 10
0
 20
1
 30
0
  9
$PUCSORTHOREF
  2

  9
$PUCSORTHOVIEW
 70
    0
  9
$PUCSORGTOP
 10
0
 20
0
 30
0
  9
$PUCSORGBOTTOM
 10
0
 20
0
 30
0
  9
$PUCSORGLEFT
 10
0
 20
0
 30
0
  9
$PUCSORGRIGHT
 10
0
 20
0
 30
0
  9
$PUCSORGFRONT
 10
0
 20
0
 30
0
  9
$PUCSORGBACK
 10
0
 20
0
 30
0
  9
$USERI1
 70
    0
  9
$USERI2
 70
    0
  9
$USERI3
 70
    0
  9
$USERI4
 70
    0
  9
$USERI5
 70
    0
  9
$USERR1
 40
0
  9
$USERR2
 40
0
  9
$USERR3
 40
0
  9
$USERR4
 40
0
  9
$USERR5
 40
0
  9
$WORLDVIEW
 70
    1
  9
$SHADEDGE
 70
    3
  9
$SHADEDIF
 70
   70
  9
$TILEMODE
 70
    1
  9
$MAXACTVP
 70
   64
  9
$PINSBASE
 10
0
 20
0
 30
0
  9
$PLIMCHECK
 70
    0
  9
$PEXTMIN
 10
0
 20
0
 30
0
  9
$PEXTMAX
 10
0
 20
0
 30
0
  9
$PLIMMIN
 10
0
 20
0
  9
$PLIMMAX
 10
297
 20
210
  9
$UNITMODE
 70
    0
  9
$VISRETAIN
 70
    1
  9
$PLINEGEN
 70
    0
  9
$PSLTSCALE
 70
    1
  9
$TREEDEPTH
 70
 3020
  9
$CMLSTYLE
  2
Standard
  9
$CMLJUST
 70
    0
  9
$CMLSCALE
 40
20
  9
$PROXYGRAPHICS
 70
    1
  9
$MEASUREMENT
 70
    1
  9
$CELWEIGHT
370
   -1
  9
$ENDCAPS
280
    0
  9
$JOINSTYLE
280
    0
  9
$LWDISPLAY
290
    0
  9
$INSUNITS
 70
    4
  9
$HYPERLINKBASE
  1

  9
$STYLESHEET
  1

  9
$XEDIT
290
    1
  9
$CEPSNTYPE
380
    0
  9
$PSTYLEMODE
290
    1
  9
$EXTNAMES
290
    1
  9
$PSVPSCALE
 40
0
  9
$OLESTARTUP
290
    0
  9
$SORTENTS
280
  127
  9
$INDEXCTL
280
    0
  9
$HIDETEXT
280
    1
  9
$XCLIPFRAME
290
    0
  9
$HALOGAP
280
    0
  9
$OBSCOLOR
 70
  257
  9
$OBSLTYPE
280
    0
  9
$INTERSECTIONDISPLAY
280
    0
  9
$INTERSECTIONCOLOR
 70
  257
  9
$DIMASSOC
280
    1
  9
$PROJECTNAME
  1

  9
$CAMERADISPLAY
290
    0
  9
$LENSLENGTH
 40
50
  9
$CAMERAHEIGHT
 40
0
  9
$STEPSPERSEC
 40
2
  9
$STEPSIZE
 40
50
  9
$3DDWFPREC
 40
2
  9
$PSOLWIDTH
 40
5
  9
$PSOLHEIGHT
 40
80
  9
$LOFTANG1
 40
1.570796326794897
  9
$LOFTANG2
 40
1.570796326794897
  9
$LOFTMAG1
 40
0
  9
$LOFTMAG2
 40
0
  9
$LOFTPARAM
 70
    7
  9
$LOFTNORMALS
280
    1
  9
$LATITUDE
 40
1
  9
$LONGITUDE
 40
1
  9
$NORTHDIRECTION
 40
0
  9
$TIMEZONE
 70
-8000
  9
$LIGHTGLYPHDISPLAY
280
    1
  9
$TILEMODELIGHTSYNCH
280
    1
  9
$SOLIDHIST
280
    1
  9
$SHOWHIST
280
    1
  9
$DWFFRAME
280
    2
  9
$DGNFRAME
280
    0
  9
$REALWORLDSCALE
290
    1
  9
$INTERFERECOLOR
 62
    1
  9
$CSHADOW
280
    0
  9
$SHADOWPLANELOCATION
 40
0
  0
ENDSEC
  0
SECTION
  2
CLASSES
  0
ENDSEC
  0
SECTION
  2
TABLES
  0
TABLE
  2
VPORT
  5
8
330
0
100
AcDbSymbolTable
 70
    1
  0
VPORT
  5
31
330
2
100
AcDbSymbolTableRecord
100
AcDbViewportTableRecord
  2
*ACTIVE
 70
    0
 10
0
 20
0
 11
1
 21
1
 12
190.5329815076252
 22
95.35835815087508
 13
0
 23
0
 14
10
 24
10
 15
10
 25
10
 16
0
 26
0
 36
1
 17
0
 27
0
 37
0
 40
311.9816804242503
 41
1.886925795053004
 42
50
 43
0
 44
0
 50
0
 51
0
 71
    0
 72
  100
 73
    1
 74
    3
 75
    0
 76
    1
 77
    0
 78
    0
281
    0
 65
    1
110
0
120
0
130
0
111
1
121
0
131
0
112
0
122
1
132
0
 79
    0
146
0
348
10020
 60
    7
 61
    5
292
1
282
    1
141
0
142
0
 63
  250
421
3358443
  0
ENDTAB
  0
TABLE
  2
LTYPE
  5
5
330
0
100
AcDbSymbolTable
 70
    4
  0
LTYPE
  5
14
330
5
100
AcDbSymbolTableRecord
100
AcDbLinetypeTableRecord
  2
ByBlock
 70
    0
  3

 72
   65
 73
    0
 40
0
  0
LTYPE
  5
15
330
5
100
AcDbSymbolTableRecord
100
AcDbLinetypeTableRecord
  2
ByLayer
 70
    0
  3

 72
   65
 73
    0
 40
0
  0
LTYPE
  5
16
330
5
100
AcDbSymbolTableRecord
100
AcDbLinetypeTableRecord
  2
Continuous
 70
    0
  3
Solid line
 72
   65
 73
    0
 40
0
  0
LTYPE
  5
32
330
5
100
AcDbSymbolTableRecord
100
AcDbLinetypeTableRecord
  2
DOT
 70
    0
  3
Dot . . . . . . . . . . . . . . . . . . . . . .
 72
   65
 73
    2
 40
6.35
 49
0
 74
    0
 49
-6.35
 74
    0
  0
LTYPE
  5
33
330
5
100
AcDbSymbolTableRecord
100
AcDbLinetypeTableRecord
  2
DOTTINY
 70
    0
  3
Dot (.15x) .....................................
 72
   65
 73
    2
 40
0.9525
 49
0
 74
    0
 49
-0.9525
 74
    0
  0
LTYPE
  5
34
330
5
100
AcDbSymbolTableRecord
100
AcDbLinetypeTableRecord
  2
DOT2
 70
    0
  3
Dot (.5x) .....................................
 72
   65
 73
    2
 40
3.175
 49
0
 74
    0
 49
-3.175
 74
    0
  0
LTYPE
  5
35
330
5
100
AcDbSymbolTableRecord
100
AcDbLinetypeTableRecord
  2
DOTX2
 70
    0
  3
Dot (2x) .  .  .  .  .  .  .  .  .  .  .  .  .
 72
   65
 73
    2
 40
12.7
 49
0
 74
    0
 49
-12.7
 74
    0
  0
LTYPE
  5
36
330
5
100
AcDbSymbolTableRecord
100
AcDbLinetypeTableRecord
  2
DASHED
 70
    0
  3
Dashed _ _ _ _ _ _ _ _ _ _ _ _ _ _ _ _ _
 72
   65
 73
    2
 40
19.05
 49
12.7
 74
    0
 49
-6.35
 74
    0
  0
LTYPE
  5
37
330
5
100
AcDbSymbolTableRecord
100
AcDbLinetypeTableRecord
  2
DASHEDTINY
 70
    0
  3
Dashed (.15x) _ _ _ _ _ _ _ _ _ _ _ _ _ _ _ _ _
 72
   65
 73
    2
 40
2.8575
 49
1.905
 74
    0
 49
-0.9525
 74
    0
  0
LTYPE
  5
38
330
5
100
AcDbSymbolTableRecord
100
AcDbLinetypeTableRecord
  2
DASHED2
 70
    0
  3
Dashed (.5x) _ _ _ _ _ _ _ _ _ _ _ _ _ _ _ _ _
 72
   65
 73
    2
 40
9.524999999999999
 49
6.35
 74
    0
 49
-3.175
 74
    0
  0
LTYPE
  5
39
330
5
100
AcDbSymbolTableRecord
100
AcDbLinetypeTableRecord
  2
DASHEDX2
 70
    0
  3
Dashed (2x) ____  ____  ____  ____  ____  ___
 72
   65
 73
    2
 40
38.09999999999999
 49
25.4
 74
    0
 49
-12.7
 74
    0
  0
LTYPE
  5
3A
330
5
100
AcDbSymbolTableRecord
100
AcDbLinetypeTableRecord
  2
DASHDOT
 70
    0
  3
Dash dot __ . __ . __ . __ . __ . __ . __ . __
 72
   65
 73
    4
 40
25.4
 49
12.7
 74
    0
 49
-6.35
 74
    0
 49
0
 74
    0
 49
-6.35
 74
    0
  0
LTYPE
  5
3B
330
5
100
AcDbSymbolTableRecord
100
AcDbLinetypeTableRecord
  2
DASHDOTTINY
 70
    0
  3
Dash dot (.15x) _._._._._._._._._._._._._._._.
 72
   65
 73
    4
 40
3.81
 49
1.905
 74
    0
 49
-0.9525
 74
    0
 49
0
 74
    0
 49
-0.9525
 74
    0
  0
LTYPE
  5
3C
330
5
100
AcDbSymbolTableRecord
100
AcDbLinetypeTableRecord
  2
DASHDOT2
 70
    0
  3
Dash dot (.5x) _._._._._._._._._._._._._._._.
 72
   65
 73
    4
 40
12.7
 49
6.35
 74
    0
 49
-3.175
 74
    0
 49
0
 74
    0
 49
-3.175
 74
    0
  0
LTYPE
  5
3D
330
5
100
AcDbSymbolTableRecord
100
AcDbLinetypeTableRecord
  2
DASHDOTX2
 70
    0
  3
Dash dot (2x) ____  .  ____  .  ____  .  ___
 72
   65
 73
    4
 40
50.8
 49
25.4
 74
    0
 49
-12.7
 74
    0
 49
0
 74
    0
 49
-12.7
 74
    0
  0
LTYPE
  5
3E
330
5
100
AcDbSymbolTableRecord
100
AcDbLinetypeTableRecord
  2
DIVIDE
 70
    0
  3
Divide ____ . . ____ . . ____ . . ____ . . ____
 72
   65
 73
    6
 40
31.75
 49
12.7
 74
    0
 49
-6.35
 74
    0
 49
0
 74
    0
 49
-6.35
 74
    0
 49
0
 74
    0
 49
-6.35
 74
    0
  0
LTYPE
  5
3F
330
5
100
AcDbSymbolTableRecord
100
AcDbLinetypeTableRecord
  2
DIVIDETINY
 70
    0
  3
Divide (.15x) __..__..__..__..__..__..__..__.._
 72
   65
 73
    6
 40
4.7625
 49
1.905
 74
    0
 49
-0.9525
 74
    0
 49
0
 74
    0
 49
-0.9525
 74
    0
 49
0
 74
    0
 49
-0.9525
 74
    0
  0
LTYPE
  5
40
330
5
100
AcDbSymbolTableRecord
100
AcDbLinetypeTableRecord
  2
DIVIDE2
 70
    0
  3
Divide (.5x) __..__..__..__..__..__..__..__.._
 72
   65
 73
    6
 40
15.875
 49
6.35
 74
    0
 49
-3.175
 74
    0
 49
0
 74
    0
 49
-3.175
 74
    0
 49
0
 74
    0
 49
-3.175
 74
    0
  0
LTYPE
  5
41
330
5
100
AcDbSymbolTableRecord
100
AcDbLinetypeTableRecord
  2
DIVIDEX2
 70
    0
  3
Divide (2x) ________  .  .  ________  .  .  _
 72
   65
 73
    6
 40
63.5
 49
25.4
 74
    0
 49
-12.7
 74
    0
 49
0
 74
    0
 49
-12.7
 74
    0
 49
0
 74
    0
 49
-12.7
 74
    0
  0
LTYPE
  5
42
330
5
100
AcDbSymbolTableRecord
100
AcDbLinetypeTableRecord
  2
BORDER
 70
    0
  3
Border __ __ . __ __ . __ __ . __ __ . __ __ .
 72
   65
 73
    6
 40
44.45
 49
12.7
 74
    0
 49
-6.35
 74
    0
 49
12.7
 74
    0
 49
-6.35
 74
    0
 49
0
 74
    0
 49
-6.35
 74
    0
  0
LTYPE
  5
43
330
5
100
AcDbSymbolTableRecord
100
AcDbLinetypeTableRecord
  2
BORDERTINY
 70
    0
  3
Border (.15x) __.__.__.__.__.__.__.__.__.__.__.
 72
   65
 73
    6
 40
6.6675
 49
1.905
 74
    0
 49
-0.9525
 74
    0
 49
1.905
 74
    0
 49
-0.9525
 74
    0
 49
0
 74
    0
 49
-0.9525
 74
    0
  0
LTYPE
  5
44
330
5
100
AcDbSymbolTableRecord
100
AcDbLinetypeTableRecord
  2
BORDER2
 70
    0
  3
Border (.5x) __.__.__.__.__.__.__.__.__.__.__.
 72
   65
 73
    6
 40
22.225
 49
6.35
 74
    0
 49
-3.175
 74
    0
 49
6.35
 74
    0
 49
-3.175
 74
    0
 49
0
 74
    0
 49
-3.175
 74
    0
  0
LTYPE
  5
45
330
5
100
AcDbSymbolTableRecord
100
AcDbLinetypeTableRecord
  2
BORDERX2
 70
    0
  3
Border (2x) ____  ____  .  ____  ____  .  ___
 72
   65
 73
    6
 40
88.89999999999999
 49
25.4
 74
    0
 49
-12.7
 74
    0
 49
25.4
 74
    0
 49
-12.7
 74
    0
 49
0
 74
    0
 49
-12.7
 74
    0
  0
LTYPE
  5
46
330
5
100
AcDbSymbolTableRecord
100
AcDbLinetypeTableRecord
  2
CENTER
 70
    0
  3
Center ____ _ ____ _ ____ _ ____ _ ____ _ ____
 72
   65
 73
    4
 40
50.8
 49
31.75
 74
    0
 49
-6.35
 74
    0
 49
6.35
 74
    0
 49
-6.35
 74
    0
  0
LTYPE
  5
47
330
5
100
AcDbSymbolTableRecord
100
AcDbLinetypeTableRecord
  2
CENTERTINY
 70
    0
  3
Center (.15x) ___ _ ___ _ ___ _ ___ _ ___ _ ___
 72
   65
 73
    4
 40
7.62
 49
4.7625
 74
    0
 49
-0.9525
 74
    0
 49
0.9525
 74
    0
 49
-0.9525
 74
    0
  0
LTYPE
  5
48
330
5
100
AcDbSymbolTableRecord
100
AcDbLinetypeTableRecord
  2
CENTER2
 70
    0
  3
Center (.5x) ___ _ ___ _ ___ _ ___ _ ___ _ ___
 72
   65
 73
    4
 40
28.575
 49
19.05
 74
    0
 49
-3.175
 74
    0
 49
3.175
 74
    0
 49
-3.175
 74
    0
  0
LTYPE
  5
49
330
5
100
AcDbSymbolTableRecord
100
AcDbLinetypeTableRecord
  2
CENTERX2
 70
    0
  3
Center (2x) ________  __  ________  __  _____
 72
   65
 73
    4
 40
101.6
 49
63.5
 74
    0
 49
-12.7
 74
    0
 49
12.7
 74
    0
 49
-12.7
 74
    0
  0
ENDTAB
  0
TABLE
  2
LAYER
  5
2
330
0
100
AcDbSymbolTable
 70
    1
  0
LAYER
  5
10
330
2
100
AcDbSymbolTableRecord
100
AcDbLayerTableRecord
  2
0
 70
    0
 62
    7
  6
CONTINUOUS
370
   -3
390
F
  0
LAYER
  5
4A
330
2
100
AcDbSymbolTableRecord
100
AcDbLayerTableRecord
  2
_____1
 70
    0
 62
    7
  6
CONTINUOUS
370
   -3
390
F
  0
ENDTAB
  0
TABLE
  2
STYLE
  5
3
330
0
100
AcDbSymbolTable
 70
    3
  0
STYLE
  5
4B
330
2
100
AcDbSymbolTableRecord
100
AcDbTextStyleTableRecord
  2
Standard
 70
    0
 40
0
 41
1
 50
0
 71
    0
 42
1
  3
txt
  4

  0
ENDTAB
  0
TABLE
  2
VIEW
  5
6
330
0
100
AcDbSymbolTable
 70
    0
  0
ENDTAB
  0
TABLE
  2
UCS
  5
7
330
0
100
AcDbSymbolTable
 70
    0
  0
ENDTAB
  0
TABLE
  2
APPID
  5
9
330
0
100
AcDbSymbolTable
 70
    1
  0
APPID
  5
12
330
9
100
AcDbSymbolTableRecord
100
AcDbRegAppTableRecord
  2
ACAD
 70
    0
  0
APPID
  5
4C
330
9
100
AcDbSymbolTableRecord
100
AcDbRegAppTableRecord
  2
LibreCad
 70
    0
  0
ENDTAB
  0
TABLE
  2
DIMSTYLE
  5
A
330
0
100
AcDbSymbolTable
 70
    1
100
AcDbDimStyleTable
 71
    1
  0
DIMSTYLE
105
4D
330
A
100
AcDbSymbolTableRecord
100
AcDbDimStyleTableRecord
  2
Standard
 70
    0
 40
1
 41
2.5
 42
0.625
 43
0.38
 44
1.25
 45
0
 46
0
 47
0
 48
0
 49
1
140
2.5
141
0.09
142
2.5
143
25.4
144
1
145
0
146
1
147
0.625
148
0
 71
    0
 72
    0
 73
    0
 74
    1
 75
    0
 76
    0
 77
    0
 78
    1
 79
    0
170
    0
171
    2
172
    0
173
    0
174
    0
175
    0
176
    0
177
    0
178
    0
179
    0
271
    2
272
    4
273
    2
274
    2
275
    0
276
    0
277
    2
278
    0
279
    0
280
    0
281
    0
282
    0
283
    1
284
    0
285
    0
286
    0
288
    0
289
    3
340
standard
341

371
   -2
372
   -2
  0
ENDTAB
  0
TABLE
  2
BLOCK_RECORD
  5
1
330
0
100
AcDbSymbolTable
 70
    2
  0
BLOCK_RECORD
  5
1F
330
1
100
AcDbSymbolTableRecord
100
AcDbBlockTableRecord
  2
*Model_Space
 70
    0
280
    1
281
    0
  0
BLOCK_RECORD
  5
1E
330
1
100
AcDbSymbolTableRecord
100
AcDbBlockTableRecord
  2
*Paper_Space
 70
    0
280
    1
281
    0
  0
ENDTAB
  0
ENDSEC
  0
SECTION
  2
BLOCKS
  0
BLOCK
  5
20
330
1F
100
AcDbEntity
  8
0
100
AcDbBlockBegin
  2
*Model_Space
 70
    0
 10
0
 20
0
 30
0
  3
*Model_Space
  1

  0
ENDBLK
  5
21
330
1F
100
AcDbEntity
  8
0
100
AcDbBlockEnd
  0
BLOCK
  5
1C
330
1B
100
AcDbEntity
  8
0
100
AcDbBlockBegin
  2
*Paper_Space
 70
    0
 10
0
 20
0
 30
0
  3
*Paper_Space
  1

  0
ENDBLK
  5
1D
330
1F
100
AcDbEntity
  8
0
100
AcDbBlockEnd
  0
ENDSEC
  0
SECTION
  2
ENTITIES
  0
ARC
  5
4E
100
AcDbEntity
  8
_____1
  6
ByLayer
 62
    0
370
   -1
100
AcDbCircle
 10
21.62469
 20
41.99831
 40
3.78985
100
AcDbArc
 50
18.57572
 51
62.03163000000001
  0
ARC
  5
4F
100
AcDbEntity
  8
_____1
  6
ByLayer
 62
    0
370
   -1
100
AcDbCircle
 10
2.22772
 20
-19.15562
 40
2.22228
100
AcDbArc
 50
40.32471
 51
85.08821
  0
ARC
  5
50
100
AcDbEntity
  8
_____1
  6
ByLayer
 62
    0
370
   -1
100
AcDbCircle
 10
-3.60473
 20
-21.55556
 40
7.58702
100
AcDbArc
 50
37.45596
 51
72.56513
  0
ARC
  5
51
100
AcDbEntity
  8
_____1
  6
ByLayer
 62
    0
370
   -1
100
AcDbCircle
 10
2.94759
 20
-18.15255
 40
1.06707
100
AcDbArc
 50
-23.79906
 51
24.0585
  0
ARC
  5
52
100
AcDbEntity
  8
_____1
  6
ByLayer
 62
    0
370
   -1
100
AcDbCircle
 10
1.86476
 20
-17.86163
 40
2.18191
100
AcDbArc
 50
-42.70309
 51
-19.31008
  0
ARC
  5
53
100
AcDbEntity
  8
_____1
  6
ByLayer
 62
    0
370
   -1
100
AcDbCircle
 10
-3.12798
 20
-21.3875
 40
6.90624
100
AcDbArc
 50
-12.37101
 51
17.2336
  0
ARC
  5
54
100
AcDbEntity
  8
_____1
  6
ByLayer
 62
    0
370
   -1
100
AcDbCircle
 10
0.56747
 20
-25.58894
 40
4.08822
100
AcDbArc
 50
29.71505
 51
41.74194
  0
ARC
  5
55
100
AcDbEntity
  8
_____1
  6
ByLayer
 62
    0
370
   -1
100
AcDbCircle
 10
3.05353
 20
-24.10508
 40
1.19487
100
AcDbArc
 50
-13.73896
 51
27.00851
  0
ARC
  5
56
100
AcDbEntity
  8
_____1
  6
ByLayer
 62
    0
370
   -1
100
AcDbCircle
 10
3.40367
 20
-24.04751
 40
0.87949
100
AcDbArc
 50
-79.40456
 51
-22.83807
  0
ARC
  5
57
100
AcDbEntity
  8
_____1
  6
ByLayer
 62
    0
370
   -1
100
AcDbCircle
 10
2.79361
 20
-22.6879
 40
2.35421
100
AcDbArc
 50
-91.83564
 51
-70.86297
  0
ARC
  5
58
100
AcDbEntity
  8
_____1
  6
ByLayer
 62
    0
370
   -1
100
AcDbCircle
 10
-6.12522
 20
-20.86602
 40
9.779350000000001
100
AcDbArc
 50
-36.23262
 51
-25.27146
  0
ARC
  5
59
100
AcDbEntity
  8
_____1
  6
ByLayer
 62
    0
370
   -1
100
AcDbCircle
 10
-1.69311
 20
-23.8528
 40
4.44391
100
AcDbArc
 50
-63.0923
 51
-38.94707
  0
ARC
  5
5A
100
AcDbEntity
  8
_____1
  6
ByLayer
 62
    0
370
   -1
100
AcDbCircle
 10
-2.15764
 20
-27.69955
 40
2.47836
100
AcDbArc
 50
-40.32823
 51
-2.68378
  0
ARC
  5
5B
100
AcDbEntity
  8
_____1
  6
ByLayer
 62
    0
370
   -1
100
AcDbCircle
 10
-0.6715100000000001
 20
-28.60114
 40
0.80985
100
AcDbArc
 50
-119.5268
 51
-60.13728999999999
  0
ARC
  5
5C
100
AcDbEntity
  8
_____1
  6
ByLayer
 62
    0
370
   -1
100
AcDbCircle
 10
-0.22015
 20
-27.13521
 40
2.33127
100
AcDbArc
 50
-132.04714
 51
-111.39613
  0
ARC
  5
5D
100
AcDbEntity
  8
_____1
  6
ByLayer
 62
    0
370
   -1
100
AcDbCircle
 10
-3.95646
 20
-18.91766
 40
10.18371
100
AcDbArc
 50
-89.70782
 51
-77.6682
  0
ARC
  5
5E
100
AcDbEntity
  8
_____1
  6
ByLayer
 62
    0
370
   -1
100
AcDbCircle
 10
-3.76834
 20
-25.64302
 40
3.46089
100
AcDbArc
 50
-109.95036
 51
-92.25527
  0
ARC
  5
5F
100
AcDbEntity
  8
_____1
  6
ByLayer
 62
    0
370
   -1
100
AcDbCircle
 10
-4.4775
 20
-27.83157
 40
1.16447
100
AcDbArc
 50
-165.86217
 51
-113.89684
  0
ARC
  5
60
100
AcDbEntity
  8
_____1
  6
ByLayer
 62
    0
370
   -1
100
AcDbCircle
 10
-4.22421
 20
-27.91461
 40
1.39708
100
AcDbArc
 50
118.43734
 51
-171.71182
  0
ARC
  5
61
100
AcDbEntity
  8
_____1
  6
ByLayer
 62
    0
370
   -1
100
AcDbCircle
 10
-1.40527
 20
-31.90885
 40
6.2783
100
AcDbArc
 50
108.10776
 51
123.70817
  0
ARC
  5
62
100
AcDbEntity
  8
_____1
  6
ByLayer
 62
    0
370
   -1
100
AcDbCircle
 10
-4.32525
 20
-23.59887
 40
2.535
100
AcDbArc
 50
-67.53542
 51
-5.23046
  0
ARC
  5
63
100
AcDbEntity
  8
_____1
  6
ByLayer
 62
    0
370
   -1
100
AcDbCircle
 10
-4.18311
 20
-23.76557
 40
2.38317
100
AcDbArc
 50
-1.54834
 51
65.80807
  0
ARC
  5
64
100
AcDbEntity
  8
_____1
  6
ByLayer
 62
    0
370
   -1
100
AcDbCircle
 10
-6.01055
 20
-26.06982
 40
5.28358
100
AcDbArc
 50
57.94651
 51
106.16126
  0
ARC
  5
65
100
AcDbEntity
  8
_____1
  6
ByLayer
 62
    0
370
   -1
100
AcDbCircle
 10
-6.19399
 20
-26.58088
 40
5.73224
100
AcDbArc
 50
102.97669
 51
147.09081
  0
ARC
  5
66
100
AcDbEntity
  8
_____1
  6
ByLayer
 62
    0
370
   -1
100
AcDbCircle
 10
-3.31167
 20
-28.46463
 40
9.17553
100
AcDbArc
 50
146.99416
 51
-176.8697
  0
ARC
  5
67
100
AcDbEntity
  8
_____1
  6
ByLayer
 62
    0
370
   -1
100
AcDbCircle
 10
-0.6972699999999999
 20
-28.79604
 40
11.77745
100
AcDbArc
 50
-179.17471
 51
-151.08376
  0
ARC
  5
68
100
AcDbEntity
  8
_____1
  6
ByLayer
 62
    0
370
   -1
100
AcDbCircle
 10
0.36031
 20
-28.0619
 40
13.05883
100
AcDbArc
 50
-150.50791
 51
-121.33905
  0
ARC
  5
69
100
AcDbEntity
  8
_____1
  6
ByLayer
 62
    0
370
   -1
100
AcDbCircle
 10
-5.69005
 20
-40.85954
 40
1.80354
100
AcDbArc
 50
69.83125
 51
114.27776
  0
ARC
  5
6A
100
AcDbEntity
  8
_____1
  6
ByLayer
 62
    0
370
   -1
100
AcDbCircle
 10
-5.6332
 20
-40.25821
 40
1.22917
100
AcDbArc
 50
-3.84314
 51
62.63553
  0
ARC
  5
6B
100
AcDbEntity
  8
_____1
  6
ByLayer
 62
    0
370
   -1
100
AcDbCircle
 10
4.79815
 20
-23.01417
 40
19.6198
100
AcDbArc
 50
-117.98021
 51
-100.73659
  0
ARC
  5
6C
100
AcDbEntity
  8
_____1
  6
ByLayer
 62
    0
370
   -1
100
AcDbCircle
 10
3.46111
 20
-45.45688
 40
3.92417
100
AcDbArc
 50
103.62997
 51
126.20679
  0
ARC
  5
6D
100
AcDbEntity
  8
_____1
  6
ByLayer
 62
    0
370
   -1
100
AcDbCircle
 10
2.48599
 20
-42.43369
 40
0.7920700000000001
100
AcDbArc
 50
29.3039
 51
86.35245
  0
ARC
  5
6E
100
AcDbEntity
  8
_____1
  6
ByLayer
 62
    0
370
   -1
100
AcDbCircle
 10
1.09511
 20
-43.5881
 40
2.59058
100
AcDbArc
 50
19.09807
 51
36.53173
  0
ARC
  5
6F
100
AcDbEntity
  8
_____1
  6
ByLayer
 62
    0
370
   -1
100
AcDbCircle
 10
7.22555
 20
-19.81656
 40
23.21783
100
AcDbArc
 50
-99.12589
 51
-85.57252
  0
ARC
  5
70
100
AcDbEntity
  8
_____1
  6
ByLayer
 62
    0
370
   -1
100
AcDbCircle
 10
12.22414
 20
-45.69443
 40
4.21061
100
AcDbArc
 50
117.04496
 51
139.59371
  0
ARC
  5
71
100
AcDbEntity
  8
_____1
  6
ByLayer
 62
    0
370
   -1
100
AcDbCircle
 10
10.53825
 20
-42.90106
 40
0.98375
100
AcDbArc
 50
54.67548
 51
103.43861
  0
ARC
  5
72
100
AcDbEntity
  8
_____1
  6
ByLayer
 62
    0
370
   -1
100
AcDbCircle
 10
9.956189999999999
 20
-43.94861
 40
2.17891
100
AcDbArc
 50
36.06107
 51
58.11713
  0
ARC
  5
73
100
AcDbEntity
  8
_____1
  6
ByLayer
 62
    0
370
   -1
100
AcDbCircle
 10
10.07259
 20
-21.9389
 40
20.79228
100
AcDbArc
 50
-85.46223000000001
 51
-69.31395999999999
  0
ARC
  5
74
100
AcDbEntity
  8
_____1
  6
ByLayer
 62
    0
370
   -1
100
AcDbCircle
 10
24.5876
 20
-43.32023
 40
7.42529
100
AcDbArc
 50
158.41334
 51
164.93826
  0
ARC
  5
75
100
AcDbEntity
  8
_____1
  6
ByLayer
 62
    0
370
   -1
100
AcDbCircle
 10
18.53847
 20
-40.99078
 40
0.9452700000000001
100
AcDbArc
 50
104.57309
 51
154.80733
  0
ARC
  5
76
100
AcDbEntity
  8
_____1
  6
ByLayer
 62
    0
370
   -1
100
AcDbCircle
 10
18.41236
 20
-41.4718
 40
1.40034
100
AcDbArc
 50
59.73373999999999
 51
94.57651
  0
ARC
  5
77
100
AcDbEntity
  8
_____1
  6
ByLayer
 62
    0
370
   -1
100
AcDbCircle
 10
16.34806
 20
-46.90519
 40
7.19729
100
AcDbArc
 50
60.49981
 51
67.36372
  0
ARC
  5
78
100
AcDbEntity
  8
_____1
  6
ByLayer
 62
    0
370
   -1
100
AcDbCircle
 10
16.24906
 20
-29.03257
 40
12.16668
100
AcDbArc
 50
-72.57626999999999
 51
-59.99127000000001
  0
ARC
  5
79
100
AcDbEntity
  8
_____1
  6
ByLayer
 62
    0
370
   -1
100
AcDbCircle
 10
-29.47308
 20
60.79124
 40
112.94251
100
AcDbArc
 50
-62.69654
 51
-61.34202
  0
ARC
  5
7A
100
AcDbEntity
  8
_____1
  6
ByLayer
 62
    0
370
   -1
100
AcDbCircle
 10
-30.22159
 20
-31.03962
 40
55.39343
100
AcDbArc
 50
-7.547670000000001
 51
-6.48378
  0
ARC
  5
7B
100
AcDbEntity
  8
_____1
  6
ByLayer
 62
    0
370
   -1
100
AcDbCircle
 10
26.37523
 20
-37.60426
 40
1.58815
100
AcDbArc
 50
132.03702
 51
168.76191
  0
ARC
  5
7C
100
AcDbEntity
  8
_____1
  6
ByLayer
 62
    0
370
   -1
100
AcDbCircle
 10
26.02666
 20
-37.51467
 40
1.30347
100
AcDbArc
 50
77.66522000000001
 51
123.26001
  0
ARC
  5
7D
100
AcDbEntity
  8
_____1
  6
ByLayer
 62
    0
370
   -1
100
AcDbCircle
 10
25.95984
 20
-40.65622
 40
4.42841
100
AcDbArc
 50
72.15773
 51
85.5283
  0
ARC
  5
7E
100
AcDbEntity
  8
_____1
  6
ByLayer
 62
    0
370
   -1
100
AcDbCircle
 10
-4.38997
 20
3.29287
 40
50.83382
100
AcDbArc
 50
-51.41084
 51
-45.06113
  0
ARC
  5
7F
100
AcDbEntity
  8
_____1
  6
ByLayer
 62
    0
370
   -1
100
AcDbCircle
 10
43.24696
 20
-32.08802
 40
11.74582
100
AcDbArc
 50
177.21906
 51
-177.06031
  0
ARC
  5
80
100
AcDbEntity
  8
_____1
  6
ByLayer
 62
    0
370
   -1
100
AcDbCircle
 10
33.09186
 20
-31.69466
 40
1.58673
100
AcDbArc
 50
131.57988
 51
173.6126
  0
ARC
  5
81
100
AcDbEntity
  8
_____1
  6
ByLayer
 62
    0
370
   -1
100
AcDbCircle
 10
33.37112
 20
-32.2598
 40
2.20108
100
AcDbArc
 50
96.57989999999999
 51
127.2504
  0
ARC
  5
82
100
AcDbEntity
  8
_____1
  6
ByLayer
 62
    0
370
   -1
100
AcDbCircle
 10
34.72739
 20
-37.61009
 40
7.70661
100
AcDbArc
 50
93.23943
 51
102.04712
  0
ARC
  5
83
100
AcDbEntity
  8
_____1
  6
ByLayer
 62
    0
370
   -1
100
AcDbCircle
 10
-20.98511
 20
15.05107
 40
71.25705000000001
100
AcDbArc
 50
-39.12774
 51
-34.6039
  0
ARC
  5
84
100
AcDbEntity
  8
_____1
  6
ByLayer
 62
    0
370
   -1
100
AcDbCircle
 10
47.94258
 20
-22.97884
 40
10.56118
100
AcDbArc
 50
-171.97466
 51
-166.65893
  0
ARC
  5
85
100
AcDbEntity
  8
_____1
  6
ByLayer
 62
    0
370
   -1
100
AcDbCircle
 10
39.19676
 20
-24.27712
 40
1.72097
100
AcDbArc
 50
153.54901
 51
-174.12429
  0
ARC
  5
86
100
AcDbEntity
  8
_____1
  6
ByLayer
 62
    0
370
   -1
100
AcDbCircle
 10
38.80316
 20
-24.33312
 40
1.41165
100
AcDbArc
 50
104.28151
 51
144.35877
  0
ARC
  5
87
100
AcDbEntity
  8
_____1
  6
ByLayer
 62
    0
370
   -1
100
AcDbCircle
 10
41.50104
 20
-30.2377
 40
7.88477
100
AcDbArc
 50
105.51903
 51
112.72623
  0
ARC
  5
88
100
AcDbEntity
  8
_____1
  6
ByLayer
 62
    0
370
   -1
100
AcDbCircle
 10
111.81429
 20
-61.13545
 40
82.01795
100
AcDbArc
 50
150.15524
 51
152.00795
  0
ARC
  5
89
100
AcDbEntity
  8
_____1
  6
ByLayer
 62
    0
370
   -1
100
AcDbCircle
 10
19.94269
 20
-9.21271
 40
23.51874
100
AcDbArc
 50
-28.17947
 51
-21.7205
  0
ARC
  5
8A
100
AcDbEntity
  8
_____1
  6
ByLayer
 62
    0
370
   -1
100
AcDbCircle
 10
45.79652
 20
-16.21474
 40
4.35148
100
AcDbArc
 50
171.11756
 51
-156.97849
  0
ARC
  5
8B
100
AcDbEntity
  8
_____1
  6
ByLayer
 62
    0
370
   -1
100
AcDbCircle
 10
43.23265
 20
-16.17835
 40
1.84812
100
AcDbArc
 50
121.8593
 51
159.88732
  0
ARC
  5
8C
100
AcDbEntity
  8
_____1
  6
ByLayer
 62
    0
370
   -1
100
AcDbCircle
 10
44.32465
 20
-17.60115
 40
3.63726
100
AcDbArc
 50
105.28164
 51
124.64047
  0
ARC
  5
8D
100
AcDbEntity
  8
_____1
  6
ByLayer
 62
    0
370
   -1
100
AcDbCircle
 10
20.40996
 20
-4.63451
 40
24.82808
100
AcDbArc
 50
-22.39187
 51
-9.93121
  0
ARC
  5
8E
100
AcDbEntity
  8
_____1
  6
ByLayer
 62
    0
370
   -1
100
AcDbCircle
 10
48.00783
 20
-6.10194
 40
4.21816
100
AcDbArc
 50
-150.48928
 51
-138.14496
  0
ARC
  5
8F
100
AcDbEntity
  8
_____1
  6
ByLayer
 62
    0
370
   -1
100
AcDbCircle
 10
45.52209
 20
-7.57051
 40
1.33259
100
AcDbArc
 50
168.39302
 51
-152.79436
  0
ARC
  5
90
100
AcDbEntity
  8
_____1
  6
ByLayer
 62
    0
370
   -1
100
AcDbCircle
 10
45.29854
 20
-7.65096
 40
1.13656
100
AcDbArc
 50
115.90412
 51
162.14015
  0
ARC
  5
91
100
AcDbEntity
  8
_____1
  6
ByLayer
 62
    0
370
   -1
100
AcDbCircle
 10
46.9706
 20
-9.904339999999999
 40
3.92852
100
AcDbArc
 50
110.17648
 51
123.50502
  0
ARC
  5
92
100
AcDbEntity
  8
_____1
  6
ByLayer
 62
    0
370
   -1
100
AcDbCircle
 10
12.88795
 20
1.14331
 40
33.54507
100
AcDbArc
 50
-12.67453
 51
-3.60615
  0
ARC
  5
93
100
AcDbEntity
  8
_____1
  6
ByLayer
 62
    0
370
   -1
100
AcDbCircle
 10
49.79008
 20
3.6874
 40
5.77754
100
AcDbArc
 50
-137.1738
 51
-126.33816
  0
ARC
  5
94
100
AcDbEntity
  8
_____1
  6
ByLayer
 62
    0
370
   -1
100
AcDbCircle
 10
46.70845
 20
0.70916
 40
1.49555
100
AcDbArc
 50
177.92655
 51
-140.6039
  0
ARC
  5
95
100
AcDbEntity
  8
_____1
  6
ByLayer
 62
    0
370
   -1
100
AcDbCircle
 10
46.82427
 20
0.50747
 40
1.63058
100
AcDbArc
 50
132.30426
 51
170.97454
  0
ARC
  5
96
100
AcDbEntity
  8
_____1
  6
ByLayer
 62
    0
370
   -1
100
AcDbCircle
 10
50.23827
 20
-2.12708
 40
5.92478
100
AcDbArc
 50
128.91899
 51
139.59322
  0
ARC
  5
97
100
AcDbEntity
  8
_____1
  6
ByLayer
 62
    0
370
   -1
100
AcDbCircle
 10
26.77132
 20
4.36306
 40
19.83422
100
AcDbArc
 50
-5.44033
 51
8.902559999999999
  0
ARC
  5
98
100
AcDbEntity
  8
_____1
  6
ByLayer
 62
    0
370
   -1
100
AcDbCircle
 10
49.27492
 20
12.25077
 40
5.62797
100
AcDbArc
 50
-132.42399
 51
-121.11533
  0
ARC
  5
99
100
AcDbEntity
  8
_____1
  6
ByLayer
 62
    0
370
   -1
100
AcDbCircle
 10
46.52628
 20
9.11896
 40
1.46428
100
AcDbArc
 50
-178.63498
 51
-135.70391
  0
ARC
  5
9A
100
AcDbEntity
  8
_____1
  6
ByLayer
 62
    0
370
   -1
100
AcDbCircle
 10
46.71314
 20
8.890420000000001
 40
1.66205
100
AcDbArc
 50
134.67043
 51
173.30891
  0
ARC
  5
9B
100
AcDbEntity
  8
_____1
  6
ByLayer
 62
    0
370
   -1
100
AcDbCircle
 10
65.96392
 20
-4.71866
 40
25.21352
100
AcDbArc
 50
141.55521
 51
144.0816
  0
ARC
  5
9C
100
AcDbEntity
  8
_____1
  6
ByLayer
 62
    0
370
   -1
100
AcDbCircle
 10
25.40038
 20
10.9581
 40
20.81612
100
AcDbArc
 50
-0
 51
17.61193
  0
ARC
  5
9D
100
AcDbEntity
  8
_____1
  6
ByLayer
 62
    0
370
   -1
100
AcDbCircle
 10
46.71083
 20
19.64794
 40
2.80721
100
AcDbArc
 50
-158.97846
 51
-121.57816
  0
ARC
  5
9E
100
AcDbEntity
  8
_____1
  6
ByLayer
 62
    0
370
   -1
100
AcDbCircle
 10
47.40682
 20
19.12656
 40
3.35174
100
AcDbArc
 50
156.13717
 51
-171.66932
  0
ARC
  5
9F
100
AcDbEntity
  8
_____1
  6
ByLayer
 62
    0
370
   -1
100
AcDbCircle
 10
-10.47957
 20
4.30576
 40
57.15809
100
AcDbArc
 50
16.44038
 51
21.93379
  0
ARC
  5
A0
100
AcDbEntity
  8
_____1
  6
ByLayer
 62
    0
370
   -1
100
AcDbCircle
 10
47.91501
 20
34.26243
 40
10.1461
100
AcDbArc
 50
-126.66376
 51
-121.98131
  0
ARC
  5
A1
100
AcDbEntity
  8
_____1
  6
ByLayer
 62
    0
370
   -1
100
AcDbCircle
 10
42.72073
 20
27.20899
 40
1.38729
100
AcDbArc
 50
-162.40245
 51
-128.52811
  0
ARC
  5
A2
100
AcDbEntity
  8
_____1
  6
ByLayer
 62
    0
370
   -1
100
AcDbCircle
 10
43.11888
 20
27.05719
 40
1.74121
100
AcDbArc
 50
161.42994
 51
-171.1586
  0
ARC
  5
A3
100
AcDbEntity
  8
_____1
  6
ByLayer
 62
    0
370
   -1
100
AcDbCircle
 10
91.17007
 20
17.54033
 40
50.71189
100
AcDbArc
 50
167.59881
 51
168.54491
  0
ARC
  5
A4
100
AcDbEntity
  8
_____1
  6
ByLayer
 62
    0
370
   -1
100
AcDbCircle
 10
0.38504
 20
13.63556
 40
43.82913
100
AcDbArc
 50
19.72895
 51
27.76929
  0
ARC
  5
A5
100
AcDbEntity
  8
_____1
  6
ByLayer
 62
    0
370
   -1
100
AcDbCircle
 10
40.88473
 20
38.84023
 40
5.08336
100
AcDbArc
 50
-119.93545
 51
-109.75692
  0
ARC
  5
A6
100
AcDbEntity
  8
_____1
  6
ByLayer
 62
    0
370
   -1
100
AcDbCircle
 10
38.99471
 20
35.44304
 40
1.19761
100
AcDbArc
 50
-165.40654
 51
-122.68311
  0
ARC
  5
A7
100
AcDbEntity
  8
_____1
  6
ByLayer
 62
    0
370
   -1
100
AcDbCircle
 10
39.50246
 20
35.3644
 40
1.68159
100
AcDbArc
 50
156.65915
 51
-172.37553
  0
ARC
  5
A8
100
AcDbEntity
  8
_____1
  6
ByLayer
 62
    0
370
   -1
100
AcDbCircle
 10
254.97101
 20
-21.3024
 40
224.45826
100
AcDbArc
 50
164.96963
 51
165.20102
  0
ARC
  5
A9
100
AcDbEntity
  8
_____1
  6
ByLayer
 62
    0
370
   -1
100
AcDbCircle
 10
32.67732
 20
34.23157
 40
6.12905
100
AcDbArc
 50
25.87765
 51
37.66236
  0
ARC
  5
AA
100
AcDbEntity
  8
_____1
  6
ByLayer
 62
    0
370
   -1
100
AcDbCircle
 10
35.81944
 20
36.52428
 40
2.24327
100
AcDbArc
 50
40.34231
 51
72.37858
  0
ARC
  5
AB
100
AcDbEntity
  8
_____1
  6
ByLayer
 62
    0
370
   -1
100
AcDbCircle
 10
35.90827
 20
36.111
 40
2.61868
100
AcDbArc
 50
76.97341
 51
104.68474
  0
ARC
  5
AC
100
AcDbEntity
  8
_____1
  6
ByLayer
 62
    0
370
   -1
100
AcDbCircle
 10
34.55759
 20
44.45483
 40
5.85115
100
AcDbArc
 50
-95.55882
 51
-83.25864
  0
ARC
  5
AD
100
AcDbEntity
  8
_____1
  6
ByLayer
 62
    0
370
   -1
100
AcDbCircle
 10
34.43293
 20
41.37016
 40
2.77441
100
AcDbArc
 50
-149.70396
 51
-99.16972
  0
ARC
  5
AE
100
AcDbEntity
  8
_____1
  6
ByLayer
 62
    0
370
   -1
100
AcDbCircle
 10
30.14549
 20
38.48237
 40
2.40709
100
AcDbArc
 50
38.18856
 51
94.86136
  0
ARC
  5
AF
100
AcDbEntity
  8
_____1
  6
ByLayer
 62
    0
370
   -1
100
AcDbCircle
 10
29.34807
 20
49.84801
 40
8.986829999999999
100
AcDbArc
 50
-104.56136
 51
-86.21380000000001
  0
ARC
  5
B0
100
AcDbEntity
  8
_____1
  6
ByLayer
 62
    0
370
   -1
100
AcDbCircle
 10
28.16423
 20
44.00885
 40
3.05463
100
AcDbArc
 50
-164.7542
 51
-110.61711
  0
ARC
  5
B1
100
AcDbEntity
  8
_____1
  6
ByLayer
 62
    0
370
   -1
100
AcDbCircle
 10
17.57183
 20
32.04427
 40
14.52292
100
AcDbArc
 50
66.33110000000001
 51
72.06067
  0
ARC
  5
B2
100
AcDbEntity
  8
_____1
  6
ByLayer
 62
    0
370
   -1
100
AcDbCircle
 10
24.23666
 20
51.12739
 40
5.70409
100
AcDbArc
 50
-127.14164
 51
-112.59536
  0
ARC
  5
B3
100
AcDbEntity
  8
_____1
  6
ByLayer
 62
    0
370
   -1
100
AcDbCircle
 10
33.90811
 20
62.97531
 40
20.99546
100
AcDbArc
 50
-141.12116
 51
-128.65892
  0
ARC
  5
B4
100
AcDbEntity
  8
_____1
  6
ByLayer
 62
    0
370
   -1
100
AcDbCircle
 10
23.35166
 20
53.84496
 40
7.06309
100
AcDbArc
 50
178.08977
 51
-145.03193
  0
ARC
  5
B5
100
AcDbEntity
  8
_____1
  6
ByLayer
 62
    0
370
   -1
100
AcDbCircle
 10
-27.01232
 20
59.40774
 40
43.63127
100
AcDbArc
 50
-7.01326
 51
-1.22994
  0
ARC
  5
B6
100
AcDbEntity
  8
_____1
  6
ByLayer
 62
    0
370
   -1
100
AcDbCircle
 10
6.50676
 20
58.33745
 40
10.10303
100
AcDbArc
 50
0.75851
 51
25.61177
  0
ARC
  5
B7
100
AcDbEntity
  8
_____1
  6
ByLayer
 62
    0
370
   -1
100
AcDbCircle
 10
-8.63808
 20
46.87098
 40
28.96585
100
AcDbArc
 50
33.1364
 51
36.7808
  0
ARC
  5
B8
100
AcDbEntity
  8
_____1
  6
ByLayer
 62
    0
370
   -1
100
AcDbCircle
 10
19.11415
 20
67.38460000000001
 40
5.54758
100
AcDbArc
 50
-164.12326
 51
-145.14867
  0
ARC
  5
B9
100
AcDbEntity
  8
_____1
  6
ByLayer
 62
    0
370
   -1
100
AcDbCircle
 10
17.13078
 20
66.52153
 40
3.41589
100
AcDbArc
 50
160.08282
 51
-168.95226
  0
ARC
  5
BA
100
AcDbEntity
  8
_____1
  6
ByLayer
 62
    0
370
   -1
100
AcDbCircle
 10
21.85172
 20
65.29929
 40
8.28355
100
AcDbArc
 50
150.49132
 51
163.26002
  0
ARC
  5
BB
100
AcDbEntity
  8
_____1
  6
ByLayer
 62
    0
370
   -1
100
AcDbCircle
 10
5.88328
 20
74.06932
 40
9.935930000000001
100
AcDbArc
 50
-28.16524
 51
5.83125
  0
ARC
  5
BC
100
AcDbEntity
  8
_____1
  6
ByLayer
 62
    0
370
   -1
100
AcDbCircle
 10
5.07824
 20
73.78051000000001
 40
10.76812
100
AcDbArc
 50
6.92486
 51
19.8294
  0
ARC
  5
BD
100
AcDbEntity
  8
_____1
  6
ByLayer
 62
    0
370
   -1
100
AcDbCircle
 10
60.25845
 20
90.52025
 40
46.91293
100
AcDbArc
 50
-166.76047
 51
-163.80168
  0
ARC
  5
BE
100
AcDbEntity
  8
_____1
  6
ByLayer
 62
    0
370
   -1
100
AcDbCircle
 10
24.14041
 20
81.74422
 40
9.74872
100
AcDbArc
 50
177.41776
 51
-168.35297
  0
ARC
  5
BF
100
AcDbEntity
  8
_____1
  6
ByLayer
 62
    0
370
   -1
100
AcDbCircle
 10
19.3666
 20
81.77388000000001
 40
4.98188
100
AcDbArc
 50
147.45139
 51
175.28444
  0
ARC
  5
C0
100
AcDbEntity
  8
_____1
  6
ByLayer
 62
    0
370
   -1
100
AcDbCircle
 10
5.89257
 20
90.71039
 40
11.18744
100
AcDbArc
 50
-34.00159
 51
-7.994050000000001
  0
ARC
  5
C1
100
AcDbEntity
  8
_____1
  6
ByLayer
 62
    0
370
   -1
100
AcDbCircle
 10
0.7309099999999999
 20
92.15067000000001
 40
16.51444
100
AcDbArc
 50
-10.4527
 51
7.1396
  0
ARC
  5
C2
100
AcDbEntity
  8
_____1
  6
ByLayer
 62
    0
370
   -1
100
AcDbCircle
 10
21.53364
 20
94.77486
 40
4.45318
100
AcDbArc
 50
153.68864
 51
-172.62454
  0
ARC
  5
C3
100
AcDbEntity
  8
_____1
  6
ByLayer
 62
    0
370
   -1
100
AcDbCircle
 10
25.21044
 20
93.34795
 40
8.388870000000001
100
AcDbArc
 50
138.21511
 51
156.08437
  0
ARC
  5
C4
100
AcDbEntity
  8
_____1
  6
ByLayer
 62
    0
370
   -1
100
AcDbCircle
 10
37.43707
 20
83.80953
 40
23.88389
100
AcDbArc
 50
134.4268
 51
140.69806
  0
ARC
  5
C5
100
AcDbEntity
  8
_____1
  6
ByLayer
 62
    0
370
   -1
100
AcDbCircle
 10
-0.07385
 20
120.86858
 40
28.85164
100
AcDbArc
 50
-43.89091
 51
-38.7046
  0
ARC
  5
C6
100
AcDbEntity
  8
_____1
  6
ByLayer
 62
    0
370
   -1
100
AcDbCircle
 10
32.71805
 20
102.82682
 40
10.27665
100
AcDbArc
 50
148.3104
 51
179.99619
  0
ARC
  5
C7
100
AcDbEntity
  8
_____1
  6
ByLayer
 62
    0
370
   -1
100
AcDbCircle
 10
36.00615
 20
100.24703
 40
14.43731
100
AcDbArc
 50
135.14386
 51
146.45332
  0
ARC
  5
C8
100
AcDbEntity
  8
_____1
  6
ByLayer
 62
    0
370
   -1
100
AcDbCircle
 10
8.62201
 20
125.90175
 40
23.09738
100
AcDbArc
 50
-42.05511
 51
-35.00162
  0
ARC
  5
C9
100
AcDbEntity
  8
_____1
  6
ByLayer
 62
    0
370
   -1
100
AcDbCircle
 10
-1.33648
 20
129.9012
 40
33.63715
100
AcDbArc
 50
-30.84847
 51
-24.95883
  0
ARC
  5
CA
100
AcDbEntity
  8
_____1
  6
ByLayer
 62
    0
370
   -1
100
AcDbCircle
 10
22.6293
 20
118.21415
 40
6.99464
100
AcDbArc
 50
-21.00052
 51
7.29651
  0
ARC
  5
CB
100
AcDbEntity
  8
_____1
  6
ByLayer
 62
    0
370
   -1
100
AcDbCircle
 10
33.09893
 20
119.63853
 40
3.57208
100
AcDbArc
 50
148.52971
 51
-171.36951
  0
ARC
  5
CC
100
AcDbEntity
  8
_____1
  6
ByLayer
 62
    0
370
   -1
100
AcDbCircle
 10
35.73213
 20
116.8045
 40
7.37158
100
AcDbArc
 50
130.55494
 51
140.39962
  0
ARC
  5
CD
100
AcDbEntity
  8
_____1
  6
ByLayer
 62
    0
370
   -1
100
AcDbCircle
 10
26.28933
 20
127.06108
 40
6.58016
100
AcDbArc
 50
-45.03574
 51
-34.04096
  0
ARC
  5
CE
100
AcDbEntity
  8
_____1
  6
ByLayer
 62
    0
370
   -1
100
AcDbCircle
 10
28.35185
 20
125.61165
 40
4.05998
100
AcDbArc
 50
-33.38501
 51
7.95712
  0
ARC
  5
CF
100
AcDbEntity
  8
_____1
  6
ByLayer
 62
    0
370
   -1
100
AcDbCircle
 10
30.29625
 20
125.48138
 40
2.18886
100
AcDbArc
 50
18.43839
 51
97.34014000000001
  0
ARC
  5
D0
100
AcDbEntity
  8
_____1
  6
ByLayer
 62
    0
370
   -1
100
AcDbCircle
 10
29.83369
 20
123.8216
 40
3.83507
100
AcDbArc
 50
87.26627999999999
 51
135.55548
  0
ARC
  5
D1
100
AcDbEntity
  8
_____1
  6
ByLayer
 62
    0
370
   -1
100
AcDbCircle
 10
30.86072
 20
121.74865
 40
6.06769
100
AcDbArc
 50
128.35261
 51
158.45199
  0
ARC
  5
D2
100
AcDbEntity
  8
_____1
  6
ByLayer
 62
    0
370
   -1
100
AcDbCircle
 10
20.54844
 20
125.21083
 40
4.82889
100
AcDbArc
 50
-27.57694
 51
-14.80132
  0
ARC
  5
D3
100
AcDbEntity
  8
_____1
  6
ByLayer
 62
    0
370
   -1
100
AcDbCircle
 10
23.28481
 20
123.85978
 40
1.7793
100
AcDbArc
 50
-64.33244999999999
 51
-29.80628
  0
ARC
  5
D4
100
AcDbEntity
  8
_____1
  6
ByLayer
 62
    0
370
   -1
100
AcDbCircle
 10
23.49151
 20
123.69985
 40
1.55004
100
AcDbArc
 50
-108.67803
 51
-68.66252
  0
ARC
  5
D5
100
AcDbEntity
  8
_____1
  6
ByLayer
 62
    0
370
   -1
100
AcDbCircle
 10
23.96372
 20
126.1531
 40
4.03951
100
AcDbArc
 50
-119.21969
 51
-103.87393
  0
ARC
  5
D6
100
AcDbEntity
  8
_____1
  6
ByLayer
 62
    0
370
   -1
100
AcDbCircle
 10
11.95463
 20
103.32551
 40
21.75581
100
AcDbArc
 50
62.52537999999999
 51
74.69927
  0
ARC
  5
D7
100
AcDbEntity
  8
_____1
  6
ByLayer
 62
    0
370
   -1
100
AcDbCircle
 10
6.99665
 20
88.34917
 40
37.51883
100
AcDbArc
 50
73.43134000000001
 51
80.48865000000001
  0
ARC
  5
D8
100
AcDbEntity
  8
_____1
  6
ByLayer
 62
    0
370
   -1
100
AcDbCircle
 10
5.97113
 20
83.6679
 40
42.30587
100
AcDbArc
 50
80.16649
 51
92.68001
  0
ARC
  5
D9
100
AcDbEntity
  8
_____1
  6
ByLayer
 62
    0
370
   -1
100
AcDbCircle
 10
5.35529
 20
105.45696
 40
20.51582
100
AcDbArc
 50
93.80736
 51
129.54464
  0
ARC
  5
DA
100
AcDbEntity
  8
_____1
  6
ByLayer
 62
    0
370
   -1
100
AcDbCircle
 10
-12.4349
 20
126.39035
 40
6.96414
100
AcDbArc
 50
-70.02882
 51
-47.23948
  0
ARC
  5
DB
100
AcDbEntity
  8
_____1
  6
ByLayer
 62
    0
370
   -1
100
AcDbCircle
 10
-19.80712
 20
142.49147
 40
24.65645
100
AcDbArc
 50
-73.13064
 51
-66.70493
  0
ARC
  5
DC
100
AcDbEntity
  8
_____1
  6
ByLayer
 62
    0
370
   -1
100
AcDbCircle
 10
35.88115
 20
-31.1255
 40
157.67666
100
AcDbArc
 50
107.92682
 51
109.93561
  0
ARC
  5
DD
100
AcDbEntity
  8
_____1
  6
ByLayer
 62
    0
370
   -1
100
AcDbCircle
 10
-4.17111
 20
84.60939999999999
 40
35.26707
100
AcDbArc
 50
112.87625
 51
127.99322
  0
ARC
  5
DE
100
AcDbEntity
  8
_____1
  6
ByLayer
 62
    0
370
   -1
100
AcDbCircle
 10
1.49914
 20
79.77723
 40
42.59186
100
AcDbArc
 50
130.00354
 51
131.78173
  0
ARC
  5
DF
100
AcDbEntity
  8
_____1
  6
ByLayer
 62
    0
370
   -1
100
AcDbCircle
 10
-29.02541
 20
114.15753
 40
3.38661
100
AcDbArc
 50
-72.97066
 51
-50.68256
  0
ARC
  5
E0
100
AcDbEntity
  8
_____1
  6
ByLayer
 62
    0
370
   -1
100
AcDbCircle
 10
-28.56332
 20
113.30424
 40
2.44295
100
AcDbArc
 50
-108.56673
 51
-77.47687000000001
  0
ARC
  5
E1
100
AcDbEntity
  8
_____1
  6
ByLayer
 62
    0
370
   -1
100
AcDbCircle
 10
-27.743
 20
117.14034
 40
6.3561
100
AcDbArc
 50
-116.51531
 51
-104.56269
  0
ARC
  5
E2
100
AcDbEntity
  8
_____1
  6
ByLayer
 62
    0
370
   -1
100
AcDbCircle
 10
-18.88658
 20
137.06746
 40
28.15778
100
AcDbArc
 50
-125.35619
 51
-114.53841
  0
ARC
  5
E3
100
AcDbEntity
  8
_____1
  6
ByLayer
 62
    0
370
   -1
100
AcDbCircle
 10
-32.36113
 20
117.48935
 40
4.40641
100
AcDbArc
 50
-159.47959
 51
-129.77609
  0
ARC
  5
E4
100
AcDbEntity
  8
_____1
  6
ByLayer
 62
    0
370
   -1
100
AcDbCircle
 10
-28.6008
 20
118.47766
 40
8.28389
100
AcDbArc
 50
-178.09372
 51
-162.19568
  0
ARC
  5
E5
100
AcDbEntity
  8
_____1
  6
ByLayer
 62
    0
370
   -1
100
AcDbCircle
 10
-47.00951
 20
117.18477
 40
10.18037
100
AcDbArc
 50
5.73515
 51
18.77971
  0
ARC
  5
E6
100
AcDbEntity
  8
_____1
  6
ByLayer
 62
    0
370
   -1
100
AcDbCircle
 10
-32.84134
 20
121.51836
 40
4.65128
100
AcDbArc
 50
178.91949
 51
-166.87468
  0
ARC
  5
E7
100
AcDbEntity
  8
_____1
  6
ByLayer
 62
    0
370
   -1
100
AcDbCircle
 10
-36.88637
 20
121.49219
 40
0.61605
100
AcDbArc
 50
65.41847
 51
169.34635
  0
ARC
  5
E8
100
AcDbEntity
  8
_____1
  6
ByLayer
 62
    0
370
   -1
100
AcDbCircle
 10
-36.04592
 20
126.10789
 40
4.09734
100
AcDbArc
 50
-98.19696
 51
-77.89847
  0
ARC
  5
E9
100
AcDbEntity
  8
_____1
  6
ByLayer
 62
    0
370
   -1
100
AcDbCircle
 10
-37.62241
 20
142.33172
 40
20.37621
100
AcDbArc
 50
-83.13526
 51
-79.06273
  0
ARC
  5
EA
100
AcDbEntity
  8
_____1
  6
ByLayer
 62
    0
370
   -1
100
AcDbCircle
 10
-43.90114
 20
175.8449
 40
54.47226
100
AcDbArc
 50
-79.2667
 51
-76.22032
  0
ARC
  5
EB
100
AcDbEntity
  8
_____1
  6
ByLayer
 62
    0
370
   -1
100
AcDbCircle
 10
-44.71435
 20
179.03254
 40
57.76187
100
AcDbArc
 50
-76.19002
 51
-70.44512
  0
ARC
  5
EC
100
AcDbEntity
  8
_____1
  6
ByLayer
 62
    0
370
   -1
100
AcDbCircle
 10
-27.96621
 20
130.26071
 40
6.22105
100
AcDbArc
 50
-65.44450000000001
 51
-49.21249
  0
ARC
  5
ED
100
AcDbEntity
  8
_____1
  6
ByLayer
 62
    0
370
   -1
100
AcDbCircle
 10
-113.80841
 20
240.83477
 40
146.19703
100
AcDbArc
 50
-52.05058
 51
-51.36048
  0
ARC
  5
EE
100
AcDbEntity
  8
_____1
  6
ByLayer
 62
    0
370
   -1
100
AcDbCircle
 10
-13.7478
 20
115.00373
 40
14.57394
100
AcDbArc
 50
113.16756
 51
127.00818
  0
ARC
  5
EF
100
AcDbEntity
  8
_____1
  6
ByLayer
 62
    0
370
   -1
100
AcDbCircle
 10
-24.25576
 20
139.86977
 40
12.42152
100
AcDbArc
 50
-67.39635
 51
-48.5576
  0
ARC
  5
F0
100
AcDbEntity
  8
_____1
  6
ByLayer
 62
    0
370
   -1
100
AcDbCircle
 10
-20.37007
 20
135.0818
 40
6.26578
100
AcDbArc
 50
-46.21418
 51
-8.998279999999999
  0
ARC
  5
F1
100
AcDbEntity
  8
_____1
  6
ByLayer
 62
    0
370
   -1
100
AcDbCircle
 10
-201.9976
 20
152.05976
 40
188.67277
100
AcDbArc
 50
-5.46171
 51
-4.42619
  0
ARC
  5
F2
100
AcDbEntity
  8
_____1
  6
ByLayer
 62
    0
370
   -1
100
AcDbCircle
 10
-7.14083
 20
136.48532
 40
6.82242
100
AcDbArc
 50
142.88901
 51
171.45554
  0
ARC
  5
F3
100
AcDbEntity
  8
_____1
  6
ByLayer
 62
    0
370
   -1
100
AcDbCircle
 10
-23.14519
 20
149.25898
 40
13.65796
100
AcDbArc
 50
-39.33571
 51
-28.38945
  0
ARC
  5
F4
100
AcDbEntity
  8
_____1
  6
ByLayer
 62
    0
370
   -1
100
AcDbCircle
 10
-14.84723
 20
144.6232
 40
4.15594
100
AcDbArc
 50
-26.55701
 51
9.030189999999999
  0
ARC
  5
F5
100
AcDbEntity
  8
_____1
  6
ByLayer
 62
    0
370
   -1
100
AcDbCircle
 10
-10.13933
 20
145.53598
 40
0.65729
100
AcDbArc
 50
136.05756
 51
-156.65318
  0
ARC
  5
F6
100
AcDbEntity
  8
_____1
  6
ByLayer
 62
    0
370
   -1
100
AcDbCircle
 10
-17.4499
 20
151.52556
 40
8.7959
100
AcDbArc
 50
-38.9834
 51
-21.12225
  0
ARC
  5
F7
100
AcDbEntity
  8
_____1
  6
ByLayer
 62
    0
370
   -1
100
AcDbCircle
 10
-22.75299
 20
154.3623
 40
14.78323
100
AcDbArc
 50
-23.97262
 51
-13.35944
  0
ARC
  5
F8
100
AcDbEntity
  8
_____1
  6
ByLayer
 62
    0
370
   -1
100
AcDbCircle
 10
-7.34125
 20
150.68214
 40
1.06198
100
AcDbArc
 50
71.02266
 51
165.58582
  0
ARC
  5
F9
100
AcDbEntity
  8
_____1
  6
ByLayer
 62
    0
370
   -1
100
AcDbCircle
 10
-5.77413
 20
155.41326
 40
3.92201
100
AcDbArc
 50
-108.1506
 51
-68.50114000000001
  0
ARC
  5
FA
100
AcDbEntity
  8
_____1
  6
ByLayer
 62
    0
370
   -1
100
AcDbCircle
 10
16.08624
 20
94.78188
 40
60.53161
100
AcDbArc
 50
107.15518
 51
109.7182
  0
ARC
  5
FB
100
AcDbEntity
  8
_____1
  6
ByLayer
 62
    0
370
   -1
100
AcDbCircle
 10
-1.99108
 20
154.01902
 40
1.41627
100
AcDbArc
 50
-80.94561
 51
-29.93863
  0
ARC
  5
FC
100
AcDbEntity
  8
_____1
  6
ByLayer
 62
    0
370
   -1
100
AcDbCircle
 10
4.69775
 20
151.20991
 40
5.85219
100
AcDbArc
 50
139.56186
 51
158.94702
  0
ARC
  5
FD
100
AcDbEntity
  8
_____1
  6
ByLayer
 62
    0
370
   -1
100
AcDbCircle
 10
2.7143
 20
152.75395
 40
3.34293
100
AcDbArc
 50
103.77713
 51
137.65327
  0
ARC
  5
FE
100
AcDbEntity
  8
_____1
  6
ByLayer
 62
    0
370
   -1
100
AcDbCircle
 10
1.71572
 20
156.99809
 40
1.01773
100
AcDbArc
 50
-78.52414
 51
-2.33635
  0
ARC
  5
FF
100
AcDbEntity
  8
_____1
  6
ByLayer
 62
    0
370
   -1
100
AcDbCircle
 10
-5.80425
 20
159.62339
 40
8.94369
100
AcDbArc
 50
-17.34803
 51
-8.85319
  0
ARC
  5
100
100
AcDbEntity
  8
_____1
  6
ByLayer
 62
    0
370
   -1
100
AcDbCircle
 10
7.81697
 20
157.13464
 40
4.91168
100
AcDbArc
 50
151.47651
 51
166.91146
  0
ARC
  5
101
100
AcDbEntity
  8
_____1
  6
ByLayer
 62
    0
370
   -1
100
AcDbCircle
 10
5.22307
 20
158.38708
 40
2.03925
100
AcDbArc
 50
110.22448
 51
147.59005
  0
ARC
  5
102
100
AcDbEntity
  8
_____1
  6
ByLayer
 62
    0
370
   -1
100
AcDbCircle
 10
4.11718
 20
161.44022
 40
1.20809
100
AcDbArc
 50
-70.61807
 51
-6.78231
  0
ARC
  5
103
100
AcDbEntity
  8
_____1
  6
ByLayer
 62
    0
370
   -1
100
AcDbCircle
 10
-3.33483
 20
164.99131
 40
9.407159999999999
100
AcDbArc
 50
-23.11972
 51
-15.12592
  0
ARC
  5
104
100
AcDbEntity
  8
_____1
  6
ByLayer
 62
    0
370
   -1
100
AcDbCircle
 10
138.37502
 20
123.52766
 40
138.24631
100
AcDbArc
 50
162.52276
 51
163.61026
  0
ARC
  5
105
100
AcDbEntity
  8
_____1
  6
ByLayer
 62
    0
370
   -1
100
AcDbCircle
 10
22.0323
 20
159.58604
 40
16.4542
100
AcDbArc
 50
151.48673
 51
160.61748
  0
ARC
  5
106
100
AcDbEntity
  8
_____1
  6
ByLayer
 62
    0
370
   -1
100
AcDbCircle
 10
13.45878
 20
163.96062
 40
6.83684
100
AcDbArc
 50
127.27712
 51
149.40199
  0
ARC
  5
107
100
AcDbEntity
  8
_____1
  6
ByLayer
 62
    0
370
   -1
100
AcDbCircle
 10
15.65203
 20
160.2764
 40
11.10747
100
AcDbArc
 50
111.02863
 51
124.76826
  0
ARC
  5
108
100
AcDbEntity
  8
_____1
  6
ByLayer
 62
    0
370
   -1
100
AcDbCircle
 10
-47.79326
 20
303.40166
 40
145.46477
100
AcDbArc
 50
-65.87331
 51
-64.82512
  0
ARC
  5
109
100
AcDbEntity
  8
_____1
  6
ByLayer
 62
    0
370
   -1
100
AcDbCircle
 10
7.5317
 20
185.01379
 40
14.79071
100
AcDbArc
 50
-63.70053
 51
-53.39704
  0
ARC
  5
10A
100
AcDbEntity
  8
_____1
  6
ByLayer
 62
    0
370
   -1
100
AcDbCircle
 10
12.79491
 20
177.59619
 40
5.70112
100
AcDbArc
 50
-51.41044
 51
-24.71971
  0
ARC
  5
10B
100
AcDbEntity
  8
_____1
  6
ByLayer
 62
    0
370
   -1
100
AcDbCircle
 10
19.82103
 20
174.38394
 40
2.02456
100
AcDbArc
 50
98.72087999999999
 51
155.85446
  0
ARC
  5
10C
100
AcDbEntity
  8
_____1
  6
ByLayer
 62
    0
370
   -1
100
AcDbCircle
 10
19.751
 20
174.23871
 40
2.15943
100
AcDbArc
 50
42.10558
 51
96.29919
  0
ARC
  5
10D
100
AcDbEntity
  8
_____1
  6
ByLayer
 62
    0
370
   -1
100
AcDbCircle
 10
24.85993
 20
179.37287
 40
5.08787
100
AcDbArc
 50
-133.57099
 51
-96.97022
  0
ARC
  5
10E
100
AcDbEntity
  8
_____1
  6
ByLayer
 62
    0
370
   -1
100
AcDbCircle
 10
24.22206
 20
173.79578
 40
0.52721
100
AcDbArc
 50
23.0729
 51
87.77826
  0
ARC
  5
10F
100
AcDbEntity
  8
_____1
  6
ByLayer
 62
    0
370
   -1
100
AcDbCircle
 10
26.41312
 20
174.72723
 40
1.85361
100
AcDbArc
 50
-156.98093
 51
-87.56094
  0
ARC
  5
110
100
AcDbEntity
  8
_____1
  6
ByLayer
 62
    0
370
   -1
100
AcDbCircle
 10
26.492
 20
156.10395
 40
16.77135
100
AcDbArc
 50
84.34575
 51
90
  0
ARC
  5
111
100
AcDbEntity
  8
_____1
  6
ByLayer
 62
    0
370
   -1
100
AcDbCircle
 10
27.94647
 20
171.82
 40
0.9936199999999999
100
AcDbArc
 50
-11.4529
 51
78.5095
  0
ARC
  5
112
100
AcDbEntity
  8
_____1
  6
ByLayer
 62
    0
370
   -1
100
AcDbCircle
 10
31.70961
 20
170.73159
 40
2.9282
100
AcDbArc
 50
162.28269
 51
-123.20097
  0
ARC
  5
113
100
AcDbEntity
  8
_____1
  6
ByLayer
 62
    0
370
   -1
100
AcDbCircle
 10
34.48213
 20
173.39608
 40
6.73118
100
AcDbArc
 50
-130.54907
 51
-98.36403
  0
ARC
  5
114
100
AcDbEntity
  8
_____1
  6
ByLayer
 62
    0
370
   -1
100
AcDbCircle
 10
33.38121
 20
166.15787
 40
0.59131
100
AcDbArc
 50
2.61023
 51
78.11342
  0
ARC
  5
115
100
AcDbEntity
  8
_____1
  6
ByLayer
 62
    0
370
   -1
100
AcDbCircle
 10
42.06458
 20
167.37305
 40
8.179449999999999
100
AcDbArc
 50
-171.64696
 51
-155.43994
  0
ARC
  5
116
100
AcDbEntity
  8
_____1
  6
ByLayer
 62
    0
370
   -1
100
AcDbCircle
 10
38.77528
 20
166.16576
 40
4.69366
100
AcDbArc
 50
-152.15287
 51
-123.87993
  0
ARC
  5
117
100
AcDbEntity
  8
_____1
  6
ByLayer
 62
    0
370
   -1
100
AcDbCircle
 10
39.78378
 20
167.69337
 40
6.5241
100
AcDbArc
 50
-123.75434
 51
-103.38622
  0
ARC
  5
118
100
AcDbEntity
  8
_____1
  6
ByLayer
 62
    0
370
   -1
100
AcDbCircle
 10
41.47319
 20
173.08003
 40
12.162
100
AcDbArc
 50
-105.25413
 51
-94.32127
  0
ARC
  5
119
100
AcDbEntity
  8
_____1
  6
ByLayer
 62
    0
370
   -1
100
AcDbCircle
 10
40.49269
 20
160.13215
 40
0.82295
100
AcDbArc
 50
6.94789
 51
85.5322
  0
ARC
  5
11A
100
AcDbEntity
  8
_____1
  6
ByLayer
 62
    0
370
   -1
100
AcDbCircle
 10
48.29998
 20
161.30061
 40
7.07163
100
AcDbArc
 50
-171.30614
 51
-134.0366
  0
ARC
  5
11B
100
AcDbEntity
  8
_____1
  6
ByLayer
 62
    0
370
   -1
100
AcDbCircle
 10
48.13519
 20
161.58427
 40
7.16795
100
AcDbArc
 50
-131.51274
 51
-94.5192
  0
ARC
  5
11C
100
AcDbEntity
  8
_____1
  6
ByLayer
 62
    0
370
   -1
100
AcDbCircle
 10
47.44038
 20
153.5357
 40
0.91222
100
AcDbArc
 50
12.07987
 51
81.80574
  0
ARC
  5
11D
100
AcDbEntity
  8
_____1
  6
ByLayer
 62
    0
370
   -1
100
AcDbCircle
 10
56.77378
 20
154.16208
 40
8.45261
100
AcDbArc
 50
-177.04678
 51
-140.06203
  0
ARC
  5
11E
100
AcDbEntity
  8
_____1
  6
ByLayer
 62
    0
370
   -1
100
AcDbCircle
 10
56.2679
 20
154.16411
 40
8.07263
100
AcDbArc
 50
-137.7454
 51
-98.80862999999999
  0
ARC
  5
11F
100
AcDbEntity
  8
_____1
  6
ByLayer
 62
    0
370
   -1
100
AcDbCircle
 10
54.81249
 20
145.28065
 40
0.93219
100
AcDbArc
 50
6.86673
 51
76.39946
  0
ARC
  5
120
100
AcDbEntity
  8
_____1
  6
ByLayer
 62
    0
370
   -1
100
AcDbCircle
 10
66.46142
 20
145.94153
 40
10.73749
100
AcDbArc
 50
-177.06692
 51
-145.75667
  0
ARC
  5
121
100
AcDbEntity
  8
_____1
  6
ByLayer
 62
    0
370
   -1
100
AcDbCircle
 10
67.49281000000001
 20
147.54238
 40
12.51298
100
AcDbArc
 50
-142.35263
 51
-128.86486
  0
ARC
  5
122
100
AcDbEntity
  8
_____1
  6
ByLayer
 62
    0
370
   -1
100
AcDbCircle
 10
55.98207
 20
133.92022
 40
5.3326
100
AcDbArc
 50
30.90593
 51
46.67305
  0
ARC
  5
123
100
AcDbEntity
  8
_____1
  6
ByLayer
 62
    0
370
   -1
100
AcDbCircle
 10
58.89235
 20
135.87429
 40
1.84088
100
AcDbArc
 50
-20.5932
 51
25.23794
  0
ARC
  5
124
100
AcDbEntity
  8
_____1
  6
ByLayer
 62
    0
370
   -1
100
AcDbCircle
 10
69.88946
 20
131.82222
 40
9.879049999999999
100
AcDbArc
 50
159.84104
 51
-174.72256
  0
ARC
  5
125
100
AcDbEntity
  8
_____1
  6
ByLayer
 62
    0
370
   -1
100
AcDbCircle
 10
65.20350000000001
 20
131.90822
 40
5.24637
100
AcDbArc
 50
-169.07112
 51
-120.82973
  0
ARC
  5
126
100
AcDbEntity
  8
_____1
  6
ByLayer
 62
    0
370
   -1
100
AcDbCircle
 10
58.38686
 20
121.33779
 40
7.33683
100
AcDbArc
 50
42.52772
 51
55.76192
  0
ARC
  5
127
100
AcDbEntity
  8
_____1
  6
ByLayer
 62
    0
370
   -1
100
AcDbCircle
 10
61.15212
 20
124.01416
 40
3.49141
100
AcDbArc
 50
13.09928
 51
40.8343
  0
ARC
  5
128
100
AcDbEntity
  8
_____1
  6
ByLayer
 62
    0
370
   -1
100
AcDbCircle
 10
60.99992
 20
124.11767
 40
3.61872
100
AcDbArc
 50
-15.91641
 51
10.95627
  0
ARC
  5
129
100
AcDbEntity
  8
_____1
  6
ByLayer
 62
    0
370
   -1
100
AcDbCircle
 10
53.89078
 20
125.43377
 40
10.83784
100
AcDbArc
 50
-21.26944
 51
-12.29832
  0
ARC
  5
12A
100
AcDbEntity
  8
_____1
  6
ByLayer
 62
    0
370
   -1
100
AcDbCircle
 10
108.99238
 20
105.61925
 40
47.72263
100
AcDbArc
 50
160.55997
 51
165.73689
  0
ARC
  5
12B
100
AcDbEntity
  8
_____1
  6
ByLayer
 62
    0
370
   -1
100
AcDbCircle
 10
72.5908
 20
115.69498
 40
9.99255
100
AcDbArc
 50
170.30993
 51
-164.96547
  0
ARC
  5
12C
100
AcDbEntity
  8
_____1
  6
ByLayer
 62
    0
370
   -1
100
AcDbCircle
 10
58.01502
 20
111.7014
 40
5.1208
100
AcDbArc
 50
-25.74177
 51
15.88385
  0
ARC
  5
12D
100
AcDbEntity
  8
_____1
  6
ByLayer
 62
    0
370
   -1
100
AcDbCircle
 10
-2.84248
 20
134.47611
 40
70.08047999999999
100
AcDbArc
 50
-23.92718
 51
-20.89859
  0
ARC
  5
12E
100
AcDbEntity
  8
_____1
  6
ByLayer
 62
    0
370
   -1
100
AcDbCircle
 10
68.83231000000001
 20
103.74016
 40
7.96037
100
AcDbArc
 50
163.10797
 51
-156.79186
  0
ARC
  5
12F
100
AcDbEntity
  8
_____1
  6
ByLayer
 62
    0
370
   -1
100
AcDbCircle
 10
2066.26906
 20
-892.90269
 40
2237.42897
100
AcDbArc
 50
153.63812
 51
153.76141
  0
ARC
  5
130
100
AcDbEntity
  8
_____1
  6
ByLayer
 62
    0
370
   -1
100
AcDbCircle
 10
67.79170000000001
 20
93.0532
 40
9.009169999999999
100
AcDbArc
 50
158.96231
 51
174.25477
  0
ARC
  5
131
100
AcDbEntity
  8
_____1
  6
ByLayer
 62
    0
370
   -1
100
AcDbCircle
 10
62.1572
 20
93.82297
 40
3.33203
100
AcDbArc
 50
177.72782
 51
-141.06082
  0
ARC
  5
132
100
AcDbEntity
  8
_____1
  6
ByLayer
 62
    0
370
   -1
100
AcDbCircle
 10
66.05493
 20
86.06780999999999
 40
8.611599999999999
100
AcDbArc
 50
138.90049
 51
160.00721
  0
ARC
  5
133
100
AcDbEntity
  8
_____1
  6
ByLayer
 62
    0
370
   -1
100
AcDbCircle
 10
74.68534
 20
81.85834
 40
18.18892
100
AcDbArc
 50
156.8397
 51
166.81527
  0
ARC
  5
134
100
AcDbEntity
  8
_____1
  6
ByLayer
 62
    0
370
   -1
100
AcDbCircle
 10
72.31282
 20
82.41970000000001
 40
15.7509
100
AcDbArc
 50
166.83496
 51
178.35079
  0
ARC
  5
135
100
AcDbEntity
  8
_____1
  6
ByLayer
 62
    0
370
   -1
100
AcDbCircle
 10
63.8922
 20
82.81301999999999
 40
7.32399
100
AcDbArc
 50
179.5307
 51
-155.7893
  0
ARC
  5
136
100
AcDbEntity
  8
_____1
  6
ByLayer
 62
    0
370
   -1
100
AcDbCircle
 10
32.1798
 20
-16.60699
 40
24.75315
100
AcDbArc
 50
-40.98216
 51
-28.09864
  0
ARC
  5
137
100
AcDbEntity
  8
_____1
  6
ByLayer
 62
    0
370
   -1
100
AcDbCircle
 10
77.38182
 20
-27.91566
 40
26.96903
100
AcDbArc
 50
-169.4777
 51
-166.55691
  0
ARC
  5
138
100
AcDbEntity
  8
_____1
  6
ByLayer
 62
    0
370
   -1
100
AcDbCircle
 10
48.96027
 20
-34.5682
 40
2.22461
100
AcDbArc
 50
-24.79652
 51
9.90823
  0
ARC
  5
139
100
AcDbEntity
  8
_____1
  6
ByLayer
 62
    0
370
   -1
100
AcDbCircle
 10
49.98165
 20
-34.60205
 40
1.3434
100
AcDbArc
 50
-101.84856
 51
-42.01324
  0
ARC
  5
13A
100
AcDbEntity
  8
_____1
  6
ByLayer
 62
    0
370
   -1
100
AcDbCircle
 10
49.4218
 20
-28.38607
 40
7.53612
100
AcDbArc
 50
-98.43841999999999
 51
-87.84016
  0
ARC
  5
13B
100
AcDbEntity
  8
_____1
  6
ByLayer
 62
    0
370
   -1
100
AcDbCircle
 10
6.34798
 20
2.22742
 40
56.6611
100
AcDbArc
 50
-47.78964
 51
-42.21036
  0
ARC
  5
13C
100
AcDbEntity
  8
_____1
  6
ByLayer
 62
    0
370
   -1
100
AcDbCircle
 10
-53.42963
 20
-39.7405
 40
97.84563
100
AcDbArc
 50
-0.813320000001
 51
-0
  0
ARC
  5
13D
100
AcDbEntity
  8
_____1
  6
ByLayer
 62
    0
370
   -1
100
AcDbCircle
 10
41.33139
 20
-41.00459
 40
3.07728
100
AcDbArc
 50
-27.86521
 51
-2.32426
  0
ARC
  5
13E
100
AcDbEntity
  8
_____1
  6
ByLayer
 62
    0
370
   -1
100
AcDbCircle
 10
43.2274
 20
-41.63145
 40
1.15679
100
AcDbArc
 50
-115.2928
 51
-44.54384
  0
ARC
  5
13F
100
AcDbEntity
  8
_____1
  6
ByLayer
 62
    0
370
   -1
100
AcDbCircle
 10
43.85061
 20
-34.42837
 40
8.32432
100
AcDbArc
 50
-107.53928
 51
-97.71462
  0
ARC
  5
140
100
AcDbEntity
  8
_____1
  6
ByLayer
 62
    0
370
   -1
100
AcDbCircle
 10
25.07705
 20
-24.28234
 40
24.32194
100
AcDbArc
 50
-57.36979
 51
-48.03043
  0
ARC
  5
141
100
AcDbEntity
  8
_____1
  6
ByLayer
 62
    0
370
   -1
100
AcDbCircle
 10
42.71431
 20
-46.63212
 40
4.89259
100
AcDbArc
 50
157.57211
 51
177.89401
  0
ARC
  5
142
100
AcDbEntity
  8
_____1
  6
ByLayer
 62
    0
370
   -1
100
AcDbCircle
 10
-23.88192
 20
-40.01099
 40
62.04223
100
AcDbArc
 50
-6.75916
 51
-5.95929
  0
ARC
  5
143
100
AcDbEntity
  8
_____1
  6
ByLayer
 62
    0
370
   -1
100
AcDbCircle
 10
35.98833
 20
-47.01489
 40
1.76613
100
AcDbArc
 50
-37.57554
 51
-9.72189
  0
ARC
  5
144
100
AcDbEntity
  8
_____1
  6
ByLayer
 62
    0
370
   -1
100
AcDbCircle
 10
36.73848
 20
-47.37718
 40
0.9658099999999999
100
AcDbArc
 50
-99.61696000000001
 51
-47.73221
  0
ARC
  5
145
100
AcDbEntity
  8
_____1
  6
ByLayer
 62
    0
370
   -1
100
AcDbCircle
 10
36.65985
 20
-44.6856
 40
3.64475
100
AcDbArc
 50
-104.92248
 51
-91.30054
  0
ARC
  5
146
100
AcDbEntity
  8
_____1
  6
ByLayer
 62
    0
370
   -1
100
AcDbCircle
 10
38.33649
 20
-36.95188
 40
11.55537
100
AcDbArc
 50
-111.68199
 51
-103.08045
  0
ARC
  5
147
100
AcDbEntity
  8
_____1
  6
ByLayer
 62
    0
370
   -1
100
AcDbCircle
 10
55.68429
 20
-85.04264999999999
 40
43.15711
100
AcDbArc
 50
120.05893
 51
123.09564
  0
ARC
  5
148
100
AcDbEntity
  8
_____1
  6
ByLayer
 62
    0
370
   -1
100
AcDbCircle
 10
22.22079
 20
-32.31634
 40
19.30206
100
AcDbArc
 50
-65.93482
 51
-59.14959999999999
  0
ARC
  5
149
100
AcDbEntity
  8
_____1
  6
ByLayer
 62
    0
370
   -1
100
AcDbCircle
 10
-46.55791
 20
-35.3579
 40
78.02449
100
AcDbArc
 50
-12.09126
 51
-10.77195
  0
ARC
  5
14A
100
AcDbEntity
  8
_____1
  6
ByLayer
 62
    0
370
   -1
100
AcDbCircle
 10
26.89637
 20
-50.94533
 40
2.93825
100
AcDbArc
 50
-49.32895
 51
-14.91601
  0
ARC
  5
14B
100
AcDbEntity
  8
_____1
  6
ByLayer
 62
    0
370
   -1
100
AcDbCircle
 10
28.39305
 20
-52.16659
 40
1.09067
100
AcDbArc
 50
-114.95071
 51
-67.45174
  0
ARC
  5
14C
100
AcDbEntity
  8
_____1
  6
ByLayer
 62
    0
370
   -1
100
AcDbCircle
 10
28.9149
 20
-50.2805
 40
3.03803
100
AcDbArc
 50
-125.80794
 51
-108.85748
  0
ARC
  5
14D
100
AcDbEntity
  8
_____1
  6
ByLayer
 62
    0
370
   -1
100
AcDbCircle
 10
31.94251
 20
-45.51901
 40
8.67718
100
AcDbArc
 50
-135.60479
 51
-123.62536
  0
ARC
  5
14E
100
AcDbEntity
  8
_____1
  6
ByLayer
 62
    0
370
   -1
100
AcDbCircle
 10
10.61402
 20
-15.71934
 40
38.92998
100
AcDbArc
 50
-74.95846
 51
-67.13227999999999
  0
ARC
  5
14F
100
AcDbEntity
  8
_____1
  6
ByLayer
 62
    0
370
   -1
100
AcDbCircle
 10
64.68707000000001
 20
-87.70784999999999
 40
55.82286
100
AcDbArc
 50
141.96826
 51
143.3976
  0
ARC
  5
150
100
AcDbEntity
  8
_____1
  6
ByLayer
 62
    0
370
   -1
100
AcDbCircle
 10
16.96382
 20
-52.17703
 40
3.67519
100
AcDbArc
 50
-59.18974
 51
-37.6702
  0
ARC
  5
151
100
AcDbEntity
  8
_____1
  6
ByLayer
 62
    0
370
   -1
100
AcDbCircle
 10
18.44594
 20
-54.08696
 40
1.30928
100
AcDbArc
 50
-134.37572
 51
-72.19683000000001
  0
ARC
  5
152
100
AcDbEntity
  8
_____1
  6
ByLayer
 62
    0
370
   -1
100
AcDbCircle
 10
21.73894
 20
-47.72356
 40
8.425649999999999
100
AcDbArc
 50
-129.60993
 51
-119.96728
  0
ARC
  5
153
100
AcDbEntity
  8
_____1
  6
ByLayer
 62
    0
370
   -1
100
AcDbCircle
 10
11.78388
 20
-40.63648
 40
14.33087
100
AcDbArc
 50
-91.16343999999999
 51
-71.34829999999999
  0
ARC
  5
154
100
AcDbEntity
  8
_____1
  6
ByLayer
 62
    0
370
   -1
100
AcDbCircle
 10
19.93297
 20
-65.71575
 40
13.66844
100
AcDbArc
 50
128.13277
 51
133.78193
  0
ARC
  5
155
100
AcDbEntity
  8
_____1
  6
ByLayer
 62
    0
370
   -1
100
AcDbCircle
 10
7.59885
 20
-52.63639
 40
4.31117
100
AcDbArc
 50
-65.92912
 51
-48.14338
  0
ARC
  5
156
100
AcDbEntity
  8
_____1
  6
ByLayer
 62
    0
370
   -1
100
AcDbCircle
 10
9.125529999999999
 20
-55.44493
 40
1.1513
100
AcDbArc
 50
-146.65615
 51
-78.3897
  0
ARC
  5
157
100
AcDbEntity
  8
_____1
  6
ByLayer
 62
    0
370
   -1
100
AcDbCircle
 10
12.14588
 20
-51.85242
 40
5.8061
100
AcDbArc
 50
-146.70003
 51
-133.30266
  0
ARC
  5
158
100
AcDbEntity
  8
_____1
  6
ByLayer
 62
    0
370
   -1
100
AcDbCircle
 10
6.24773
 20
-28.90576
 40
26.15524
100
AcDbArc
 50
-103.94808
 51
-87.70939
  0
ARC
  5
159
100
AcDbEntity
  8
_____1
  6
ByLayer
 62
    0
370
   -1
100
AcDbCircle
 10
22.35308
 20
-95.80318
 40
47.17588
100
AcDbArc
 50
118.36119
 51
119.76368
  0
ARC
  5
15A
100
AcDbEntity
  8
_____1
  6
ByLayer
 62
    0
370
   -1
100
AcDbCircle
 10
-2.20757
 20
-52.68708
 40
2.44627
100
AcDbArc
 50
-88.89434
 51
-62.18648
  0
ARC
  5
15B
100
AcDbEntity
  8
_____1
  6
ByLayer
 62
    0
370
   -1
100
AcDbCircle
 10
-1.88896
 20
-54.01337
 40
1.15195
100
AcDbArc
 50
-162.11235
 51
-103.62731
  0
ARC
  5
15C
100
AcDbEntity
  8
_____1
  6
ByLayer
 62
    0
370
   -1
100
AcDbCircle
 10
2.51269
 20
-50.98653
 40
6.45414
100
AcDbArc
 50
-158.84768
 51
-148.41269
  0
ARC
  5
15D
100
AcDbEntity
  8
_____1
  6
ByLayer
 62
    0
370
   -1
100
AcDbCircle
 10
20.78655
 20
-0.28935
 40
58.32607
100
AcDbArc
 50
-119.32692
 51
-114.61418
  0
ARC
  5
15E
100
AcDbEntity
  8
_____1
  6
ByLayer
 62
    0
370
   -1
100
AcDbCircle
 10
-9.15826
 20
-41.57656
 40
9.66239
100
AcDbArc
 50
-94.45349
 51
-81.80584
  0
ARC
  5
15F
100
AcDbEntity
  8
_____1
  6
ByLayer
 62
    0
370
   -1
100
AcDbCircle
 10
-9.61443
 20
-50.2042
 40
1.0477
100
AcDbArc
 50
-164.84367
 51
-106.30314
  0
ARC
  5
160
100
AcDbEntity
  8
_____1
  6
ByLayer
 62
    0
370
   -1
100
AcDbCircle
 10
-7.69648
 20
-49.50562
 40
3.08643
100
AcDbArc
 50
178.33048
 51
-161.63383
  0
ARC
  5
161
100
AcDbEntity
  8
_____1
  6
ByLayer
 62
    0
370
   -1
100
AcDbCircle
 10
-43.05393
 20
-91.11957
 40
52.73249
100
AcDbArc
 50
52.26568
 51
54.55739
  0
ARC
  5
162
100
AcDbEntity
  8
_____1
  6
ByLayer
 62
    0
370
   -1
100
AcDbCircle
 10
-6.06791
 20
-39.82695
 40
10.51034
100
AcDbArc
 50
-139.0502
 51
-127.56074
  0
ARC
  5
163
100
AcDbEntity
  8
_____1
  6
ByLayer
 62
    0
370
   -1
100
AcDbCircle
 10
-15.68409
 20
-34.03218
 40
12.79373
100
AcDbArc
 50
-88.01047
 51
-82.464
  0
ARC
  5
164
100
AcDbEntity
  8
_____1
  6
ByLayer
 62
    0
370
   -1
100
AcDbCircle
 10
-15.24061
 20
-44.46066
 40
2.35753
100
AcDbArc
 50
-119.73269
 51
-89.98342
  0
ARC
  5
165
100
AcDbEntity
  8
_____1
  6
ByLayer
 62
    0
370
   -1
100
AcDbCircle
 10
-15.6098
 20
-45.65396
 40
1.1701
100
AcDbArc
 50
165.00801
 51
-133.13622
  0
ARC
  5
166
100
AcDbEntity
  8
_____1
  6
ByLayer
 62
    0
370
   -1
100
AcDbCircle
 10
-8.91897
 20
-45.39258
 40
7.82121
100
AcDbArc
 50
170.41522
 51
179.69736
  0
ARC
  5
167
100
AcDbEntity
  8
_____1
  6
ByLayer
 62
    0
370
   -1
100
AcDbCircle
 10
-2.20928
 20
-32.04742
 40
18.78874
100
AcDbArc
 50
-153.04118
 51
-140.13638
  0
ARC
  5
168
100
AcDbEntity
  8
_____1
  6
ByLayer
 62
    0
370
   -1
100
AcDbCircle
 10
-36.44683
 20
-101.65717
 40
63.54632
100
AcDbArc
 50
74.02365
 51
75.18352
  0
ARC
  5
169
100
AcDbEntity
  8
_____1
  6
ByLayer
 62
    0
370
   -1
100
AcDbCircle
 10
-19.18938
 20
-36.81732
 40
3.55222
100
AcDbArc
 50
-127.05133
 51
-106.47064
  0
ARC
  5
16A
100
AcDbEntity
  8
_____1
  6
ByLayer
 62
    0
370
   -1
100
AcDbCircle
 10
-20.49651
 20
-38.96303
 40
1.08136
100
AcDbArc
 50
149.85106
 51
-140.39858
  0
ARC
  5
16B
100
AcDbEntity
  8
_____1
  6
ByLayer
 62
    0
370
   -1
100
AcDbCircle
 10
-14.95689
 20
-40.09442
 40
6.68772
100
AcDbArc
 50
154.26358
 51
165.49968
  0
ARC
  5
16C
100
AcDbEntity
  8
_____1
  6
ByLayer
 62
    0
370
   -1
100
AcDbCircle
 10
-12.6372
 20
-31.94129
 40
9.857760000000001
100
AcDbArc
 50
-176.94997
 51
-147.82648
  0
ARC
  5
16D
100
AcDbEntity
  8
_____1
  6
ByLayer
 62
    0
370
   -1
100
AcDbCircle
 10
-19.78448
 20
-28.77582
 40
4.57025
100
AcDbArc
 50
-149.00976
 51
-126.15819
  0
ARC
  5
16E
100
AcDbEntity
  8
_____1
  6
ByLayer
 62
    0
370
   -1
100
AcDbCircle
 10
-22.87536
 20
-31.00993
 40
0.83552
100
AcDbArc
 50
123.60981
 51
-171.80632
  0
ARC
  5
16F
100
AcDbEntity
  8
_____1
  6
ByLayer
 62
    0
370
   -1
100
AcDbCircle
 10
-19.58249
 20
-33.85989
 40
5.16482
100
AcDbArc
 50
126.17021
 51
136.64398
  0
ARC
  5
170
100
AcDbEntity
  8
_____1
  6
ByLayer
 62
    0
370
   -1
100
AcDbCircle
 10
-5.03472
 20
-29.6905
 40
17.59598
100
AcDbArc
 50
162.38769
 51
180
  0
ARC
  5
171
100
AcDbEntity
  8
_____1
  6
ByLayer
 62
    0
370
   -1
100
AcDbCircle
 10
-16.36437
 20
-19.83165
 40
7.08337
100
AcDbArc
 50
-148.44873
 51
-140.19358
  0
ARC
  5
172
100
AcDbEntity
  8
_____1
  6
ByLayer
 62
    0
370
   -1
100
AcDbCircle
 10
-21.51424
 20
-23.06653
 40
1.00402
100
AcDbArc
 50
151.13525
 51
-151.9856
  0
ARC
  5
173
100
AcDbEntity
  8
_____1
  6
ByLayer
 62
    0
370
   -1
100
AcDbCircle
 10
-21.01811
 20
-23.6339
 40
1.73165
100
AcDbArc
 50
108.57675
 51
142.58764
  0
ARC
  5
174
100
AcDbEntity
  8
_____1
  6
ByLayer
 62
    0
370
   -1
100
AcDbCircle
 10
-18.19844
 20
-28.74055
 40
7.54337
100
AcDbArc
 50
108.6123
 51
116.54664
  0
ARC
  5
175
100
AcDbEntity
  8
_____1
  6
ByLayer
 62
    0
370
   -1
100
AcDbCircle
 10
-8.350020000000001
 20
-27.36905
 40
13.54942
100
AcDbArc
 50
133.96158
 51
154.76128
  0
ARC
  5
176
100
AcDbEntity
  8
_____1
  6
ByLayer
 62
    0
370
   -1
100
AcDbCircle
 10
78.74659
 20
-10.36593
 40
96.77424999999999
100
AcDbArc
 50
-176.30653
 51
-175.70347
  0
ARC
  5
177
100
AcDbEntity
  8
_____1
  6
ByLayer
 62
    0
370
   -1
100
AcDbCircle
 10
-15.64272
 20
-16.54465
 40
2.18465
100
AcDbArc
 50
155.05304
 51
-178.5482
  0
ARC
  5
178
100
AcDbEntity
  8
_____1
  6
ByLayer
 62
    0
370
   -1
100
AcDbCircle
 10
-16.89147
 20
-16.22614
 40
0.94839
100
AcDbArc
 50
77.77818000000001
 51
140.52481
  0
ARC
  5
179
100
AcDbEntity
  8
_____1
  6
ByLayer
 62
    0
370
   -1
100
AcDbCircle
 10
-16.51804
 20
-20.69668
 40
5.40019
100
AcDbArc
 50
80.81668000000001
 51
91.83222000000001
  0
ARC
  5
17A
100
AcDbEntity
  8
_____1
  6
ByLayer
 62
    0
370
   -1
100
AcDbCircle
 10
-6.65305
 20
-28.33486
 40
15.78784
100
AcDbArc
 50
105.43988
 51
124.76826
  0
ARC
  5
17B
100
AcDbEntity
  8
_____1
  6
ByLayer
 62
    0
370
   -1
100
AcDbCircle
 10
-5.76137
 20
-14.78004
 40
5.35944
100
AcDbArc
 50
152.62745
 51
161.92039
  0
ARC
  5
17C
100
AcDbEntity
  8
_____1
  6
ByLayer
 62
    0
370
   -1
100
AcDbCircle
 10
-9.47068
 20
-12.92079
 40
1.21183
100
AcDbArc
 50
109.58213
 51
150.05604
  0
ARC
  5
17D
100
AcDbEntity
  8
_____1
  6
ByLayer
 62
    0
370
   -1
100
AcDbCircle
 10
-9.741569999999999
 20
-12.76486
 40
0.99504
100
AcDbArc
 50
47.15564
 51
97.81310000000001
  0
ARC
  5
17E
100
AcDbEntity
  8
_____1
  6
ByLayer
 62
    0
370
   -1
100
AcDbCircle
 10
-11.15951
 20
-15.30495
 40
3.88303
100
AcDbArc
 50
44.3264
 51
57.35594
  0
ARC
  5
17F
100
AcDbEntity
  8
_____1
  6
ByLayer
 62
    0
370
   -1
100
AcDbCircle
 10
-8.3817
 20
75.31161
 40
87.90331
100
AcDbArc
 50
-90
 51
-88.54352
  0
ARC
  5
180
100
AcDbEntity
  8
_____1
  6
ByLayer
 62
    0
370
   -1
100
AcDbCircle
 10
-6.52677
 20
-20.7787
 40
8.22415
100
AcDbArc
 50
71.78625
 51
87.3561
  0
ARC
  5
181
100
AcDbEntity
  8
_____1
  6
ByLayer
 62
    0
370
   -1
100
AcDbCircle
 10
16.66761
 20
-49.79595
 40
42.2107
100
AcDbArc
 50
117.86083
 51
119.24809
  0
ARC
  5
182
100
AcDbEntity
  8
_____1
  6
ByLayer
 62
    0
370
   -1
100
AcDbCircle
 10
-2.46269
 20
-13.70847
 40
1.36705
100
AcDbArc
 50
74.35169999999999
 51
115.83936
  0
ARC
  5
183
100
AcDbEntity
  8
_____1
  6
ByLayer
 62
    0
370
   -1
100
AcDbCircle
 10
-2.82184
 20
-13.36411
 40
1.21435
100
AcDbArc
 50
4.13009
 51
53.17275
  0
ARC
  5
184
100
AcDbEntity
  8
_____1
  6
ByLayer
 62
    0
370
   -1
100
AcDbCircle
 10
-11.12795
 20
-16.37595
 40
10.00923
100
AcDbArc
 50
12.1874
 51
18.03778
  0
ARC
  5
185
100
AcDbEntity
  8
_____1
  6
ByLayer
 62
    0
370
   -1
100
AcDbCircle
 10
60.26567
 20
86.93057
 40
7.75192
100
AcDbArc
 50
-113.1699
 51
-88.86036
  0
ARC
  5
186
100
AcDbEntity
  8
_____1
  6
ByLayer
 62
    0
370
   -1
100
AcDbCircle
 10
58.07665
 20
27.94051
 40
51.29322
100
AcDbArc
 50
85.54874
 51
87.38169000000001
  0
ARC
  5
187
100
AcDbEntity
  8
_____1
  6
ByLayer
 62
    0
370
   -1
100
AcDbCircle
 10
61.67844
 20
76.10795
 40
2.99515
100
AcDbArc
 50
51.57736
 51
82.72784
  0
ARC
  5
188
100
AcDbEntity
  8
_____1
  6
ByLayer
 62
    0
370
   -1
100
AcDbCircle
 10
48.52789
 20
62.59197
 40
21.83981
100
AcDbArc
 50
34.49814
 51
46.57816
  0
ARC
  5
189
100
AcDbEntity
  8
_____1
  6
ByLayer
 62
    0
370
   -1
100
AcDbCircle
 10
36.88547
 20
53.74233
 40
36.45381
100
AcDbArc
 50
28.35997
 51
35.5974
  0
ARC
  5
18A
100
AcDbEntity
  8
_____1
  6
ByLayer
 62
    0
370
   -1
100
AcDbCircle
 10
25.03582
 20
46.95621
 40
50.10592
100
AcDbArc
 50
18.2222
 51
28.75215
  0
ARC
  5
18B
100
AcDbEntity
  8
_____1
  6
ByLayer
 62
    0
370
   -1
100
AcDbCircle
 10
24.23978
 20
46.3941
 40
51.03861
100
AcDbArc
 50
8.20655
 51
18.54213
  0
ARC
  5
18C
100
AcDbEntity
  8
_____1
  6
ByLayer
 62
    0
370
   -1
100
AcDbCircle
 10
41.91809
 20
49.23876
 40
33.13656
100
AcDbArc
 50
-8.21054
 51
7.701489999999999
  0
ARC
  5
18D
100
AcDbEntity
  8
_____1
  6
ByLayer
 62
    0
370
   -1
100
AcDbCircle
 10
58.27552
 20
47.47196
 40
16.7048
100
AcDbArc
 50
-20.15799
 51
-10.22543
  0
ARC
  5
18E
100
AcDbEntity
  8
_____1
  6
ByLayer
 62
    0
370
   -1
100
AcDbCircle
 10
72.97355
 20
42.23802
 40
1.11381
100
AcDbArc
 50
-100.01189
 51
-27.98819
  0
ARC
  5
18F
100
AcDbEntity
  8
_____1
  6
ByLayer
 62
    0
370
   -1
100
AcDbCircle
 10
73.75509
 20
44.42189
 40
3.42259
100
AcDbArc
 50
-131.43107
 51
-106.5544
  0
ARC
  5
190
100
AcDbEntity
  8
_____1
  6
ByLayer
 62
    0
370
   -1
100
AcDbCircle
 10
27.14334
 20
-22.02659
 40
77.7664
100
AcDbArc
 50
55.23174
 51
58.18629000000001
  0
ARC
  5
191
100
AcDbEntity
  8
_____1
  6
ByLayer
 62
    0
370
   -1
100
AcDbCircle
 10
57.87162
 20
26.87626
 40
20.01445
100
AcDbArc
 50
59.13756000000001
 51
70.61167
  0
ARC
  5
192
100
AcDbEntity
  8
_____1
  6
ByLayer
 62
    0
370
   -1
100
AcDbCircle
 10
62.57156
 20
39.43063
 40
6.61714
100
AcDbArc
 50
72.91329
 51
105.02624
  0
ARC
  5
193
100
AcDbEntity
  8
_____1
  6
ByLayer
 62
    0
370
   -1
100
AcDbCircle
 10
61.79291
 20
42.74193
 40
3.21895
100
AcDbArc
 50
106.92153
 51
139.78186
  0
ARC
  5
194
100
AcDbEntity
  8
_____1
  6
ByLayer
 62
    0
370
   -1
100
AcDbCircle
 10
60.93431
 20
43.72624
 40
1.93783
100
AcDbArc
 50
145.62306
 51
-159.74617
  0
ARC
  5
195
100
AcDbEntity
  8
_____1
  6
ByLayer
 62
    0
370
   -1
100
AcDbCircle
 10
-159.88948
 20
-19.77413
 40
227.84004
100
AcDbArc
 50
14.27534
 51
16.0074
  0
ARC
  5
196
100
AcDbEntity
  8
_____1
  6
ByLayer
 62
    0
370
   -1
100
AcDbCircle
 10
57.33887
 20
29.84054
 40
7.47733
100
AcDbArc
 50
41.69191
 51
61.4254
  0
ARC
  5
197
100
AcDbEntity
  8
_____1
  6
ByLayer
 62
    0
370
   -1
100
AcDbCircle
 10
61.92366
 20
34.27282
 40
1.13593
100
AcDbArc
 50
-36.6911
 51
28.4464
  0
ARC
  5
198
100
AcDbEntity
  8
_____1
  6
ByLayer
 62
    0
370
   -1
100
AcDbCircle
 10
60.39339
 20
35.24333
 40
2.94602
100
AcDbArc
 50
-59.44834
 51
-34.04292
  0
ARC
  5
199
100
AcDbEntity
  8
_____1
  6
ByLayer
 62
    0
370
   -1
100
AcDbCircle
 10
38.02687
 20
26.49777
 40
24.65842
100
AcDbArc
 50
3.45011
 51
14.58294
  0
ARC
  5
19A
100
AcDbEntity
  8
_____1
  6
ByLayer
 62
    0
370
   -1
100
AcDbCircle
 10
66.71261
 20
30.74214
 40
4.91948
100
AcDbArc
 50
-145.86641
 51
-125.72541
  0
ARC
  5
19B
100
AcDbEntity
  8
_____1
  6
ByLayer
 62
    0
370
   -1
100
AcDbCircle
 10
56.69484
 20
18.34317
 40
11.03189
100
AcDbArc
 50
40.69643
 51
49.63212
  0
ARC
  5
19C
100
AcDbEntity
  8
_____1
  6
ByLayer
 62
    0
370
   -1
100
AcDbCircle
 10
64.0689
 20
24.93442
 40
1.15876
100
AcDbArc
 50
-54.48246
 51
31.30633
  0
ARC
  5
19D
100
AcDbEntity
  8
_____1
  6
ByLayer
 62
    0
370
   -1
100
AcDbCircle
 10
61.66846
 20
26.97907
 40
4.28651
100
AcDbArc
 50
-55.73567
 51
-44.18891
  0
ARC
  5
19E
100
AcDbEntity
  8
_____1
  6
ByLayer
 62
    0
370
   -1
100
AcDbCircle
 10
59.67029
 20
29.55151
 40
7.54023
100
AcDbArc
 50
-57.46688
 51
-54.19237
  0
ARC
  5
19F
100
AcDbEntity
  8
_____1
  6
ByLayer
 62
    0
370
   -1
100
AcDbCircle
 10
60.05947
 20
28.79958
 40
6.69743
100
AcDbArc
 50
-58.65698
 51
-56.81441
  0
ARC
  5
1A0
100
AcDbEntity
  8
_____1
  6
ByLayer
 62
    0
370
   -1
100
AcDbCircle
 10
62.63847
 20
24.53436
 40
1.71321
100
AcDbArc
 50
-59.13261
 51
-58.1234
  0
ARC
  5
1A1
100
AcDbEntity
  8
_____1
  6
ByLayer
 62
    0
370
   -1
100
AcDbCircle
 10
63.78853
 20
22.62347
 40
0.5171
100
AcDbArc
 50
120.07306
 51
121.61781
  0
ARC
  5
1A2
100
AcDbEntity
  8
_____1
  6
ByLayer
 62
    0
370
   -1
100
AcDbCircle
 10
54.8089
 20
37.25366
 40
16.64922
100
AcDbArc
 50
-58.67214000000001
 51
-58.41390999999999
  0
ARC
  5
1A3
100
AcDbEntity
  8
_____1
  6
ByLayer
 62
    0
370
   -1
100
AcDbCircle
 10
40.59824
 20
18.47673
 40
23.31643
100
AcDbArc
 50
0.135329999996
 51
11.26569
  0
ARC
  5
1A4
100
AcDbEntity
  8
_____1
  6
ByLayer
 62
    0
370
   -1
100
AcDbCircle
 10
67.36167
 20
20.54002
 40
3.9894
100
AcDbArc
 50
-149.77547
 51
-120.54071
  0
ARC
  5
1A5
100
AcDbEntity
  8
_____1
  6
ByLayer
 62
    0
370
   -1
100
AcDbCircle
 10
60.09581
 20
10.15098
 40
8.705690000000001
100
AcDbArc
 50
39.7729
 51
53.00465
  0
ARC
  5
1A6
100
AcDbEntity
  8
_____1
  6
ByLayer
 62
    0
370
   -1
100
AcDbCircle
 10
65.95891
 20
15.38521
 40
0.8932600000000001
100
AcDbArc
 50
-43.25369
 51
22.04047
  0
ARC
  5
1A7
100
AcDbEntity
  8
_____1
  6
ByLayer
 62
    0
370
   -1
100
AcDbCircle
 10
64.33866999999999
 20
16.46418
 40
2.8313
100
AcDbArc
 50
-57.20501
 51
-36.67466
  0
ARC
  5
1A8
100
AcDbEntity
  8
_____1
  6
ByLayer
 62
    0
370
   -1
100
AcDbCircle
 10
60.68847
 20
21.16383
 40
8.774570000000001
100
AcDbArc
 50
-60.40418
 51
-53.78849
  0
ARC
  5
1A9
100
AcDbEntity
  8
_____1
  6
ByLayer
 62
    0
370
   -1
100
AcDbCircle
 10
56.53635
 20
28.13791
 40
16.8902
100
AcDbArc
 50
-61.56297
 51
-59.84089
  0
ARC
  5
1AA
100
AcDbEntity
  8
_____1
  6
ByLayer
 62
    0
370
   -1
100
AcDbCircle
 10
58.86071
 20
23.73133
 40
11.9086
100
AcDbArc
 50
-62.51699
 51
-61.30084999999999
  0
ARC
  5
1AB
100
AcDbEntity
  8
_____1
  6
ByLayer
 62
    0
370
   -1
100
AcDbCircle
 10
59.81207
 20
21.79539
 40
9.752230000000001
100
AcDbArc
 50
-62.61705
 51
-62.2267
  0
ARC
  5
1AC
100
AcDbEntity
  8
_____1
  6
ByLayer
 62
    0
370
   -1
100
AcDbCircle
 10
-350.20245
 20
799.09311
 40
888.56005
100
AcDbArc
 50
-62.19314
 51
-62.18838999999999
  0
ARC
  5
1AD
100
AcDbEntity
  8
_____1
  6
ByLayer
 62
    0
370
   -1
100
AcDbCircle
 10
101.01663
 20
-56.31228
 40
78.55786000000001
100
AcDbArc
 50
117.73076
 51
117.80742
  0
ARC
  5
1AE
100
AcDbEntity
  8
_____1
  6
ByLayer
 62
    0
370
   -1
100
AcDbCircle
 10
56.22044
 20
28.65521
 40
17.49541
100
AcDbArc
 50
-62.53258
 51
-61.89516
  0
ARC
  5
1AF
100
AcDbEntity
  8
_____1
  6
ByLayer
 62
    0
370
   -1
100
AcDbCircle
 10
34.90235
 20
10.39455
 40
29.51497
100
AcDbArc
 50
-5.32171
 51
5.32171
  0
ARC
  5
1B0
100
AcDbEntity
  8
_____1
  6
ByLayer
 62
    0
370
   -1
100
AcDbCircle
 10
72.57286000000001
 20
17.22675
 40
12.65632
100
AcDbArc
 50
-130.87697
 51
-124.79213
  0
ARC
  5
1B1
100
AcDbEntity
  8
_____1
  6
ByLayer
 62
    0
370
   -1
100
AcDbCircle
 10
63.56556
 20
4.60301
 40
2.85681
100
AcDbArc
 50
24.66664
 51
51.31544
  0
ARC
  5
1B2
100
AcDbEntity
  8
_____1
  6
ByLayer
 62
    0
370
   -1
100
AcDbCircle
 10
65.45424
 20
5.67915
 40
0.71691
100
AcDbArc
 50
-44.57366
 51
9.32117
  0
ARC
  5
1B3
100
AcDbEntity
  8
_____1
  6
ByLayer
 62
    0
370
   -1
100
AcDbCircle
 10
64.592
 20
6.31674
 40
1.785
100
AcDbArc
 50
-61.3323
 51
-39.72237
  0
ARC
  5
1B4
100
AcDbEntity
  8
_____1
  6
ByLayer
 62
    0
370
   -1
100
AcDbCircle
 10
62.66483
 20
9.1778
 40
5.22957
100
AcDbArc
 50
-71.89344
 51
-57.84173
  0
ARC
  5
1B5
100
AcDbEntity
  8
_____1
  6
ByLayer
 62
    0
370
   -1
100
AcDbCircle
 10
42.18765
 20
4.11879
 40
22.10263
100
AcDbArc
 50
-12.50666
 51
0.22917
  0
ARC
  5
1B6
100
AcDbEntity
  8
_____1
  6
ByLayer
 62
    0
370
   -1
100
AcDbCircle
 10
110.08719
 20
43.13632
 40
63.75308
100
AcDbArc
 50
-136.60002
 51
-135.39058
  0
ARC
  5
1B7
100
AcDbEntity
  8
_____1
  6
ByLayer
 62
    0
370
   -1
100
AcDbCircle
 10
62.78139
 20
-3.35278
 40
2.57538
100
AcDbArc
 50
12.28446
 51
41.81939
  0
ARC
  5
1B8
100
AcDbEntity
  8
_____1
  6
ByLayer
 62
    0
370
   -1
100
AcDbCircle
 10
64.20520999999999
 20
-2.74051
 40
1.09448
100
AcDbArc
 50
-75.67851
 51
-3.36881
  0
ARC
  5
1B9
100
AcDbEntity
  8
_____1
  6
ByLayer
 62
    0
370
   -1
100
AcDbCircle
 10
61.48086
 20
1.35567
 40
5.96336
100
AcDbArc
 50
-72.8359
 51
-59.85111000000001
  0
ARC
  5
1BA
100
AcDbEntity
  8
_____1
  6
ByLayer
 62
    0
370
   -1
100
AcDbCircle
 10
37.85518
 20
-1.76091
 40
25.51641
100
AcDbArc
 50
-18.04955
 51
-5.80585
  0
ARC
  5
1BB
100
AcDbEntity
  8
_____1
  6
ByLayer
 62
    0
370
   -1
100
AcDbCircle
 10
135.24957
 20
52.58857
 40
96.0431
100
AcDbArc
 50
-139.59371
 51
-138.68816
  0
ARC
  5
1BC
100
AcDbEntity
  8
_____1
  6
ByLayer
 62
    0
370
   -1
100
AcDbCircle
 10
60.94034
 20
-12.52963
 40
2.76459
100
AcDbArc
 50
7.461210000000001
 51
38.33316
  0
ARC
  5
1BD
100
AcDbEntity
  8
_____1
  6
ByLayer
 62
    0
370
   -1
100
AcDbCircle
 10
62.90186
 20
-11.98708
 40
0.80097
100
AcDbArc
 50
-68.02629
 51
-13.24805
  0
ARC
  5
1BE
100
AcDbEntity
  8
_____1
  6
ByLayer
 62
    0
370
   -1
100
AcDbCircle
 10
61.95311
 20
-10.59089
 40
2.47666
100
AcDbArc
 50
-77.31547999999999
 51
-59.72907
  0
ARC
  5
1BF
100
AcDbEntity
  8
_____1
  6
ByLayer
 62
    0
370
   -1
100
AcDbCircle
 10
60.47214
 20
-5.73572
 40
7.54804
100
AcDbArc
 50
-85.97084
 51
-74.43953999999999
  0
ARC
  5
1C0
100
AcDbEntity
  8
_____1
  6
ByLayer
 62
    0
370
   -1
100
AcDbCircle
 10
38.99631
 20
-8.88514
 40
22.4262
100
AcDbArc
 50
-22.49812
 51
-11.26569
  0
ARC
  5
1C1
100
AcDbEntity
  8
_____1
  6
ByLayer
 62
    0
370
   -1
100
AcDbCircle
 10
107.39357
 20
4.72827
 40
52.5908
100
AcDbArc
 50
-155.03721
 51
-153.51109
  0
ARC
  5
1C2
100
AcDbEntity
  8
_____1
  6
ByLayer
 62
    0
370
   -1
100
AcDbCircle
 10
57.49562
 20
-20.01407
 40
3.10657
100
AcDbArc
 50
-1.00443
 51
24.4448
  0
ARC
  5
1C3
100
AcDbEntity
  8
_____1
  6
ByLayer
 62
    0
370
   -1
100
AcDbCircle
 10
59.8179
 20
-19.79084
 40
0.83155
100
AcDbArc
 50
-68.09887000000001
 51
-19.50782
  0
ARC
  5
1C4
100
AcDbEntity
  8
_____1
  6
ByLayer
 62
    0
370
   -1
100
AcDbCircle
 10
58.90196
 20
-18.31361
 40
2.56131
100
AcDbArc
 50
-77.07805
 51
-61.39901
  0
ARC
  5
1C5
100
AcDbEntity
  8
_____1
  6
ByLayer
 62
    0
370
   -1
100
AcDbCircle
 10
57.24398
 20
-12.55918
 40
8.54712
100
AcDbArc
 50
-84.48237
 51
-74.87093
  0
ARC
  5
1C6
100
AcDbEntity
  8
_____1
  6
ByLayer
 62
    0
370
   -1
100
AcDbCircle
 10
36.96406
 20
-13.26437
 40
22.498
100
AcDbArc
 50
-32.01413
 51
-20.29177
  0
ARC
  5
1C7
100
AcDbEntity
  8
_____1
  6
ByLayer
 62
    0
370
   -1
100
AcDbCircle
 10
75.63208
 20
-15.61165
 40
21.8082
100
AcDbArc
 50
-153.94311
 51
-150.3795
  0
ARC
  5
1C8
100
AcDbEntity
  8
_____1
  6
ByLayer
 62
    0
370
   -1
100
AcDbCircle
 10
54.37721
 20
-27.50639
 40
2.55339
100
AcDbArc
 50
10.72645
 51
25.91611
  0
ARC
  5
1C9
100
AcDbEntity
  8
_____1
  6
ByLayer
 62
    0
370
   -1
100
AcDbCircle
 10
56.15533
 20
-27.11363
 40
0.73529
100
AcDbArc
 50
-46.14512
 51
6.4405
  0
ARC
  5
1CA
100
AcDbEntity
  8
_____1
  6
ByLayer
 62
    0
370
   -1
100
AcDbCircle
 10
55.44512
 20
-26.32443
 40
1.79677
100
AcDbArc
 50
-91.01855
 51
-47.25022
  0
ARC
  5
1CB
100
AcDbEntity
  8
_____1
  6
ByLayer
 62
    0
370
   -1
100
AcDbCircle
 10
53.69346
 20
-18.25591
 40
10.01378
100
AcDbArc
 50
-87.87365
 51
-80.11125
  0
ENDSEC
  0
SECTION
  2
OBJECTS
  0
DICTIONARY
  5
C
330
0
100
AcDbDictionary
281
    1
  3
ACAD_GROUP
350
D
  0
DICTIONARY
  5
D
330
C
100
AcDbDictionary
281
    1
  0
ENDSEC
  0
EOF
