0
SECTION
2
HEADER
9
$ACADVER
1
AC1009
9
$ANGDIR
70
0
9
$EXTMIN
10
0
20
0
9
$EXTMAX
10
24.00000
20
18.00000
9
$CECOLOR
62
256
0
ENDSEC
0
SECTION
2
ENTITIES
0
POLYLINE
62
0
8
_____1
66
1
0
VERTEX
8
0
10
121.17480
20
128.64500
42
-0.00258
0
VERTEX
8
0
10
124.61650
20
124.94650
42
-0.01094
0
VERTEX
8
0
10
126.81500
20
122.43900
42
-0.07376
0
VERTEX
8
0
10
127.76640
20
121.34400
42
-0.00560
0
VERTEX
8
0
10
129.05960
20
119.60770
42
-0.00361
0
VERTEX
8
0
10
130.29720
20
117.87040
42
0.01744
0
VERTEX
8
0
10
131.12920
20
116.77830
0
VERTEX
8
0
10
149.22190
20
88.37360
42
0.09876
0
VERTEX
8
0
10
152.04140
20
85.49520
42
0.03434
0
VERTEX
8
0
10
156.18760
20
82.71100
42
0.03981
0
VERTEX
8
0
10
160.63410
20
80.61480
42
0.06686
0
VERTEX
8
0
10
164.32930
20
79.78600
42
0.19693
0
VERTEX
8
0
10
165.63198
20
80.30788
42
0.11134
0
VERTEX
8
0
10
166.44600
20
81.48150
42
0.07747
0
VERTEX
8
0
10
167.59990
20
85.45010
42
0.03093
0
VERTEX
8
0
10
168.06110
20
89.92690
42
0.00734
0
VERTEX
8
0
10
168.14000
20
93.12380
42
0.01306
0
VERTEX
8
0
10
168.01600
20
97.87200
42
0.04382
0
VERTEX
8
0
10
167.31470
20
102.62230
0
VERTEX
8
0
10
155.19310
20
149.01230
42
-0.05706
0
VERTEX
8
0
10
154.40150
20
153.98690
42
-0.01444
0
VERTEX
8
0
10
154.28740
20
159.24350
42
-0.06036
0
VERTEX
8
0
10
155.52690
20
169.47320
42
-0.09497
0
VERTEX
8
0
10
159.38940
20
177.50070
42
-0.12372
0
VERTEX
8
0
10
165.94440
20
182.71060
42
-0.12071
0
VERTEX
8
0
10
175.27650
20
184.53680
42
-0.08346
0
VERTEX
8
0
10
181.25290
20
183.53220
42
-0.15848
0
VERTEX
8
0
10
186.22940
20
179.69300
42
-0.07641
0
VERTEX
8
0
10
186.98590
20
177.91340
42
0.15551
0
VERTEX
8
0
10
187.89490
20
176.40720
42
0.01698
0
VERTEX
8
0
10
190.30020
20
174.62950
42
-0.04763
0
VERTEX
8
0
10
192.29090
20
172.98730
42
-0.10937
0
VERTEX
8
0
10
193.50190
20
170.92760
42
-0.14421
0
VERTEX
8
0
10
193.53560
20
167.91520
42
0.07726
0
VERTEX
8
0
10
195.19780
20
166.31480
42
-0.00597
0
VERTEX
8
0
10
197.81280
20
164.08450
42
-0.03553
0
VERTEX
8
0
10
200.26320
20
161.61210
42
-0.12472
0
VERTEX
8
0
10
201.33820
20
159.42130
42
-0.17535
0
VERTEX
8
0
10
200.71780
20
157.68540
42
-0.21216
0
VERTEX
8
0
10
199.17780
20
156.95750
42
-0.04588
0
VERTEX
8
0
10
197.68350
20
157.09490
42
0.02511
0
VERTEX
8
0
10
196.02650
20
157.40870
42
0.01422
0
VERTEX
8
0
10
193.07590
20
158.32440
0
VERTEX
8
0
10
188.55590
20
159.74170
0
VERTEX
8
0
10
183.99010
20
161.20280
0
VERTEX
8
0
10
181.00810
20
162.15700
42
-0.05223
0
VERTEX
8
0
10
180.17270
20
162.25450
42
0.03601
0
VERTEX
8
0
10
178.93320
20
162.34340
0
VERTEX
8
0
10
178.43350
20
162.34340
42
0.12010
0
VERTEX
8
0
10
173.94670
20
161.24990
42
0.17482
0
VERTEX
8
0
10
172.36582
20
159.45094
42
0.11203
0
VERTEX
8
0
10
171.96070
20
157.05640
42
0.05825
0
VERTEX
8
0
10
172.50090
20
152.43550
42
0.01941
0
VERTEX
8
0
10
173.70180
20
148.00580
0
VERTEX
8
0
10
187.89540
20
104.90490
42
-0.05610
0
VERTEX
8
0
10
190.67580
20
92.93930
42
-0.03160
0
VERTEX
8
0
10
191.46080
20
80.52250
0
VERTEX
8
0
10
191.46130
20
79.23930
42
-0.01447
0
VERTEX
8
0
10
191.42040
20
77.82670
42
0.01198
0
VERTEX
8
0
10
191.38040
20
76.32380
42
-0.01718
0
VERTEX
8
0
10
191.33480
20
74.99730
42
0.01246
0
VERTEX
8
0
10
191.29630
20
74.12680
42
-0.02970
0
VERTEX
8
0
10
189.93130
20
68.23790
42
-0.06494
0
VERTEX
8
0
10
187.56450
20
63.02840
42
-0.08176
0
VERTEX
8
0
10
183.95490
20
59.01610
42
-0.11745
0
VERTEX
8
0
10
178.84290
20
56.59610
0
VERTEX
8
0
10
173.94720
20
56.59610
0
VERTEX
8
0
10
172.86650
20
56.59610
42
-0.03056
0
VERTEX
8
0
10
166.22970
20
57.00210
0
VERTEX
8
0
10
159.63430
20
57.87740
0
VERTEX
8
0
10
153.07640
20
58.73790
42
0.03320
0
VERTEX
8
0
10
146.39730
20
59.14870
42
0.03950
0
VERTEX
8
0
10
139.46860
20
58.60050
42
0.01608
0
VERTEX
8
0
10
132.58170
20
57.28350
42
0.00843
0
VERTEX
8
0
10
125.73340
20
55.59620
42
-0.00436
0
VERTEX
8
0
10
119.10180
20
53.85700
42
0.03342
0
VERTEX
8
0
10
110.54750
20
52.94130
42
-0.04259
0
VERTEX
8
0
10
102.00330
20
52.21150
0
VERTEX
8
0
10
100.92160
20
52.21150
42
-0.02142
0
VERTEX
8
0
10
98.80300
20
52.30230
42
0.00532
0
VERTEX
8
0
10
97.60010
20
52.39120
0
VERTEX
8
0
10
63.57230
20
57.59880
42
0.10813
0
VERTEX
8
0
10
62.18604
20
58.15111
42
0.02980
0
VERTEX
8
0
10
60.71200
20
58.42270
42
0.01559
0
VERTEX
8
0
10
56.31410
20
58.83160
42
-0.00469
0
VERTEX
8
0
10
51.66800
20
59.11020
42
-0.03146
0
VERTEX
8
0
10
48.13920
20
59.51440
42
-0.10331
0
VERTEX
8
0
10
47.51540
20
61.11280
42
-0.01922
0
VERTEX
8
0
10
47.23020
20
62.80020
0
VERTEX
8
0
10
46.81270
20
62.80020
42
0.03196
0
VERTEX
8
0
10
43.32720
20
62.57720
42
-0.03784
0
VERTEX
8
0
10
39.92400
20
62.34560
42
-0.02758
0
VERTEX
8
0
10
34.11870
20
62.66610
42
-0.03220
0
VERTEX
8
0
10
27.85230
20
63.71590
42
-0.04237
0
VERTEX
8
0
10
21.83940
20
65.64000
42
-0.05669
0
VERTEX
8
0
10
16.69020
20
68.47470
42
-0.00300
0
VERTEX
8
0
10
14.52650
20
70.84290
42
0.00578
0
VERTEX
8
0
10
11.17550
20
74.45060
42
-0.00381
0
VERTEX
8
0
10
7.76890
20
78.00790
42
0.00545
0
VERTEX
8
0
10
5.48630
20
80.34280
0
VERTEX
8
0
10
4.78640
20
81.02360
42
0.01898
0
VERTEX
8
0
10
3.61590
20
82.02680
42
-0.00285
0
VERTEX
8
0
10
2.45670
20
82.98630
42
0.00803
0
VERTEX
8
0
10
1.66840
20
83.62530
42
0.08268
0
VERTEX
8
0
10
-2.64720
20
85.63640
42
-0.01812
0
VERTEX
8
0
10
-7.66560
20
87.45790
42
-0.08668
0
VERTEX
8
0
10
-11.82000
20
90.11280
42
-0.23030
0
VERTEX
8
0
10
-13.51740
20
94.77080
42
-0.02731
0
VERTEX
8
0
10
-13.47560
20
95.59420
42
0.00748
0
VERTEX
8
0
10
-13.43700
20
96.41110
42
-0.40534
0
VERTEX
8
0
10
-12.35820
20
96.96110
42
0.01878
0
VERTEX
8
0
10
-11.36220
20
96.77520
42
0.02064
0
VERTEX
8
0
10
-11.27520
20
97.41760
0
VERTEX
8
0
10
-13.02050
20
99.69690
0
VERTEX
8
0
10
-13.09990
20
100.06440
0
VERTEX
8
0
10
-13.02050
20
100.06440
0
VERTEX
8
0
10
-13.02050
20
100.15660
42
0.07271
0
VERTEX
8
0
10
-10.94620
20
99.69690
0
VERTEX
8
0
10
-8.95550
20
99.69690
42
0.03644
0
VERTEX
8
0
10
-5.18330
20
99.97220
42
-0.03636
0
VERTEX
8
0
10
-1.48950
20
100.24700
0
VERTEX
8
0
10
-0.81860
20
100.24700
42
-0.03206
0
VERTEX
8
0
10
-0.11450
20
100.20180
42
0.04385
0
VERTEX
8
0
10
0.42230
20
100.15660
0
VERTEX
8
0
10
0.75790
20
100.15660
0
VERTEX
8
0
10
16.26950
20
96.41110
0
VERTEX
8
0
10
17.18900
20
96.41110
0
VERTEX
8
0
10
18.43130
20
96.41110
42
0.03033
0
VERTEX
8
0
10
19.67740
20
96.49660
42
-0.02105
0
VERTEX
8
0
10
21.83930
20
96.63740
42
0.01401
0
VERTEX
8
0
10
23.99310
20
96.77520
42
-0.01393
0
VERTEX
8
0
10
25.24450
20
96.86230
42
-0.03743
0
VERTEX
8
0
10
27.06070
20
96.73340
42
0.00652
0
VERTEX
8
0
10
29.79830
20
96.45810
42
-0.00504
0
VERTEX
8
0
10
32.50170
20
96.18280
42
-0.00887
0
VERTEX
8
0
10
34.28470
20
95.95180
0
VERTEX
8
0
10
34.28510
20
96.41110
42
-0.03115
0
VERTEX
8
0
10
33.78830
20
96.99970
42
0.00617
0
VERTEX
8
0
10
32.74710
20
98.23580
42
0.02338
0
VERTEX
8
0
10
31.71200
20
99.33130
42
0.08542
0
VERTEX
8
0
10
27.76530
20
101.93960
42
-0.03357
0
VERTEX
8
0
10
23.24520
20
104.44380
42
-0.06960
0
VERTEX
8
0
10
19.51150
20
107.68580
42
-0.19232
0
VERTEX
8
0
10
17.93490
20
112.48790
0
VERTEX
8
0
10
20.01650
20
112.48790
42
-0.16032
0
VERTEX
8
0
10
20.09160
20
112.71610
42
0.19655
0
VERTEX
8
0
10
20.17050
20
113.03130
0
VERTEX
8
0
10
19.67750
20
113.94890
0
VERTEX
8
0
10
19.67750
20
114.21710
0
VERTEX
8
0
10
19.67750
20
114.40150
42
-0.18920
0
VERTEX
8
0
10
20.09160
20
114.62790
0
VERTEX
8
0
10
20.58840
20
114.86460
0
VERTEX
8
0
10
20.58840
20
115.04050
0
VERTEX
8
0
10
20.58840
20
115.41140
0
VERTEX
8
0
10
20.17050
20
116.31380
0
VERTEX
8
0
10
20.09210
20
116.50160
42
-0.13894
0
VERTEX
8
0
10
20.17050
20
116.77830
42
-0.09526
0
VERTEX
8
0
10
21.66670
20
117.55470
42
-0.00877
0
VERTEX
8
0
10
22.74030
20
117.60370
42
0.18725
0
VERTEX
8
0
10
23.66270
20
117.96600
42
0.14994
0
VERTEX
8
0
10
24.90740
20
119.60770
42
-0.07157
0
VERTEX
8
0
10
25.69050
20
120.84050
42
-0.01115
0
VERTEX
8
0
10
26.56430
20
121.97450
42
0.01218
0
VERTEX
8
0
10
25.27970
20
123.63000
42
-0.14374
0
VERTEX
8
0
10
24.40910
20
125.72340
42
-0.10415
0
VERTEX
8
0
10
24.56010
20
126.45460
42
-0.23905
0
VERTEX
8
0
10
25.15890
20
126.86730
42
0.02686
0
VERTEX
8
0
10
26.56430
20
127.19060
0
VERTEX
8
0
10
26.56430
20
127.46260
42
0.15440
0
VERTEX
8
0
10
26.10840
20
128.92360
42
-0.16180
0
VERTEX
8
0
10
25.65530
20
130.38420
42
-0.24893
0
VERTEX
8
0
10
26.61140
20
132.20280
42
-0.06190
0
VERTEX
8
0
10
28.72480
20
132.94210
0
VERTEX
8
0
10
28.72530
20
133.12000
42
0.11208
0
VERTEX
8
0
10
28.01210
20
136.32020
42
-0.08709
0
VERTEX
8
0
10
27.30560
20
139.70020
0
VERTEX
8
0
10
34.20150
20
139.70020
42
0.11116
0
VERTEX
8
0
10
33.78830
20
141.57010
42
0.04034
0
VERTEX
8
0
10
32.78890
20
143.25410
42
0.00911
0
VERTEX
8
0
10
31.58130
20
144.89970
42
-0.03098
0
VERTEX
8
0
10
30.46400
20
146.63740
0
VERTEX
8
0
10
31.13010
20
146.63740
42
-0.06488
0
VERTEX
8
0
10
37.43830
20
145.81540
42
0.06416
0
VERTEX
8
0
10
43.90920
20
144.99330
42
0.02382
0
VERTEX
8
0
10
44.69750
20
145.03710
42
-0.02470
0
VERTEX
8
0
10
45.82140
20
145.08750
42
0.02402
0
VERTEX
8
0
10
46.73050
20
145.13120
42
0.02572
0
VERTEX
8
0
10
47.23020
20
145.17640
0
VERTEX
8
0
10
48.13920
20
145.63760
0
VERTEX
8
0
10
44.65560
20
149.38120
42
-0.02197
0
VERTEX
8
0
10
47.26870
20
150.20140
42
-0.02501
0
VERTEX
8
0
10
49.39390
20
150.61070
42
-0.01630
0
VERTEX
8
0
10
51.42170
20
150.79330
42
-0.01115
0
VERTEX
8
0
10
53.78990
20
150.83370
42
-0.00825
0
VERTEX
8
0
10
56.23900
20
150.79330
42
-0.00811
0
VERTEX
8
0
10
58.35040
20
150.65920
42
-0.01771
0
VERTEX
8
0
10
60.55080
20
150.38110
42
-0.00514
0
VERTEX
8
0
10
63.16580
20
149.92800
42
-0.19832
0
VERTEX
8
0
10
63.24140
20
150.11110
42
0.20951
0
VERTEX
8
0
10
62.66940
20
151.38910
42
0.04772
0
VERTEX
8
0
10
61.33770
20
152.62000
42
0.01607
0
VERTEX
8
0
10
59.84340
20
153.71880
42
-0.06125
0
VERTEX
8
0
10
58.85010
20
154.58260
0
VERTEX
8
0
10
59.75630
20
155.12750
0
VERTEX
8
0
10
66.97700
20
155.12750
42
-0.16252
0
VERTEX
8
0
10
67.14620
20
155.63430
42
-0.13544
0
VERTEX
8
0
10
67.47330
20
156.04180
42
-0.18186
0
VERTEX
8
0
10
68.64318
20
155.98991
42
-0.06286
0
VERTEX
8
0
10
69.72220
20
155.49310
42
-0.01159
0
VERTEX
8
0
10
72.74320
20
153.66650
42
0.01510
0
VERTEX
8
0
10
76.02380
20
151.75130
42
0.10069
0
VERTEX
8
0
10
79.01110
20
150.83370
0
VERTEX
8
0
10
80.75400
20
150.83370
0
VERTEX
8
0
10
75.61490
20
153.75870
0
VERTEX
8
0
10
75.61490
20
154.39960
42
-0.03102
0
VERTEX
8
0
10
80.88150
20
154.07250
42
0.03439
0
VERTEX
8
0
10
85.98020
20
153.75870
0
VERTEX
8
0
10
86.31770
20
153.75870
0
VERTEX
8
0
10
82.50370
20
156.59330
0
VERTEX
8
0
10
82.50370
20
157.05640
42
-0.10467
0
VERTEX
8
0
10
89.22230
20
155.63430
42
-0.01805
0
VERTEX
8
0
10
95.45020
20
152.66710
0
VERTEX
8
0
10
95.45060
20
153.03270
0
VERTEX
8
0
10
95.45060
20
153.30270
0
VERTEX
8
0
10
94.94900
20
154.12480
0
VERTEX
8
0
10
94.94900
20
154.76710
42
-0.17821
0
VERTEX
8
0
10
95.45020
20
154.58260
0
VERTEX
8
0
10
97.10420
20
153.75870
42
-0.01121
0
VERTEX
8
0
10
97.89730
20
153.17340
0
VERTEX
8
0
10
99.05450
20
152.25440
42
0.01888
0
VERTEX
8
0
10
100.26070
20
151.34340
42
0.01354
0
VERTEX
8
0
10
101.00860
20
150.83370
0
VERTEX
8
0
10
101.00910
20
151.10570
42
0.18514
0
VERTEX
8
0
10
100.33440
20
152.84490
42
0.00682
0
VERTEX
8
0
10
99.26420
20
154.58260
0
VERTEX
8
0
10
99.51620
20
154.58260
0
VERTEX
8
0
10
99.76100
20
154.58260
42
-0.11140
0
VERTEX
8
0
10
102.24810
20
153.62130
42
-0.00817
0
VERTEX
8
0
10
104.48890
20
152.29480
42
-0.12308
0
VERTEX
8
0
10
111.58400
20
144.75850
42
-0.05800
0
VERTEX
8
0
10
115.60920
20
134.76370
42
0.02053
0
VERTEX
8
0
10
117.77290
20
132.30310
42
0.00698
0
VERTEX
8
0
10
121.17470
20
128.64510
0
SEQEND
8
0
0
ENDSEC
0
EOF
