999
dxfrw 0.6.3
  0
SECTION
  2
HEADER
  9
$ACADVER
  1
AC1021
  9
$DWGCODEPAGE
  3
ANSI_1252
  9
$INSBASE
 10
0
 20
0
 30
0
  9
$EXTMIN
 10
-13.54758452470354
 20
52.21149999998302
 30
0
  9
$EXTMAX
 10
201.338220856085
 20
184.5588739749415
 30
0
  9
$LIMMIN
 10
0
 20
0
  9
$LIMMAX
 10
420
 20
297
  9
$ORTHOMODE
 70
    0
  9
$REGENMODE
 70
    1
  9
$FILLMODE
 70
    1
  9
$QTEXTMODE
 70
    0
  9
$MIRRTEXT
 70
    0
  9
$LTSCALE
 40
1
  9
$ATTMODE
 70
    0
  9
$TEXTSIZE
 40
2.5
  9
$TRACEWID
 40
15.68
  9
$TEXTSTYLE
  7
STANDARD
  9
$CLAYER
  8
0
  9
$CELTYPE
  6
BYLAYER
  9
$CECOLOR
 62
  256
  9
$CELTSCALE
 40
1
  9
$DISPSILH
 70
    0
  9
$DIMSCALE
 40
2.5
  9
$DIMASZ
 40
2.5
  9
$DIMEXO
 40
0.625
  9
$DIMDLI
 40
3.75
  9
$DIMRND
 40
0
  9
$DIMDLE
 40
0
  9
$DIMEXE
 40
1.25
  9
$DIMTP
 40
0
  9
$DIMTM
 40
0
  9
$DIMTXT
 40
2.5
  9
$DIMCEN
 40
2.5
  9
$DIMTSZ
 40
0
  9
$DIMTOL
 70
    0
  9
$DIMLIM
 70
    0
  9
$DIMTIH
 70
    0
  9
$DIMTOH
 70
    0
  9
$DIMSE1
 70
    0
  9
$DIMSE2
 70
    0
  9
$DIMTAD
 70
    1
  9
$DIMZIN
 70
    8
  9
$DIMBLK
  1

  9
$DIMASO
 70
    1
  9
$DIMSHO
 70
    1
  9
$DIMPOST
  1

  9
$DIMAPOST
  1

  9
$DIMALT
 70
    0
  9
$DIMALTD
 70
    3
  9
$DIMALTF
 40
0.03937
  9
$DIMLFAC
 40
1
  9
$DIMTOFL
 70
    1
  9
$DIMTVP
 40
0
  9
$DIMTIX
 70
    0
  9
$DIMSOXD
 70
    0
  9
$DIMSAH
 70
    0
  9
$DIMBLK1
  1

  9
$DIMBLK2
  1

  9
$DIMSTYLE
  2
Standard
  9
$DIMCLRD
 70
    0
  9
$DIMCLRE
 70
    0
  9
$DIMCLRT
 70
    0
  9
$DIMTFAC
 40
1
  9
$DIMGAP
 40
0.625
  9
$DIMJUST
 70
    0
  9
$DIMSD1
 70
    0
  9
$DIMSD2
 70
    0
  9
$DIMTOLJ
 70
    0
  9
$DIMTZIN
 70
    8
  9
$DIMALTZ
 70
    0
  9
$DIMALTTZ
 70
    0
  9
$DIMUPT
 70
    0
  9
$DIMDEC
 70
    2
  9
$DIMTDEC
 70
    2
  9
$DIMALTU
 70
    2
  9
$DIMALTTD
 70
    3
  9
$DIMTXSTY
  7
STANDARD
  9
$DIMAUNIT
 70
    0
  9
$DIMADEC
 70
    0
  9
$DIMALTRND
 40
0
  9
$DIMAZIN
 70
    0
  9
$DIMDSEP
 70
   44
  9
$DIMATFIT
 70
    3
  9
$DIMFRAC
 70
    0
  9
$DIMLDRBLK
  1
STANDARD
  9
$DIMLUNIT
 70
    2
  9
$DIMLWD
 70
   -2
  9
$DIMLWE
 70
   -2
  9
$DIMTMOVE
 70
    0
  9
$DIMFXL
 40
1
  9
$DIMFXLON
 70
    0
  9
$DIMJOGANG
 40
0.7854
  9
$DIMTFILL
 70
    0
  9
$DIMTFILLCLR
 70
    0
  9
$DIMARCSYM
 70
    0
  9
$DIMLTYPE
  6

  9
$DIMLTEX1
  6

  9
$DIMLTEX2
  6

  9
$LUNITS
 70
    2
  9
$LUPREC
 70
    4
  9
$SKETCHINC
 40
1
  9
$FILLETRAD
 40
0
  9
$AUNITS
 70
    0
  9
$AUPREC
 70
    2
  9
$MENU
  1
.
  9
$ELEVATION
 40
0
  9
$PELEVATION
 40
0
  9
$THICKNESS
 40
0
  9
$LIMCHECK
 70
    0
  9
$CHAMFERA
 40
0
  9
$CHAMFERB
 40
0
  9
$CHAMFERC
 40
0
  9
$CHAMFERD
 40
0
  9
$SKPOLY
 70
    0
  9
$USRTIMER
 70
    1
  9
$ANGBASE
 50
0
  9
$ANGDIR
 70
    0
  9
$PDMODE
 70
   34
  9
$PDSIZE
 40
0
  9
$PLINEWID
 40
0
  9
$SPLFRAME
 70
    0
  9
$SPLINETYPE
 70
    2
  9
$SPLINESEGS
 70
    8
  9
$HANDSEED
  5
20000
  9
$SURFTAB1
 70
    6
  9
$SURFTAB2
 70
    6
  9
$SURFTYPE
 70
    6
  9
$SURFU
 70
    6
  9
$SURFV
 70
    6
  9
$UCSBASE
  2

  9
$UCSNAME
  2

  9
$UCSORG
 10
0
 20
0
 30
0
  9
$UCSXDIR
 10
1
 20
0
 30
0
  9
$UCSYDIR
 10
0
 20
1
 30
0
  9
$UCSORTHOREF
  2

  9
$UCSORTHOVIEW
 70
    0
  9
$UCSORGTOP
 10
0
 20
0
 30
0
  9
$UCSORGBOTTOM
 10
0
 20
0
 30
0
  9
$UCSORGLEFT
 10
0
 20
0
 30
0
  9
$UCSORGRIGHT
 10
0
 20
0
 30
0
  9
$UCSORGFRONT
 10
0
 20
0
 30
0
  9
$UCSORGBACK
 10
0
 20
0
 30
0
  9
$PUCSBASE
  2

  9
$PUCSNAME
  2

  9
$PUCSORG
 10
0
 20
0
 30
0
  9
$PUCSXDIR
 10
1
 20
0
 30
0
  9
$PUCSYDIR
 10
0
 20
1
 30
0
  9
$PUCSORTHOREF
  2

  9
$PUCSORTHOVIEW
 70
    0
  9
$PUCSORGTOP
 10
0
 20
0
 30
0
  9
$PUCSORGBOTTOM
 10
0
 20
0
 30
0
  9
$PUCSORGLEFT
 10
0
 20
0
 30
0
  9
$PUCSORGRIGHT
 10
0
 20
0
 30
0
  9
$PUCSORGFRONT
 10
0
 20
0
 30
0
  9
$PUCSORGBACK
 10
0
 20
0
 30
0
  9
$USERI1
 70
    0
  9
$USERI2
 70
    0
  9
$USERI3
 70
    0
  9
$USERI4
 70
    0
  9
$USERI5
 70
    0
  9
$USERR1
 40
0
  9
$USERR2
 40
0
  9
$USERR3
 40
0
  9
$USERR4
 40
0
  9
$USERR5
 40
0
  9
$WORLDVIEW
 70
    1
  9
$SHADEDGE
 70
    3
  9
$SHADEDIF
 70
   70
  9
$TILEMODE
 70
    1
  9
$MAXACTVP
 70
   64
  9
$PINSBASE
 10
0
 20
0
 30
0
  9
$PLIMCHECK
 70
    0
  9
$PEXTMIN
 10
0
 20
0
 30
0
  9
$PEXTMAX
 10
0
 20
0
 30
0
  9
$SNAPSTYLE
 70
    0
  9
$PLIMMIN
 10
0
 20
0
  9
$PLIMMAX
 10
297
 20
210
  9
$UNITMODE
 70
    0
  9
$VISRETAIN
 70
    1
  9
$PLINEGEN
 70
    0
  9
$PSLTSCALE
 70
    1
  9
$TREEDEPTH
 70
 3020
  9
$CMLSTYLE
  2
Standard
  9
$CMLJUST
 70
    0
  9
$CMLSCALE
 40
20
  9
$PROXYGRAPHICS
 70
    1
  9
$MEASUREMENT
 70
    1
  9
$CELWEIGHT
370
   -1
  9
$ENDCAPS
280
    0
  9
$JOINSTYLE
280
    0
  9
$LWDISPLAY
290
    0
  9
$INSUNITS
 70
    4
  9
$HYPERLINKBASE
  1

  9
$STYLESHEET
  1

  9
$XEDIT
290
    1
  9
$CEPSNTYPE
380
    0
  9
$PSTYLEMODE
290
    1
  9
$EXTNAMES
290
    1
  9
$PSVPSCALE
 40
1
  9
$OLESTARTUP
290
    0
  9
$SORTENTS
280
  127
  9
$INDEXCTL
280
    0
  9
$HIDETEXT
280
    1
  9
$XCLIPFRAME
290
    0
  9
$HALOGAP
280
    0
  9
$OBSCOLOR
 70
  257
  9
$OBSLTYPE
280
    0
  9
$INTERSECTIONDISPLAY
280
    0
  9
$INTERSECTIONCOLOR
 70
  257
  9
$DIMASSOC
280
    1
  9
$PROJECTNAME
  1

  9
$CAMERADISPLAY
290
    0
  9
$LENSLENGTH
 40
50
  9
$CAMERAHEIGHT
 40
0
  9
$STEPSPERSEC
 40
2
  9
$STEPSIZE
 40
50
  9
$3DDWFPREC
 40
2
  9
$PSOLWIDTH
 40
5
  9
$PSOLHEIGHT
 40
80
  9
$LOFTANG1
 40
1.570796326794897
  9
$LOFTANG2
 40
1.570796326794897
  9
$LOFTMAG1
 40
0
  9
$LOFTMAG2
 40
0
  9
$LOFTPARAM
 70
    7
  9
$LOFTNORMALS
280
    1
  9
$LATITUDE
 40
1
  9
$LONGITUDE
 40
1
  9
$NORTHDIRECTION
 40
0
  9
$TIMEZONE
 70
-8000
  9
$LIGHTGLYPHDISPLAY
280
    1
  9
$TILEMODELIGHTSYNCH
280
    1
  9
$SOLIDHIST
280
    1
  9
$SHOWHIST
280
    1
  9
$DWFFRAME
280
    2
  9
$DGNFRAME
280
    0
  9
$REALWORLDSCALE
290
    1
  9
$INTERFERECOLOR
 62
    1
  9
$CSHADOW
280
    0
  9
$SHADOWPLANELOCATION
 40
0
  0
ENDSEC
  0
SECTION
  2
CLASSES
  0
ENDSEC
  0
SECTION
  2
TABLES
  0
TABLE
  2
VPORT
  5
8
330
0
100
AcDbSymbolTable
 70
    1
  0
VPORT
  5
31
330
2
100
AcDbSymbolTableRecord
100
AcDbViewportTableRecord
  2
*ACTIVE
 70
    0
 10
0
 20
0
 11
1
 21
1
 12
194
 22
99.875
 13
0
 23
0
 14
10
 24
10
 15
10
 25
10
 16
0
 26
0
 36
1
 17
0
 27
0
 37
0
 40
212.25
 41
1.886925795053004
 42
50
 43
0
 44
0
 50
0
 51
0
 71
    0
 72
  100
 73
    1
 74
    3
 75
    0
 76
    1
 77
    0
 78
    0
281
    0
 65
    1
110
0
120
0
130
0
111
1
121
0
131
0
112
0
122
1
132
0
 79
    0
146
0
348
10020
 60
    7
 61
    5
292
1
282
    1
141
0
142
0
 63
  250
421
3358443
  0
ENDTAB
  0
TABLE
  2
LTYPE
  5
5
330
0
100
AcDbSymbolTable
 70
    4
  0
LTYPE
  5
14
330
5
100
AcDbSymbolTableRecord
100
AcDbLinetypeTableRecord
  2
ByBlock
 70
    0
  3

 72
   65
 73
    0
 40
0
  0
LTYPE
  5
15
330
5
100
AcDbSymbolTableRecord
100
AcDbLinetypeTableRecord
  2
ByLayer
 70
    0
  3

 72
   65
 73
    0
 40
0
  0
LTYPE
  5
16
330
5
100
AcDbSymbolTableRecord
100
AcDbLinetypeTableRecord
  2
Continuous
 70
    0
  3
Solid line
 72
   65
 73
    0
 40
0
  0
LTYPE
  5
32
330
5
100
AcDbSymbolTableRecord
100
AcDbLinetypeTableRecord
  2
DOT
 70
    0
  3
Dot . . . . . . . . . . . . . . . . . . . . . .
 72
   65
 73
    2
 40
6.35
 49
0
 74
    0
 49
-6.35
 74
    0
  0
LTYPE
  5
33
330
5
100
AcDbSymbolTableRecord
100
AcDbLinetypeTableRecord
  2
DOTTINY
 70
    0
  3
Dot (.15x) .....................................
 72
   65
 73
    2
 40
0.9525
 49
0
 74
    0
 49
-0.9525
 74
    0
  0
LTYPE
  5
34
330
5
100
AcDbSymbolTableRecord
100
AcDbLinetypeTableRecord
  2
DOT2
 70
    0
  3
Dot (.5x) .....................................
 72
   65
 73
    2
 40
3.175
 49
0
 74
    0
 49
-3.175
 74
    0
  0
LTYPE
  5
35
330
5
100
AcDbSymbolTableRecord
100
AcDbLinetypeTableRecord
  2
DOTX2
 70
    0
  3
Dot (2x) .  .  .  .  .  .  .  .  .  .  .  .  .
 72
   65
 73
    2
 40
12.7
 49
0
 74
    0
 49
-12.7
 74
    0
  0
LTYPE
  5
36
330
5
100
AcDbSymbolTableRecord
100
AcDbLinetypeTableRecord
  2
DASHED
 70
    0
  3
Dashed _ _ _ _ _ _ _ _ _ _ _ _ _ _ _ _ _
 72
   65
 73
    2
 40
19.05
 49
12.7
 74
    0
 49
-6.35
 74
    0
  0
LTYPE
  5
37
330
5
100
AcDbSymbolTableRecord
100
AcDbLinetypeTableRecord
  2
DASHEDTINY
 70
    0
  3
Dashed (.15x) _ _ _ _ _ _ _ _ _ _ _ _ _ _ _ _ _
 72
   65
 73
    2
 40
2.8575
 49
1.905
 74
    0
 49
-0.9525
 74
    0
  0
LTYPE
  5
38
330
5
100
AcDbSymbolTableRecord
100
AcDbLinetypeTableRecord
  2
DASHED2
 70
    0
  3
Dashed (.5x) _ _ _ _ _ _ _ _ _ _ _ _ _ _ _ _ _
 72
   65
 73
    2
 40
9.524999999999999
 49
6.35
 74
    0
 49
-3.175
 74
    0
  0
LTYPE
  5
39
330
5
100
AcDbSymbolTableRecord
100
AcDbLinetypeTableRecord
  2
DASHEDX2
 70
    0
  3
Dashed (2x) ____  ____  ____  ____  ____  ___
 72
   65
 73
    2
 40
38.09999999999999
 49
25.4
 74
    0
 49
-12.7
 74
    0
  0
LTYPE
  5
3A
330
5
100
AcDbSymbolTableRecord
100
AcDbLinetypeTableRecord
  2
DASHDOT
 70
    0
  3
Dash dot __ . __ . __ . __ . __ . __ . __ . __
 72
   65
 73
    4
 40
25.4
 49
12.7
 74
    0
 49
-6.35
 74
    0
 49
0
 74
    0
 49
-6.35
 74
    0
  0
LTYPE
  5
3B
330
5
100
AcDbSymbolTableRecord
100
AcDbLinetypeTableRecord
  2
DASHDOTTINY
 70
    0
  3
Dash dot (.15x) _._._._._._._._._._._._._._._.
 72
   65
 73
    4
 40
3.81
 49
1.905
 74
    0
 49
-0.9525
 74
    0
 49
0
 74
    0
 49
-0.9525
 74
    0
  0
LTYPE
  5
3C
330
5
100
AcDbSymbolTableRecord
100
AcDbLinetypeTableRecord
  2
DASHDOT2
 70
    0
  3
Dash dot (.5x) _._._._._._._._._._._._._._._.
 72
   65
 73
    4
 40
12.7
 49
6.35
 74
    0
 49
-3.175
 74
    0
 49
0
 74
    0
 49
-3.175
 74
    0
  0
LTYPE
  5
3D
330
5
100
AcDbSymbolTableRecord
100
AcDbLinetypeTableRecord
  2
DASHDOTX2
 70
    0
  3
Dash dot (2x) ____  .  ____  .  ____  .  ___
 72
   65
 73
    4
 40
50.8
 49
25.4
 74
    0
 49
-12.7
 74
    0
 49
0
 74
    0
 49
-12.7
 74
    0
  0
LTYPE
  5
3E
330
5
100
AcDbSymbolTableRecord
100
AcDbLinetypeTableRecord
  2
DIVIDE
 70
    0
  3
Divide ____ . . ____ . . ____ . . ____ . . ____
 72
   65
 73
    6
 40
31.75
 49
12.7
 74
    0
 49
-6.35
 74
    0
 49
0
 74
    0
 49
-6.35
 74
    0
 49
0
 74
    0
 49
-6.35
 74
    0
  0
LTYPE
  5
3F
330
5
100
AcDbSymbolTableRecord
100
AcDbLinetypeTableRecord
  2
DIVIDETINY
 70
    0
  3
Divide (.15x) __..__..__..__..__..__..__..__.._
 72
   65
 73
    6
 40
4.7625
 49
1.905
 74
    0
 49
-0.9525
 74
    0
 49
0
 74
    0
 49
-0.9525
 74
    0
 49
0
 74
    0
 49
-0.9525
 74
    0
  0
LTYPE
  5
40
330
5
100
AcDbSymbolTableRecord
100
AcDbLinetypeTableRecord
  2
DIVIDE2
 70
    0
  3
Divide (.5x) __..__..__..__..__..__..__..__.._
 72
   65
 73
    6
 40
15.875
 49
6.35
 74
    0
 49
-3.175
 74
    0
 49
0
 74
    0
 49
-3.175
 74
    0
 49
0
 74
    0
 49
-3.175
 74
    0
  0
LTYPE
  5
41
330
5
100
AcDbSymbolTableRecord
100
AcDbLinetypeTableRecord
  2
DIVIDEX2
 70
    0
  3
Divide (2x) ________  .  .  ________  .  .  _
 72
   65
 73
    6
 40
63.5
 49
25.4
 74
    0
 49
-12.7
 74
    0
 49
0
 74
    0
 49
-12.7
 74
    0
 49
0
 74
    0
 49
-12.7
 74
    0
  0
LTYPE
  5
42
330
5
100
AcDbSymbolTableRecord
100
AcDbLinetypeTableRecord
  2
BORDER
 70
    0
  3
Border __ __ . __ __ . __ __ . __ __ . __ __ .
 72
   65
 73
    6
 40
44.45
 49
12.7
 74
    0
 49
-6.35
 74
    0
 49
12.7
 74
    0
 49
-6.35
 74
    0
 49
0
 74
    0
 49
-6.35
 74
    0
  0
LTYPE
  5
43
330
5
100
AcDbSymbolTableRecord
100
AcDbLinetypeTableRecord
  2
BORDERTINY
 70
    0
  3
Border (.15x) __.__.__.__.__.__.__.__.__.__.__.
 72
   65
 73
    6
 40
6.6675
 49
1.905
 74
    0
 49
-0.9525
 74
    0
 49
1.905
 74
    0
 49
-0.9525
 74
    0
 49
0
 74
    0
 49
-0.9525
 74
    0
  0
LTYPE
  5
44
330
5
100
AcDbSymbolTableRecord
100
AcDbLinetypeTableRecord
  2
BORDER2
 70
    0
  3
Border (.5x) __.__.__.__.__.__.__.__.__.__.__.
 72
   65
 73
    6
 40
22.225
 49
6.35
 74
    0
 49
-3.175
 74
    0
 49
6.35
 74
    0
 49
-3.175
 74
    0
 49
0
 74
    0
 49
-3.175
 74
    0
  0
LTYPE
  5
45
330
5
100
AcDbSymbolTableRecord
100
AcDbLinetypeTableRecord
  2
BORDERX2
 70
    0
  3
Border (2x) ____  ____  .  ____  ____  .  ___
 72
   65
 73
    6
 40
88.89999999999999
 49
25.4
 74
    0
 49
-12.7
 74
    0
 49
25.4
 74
    0
 49
-12.7
 74
    0
 49
0
 74
    0
 49
-12.7
 74
    0
  0
LTYPE
  5
46
330
5
100
AcDbSymbolTableRecord
100
AcDbLinetypeTableRecord
  2
CENTER
 70
    0
  3
Center ____ _ ____ _ ____ _ ____ _ ____ _ ____
 72
   65
 73
    4
 40
50.8
 49
31.75
 74
    0
 49
-6.35
 74
    0
 49
6.35
 74
    0
 49
-6.35
 74
    0
  0
LTYPE
  5
47
330
5
100
AcDbSymbolTableRecord
100
AcDbLinetypeTableRecord
  2
CENTERTINY
 70
    0
  3
Center (.15x) ___ _ ___ _ ___ _ ___ _ ___ _ ___
 72
   65
 73
    4
 40
7.62
 49
4.7625
 74
    0
 49
-0.9525
 74
    0
 49
0.9525
 74
    0
 49
-0.9525
 74
    0
  0
LTYPE
  5
48
330
5
100
AcDbSymbolTableRecord
100
AcDbLinetypeTableRecord
  2
CENTER2
 70
    0
  3
Center (.5x) ___ _ ___ _ ___ _ ___ _ ___ _ ___
 72
   65
 73
    4
 40
28.575
 49
19.05
 74
    0
 49
-3.175
 74
    0
 49
3.175
 74
    0
 49
-3.175
 74
    0
  0
LTYPE
  5
49
330
5
100
AcDbSymbolTableRecord
100
AcDbLinetypeTableRecord
  2
CENTERX2
 70
    0
  3
Center (2x) ________  __  ________  __  _____
 72
   65
 73
    4
 40
101.6
 49
63.5
 74
    0
 49
-12.7
 74
    0
 49
12.7
 74
    0
 49
-12.7
 74
    0
  0
ENDTAB
  0
TABLE
  2
LAYER
  5
2
330
0
100
AcDbSymbolTable
 70
    1
  0
LAYER
  5
10
330
2
100
AcDbSymbolTableRecord
100
AcDbLayerTableRecord
  2
0
 70
    0
 62
    7
  6
CONTINUOUS
370
    0
390
F
  0
ENDTAB
  0
TABLE
  2
STYLE
  5
3
330
0
100
AcDbSymbolTable
 70
    3
  0
STYLE
  5
4A
330
2
100
AcDbSymbolTableRecord
100
AcDbTextStyleTableRecord
  2
Standard
 70
    0
 40
0
 41
1
 50
0
 71
    0
 42
1
  3
txt
  4

  0
ENDTAB
  0
TABLE
  2
VIEW
  5
6
330
0
100
AcDbSymbolTable
 70
    0
  0
ENDTAB
  0
TABLE
  2
UCS
  5
7
330
0
100
AcDbSymbolTable
 70
    0
  0
ENDTAB
  0
TABLE
  2
APPID
  5
9
330
0
100
AcDbSymbolTable
 70
    1
  0
APPID
  5
12
330
9
100
AcDbSymbolTableRecord
100
AcDbRegAppTableRecord
  2
ACAD
 70
    0
  0
APPID
  5
4B
330
9
100
AcDbSymbolTableRecord
100
AcDbRegAppTableRecord
  2
LibreCad
 70
    0
  0
ENDTAB
  0
TABLE
  2
DIMSTYLE
  5
A
330
0
100
AcDbSymbolTable
 70
    1
100
AcDbDimStyleTable
 71
    1
  0
DIMSTYLE
105
4C
330
A
100
AcDbSymbolTableRecord
100
AcDbDimStyleTableRecord
  2
Standard
 70
    0
 40
1
 41
2.5
 42
0.625
 43
0.38
 44
1.25
 45
0
 46
0
 47
0
 48
0
 49
1
140
2.5
141
0.09
142
2.5
143
25.4
144
1
145
0
146
1
147
0.625
148
0
 71
    0
 72
    0
 73
    0
 74
    1
 75
    0
 76
    0
 77
    0
 78
    1
 79
    0
170
    0
171
    2
172
    0
173
    0
174
    0
175
    0
176
    0
177
    0
178
    0
179
    0
271
    2
272
    4
273
    2
274
    2
275
    0
276
    0
277
    2
278
    0
279
    0
280
    0
281
    0
282
    0
283
    1
284
    0
285
    0
286
    0
288
    0
289
    3
340
standard
341

371
   -2
372
   -2
  0
ENDTAB
  0
TABLE
  2
BLOCK_RECORD
  5
1
330
0
100
AcDbSymbolTable
 70
    2
  0
BLOCK_RECORD
  5
1F
330
1
100
AcDbSymbolTableRecord
100
AcDbBlockTableRecord
  2
*Model_Space
 70
    0
280
    1
281
    0
  0
BLOCK_RECORD
  5
1E
330
1
100
AcDbSymbolTableRecord
100
AcDbBlockTableRecord
  2
*Paper_Space
 70
    0
280
    1
281
    0
  0
ENDTAB
  0
ENDSEC
  0
SECTION
  2
BLOCKS
  0
BLOCK
  5
20
330
1F
100
AcDbEntity
  8
0
100
AcDbBlockBegin
  2
*Model_Space
 70
    0
 10
0
 20
0
 30
0
  3
*Model_Space
  1

  0
ENDBLK
  5
21
330
1F
100
AcDbEntity
  8
0
100
AcDbBlockEnd
  0
BLOCK
  5
1C
330
1B
100
AcDbEntity
  8
0
100
AcDbBlockBegin
  2
*Paper_Space
 70
    0
 10
0
 20
0
 30
0
  3
*Paper_Space
  1

  0
ENDBLK
  5
1D
330
1F
100
AcDbEntity
  8
0
100
AcDbBlockEnd
  0
ENDSEC
  0
SECTION
  2
ENTITIES
  0
LWPOLYLINE
  5
4D
100
AcDbEntity
  8
0
  6
ByLayer
 62
    0
370
   -1
100
AcDbPolyline
 90
  243
 70
    0
 43
0
 10
121.1747999999999
 20
128.645
 42
-0.002580000000000025
 10
124.6165
 20
124.9465
 42
-0.01094000000000002
 10
126.815
 20
122.439
 42
-0.07376000000000016
 10
127.7664
 20
121.344
 42
-0.005600000000000009
 10
129.0596
 20
119.6077
 42
-0.003609999999999998
 10
130.2972
 20
117.8704
 42
0.01744000000000003
 10
131.1292
 20
116.7783
 10
149.2219
 20
88.3736
 42
0.09875999999999995
 10
152.0414
 20
85.49520000000001
 42
0.03434000000000003
 10
156.1876
 20
82.71100000000001
 42
0.03980999999999989
 10
160.6341
 20
80.6148
 42
0.06685999999999999
 10
164.3293
 20
79.78600000000002
 42
0.1969299999999986
 10
165.63198
 20
80.30788
 42
0.1113400000000003
 10
166.446
 20
81.4815
 42
0.07746999999999982
 10
167.5999
 20
85.45009999999999
 42
0.03093000000000008
 10
168.0611
 20
89.92689999999996
 42
0.007339999999999929
 10
168.14
 20
93.12379999999987
 42
0.01306000000000019
 10
168.016
 20
97.872
 42
0.04382000000000003
 10
167.3147
 20
102.6223
 10
155.1931
 20
149.0123
 42
-0.05706000000000002
 10
154.4015
 20
153.9869
 42
-0.01443999999999997
 10
154.2874
 20
159.2435
 42
-0.06036
 10
155.5269
 20
169.4732
 42
-0.09497000000000003
 10
159.3894
 20
177.5007
 42
-0.1237199999999999
 10
165.9444
 20
182.7106
 42
-0.1207099999999998
 10
175.2765
 20
184.5368
 42
-0.08345999999999995
 10
181.2529
 20
183.5322
 42
-0.1584799999999997
 10
186.2294
 20
179.693
 42
-0.07640999999999971
 10
186.9859
 20
177.9134
 42
0.1555099999999996
 10
187.8949
 20
176.4072
 42
0.01697999999999997
 10
190.3002
 20
174.6295
 42
-0.04762999999999993
 10
192.2909
 20
172.9873
 42
-0.1093699999999998
 10
193.5019
 20
170.9276
 42
-0.1442100000000004
 10
193.5356
 20
167.9152
 42
0.07725999999999984
 10
195.1978
 20
166.3148
 42
-0.005970000000000006
 10
197.8128
 20
164.0845
 42
-0.03553
 10
200.2632
 20
161.6121
 42
-0.1247200000000001
 10
201.3382
 20
159.4213
 42
-0.1753500000000003
 10
200.7178
 20
157.6854
 42
-0.2121599999999996
 10
199.1778
 20
156.9575
 42
-0.04587999999999995
 10
197.6835
 20
157.0949
 42
0.02511000000000002
 10
196.0265
 20
157.4087
 42
0.01421999999999998
 10
193.0759
 20
158.3244
 10
188.5559
 20
159.7417
 10
183.9901
 20
161.2028
 10
181.0081
 20
162.157
 42
-0.05222999999999986
 10
180.1727
 20
162.2545
 42
0.03600999999999998
 10
178.9332
 20
162.3434
 10
178.4335
 20
162.3434
 42
0.1200999999999999
 10
173.9467
 20
161.2499
 42
0.1748199999999994
 10
172.36582
 20
159.45094
 42
0.1120299999999999
 10
171.9607
 20
157.0564
 42
0.05824999999999998
 10
172.5009
 20
152.4355
 42
0.01941000000000002
 10
173.7018
 20
148.0058
 10
187.8954
 20
104.9049
 42
-0.05609999999999997
 10
190.6758
 20
92.9393
 42
-0.03159999999999985
 10
191.4608
 20
80.52250000000001
 10
191.4613
 20
79.23929999999999
 42
-0.01446999999999995
 10
191.4204
 20
77.82669999999999
 42
0.01198000000000001
 10
191.3804
 20
76.32380000000001
 42
-0.01718000000000009
 10
191.3347999999999
 20
74.99729999999998
 42
0.01245999999999997
 10
191.2962999999999
 20
74.1268
 42
-0.02970000000000006
 10
189.9313
 20
68.2379
 42
-0.06494000000000008
 10
187.5645
 20
63.02839999999999
 42
-0.08176000000000017
 10
183.9549
 20
59.01609999999999
 42
-0.1174500000000001
 10
178.8429
 20
56.5961
 10
173.9472
 20
56.5961
 10
172.8665
 20
56.59610000000001
 42
-0.03056000000000004
 10
166.2297
 20
57.00210000000001
 10
159.6343
 20
57.8774
 10
153.0764
 20
58.7379
 42
0.03320000000000001
 10
146.3973
 20
59.1487
 42
0.03950000000000004
 10
139.4686
 20
58.60050000000002
 42
0.01608000000000002
 10
132.5817
 20
57.28349999999998
 42
0.008429999999999971
 10
125.7333999999999
 20
55.59619999999995
 42
-0.004360000000000102
 10
119.1017999999997
 20
53.85699999999991
 42
0.03342000000000001
 10
110.5475
 20
52.9413
 42
-0.04258999999999988
 10
102.0033
 20
52.2115
 10
100.9216
 20
52.2115
 42
-0.02142000000000012
 10
98.80299999999998
 20
52.3023
 42
0.00532000000000005
 10
97.6001
 20
52.3912
 10
63.5723
 20
57.5988
 42
0.10813
 10
62.18604
 20
58.15111
 42
0.0298
 10
60.712
 20
58.42269999999999
 42
0.01559000000000002
 10
56.31409999999988
 20
58.83159999999998
 42
-0.00469000000000006
 10
51.66799999999981
 20
59.11019999999998
 42
-0.03145999999999993
 10
48.13919999999999
 20
59.51439999999999
 42
-0.1033100000000001
 10
47.5154
 20
61.11280000000001
 42
-0.01922
 10
47.2302
 20
62.8002
 10
46.8127
 20
62.8002
 42
0.03196000000000002
 10
43.3272
 20
62.5772
 42
-0.03784000000000005
 10
39.92399999999996
 20
62.34559999999999
 42
-0.02758000000000003
 10
34.11869999999994
 20
62.6661
 42
-0.03219999999999999
 10
27.85229999999997
 20
63.71589999999998
 42
-0.04237000000000001
 10
21.83939999999998
 20
65.63999999999999
 42
-0.05668999999999993
 10
16.69019999999998
 20
68.47470000000004
 42
-0.003000000000000063
 10
14.52649999999997
 20
70.84290000000007
 42
0.005780000000000004
 10
11.17549999999991
 20
74.45060000000004
 42
-0.003810000000000007
 10
7.768899999999917
 20
78.00790000000009
 42
0.005450000000000009
 10
5.486299999999986
 20
80.34279999999998
 10
4.7864
 20
81.0236
 42
0.01897999999999998
 10
3.615899999999968
 20
82.02680000000002
 42
-0.002850000000000067
 10
2.45669999999993
 20
82.98630000000006
 42
0.008030000000000018
 10
1.66840000000001
 20
83.62530000000001
 42
0.08268000000000005
 10
-2.647200000000005
 20
85.63640000000001
 42
-0.01811999999999999
 10
-7.665600000000007
 20
87.4579
 42
-0.08667999999999998
 10
-11.81999999999999
 20
90.11279999999999
 42
-0.2302999999999998
 10
-13.5174
 20
94.77079999999999
 42
-0.02730999999999991
 10
-13.4756
 20
95.5942
 42
0.007480000000000069
 10
-13.437
 20
96.4111
 42
-0.4053400000000038
 10
-12.3582
 20
96.96110000000003
 42
0.01878000000000014
 10
-11.36219999999999
 20
96.77520000000001
 42
0.02064000000000002
 10
-11.2752
 20
97.41759999999999
 10
-13.0205
 20
99.6969
 10
-13.0999
 20
100.0644
 10
-13.0205
 20
100.0644
 10
-13.0205
 20
100.1566
 42
0.07270999999999993
 10
-10.9462
 20
99.6969
 10
-8.955500000000008
 20
99.6969
 42
0.03643999999999997
 10
-5.183300000000012
 20
99.9722
 42
-0.03636000000000002
 10
-1.4895
 20
100.247
 10
-0.8186000000000001
 20
100.247
 42
-0.03206000000000001
 10
-0.1144999999999994
 20
100.2018
 42
0.04384999999999995
 10
0.4223000000000001
 20
100.1566
 10
0.7579
 20
100.1566
 10
16.2695
 20
96.4111
 10
17.189
 20
96.4111
 10
18.4313
 20
96.4111
 42
0.03032999999999988
 10
19.6774
 20
96.4966
 42
-0.02105000000000002
 10
21.8393
 20
96.63740000000001
 42
0.01401000000000002
 10
23.9931
 20
96.77520000000001
 42
-0.01392999999999999
 10
25.2445
 20
96.8623
 42
-0.03743000000000003
 10
27.06069999999998
 20
96.7334
 42
0.006519999999999975
 10
29.79829999999998
 20
96.4581
 42
-0.00503999999999996
 10
32.50169999999998
 20
96.18280000000001
 42
-0.008870000000000053
 10
34.28470000000001
 20
95.95180000000002
 10
34.28509999999999
 20
96.4111
 42
-0.03115000000000006
 10
33.7883
 20
96.99970000000002
 42
0.006170000000000004
 10
32.74710000000001
 20
98.23580000000001
 42
0.02338000000000001
 10
31.712
 20
99.3313
 42
0.08541999999999994
 10
27.76530000000001
 20
101.9396
 42
-0.03357000000000026
 10
23.24519999999998
 20
104.4438
 42
-0.06960000000000009
 10
19.5115
 20
107.6858
 42
-0.1923199999999999
 10
17.9349
 20
112.4879
 10
20.0165
 20
112.4879
 42
-0.1603200000000012
 10
20.0916
 20
112.7161
 42
0.1965499999999994
 10
20.1705
 20
113.0313
 10
19.6775
 20
113.9489
 10
19.6775
 20
114.2171
 10
19.67749999999999
 20
114.4015
 42
-0.1892000000000008
 10
20.0916
 20
114.6279
 10
20.5884
 20
114.8646
 10
20.5884
 20
115.0405
 10
20.5884
 20
115.4114
 10
20.1705
 20
116.3138
 10
20.0921
 20
116.5016
 42
-0.1389399999999996
 10
20.1705
 20
116.7783
 42
-0.09525999999999997
 10
21.6667
 20
117.5547
 42
-0.008770000000000002
 10
22.7403
 20
117.6037
 42
0.1872499999999987
 10
23.66269999999999
 20
117.966
 42
0.1499400000000001
 10
24.9074
 20
119.6077
 42
-0.07156999999999991
 10
25.69050000000001
 20
120.8405
 42
-0.01115000000000006
 10
26.56430000000001
 20
121.9745
 42
0.01218000000000002
 10
25.27969999999999
 20
123.63
 42
-0.1437400000000002
 10
24.4091
 20
125.7234
 42
-0.10415
 10
24.5601
 20
126.4546
 42
-0.2390499999999998
 10
25.15889999999998
 20
126.8673
 42
0.02686000000000009
 10
26.56429999999999
 20
127.1906
 10
26.5643
 20
127.4626
 42
0.1543999999999996
 10
26.1084
 20
128.9236
 42
-0.1617999999999994
 10
25.6553
 20
130.3842
 42
-0.24893
 10
26.6114
 20
132.2028
 42
-0.06189999999999996
 10
28.7248
 20
132.9421
 10
28.7253
 20
133.12
 42
0.11208
 10
28.0121
 20
136.3202
 42
-0.08709000000000007
 10
27.3056
 20
139.7002
 10
34.2015
 20
139.7002
 42
0.1111600000000001
 10
33.78830000000001
 20
141.5701
 42
0.04034000000000002
 10
32.78890000000001
 20
143.2541
 42
0.009110000000000005
 10
31.58130000000001
 20
144.8997
 42
-0.03097999999999994
 10
30.46400000000001
 20
146.6374
 10
31.1301
 20
146.6374
 42
-0.06487999999999999
 10
37.4383
 20
145.8154
 42
0.06415999999999987
 10
43.90919999999998
 20
144.9933
 42
0.02381999999999995
 10
44.6975
 20
145.0371
 42
-0.02469999999999995
 10
45.8214
 20
145.0875
 42
0.02401999999999999
 10
46.7305
 20
145.1312
 42
0.02571999999999996
 10
47.2302
 20
145.1764
 10
48.1392
 20
145.6376
 10
44.65560000000001
 20
149.3812
 42
-0.02196999999999997
 10
47.26870000000001
 20
150.2014
 42
-0.02500999999999998
 10
49.39390000000001
 20
150.6107
 42
-0.01629999999999997
 10
51.4217
 20
150.7933
 42
-0.01115
 10
53.78990000000001
 20
150.8337
 42
-0.008249999999999995
 10
56.239
 20
150.7933
 42
-0.008110000000000017
 10
58.35040000000001
 20
150.6592
 42
-0.01771
 10
60.55079999999999
 20
150.3811
 42
-0.00514000000000004
 10
63.1658
 20
149.928
 42
-0.1983199999999931
 10
63.24140000000001
 20
150.1111
 42
0.2095099999999996
 10
62.6694
 20
151.3891
 42
0.04771999999999996
 10
61.3377
 20
152.62
 42
0.01607
 10
59.84340000000002
 20
153.7188
 42
-0.06125000000000001
 10
58.8501
 20
154.5826
 10
59.7563
 20
155.1275
 10
66.977
 20
155.1275
 42
-0.1625199999999992
 10
67.14619999999999
 20
155.6343
 42
-0.1354400000000014
 10
67.47329999999998
 20
156.0418
 42
-0.1818599999999989
 10
68.64318
 20
155.98991
 42
-0.06286000000000026
 10
69.72220000000003
 20
155.4931
 42
-0.01158999999999999
 10
72.7432
 20
153.6665
 42
0.01510000000000011
 10
76.02380000000001
 20
151.7513
 42
0.1006900000000001
 10
79.0111
 20
150.8337
 10
80.754
 20
150.8337
 10
75.61490000000001
 20
153.7587
 10
75.61490000000001
 20
154.3996
 42
-0.03101999999999999
 10
80.88150000000002
 20
154.0725
 42
0.03438999999999988
 10
85.98019999999998
 20
153.7587
 10
86.3177
 20
153.7587
 10
82.50369999999999
 20
156.5933
 10
82.50369999999999
 20
157.0564
 42
-0.10467
 10
89.22230000000002
 20
155.6343
 42
-0.01804999999999995
 10
95.45019999999998
 20
152.6671
 10
95.45059999999999
 20
153.0327
 10
95.45059999999999
 20
153.3027
 10
94.949
 20
154.1248
 10
94.949
 20
154.7671
 42
-0.1782099999999979
 10
95.4502
 20
154.5826
 10
97.10420000000001
 20
153.7587
 42
-0.01121
 10
97.8973
 20
153.1734
 10
99.0545
 20
152.2544
 42
0.01887999999999998
 10
100.2607
 20
151.3434
 42
0.01353999999999995
 10
101.0086
 20
150.8337
 10
101.0091
 20
151.1057
 42
0.1851399999999994
 10
100.3344
 20
152.8449
 42
0.006819999999999977
 10
99.26420000000002
 20
154.5826
 10
99.5162
 20
154.5826
 10
99.761
 20
154.5826
 42
-0.1113999999999997
 10
102.2481
 20
153.6213
 42
-0.008169999999999992
 10
104.4889
 20
152.2948
 42
-0.1230800000000001
 10
111.584
 20
144.7585
 42
-0.058
 10
115.6092
 20
134.7637
 42
0.02053
 10
117.7729
 20
132.3031000000001
 42
0.006979999999999982
 10
121.1747
 20
128.6451000000001
 42
0.006979999999999982
  0
ENDSEC
  0
SECTION
  2
OBJECTS
  0
DICTIONARY
  5
C
330
0
100
AcDbDictionary
281
    1
  3
ACAD_GROUP
350
D
  0
DICTIONARY
  5
D
330
C
100
AcDbDictionary
281
    1
  0
ENDSEC
  0
EOF
