999
Dxf file generated by netDxf https://netdxf.codeplex.com, Copyright(C) 2009-2016 Daniel Carvajal, Licensed under LGPL
0
SECTION
2
HEADER
9
$ACADVER
1
AC1015
9
$DWGCODEPAGE
3
ANSI_1252
9
$HANDSEED
5
192
9
$ANGBASE
50
0.0
9
$ANGDIR
70
0
9
$ATTMODE
70
1
9
$AUNITS
70
0
9
$AUPREC
70
0
9
$CECOLOR
62
256
9
$CELTSCALE
40
1.0
9
$CELTYPE
6
ByLayer
9
$CELWEIGHT
370
-1
9
$CLAYER
8
0
9
$CMLJUST
70
0
9
$CMLSCALE
40
20.0
9
$CMLSTYLE
2
Standard
9
$DIMSTYLE
2
Standard
9
$TEXTSIZE
40
2.5
9
$TEXTSTYLE
7
Standard
9
$LUNITS
70
2
9
$LUPREC
70
4
9
$EXTNAMES
290
1
9
$INSBASE
10
0.0
20
0.0
30
0.0
9
$INSUNITS
70
0
9
$LTSCALE
40
1.0
9
$LWDISPLAY
290
0
9
$PDMODE
70
0
9
$PDSIZE
40
0.0
9
$PLINEGEN
70
0
9
$PSLTSCALE
70
1
9
$TDCREATE
40
2457703.72365199
9
$TDUCREATE
40
2457703.68198532
9
$TDUPDATE
40
2457703.72365199
9
$TDUUPDATE
40
2457703.68198532
9
$TDINDWG
40
0.0
9
$DIMADEC
70
0
9
$DIMAUNIT
70
0
9
$DIMASZ
40
0.18
9
$DIMAZIN
70
0
9
$DIMSAH
70
0
9
$DIMBLK
1

9
$DIMLDRBLK
1

9
$DIMCEN
40
0.09
9
$DIMCLRD
70
0
9
$DIMCLRE
70
0
9
$DIMCLRT
70
0
9
$DIMDEC
70
2
9
$DIMDLE
40
0.0
9
$DIMDLI
40
0.38
9
$DIMDSEP
70
46
9
$DIMEXE
40
0.18
9
$DIMEXO
40
0.0625
9
$DIMGAP
40
0.09
9
$DIMJUST
70
0
9
$DIMLFAC
40
1.0
9
$DIMLUNIT
70
2
9
$DIMLWD
70
-2
9
$DIMLWE
70
-2
9
$DIMPOST
1
<>
9
$DIMRND
40
0.0
9
$DIMSCALE
40
1.0
9
$DIMSE1
70
0
9
$DIMSE2
70
0
9
$DIMTAD
70
1
9
$DIMTIH
70
0
9
$DIMTOH
70
0
9
$DIMTXT
40
0.18
9
$DIMZIN
70
0
9
$DIMFRAC
70
0
9
$DIMLTYPE
6
ByBlock
9
$DIMLTEX1
6
ByBlock
9
$DIMLTEX2
6
ByBlock
0
ENDSEC
0
SECTION
2
CLASSES
0
CLASS
1
RASTERVARIABLES
2
AcDbRasterVariables
3
ISM
90
0
280
0
281
0
0
ENDSEC
0
SECTION
2
TABLES
0
TABLE
2
APPID
5
4
330
0
100
AcDbSymbolTable
70
4
0
APPID
5
17
330
4
100
AcDbSymbolTableRecord
100
AcDbRegAppTableRecord
2
ACAD
70
0
0
APPID
5
187
330
4
100
AcDbSymbolTableRecord
100
AcDbRegAppTableRecord
2
AcCmTransparency
70
0
0
APPID
5
188
330
4
100
AcDbSymbolTableRecord
100
AcDbRegAppTableRecord
2
GradientColor1ACI
70
0
0
APPID
5
189
330
4
100
AcDbSymbolTableRecord
100
AcDbRegAppTableRecord
2
GradientColor2ACI
70
0
0
ENDTAB
0
TABLE
2
VPORT
5
1
330
0
100
AcDbSymbolTable
70
1
0
VPORT
5
2
330
1
100
AcDbSymbolTableRecord
100
AcDbViewportTableRecord
2
*Active
70
0
10
0.0
20
0.0
11
1.0
21
1.0
12
0.0
22
0.0
13
0.0
23
0.0
14
0.5
24
0.5
15
10.0
25
10.0
16
0.0
26
0.0
36
1.0
17
0.0
27
0.0
37
0.0
40
10.0
41
1.0
75
0
76
1
0
ENDTAB
0
TABLE
2
LTYPE
5
6
330
0
100
AcDbSymbolTable
70
3
0
LTYPE
5
13
330
6
100
AcDbSymbolTableRecord
100
AcDbLinetypeTableRecord
70
0
2
Continuous
3
Solid line
72
65
73
0
40
0.0
0
LTYPE
5
14
330
6
100
AcDbSymbolTableRecord
100
AcDbLinetypeTableRecord
70
0
2
ByLayer
3

72
65
73
0
40
0.0
0
LTYPE
5
15
330
6
100
AcDbSymbolTableRecord
100
AcDbLinetypeTableRecord
70
0
2
ByBlock
3

72
65
73
0
40
0.0
0
ENDTAB
0
TABLE
2
LAYER
5
5
330
0
100
AcDbSymbolTable
70
2
0
LAYER
5
12
330
5
100
AcDbSymbolTableRecord
100
AcDbLayerTableRecord
2
0
70
0
62
7
6
Continuous
290
1
370
-3
390
0
0
LAYER
5
3D
330
5
100
AcDbSymbolTableRecord
100
AcDbLayerTableRecord
2
Defpoints
70
0
62
7
6
Continuous
290
0
370
-3
390
0
0
ENDTAB
0
TABLE
2
STYLE
5
7
330
0
100
AcDbSymbolTable
70
1
0
STYLE
5
16
330
7
100
AcDbSymbolTableRecord
100
AcDbTextStyleTableRecord
2
Standard
3
simplex.shx
70
0
71
0
40
0.0
41
1.0
42
0.0
50
0.0
0
ENDTAB
0
TABLE
2
DIMSTYLE
5
8
330
0
100
AcDbSymbolTable
70
1
100
AcDbDimStyleTable
0
DIMSTYLE
105
18
330
8
100
AcDbSymbolTableRecord
100
AcDbDimStyleTableRecord
2
Standard
70
0
3
<>
40
1.0
41
0.18
42
0.0625
43
0.38
44
0.18
45
0.0
46
0.0
73
0
74
0
75
0
76
0
77
1
78
0
79
0
140
0.18
141
0.09
144
1.0
147
0.09
176
0
177
0
178
0
179
0
271
2
275
0
276
0
277
2
278
46
280
0
340
16
173
0
345
15
346
15
347
15
371
-2
372
-2
0
ENDTAB
0
TABLE
2
VIEW
5
3
330
0
100
AcDbSymbolTable
70
0
0
ENDTAB
0
TABLE
2
UCS
5
A
330
0
100
AcDbSymbolTable
70
0
0
ENDTAB
0
TABLE
2
BLOCK_RECORD
5
B
330
0
100
AcDbSymbolTable
70
8
0
BLOCK_RECORD
5
1A
330
B
100
AcDbSymbolTableRecord
100
AcDbBlockTableRecord
2
*Model_Space
340
1E
0
BLOCK_RECORD
5
22
330
B
100
AcDbSymbolTableRecord
100
AcDbBlockTableRecord
2
P4035PINM
340
0
70
4
280
1
281
0
1001
ACAD
1000
DesignCenter Data
1002
{
1070
1
1070
4
1002
}
0
BLOCK_RECORD
5
28
330
B
100
AcDbSymbolTableRecord
100
AcDbBlockTableRecord
2
Vert
340
0
70
4
280
1
281
0
1001
ACAD
1000
DesignCenter Data
1002
{
1070
1
1070
4
1002
}
0
BLOCK_RECORD
5
2E
330
B
100
AcDbSymbolTableRecord
100
AcDbBlockTableRecord
2
Cyan
340
0
70
4
280
1
281
0
1001
ACAD
1000
DesignCenter Data
1002
{
1070
1
1070
4
1002
}
0
BLOCK_RECORD
5
34
330
B
100
AcDbSymbolTableRecord
100
AcDbBlockTableRecord
2
Bleu
340
0
70
4
280
1
281
0
1001
ACAD
1000
DesignCenter Data
1002
{
1070
1
1070
4
1002
}
0
BLOCK_RECORD
5
39
330
B
100
AcDbSymbolTableRecord
100
AcDbBlockTableRecord
2
*D1
340
0
0
BLOCK_RECORD
5
49
330
B
100
AcDbSymbolTableRecord
100
AcDbBlockTableRecord
2
raptor
340
0
70
0
280
1
281
0
1001
ACAD
1000
DesignCenter Data
1002
{
1070
1
1070
0
1002
}
0
BLOCK_RECORD
5
181
330
B
100
AcDbSymbolTableRecord
100
AcDbBlockTableRecord
2
*Paper_Space
340
186
0
ENDTAB
0
ENDSEC
0
SECTION
2
BLOCKS
0
BLOCK
5
1C
330
1A
100
AcDbEntity
8
0
100
AcDbBlockBegin
2
*Model_Space
70
0
10
0.0
20
0.0
30
0.0
3
*Model_Space
0
ENDBLK
5
1B
330
1A
100
AcDbEntity
8
0
100
AcDbBlockEnd
0
BLOCK
5
24
330
22
100
AcDbEntity
8
0
100
AcDbBlockBegin
2
P4035PINM
70
0
10
0.0
20
0.0
30
0.0
3
P4035PINM
0
LWPOLYLINE
5
25
330
22
100
AcDbEntity
8
0
62
1
6
ByLayer
370
5
48
1.0
60
0
100
AcDbPolyline
90
9
70
0
38
0.0
39
0.0
10
0.0
20
9.99997405128858
40
0.0
41
0.0
42
0.0
10
9.99999818084014
20
10.0000168732641
40
0.0
41
0.0
42
0.0
10
10.0000285059283
20
39.9999790341275
40
0.0
41
0.0
42
0.0
10
34.999999221928
20
40.0000344365325
40
0.0
41
0.0
42
0.0
10
34.9999883193986
20
19.9999680301913
40
0.0
41
0.0
42
0.0
10
25.0000076034992
20
20.0000392434862
40
0.0
41
0.0
42
0.0
10
25.000038695135
20
-0.00002747558929
40
0.0
41
0.0
42
0.0
10
0.0
20
0.0
40
0.0
41
0.0
42
0.0
10
0.0
20
9.99995842258661
40
0.0
41
0.0
42
0.0
210
0.0
220
0.0
230
1.0
0
ENDBLK
5
23
330
22
100
AcDbEntity
8
0
100
AcDbBlockEnd
0
BLOCK
5
2A
330
28
100
AcDbEntity
8
0
100
AcDbBlockBegin
2
Vert
70
0
10
0.0
20
0.0
30
0.0
3
Vert
0
LWPOLYLINE
5
2B
330
28
100
AcDbEntity
8
0
62
3
6
ByLayer
370
5
48
1.0
60
0
100
AcDbPolyline
90
9
70
0
38
0.0
39
0.0
10
0.0
20
9.99997405128858
40
0.0
41
0.0
42
0.0
10
9.99999818084014
20
10.0000168732641
40
0.0
41
0.0
42
0.0
10
10.0000285059283
20
39.9999790341275
40
0.0
41
0.0
42
0.0
10
34.999999221928
20
40.0000344365325
40
0.0
41
0.0
42
0.0
10
34.9999883193986
20
19.9999680301913
40
0.0
41
0.0
42
0.0
10
25.0000076034992
20
20.0000392434862
40
0.0
41
0.0
42
0.0
10
25.000038695135
20
-0.00002747558929
40
0.0
41
0.0
42
0.0
10
0.0
20
0.0
40
0.0
41
0.0
42
0.0
10
0.0
20
9.99995842258661
40
0.0
41
0.0
42
0.0
210
0.0
220
0.0
230
1.0
0
ENDBLK
5
29
330
28
100
AcDbEntity
8
0
100
AcDbBlockEnd
0
BLOCK
5
30
330
2E
100
AcDbEntity
8
0
100
AcDbBlockBegin
2
Cyan
70
0
10
0.0
20
0.0
30
0.0
3
Cyan
0
LWPOLYLINE
5
31
330
2E
100
AcDbEntity
8
0
62
4
6
ByLayer
370
5
48
1.0
60
0
100
AcDbPolyline
90
9
70
0
38
0.0
39
0.0
10
0.0
20
9.99997405128858
40
0.0
41
0.0
42
0.0
10
9.99999818084014
20
10.0000168732641
40
0.0
41
0.0
42
0.0
10
10.0000285059283
20
39.9999790341275
40
0.0
41
0.0
42
0.0
10
34.999999221928
20
40.0000344365325
40
0.0
41
0.0
42
0.0
10
34.9999883193986
20
19.9999680301913
40
0.0
41
0.0
42
0.0
10
25.0000076034992
20
20.0000392434862
40
0.0
41
0.0
42
0.0
10
25.000038695135
20
-0.00002747558929
40
0.0
41
0.0
42
0.0
10
0.0
20
0.0
40
0.0
41
0.0
42
0.0
10
0.0
20
9.99995842258661
40
0.0
41
0.0
42
0.0
210
0.0
220
0.0
230
1.0
0
ENDBLK
5
2F
330
2E
100
AcDbEntity
8
0
100
AcDbBlockEnd
0
BLOCK
5
36
330
34
100
AcDbEntity
8
0
100
AcDbBlockBegin
2
Bleu
70
0
10
0.0
20
0.0
30
0.0
3
Bleu
0
LWPOLYLINE
5
37
330
34
100
AcDbEntity
8
0
62
5
6
ByLayer
370
5
48
1.0
60
0
100
AcDbPolyline
90
9
70
0
38
0.0
39
0.0
10
0.0
20
9.99997405128858
40
0.0
41
0.0
42
0.0
10
9.99999818084014
20
10.0000168732641
40
0.0
41
0.0
42
0.0
10
10.0000285059283
20
39.9999790341275
40
0.0
41
0.0
42
0.0
10
34.999999221928
20
40.0000344365325
40
0.0
41
0.0
42
0.0
10
34.9999883193986
20
19.9999680301913
40
0.0
41
0.0
42
0.0
10
25.0000076034992
20
20.0000392434862
40
0.0
41
0.0
42
0.0
10
25.000038695135
20
-0.00002747558929
40
0.0
41
0.0
42
0.0
10
0.0
20
0.0
40
0.0
41
0.0
42
0.0
10
0.0
20
9.99995842258661
40
0.0
41
0.0
42
0.0
210
0.0
220
0.0
230
1.0
0
ENDBLK
5
35
330
34
100
AcDbEntity
8
0
100
AcDbBlockEnd
0
BLOCK
5
3B
330
39
100
AcDbEntity
8
0
100
AcDbBlockBegin
2
*D1
70
1
10
0.0
20
0.0
30
0.0
3
*D1
0
POINT
5
3C
330
39
100
AcDbEntity
8
0
62
256
6
ByLayer
370
-1
48
1.0
60
0
100
AcDbPoint
10
100.0
20
100.0
30
0.0
39
0.0
210
0.0
220
0.0
230
1.0
50
360.0
0
POINT
5
3E
330
39
100
AcDbEntity
8
0
62
256
6
ByLayer
370
-1
48
1.0
60
0
100
AcDbPoint
10
100.0
20
200.0
30
0.0
39
0.0
210
0.0
220
0.0
230
1.0
50
360.0
0
POINT
5
3F
330
39
100
AcDbEntity
8
0
62
256
6
ByLayer
370
-1
48
1.0
60
0
100
AcDbPoint
10
95.0
20
200.0
30
0.0
39
0.0
210
0.0
220
0.0
230
1.0
50
360.0
0
LINE
5
40
330
39
100
AcDbEntity
8
0
62
1
6
ByBlock
370
0
48
1.0
60
0
100
AcDbLine
10
95.0
20
100.18
30
0.0
11
95.0
21
199.82
31
0.0
39
0.0
210
0.0
220
0.0
230
1.0
0
LINE
5
41
330
39
100
AcDbEntity
8
0
62
1
6
ByBlock
370
0
48
1.0
60
0
100
AcDbLine
10
99.9375
20
100.0
30
0.0
11
94.82
21
100.0
31
0.0
39
0.0
210
0.0
220
0.0
230
1.0
0
LINE
5
42
330
39
100
AcDbEntity
8
0
62
1
6
ByBlock
370
0
48
1.0
60
0
100
AcDbLine
10
99.9375
20
200.0
30
0.0
11
94.82
21
200.0
31
0.0
39
0.0
210
0.0
220
0.0
230
1.0
0
SOLID
5
43
330
39
100
AcDbEntity
8
0
62
1
6
ByLayer
370
-1
48
1.0
60
0
100
AcDbTrace
10
95.0
20
100.0
30
0.0
11
94.97
21
100.18
31
0.0
12
95.03
22
100.18
32
0.0
13
95.03
23
100.18
33
0.0
39
0.0
210
0.0
220
0.0
230
1.0
0
SOLID
5
44
330
39
100
AcDbEntity
8
0
62
1
6
ByLayer
370
-1
48
1.0
60
0
100
AcDbTrace
10
95.0
20
200.0
30
0.0
11
95.03
21
199.82
31
0.0
12
94.97
22
199.82
32
0.0
13
94.97
23
199.82
33
0.0
39
0.0
210
0.0
220
0.0
230
1.0
0
MTEXT
5
45
330
39
100
AcDbEntity
8
0
62
1
6
ByLayer
370
-1
48
1.0
60
0
100
AcDbMText
10
94.91
20
150.0
30
0.0
210
0.0
220
0.0
230
1.0
1
coucou
40
0.18
41
0.0
44
1.0
50
90.0
71
8
72
5
7
Standard
0
ENDBLK
5
3A
330
39
100
AcDbEntity
8
0
100
AcDbBlockEnd
0
BLOCK
5
4B
330
49
100
AcDbEntity
8
0
100
AcDbBlockBegin
2
raptor
70
0
10
0.0
20
0.0
30
0.0
3
raptor
0
LINE
5
4C
330
49
100
AcDbEntity
8
0
62
5
6
ByLayer
370
5
48
1.0
60
0
100
AcDbLine
10
-28.5725
20
33.1321
30
0.0
11
-28.5733
21
33.1371
31
0.0
39
0.0
210
0.0
220
0.0
230
1.0
0
ARC
5
4D
330
49
100
AcDbEntity
8
0
62
5
6
ByLayer
370
5
48
1.0
60
0
100
AcDbCircle
39
0.0
10
-18.30027
20
33.24355
30
0.0
40
10.27358
210
0.0
220
0.0
230
1.0
100
AcDbArc
50
166.69968
51
180.59371
0
ARC
5
4E
330
49
100
AcDbEntity
8
0
62
5
6
ByLayer
370
5
48
1.0
60
0
100
AcDbCircle
39
0.0
10
45.43342
20
16.59132
30
0.0
40
76.14435
210
0.0
220
0.0
230
1.0
100
AcDbArc
50
163.65818
51
165.53832
0
ARC
5
4F
330
49
100
AcDbEntity
8
0
62
5
6
ByLayer
370
5
48
1.0
60
0
100
AcDbCircle
39
0.0
10
-131.52812
20
69.87002
30
0.0
40
108.66705
210
0.0
220
0.0
230
1.0
100
AcDbArc
50
342.95423
51
344.27178
0
ARC
5
50
330
49
100
AcDbEntity
8
0
62
5
6
ByLayer
370
5
48
1.0
60
0
100
AcDbCircle
39
0.0
10
-36.25535
20
43.68737
30
0.0
40
9.8837
210
0.0
220
0.0
230
1.0
100
AcDbArc
50
340.65386
51
355.15972
0
ARC
5
51
330
49
100
AcDbEntity
8
0
62
5
6
ByLayer
370
5
48
1.0
60
0
100
AcDbCircle
39
0.0
10
2.61939
20
40.94933
30
0.0
40
29.08868
210
0.0
220
0.0
230
1.0
100
AcDbArc
50
172.33665
51
176.24687
0
ARC
5
52
330
49
100
AcDbEntity
8
0
62
5
6
ByLayer
370
5
48
1.0
60
0
100
AcDbCircle
39
0.0
10
-19.68631
20
44.2149
30
0.0
40
6.55196
210
0.0
220
0.0
230
1.0
100
AcDbArc
50
157.26306
51
174.6275
0
ARC
5
53
330
49
100
AcDbEntity
8
0
62
5
6
ByLayer
370
5
48
1.0
60
0
100
AcDbCircle
39
0.0
10
-18.25578
20
42.76195
30
0.0
40
8.46955
210
0.0
220
0.0
230
1.0
100
AcDbArc
50
125.2058
51
151.93041
0
ARC
5
54
330
49
100
AcDbEntity
8
0
62
5
6
ByLayer
370
5
48
1.0
60
0
100
AcDbCircle
39
0.0
10
-47.28938
20
78.72017
30
0.0
40
37.76847
210
0.0
220
0.0
230
1.0
100
AcDbArc
50
309.75028
51
316.92835
0
ARC
5
55
330
49
100
AcDbEntity
8
0
62
5
6
ByLayer
370
5
48
1.0
60
0
100
AcDbCircle
39
0.0
10
-139.64351
20
163.5186
30
0.0
40
163.14697
210
0.0
220
0.0
230
1.0
100
AcDbArc
50
317.32327
51
318.98587
0
ARC
5
56
330
49
100
AcDbEntity
8
0
62
5
6
ByLayer
370
5
48
1.0
60
0
100
AcDbCircle
39
0.0
10
-7618.35256
20
6609.99253
30
0.0
40
10036.7524
210
0.0
220
0.0
230
1.0
100
AcDbArc
50
319.2353
51
319.26233
0
ARC
5
57
330
49
100
AcDbEntity
8
0
62
5
6
ByLayer
370
5
48
1.0
60
0
100
AcDbCircle
39
0.0
10
8.82114
20
43.0475
30
0.0
40
28.01448
210
0.0
220
0.0
230
1.0
100
AcDbArc
50
132.96788
51
142.65687
0
ARC
5
58
330
49
100
AcDbEntity
8
0
62
5
6
ByLayer
370
5
48
1.0
60
0
100
AcDbCircle
39
0.0
10
533.30557
20
186.45352
30
0.0
40
557.30061
210
0.0
220
0.0
230
1.0
100
AcDbArc
50
192.08145
51
192.74072
0
ARC
5
59
330
49
100
AcDbEntity
8
0
62
5
6
ByLayer
370
5
48
1.0
60
0
100
AcDbCircle
39
0.0
10
8.92029
20
74.66767
30
0.0
40
21.1376
210
0.0
220
0.0
230
1.0
100
AcDbArc
50
184.5923
51
193.28764
0
ARC
5
5A
330
49
100
AcDbEntity
8
0
62
5
6
ByLayer
370
5
48
1.0
60
0
100
AcDbCircle
39
0.0
10
-3.50412
20
74.0586
30
0.0
40
8.71293
210
0.0
220
0.0
230
1.0
100
AcDbArc
50
166.02612
51
187.14232
0
ARC
5
5B
330
49
100
AcDbEntity
8
0
62
5
6
ByLayer
370
5
48
1.0
60
0
100
AcDbCircle
39
0.0
10
570.40322
20
245.63686
30
0.0
40
606.52083
210
0.0
220
0.0
230
1.0
100
AcDbArc
50
195.4153
51
196.22561
0
ARC
5
5C
330
49
100
AcDbEntity
8
0
62
5
6
ByLayer
370
5
48
1.0
60
0
100
AcDbCircle
39
0.0
10
26.86825
20
96.33142
30
0.0
40
42.85588
210
0.0
220
0.0
230
1.0
100
AcDbArc
50
190.40837
51
196.14376
0
ARC
5
5D
330
49
100
AcDbEntity
8
0
62
5
6
ByLayer
370
5
48
1.0
60
0
100
AcDbCircle
39
0.0
10
1.96899
20
92.32348
30
0.0
40
17.65101
210
0.0
220
0.0
230
1.0
100
AcDbArc
50
178.28285
51
192.21468
0
ARC
5
5E
330
49
100
AcDbEntity
8
0
62
5
6
ByLayer
370
5
48
1.0
60
0
100
AcDbCircle
39
0.0
10
-21.53842
20
93.78384
30
0.0
40
5.93783
210
0.0
220
0.0
230
1.0
100
AcDbArc
50
350.97501
51
36.03095
0
ARC
5
5F
330
49
100
AcDbEntity
8
0
62
5
6
ByLayer
370
5
48
1.0
60
0
100
AcDbCircle
39
0.0
10
0.10996
20
110.37183
30
0.0
40
21.33749
210
0.0
220
0.0
230
1.0
100
AcDbArc
50
196.09954
51
217.85894
0
ARC
5
60
330
49
100
AcDbEntity
8
0
62
5
6
ByLayer
370
5
48
1.0
60
0
100
AcDbCircle
39
0.0
10
-30.09854
20
101.26828
30
0.0
40
10.21744
210
0.0
220
0.0
230
1.0
100
AcDbArc
50
18.172
51
60.94852
0
ARC
5
61
330
49
100
AcDbEntity
8
0
62
5
6
ByLayer
370
5
48
1.0
60
0
100
AcDbCircle
39
0.0
10
-22.6488
20
115.00991
30
0.0
40
5.41521
210
0.0
220
0.0
230
1.0
100
AcDbArc
50
186.5649
51
242.64619
0
ARC
5
62
330
49
100
AcDbEntity
8
0
62
5
6
ByLayer
370
5
48
1.0
60
0
100
AcDbCircle
39
0.0
10
-29.28113
20
114.20593
30
0.0
40
1.2662
210
0.0
220
0.0
230
1.0
100
AcDbArc
50
8.39532
51
67.78009
0
ARC
5
63
330
49
100
AcDbEntity
8
0
62
5
6
ByLayer
370
5
48
1.0
60
0
100
AcDbCircle
39
0.0
10
-26.23062
20
121.58624
30
0.0
40
6.71971
210
0.0
220
0.0
230
1.0
100
AcDbArc
50
221.93549
51
247.49856
0
ARC
5
64
330
49
100
AcDbEntity
8
0
62
5
6
ByLayer
370
5
48
1.0
60
0
100
AcDbCircle
39
0.0
10
-31.87394
20
116.07352
30
0.0
40
1.20825
210
0.0
220
0.0
230
1.0
100
AcDbArc
50
57.76148
51
132.38302
0
ARC
5
65
330
49
100
AcDbEntity
8
0
62
5
6
ByLayer
370
5
48
1.0
60
0
100
AcDbCircle
39
0.0
10
-55.53095
20
148.02318
30
0.0
40
38.55295
210
0.0
220
0.0
230
1.0
100
AcDbArc
50
280.33564
51
306.33447
0
ARC
5
66
330
49
100
AcDbEntity
8
0
62
5
6
ByLayer
370
5
48
1.0
60
0
100
AcDbCircle
39
0.0
10
-25.01489
20
16.95876
30
0.0
40
96.08031
210
0.0
220
0.0
230
1.0
100
AcDbArc
50
104.21839
51
107.56429
0
ARC
5
67
330
49
100
AcDbEntity
8
0
62
5
6
ByLayer
370
5
48
1.0
60
0
100
AcDbCircle
39
0.0
10
-56.1144
20
113.09475
30
0.0
40
4.99968
210
0.0
220
0.0
230
1.0
100
AcDbArc
50
262.24881
51
294.89688
0
ARC
5
68
330
49
100
AcDbEntity
8
0
62
5
6
ByLayer
370
5
48
1.0
60
0
100
AcDbCircle
39
0.0
10
-55.83176
20
111.94743
30
0.0
40
3.92512
210
0.0
220
0.0
230
1.0
100
AcDbArc
50
214.9194
51
255.88902
0
ARC
5
69
330
49
100
AcDbEntity
8
0
62
5
6
ByLayer
370
5
48
1.0
60
0
100
AcDbCircle
39
0.0
10
-58.98657
20
111.88986
30
0.0
40
2.19018
210
0.0
220
0.0
230
1.0
100
AcDbArc
50
208.96774
51
268.33514
0
ARC
5
6A
330
49
100
AcDbEntity
8
0
62
5
6
ByLayer
370
5
48
1.0
60
0
100
AcDbCircle
39
0.0
10
-55.53675
20
112.92303
30
0.0
40
5.76006
210
0.0
220
0.0
230
1.0
100
AcDbArc
50
178.72507
51
201.3167
0
ARC
5
6B
330
49
100
AcDbEntity
8
0
62
5
6
ByLayer
370
5
48
1.0
60
0
100
AcDbCircle
39
0.0
10
-9.5124
20
108.2306
30
0.0
40
52.00689
210
0.0
220
0.0
230
1.0
100
AcDbArc
50
169.65514
51
174.68154
0
ARC
5
6C
330
49
100
AcDbEntity
8
0
62
5
6
ByLayer
370
5
48
1.0
60
0
100
AcDbCircle
39
0.0
10
-42.04562
20
115.20173
30
0.0
40
18.77817
210
0.0
220
0.0
230
1.0
100
AcDbArc
50
134.37388
51
172.75588
0
ARC
5
6D
330
49
100
AcDbEntity
8
0
62
5
6
ByLayer
370
5
48
1.0
60
0
100
AcDbCircle
39
0.0
10
-84.45364
20
156.49961
30
0.0
40
40.4241
210
0.0
220
0.0
230
1.0
100
AcDbArc
50
316.40359
51
323.05216
0
ARC
5
6E
330
49
100
AcDbEntity
8
0
62
5
6
ByLayer
370
5
48
1.0
60
0
100
AcDbCircle
39
0.0
10
-9.12839
20
101.25982
30
0.0
40
52.99059
210
0.0
220
0.0
230
1.0
100
AcDbArc
50
141.73801
51
144.27447
0
ARC
5
6F
330
49
100
AcDbEntity
8
0
62
5
6
ByLayer
370
5
48
1.0
60
0
100
AcDbCircle
39
0.0
10
-47.01663
20
131.89909
30
0.0
40
4.30887
210
0.0
220
0.0
230
1.0
100
AcDbArc
50
118.28468
51
149.67471
0
ARC
5
70
330
49
100
AcDbEntity
8
0
62
5
6
ByLayer
370
5
48
1.0
60
0
100
AcDbCircle
39
0.0
10
-49.32006
20
136.06157
30
0.0
40
0.45159
210
0.0
220
0.0
230
1.0
100
AcDbArc
50
305.40899
51
9.83461999999997
0
ARC
5
71
330
49
100
AcDbEntity
8
0
62
5
6
ByLayer
370
5
48
1.0
60
0
100
AcDbCircle
39
0.0
10
-45.64399
20
136.5349
30
0.0
40
3.25531
210
0.0
220
0.0
230
1.0
100
AcDbArc
50
158.55411
51
186.99082
0
ARC
5
72
330
49
100
AcDbEntity
8
0
62
5
6
ByLayer
370
5
48
1.0
60
0
100
AcDbCircle
39
0.0
10
-51.55966
20
139.63707
30
0.0
40
3.46165
210
0.0
220
0.0
230
1.0
100
AcDbArc
50
326.47355
51
353.4351
0
ARC
5
73
330
49
100
AcDbEntity
8
0
62
5
6
ByLayer
370
5
48
1.0
60
0
100
AcDbCircle
39
0.0
10
-47.02926
20
138.98745
30
0.0
40
1.12057
210
0.0
220
0.0
230
1.0
100
AcDbArc
50
109.1518
51
166.90691
0
ARC
5
74
330
49
100
AcDbEntity
8
0
62
5
6
ByLayer
370
5
48
1.0
60
0
100
AcDbCircle
39
0.0
10
-45.76199
20
133.58323
30
0.0
40
6.66635
210
0.0
220
0.0
230
1.0
100
AcDbArc
50
94.36614
51
104.19637
0
ARC
5
75
330
49
100
AcDbEntity
8
0
62
5
6
ByLayer
370
5
48
1.0
60
0
100
AcDbCircle
39
0.0
10
-46.65397
20
151.72209
30
0.0
40
11.49828
210
0.0
220
0.0
230
1.0
100
AcDbArc
50
271.91618
51
277.62411
0
ARC
5
76
330
49
100
AcDbEntity
8
0
62
5
6
ByLayer
370
5
48
1.0
60
0
100
AcDbCircle
39
0.0
10
-45.1085
20
141.98178
30
0.0
40
1.65645
210
0.0
220
0.0
230
1.0
100
AcDbArc
50
269.30962
51
309.22567
0
ARC
5
77
330
49
100
AcDbEntity
8
0
62
5
6
ByLayer
370
5
48
1.0
60
0
100
AcDbCircle
39
0.0
10
-41.3843
20
141.27057
30
0.0
40
2.73713
210
0.0
220
0.0
230
1.0
100
AcDbArc
50
143.39689
51
192.06178
0
ARC
5
78
330
49
100
AcDbEntity
8
0
62
5
6
ByLayer
370
5
48
1.0
60
0
100
AcDbCircle
39
0.0
10
-40.06777
20
139.71977
30
0.0
40
4.74107
210
0.0
220
0.0
230
1.0
100
AcDbArc
50
109.98311
51
137.82962
0
ARC
5
79
330
49
100
AcDbEntity
8
0
62
5
6
ByLayer
370
5
48
1.0
60
0
100
AcDbCircle
39
0.0
10
-78.70757
20
238.42426
30
0.0
40
101.25857
210
0.0
220
0.0
230
1.0
100
AcDbArc
50
291.44417
51
294.7409
0
ARC
5
7A
330
49
100
AcDbEntity
8
0
62
5
6
ByLayer
370
5
48
1.0
60
0
100
AcDbCircle
39
0.0
10
-15.40446
20
106.37819
30
0.0
40
45.21527
210
0.0
220
0.0
230
1.0
100
AcDbArc
50
110.17946
51
117.5668
0
ARC
5
7B
330
49
100
AcDbEntity
8
0
62
5
6
ByLayer
370
5
48
1.0
60
0
100
AcDbCircle
39
0.0
10
-16.99808
20
115.05105
30
0.0
40
36.55566
210
0.0
220
0.0
230
1.0
100
AcDbArc
50
105.90476
51
112.5249
0
ARC
5
7C
330
49
100
AcDbEntity
8
0
62
5
6
ByLayer
370
5
48
1.0
60
0
100
AcDbCircle
39
0.0
10
-22.44967
20
135.46491
30
0.0
40
15.43333
210
0.0
220
0.0
230
1.0
100
AcDbArc
50
91.51649
51
107.20906
0
ARC
5
7D
330
49
100
AcDbEntity
8
0
62
5
6
ByLayer
370
5
48
1.0
60
0
100
AcDbCircle
39
0.0
10
-22.79149
20
137.40462
30
0.0
40
13.48837
210
0.0
220
0.0
230
1.0
100
AcDbArc
50
54.46113
51
90.28299
0
ARC
5
7E
330
49
100
AcDbEntity
8
0
62
5
6
ByLayer
370
5
48
1.0
60
0
100
AcDbCircle
39
0.0
10
-25.25512
20
132.12816
30
0.0
40
19.24328
210
0.0
220
0.0
230
1.0
100
AcDbArc
50
28.60037
51
57.62556
0
ARC
5
7F
330
49
100
AcDbEntity
8
0
62
5
6
ByLayer
370
5
48
1.0
60
0
100
AcDbCircle
39
0.0
10
-29.72413
20
130.21025
30
0.0
40
24.08939
210
0.0
220
0.0
230
1.0
100
AcDbArc
50
15.95037
51
27.51713
0
ARC
5
80
330
49
100
AcDbEntity
8
0
62
5
6
ByLayer
370
5
48
1.0
60
0
100
AcDbCircle
39
0.0
10
-56.65814
20
123.3529
30
0.0
40
51.87718
210
0.0
220
0.0
230
1.0
100
AcDbArc
50
9.6847
51
15.05766
0
ARC
5
81
330
49
100
AcDbEntity
8
0
62
5
6
ByLayer
370
5
48
1.0
60
0
100
AcDbCircle
39
0.0
10
126.56405
20
153.85657
30
0.0
40
133.86745
210
0.0
220
0.0
230
1.0
100
AcDbArc
50
189.36206
51
193.193
0
ARC
5
82
330
49
100
AcDbEntity
8
0
62
5
6
ByLayer
370
5
48
1.0
60
0
100
AcDbCircle
39
0.0
10
57.25959
20
136.44852
30
0.0
40
62.42933
210
0.0
220
0.0
230
1.0
100
AcDbArc
50
192.15485
51
200.37102
0
ARC
5
83
330
49
100
AcDbEntity
8
0
62
5
6
ByLayer
370
5
48
1.0
60
0
100
AcDbCircle
39
0.0
10
-0.56404
20
115.03374
30
0.0
40
0.76948
210
0.0
220
0.0
230
1.0
100
AcDbArc
50
204.30704
51
268.908
0
ARC
5
84
330
49
100
AcDbEntity
8
0
62
5
6
ByLayer
370
5
48
1.0
60
0
100
AcDbCircle
39
0.0
10
-0.9232
20
75.65249
30
0.0
40
38.61345
210
0.0
220
0.0
230
1.0
100
AcDbArc
50
73.00929
51
89.48881
0
ARC
5
85
330
49
100
AcDbEntity
8
0
62
5
6
ByLayer
370
5
48
1.0
60
0
100
AcDbCircle
39
0.0
10
-14.4884
20
36.91889
30
0.0
40
79.63757
210
0.0
220
0.0
230
1.0
100
AcDbArc
50
63.82402
51
71.81886
0
ARC
5
86
330
49
100
AcDbEntity
8
0
62
5
6
ByLayer
370
5
48
1.0
60
0
100
AcDbCircle
39
0.0
10
-59.49237
20
-65.86562
30
0.0
40
191.79739
210
0.0
220
0.0
230
1.0
100
AcDbArc
50
61.38005
51
65.30373
0
ARC
5
87
330
49
100
AcDbEntity
8
0
62
5
6
ByLayer
370
5
48
1.0
60
0
100
AcDbCircle
39
0.0
10
2.38064
20
46.06298
30
0.0
40
63.91146
210
0.0
220
0.0
230
1.0
100
AcDbArc
50
56.11973
51
62.00725
0
ARC
5
88
330
49
100
AcDbEntity
8
0
62
5
6
ByLayer
370
5
48
1.0
60
0
100
AcDbCircle
39
0.0
10
21.68274
20
73.49927
30
0.0
40
30.38238
210
0.0
220
0.0
230
1.0
100
AcDbArc
50
45.10851
51
57.49665
0
ARC
5
89
330
49
100
AcDbEntity
8
0
62
5
6
ByLayer
370
5
48
1.0
60
0
100
AcDbCircle
39
0.0
10
-20.46573
20
32.3305
30
0.0
40
89.29877
210
0.0
220
0.0
230
1.0
100
AcDbArc
50
39.06554
51
44.59243
0
ARC
5
8A
330
49
100
AcDbEntity
8
0
62
5
6
ByLayer
370
5
48
1.0
60
0
100
AcDbCircle
39
0.0
10
180.97447
20
189.85783
30
0.0
40
166.44441
210
0.0
220
0.0
230
1.0
100
AcDbArc
50
217.46769
51
220.43341
0
ARC
5
8B
330
49
100
AcDbEntity
8
0
62
5
6
ByLayer
370
5
48
1.0
60
0
100
AcDbCircle
39
0.0
10
69.52435
20
93.76175
30
0.0
40
19.30781
210
0.0
220
0.0
230
1.0
100
AcDbArc
50
217.8746
51
248.15661
0
ARC
5
8C
330
49
100
AcDbEntity
8
0
62
5
6
ByLayer
370
5
48
1.0
60
0
100
AcDbCircle
39
0.0
10
73.23038
20
105.14608
30
0.0
40
31.26384
210
0.0
220
0.0
230
1.0
100
AcDbArc
50
249.61524
51
258.94977
0
ARC
5
8D
330
49
100
AcDbEntity
8
0
62
5
6
ByLayer
370
5
48
1.0
60
0
100
AcDbCircle
39
0.0
10
91.15627
20
209.14904
30
0.0
40
136.79441
210
0.0
220
0.0
230
1.0
100
AcDbArc
50
259.93019
51
262.06438
0
ARC
5
8E
330
49
100
AcDbEntity
8
0
62
5
6
ByLayer
370
5
48
1.0
60
0
100
AcDbCircle
39
0.0
10
80.94461
20
169.54533
30
0.0
40
96.2723
210
0.0
220
0.0
230
1.0
100
AcDbArc
50
264.83059
51
269.68178
0
ARC
5
8F
330
49
100
AcDbEntity
8
0
62
5
6
ByLayer
370
5
48
1.0
60
0
100
AcDbCircle
39
0.0
10
82.40522
20
-133.86296
30
0.0
40
207.14708
210
0.0
220
0.0
230
1.0
100
AcDbArc
50
88.29713
51
90.5519
0
ARC
5
90
330
49
100
AcDbEntity
8
0
62
5
6
ByLayer
370
5
48
1.0
60
0
100
AcDbCircle
39
0.0
10
87.92415
20
14.05891
30
0.0
40
59.13716
210
0.0
220
0.0
230
1.0
100
AcDbArc
50
81.48328
51
89.38309
0
ARC
5
91
330
49
100
AcDbEntity
8
0
62
5
6
ByLayer
370
5
48
1.0
60
0
100
AcDbCircle
39
0.0
10
94.22958
20
48.95263
30
0.0
40
23.71846
210
0.0
220
0.0
230
1.0
100
AcDbArc
50
64.34853
51
84.0646
0
ARC
5
92
330
49
100
AcDbEntity
8
0
62
5
6
ByLayer
370
5
48
1.0
60
0
100
AcDbCircle
39
0.0
10
96.41429
20
52.47642
30
0.0
40
19.60124
210
0.0
220
0.0
230
1.0
100
AcDbArc
50
29.48177
51
65.64636
0
ARC
5
93
330
49
100
AcDbEntity
8
0
62
5
6
ByLayer
370
5
48
1.0
60
0
100
AcDbCircle
39
0.0
10
97.03315
20
53.08353
30
0.0
40
18.76506
210
0.0
220
0.0
230
1.0
100
AcDbArc
50
351.10438
51
28.79804
0
ARC
5
94
330
49
100
AcDbEntity
8
0
62
5
6
ByLayer
370
5
48
1.0
60
0
100
AcDbCircle
39
0.0
10
103.12196
20
52.13901
30
0.0
40
12.60343
210
0.0
220
0.0
230
1.0
100
AcDbArc
50
350.03181
51
351.06627
0
ARC
5
95
330
49
100
AcDbEntity
8
0
62
5
6
ByLayer
370
5
48
1.0
60
0
100
AcDbCircle
39
0.0
10
110.82593
20
50.76038
30
0.0
40
4.77718
210
0.0
220
0.0
230
1.0
100
AcDbArc
50
349.07859
51
350.32272
0
ARC
5
96
330
49
100
AcDbEntity
8
0
62
5
6
ByLayer
370
5
48
1.0
60
0
100
AcDbCircle
39
0.0
10
109.15555
20
51.00925
30
0.0
40
6.46487
210
0.0
220
0.0
230
1.0
100
AcDbArc
50
347.87985
51
349.7177
0
ARC
5
97
330
49
100
AcDbEntity
8
0
62
5
6
ByLayer
370
5
48
1.0
60
0
100
AcDbCircle
39
0.0
10
109.65313
20
50.85233
30
0.0
40
5.94563
210
0.0
220
0.0
230
1.0
100
AcDbArc
50
344.35339
51
348.35154
0
ARC
5
98
330
49
100
AcDbEntity
8
0
62
5
6
ByLayer
370
5
48
1.0
60
0
100
AcDbCircle
39
0.0
10
113.03749
20
49.8498
30
0.0
40
2.41687
210
0.0
220
0.0
230
1.0
100
AcDbArc
50
335.76375
51
345.60064
0
ARC
5
99
330
49
100
AcDbEntity
8
0
62
5
6
ByLayer
370
5
48
1.0
60
0
100
AcDbCircle
39
0.0
10
115.03571
20
48.79316
30
0.0
40
0.21551
210
0.0
220
0.0
230
1.0
100
AcDbArc
50
251.27764
51
17.42015
0
ARC
5
9A
330
49
100
AcDbEntity
8
0
62
5
6
ByLayer
370
5
48
1.0
60
0
100
AcDbCircle
39
0.0
10
118.88501
20
50.0682
30
0.0
40
4.18835
210
0.0
220
0.0
230
1.0
100
AcDbArc
50
178.44578
51
200.68055
0
ARC
5
9B
330
49
100
AcDbEntity
8
0
62
5
6
ByLayer
370
5
48
1.0
60
0
100
AcDbCircle
39
0.0
10
98.97288
20
50.0157
30
0.0
40
15.7262
210
0.0
220
0.0
230
1.0
100
AcDbArc
50
0.60518
51
36.56788
0
ARC
5
9C
330
49
100
AcDbEntity
8
0
62
5
6
ByLayer
370
5
48
1.0
60
0
100
AcDbCircle
39
0.0
10
96.87974
20
48.08847
30
0.0
40
18.55794
210
0.0
220
0.0
230
1.0
100
AcDbArc
50
37.49666
51
68.00255
0
ARC
5
9D
330
49
100
AcDbEntity
8
0
62
5
6
ByLayer
370
5
48
1.0
60
0
100
AcDbCircle
39
0.0
10
94.88506
20
41.74614
30
0.0
40
25.19118
210
0.0
220
0.0
230
1.0
100
AcDbArc
50
69.19932
51
85.42123
0
ARC
5
9E
330
49
100
AcDbEntity
8
0
62
5
6
ByLayer
370
5
48
1.0
60
0
100
AcDbCircle
39
0.0
10
94.34518
20
28.42422
30
0.0
40
38.51727
210
0.0
220
0.0
230
1.0
100
AcDbArc
50
86.2027
51
96.81597
0
ARC
5
9F
330
49
100
AcDbEntity
8
0
62
5
6
ByLayer
370
5
48
1.0
60
0
100
AcDbCircle
39
0.0
10
98.9414
20
2.30099
30
0.0
40
65.01782
210
0.0
220
0.0
230
1.0
100
AcDbArc
50
98.10569
51
110.67837
0
ARC
5
A0
330
49
100
AcDbEntity
8
0
62
5
6
ByLayer
370
5
48
1.0
60
0
100
AcDbCircle
39
0.0
10
60.47775
20
103.8079
30
0.0
40
43.53232
210
0.0
220
0.0
230
1.0
100
AcDbArc
50
277.21992
51
290.86453
0
ARC
5
A1
330
49
100
AcDbEntity
8
0
62
5
6
ByLayer
370
5
48
1.0
60
0
100
AcDbCircle
39
0.0
10
60.95867
20
94.96169
30
0.0
40
34.70162
210
0.0
220
0.0
230
1.0
100
AcDbArc
50
261.14367
51
278.26788
0
ARC
5
A2
330
49
100
AcDbEntity
8
0
62
5
6
ByLayer
370
5
48
1.0
60
0
100
AcDbCircle
39
0.0
10
90.62041
20
234.67211
30
0.0
40
177.48441
210
0.0
220
0.0
230
1.0
100
AcDbArc
50
256.84111
51
258.62529
0
ARC
5
A3
330
49
100
AcDbEntity
8
0
62
5
6
ByLayer
370
5
48
1.0
60
0
100
AcDbCircle
39
0.0
10
44.28604
20
38.91858
30
0.0
40
23.68373
210
0.0
220
0.0
230
1.0
100
AcDbArc
50
75.50074
51
82.18889
0
ARC
5
A4
330
49
100
AcDbEntity
8
0
62
5
6
ByLayer
370
5
48
1.0
60
0
100
AcDbCircle
39
0.0
10
45.98415
20
52.57888
30
0.0
40
9.92092
210
0.0
220
0.0
230
1.0
100
AcDbArc
50
81.18285
51
97.15245
0
ARC
5
A5
330
49
100
AcDbEntity
8
0
62
5
6
ByLayer
370
5
48
1.0
60
0
100
AcDbCircle
39
0.0
10
78.28661
20
54.40752
30
0.0
40
34.48216
210
0.0
220
0.0
230
1.0
100
AcDbArc
50
166.55915
51
183.8187
0
ARC
5
A6
330
49
100
AcDbEntity
8
0
62
5
6
ByLayer
370
5
48
1.0
60
0
100
AcDbCircle
39
0.0
10
84.15455
20
54.71664
30
0.0
40
40.35775
210
0.0
220
0.0
230
1.0
100
AcDbArc
50
183.70175
51
198.45994
0
ARC
5
A7
330
49
100
AcDbEntity
8
0
62
5
6
ByLayer
370
5
48
1.0
60
0
100
AcDbCircle
39
0.0
10
22.92858
20
35.33605
30
0.0
40
23.87565
210
0.0
220
0.0
230
1.0
100
AcDbArc
50
353.42271
51
16.0515
0
ARC
5
A8
330
49
100
AcDbEntity
8
0
62
5
6
ByLayer
370
5
48
1.0
60
0
100
AcDbCircle
39
0.0
10
-14.40327
20
40.68974
30
0.0
40
61.58384
210
0.0
220
0.0
230
1.0
100
AcDbArc
50
348.05922
51
352.4529
0
ARC
5
A9
330
49
100
AcDbEntity
8
0
62
5
6
ByLayer
370
5
48
1.0
60
0
100
AcDbCircle
39
0.0
10
136.29466
20
6.47791
30
0.0
40
92.96
210
0.0
220
0.0
230
1.0
100
AcDbArc
50
166.64636
51
169.55762
0
ARC
5
AA
330
49
100
AcDbEntity
8
0
62
5
6
ByLayer
370
5
48
1.0
60
0
100
AcDbCircle
39
0.0
10
79.16228
20
16.90919
30
0.0
40
34.88336
210
0.0
220
0.0
230
1.0
100
AcDbArc
50
169.39905
51
177.96131
0
ARC
5
AB
330
49
100
AcDbEntity
8
0
62
5
6
ByLayer
370
5
48
1.0
60
0
100
AcDbCircle
39
0.0
10
61.79775
20
16.63378
30
0.0
40
17.56233
210
0.0
220
0.0
230
1.0
100
AcDbArc
50
175.04681
51
192.07828
0
ARC
5
AC
330
49
100
AcDbEntity
8
0
62
5
6
ByLayer
370
5
48
1.0
60
0
100
AcDbCircle
39
0.0
10
33.98161
20
10.31733
30
0.0
40
10.96552
210
0.0
220
0.0
230
1.0
100
AcDbArc
50
343.55962
51
13.93951
0
ARC
5
AD
330
49
100
AcDbEntity
8
0
62
5
6
ByLayer
370
5
48
1.0
60
0
100
AcDbCircle
39
0.0
10
79.42108
20
0.12651
30
0.0
40
35.6342
210
0.0
220
0.0
230
1.0
100
AcDbArc
50
168.52778
51
178.02178
0
ARC
5
AE
330
49
100
AcDbEntity
8
0
62
5
6
ByLayer
370
5
48
1.0
60
0
100
AcDbCircle
39
0.0
10
77.78271
20
-0.22224
30
0.0
40
34.01127
210
0.0
220
0.0
230
1.0
100
AcDbArc
50
177.33932
51
182.31612
0
ARC
5
AF
330
49
100
AcDbEntity
8
0
62
5
6
ByLayer
370
5
48
1.0
60
0
100
AcDbCircle
39
0.0
10
56.74878
20
-1.64299
30
0.0
40
12.94963
210
0.0
220
0.0
230
1.0
100
AcDbArc
50
179.79536
51
192.8746
0
ARC
5
B0
330
49
100
AcDbEntity
8
0
62
5
6
ByLayer
370
5
48
1.0
60
0
100
AcDbCircle
39
0.0
10
30.27311
20
-7.46378
30
0.0
40
14.1592
210
0.0
220
0.0
230
1.0
100
AcDbArc
50
356.2628
51
11.96489
0
ARC
5
B1
330
49
100
AcDbEntity
8
0
62
5
6
ByLayer
370
5
48
1.0
60
0
100
AcDbCircle
39
0.0
10
17.9516
20
-5.83988
30
0.0
40
26.57292
210
0.0
220
0.0
230
1.0
100
AcDbArc
50
346.13073
51
354.50022
0
ARC
5
B2
330
49
100
AcDbEntity
8
0
62
5
6
ByLayer
370
5
48
1.0
60
0
100
AcDbCircle
39
0.0
10
49.72365
20
-13.2896
30
0.0
40
6.07069
210
0.0
220
0.0
230
1.0
100
AcDbArc
50
169.75233
51
197.33309
0
ARC
5
B3
330
49
100
AcDbEntity
8
0
62
5
6
ByLayer
370
5
48
1.0
60
0
100
AcDbCircle
39
0.0
10
40.29421
20
-16.23026
30
0.0
40
3.80665
210
0.0
220
0.0
230
1.0
100
AcDbArc
50
333.04117
51
17.30063
0
ARC
5
B4
330
49
100
AcDbEntity
8
0
62
5
6
ByLayer
370
5
48
1.0
60
0
100
AcDbCircle
39
0.0
10
49.98822
20
-20.77593
30
0.0
40
6.90325
210
0.0
220
0.0
230
1.0
100
AcDbArc
50
155.8898
51
183.09006
0
ARC
5
B5
330
49
100
AcDbEntity
8
0
62
5
6
ByLayer
370
5
48
1.0
60
0
100
AcDbCircle
39
0.0
10
70.36058
20
-18.35156
30
0.0
40
27.40861
210
0.0
220
0.0
230
1.0
100
AcDbArc
50
185.85607
51
192.72436
0
ARC
5
B6
330
49
100
AcDbEntity
8
0
62
5
6
ByLayer
370
5
48
1.0
60
0
100
AcDbCircle
39
0.0
10
35.16718
20
-26.46621
30
0.0
40
8.70936
210
0.0
220
0.0
230
1.0
100
AcDbArc
50
4.90655
51
13.80095
0
ARC
5
B7
330
49
100
AcDbEntity
8
0
62
5
6
ByLayer
370
5
48
1.0
60
0
100
AcDbCircle
39
0.0
10
41.13288
20
-26.16038
30
0.0
40
2.74706
210
0.0
220
0.0
230
1.0
100
AcDbArc
50
340.99164
51
9.19741
0
ARC
5
B8
330
49
100
AcDbEntity
8
0
62
5
6
ByLayer
370
5
48
1.0
60
0
100
AcDbCircle
39
0.0
10
42.03237
20
-26.42702
30
0.0
40
1.81023
210
0.0
220
0.0
230
1.0
100
AcDbArc
50
297.17365
51
339.69815
0
ARC
5
B9
330
49
100
AcDbEntity
8
0
62
5
6
ByLayer
370
5
48
1.0
60
0
100
AcDbCircle
39
0.0
10
41.02681
20
-23.80513
30
0.0
40
4.61192
210
0.0
220
0.0
230
1.0
100
AcDbArc
50
276.68386
51
293.40882
0
ARC
5
BA
330
49
100
AcDbEntity
8
0
62
5
6
ByLayer
370
5
48
1.0
60
0
100
AcDbCircle
39
0.0
10
39.71451
20
-12.28151
30
0.0
40
16.21
210
0.0
220
0.0
230
1.0
100
AcDbArc
50
275.97557
51
276.55004
0
ARC
5
BB
330
49
100
AcDbEntity
8
0
62
5
6
ByLayer
370
5
48
1.0
60
0
100
AcDbCircle
39
0.0
10
39.06734
20
-5.05912
30
0.0
40
23.46077
210
0.0
220
0.0
230
1.0
100
AcDbArc
50
275.51558
51
275.71125
0
ARC
5
BC
330
49
100
AcDbEntity
8
0
62
5
6
ByLayer
370
5
48
1.0
60
0
100
AcDbCircle
39
0.0
10
41.3524
20
-28.57728
30
0.0
40
0.16872
210
0.0
220
0.0
230
1.0
100
AcDbArc
50
96.05161
51
100.27372
0
ARC
5
BD
330
49
100
AcDbEntity
8
0
62
5
6
ByLayer
370
5
48
1.0
60
0
100
AcDbCircle
39
0.0
10
48.48204
20
-96.16816
30
0.0
40
68.13458
210
0.0
220
0.0
230
1.0
100
AcDbArc
50
95.87489
51
96.0215
0
ARC
5
BE
330
49
100
AcDbEntity
8
0
62
5
6
ByLayer
370
5
48
1.0
60
0
100
AcDbCircle
39
0.0
10
40.61664
20
-20.90192
30
0.0
40
7.54238
210
0.0
220
0.0
230
1.0
100
AcDbArc
50
275.50044
51
276.78722
0
ARC
5
BF
330
49
100
AcDbEntity
8
0
62
5
6
ByLayer
370
5
48
1.0
60
0
100
AcDbCircle
39
0.0
10
40.52554
20
-20.05329
30
0.0
40
8.39583
210
0.0
220
0.0
230
1.0
100
AcDbArc
50
272.36295
51
275.56413
0
ARC
5
C0
330
49
100
AcDbEntity
8
0
62
5
6
ByLayer
370
5
48
1.0
60
0
100
AcDbCircle
39
0.0
10
40.60023
20
-24.80788
30
0.0
40
3.64423
210
0.0
220
0.0
230
1.0
100
AcDbArc
50
259.52621
51
274.27208
0
ARC
5
C1
330
49
100
AcDbEntity
8
0
62
5
6
ByLayer
370
5
48
1.0
60
0
100
AcDbCircle
39
0.0
10
40.18193
20
-27.17972
30
0.0
40
1.23603
210
0.0
220
0.0
230
1.0
100
AcDbArc
50
174.62902
51
258.60673
0
ARC
5
C2
330
49
100
AcDbEntity
8
0
62
5
6
ByLayer
370
5
48
1.0
60
0
100
AcDbCircle
39
0.0
10
156.7662
20
-52.80942
30
0.0
40
120.59507
210
0.0
220
0.0
230
1.0
100
AcDbArc
50
166.78311
51
167.67326
0
ARC
5
C3
330
49
100
AcDbEntity
8
0
62
5
6
ByLayer
370
5
48
1.0
60
0
100
AcDbCircle
39
0.0
10
36.97412
20
-24.29665
30
0.0
40
2.56956
210
0.0
220
0.0
230
1.0
100
AcDbArc
50
338.53799
51
20.68752
0
ARC
5
C4
330
49
100
AcDbEntity
8
0
62
5
6
ByLayer
370
5
48
1.0
60
0
100
AcDbCircle
39
0.0
10
46.00803
20
-31.19964
30
0.0
40
10.24524
210
0.0
220
0.0
230
1.0
100
AcDbArc
50
130.32574
51
140.91429
0
ARC
5
C5
330
49
100
AcDbEntity
8
0
62
5
6
ByLayer
370
5
48
1.0
60
0
100
AcDbCircle
39
0.0
10
12.05884
20
-4.88941
30
0.0
40
32.70913
210
0.0
220
0.0
230
1.0
100
AcDbArc
50
319.31606
51
322.63516
0
ARC
5
C6
330
49
100
AcDbEntity
8
0
62
5
6
ByLayer
370
5
48
1.0
60
0
100
AcDbCircle
39
0.0
10
30.67099
20
-21.3215
30
0.0
40
7.89018
210
0.0
220
0.0
230
1.0
100
AcDbArc
50
307.92849
51
321.69662
0
ARC
5
C7
330
49
100
AcDbEntity
8
0
62
5
6
ByLayer
370
5
48
1.0
60
0
100
AcDbCircle
39
0.0
10
33.47936
20
-25.32953
30
0.0
40
3.01276
210
0.0
220
0.0
230
1.0
100
AcDbArc
50
276.48642
51
312.65905
0
ARC
5
C8
330
49
100
AcDbEntity
8
0
62
5
6
ByLayer
370
5
48
1.0
60
0
100
AcDbCircle
39
0.0
10
30.59306
20
-5.9668
30
0.0
40
22.58784
210
0.0
220
0.0
230
1.0
100
AcDbArc
50
270.31948
51
278.2127
0
ARC
5
C9
330
49
100
AcDbEntity
8
0
62
5
6
ByLayer
370
5
48
1.0
60
0
100
AcDbCircle
39
0.0
10
30.46061
20
-22.65003
30
0.0
40
5.90992
210
0.0
220
0.0
230
1.0
100
AcDbArc
50
257.4181
51
272.50595
0
ARC
5
CA
330
49
100
AcDbEntity
8
0
62
5
6
ByLayer
370
5
48
1.0
60
0
100
AcDbCircle
39
0.0
10
29.14353
20
-27.15082
30
0.0
40
1.26755
210
0.0
220
0.0
230
1.0
100
AcDbArc
50
199.50301
51
271.3425
0
ARC
5
CB
330
49
100
AcDbEntity
8
0
62
5
6
ByLayer
370
5
48
1.0
60
0
100
AcDbCircle
39
0.0
10
26.27834
20
-23.01704
30
0.0
40
4.85345
210
0.0
220
0.0
230
1.0
100
AcDbArc
50
256.96968
51
290.13048
0
ARC
5
CC
330
49
100
AcDbEntity
8
0
62
5
6
ByLayer
370
5
48
1.0
60
0
100
AcDbCircle
39
0.0
10
19.50931
20
-40.80641
30
0.0
40
14.24042
210
0.0
220
0.0
230
1.0
100
AcDbArc
50
66.51585
51
77.81137
0
ARC
5
CD
330
49
100
AcDbEntity
8
0
62
5
6
ByLayer
370
5
48
1.0
60
0
100
AcDbCircle
39
0.0
10
22.68775
20
-24.40399
30
0.0
40
2.48895
210
0.0
220
0.0
230
1.0
100
AcDbArc
50
232.87086
51
266.04075
0
ARC
5
CE
330
49
100
AcDbEntity
8
0
62
5
6
ByLayer
370
5
48
1.0
60
0
100
AcDbCircle
39
0.0
10
21.37253
20
-26.03159
30
0.0
40
0.40288
210
0.0
220
0.0
230
1.0
100
AcDbArc
50
141.59749
51
242.3213
0
ARC
5
CF
330
49
100
AcDbEntity
8
0
62
5
6
ByLayer
370
5
48
1.0
60
0
100
AcDbCircle
39
0.0
10
22.44181
20
-27.20672
30
0.0
40
1.98745
210
0.0
220
0.0
230
1.0
100
AcDbArc
50
113.75835
51
134.17651
0
ARC
5
D0
330
49
100
AcDbEntity
8
0
62
5
6
ByLayer
370
5
48
1.0
60
0
100
AcDbCircle
39
0.0
10
18.89302
20
-28.57174
30
0.0
40
4.20596
210
0.0
220
0.0
230
1.0
100
AcDbArc
50
49.20323
51
84.02961
0
ARC
5
D1
330
49
100
AcDbEntity
8
0
62
5
6
ByLayer
370
5
48
1.0
60
0
100
AcDbCircle
39
0.0
10
21.79418
20
-25.78219
30
0.0
40
2.83051
210
0.0
220
0.0
230
1.0
100
AcDbArc
50
117.22306
51
150.50523
0
ARC
5
D2
330
49
100
AcDbEntity
8
0
62
5
6
ByLayer
370
5
48
1.0
60
0
100
AcDbCircle
39
0.0
10
24.38723
20
-31.47251
30
0.0
40
9.0816
210
0.0
220
0.0
230
1.0
100
AcDbArc
50
104.89442
51
115.34741
0
ARC
5
D3
330
49
100
AcDbEntity
8
0
62
5
6
ByLayer
370
5
48
1.0
60
0
100
AcDbCircle
39
0.0
10
26.32302
20
-39.93643
30
0.0
40
17.76134
210
0.0
220
0.0
230
1.0
100
AcDbArc
50
93.21796
51
103.91111
0
ARC
5
D4
330
49
100
AcDbEntity
8
0
62
5
6
ByLayer
370
5
48
1.0
60
0
100
AcDbCircle
39
0.0
10
24.76332
20
-18.25669
30
0.0
40
3.98633
210
0.0
220
0.0
230
1.0
100
AcDbArc
50
278.11457
51
315.29992
0
ARC
5
D5
330
49
100
AcDbEntity
8
0
62
5
6
ByLayer
370
5
48
1.0
60
0
100
AcDbCircle
39
0.0
10
-0.2446
20
2.79922
30
0.0
40
36.66656
210
0.0
220
0.0
230
1.0
100
AcDbArc
50
319.40366
51
323.47873
0
ARC
5
D6
330
49
100
AcDbEntity
8
0
62
5
6
ByLayer
370
5
48
1.0
60
0
100
AcDbCircle
39
0.0
10
47.49214
20
-31.39473
30
0.0
40
22.06553
210
0.0
220
0.0
230
1.0
100
AcDbArc
50
132.3325
51
145.89339
0
ARC
5
D7
330
49
100
AcDbEntity
8
0
62
5
6
ByLayer
370
5
48
1.0
60
0
100
AcDbCircle
39
0.0
10
21.15535
20
-4.63427
30
0.0
40
15.52085
210
0.0
220
0.0
230
1.0
100
AcDbArc
50
317.686
51
335.0976
0
ARC
5
D8
330
49
100
AcDbEntity
8
0
62
5
6
ByLayer
370
5
48
1.0
60
0
100
AcDbCircle
39
0.0
10
5.69008
20
2.08554
30
0.0
40
32.38047
210
0.0
220
0.0
230
1.0
100
AcDbArc
50
335.83543
51
344.19467
0
ARC
5
D9
330
49
100
AcDbEntity
8
0
62
5
6
ByLayer
370
5
48
1.0
60
0
100
AcDbCircle
39
0.0
10
2.44368
20
3.06666
30
0.0
40
35.77142
210
0.0
220
0.0
230
1.0
100
AcDbArc
50
344.09889
51
351.66711
0
ARC
5
DA
330
49
100
AcDbEntity
8
0
62
5
6
ByLayer
370
5
48
1.0
60
0
100
AcDbCircle
39
0.0
10
15.73242
20
1.61364
30
0.0
40
22.41771
210
0.0
220
0.0
230
1.0
100
AcDbArc
50
350.41931
51
2.49952000000002
0
ARC
5
DB
330
49
100
AcDbEntity
8
0
62
5
6
ByLayer
370
5
48
1.0
60
0
100
AcDbCircle
39
0.0
10
-114.61352
20
-5.92901
30
0.0
40
152.97977
210
0.0
220
0.0
230
1.0
100
AcDbArc
50
3.19278
51
5.59893
0
ARC
5
DC
330
49
100
AcDbEntity
8
0
62
5
6
ByLayer
370
5
48
1.0
60
0
100
AcDbCircle
39
0.0
10
82.17668
20
14.262
30
0.0
40
44.85043
210
0.0
220
0.0
230
1.0
100
AcDbArc
50
182.63826
51
186.74234
0
ARC
5
DD
330
49
100
AcDbEntity
8
0
62
5
6
ByLayer
370
5
48
1.0
60
0
100
AcDbCircle
39
0.0
10
47.74841
20
13.17619
30
0.0
40
10.42068
210
0.0
220
0.0
230
1.0
100
AcDbArc
50
167.70849
51
185.38885
0
ARC
5
DE
330
49
100
AcDbEntity
8
0
62
5
6
ByLayer
370
5
48
1.0
60
0
100
AcDbCircle
39
0.0
10
30.65494
20
17.37548
30
0.0
40
7.18992
210
0.0
220
0.0
230
1.0
100
AcDbArc
50
344.00767
51
9.45532000000003
0
ARC
5
DF
330
49
100
AcDbEntity
8
0
62
5
6
ByLayer
370
5
48
1.0
60
0
100
AcDbCircle
39
0.0
10
50.92959
20
22.23264
30
0.0
40
13.68536
210
0.0
220
0.0
230
1.0
100
AcDbArc
50
182.21966
51
195.5815
0
ARC
5
E0
330
49
100
AcDbEntity
8
0
62
5
6
ByLayer
370
5
48
1.0
60
0
100
AcDbCircle
39
0.0
10
29.90404
20
20.85902
30
0.0
40
7.39871
210
0.0
220
0.0
230
1.0
100
AcDbArc
50
6.54697
51
23.97473
0
ARC
5
E1
330
49
100
AcDbEntity
8
0
62
5
6
ByLayer
370
5
48
1.0
60
0
100
AcDbCircle
39
0.0
10
-1.28924
20
6.05904
30
0.0
40
41.92309
210
0.0
220
0.0
230
1.0
100
AcDbArc
50
25.13406
51
28.2139
0
ARC
5
E2
330
49
100
AcDbEntity
8
0
62
5
6
ByLayer
370
5
48
1.0
60
0
100
AcDbCircle
39
0.0
10
45.80516
20
32.67514
30
0.0
40
12.21713
210
0.0
220
0.0
230
1.0
100
AcDbArc
50
192.60317
51
213.80005
0
ARC
5
E3
330
49
100
AcDbEntity
8
0
62
5
6
ByLayer
370
5
48
1.0
60
0
100
AcDbCircle
39
0.0
10
59.89942
20
38.74467
30
0.0
40
27.44432
210
0.0
220
0.0
230
1.0
100
AcDbArc
50
190.69646
51
198.55959
0
ARC
5
E4
330
49
100
AcDbEntity
8
0
62
5
6
ByLayer
370
5
48
1.0
60
0
100
AcDbCircle
39
0.0
10
46.09922
20
35.75232
30
0.0
40
13.33389
210
0.0
220
0.0
230
1.0
100
AcDbArc
50
172.90264
51
189.06786
0
ARC
5
E5
330
49
100
AcDbEntity
8
0
62
5
6
ByLayer
370
5
48
1.0
60
0
100
AcDbCircle
39
0.0
10
-4.96462
20
45.01446
30
0.0
40
38.59084
210
0.0
220
0.0
230
1.0
100
AcDbArc
50
348.61985
51
1.39148
0
ARC
5
E6
330
49
100
AcDbEntity
8
0
62
5
6
ByLayer
370
5
48
1.0
60
0
100
AcDbCircle
39
0.0
10
16.04012
20
45.94933
30
0.0
40
17.57472
210
0.0
220
0.0
230
1.0
100
AcDbArc
50
0.00734
51
14.02272
0
ARC
5
E7
330
49
100
AcDbEntity
8
0
62
5
6
ByLayer
370
5
48
1.0
60
0
100
AcDbCircle
39
0.0
10
24.72531
20
48.58311
30
0.0
40
8.52209
210
0.0
220
0.0
230
1.0
100
AcDbArc
50
10.99037
51
39.93942
0
ARC
5
E8
330
49
100
AcDbEntity
8
0
62
5
6
ByLayer
370
5
48
1.0
60
0
100
AcDbCircle
39
0.0
10
19.12202
20
60.82121
30
0.0
40
13.89639
210
0.0
220
0.0
230
1.0
100
AcDbArc
50
302.31789
51
330.85847
0
ARC
5
E9
330
49
100
AcDbEntity
8
0
62
5
6
ByLayer
370
5
48
1.0
60
0
100
AcDbCircle
39
0.0
10
20.16417
20
58.16953
30
0.0
40
11.11131
210
0.0
220
0.0
230
1.0
100
AcDbArc
50
269.24161
51
305.08759
0
ARC
5
EA
330
49
100
AcDbEntity
8
0
62
5
6
ByLayer
370
5
48
1.0
60
0
100
AcDbCircle
39
0.0
10
19.90832
20
51.84996
30
0.0
40
4.792
210
0.0
220
0.0
230
1.0
100
AcDbArc
50
253.88751
51
271.30079
0
ARC
5
EB
330
49
100
AcDbEntity
8
0
62
5
6
ByLayer
370
5
48
1.0
60
0
100
AcDbCircle
39
0.0
10
19.20499
20
49.71362
30
0.0
40
2.54573
210
0.0
220
0.0
230
1.0
100
AcDbArc
50
223.02125
51
255.7517
0
ARC
5
EC
330
49
100
AcDbEntity
8
0
62
5
6
ByLayer
370
5
48
1.0
60
0
100
AcDbCircle
39
0.0
10
21.78889
20
50.93132
30
0.0
40
5.33744
210
0.0
220
0.0
230
1.0
100
AcDbArc
50
182.68378
51
213.61129
0
ARC
5
ED
330
49
100
AcDbEntity
8
0
62
5
6
ByLayer
370
5
48
1.0
60
0
100
AcDbCircle
39
0.0
10
8.14725
20
49.60494
30
0.0
40
8.37948
210
0.0
220
0.0
230
1.0
100
AcDbArc
50
7.38085
51
27.9688
0
ARC
5
EE
330
49
100
AcDbEntity
8
0
62
5
6
ByLayer
370
5
48
1.0
60
0
100
AcDbCircle
39
0.0
10
32.13182
20
63.20297
30
0.0
40
19.19622
210
0.0
220
0.0
230
1.0
100
AcDbArc
50
205.7323
51
210.24162
0
ARC
5
EF
330
49
100
AcDbEntity
8
0
62
5
6
ByLayer
370
5
48
1.0
60
0
100
AcDbCircle
39
0.0
10
17.81878
20
56.57474
30
0.0
40
3.43344
210
0.0
220
0.0
230
1.0
100
AcDbArc
50
184.53777
51
209.79629
0
ARC
5
F0
330
49
100
AcDbEntity
8
0
62
5
6
ByLayer
370
5
48
1.0
60
0
100
AcDbCircle
39
0.0
10
-11.39202
20
81.00452
30
0.0
40
35.70976
210
0.0
220
0.0
230
1.0
100
AcDbArc
50
310.94451
51
316.23299
0
ARC
5
F1
330
49
100
AcDbEntity
8
0
62
5
6
ByLayer
370
5
48
1.0
60
0
100
AcDbCircle
39
0.0
10
19.55366
20
44.73274
30
0.0
40
11.97402
210
0.0
220
0.0
230
1.0
100
AcDbArc
50
129.05289
51
136.94558
0
ARC
5
F2
330
49
100
AcDbEntity
8
0
62
5
6
ByLayer
370
5
48
1.0
60
0
100
AcDbCircle
39
0.0
10
13.36245
20
50.35435
30
0.0
40
3.61419
210
0.0
220
0.0
230
1.0
100
AcDbArc
50
135.05934
51
148.14395
0
ARC
5
F3
330
49
100
AcDbEntity
8
0
62
5
6
ByLayer
370
5
48
1.0
60
0
100
AcDbCircle
39
0.0
10
11.25779
20
51.49377
30
0.0
40
1.23349
210
0.0
220
0.0
230
1.0
100
AcDbArc
50
141.48611
51
180.00346
0
ARC
5
F4
330
49
100
AcDbEntity
8
0
62
5
6
ByLayer
370
5
48
1.0
60
0
100
AcDbCircle
39
0.0
10
15.10111
20
52.19015
30
0.0
40
5.12436
210
0.0
220
0.0
230
1.0
100
AcDbArc
50
187.81123
51
207.15871
0
ARC
5
F5
330
49
100
AcDbEntity
8
0
62
5
6
ByLayer
370
5
48
1.0
60
0
100
AcDbCircle
39
0.0
10
51.89518
20
72.44546
30
0.0
40
47.12338
210
0.0
220
0.0
230
1.0
100
AcDbArc
50
208.65095
51
210.75803
0
ARC
5
F6
330
49
100
AcDbEntity
8
0
62
5
6
ByLayer
370
5
48
1.0
60
0
100
AcDbCircle
39
0.0
10
-11.91468
20
33.67257
30
0.0
40
27.54817
210
0.0
220
0.0
230
1.0
100
AcDbArc
50
24.97313
51
32.18426
0
ARC
5
F7
330
49
100
AcDbEntity
8
0
62
5
6
ByLayer
370
5
48
1.0
60
0
100
AcDbCircle
39
0.0
10
-3.37853
20
37.52673
30
0.0
40
18.18324
210
0.0
220
0.0
230
1.0
100
AcDbArc
50
3.47352
51
25.32001
0
ARC
5
F8
330
49
100
AcDbEntity
8
0
62
5
6
ByLayer
370
5
48
1.0
60
0
100
AcDbCircle
39
0.0
10
338.2764
20
54.7064
30
0.0
40
323.90439
210
0.0
220
0.0
230
1.0
100
AcDbArc
50
182.84522
51
183.86609
0
ARC
5
F9
330
49
100
AcDbEntity
8
0
62
5
6
ByLayer
370
5
48
1.0
60
0
100
AcDbCircle
39
0.0
10
79.56261
20
36.40169
30
0.0
40
64.55035
210
0.0
220
0.0
230
1.0
100
AcDbArc
50
183.13881
51
188.26196
0
ARC
5
FA
330
49
100
AcDbEntity
8
0
62
5
6
ByLayer
370
5
48
1.0
60
0
100
AcDbCircle
39
0.0
10
45.97159
20
30.92568
30
0.0
40
30.52679
210
0.0
220
0.0
230
1.0
100
AcDbArc
50
187.15044
51
197.9857
0
ARC
5
FB
330
49
100
AcDbEntity
8
0
62
5
6
ByLayer
370
5
48
1.0
60
0
100
AcDbCircle
39
0.0
10
33.8235
20
26.53205
30
0.0
40
17.62087
210
0.0
220
0.0
230
1.0
100
AcDbArc
50
196.59438
51
215.37172
0
ARC
5
FC
330
49
100
AcDbEntity
8
0
62
5
6
ByLayer
370
5
48
1.0
60
0
100
AcDbCircle
39
0.0
10
10.23497
20
8.678
30
0.0
40
11.98297
210
0.0
220
0.0
230
1.0
100
AcDbArc
50
20.50693
51
39.69603
0
ARC
5
FD
330
49
100
AcDbEntity
8
0
62
5
6
ByLayer
370
5
48
1.0
60
0
100
AcDbCircle
39
0.0
10
18.73345
20
11.58495
30
0.0
40
3.01544
210
0.0
220
0.0
230
1.0
100
AcDbArc
50
347.19109
51
25.34761
0
ARC
5
FE
330
49
100
AcDbEntity
8
0
62
5
6
ByLayer
370
5
48
1.0
60
0
100
AcDbCircle
39
0.0
10
14.63727
20
13.41109
30
0.0
40
7.46571
210
0.0
220
0.0
230
1.0
100
AcDbArc
50
325.1915
51
340.47914
0
ARC
5
FF
330
49
100
AcDbEntity
8
0
62
5
6
ByLayer
370
5
48
1.0
60
0
100
AcDbCircle
39
0.0
10
-1.61438
20
25.3777
30
0.0
40
27.64576
210
0.0
220
0.0
230
1.0
100
AcDbArc
50
310.64978
51
324.05499
0
ARC
5
100
330
49
100
AcDbEntity
8
0
62
5
6
ByLayer
370
5
48
1.0
60
0
100
AcDbCircle
39
0.0
10
4.75182
20
1.52286
30
0.0
40
11.99405
210
0.0
220
0.0
230
1.0
100
AcDbArc
50
0.29836
51
13.89278
0
ARC
5
101
330
49
100
AcDbEntity
8
0
62
5
6
ByLayer
370
5
48
1.0
60
0
100
AcDbCircle
39
0.0
10
22.8208
20
1.02005
30
0.0
40
6.10134
210
0.0
220
0.0
230
1.0
100
AcDbArc
50
174.68417
51
201.51517
0
ARC
5
102
330
49
100
AcDbEntity
8
0
62
5
6
ByLayer
370
5
48
1.0
60
0
100
AcDbCircle
39
0.0
10
11.32236
20
-3.54773
30
0.0
40
6.2712
210
0.0
220
0.0
230
1.0
100
AcDbArc
50
343.39373
51
21.8119
0
ARC
5
103
330
49
100
AcDbEntity
8
0
62
5
6
ByLayer
370
5
48
1.0
60
0
100
AcDbCircle
39
0.0
10
-11.78391
20
3.12225
30
0.0
40
30.32071
210
0.0
220
0.0
230
1.0
100
AcDbArc
50
343.04106
51
343.79402
0
ARC
5
104
330
49
100
AcDbEntity
8
0
62
5
6
ByLayer
370
5
48
1.0
60
0
100
AcDbCircle
39
0.0
10
-3.82621
20
0.75131
30
0.0
40
22.01755
210
0.0
220
0.0
230
1.0
100
AcDbArc
50
341.59677
51
342.90232
0
ARC
5
105
330
49
100
AcDbEntity
8
0
62
5
6
ByLayer
370
5
48
1.0
60
0
100
AcDbCircle
39
0.0
10
9.36051
20
-3.78463
30
0.0
40
8.07446
210
0.0
220
0.0
230
1.0
100
AcDbArc
50
335.47611
51
342.59653
0
ARC
5
106
330
49
100
AcDbEntity
8
0
62
5
6
ByLayer
370
5
48
1.0
60
0
100
AcDbCircle
39
0.0
10
14.51084
20
-6.23133
30
0.0
40
2.37482
210
0.0
220
0.0
230
1.0
100
AcDbArc
50
325.48957
51
337.60493
0
ARC
5
107
330
49
100
AcDbEntity
8
0
62
5
6
ByLayer
370
5
48
1.0
60
0
100
AcDbCircle
39
0.0
10
16.2233
20
-7.58651
30
0.0
40
0.24464
210
0.0
220
0.0
230
1.0
100
AcDbArc
50
231.82787
51
2.27374
0
ARC
5
108
330
49
100
AcDbEntity
8
0
62
5
6
ByLayer
370
5
48
1.0
60
0
100
AcDbCircle
39
0.0
10
18.43587
20
-6.50176
30
0.0
40
2.68668
210
0.0
220
0.0
230
1.0
100
AcDbArc
50
187.20445
51
208.3811
0
ARC
5
109
330
49
100
AcDbEntity
8
0
62
5
6
ByLayer
370
5
48
1.0
60
0
100
AcDbCircle
39
0.0
10
12.75227
20
-6.81348
30
0.0
40
3.01824
210
0.0
220
0.0
230
1.0
100
AcDbArc
50
359.52122
51
33.04213
0
ARC
5
10A
330
49
100
AcDbEntity
8
0
62
5
6
ByLayer
370
5
48
1.0
60
0
100
AcDbCircle
39
0.0
10
13.3693
20
-7.07224
30
0.0
40
2.69941
210
0.0
220
0.0
230
1.0
100
AcDbArc
50
44.87093
51
81.42477
0
ARC
5
10B
330
49
100
AcDbEntity
8
0
62
5
6
ByLayer
370
5
48
1.0
60
0
100
AcDbCircle
39
0.0
10
27.45155
20
-8.98586
30
0.0
40
14.427
210
0.0
220
0.0
230
1.0
100
AcDbArc
50
161.47863
51
190.63344
0
ARC
5
10C
330
49
100
AcDbEntity
8
0
62
5
6
ByLayer
370
5
48
1.0
60
0
100
AcDbCircle
39
0.0
10
9.37922
20
-12.6193
30
0.0
40
4.01241
210
0.0
220
0.0
230
1.0
100
AcDbArc
50
343.49997
51
14.00893
0
ARC
5
10D
330
49
100
AcDbEntity
8
0
62
5
6
ByLayer
370
5
48
1.0
60
0
100
AcDbCircle
39
0.0
10
11.03895
20
-13.26039
30
0.0
40
2.24353
210
0.0
220
0.0
230
1.0
100
AcDbArc
50
292.51611
51
347.16212
0
ARC
5
10E
330
49
100
AcDbEntity
8
0
62
5
6
ByLayer
370
5
48
1.0
60
0
100
AcDbCircle
39
0.0
10
13.20461
20
-17.43262
30
0.0
40
2.47301
210
0.0
220
0.0
230
1.0
100
AcDbArc
50
121.89114
51
164.32216
0
ARC
5
10F
330
49
100
AcDbEntity
8
0
62
5
6
ByLayer
370
5
48
1.0
60
0
100
AcDbCircle
39
0.0
10
7.04099
20
-16.10681
30
0.0
40
3.83934
210
0.0
220
0.0
230
1.0
100
AcDbArc
50
336.21023
51
350.13879
0
ARC
5
110
330
49
100
AcDbEntity
8
0
62
5
6
ByLayer
370
5
48
1.0
60
0
100
AcDbCircle
39
0.0
10
9.66584
20
-17.3624
30
0.0
40
0.93538
210
0.0
220
0.0
230
1.0
100
AcDbArc
50
284.47207
51
341.73706
0
ARC
5
111
330
49
100
AcDbEntity
8
0
62
5
6
ByLayer
370
5
48
1.0
60
0
100
AcDbCircle
39
0.0
10
12.95008
20
-16.36306
30
0.0
40
3.59648
210
0.0
220
0.0
230
1.0
100
AcDbArc
50
180.84437
51
211.98501
0
ARC
5
112
330
49
100
AcDbEntity
8
0
62
5
6
ByLayer
370
5
48
1.0
60
0
100
AcDbCircle
39
0.0
10
-7.08573
20
-14.52391
30
0.0
40
16.54826
210
0.0
220
0.0
230
1.0
100
AcDbArc
50
353.43436
51
0.22645999999998
0
ARC
5
113
330
49
100
AcDbEntity
8
0
62
5
6
ByLayer
370
5
48
1.0
60
0
100
AcDbCircle
39
0.0
10
6.26553
20
-14.82109
30
0.0
40
3.21737
210
0.0
220
0.0
230
1.0
100
AcDbArc
50
6.4709
51
24.91944
0
ARC
5
114
330
49
100
AcDbEntity
8
0
62
5
6
ByLayer
370
5
48
1.0
60
0
100
AcDbCircle
39
0.0
10
13.38832
20
-11.16749
30
0.0
40
4.79191
210
0.0
220
0.0
230
1.0
100
AcDbArc
50
196.19811
51
208.6563
0
ARC
5
115
330
49
100
AcDbEntity
8
0
62
5
6
ByLayer
370
5
48
1.0
60
0
100
AcDbCircle
39
0.0
10
12.25807
20
-11.67278
30
0.0
40
3.56962
210
0.0
220
0.0
230
1.0
100
AcDbArc
50
160.15199
51
193.46948
0
ARC
5
116
330
49
100
AcDbEntity
8
0
62
5
6
ByLayer
370
5
48
1.0
60
0
100
AcDbCircle
39
0.0
10
6.25849
20
-9.23976
30
0.0
40
2.91053
210
0.0
220
0.0
230
1.0
100
AcDbArc
50
335.19535
51
14.5656500000001
0
ARC
5
117
330
49
100
AcDbEntity
8
0
62
5
6
ByLayer
370
5
48
1.0
60
0
100
AcDbCircle
39
0.0
10
8.06903
20
-8.70165
30
0.0
40
1.02494
210
0.0
220
0.0
230
1.0
100
AcDbArc
50
10.90282
51
39.53375
0
ARC
5
118
330
49
100
AcDbEntity
8
0
62
5
6
ByLayer
370
5
48
1.0
60
0
100
AcDbCircle
39
0.0
10
8.52373
20
-8.26862
30
0.0
40
0.4011
210
0.0
220
0.0
230
1.0
100
AcDbArc
50
33.15774
51
106.59289
0
ARC
5
119
330
49
100
AcDbEntity
8
0
62
5
6
ByLayer
370
5
48
1.0
60
0
100
AcDbCircle
39
0.0
10
9.40717
20
-9.35399
30
0.0
40
1.77656
210
0.0
220
0.0
230
1.0
100
AcDbArc
50
124.17693
51
156.65871
0
ARC
5
11A
330
49
100
AcDbEntity
8
0
62
5
6
ByLayer
370
5
48
1.0
60
0
100
AcDbCircle
39
0.0
10
20.58562
20
-11.58205
30
0.0
40
13.14088
210
0.0
220
0.0
230
1.0
100
AcDbArc
50
167.10783
51
181.38381
0
ARC
5
11B
330
49
100
AcDbEntity
8
0
62
5
6
ByLayer
370
5
48
1.0
60
0
100
AcDbCircle
39
0.0
10
-10.56601
20
-12.81416
30
0.0
40
18.03779
210
0.0
220
0.0
230
1.0
100
AcDbArc
50
357.6868
51
2.9069
0
ARC
5
11C
330
49
100
AcDbEntity
8
0
62
5
6
ByLayer
370
5
48
1.0
60
0
100
AcDbCircle
39
0.0
10
4.54398
20
-13.81765
30
0.0
40
2.9261
210
0.0
220
0.0
230
1.0
100
AcDbArc
50
333.02792
51
5.40164
0
ARC
5
11D
330
49
100
AcDbEntity
8
0
62
5
6
ByLayer
370
5
48
1.0
60
0
100
AcDbCircle
39
0.0
10
1.15223
20
-11.7778
30
0.0
40
6.87979
210
0.0
220
0.0
230
1.0
100
AcDbArc
50
313.66653
51
330.69855
0
ARC
5
11E
330
49
100
AcDbEntity
8
0
62
5
6
ByLayer
370
5
48
1.0
60
0
100
AcDbCircle
39
0.0
10
9.54754
20
-21.20084
30
0.0
40
5.74954
210
0.0
220
0.0
230
1.0
100
AcDbArc
50
129.34432
51
139.5655
0
ARC
5
11F
330
49
100
AcDbEntity
8
0
62
5
6
ByLayer
370
5
48
1.0
60
0
100
AcDbCircle
39
0.0
10
6.06609
20
-18.39783
30
0.0
40
1.2877
210
0.0
220
0.0
230
1.0
100
AcDbArc
50
134.01773
51
179.77617
0
ARC
5
120
330
49
100
AcDbEntity
8
0
62
5
6
ByLayer
370
5
48
1.0
60
0
100
AcDbCircle
39
0.0
10
-5.39796
20
-19.15078
30
0.0
40
10.20455
210
0.0
220
0.0
230
1.0
100
AcDbArc
50
341.4937
51
4.2598
0
ARC
5
121
330
49
100
AcDbEntity
8
0
62
5
6
ByLayer
370
5
48
1.0
60
0
100
AcDbCircle
39
0.0
10
8.26616
20
-18.26676
30
0.0
40
5.73565
210
0.0
220
0.0
230
1.0
100
AcDbArc
50
204.45857
51
225.95916
0
ARC
5
122
330
49
100
AcDbEntity
8
0
62
5
6
ByLayer
370
5
48
1.0
60
0
100
AcDbCircle
39
0.0
10
13.1634
20
-16.17124
30
0.0
40
11.06169
210
0.0
220
0.0
230
1.0
100
AcDbArc
50
192.65259
51
203.83617
0
ARC
5
123
330
49
100
AcDbEntity
8
0
62
5
6
ByLayer
370
5
48
1.0
60
0
100
AcDbCircle
39
0.0
10
10.20959
20
-16.33702
30
0.0
40
8.15774
210
0.0
220
0.0
230
1.0
100
AcDbArc
50
165.635
51
196.06271
0
ARC
5
124
330
49
100
AcDbEntity
8
0
62
5
6
ByLayer
370
5
48
1.0
60
0
100
AcDbCircle
39
0.0
10
2.87799
20
-19.88356
30
0.0
40
5.59966
210
0.0
220
0.0
230
1.0
100
AcDbArc
50
95.85354
51
115.20471
0
ARC
5
125
330
49
100
AcDbEntity
8
0
62
5
6
ByLayer
370
5
48
1.0
60
0
100
AcDbCircle
39
0.0
10
1.51704
20
-17.26492
30
0.0
40
2.65332
210
0.0
220
0.0
230
1.0
100
AcDbArc
50
112.69422
51
133.13207
0
ARC
5
126
330
49
100
AcDbEntity
8
0
62
5
6
ByLayer
370
5
48
1.0
60
0
100
AcDbCircle
39
0.0
10
0.28431
20
-16.1445
30
0.0
40
1.00181
210
0.0
220
0.0
230
1.0
100
AcDbArc
50
125.46822
51
179.99989
0
ARC
5
127
330
49
100
AcDbEntity
8
0
62
5
6
ByLayer
370
5
48
1.0
60
0
100
AcDbCircle
39
0.0
10
-2.7771
20
-16.30038
30
0.0
40
2.06549
210
0.0
220
0.0
230
1.0
100
AcDbArc
50
329.09431
51
4.32824
0
ARC
5
128
330
49
100
AcDbEntity
8
0
62
5
6
ByLayer
370
5
48
1.0
60
0
100
AcDbCircle
39
0.0
10
-1.26218
20
-17.25628
30
0.0
40
0.27789
210
0.0
220
0.0
230
1.0
100
AcDbArc
50
210.47772
51
337.8011
0
ARC
5
129
330
49
100
AcDbEntity
8
0
62
5
6
ByLayer
370
5
48
1.0
60
0
100
AcDbCircle
39
0.0
10
1.39299
20
-16.05477
30
0.0
40
3.19081
210
0.0
220
0.0
230
1.0
100
AcDbArc
50
192.93097
51
204.88041
0
ARC
5
12A
330
49
100
AcDbEntity
8
0
62
5
6
ByLayer
370
5
48
1.0
60
0
100
AcDbCircle
39
0.0
10
9.5338
20
-14.45152
30
0.0
40
11.48686
210
0.0
220
0.0
230
1.0
100
AcDbArc
50
178.26645
51
191.63833
0
ARC
5
12B
330
49
100
AcDbEntity
8
0
62
5
6
ByLayer
370
5
48
1.0
60
0
100
AcDbCircle
39
0.0
10
5.29106
20
-14.20731
30
0.0
40
7.2396
210
0.0
220
0.0
230
1.0
100
AcDbArc
50
168.57069
51
179.18257
0
ARC
5
12C
330
49
100
AcDbEntity
8
0
62
5
6
ByLayer
370
5
48
1.0
60
0
100
AcDbCircle
39
0.0
10
0.99046
20
-13.09717
30
0.0
40
2.81421
210
0.0
220
0.0
230
1.0
100
AcDbArc
50
145.99549
51
173.37957
0
ARC
5
12D
330
49
100
AcDbEntity
8
0
62
5
6
ByLayer
370
5
48
1.0
60
0
100
AcDbCircle
39
0.0
10
-45.52685
20
19.22628
30
0.0
40
53.83115
210
0.0
220
0.0
230
1.0
100
AcDbArc
50
325.16447
51
330.58627
0
ARC
5
12E
330
49
100
AcDbEntity
8
0
62
5
6
ByLayer
370
5
48
1.0
60
0
100
AcDbCircle
39
0.0
10
-17.99872
20
4.2249
30
0.0
40
22.48868
210
0.0
220
0.0
230
1.0
100
AcDbArc
50
329.4352
51
335.9226
0
ARC
5
12F
330
49
100
AcDbEntity
8
0
62
5
6
ByLayer
370
5
48
1.0
60
0
100
AcDbCircle
39
0.0
10
-1.99814
20
-2.2277
30
0.0
40
5.28623
210
0.0
220
0.0
230
1.0
100
AcDbArc
50
329.00616
51
356.73362
0
ARC
5
130
330
49
100
AcDbEntity
8
0
62
5
6
ByLayer
370
5
48
1.0
60
0
100
AcDbCircle
39
0.0
10
11.59078
20
-4.11974
30
0.0
40
8.46216
210
0.0
220
0.0
230
1.0
100
AcDbArc
50
141.6068
51
169.1642
0
ARC
5
131
330
49
100
AcDbEntity
8
0
62
5
6
ByLayer
370
5
48
1.0
60
0
100
AcDbCircle
39
0.0
10
18.07743
20
-9.55843
30
0.0
40
16.92552
210
0.0
220
0.0
230
1.0
100
AcDbArc
50
126.96056
51
140.8143
0
ARC
5
132
330
49
100
AcDbEntity
8
0
62
5
6
ByLayer
370
5
48
1.0
60
0
100
AcDbCircle
39
0.0
10
-19.59407
20
39.17376
30
0.0
40
44.67164
210
0.0
220
0.0
230
1.0
100
AcDbArc
50
307.98723
51
314.5777
0
ARC
5
133
330
49
100
AcDbEntity
8
0
62
5
6
ByLayer
370
5
48
1.0
60
0
100
AcDbCircle
39
0.0
10
-3.26895
20
23.96538
30
0.0
40
22.40084
210
0.0
220
0.0
230
1.0
100
AcDbArc
50
312.13696
51
325.29117
0
ARC
5
134
330
49
100
AcDbEntity
8
0
62
5
6
ByLayer
370
5
48
1.0
60
0
100
AcDbCircle
39
0.0
10
-34.5807
20
-2.0012
30
0.0
40
51.45159
210
0.0
220
0.0
230
1.0
100
AcDbArc
50
14.87869
51
21.51432
0
ARC
5
135
330
49
100
AcDbEntity
8
0
62
5
6
ByLayer
370
5
48
1.0
60
0
100
AcDbCircle
39
0.0
10
-16.67878
20
5.37472
30
0.0
40
32.09334
210
0.0
220
0.0
230
1.0
100
AcDbArc
50
20.98449
51
31.6231
0
ARC
5
136
330
49
100
AcDbEntity
8
0
62
5
6
ByLayer
370
5
48
1.0
60
0
100
AcDbCircle
39
0.0
10
311.38085
20
214.96027
30
0.0
40
357.2047
210
0.0
220
0.0
230
1.0
100
AcDbArc
50
210.7571
51
212.6584
0
ARC
5
137
330
49
100
AcDbEntity
8
0
62
5
6
ByLayer
370
5
48
1.0
60
0
100
AcDbCircle
39
0.0
10
113.60608
20
98.22774
30
0.0
40
127.55406
210
0.0
220
0.0
230
1.0
100
AcDbArc
50
208.46736
51
211.12931
0
ARC
5
138
330
49
100
AcDbEntity
8
0
62
5
6
ByLayer
370
5
48
1.0
60
0
100
AcDbCircle
39
0.0
10
46.65267
20
62.35457
30
0.0
40
51.59821
210
0.0
220
0.0
230
1.0
100
AcDbArc
50
205.5976
51
208.8873
0
ARC
5
139
330
49
100
AcDbEntity
8
0
62
5
6
ByLayer
370
5
48
1.0
60
0
100
AcDbCircle
39
0.0
10
9.23948
20
45.25228
30
0.0
40
10.49425
210
0.0
220
0.0
230
1.0
100
AcDbArc
50
193.44185
51
209.64432
0
ARC
5
13A
330
49
100
AcDbEntity
8
0
62
5
6
ByLayer
370
5
48
1.0
60
0
100
AcDbCircle
39
0.0
10
-18.9685
20
47.75593
30
0.0
40
18.66756
210
0.0
220
0.0
230
1.0
100
AcDbArc
50
329.87894
51
344.64507
0
ARC
5
13B
330
49
100
AcDbEntity
8
0
62
5
6
ByLayer
370
5
48
1.0
60
0
100
AcDbCircle
39
0.0
10
-13.67616
20
44.4963
30
0.0
40
12.45516
210
0.0
220
0.0
230
1.0
100
AcDbArc
50
319.56693
51
330.63164
0
ARC
5
13C
330
49
100
AcDbEntity
8
0
62
5
6
ByLayer
370
5
48
1.0
60
0
100
AcDbCircle
39
0.0
10
-8.51237
20
39.69919
30
0.0
40
5.42189
210
0.0
220
0.0
230
1.0
100
AcDbArc
50
297.29071
51
322.76378
0
ARC
5
13D
330
49
100
AcDbEntity
8
0
62
5
6
ByLayer
370
5
48
1.0
60
0
100
AcDbCircle
39
0.0
10
7.116
20
13.22695
30
0.0
40
25.33006
210
0.0
220
0.0
230
1.0
100
AcDbArc
50
121.25488
51
127.06134
0
ARC
5
13E
330
49
100
AcDbEntity
8
0
62
5
6
ByLayer
370
5
48
1.0
60
0
100
AcDbCircle
39
0.0
10
-22.90736
20
51.85663
30
0.0
40
23.59996
210
0.0
220
0.0
230
1.0
100
AcDbArc
50
302.46698
51
308.7062
0
ARC
5
13F
330
49
100
AcDbEntity
8
0
62
5
6
ByLayer
370
5
48
1.0
60
0
100
AcDbCircle
39
0.0
10
-14.50265
20
38.03165
30
0.0
40
7.4314
210
0.0
220
0.0
230
1.0
100
AcDbArc
50
285.18472
51
305.01501
0
ARC
5
140
330
49
100
AcDbEntity
8
0
62
5
6
ByLayer
370
5
48
1.0
60
0
100
AcDbCircle
39
0.0
10
-13.68812
20
34.74783
30
0.0
40
4.04956
210
0.0
220
0.0
230
1.0
100
AcDbArc
50
249.8637
51
286.23244
0
ARC
5
141
330
49
100
AcDbEntity
8
0
62
5
6
ByLayer
370
5
48
1.0
60
0
100
AcDbCircle
39
0.0
10
-17.31801
20
36.63132
30
0.0
40
6.10934
210
0.0
220
0.0
230
1.0
100
AcDbArc
50
275.4396
51
291.467
0
ARC
5
142
330
49
100
AcDbEntity
8
0
62
5
6
ByLayer
370
5
48
1.0
60
0
100
AcDbCircle
39
0.0
10
-17.10449
20
33.3878
30
0.0
40
2.86176
210
0.0
220
0.0
230
1.0
100
AcDbArc
50
260.23553
51
277.34033
0
ARC
5
143
330
49
100
AcDbEntity
8
0
62
5
6
ByLayer
370
5
48
1.0
60
0
100
AcDbCircle
39
0.0
10
-17.67645
20
31.17518
30
0.0
40
0.61382
210
0.0
220
0.0
230
1.0
100
AcDbArc
50
195.75637
51
278.11133
0
ARC
5
144
330
49
100
AcDbEntity
8
0
62
5
6
ByLayer
370
5
48
1.0
60
0
100
AcDbCircle
39
0.0
10
-15.87937
20
30.90103
30
0.0
40
2.39025
210
0.0
220
0.0
230
1.0
100
AcDbArc
50
137.25897
51
177.42305
0
ARC
5
145
330
49
100
AcDbEntity
8
0
62
5
6
ByLayer
370
5
48
1.0
60
0
100
AcDbCircle
39
0.0
10
-14.30558
20
28.9339
30
0.0
40
4.89566
210
0.0
220
0.0
230
1.0
100
AcDbArc
50
113.26535
51
132.84697
0
ARC
5
146
330
49
100
AcDbEntity
8
0
62
5
6
ByLayer
370
5
48
1.0
60
0
100
AcDbCircle
39
0.0
10
162.72237
20
-443.33439
30
0.0
40
509.24745
210
0.0
220
0.0
230
1.0
100
AcDbArc
50
110.38576
51
110.57443
0
ARC
5
147
330
49
100
AcDbEntity
8
0
62
5
6
ByLayer
370
5
48
1.0
60
0
100
AcDbCircle
39
0.0
10
-15.3367
20
36.97031
30
0.0
40
3.02683
210
0.0
220
0.0
230
1.0
100
AcDbArc
50
282.75555
51
314.67992
0
ARC
5
148
330
49
100
AcDbEntity
8
0
62
5
6
ByLayer
370
5
48
1.0
60
0
100
AcDbCircle
39
0.0
10
-20.3604
20
43.5187
30
0.0
40
11.26284
210
0.0
220
0.0
230
1.0
100
AcDbArc
50
309.42065
51
329.58042
0
ARC
5
149
330
49
100
AcDbEntity
8
0
62
5
6
ByLayer
370
5
48
1.0
60
0
100
AcDbCircle
39
0.0
10
-11.25427
20
39.39652
30
0.0
40
1.69281
210
0.0
220
0.0
230
1.0
100
AcDbArc
50
231.34862
51
290.98613
0
ARC
5
14A
330
49
100
AcDbEntity
8
0
62
5
6
ByLayer
370
5
48
1.0
60
0
100
AcDbCircle
39
0.0
10
-11.92097
20
38.54099
30
0.0
40
0.60841
210
0.0
220
0.0
230
1.0
100
AcDbArc
50
150.30916
51
230.06043
0
ARC
5
14B
330
49
100
AcDbEntity
8
0
62
5
6
ByLayer
370
5
48
1.0
60
0
100
AcDbCircle
39
0.0
10
-10.4137
20
37.36174
30
0.0
40
2.51728
210
0.0
220
0.0
230
1.0
100
AcDbArc
50
124.35094
51
143.97228
0
ARC
5
14C
330
49
100
AcDbEntity
8
0
62
5
6
ByLayer
370
5
48
1.0
60
0
100
AcDbCircle
39
0.0
10
-31.9541
20
64.03564
30
0.0
40
31.77672
210
0.0
220
0.0
230
1.0
100
AcDbArc
50
309.28424
51
314.93512
0
ARC
5
14D
330
49
100
AcDbEntity
8
0
62
5
6
ByLayer
370
5
48
1.0
60
0
100
AcDbCircle
39
0.0
10
73.95803
20
-39.79554
30
0.0
40
116.54397
210
0.0
220
0.0
230
1.0
100
AcDbArc
50
134.19972
51
135.74111
0
ARC
5
14E
330
49
100
AcDbEntity
8
0
62
5
6
ByLayer
370
5
48
1.0
60
0
100
AcDbCircle
39
0.0
10
14.87342
20
21.46369
30
0.0
40
31.43678
210
0.0
220
0.0
230
1.0
100
AcDbArc
50
129.12099
51
134.8358
0
ARC
5
14F
330
49
100
AcDbEntity
8
0
62
5
6
ByLayer
370
5
48
1.0
60
0
100
AcDbCircle
39
0.0
10
1.88418
20
38.20576
30
0.0
40
10.26386
210
0.0
220
0.0
230
1.0
100
AcDbArc
50
114.31198
51
131.83682
0
ARC
5
150
330
49
100
AcDbEntity
8
0
62
5
6
ByLayer
370
5
48
1.0
60
0
100
AcDbCircle
39
0.0
10
5.14825
20
48.2565
30
0.0
40
7.52212
210
0.0
220
0.0
230
1.0
100
AcDbArc
50
170.27609
51
185.31743
0
ARC
5
151
330
49
100
AcDbEntity
8
0
62
5
6
ByLayer
370
5
48
1.0
60
0
100
AcDbCircle
39
0.0
10
1.95437
20
49.02642
30
0.0
40
4.24975
210
0.0
220
0.0
230
1.0
100
AcDbArc
50
146.56013
51
173.23556
0
ARC
5
152
330
49
100
AcDbEntity
8
0
62
5
6
ByLayer
370
5
48
1.0
60
0
100
AcDbCircle
39
0.0
10
-2.96937
20
52.37652
30
0.0
40
1.70702
210
0.0
220
0.0
230
1.0
100
AcDbArc
50
323.79829
51
355.57031
0
ARC
5
153
330
49
100
AcDbEntity
8
0
62
5
6
ByLayer
370
5
48
1.0
60
0
100
AcDbCircle
39
0.0
10
9.71727
20
53.21264
30
0.0
40
11.02728
210
0.0
220
0.0
230
1.0
100
AcDbArc
50
180.07492
51
185.03583
0
ARC
5
154
330
49
100
AcDbEntity
8
0
62
5
6
ByLayer
370
5
48
1.0
60
0
100
AcDbCircle
39
0.0
10
2.11438
20
52.79212
30
0.0
40
3.44838
210
0.0
220
0.0
230
1.0
100
AcDbArc
50
141.71812
51
173.23694
0
ARC
5
155
330
49
100
AcDbEntity
8
0
62
5
6
ByLayer
370
5
48
1.0
60
0
100
AcDbCircle
39
0.0
10
-4.9779
20
57.32557
30
0.0
40
4.99777
210
0.0
220
0.0
230
1.0
100
AcDbArc
50
331.33891
51
350.55137
0
ARC
5
156
330
49
100
AcDbEntity
8
0
62
5
6
ByLayer
370
5
48
1.0
60
0
100
AcDbCircle
39
0.0
10
-23.69409
20
59.9537
30
0.0
40
23.8963
210
0.0
220
0.0
230
1.0
100
AcDbArc
50
351.70241
51
355.71527
0
ARC
5
157
330
49
100
AcDbEntity
8
0
62
5
6
ByLayer
370
5
48
1.0
60
0
100
AcDbCircle
39
0.0
10
116.62906
20
52.20553
30
0.0
40
116.64614
210
0.0
220
0.0
230
1.0
100
AcDbArc
50
175.42516
51
177.06983
0
ARC
5
158
330
49
100
AcDbEntity
8
0
62
5
6
ByLayer
370
5
48
1.0
60
0
100
AcDbCircle
39
0.0
10
21.12471
20
60.36988
30
0.0
40
20.80139
210
0.0
220
0.0
230
1.0
100
AcDbArc
50
167.63431
51
176.85981
0
ARC
5
159
330
49
100
AcDbEntity
8
0
62
5
6
ByLayer
370
5
48
1.0
60
0
100
AcDbCircle
39
0.0
10
8.15673
20
63.70479
30
0.0
40
7.43563
210
0.0
220
0.0
230
1.0
100
AcDbArc
50
145.48011
51
171.33895
0
ARC
5
15A
330
49
100
AcDbEntity
8
0
62
5
6
ByLayer
370
5
48
1.0
60
0
100
AcDbCircle
39
0.0
10
4.62001
20
83.27176
30
0.0
40
15.57014
210
0.0
220
0.0
230
1.0
100
AcDbArc
50
243.33282
51
260.42575
0
ARC
5
15B
330
49
100
AcDbEntity
8
0
62
5
6
ByLayer
370
5
48
1.0
60
0
100
AcDbCircle
39
0.0
10
2.14038
20
79.02011
30
0.0
40
10.66231
210
0.0
220
0.0
230
1.0
100
AcDbArc
50
220.00848
51
244.98649
0
ARC
5
15C
330
49
100
AcDbEntity
8
0
62
5
6
ByLayer
370
5
48
1.0
60
0
100
AcDbCircle
39
0.0
10
-26.40354
20
65.94981
30
0.0
40
21.304
210
0.0
220
0.0
230
1.0
100
AcDbArc
50
5.44606
51
16.96288
0
ARC
5
15D
330
49
100
AcDbEntity
8
0
62
5
6
ByLayer
370
5
48
1.0
60
0
100
AcDbCircle
39
0.0
10
-86.44733
20
63.6924
30
0.0
40
81.36423
210
0.0
220
0.0
230
1.0
100
AcDbArc
50
0.0
51
3.01486
0
ARC
5
15E
330
49
100
AcDbEntity
8
0
62
5
6
ByLayer
370
5
48
1.0
60
0
100
AcDbCircle
39
0.0
10
-10.22458
20
62.62324
30
0.0
40
5.25147
210
0.0
220
0.0
230
1.0
100
AcDbArc
50
336.14035
51
11.7471
0
ARC
5
15F
330
49
100
AcDbEntity
8
0
62
5
6
ByLayer
370
5
48
1.0
60
0
100
AcDbCircle
39
0.0
10
-14.29368
20
65.31701
30
0.0
40
10.0956
210
0.0
220
0.0
230
1.0
100
AcDbArc
50
313.11181
51
331.49505
0
ARC
5
160
330
49
100
AcDbEntity
8
0
62
5
6
ByLayer
370
5
48
1.0
60
0
100
AcDbCircle
39
0.0
10
-133.65387
20
208.81467
30
0.0
40
196.72972
210
0.0
220
0.0
230
1.0
100
AcDbArc
50
307.50129
51
309.92565
0
ARC
5
161
330
49
100
AcDbEntity
8
0
62
5
6
ByLayer
370
5
48
1.0
60
0
100
AcDbCircle
39
0.0
10
32.55551
20
-13.57372
30
0.0
40
80.9614
210
0.0
220
0.0
230
1.0
100
AcDbArc
50
125.00592
51
130.90307
0
ARC
5
162
330
49
100
AcDbEntity
8
0
62
5
6
ByLayer
370
5
48
1.0
60
0
100
AcDbCircle
39
0.0
10
-18.73741
20
44.69387
30
0.0
40
3.39236
210
0.0
220
0.0
230
1.0
100
AcDbArc
50
120.4478
51
163.14892
0
ARC
5
163
330
49
100
AcDbEntity
8
0
62
5
6
ByLayer
370
5
48
1.0
60
0
100
AcDbCircle
39
0.0
10
-12.48897
20
44.07605
30
0.0
40
9.6292
210
0.0
220
0.0
230
1.0
100
AcDbArc
50
170.42794
51
185.29399
0
ARC
5
164
330
49
100
AcDbEntity
8
0
62
5
6
ByLayer
370
5
48
1.0
60
0
100
AcDbCircle
39
0.0
10
18.51068
20
46.63033
30
0.0
40
40.73353
210
0.0
220
0.0
230
1.0
100
AcDbArc
50
184.84833
51
188.16241
0
ARC
5
165
330
49
100
AcDbEntity
8
0
62
5
6
ByLayer
370
5
48
1.0
60
0
100
AcDbCircle
39
0.0
10
-17.37163
20
40.8374
30
0.0
40
4.43858
210
0.0
220
0.0
230
1.0
100
AcDbArc
50
179.87608
51
210.48575
0
ARC
5
166
330
49
100
AcDbEntity
8
0
62
5
6
ByLayer
370
5
48
1.0
60
0
100
AcDbCircle
39
0.0
10
-26.39334
20
33.59114
30
0.0
40
7.20769
210
0.0
220
0.0
230
1.0
100
AcDbArc
50
32.20913
51
43.86288
0
ARC
5
167
330
49
100
AcDbEntity
8
0
62
5
6
ByLayer
370
5
48
1.0
60
0
100
AcDbCircle
39
0.0
10
-22.27263
20
36.30019
30
0.0
40
2.27918
210
0.0
220
0.0
230
1.0
100
AcDbArc
50
353.07033
51
29.80117
0
ARC
5
168
330
49
100
AcDbEntity
8
0
62
5
6
ByLayer
370
5
48
1.0
60
0
100
AcDbCircle
39
0.0
10
-16.43124
20
36.17869
30
0.0
40
3.58215
210
0.0
220
0.0
230
1.0
100
AcDbArc
50
182.45581
51
205.82067
0
ARC
5
169
330
49
100
AcDbEntity
8
0
62
5
6
ByLayer
370
5
48
1.0
60
0
100
AcDbCircle
39
0.0
10
-20.14531
20
34.20666
30
0.0
40
0.63973
210
0.0
220
0.0
230
1.0
100
AcDbArc
50
330.81267
51
40.06961
0
ARC
5
16A
330
49
100
AcDbEntity
8
0
62
5
6
ByLayer
370
5
48
1.0
60
0
100
AcDbCircle
39
0.0
10
-21.34303
20
35.23538
30
0.0
40
2.20947
210
0.0
220
0.0
230
1.0
100
AcDbArc
50
302.95868
51
322.64184
0
ARC
5
16B
330
49
100
AcDbEntity
8
0
62
5
6
ByLayer
370
5
48
1.0
60
0
100
AcDbCircle
39
0.0
10
-19.10479
20
31.96133
30
0.0
40
1.75801
210
0.0
220
0.0
230
1.0
100
AcDbArc
50
126.11586
51
194.007
0
ARC
5
16C
330
49
100
AcDbEntity
8
0
62
5
6
ByLayer
370
5
48
1.0
60
0
100
AcDbCircle
39
0.0
10
-8.05572
20
36.32608
30
0.0
40
13.62467
210
0.0
220
0.0
230
1.0
100
AcDbArc
50
200.58439
51
209.51821
0
ARC
5
16D
330
49
100
AcDbEntity
8
0
62
5
6
ByLayer
370
5
48
1.0
60
0
100
AcDbCircle
39
0.0
10
-27.57868
20
24.99384
30
0.0
40
8.95087
210
0.0
220
0.0
230
1.0
100
AcDbArc
50
23.89712
51
31.06963
0
ARC
5
16E
330
49
100
AcDbEntity
8
0
62
5
6
ByLayer
370
5
48
1.0
60
0
100
AcDbCircle
39
0.0
10
-20.22888
20
27.87637
30
0.0
40
1.11706
210
0.0
220
0.0
230
1.0
100
AcDbArc
50
341.94822
51
41.72247
0
ARC
5
16F
330
49
100
AcDbEntity
8
0
62
5
6
ByLayer
370
5
48
1.0
60
0
100
AcDbCircle
39
0.0
10
-19.64887
20
27.79996
30
0.0
40
0.55239
210
0.0
220
0.0
230
1.0
100
AcDbArc
50
273.48026
51
330.7711
0
ARC
5
170
330
49
100
AcDbEntity
8
0
62
5
6
ByLayer
370
5
48
1.0
60
0
100
AcDbCircle
39
0.0
10
-19.60422
20
29.62091
30
0.0
40
2.37236
210
0.0
220
0.0
230
1.0
100
AcDbArc
50
256.04082
51
269.73162
0
ARC
5
171
330
49
100
AcDbEntity
8
0
62
5
6
ByLayer
370
5
48
1.0
60
0
100
AcDbCircle
39
0.0
10
-17.60604
20
36.23475
30
0.0
40
9.27926
210
0.0
220
0.0
230
1.0
100
AcDbArc
50
246.91704
51
253.91803
0
ARC
5
172
330
49
100
AcDbEntity
8
0
62
5
6
ByLayer
370
5
48
1.0
60
0
100
AcDbCircle
39
0.0
10
-22.86873
20
25.55199
30
0.0
40
2.69193
210
0.0
220
0.0
230
1.0
100
AcDbArc
50
347.07556
51
52.8776
0
ARC
5
173
330
49
100
AcDbEntity
8
0
62
5
6
ByLayer
370
5
48
1.0
60
0
100
AcDbCircle
39
0.0
10
-21.23666
20
21.65738
30
0.0
40
3.43862
210
0.0
220
0.0
230
1.0
100
AcDbArc
50
49.87172
51
73.23846
0
ARC
5
174
330
49
100
AcDbEntity
8
0
62
5
6
ByLayer
370
5
48
1.0
60
0
100
AcDbCircle
39
0.0
10
-19.82758
20
22.93572
30
0.0
40
1.57359
210
0.0
220
0.0
230
1.0
100
AcDbArc
50
7.42971
51
59.14201
0
ARC
5
175
330
49
100
AcDbEntity
8
0
62
5
6
ByLayer
370
5
48
1.0
60
0
100
AcDbCircle
39
0.0
10
-18.62586
20
23.00692
30
0.0
40
0.38227
210
0.0
220
0.0
230
1.0
100
AcDbArc
50
294.09968
51
20.24566
0
ARC
5
176
330
49
100
AcDbEntity
8
0
62
5
6
ByLayer
370
5
48
1.0
60
0
100
AcDbCircle
39
0.0
10
-18.97089
20
24.53626
30
0.0
40
1.94399
210
0.0
220
0.0
230
1.0
100
AcDbArc
50
268.2542
51
284.93835
0
ARC
5
177
330
49
100
AcDbEntity
8
0
62
5
6
ByLayer
370
5
48
1.0
60
0
100
AcDbCircle
39
0.0
10
-17.12214
20
48.43582
30
0.0
40
25.913
210
0.0
220
0.0
230
1.0
100
AcDbArc
50
263.26399
51
265.77749
0
ARC
5
178
330
49
100
AcDbEntity
8
0
62
5
6
ByLayer
370
5
48
1.0
60
0
100
AcDbCircle
39
0.0
10
-20.36716
20
25.46541
30
0.0
40
2.77134
210
0.0
220
0.0
230
1.0
100
AcDbArc
50
240.60215
51
274.25382
0
ARC
5
179
330
49
100
AcDbEntity
8
0
62
5
6
ByLayer
370
5
48
1.0
60
0
100
AcDbCircle
39
0.0
10
-18.81382
20
26.59066
30
0.0
40
4.5847
210
0.0
220
0.0
230
1.0
100
AcDbArc
50
210.50068
51
230.5406
0
ARC
5
17A
330
49
100
AcDbEntity
8
0
62
5
6
ByLayer
370
5
48
1.0
60
0
100
AcDbCircle
39
0.0
10
-36.08826
20
17.70138
30
0.0
40
14.85252
210
0.0
220
0.0
230
1.0
100
AcDbArc
50
26.22086
51
33.27976
0
ARC
5
17B
330
49
100
AcDbEntity
8
0
62
5
6
ByLayer
370
5
48
1.0
60
0
100
AcDbCircle
39
0.0
10
-25.31819
20
24.96087
30
0.0
40
1.87202
210
0.0
220
0.0
230
1.0
100
AcDbArc
50
28.40398
51
84.44565
0
ARC
5
17C
330
49
100
AcDbEntity
8
0
62
5
6
ByLayer
370
5
48
1.0
60
0
100
AcDbCircle
39
0.0
10
-24.5758
20
28.13835
30
0.0
40
1.42906
210
0.0
220
0.0
230
1.0
100
AcDbArc
50
206.80108
51
246.87691
0
ARC
5
17D
330
49
100
AcDbEntity
8
0
62
5
6
ByLayer
370
5
48
1.0
60
0
100
AcDbCircle
39
0.0
10
-13.72498
20
33.03683
30
0.0
40
13.3331
210
0.0
220
0.0
230
1.0
100
AcDbArc
50
200.18554
51
204.56464
0
ARC
5
17E
330
49
100
AcDbEntity
8
0
62
5
6
ByLayer
370
5
48
1.0
60
0
100
AcDbCircle
39
0.0
10
-36.39375
20
25.38077
30
0.0
40
10.60427
210
0.0
220
0.0
230
1.0
100
AcDbArc
50
16.74553
51
27.76971
0
ARC
5
17F
330
49
100
AcDbEntity
8
0
62
5
6
ByLayer
370
5
48
1.0
60
0
100
AcDbCircle
39
0.0
10
-48.70504
20
16.94896
30
0.0
40
25.4846
210
0.0
220
0.0
230
1.0
100
AcDbArc
50
31.65009
51
35.29063
0
ARC
5
180
330
49
100
AcDbEntity
8
0
62
5
6
ByLayer
370
5
48
1.0
60
0
100
AcDbCircle
39
0.0
10
-25.58907
20
33.61549
30
0.0
40
3.02234
210
0.0
220
0.0
230
1.0
100
AcDbArc
50
189.20341
51
220.01843
0
ENDBLK
5
4A
330
49
100
AcDbEntity
8
0
100
AcDbBlockEnd
0
BLOCK
5
183
330
181
100
AcDbEntity
8
0
100
AcDbBlockBegin
2
*Paper_Space
70
0
10
0.0
20
0.0
30
0.0
3
*Paper_Space
0
ENDBLK
5
182
330
181
100
AcDbEntity
8
0
100
AcDbBlockEnd
0
ENDSEC
0
SECTION
2
ENTITIES
0
INSERT
5
21
330
1A
100
AcDbEntity
67
0
8
0
62
256
6
ByLayer
370
-1
48
1.0
60
0
100
AcDbBlockReference
2
P4035PINM
10
0.0
20
0.0
30
0.0
41
2.0
42
2.0
43
0.0
50
0.0
210
0.0
220
0.0
230
1.0
0
INSERT
5
27
330
1A
100
AcDbEntity
67
0
8
0
62
256
6
ByLayer
370
-1
48
1.0
60
0
100
AcDbBlockReference
2
Vert
10
169.999998443856
20
0.0
30
0.0
41
-2.0
42
2.0
43
0.0
50
0.0
210
0.0
220
0.0
230
1.0
0
INSERT
5
2D
330
1A
100
AcDbEntity
67
0
8
0
62
256
6
ByLayer
370
-1
48
1.0
60
0
100
AcDbBlockReference
2
Cyan
10
0.0
20
180.000068873065
30
0.0
41
2.0
42
-2.0
43
0.0
50
0.0
210
0.0
220
0.0
230
1.0
0
INSERT
5
33
330
1A
100
AcDbEntity
67
0
8
0
62
256
6
ByLayer
370
-1
48
1.0
60
0
100
AcDbBlockReference
2
Bleu
10
169.999998443856
20
180.000068873065
30
0.0
41
-2.0
42
-2.0
43
0.0
50
0.0
210
0.0
220
0.0
230
1.0
0
DIMENSION
5
38
330
1A
100
AcDbEntity
67
0
8
0
62
1
6
ByLayer
370
0
48
1.0
60
0
100
AcDbDimension
2
*D1
10
95.0
20
200.0
30
0.0
11
95.0
21
150.0
31
0.0
70
33
71
5
72
1
41
1.0
1
coucou
210
0.0
220
0.0
230
1.0
3
Standard
100
AcDbAlignedDimension
13
100.0
23
100.0
33
0.0
14
100.0
24
200.0
34
0.0
0
POINT
5
46
330
1A
100
AcDbEntity
67
0
8
0
62
3
6
ByLayer
370
-1
48
1.0
60
0
100
AcDbPoint
10
250.0
20
250.0
30
0.0
39
0.0
210
0.0
220
0.0
230
1.0
50
360.0
0
INSERT
5
48
330
1A
100
AcDbEntity
67
0
8
0
62
256
6
ByLayer
370
-1
48
1.0
60
0
100
AcDbBlockReference
2
raptor
10
331.59642
20
801.78598
30
0.0
41
-2.0
42
-2.0
43
0.0
50
0.0
210
0.0
220
0.0
230
1.0
0
VIEWPORT
5
185
330
181
100
AcDbEntity
67
1
8
0
62
256
6
ByLayer
370
-1
48
1.0
60
0
100
AcDbViewport
10
0.0
20
0.0
30
0.0
40
297.0
41
210.0
68
1
69
1
12
50.0
22
100.0
13
0.0
23
0.0
14
10.0
24
10.0
15
10.0
25
10.0
16
0.0
26
0.0
36
1.0
17
0.0
27
0.0
37
0.0
42
50.0
43
0.0
44
0.0
45
250.0
50
0.0
51
0.0
72
1000
90
819232
110
0.0
120
0.0
130
0.0
111
1.0
121
0.0
131
0.0
112
0.0
122
1.0
132
0.0
0
ENDSEC
0
SECTION
2
OBJECTS
0
DICTIONARY
5
18A
330
0
100
AcDbDictionary
280
0
281
1
3
ACAD_GROUP
350
18B
3
ACAD_LAYOUT
350
18C
3
ACAD_MLINESTYLE
350
190
0
DICTIONARY
5
18B
330
18A
100
AcDbDictionary
280
0
281
1
0
DICTIONARY
5
18C
330
18A
100
AcDbDictionary
280
0
281
1
3
Model
350
1E
3
Layout1
350
186
0
DICTIONARY
5
190
330
18A
100
AcDbDictionary
280
0
281
1
3
Standard
350
19
0
LAYOUT
5
1E
330
18C
100
AcDbPlotSettings
1

2
none_device
4
ISO_A4_(210.00_x_297.00_MM)
6

40
7.5
41
20.0
42
7.5
43
20.0
44
210.0
45
297.0
46
0.0
47
0.0
48
0.0
49
0.0
140
0.0
141
0.0
142
1.0
143
1.0
70
11952
72
1
73
1
74
5
7

75
16
147
1.0
148
0.0
149
0.0
100
AcDbLayout
1
Model
70
1
71
0
10
-20.0
20
-7.5
11
277.0
21
202.5
12
0.0
22
0.0
32
0.0
14
25.7
24
19.5
34
0.0
15
231.3
25
175.5
35
0.0
146
0.0
13
0.0
23
0.0
33
0.0
16
1.0
26
0.0
36
0.0
17
0.0
27
1.0
37
0.0
76
0
330
1A
0
LAYOUT
5
186
330
18C
100
AcDbPlotSettings
1

2
none_device
4
ISO_A4_(210.00_x_297.00_MM)
6

40
7.5
41
20.0
42
7.5
43
20.0
44
210.0
45
297.0
46
0.0
47
0.0
48
0.0
49
0.0
140
0.0
141
0.0
142
1.0
143
1.0
70
688
72
1
73
1
74
5
7

75
16
147
1.0
148
0.0
149
0.0
100
AcDbLayout
1
Layout1
70
1
71
1
10
-20.0
20
-7.5
11
277.0
21
202.5
12
0.0
22
0.0
32
0.0
14
25.7
24
19.5
34
0.0
15
231.3
25
175.5
35
0.0
146
0.0
13
0.0
23
0.0
33
0.0
16
1.0
26
0.0
36
0.0
17
0.0
27
1.0
37
0.0
76
0
330
181
0
MLINESTYLE
5
19
330
190
100
AcDbMlineStyle
2
Standard
70
0
3

62
256
51
90.0
52
90.0
71
2
49
-0.5
62
256
6
ByLayer
49
0.5
62
256
6
ByLayer
0
ENDSEC
0
EOF
